<?xml version="1.0" encoding="utf-8"?>
<!-- Generator: Adobe Illustrator 21.0.1, SVG Export Plug-In . SVG Version: 6.00 Build 0)  -->
<svg version="1.1" id="Calque_1" xmlns="http://www.w3.org/2000/svg" xmlns:xlink="http://www.w3.org/1999/xlink" x="0px" y="0px"
	 viewBox="0 0 432 432" style="enable-background:new 0 0 432 432;" xml:space="preserve">
<style type="text/css">
	.st0{fill:#414042;}
	.st1{fill:#DA1C5C;}
	.st2{fill:#D1D3D4;}
	.st3{fill:#E8A0C7;}
	.st4{fill:#171717;}
	.st5{fill:#8DC63F;}
	.st6{fill:#1B75BC;}
	.st7{fill:#9E1F63;}
	.st8{fill:#F15A29;}
	.st9{fill:#00A79D;}
	.st10{fill:#EF4136;}
	.st11{fill:#ADCE4D;}
	.st12{fill:#EC8C28;}
	.st13{fill:#EDB525;}
	.st14{fill:#39B54A;}
	.st15{fill:#ED1C24;}
	.st16{fill:#F7941D;}
	.st17{fill:#FFF200;}
	.st18{fill:#27AAE1;}
	.st19{fill:#2B3990;}
	.st20{fill:#662D91;}
	.st21{fill:#35203B;}
	.st22{fill:#262262;}
	.st23{fill:none;stroke:#39B54A;stroke-width:2.232;stroke-linecap:round;stroke-linejoin:round;stroke-miterlimit:10;}
	.st24{fill-rule:evenodd;clip-rule:evenodd;fill:#92278F;}
	.st25{fill:#92278F;}
	.st26{fill:#FFFFFF;stroke:#39B54A;stroke-width:2.232;stroke-miterlimit:10;}
	.st27{fill:#2BB673;}
	.st28{fill:#009444;}
	.st29{fill-rule:evenodd;clip-rule:evenodd;fill:#9E1F63;}
	.st30{fill-rule:evenodd;clip-rule:evenodd;fill:#DA1C5C;}
	.st31{fill-rule:evenodd;clip-rule:evenodd;fill:#00A79D;}
	.st32{fill-rule:evenodd;clip-rule:evenodd;fill:#D7DF23;}
</style>
<g>
	<g>
		<g>
			<path class="st27" d="M111.8,169.3c2.9-2.6,1-8.2-3.1-9.5c-3.2-1-4.7,1.1-6.5,2.9c-4,3.9-7,8.8-11.5,14.8
				c-3.9,5.2,1.7,4.2,4.6,2.6C100.1,177.5,107.6,172.9,111.8,169.3z"/>
			<path class="st5" d="M113.6,171.1c3.6-1.5,7.4,1.7,6.4,5.3c-0.7,2.8-3.3,3.3-5.6,4.2c-5.3,1.9-15.5,3.6-21.1,3.4
				c-6.2-0.3,3.6-3.5,6.9-5.4C105.2,175.9,108.6,173.2,113.6,171.1z"/>
			<path class="st27" d="M56.6,189.8c-3.9,0-6.1-5.5-3.8-9.2c1.8-2.8,4.3-2.3,6.8-2.1c5.6,0.4,11.1,2.1,18.4,3.7
				c6.3,1.4,1.4,4.2-1.8,5C70.8,188.4,62.1,189.8,56.6,189.8z"/>
			<path class="st5" d="M56.4,192.4c-3.7,1.2-4.5,6.1-1.4,8.2c2.4,1.6,4.6,0.4,7-0.5c5.2-2,14.1-7.4,18.2-11.2
				c4.5-4.2-5-0.3-8.7,0.4C65.9,190.5,61.6,190.7,56.4,192.4z"/>
		</g>
		<path d="M84.3,160.4c0.2,0,0.4,0,0.6-0.1c0.6-0.2,0.9-0.9,0.7-1.5c-0.2-0.7-0.9-1-1.6-0.8c-0.5,0.2-0.8,0.7-0.7,1.3
			c-1.5,1.7-1.9,4.1-1.8,6.2c-0.7,0.1-1.4,0.2-2.1,0.5c-0.6,0.2-1.2,0.5-1.7,0.9c-1.3-1.6-3.1-3.1-5.4-3.4c-0.3-0.5-0.9-0.7-1.4-0.5
			c-0.6,0.2-0.9,1-0.7,1.6c0.3,0.6,0.9,0.9,1.5,0.7c0.2-0.1,0.3-0.2,0.4-0.3c1.8,0.3,3.2,1.5,4.4,2.9c-1.9,1.8-2.8,4.4-1.7,6.9
			c1,2.3,3.5,3.7,6.1,3.9c0.6,7,3.4,15.4,5.4,21.7c1,3.3,1.8,6.7,5.3,8c4.5,1.6,8.6-3.2,6.7-8.2c-2.6-7.1-6.5-14.1-10.2-20.6
			c-0.5-0.8-1.1-1.8-1.7-2.9c1.9-1.8,3-4.6,2.1-7.1c-0.9-2.5-3.2-3.8-5.6-4C82.8,163.7,83.1,161.8,84.3,160.4z"/>
	</g>
	<g>
		<g>
			<path class="st9" d="M386.4,224.5c3.9,0.1,6.3-5.4,4-9.1c-1.7-2.9-4.2-2.4-6.7-2.2c-5.6,0.3-11.1,1.8-18.5,3.3
				c-6.3,1.2-1.5,4.2,1.7,5C372.2,222.8,380.9,224.4,386.4,224.5z"/>
			<path class="st28" d="M386.5,227.1c3.7,1.3,4.3,6.2,1.2,8.3c-2.4,1.6-4.7,0.3-7-0.6c-5.2-2.1-13.9-7.7-17.9-11.6
				c-4.4-4.3,5-0.2,8.7,0.6C377.1,225,381.4,225.3,386.5,227.1z"/>
			<path class="st9" d="M331.7,202.8c-2.9-2.6-0.9-8.2,3.3-9.4c3.2-0.9,4.7,1.2,6.4,3c3.9,4,6.8,9,11.2,15.1
				c3.8,5.2-1.8,4.1-4.7,2.5C343.2,211.3,335.7,206.5,331.7,202.8z"/>
			<path class="st28" d="M329.8,204.6c-3.6-1.6-7.4,1.6-6.5,5.2c0.7,2.8,3.2,3.4,5.5,4.3c5.2,2,15.4,4,21,3.9
				c6.2-0.1-3.5-3.6-6.7-5.5C338.1,209.5,334.8,206.8,329.8,204.6z"/>
		</g>
		<path d="M371.9,199.5c0.1,0.2,0.3,0.3,0.5,0.4c0.6,0.2,1.2-0.1,1.5-0.7c0.3-0.6,0-1.4-0.6-1.6c-0.5-0.2-1.1,0-1.4,0.4
			c-2.3,0.3-4.1,1.7-5.5,3.4c-0.6-0.4-1.2-0.8-1.9-1.1c-0.6-0.2-1.3-0.4-1.9-0.5c0.1-2.1-0.2-4.4-1.7-6.2c0.1-0.5-0.2-1.1-0.7-1.3
			c-0.6-0.3-1.3,0.1-1.6,0.7c-0.2,0.6,0.1,1.3,0.7,1.5c0.2,0.1,0.4,0.1,0.5,0c1.1,1.4,1.4,3.3,1.3,5.1c-2.6,0.1-5.1,1.4-5.9,4
			c-0.8,2.4,0.1,5.1,1.9,7c-4.3,5.6-7.8,13.8-10.5,19.8c-1.4,3.1-3.2,6.2-1.5,9.5c2.3,4.3,8.5,3.4,10.5-1.6c2.8-7,4.6-14.8,6.2-22.1
			c0.2-0.9,0.5-2.1,0.7-3.3c2.6,0,5.3-1.4,6.3-3.9c1-2.5,0.2-5-1.5-6.8C368.6,201,370.1,199.7,371.9,199.5z"/>
	</g>
	<g>
		<g>
			<path class="st27" d="M153.1,355.7c1.6,4.6-8.1,7.4-14.1,10.5c-4.6,2.4-4.9-1.4-5.8-4.6c-1.8-7.1,1.3-7.7,0.4-18.9
				c-0.8-9.6,5.2-8.4,7.6-5.8C145.2,341.2,150.8,349.3,153.1,355.7z"/>
			<path class="st5" d="M154.3,356c3.2,2.4,12.4-7.7,15.5-16.9c2.3-7.1-0.5-7.5-2.7-8.8c-5.1-2.7-17.2-3.2-25.3-0.2
				c-8.9,3.3,0.7,7.9,3.1,11.4C148.4,346.8,149.8,352.6,154.3,356z"/>
		</g>
		<g>
			<path class="st27" d="M111.6,331c-4.8,0.8-2.6,10.7-2.5,17.5c0.1,5.2,3.6,3.7,6.8,2.9c7.1-1.8,6.2-4.9,16.4-9.4
				c8.8-3.9,4.9-8.6,1.5-9.5C128.1,331.1,118.4,329.9,111.6,331z"/>
			<path class="st5" d="M110.8,330.1c-3.7-1.7,0.8-14.6,7.5-21.6c5.1-5.4,6.8-3.2,9-1.8c4.8,3.1,11,13.6,12.2,22.1
				c1.4,9.4-7.3,3.1-11.5,2.7C121.7,331,116,332.4,110.8,330.1z"/>
		</g>
		<path d="M150.7,321.6c0.1,0.1,0.2,0.2,0.3,0.3c0.4,0.2,0.9,0.1,1.1-0.3c0.3-0.4,0.1-1-0.3-1.2c-0.3-0.2-0.8-0.1-1,0.2
			c-1.6-0.1-3.1,0.8-4.2,1.8c-0.4-0.4-0.8-0.7-1.2-0.9c-0.4-0.2-0.8-0.4-1.3-0.6c0.3-1.5,0.3-3.1-0.5-4.5c0.1-0.4,0-0.8-0.4-1
			c-0.4-0.2-1-0.1-1.2,0.3c-0.2,0.4-0.1,0.9,0.3,1.1c0.1,0.1,0.2,0.1,0.4,0.1c0.6,1.1,0.6,2.5,0.4,3.7c-1.8-0.2-3.7,0.5-4.5,2.2
			c-0.8,1.6-0.5,3.6,0.6,5.1c-3.6,3.5-6.9,8.8-9.5,12.8c-1.3,2-2.9,4-2,6.5c1.1,3.2,5.6,3.3,7.5,0c2.7-4.6,4.8-9.9,6.7-14.9
			c0.2-0.6,0.5-1.4,0.8-2.2c1.8,0.2,3.9-0.4,4.9-2c1-1.6,0.7-3.5-0.3-4.9C148.2,322.3,149.4,321.6,150.7,321.6z"/>
	</g>
	<g>
		<path class="st14" d="M366.6,281.2c-0.6-0.3-1.2,0-1.5,0.5c-2.2,4.5-5.3,7.5-9.4,8.8c-5.4,1.8-11.3,0.5-15-0.8
			c4.1-1.1,10.3-4.1,14.1-12c0.3-0.6,0-1.2-0.5-1.5c-0.6-0.3-1.2,0-1.5,0.5c-3.8,8.1-10.5,10.4-13.9,11.1c3-5,5.4-10.5,6.7-16.6
			c0.1-0.6-0.3-1.2-0.9-1.3c-0.6-0.1-1.2,0.3-1.3,0.9c-1.3,6.1-3.7,11.6-6.8,16.6c-1.9-2.5-5.8-9.1-2.8-18.3
			c0.2-0.6-0.1-1.2-0.7-1.4c-0.6-0.2-1.2,0.1-1.4,0.7c-2.8,8.3-0.4,14.8,1.8,18.4c-3.5-1.6-8.7-4.8-11.3-9.8
			c-2-3.8-2.2-8.1-0.6-12.9c0.2-0.6-0.1-1.2-0.7-1.4c-0.6-0.2-1.2,0.1-1.4,0.7c-1.8,5.3-1.5,10.3,0.8,14.6
			c3.7,7,11.5,10.6,14.7,11.8c-5.3,7.6-11.9,13.6-17.7,18c-0.5,0.4-0.6,1.1-0.2,1.6c0.2,0.3,0.6,0.4,0.9,0.4c0.2,0,0.5-0.1,0.7-0.2
			c6-4.6,13-11,18.5-19c2,0.9,7.1,2.9,12.9,2.9c2.1,0,4.3-0.3,6.5-1c4.7-1.6,8.3-4.9,10.7-10C367.4,282.1,367.1,281.5,366.6,281.2z"
			/>
		<g>
			<path class="st29" d="M321.9,261.6c-1.2-0.5-3-0.4-3.7,0.8c-2.2,3.4,5.2,6.3,5.3,1C323.3,262.6,322.7,262,321.9,261.6z"/>
			<path class="st29" d="M334.2,265.8c-1.2-0.5-3-0.4-3.7,0.8c-2.2,3.4,5.2,6.3,5.3,1C335.6,266.8,335,266.2,334.2,265.8z"/>
			<path class="st29" d="M345.8,267.8c-1.2-0.5-3-0.4-3.7,0.8c-2.2,3.4,5.2,6.3,5.3,1C347.2,268.8,346.6,268.2,345.8,267.8z"/>
			<path class="st29" d="M355.3,274.3c-1.2-0.5-3-0.4-3.7,0.8c-2.2,3.4,5.2,6.3,5.3,1C356.7,275.3,356.1,274.7,355.3,274.3z"/>
			<path class="st29" d="M367.4,279.6c-1.2-0.5-3-0.4-3.7,0.8c-2.2,3.4,5.2,6.3,5.3,1C368.8,280.6,368.2,280,367.4,279.6z"/>
		</g>
	</g>
	<g>
		<path class="st14" d="M43.1,101.9c0.6-0.3,1.2,0,1.5,0.5c2.2,4.5,5.4,7.4,9.5,8.7c5.4,1.7,11.3,0.3,14.9-1
			c-4.1-1.1-10.3-3.9-14.2-11.8c-0.3-0.6,0-1.2,0.5-1.5c0.6-0.3,1.2,0,1.5,0.5c4,8,10.6,10.3,14.1,10.9c-3.1-4.9-5.6-10.4-6.9-16.5
			c-0.1-0.6,0.2-1.2,0.8-1.3c0.6-0.1,1.2,0.2,1.3,0.9c1.3,6.1,3.9,11.6,7.1,16.5c1.9-2.5,5.7-9.2,2.5-18.3c-0.2-0.6,0.1-1.2,0.7-1.4
			c0.6-0.2,1.2,0.1,1.4,0.7c2.9,8.3,0.6,14.8-1.6,18.4c3.5-1.7,8.6-4.9,11.2-10c1.9-3.8,2.1-8.2,0.4-12.9c-0.2-0.6,0.1-1.2,0.7-1.4
			c0.6-0.2,1.2,0.1,1.4,0.7c1.8,5.3,1.6,10.2-0.6,14.6c-3.6,7.1-11.3,10.8-14.6,12c5.4,7.5,12.1,13.5,18,17.8
			c0.5,0.4,0.6,1.1,0.2,1.6c-0.2,0.3-0.5,0.4-0.9,0.5c-0.2,0-0.5-0.1-0.7-0.2c-6.1-4.5-13.2-10.8-18.7-18.7c-2,0.9-7.1,3-12.8,3.1
			c-2.1,0-4.3-0.2-6.5-0.9c-4.7-1.5-8.3-4.8-10.8-9.8C42.3,102.9,42.6,102.2,43.1,101.9z"/>
		<g>
			<path class="st30" d="M87.6,81.7c1.2-0.6,2.9-0.4,3.7,0.8c2.2,3.4-5.1,6.4-5.3,1.1C86.2,82.7,86.7,82.1,87.6,81.7z"/>
			<path class="st30" d="M75.2,86.1c1.2-0.6,2.9-0.4,3.7,0.8c2.2,3.4-5.1,6.4-5.3,1.1C73.9,87.1,74.4,86.5,75.2,86.1z"/>
			<path class="st30" d="M63.7,88.3c1.2-0.6,2.9-0.4,3.7,0.8c2.2,3.4-5.1,6.4-5.3,1.1C62.3,89.3,62.9,88.6,63.7,88.3z"/>
			<path class="st30" d="M54.3,94.9c1.2-0.6,2.9-0.4,3.7,0.8c2.2,3.4-5.1,6.4-5.3,1.1C52.9,95.9,53.5,95.3,54.3,94.9z"/>
			<path class="st30" d="M42.3,100.3c1.2-0.6,2.9-0.4,3.7,0.8c2.2,3.4-5.1,6.4-5.3,1.1C40.9,101.3,41.5,100.7,42.3,100.3z"/>
		</g>
	</g>
	<path class="st27" d="M352,135.2c-1.7-3.2-8-1.8-10.4-1.4c13.3-4.5,7.3-15-3.3-6.6c9.2-10.6-1.2-16.6-6.2-4
		c2.7-13.8-9.3-13.8-7.3-0.4c-4.5-13.3-15-7.3-6.6,3.3c-10.6-9.2-16.6,1.2-4,6.2c-13.8-2.7-13.8,9.3-0.4,7.3
		c-13.3,4.5-7.3,15,3.3,6.6c-9.2,10.6,1.2,16.6,6.2,4c-2.7,13.8,9.3,13.8,7.3,0.4c4.5,13.3,15,7.3,6.6-3.3c10.6,9.2,16.6-1.2,4-6.2
		C343.4,141.5,356.5,143.5,352,135.2z M332.4,137.9c-0.2,0-0.5,0-0.8-0.1c0.1,0,0.1,0.1,0.2,0.1c0.4,0.2,0.8,0.4,0.8,0.9
		c0,0.7-0.8,1.3-1.4,0.9c-0.1-0.1-0.3-0.2-0.5-0.3c0,0,0,0,0,0.1c0.2,0.4,0.5,0.7,0.2,1.2c-0.4,0.6-1.4,0.7-1.7,0.1
		c-0.1-0.2-0.2-0.4-0.3-0.7c0,0.1,0,0.2,0,0.2c0,0.4,0.1,0.8-0.4,1.1c-0.6,0.3-1.5-0.1-1.5-0.7c0-0.2,0-0.4,0.1-0.6c0,0,0,0,0,0.1
		c-0.2,0.4-0.4,0.8-0.9,0.8c-0.7,0-1.3-0.8-0.9-1.4c0.1-0.2,0.3-0.4,0.4-0.6c-0.1,0-0.1,0.1-0.2,0.1c-0.4,0.2-0.7,0.5-1.2,0.2
		c-0.6-0.4-0.7-1.4-0.1-1.7c0.2-0.1,0.3-0.2,0.5-0.2c0,0,0,0-0.1,0c-0.4,0-0.8,0.1-1.1-0.4c-0.4-0.6,0.1-1.5,0.7-1.5
		c0.2,0,0.5,0,0.8,0.1c-0.1,0-0.1-0.1-0.2-0.1c-0.4-0.2-0.8-0.4-0.8-0.9c0-0.7,0.8-1.3,1.4-0.9c0.1,0.1,0.3,0.2,0.5,0.3
		c0,0,0,0,0-0.1c-0.2-0.4-0.5-0.7-0.2-1.2c0.4-0.6,1.4-0.7,1.7-0.1c0.1,0.2,0.2,0.4,0.3,0.7c0-0.1,0-0.2,0-0.2
		c0-0.4-0.1-0.8,0.4-1.1c0.6-0.3,1.5,0.1,1.5,0.7c0,0.2,0,0.4-0.1,0.6c0,0,0,0,0-0.1c0.2-0.4,0.4-0.8,0.9-0.8c0.7,0,1.3,0.8,0.9,1.4
		c-0.1,0.2-0.3,0.4-0.4,0.6c0.1,0,0.1-0.1,0.2-0.1c0.4-0.2,0.7-0.5,1.2-0.2c0.6,0.4,0.7,1.4,0.1,1.7c-0.2,0.1-0.3,0.2-0.5,0.2
		c0,0,0,0,0.1,0c0.4,0,0.8-0.1,1.1,0.4C333.5,137,333,137.9,332.4,137.9z"/>
	<g>
		<path class="st31" d="M192.2,84.1c-3.2,1.1-5.8,2.5-8.5,4c-0.2-0.4-0.4-0.7-0.6-1.1c2.8-1.6,5.5-3.3,7.4-4.8
			c3-2.3,1.5-7.8-2.4-9.3c-3-1.1-4.6,0.8-6.4,2.4c-0.9,0.8-1.8,1.7-2.7,2.6c0.6-1.7,1.2-3.4,1.5-4.7c0.6-2.3,1.5-4.7-0.4-6.8
			c-2.4-2.7-7-1.3-7.7,2.4c-0.7,3.9-0.7,7.2-0.8,10.9c-0.4-0.1-0.8-0.1-1.2-0.2c0.1-3.7,0-7.4-0.4-10.2c-0.5-3.7-6.1-5.2-9.3-2.5
			c-2.5,2-1.6,4.4-1.2,6.8c0.2,1.2,0.6,2.4,0.9,3.7c-1.2-1.4-2.3-2.7-3.3-3.6c-1.7-1.7-3.3-3.6-6-3c-3.5,0.7-4.7,5.4-1.8,7.9
			c2.6,2.2,5,3.7,7.7,5.4c-0.3,0.3-0.6,0.6-0.9,0.9c-2.7-1.6-5.4-3-7.6-3.9c-3.5-1.4-7.5,2.6-6.8,6.8c0.5,3.2,3,3.6,5.3,4.4
			c1.2,0.4,2.4,0.7,3.6,1c-1.8,0.3-3.5,0.7-4.8,1.1c-2.3,0.7-4.8,1.1-5.7,3.7c-1.1,3.4,2.3,6.8,5.9,5.5c3.3-1.1,5.9-2.6,8.8-4.1
			c0.2,0.3,0.4,0.7,0.7,1c-2.9,1.7-5.7,3.4-7.8,5c-3,2.3-1.5,7.8,2.4,9.3c3,1.1,4.6-0.8,6.4-2.4c0.9-0.8,1.8-1.7,2.7-2.6
			c-0.6,1.7-1.2,3.4-1.5,4.7c-0.6,2.3-1.5,4.7,0.4,6.8c2.4,2.7,7,1.3,7.7-2.4c0.8-4,0.7-7.4,0.9-11.2c0.4,0.1,0.8,0.2,1.2,0.2
			c-0.1,3.8,0,7.6,0.4,10.4c0.5,3.7,6.1,5.2,9.3,2.5c2.5-2,1.6-4.4,1.2-6.8c-0.2-1.2-0.6-2.4-0.9-3.7c1.2,1.4,2.3,2.7,3.3,3.6
			c1.7,1.7,3.3,3.6,6,3c3.5-0.7,4.7-5.4,1.8-7.9c-2.6-2.3-5.1-3.8-7.9-5.5c0.3-0.3,0.5-0.6,0.8-1c2.8,1.6,5.6,3.1,7.9,4
			c3.5,1.4,7.5-2.6,6.8-6.8c-0.5-3.2-3-3.6-5.3-4.4c-1.2-0.4-2.4-0.7-3.6-1c1.8-0.3,3.5-0.7,4.8-1.1c2.3-0.7,4.8-1.1,5.7-3.7
			C199.3,86.1,195.8,82.8,192.2,84.1z"/>
		<path class="st32" d="M184.9,91.7c-0.6,29.6-42.1,13.3-29.8-5.8c4.4-6.8,14.3-7.9,21-4.8C180.7,83.1,184,86.5,184.9,91.7"/>
	</g>
	<path class="st1" d="M249.7,94.1c-2.5,0.1-5.1,0.5-7.7,1.2c-3.3,0.9-6.8,2.5-10.5,4.8c-3.2,2-2.8,5-0.7,6.9c1,1,2.3,1.6,3.6,2
		c1.3,0.3,2.6,0.3,3.6,0.1c3.3-0.7,7.1-2.6,10-5.3c1.8-1.6,3.4-3.4,4.7-5.2c-1.3,2.3-2.3,4.9-3,7.7c-0.4,1.7-0.8,3.5-0.9,5.4
		c-0.2,1.9-0.2,4-0.1,6.1c0.1,3.7,3,4.9,5.6,4.1c1.3-0.3,2.6-1.2,3.5-2.2c1-1,1.6-2.1,1.9-3.1c0.5-1.6,0.9-3.5,1-5.4
		c0.1-2-0.1-4-0.5-5.9c-0.5-2.3-1.1-4.5-2-6.4c1.4,2.2,3,4.3,5,6.2c1.2,1.2,2.6,2.4,4.2,3.5c1.6,1.1,3.3,2.2,5.2,3.2
		c1.7,0.9,3,0.9,4.2,0.3c1.1-0.6,1.8-1.7,2.2-3.1c0.2-0.7,0.2-1.4,0.2-2.1c0-0.7-0.2-1.4-0.3-2.1c-0.3-1.3-1-2.4-1.7-3.2
		c-2.2-2.5-5.8-4.8-9.6-6.1c-2-0.7-4-1.2-6-1.4c2.4-0.1,4.8-0.6,7.3-1.3c3.3-0.9,6.8-2.5,10.5-4.8c3.2-2,2.8-5,0.7-6.9
		c-1-1-2.3-1.6-3.6-2c-1.3-0.3-2.6-0.3-3.6-0.1c-3.3,0.7-7.1,2.6-10,5.3c-1.3,1.1-2.7,2.3-3.7,3.6c0.9-1.9,1.5-3.9,2-6.1
		c0.4-1.7,0.8-3.5,0.9-5.4c0.2-1.9,0.2-4,0.1-6.1c-0.1-3.7-3-4.9-5.6-4.1c-1.3,0.3-2.6,1.2-3.5,2.2c-1,1-1.6,2.1-1.9,3.1
		c-0.5,1.6-0.9,3.5-1,5.4c-0.1,2,0.1,4,0.5,5.9c0.4,1.9,0.9,4,1.6,5.6c-1.3-2-2.8-3.6-4.6-5.4c-1.2-1.2-2.6-2.4-4.2-3.5
		c-1.6-1.1-3.3-2.2-5.2-3.2c-1.7-0.9-3-0.9-4.2-0.3c-1.1,0.6-1.8,1.7-2.2,3.1c-0.2,0.7-0.2,1.4-0.2,2.1c0,0.7,0.2,1.4,0.3,2.1
		c0.3,1.3,1,2.4,1.7,3.2c2.2,2.5,5.8,4.8,9.6,6.1C245.5,93.3,247.7,93.9,249.7,94.1z"/>
	<path class="st7" d="M267,340.7c-1.5-1.4-3.2-2.5-5.2-3.6c-1.5-0.8-3.2-1.4-4.9-2.1c0.1,0,0.2,0.1,0.4,0.1
		c5.7,1.5,11.2,2.3,15.6,0.3c7-3.3,4.7-10-1.6-10.5c-1.6-0.1-3.3,0-5.2,0.6c-1.9,0.6-3.8,1.5-5.7,2.7c-1.4,0.9-2.8,2-4.2,3.2
		c0.1-0.1,0.2-0.2,0.3-0.3c4.2-4.2,7.6-8.6,8-13.4c0.6-7.7-6.3-9-9.9-3.8c-0.9,1.4-1.6,2.9-2.1,4.8c-0.4,2-0.6,4-0.5,6.3
		c0.1,1.7,0.3,3.5,0.6,5.3c0-0.1-0.1-0.2-0.1-0.4c-1.6-5.7-3.6-10.9-7.6-13.7c-6.3-4.4-11,0.9-8.3,6.7c0.7,1.5,1.7,2.9,3.1,4.2
		c1.5,1.4,3.2,2.5,5.2,3.6c1.5,0.8,3.2,1.4,4.9,2.1c-0.1,0-0.2-0.1-0.4-0.1c-5.8-1.5-11.2-2.3-15.6-0.3c-7,3.3-4.7,10,1.6,10.5
		c1.6,0.1,3.3,0,5.2-0.6c1.9-0.6,3.8-1.5,5.7-2.7c1.4-0.9,2.8-2,4.2-3.2c-0.1,0.1-0.2,0.2-0.3,0.3c-4.2,4.2-7.6,8.6-8,13.4
		c-0.6,7.7,6.3,9,9.9,3.8c0.9-1.4,1.6-2.9,2.1-4.8c0.4-2,0.6-4,0.5-6.3c-0.1-1.7-0.3-3.5-0.6-5.3c0,0.1,0.1,0.2,0.1,0.4
		c1.6,5.7,3.6,10.9,7.6,13.7c6.3,4.4,11-0.9,8.3-6.7C269.4,343.4,268.4,342,267,340.7z"/>
	<g>
		<path class="st9" d="M96,268.1c1.6-0.7,6.9-1.3,8.9-2.5c2.3-1.3,4.4-3.7,3-6.5c-3.2-6.7-11.1-0.8-15.2,1.6c0.3-1.9,3.1-4.1,4-5.8
			c1.3-2.3,1.6-4.9-0.2-7.1c-5.2-6.2-9,5.7-10.3,9c-0.6-3.1-0.6-13.8-6.1-12c-6.2,2-1.7,11-0.1,14.7c-3.1-3-5.4-8.9-10.9-7.5
			c-2,0.5-2.9,2.1-3,4.1c-0.1,3.1,4.8,5.9,7,7.6c-3.6-0.1-12.3-2.8-13.4,3.1c-1.2,6.4,10.3,5.1,14.1,4.9c-4.8,2.3-12.9,7.6-7.9,12.6
			c4.6,4.6,9.9-1.6,12.5-5.2c-0.3,4.2-3.7,9,1.1,12.2c1.6,1.1,4.6,1.7,6.2,0.4c2.1-1.7,0.9-9.1,1.4-11.4c2,4,7.8,11.6,12.4,8.3
			l0.7-0.5c4.3-5.2-5.5-10.4-8.6-13.8c4,0.8,12.3,7.8,15.4,2.5C110.7,270.5,99,268.7,96,268.1z M88.4,269.9c-0.6,1-2.2-0.3-2.9-0.5
			c0.6,0.6,2.4,1.6,1.6,2.6l-0.1,0.1c-0.9,0.6-2-0.8-2.4-1.6c-0.1,0.4,0.1,1.8-0.3,2.2c-0.3,0.3-0.9,0.1-1.2-0.1
			c-0.9-0.6-0.3-1.5-0.2-2.3c-0.5,0.7-1.5,1.9-2.4,1c-0.9-0.9,0.6-2,1.5-2.4c-0.7,0-2.9,0.3-2.7-0.9c0.2-1.1,1.9-0.6,2.5-0.6
			c-0.4-0.3-1.3-0.9-1.3-1.4c0-0.4,0.2-0.7,0.6-0.8c1-0.3,1.5,0.9,2.1,1.4c-0.3-0.7-1.2-2.4,0-2.8c1-0.3,1,1.7,1.2,2.3
			c0.3-0.6,1-2.9,2-1.7c0.3,0.4,0.3,0.9,0,1.3c-0.2,0.3-0.7,0.8-0.8,1.1c0.8-0.5,2.3-1.6,2.9-0.3c0.3,0.5-0.1,1-0.6,1.2
			c-0.4,0.2-1.4,0.4-1.7,0.5C86.9,268.4,89.1,268.8,88.4,269.9z"/>
	</g>
	<g>
		<path class="st14" d="M228.3,187.2c1.4,0.1,2.8-0.2,4-0.6c2.4-0.7,4.6-2,6.2-4c0.1-0.1,0.1-0.5-0.1-0.5c-2-0.2-3.9,0.1-5.8,0.7
			c1.4-1.5,2.7-3,3.9-4.6c0.5-0.6,1.8-0.4,2.4-0.5c1-0.2,2-0.3,3-0.6c3.6-0.9,7.1-2.4,9.4-5.6c0.1-0.1,0.1-0.5-0.1-0.5
			c-3.8-0.3-7.7,0.4-11.2,2c0.6-1.2,1.7-3.2,2.4-3c1.2,0.3,2.6,0,3.7-0.4c2.3-0.9,4.1-2.5,5.2-4.7c0.1-0.1,0-0.5-0.1-0.5
			c-2.8,0.2-5.3,1.5-7.8,2.7c0.8-1.5,1.5-3.1,2.2-4.7c0.4-0.9,0.7-1.7,1-2.6c0.2-0.6,1.2-0.9,1.7-1.2c2.7-1.6,5.2-3.4,7.7-5.2
			c0.1-0.1,0.1-0.5,0-0.5c-2.6-1.1-5.6-0.3-7.8,1.3c0.5-2.4,1.2-4.7,0.4-7.3c-0.8-2.5-2.7-4.6-5.5-4.7c-0.2,0-0.1,0.4-0.1,0.5
			c1,1.7,1.5,3.5,2,5.4c0.5,2,1.5,4.5,1,6.6c-0.1,0.4-0.7,2.3-0.7,2.4c-0.4-0.8-1.1-1.5-1.8-2c-1-0.8-2.5-1-3.7-1
			c-0.2,0-0.1,0.4-0.1,0.5c0.9,1.4,2.3,2.4,3.5,3.6c0.4,0.4,1.5,1.2,1.2,1.9c-0.5,1.2-1,2.4-1.5,3.5c-0.3,0.6-0.5,1.2-0.8,1.7
			c-0.3,0.6-0.6-0.5-0.6-0.7c-0.4-0.8-0.8-1.7-1.3-2.5c-0.7-1.2-1.5-2.4-2.5-3.4c-0.1-0.1-0.2,0-0.2,0.1c-0.8,3,0.1,6.4,2.3,8.6
			c0.6,0.6,0.8,0.7,0.4,1.5c-0.4,0.7-0.8,1.4-1.2,2.1c-0.2,0.3-0.8,1-0.8,1.4c0-0.5-0.1-1-0.1-1.5c-0.1-2.1-0.8-4.2-0.7-6.3
			c0-0.1,0-0.4-0.2-0.3c-2.6,1.5-3.2,5.5-2.7,8.2c0.2,1,0.4,2,0.9,2.8c0.6,1-0.6,1.9-1.2,2.7c-1.4,1.8-2.9,3.5-4.5,5.1
			c0.5-1.8,1-3.6,1.2-5.4c0-0.1,0-0.4-0.2-0.3c-2.7,1.3-4,4.4-3.6,7.3c0.1,1-0.2,1.1-1,1.8c-0.8,0.7-1.6,1.4-2.3,2.1
			c-0.1,0.1-1.1,0.9-1.1,1.1c0-0.6,0-1.3,0.1-1.9c0.2-1.3,0.5-2.5,0.9-3.7c0.8-2.1,1.9-4,3-5.9c0.4-0.8,0.9-1.5,1.3-2.3
			c0.5-0.9,1-0.9,1.9-1.4c2.4-1.3,4.1-3.3,3.5-6.1c0-0.1-0.1-0.3-0.2-0.2c-0.9,0.8-1.7,1.7-2.6,2.4c0.2-0.4,0.3-0.9,0.4-1.4
			c0.1-0.6,0.2-1.9,0.9-2.1c1.5-0.5,2.8-1.2,4.2-2c0.2-0.1,0.1-0.5,0-0.5c-1.5-0.7-2.9-0.3-4.3,0.5c0.1-1.1,0.1-2.1,0.1-3.2
			c0-0.6,1.3-1.6,1.7-1.9c1.2-1.1,2.4-2.2,3.5-3.4c0.1-0.1,0.1-0.5-0.1-0.5c-1.4-0.3-3,0.2-4,1.1c-0.5,0.5-1,0.9-1.3,1.5
			c0.1-0.3-0.2-1.5-0.2-1.8c-0.3-1.7-0.3-3.1-1.1-4.7c-0.7-1.4-1.7-2.7-2.9-3.7c-0.1-0.1-0.2,0-0.2,0.1c-0.2,1.2-0.1,2.6,0.3,3.8
			c0.3,0.9,0.7,1.8,1.2,2.7c0.4,0.7,1.3,1.6,1.5,2.5c0.1,0.6,0.5,1.3-0.3,0.7c-0.3-0.2-0.6-0.5-1-0.7c-0.8-0.4-1.8-0.8-2.8-0.8
			c-1.3,0.1-2.4,0.4-3.3,1.3c-0.1,0.1-0.1,0.5,0.1,0.5c1.8,0.4,3.7,1.2,5.3,2.2c0.8,0.5,1.5,1,2.3,1.6c0.8,0.6-0.3,2.2,0.1,2.7
			c-1.6-2.4-5.9-3.8-8.3-1.7c-0.1,0.1-0.1,0.5,0,0.5c1.5,0.5,2.9,1.3,4.3,2c0.8,0.4,1.6,0.8,2.4,1.2c0.4,0.2,0.8,0.5,1.2,0.7
			c0,0,0,0,0,0c-0.3,0.2-0.5,0.5-0.6,0.8c-1.4-1.7-4.3-2.9-6.1-1.1c-0.1,0.1-0.1,0.5,0.1,0.5c2,0.4,3.6,1.8,5.3,2.8
			c-2.6,5.5-6.6,10.4-7.3,16.6c-0.2,1.5,0.2,3.2-0.7,4.4c-1.1,1.4-2.2,2.9-3.1,4.4c-0.2,0.4-0.4,0.7-0.6,1.1
			c0.6,0.2,1.3,0.4,1.9,0.6c1.3-2.3,2.9-4.4,4.7-6.3c0.8-0.9,1.7-1.7,2.5-2.5C226.7,188.3,227.7,187.1,228.3,187.2z"/>
		<path class="st14" d="M161,171.1c1,0.2,2,0.3,3,0.3c0.8,0,2-0.4,2.9,0c0.6,0.2,1.4,0.3,0.5,0.6c-0.4,0.1-0.8,0.3-1.1,0.5
			c-0.8,0.5-1.6,1.1-2.1,2c-0.6,1.1-0.9,2.2-0.5,3.5c0,0.1,0.4,0.3,0.5,0.2c1.3-1.4,2.9-2.6,4.5-3.5c0.8-0.5,1.7-0.8,2.5-1.2
			c1-0.4,1.7,1.4,2.4,1.3c-2.9,0.2-6.2,3.2-5.6,6.3c0,0.2,0.4,0.4,0.5,0.2c1.2-1.1,2.6-1.9,3.9-2.8c0.7-0.5,1.5-1,2.2-1.5
			c0.4-0.2,0.8-0.4,1.2-0.7c0,0,0,0,0,0c0,0.4,0.1,0.7,0.4,1c-2.2,0.3-4.7,2.3-4,4.7c0,0.1,0.4,0.3,0.5,0.2c1.4-1.5,3.3-2.3,5.1-3.2
			c3.5,5,5.7,10.9,10.7,14.6c1.2,0.9,2.9,1.4,3.4,2.8c0.7,1.7,1.4,3.3,2.3,4.9c0.2,0.4,0.4,0.7,0.6,1.1c0.5-0.5,1-0.9,1.5-1.3
			c-1.3-2.3-2.4-4.7-3.1-7.3c-0.3-1.1-0.6-2.3-0.9-3.4c-0.1-0.5-0.7-2-0.3-2.5c0.8-1.1,1.2-2.5,1.5-3.8c0.6-2.4,0.6-5-0.4-7.3
			c-0.1-0.1-0.4-0.3-0.5-0.2c-1.2,1.6-1.9,3.4-2.3,5.3c-0.6-1.9-1.2-3.8-2-5.7c-0.3-0.7,0.6-1.7,0.8-2.3c0.4-1,0.7-1.9,1-2.9
			c1-3.6,1.4-7.4-0.1-10.9c-0.1-0.1-0.4-0.3-0.5-0.2c-2.2,3.2-3.5,6.8-3.8,10.7c-0.7-1.2-1.9-3.1-1.5-3.6c0.9-0.8,1.3-2.3,1.5-3.4
			c0.4-2.4-0.1-4.8-1.5-6.9c-0.1-0.1-0.4-0.3-0.5-0.1c-1.2,2.5-1.3,5.3-1.5,8.1c-0.9-1.4-1.9-2.8-3-4.2c-0.6-0.7-1.1-1.5-1.7-2.2
			c-0.4-0.5-0.2-1.5-0.2-2.1c-0.1-3.1-0.4-6.2-0.6-9.3c0-0.2-0.3-0.3-0.5-0.2c-2.3,1.7-3,4.7-2.8,7.4c-1.9-1.6-3.5-3.4-6.1-4
			c-2.6-0.5-5.4,0-6.8,2.4c-0.1,0.2,0.3,0.3,0.4,0.3c2,0,3.8,0.4,5.7,0.9c2,0.6,4.6,1,6.2,2.4c0.3,0.3,1.6,1.8,1.8,1.8
			c-0.9,0-1.8,0.2-2.7,0.6c-1.2,0.5-2.1,1.6-2.8,2.7c-0.1,0.2,0.3,0.3,0.4,0.3c1.7-0.1,3.2-0.8,4.8-1.2c0.6-0.2,1.8-0.7,2.2-0.1
			c0.8,1,1.6,2,2.3,3.1c0.4,0.5,0.7,1,1.1,1.6c0.4,0.6-0.7,0.2-0.9,0.2c-0.9-0.1-1.9-0.2-2.8-0.2c-1.4,0-2.8,0.1-4.2,0.4
			c-0.1,0-0.1,0.2,0,0.2c2.2,2.2,5.6,3.1,8.6,2.3c0.8-0.2,1-0.4,1.5,0.4c0.4,0.7,0.8,1.4,1.2,2.1c0.2,0.3,0.5,1.2,0.8,1.4
			c-0.5-0.2-0.9-0.4-1.4-0.7c-1.9-0.9-4.1-1.4-5.9-2.5c-0.1,0-0.4-0.2-0.4,0c0,3,3.2,5.5,5.8,6.4c0.9,0.3,1.9,0.6,2.9,0.6
			c1.2,0,1.4,1.4,1.7,2.4c0.8,2.1,1.5,4.3,2.1,6.5c-1.3-1.3-2.6-2.6-4.1-3.7c-0.1-0.1-0.4-0.2-0.4,0c-0.2,3.1,1.8,5.6,4.5,6.8
			c0.9,0.4,0.8,0.7,1,1.8c0.2,1,0.4,2,0.7,3c0,0.2,0.3,1.4,0.4,1.5c-0.6-0.3-1.1-0.6-1.6-1c-1-0.8-2-1.7-2.8-2.7
			c-1.4-1.7-2.6-3.6-3.7-5.5c-0.4-0.8-0.9-1.5-1.3-2.3c-0.5-0.9-0.3-1.4-0.3-2.3c0.1-2.7-0.8-5.2-3.5-6.1c-0.1,0-0.3,0-0.2,0.1
			c0.3,1.2,0.6,2.3,0.8,3.5c-0.3-0.4-0.6-0.7-0.9-1.1c-0.4-0.4-1.5-1.1-1.4-1.8c0.3-1.5,0.3-3.1,0.4-4.6c0-0.2-0.4-0.3-0.5-0.2
			c-1.4,0.9-1.8,2.4-1.7,3.9c-0.9-0.6-1.8-1.2-2.7-1.7c-0.6-0.3-0.7-1.9-0.8-2.4c-0.3-1.6-0.7-3.1-1.2-4.7c0-0.1-0.4-0.3-0.5-0.2
			c-0.9,1-1.4,2.7-1.1,4c0.1,0.7,0.3,1.3,0.7,1.9c-0.2-0.3-1.4-0.6-1.7-0.7c-1.6-0.6-2.8-1.3-4.6-1.4c-1.6-0.1-3.1,0.1-4.6,0.7
			c-0.1,0-0.1,0.2,0,0.2C158.6,170.2,159.8,170.8,161,171.1z"/>
		<path class="st14" d="M146.6,192.7c1.8,0.8,3.7,1.4,5.6,1.7c1.1,0.2,2.3,0.3,3.5,0.2c1.1-0.1,2.5,0.6,3.6,1
			c-2,1.6-2.7,4.6-1.5,6.9c0.1,0.1,0.4,0.3,0.5,0.2c1.1-1.8,1.9-4,3.3-5.6c0.7-0.9,1.9-0.1,2.9,0.1c1.1,0.3,2.1,0.6,3.2,1
			c-2,1-3.6,3.2-3.1,5.6c0,0.1,0.4,0.4,0.5,0.2c1.2-1.2,2.5-2.5,3.8-3.6c0.5-0.4,1.5-1.5,2.2-1.2c0.7,0.2,1.4,0.5,2.1,0.7
			c-2.1,0.9-3.6,2.7-4.1,4.9c0,0.2,0.3,0.4,0.4,0.3c1.8-0.6,3.4-1.6,5-2.5c0.9-0.4,1.7-0.7,2.7-1c0.9-0.3,2.7,0.9,3.5,1.3
			c0.5,0.3,1.1,0.5,1.6,0.8c0.4,0.2,0.7,0.4,1.1,0.6c-0.1,0-0.2-0.1-0.4-0.1c-1,0.1-2,0.3-2.8,0.7c-1.4,0.6-2.7,1.4-3.8,2.4
			c-0.1,0.1,0.1,0.3,0.2,0.3c1.6,0.4,3.4,0.5,5,0.1c1.3-0.3,2.5-0.6,3.7-1.2c0.3-0.1,0.6-0.3,0.9-0.4c0.6-0.4,1.7,0.7,2.2,1
			c0.6,0.4,1.3,0.8,1.9,1.1c0.3-0.5,0.6-1.1,0.9-1.6c-1.1-0.6-1.9-1.1-2.5-2.3c-0.7-1.4-1.4-2.8-2.2-4.2c-1.1-1.9-2.5-3.8-4.2-5.1
			c-0.1-0.1-0.4-0.2-0.4,0c-0.2,1.6,0,3.4,0.5,5c0.3,0.9,0.7,1.7,1.2,2.5c-0.4-0.6-2.3-1.1-3-1.4c-0.8-0.3-1.5-0.5-1.7-1.4
			c-0.1-0.3-0.2-0.7-0.3-1c-0.4-1-0.7-2.1-1.2-3.1c-0.6-1.4-1.2-2.7-1.2-4.3c0-0.2-0.4-0.3-0.5-0.2c-1.3,0.8-1.9,2.5-1.8,4
			c0.1,1,0.4,2,0.9,3c0.2,0.3,0.3,0.6,0.5,0.9c0,0-1.2-0.4-1.3-0.4c-1.1-0.4-3.1-0.6-3.7-1.6c-0.5-0.9-1.1-1.8-1.5-2.7
			c-0.8-1.7-1.9-3.2-2.6-4.9c-0.1-0.1-0.4-0.3-0.5-0.2c-0.7,1.1-0.9,2.7-0.6,4c0.2,0.9,0.5,1.7,1,2.5c0.6,0.9-1.2,0-1.6-0.1
			c-0.1,0-1.5-0.5-1.5-0.3c-0.1-0.5-0.1-0.9-0.2-1.4c-0.1-0.9-0.2-1.8-0.4-2.6c-0.2-1.6-0.6-3.2-1.1-4.7c0-0.1-0.4-0.3-0.5-0.2
			c-1.2,1.3-1.8,3.3-1.5,5c0.1,0.6,0.2,1.2,0.4,1.7c0,0,0.6,1.2,0.3,1.1c-1.2-0.4-2.7-0.7-3.8-1.4c-2.8-1.9-7-2.5-9.9-0.5
			C146.3,192.5,146.5,192.6,146.6,192.7z"/>
		<path class="st14" d="M251.7,181.5c-0.1,0-0.5,0.2-0.4,0.4c1,1.9,2.5,3.7,3.2,5.7c0.4,1.1-0.8,1.8-1.6,2.4
			c-0.8,0.8-1.6,1.5-2.4,2.3c0.1-2.3-1-4.7-3.3-5.5c-0.1,0-0.5,0.1-0.5,0.3c0.4,1.7,0.9,3.4,1.2,5c0.1,0.6,0.5,2,0,2.5
			c-0.6,0.5-1.1,1-1.7,1.5c0.3-2.3-0.5-4.4-2.2-6c-0.1-0.1-0.5,0.1-0.5,0.2c-0.3,1.9-0.3,3.7-0.4,5.6c-0.1,1-0.2,1.9-0.5,2.8
			c-0.2,1-2.1,1.9-2.8,2.4c-0.5,0.3-1,0.7-1.5,1c-0.3,0.2-0.7,0.4-1,0.7c0.1-0.1,0.2-0.2,0.3-0.3c0.4-0.9,0.7-1.8,0.8-2.8
			c0.2-1.5,0.2-3-0.2-4.5c0-0.2-0.3,0-0.4,0c-1.1,1.2-2.1,2.7-2.6,4.3c-0.4,1.2-0.7,2.5-0.8,3.8c0,0.3-0.1,0.7-0.1,1
			c0,0.7-1.5,1.2-2,1.4c-0.6,0.4-1.3,0.7-1.9,1.1c0.3,0.5,0.6,1,0.9,1.6c1.1-0.6,1.9-1.1,3.2-1c1.6,0.1,3.1,0.2,4.7,0.2
			c2.2,0,4.5-0.3,6.6-1.1c0.1,0,0.3-0.2,0.2-0.3c-1.3-1-3-1.8-4.6-2.1c-0.9-0.2-1.8-0.3-2.8-0.2c0.7,0,2.1-1.5,2.7-1.9
			c0.7-0.5,1.2-1.1,2.1-0.8c0.3,0.1,0.7,0.2,1,0.2c1.1,0.2,2.2,0.4,3.3,0.5c1.5,0.2,3,0.3,4.3,1.1c0.2,0.1,0.5-0.1,0.5-0.3
			c-0.1-1.6-1.2-2.9-2.6-3.6c-1-0.4-1.9-0.7-3-0.7c-0.3,0-0.7,0-1,0c0,0,0.9-0.9,1-1c0.8-0.7,2.1-2.4,3.3-2.4c1,0,2.1,0,3.1,0
			c1.9,0.1,3.7,0,5.6,0.2c0.1,0,0.5-0.2,0.4-0.4c-0.6-1.2-1.9-2.1-3.2-2.5c-0.9-0.3-1.8-0.4-2.7-0.3c-1.1,0.1,0.6-1,0.9-1.3
			c0.1,0,1.2-1.1,1-1.1c0.4,0.2,0.9,0.3,1.3,0.5c0.8,0.3,1.6,0.7,2.5,1c1.5,0.6,3,1,4.6,1.4c0.1,0,0.5-0.2,0.4-0.3
			c-0.5-1.7-2-3.2-3.6-3.8c-0.5-0.2-1.1-0.4-1.7-0.5c0,0-1.3-0.1-1.1-0.3c0.9-0.9,1.9-2,3.1-2.6c3-1.5,5.6-4.8,5.4-8.3
			c0-0.2-0.3,0-0.3,0c-1.6,1.1-3.1,2.5-4.3,4c-0.7,0.9-1.4,1.8-1.9,2.9c-0.5,1-1.8,1.9-2.7,2.6C256.5,183.7,254.3,181.7,251.7,181.5
			z"/>
		<path class="st14" d="M198.8,165.4c2.1,0,4.4-0.3,6.5,0.1c1.1,0.2,1.1,1.6,1.3,2.6c0.3,1.1,0.5,2.2,0.8,3.2
			c-1.9-1.3-4.6-1.5-6.4,0.1c-0.1,0.1-0.2,0.5,0,0.5c1.6,0.4,3.4,0.9,5,1.5c0.6,0.2,2,0.6,2.2,1.3c0.2,0.7,0.3,1.5,0.4,2.2
			c-1.8-1.4-4.1-1.8-6.3-1.1c-0.2,0.1-0.2,0.4,0,0.5c1.4,1.2,3.1,2.1,4.7,3.1c0.8,0.6,1.5,1.1,2.2,1.8c0.7,0.7,0.6,2.8,0.7,3.7
			c0.1,0.6,0.1,1.2,0.1,1.8c0,0.4,0,0.8,0.1,1.2c0-0.1-0.1-0.3-0.1-0.4c-0.6-0.8-1.2-1.5-2-2.1c-1.2-0.9-2.5-1.7-4-2.1
			c-0.2,0-0.2,0.3-0.2,0.4c0.5,1.6,1.3,3.2,2.4,4.4c0.9,0.9,1.8,1.9,2.9,2.6c0.2,0.2,0.5,0.4,0.8,0.5c0.6,0.3,0.3,1.9,0.2,2.4
			c0,0.7,0,1.5,0,2.2c0.2,0,0.5,0,0.7,0c0.4,0,0.7,0,1.1,0c0-1.3,0-2.1,0.8-3.3c0.9-1.3,1.7-2.6,2.5-4c1.1-1.9,2-4,2.3-6.2
			c0-0.1,0-0.4-0.2-0.3c-1.5,0.6-3,1.7-4.1,2.9c-0.6,0.7-1.2,1.5-1.6,2.3c0.3-0.6-0.2-2.6-0.3-3.3c-0.1-0.8-0.4-1.6,0.3-2.2
			c0.2-0.2,0.5-0.5,0.7-0.7c0.7-0.8,1.4-1.7,2.1-2.6c0.9-1.2,1.8-2.4,3.1-3.2c0.2-0.1,0.1-0.5,0-0.5c-1.4-0.7-3.1-0.5-4.4,0.4
			c-0.9,0.6-1.6,1.3-2.1,2.2c-0.2,0.3-0.4,0.6-0.5,0.9c0,0-0.3-1.3-0.3-1.4c-0.2-1.1-1-3-0.5-4c0.5-0.9,1-1.8,1.6-2.7
			c1-1.6,1.8-3.2,2.9-4.7c0.1-0.1,0.1-0.5-0.1-0.5c-1.4-0.1-2.8,0.6-3.8,1.5c-0.7,0.6-1.2,1.3-1.6,2.1c-0.5,1-0.6-1-0.7-1.5
			c0-0.1-0.3-1.6-0.5-1.5c0.4-0.3,0.7-0.6,1.1-0.9c0.7-0.6,1.4-1.1,2.1-1.6c1.3-1,2.4-2.1,3.6-3.3c0.1-0.1,0.1-0.5-0.1-0.5
			c-1.7-0.4-3.8,0.1-5.1,1.2c-0.5,0.4-0.9,0.7-1.3,1.2c0,0-0.7,1.1-0.8,0.8c-0.3-1.2-0.8-2.7-0.7-4c0.2-3.4-1.4-7.3-4.5-8.9
			c-0.1-0.1-0.2,0.2-0.2,0.3c0.2,1.9,0.6,3.9,1.3,5.7c0.4,1.1,0.9,2.1,1.6,3.1c0.6,0.9,0.7,2.5,0.9,3.6c-2.4-0.9-5.3,0-6.7,2.2
			C198.6,165,198.6,165.4,198.8,165.4z"/>
		<path class="st14" d="M156.9,236.9c-0.4-1.6-0.3-3.2-0.5-4.7c-0.1-0.9-0.2-1.8-0.1-2.7c0-0.5,0-0.9,0-1.4c0,0,0,0,0,0
			c0.3,0.2,0.7,0.2,1.1,0.1c-0.8,2-0.4,5.2,2.1,5.8c0.1,0,0.5-0.2,0.4-0.3c-0.6-1.9-0.3-4-0.3-6c6-0.5,12.3,0.5,18-2
			c1.4-0.6,2.7-1.8,4.2-1.6c1.8,0.3,3.6,0.4,5.4,0.5c0.4,0,0.8,0,1.2,0c-0.2-0.6-0.3-1.3-0.4-2c-2.6,0-5.3-0.3-7.9-0.9
			c-1.1-0.3-2.3-0.6-3.4-0.9c-0.5-0.2-2.1-0.4-2.3-1c-0.6-1.2-1.6-2.3-2.5-3.2c-1.8-1.7-4-3-6.5-3.3c-0.2,0-0.5,0.2-0.4,0.4
			c0.8,1.8,2,3.4,3.5,4.7c-2-0.5-3.9-0.8-5.9-1.1c-0.8-0.1-1.2-1.4-1.6-1.9c-0.6-0.8-1.3-1.6-2-2.3c-2.6-2.7-5.7-4.9-9.5-5.3
			c-0.2,0-0.5,0.2-0.4,0.4c1.7,3.5,4.1,6.5,7.3,8.7c-1.4,0.1-3.7,0.1-3.8-0.5c-0.3-1.2-1.3-2.3-2.2-3c-1.9-1.5-4.2-2.3-6.7-2.2
			c-0.1,0-0.5,0.2-0.3,0.4c1.6,2.3,4,3.8,6.2,5.4c-1.7,0.1-3.4,0.2-5.1,0.5c-0.9,0.1-1.8,0.2-2.8,0.4c-0.6,0.1-1.4-0.6-1.9-0.8
			c-2.7-1.5-5.6-2.8-8.4-4.1c-0.2-0.1-0.5,0.1-0.5,0.3c0.3,2.9,2.5,4.9,5,6.1c-2.4,0.8-4.7,1.3-6.5,3.3c-1.8,2-2.6,4.7-1.4,7.1
			c0.1,0.2,0.4-0.1,0.5-0.2c1-1.7,2.2-3.1,3.6-4.5c1.5-1.5,3.1-3.5,5.2-4.1c0.4-0.1,2.3-0.5,2.4-0.6c-0.5,0.8-0.7,1.6-0.8,2.6
			c-0.1,1.3,0.3,2.7,1,3.7c0.1,0.2,0.4-0.1,0.5-0.2c0.8-1.5,1-3.2,1.4-4.8c0.1-0.6,0.3-1.9,1-2c1.3-0.2,2.5-0.4,3.8-0.5
			c0.6-0.1,1.3-0.1,1.9-0.2c0.7,0-0.2,0.7-0.3,0.9c-0.5,0.8-1.1,1.5-1.6,2.4c-0.7,1.2-1.3,2.5-1.7,3.8c0,0.1,0.1,0.1,0.2,0.1
			c3-0.8,5.5-3.3,6.2-6.3c0.2-0.8,0.2-1.1,1.1-1.1c0.8,0,1.6,0,2.4,0c0.3,0,1.3,0.2,1.6,0c-0.4,0.3-0.8,0.6-1.3,0.8
			c-1.7,1.2-3.3,2.8-5.1,3.8c-0.1,0-0.4,0.3-0.2,0.3c2.6,1.4,6.4,0,8.5-1.8c0.7-0.6,1.5-1.3,2-2.2c0.6-1,1.9-0.5,2.9-0.3
			c2.2,0.4,4.5,0.8,6.7,1.4c-1.8,0.5-3.6,0.9-5.3,1.7c-0.1,0-0.3,0.2-0.2,0.3c2.5,1.7,5.8,1.2,8.1-0.5c0.8-0.6,1-0.4,2.1,0
			c1,0.3,2,0.7,3,0.9c0.2,0,1.3,0.5,1.5,0.4c-0.5,0.3-1.1,0.7-1.7,0.9c-1.2,0.5-2.4,0.9-3.7,1c-2.2,0.3-4.4,0.4-6.6,0.4
			c-0.9,0-1.8,0-2.6,0c-1,0-1.3-0.4-2.2-1c-2.3-1.4-4.9-1.9-7.1,0c-0.1,0.1-0.2,0.2,0,0.3c1.2,0.3,2.3,0.7,3.4,1.1
			c-0.5,0.1-0.9,0.2-1.4,0.3c-0.6,0.1-1.7,0.8-2.3,0.3c-1.2-1-2.5-1.8-3.8-2.6c-0.2-0.1-0.5,0.1-0.5,0.3c0.1,1.6,1.2,2.7,2.6,3.4
			c-1,0.5-1.9,1-2.8,1.5c-0.5,0.3-2-0.4-2.5-0.5c-1.5-0.5-3.1-0.9-4.7-1.4c-0.1,0-0.5,0.2-0.4,0.3c0.4,1.3,1.6,2.5,3,2.9
			c0.6,0.2,1.3,0.4,2,0.4c-0.3,0-1.2,0.9-1.5,1.1c-1.3,1.1-2.6,1.8-3.5,3.3c-0.8,1.3-1.5,2.8-1.7,4.3c0,0.1,0.1,0.1,0.2,0.1
			c1.2-0.5,2.3-1.2,3.1-2.2c0.7-0.7,1.2-1.6,1.7-2.4c0.4-0.7,0.7-1.9,1.4-2.5c0.5-0.4,0.9-1.1,0.8-0.1c0,0.4-0.1,0.8-0.1,1.2
			c0,0.9,0.2,2,0.7,2.8c0.7,1.1,1.5,1.9,2.7,2.2c0.1,0,0.5-0.2,0.4-0.3c-0.6-1.8-0.8-3.8-0.8-5.6c0-0.9,0.2-1.8,0.3-2.8
			c0.1-1,2-0.8,2.3-1.4c-1.3,2.6-0.3,7,2.7,8C156.6,237.2,156.9,237.1,156.9,236.9z"/>
		<path class="st14" d="M222.7,272.8c-2.1,0-4.4,0.3-6.5-0.1c-1.1-0.2-1.1-1.6-1.3-2.6c-0.3-1.1-0.5-2.2-0.8-3.2
			c1.9,1.3,4.6,1.5,6.4-0.1c0.1-0.1,0.2-0.5,0-0.5c-1.6-0.4-3.4-0.9-5-1.5c-0.6-0.2-2-0.6-2.2-1.3c-0.2-0.7-0.3-1.5-0.4-2.2
			c1.8,1.4,4.1,1.8,6.3,1.1c0.2-0.1,0.2-0.4,0-0.5c-1.4-1.2-3.1-2.1-4.7-3.1c-0.8-0.6-1.5-1.1-2.2-1.8c-0.7-0.7-0.6-2.8-0.7-3.7
			c-0.1-0.6-0.1-1.2-0.1-1.8c0-0.4,0-0.8-0.1-1.2c0,0.1,0.1,0.3,0.1,0.4c0.6,0.8,1.2,1.5,2,2.1c1.2,0.9,2.5,1.7,4,2.1
			c0.2,0,0.2-0.3,0.2-0.4c-0.5-1.6-1.3-3.2-2.4-4.4c-0.9-0.9-1.8-1.9-2.9-2.6c-0.2-0.2-0.5-0.4-0.8-0.5c-0.6-0.3-0.3-1.9-0.2-2.4
			c0-0.7,0-1.5,0-2.2c-0.2,0-0.5,0-0.7,0c-0.4,0-0.7,0-1.1,0c0,1.3,0,2.1-0.8,3.3c-0.9,1.3-1.7,2.6-2.5,4c-1.1,1.9-2,4-2.3,6.2
			c0,0.1,0,0.4,0.2,0.3c1.5-0.6,3-1.7,4.1-2.9c0.6-0.7,1.2-1.5,1.6-2.3c-0.3,0.6,0.2,2.6,0.3,3.3c0.1,0.8,0.4,1.6-0.3,2.2
			c-0.2,0.2-0.5,0.5-0.7,0.7c-0.7,0.8-1.4,1.7-2.1,2.6c-0.9,1.2-1.8,2.4-3.1,3.2c-0.2,0.1-0.1,0.5,0,0.5c1.4,0.7,3.1,0.5,4.4-0.4
			c0.9-0.6,1.6-1.3,2.1-2.2c0.2-0.3,0.4-0.6,0.5-0.9c0,0,0.3,1.3,0.3,1.4c0.2,1.1,1,3,0.5,4c-0.5,0.9-1,1.8-1.6,2.7
			c-1,1.6-1.8,3.2-2.9,4.7c-0.1,0.1-0.1,0.5,0.1,0.5c1.4,0.1,2.8-0.6,3.8-1.5c0.7-0.6,1.2-1.3,1.6-2.1c0.5-1,0.6,1,0.7,1.5
			c0,0.1,0.3,1.6,0.5,1.5c-0.4,0.3-0.7,0.6-1.1,0.9c-0.7,0.6-1.4,1.1-2.1,1.6c-1.3,1-2.4,2.1-3.6,3.3c-0.1,0.1-0.1,0.5,0.1,0.5
			c1.7,0.4,3.8-0.1,5.1-1.2c0.5-0.4,0.9-0.7,1.3-1.2c0,0,0.7-1.1,0.8-0.8c0.3,1.2,0.8,2.7,0.7,4c-0.2,3.4,1.4,7.3,4.5,8.9
			c0.1,0.1,0.2-0.2,0.2-0.3c-0.2-1.9-0.6-3.9-1.3-5.7c-0.4-1.1-0.9-2.1-1.6-3.1c-0.6-0.9-0.7-2.5-0.9-3.6c2.4,0.9,5.3,0,6.7-2.2
			C222.9,273.2,222.9,272.8,222.7,272.8z"/>
		<path class="st14" d="M260.5,267.1c-1-0.2-2-0.3-3-0.3c-0.8,0-2,0.3-2.9,0c-0.6-0.2-1.4-0.3-0.5-0.6c0.4-0.1,0.8-0.3,1.1-0.5
			c0.8-0.5,1.6-1.1,2.1-2c0.6-1.1,0.9-2.2,0.5-3.5c0-0.1-0.4-0.3-0.5-0.2c-1.3,1.4-2.9,2.6-4.5,3.5c-0.8,0.5-1.7,0.8-2.5,1.2
			c-1,0.4-1.7-1.4-2.4-1.3c2.9-0.2,6.2-3.2,5.6-6.3c0-0.2-0.4-0.4-0.5-0.2c-1.2,1.1-2.6,1.9-3.9,2.8c-0.7,0.5-1.5,1-2.2,1.5
			c-0.4,0.2-0.8,0.4-1.2,0.7c0,0,0,0,0,0c0-0.4-0.1-0.7-0.4-1c2.2-0.3,4.7-2.3,4-4.7c0-0.1-0.4-0.3-0.5-0.2
			c-1.4,1.5-3.3,2.3-5.1,3.2c-3.5-5-5.7-10.9-10.7-14.6c-1.2-0.9-2.9-1.4-3.4-2.8c-0.7-1.7-1.4-3.3-2.3-4.9
			c-0.2-0.4-0.4-0.7-0.6-1.1c-0.5,0.5-1,0.9-1.5,1.3c1.3,2.3,2.4,4.7,3.1,7.3c0.3,1.1,0.6,2.3,0.9,3.4c0.1,0.5,0.7,2,0.3,2.5
			c-0.8,1.1-1.2,2.5-1.5,3.8c-0.6,2.4-0.6,5,0.4,7.3c0.1,0.1,0.4,0.3,0.5,0.2c1.2-1.6,1.9-3.4,2.3-5.3c0.6,1.9,1.3,3.8,2,5.7
			c0.3,0.7-0.6,1.7-0.8,2.3c-0.4,1-0.7,1.9-1,2.9c-1,3.6-1.4,7.4,0.1,10.9c0.1,0.1,0.4,0.3,0.5,0.2c2.2-3.2,3.5-6.8,3.8-10.7
			c0.7,1.2,1.9,3.1,1.5,3.6c-0.9,0.8-1.3,2.3-1.5,3.4c-0.4,2.4,0.1,4.8,1.5,6.9c0.1,0.1,0.4,0.3,0.5,0.1c1.2-2.5,1.3-5.3,1.5-8.1
			c0.9,1.4,1.9,2.8,3,4.2c0.6,0.7,1.1,1.5,1.7,2.2c0.4,0.5,0.2,1.5,0.2,2.1c0.1,3.1,0.4,6.2,0.6,9.3c0,0.2,0.3,0.3,0.5,0.2
			c2.3-1.7,3-4.7,2.8-7.4c1.9,1.6,3.5,3.4,6.1,4c2.6,0.5,5.4,0,6.8-2.4c0.1-0.2-0.3-0.3-0.4-0.3c-2,0-3.8-0.4-5.7-0.9
			c-2-0.6-4.6-1-6.2-2.4c-0.3-0.3-1.6-1.8-1.8-1.8c0.9,0,1.8-0.2,2.7-0.6c1.2-0.5,2.1-1.6,2.8-2.7c0.1-0.2-0.3-0.3-0.4-0.3
			c-1.7,0.1-3.2,0.8-4.8,1.2c-0.6,0.2-1.8,0.7-2.2,0.1c-0.8-1-1.6-2-2.3-3.1c-0.4-0.5-0.7-1-1.1-1.6c-0.4-0.6,0.7-0.2,0.9-0.2
			c0.9,0.1,1.9,0.2,2.8,0.2c1.4,0,2.8-0.1,4.2-0.4c0.1,0,0.1-0.2,0-0.2c-2.2-2.2-5.6-3.1-8.6-2.3c-0.8,0.2-1,0.4-1.5-0.4
			c-0.4-0.7-0.8-1.4-1.2-2.1c-0.2-0.3-0.5-1.2-0.8-1.4c0.5,0.2,0.9,0.4,1.4,0.7c1.9,0.9,4.1,1.4,5.9,2.5c0.1,0,0.4,0.2,0.4,0
			c0-3-3.2-5.5-5.8-6.4c-0.9-0.3-1.9-0.6-2.9-0.6c-1.2,0-1.4-1.4-1.7-2.4c-0.8-2.1-1.5-4.3-2.1-6.5c1.3,1.3,2.6,2.6,4.1,3.7
			c0.1,0.1,0.4,0.2,0.4,0c0.2-3.1-1.8-5.6-4.5-6.8c-0.9-0.4-0.8-0.7-1-1.8c-0.2-1-0.4-2-0.7-3c0-0.2-0.3-1.4-0.4-1.5
			c0.6,0.3,1.1,0.6,1.6,1c1,0.8,2,1.7,2.8,2.7c1.4,1.7,2.6,3.6,3.7,5.5c0.4,0.8,0.9,1.5,1.3,2.3c0.5,0.9,0.3,1.4,0.3,2.3
			c-0.1,2.7,0.8,5.2,3.5,6.1c0.1,0,0.3,0,0.2-0.1c-0.3-1.2-0.6-2.3-0.8-3.5c0.3,0.4,0.6,0.7,0.9,1.1c0.4,0.4,1.5,1.1,1.4,1.8
			c-0.3,1.5-0.3,3.1-0.4,4.6c0,0.2,0.4,0.3,0.5,0.2c1.4-0.9,1.8-2.4,1.7-3.9c0.9,0.6,1.8,1.2,2.7,1.7c0.6,0.3,0.7,1.9,0.8,2.4
			c0.3,1.6,0.7,3.1,1.2,4.7c0,0.1,0.4,0.3,0.5,0.2c0.9-1,1.4-2.7,1.1-4c-0.1-0.7-0.3-1.3-0.7-1.9c0.2,0.3,1.4,0.6,1.7,0.7
			c1.6,0.6,2.8,1.3,4.6,1.4c1.6,0.1,3.1-0.1,4.6-0.7c0.1,0,0.1-0.2,0-0.2C262.9,268,261.7,267.4,260.5,267.1z"/>
		<path class="st14" d="M274.9,245.5c-1.8-0.8-3.7-1.4-5.6-1.7c-1.1-0.2-2.3-0.3-3.5-0.2c-1.1,0.1-2.5-0.6-3.6-1
			c2-1.6,2.7-4.6,1.5-6.9c-0.1-0.1-0.4-0.3-0.5-0.2c-1.1,1.8-1.9,4-3.3,5.6c-0.7,0.9-1.9,0.1-2.9-0.1c-1.1-0.3-2.1-0.6-3.2-1
			c2-1,3.6-3.2,3.1-5.6c0-0.1-0.4-0.4-0.5-0.2c-1.2,1.2-2.5,2.5-3.8,3.6c-0.5,0.4-1.5,1.5-2.2,1.2c-0.7-0.2-1.4-0.5-2.1-0.7
			c2.1-0.9,3.6-2.7,4.1-4.9c0-0.2-0.3-0.4-0.4-0.3c-1.8,0.6-3.4,1.6-5,2.5c-0.9,0.4-1.7,0.7-2.7,1c-0.9,0.3-2.7-0.9-3.5-1.3
			c-0.5-0.3-1.1-0.5-1.6-0.8c-0.4-0.2-0.7-0.4-1.1-0.6c0.1,0,0.2,0.1,0.4,0.1c1-0.1,2-0.3,2.8-0.7c1.4-0.6,2.7-1.4,3.8-2.4
			c0.1-0.1-0.1-0.3-0.2-0.3c-1.6-0.4-3.4-0.5-5-0.1c-1.3,0.3-2.5,0.6-3.7,1.2c-0.3,0.1-0.6,0.3-0.9,0.4c-0.6,0.4-1.7-0.7-2.2-1
			c-0.6-0.4-1.3-0.8-1.9-1.1c-0.3,0.5-0.6,1.1-0.9,1.6c1.1,0.6,1.9,1.1,2.5,2.3c0.7,1.4,1.4,2.8,2.2,4.2c1.1,1.9,2.5,3.8,4.2,5.1
			c0.1,0.1,0.4,0.2,0.4,0c0.2-1.6,0-3.4-0.5-5c-0.3-0.9-0.7-1.7-1.2-2.5c0.4,0.6,2.3,1.1,3,1.4c0.8,0.3,1.5,0.5,1.7,1.4
			c0.1,0.3,0.2,0.7,0.3,1c0.4,1,0.7,2.1,1.2,3.1c0.6,1.4,1.2,2.7,1.2,4.3c0,0.2,0.4,0.3,0.5,0.2c1.3-0.8,1.9-2.5,1.8-4
			c-0.1-1-0.4-2-0.9-3c-0.2-0.3-0.3-0.6-0.5-0.9c0,0,1.2,0.4,1.3,0.4c1.1,0.4,3.1,0.6,3.7,1.6c0.5,0.9,1.1,1.8,1.5,2.7
			c0.8,1.7,1.9,3.2,2.6,4.9c0.1,0.1,0.4,0.3,0.5,0.2c0.7-1.1,0.9-2.7,0.6-4c-0.2-0.9-0.5-1.7-1-2.5c-0.6-0.9,1.2,0,1.6,0.1
			c0.1,0,1.5,0.5,1.5,0.3c0.1,0.5,0.1,0.9,0.2,1.4c0.1,0.9,0.2,1.8,0.4,2.6c0.2,1.6,0.6,3.2,1.1,4.7c0,0.1,0.4,0.3,0.5,0.2
			c1.2-1.3,1.8-3.3,1.5-5c-0.1-0.6-0.2-1.2-0.4-1.7c0,0-0.6-1.2-0.3-1.1c1.2,0.4,2.7,0.7,3.8,1.4c2.8,1.9,7,2.5,9.9,0.5
			C275.2,245.7,275,245.6,274.9,245.5z"/>
		<path class="st14" d="M293.6,208.7c-0.1-0.2-0.4,0.1-0.5,0.2c-1,1.7-2.2,3.1-3.6,4.5c-1.5,1.5-3.1,3.5-5.2,4.1
			c-0.4,0.1-2.3,0.5-2.4,0.6c0.5-0.8,0.7-1.6,0.8-2.6c0.1-1.3-0.3-2.7-1-3.7c-0.1-0.2-0.4,0.1-0.5,0.2c-0.8,1.5-1,3.2-1.4,4.8
			c-0.1,0.6-0.3,1.9-1,2c-1.3,0.2-2.5,0.4-3.8,0.5c-0.6,0.1-1.3,0.1-1.9,0.2c-0.7,0,0.2-0.7,0.3-0.9c0.5-0.8,1.1-1.5,1.6-2.4
			c0.7-1.2,1.3-2.5,1.7-3.8c0-0.1-0.1-0.1-0.2-0.1c-3,0.8-5.5,3.3-6.2,6.3c-0.2,0.8-0.2,1.1-1.1,1.1c-0.8,0-1.6,0-2.4,0
			c-0.3,0-1.3-0.2-1.6,0c0.4-0.3,0.8-0.6,1.3-0.8c1.7-1.2,3.3-2.8,5.1-3.8c0.1,0,0.4-0.3,0.2-0.3c-2.6-1.4-6.4,0-8.5,1.8
			c-0.7,0.6-1.5,1.3-2,2.2c-0.6,1-1.9,0.5-2.9,0.3c-2.2-0.4-4.5-0.8-6.7-1.4c1.8-0.5,3.6-0.9,5.3-1.7c0.1,0,0.3-0.2,0.2-0.3
			c-2.5-1.7-5.8-1.2-8.1,0.5c-0.8,0.6-1,0.4-2.1,0c-1-0.3-2-0.7-3-0.9c-0.2,0-1.3-0.5-1.5-0.4c0.5-0.3,1.1-0.7,1.7-0.9
			c1.2-0.5,2.4-0.9,3.7-1c2.2-0.3,4.4-0.4,6.6-0.4c0.9,0,1.8,0,2.6,0c1,0,1.3,0.4,2.2,1c2.3,1.4,4.9,1.9,7.1,0
			c0.1-0.1,0.2-0.2,0-0.3c-1.2-0.3-2.3-0.7-3.4-1.1c0.5-0.1,0.9-0.2,1.4-0.3c0.6-0.1,1.7-0.8,2.3-0.3c1.2,1,2.5,1.8,3.8,2.6
			c0.2,0.1,0.5-0.1,0.5-0.3c-0.1-1.6-1.2-2.7-2.6-3.4c1-0.5,1.9-1,2.8-1.5c0.5-0.3,2,0.4,2.5,0.5c1.5,0.5,3.1,0.9,4.7,1.4
			c0.1,0,0.5-0.2,0.4-0.3c-0.4-1.3-1.6-2.5-3-2.9c-0.6-0.2-1.3-0.4-2-0.4c0.3,0,1.2-0.9,1.5-1.1c1.3-1.1,2.6-1.8,3.5-3.3
			c0.8-1.3,1.5-2.8,1.7-4.3c0-0.1-0.1-0.1-0.2-0.1c-1.2,0.5-2.3,1.2-3.1,2.2c-0.7,0.7-1.2,1.6-1.7,2.4c-0.4,0.7-0.7,1.9-1.4,2.5
			c-0.5,0.4-0.9,1.1-0.8,0.1c0-0.4,0.1-0.8,0.1-1.2c0-0.9-0.2-2-0.7-2.8c-0.7-1.1-1.5-1.9-2.7-2.2c-0.1,0-0.5,0.2-0.4,0.3
			c0.6,1.8,0.8,3.8,0.8,5.6c0,0.9-0.2,1.8-0.3,2.8c-0.1,1-2,0.8-2.3,1.4c1.3-2.6,0.3-7-2.7-8c-0.1,0-0.5,0.1-0.5,0.3
			c0.4,1.6,0.3,3.2,0.5,4.7c0.1,0.9,0.2,1.8,0.1,2.7c0,0.5,0,0.9,0,1.4c0,0,0,0,0,0c-0.3-0.2-0.7-0.2-1.1-0.1c0.8-2,0.4-5.2-2.1-5.8
			c-0.1,0-0.5,0.2-0.4,0.3c0.6,1.9,0.3,4,0.3,6c-6,0.5-12.3-0.5-18,2c-1.4,0.6-2.7,1.8-4.2,1.6c-1.8-0.3-3.6-0.4-5.4-0.5
			c-0.4,0-0.8,0-1.2,0c0.2,0.6,0.3,1.3,0.4,2c2.6,0,5.3,0.3,7.9,0.9c1.1,0.3,2.3,0.6,3.4,0.9c0.5,0.2,2.1,0.4,2.3,1
			c0.6,1.2,1.6,2.3,2.5,3.2c1.8,1.7,4,3,6.5,3.3c0.2,0,0.5-0.2,0.4-0.4c-0.8-1.8-2-3.4-3.5-4.7c2,0.4,3.9,0.8,5.9,1.1
			c0.8,0.1,1.2,1.4,1.6,1.9c0.6,0.8,1.3,1.6,2,2.3c2.6,2.7,5.7,4.9,9.5,5.3c0.2,0,0.5-0.2,0.4-0.4c-1.7-3.5-4.1-6.5-7.3-8.7
			c1.4-0.1,3.7-0.1,3.8,0.5c0.3,1.2,1.3,2.3,2.2,3c1.9,1.5,4.2,2.3,6.7,2.2c0.1,0,0.5-0.2,0.3-0.4c-1.6-2.3-4-3.8-6.2-5.4
			c1.7-0.1,3.4-0.2,5.1-0.5c0.9-0.1,1.8-0.2,2.8-0.4c0.6-0.1,1.4,0.6,1.9,0.8c2.7,1.5,5.6,2.8,8.4,4.1c0.2,0.1,0.5-0.1,0.5-0.3
			c-0.3-2.9-2.5-4.9-5-6.1c2.4-0.8,4.7-1.3,6.5-3.3C294,213.8,294.9,211.1,293.6,208.7z"/>
		<path class="st14" d="M202.4,240.6c-1.3,2.3-2.9,4.4-4.7,6.3c-0.8,0.9-1.7,1.7-2.5,2.5c-0.4,0.4-1.4,1.6-2,1.6
			c-1.4-0.1-2.8,0.2-4,0.6c-2.4,0.7-4.6,2-6.2,4c-0.1,0.1-0.1,0.5,0.1,0.5c2,0.2,3.9-0.1,5.8-0.7c-1.4,1.5-2.7,3-3.9,4.6
			c-0.5,0.6-1.8,0.4-2.4,0.5c-1,0.2-2,0.3-3,0.6c-3.6,0.9-7.1,2.4-9.4,5.6c-0.1,0.1-0.1,0.5,0.1,0.5c3.8,0.3,7.7-0.4,11.2-2
			c-0.6,1.2-1.7,3.2-2.4,3c-1.2-0.3-2.6,0-3.7,0.4c-2.3,0.9-4.1,2.5-5.2,4.7c-0.1,0.1,0,0.5,0.1,0.5c2.8-0.2,5.3-1.5,7.8-2.7
			c-0.8,1.5-1.5,3.1-2.2,4.7c-0.4,0.9-0.7,1.7-1,2.6c-0.2,0.6-1.2,0.9-1.7,1.2c-2.7,1.6-5.2,3.4-7.7,5.2c-0.1,0.1-0.1,0.5,0,0.5
			c2.6,1.1,5.6,0.3,7.8-1.3c-0.5,2.4-1.2,4.7-0.4,7.3c0.8,2.5,2.7,4.6,5.5,4.7c0.2,0,0.1-0.4,0.1-0.5c-1-1.7-1.5-3.5-2-5.4
			c-0.5-2-1.5-4.5-1-6.6c0.1-0.4,0.7-2.3,0.7-2.4c0.4,0.8,1.1,1.5,1.8,2c1,0.8,2.5,1,3.7,1c0.2,0,0.1-0.4,0.1-0.5
			c-0.9-1.4-2.3-2.4-3.5-3.6c-0.4-0.4-1.5-1.2-1.2-1.9c0.5-1.2,1-2.4,1.5-3.5c0.3-0.6,0.5-1.1,0.8-1.7c0.3-0.6,0.6,0.5,0.6,0.7
			c0.4,0.8,0.8,1.7,1.3,2.5c0.7,1.2,1.5,2.4,2.5,3.4c0.1,0.1,0.2,0,0.2-0.1c0.8-3-0.1-6.4-2.3-8.6c-0.6-0.6-0.8-0.7-0.4-1.5
			c0.4-0.7,0.8-1.4,1.2-2.1c0.2-0.3,0.8-1,0.8-1.4c0,0.5,0.1,1,0.1,1.5c0.1,2.1,0.8,4.2,0.7,6.3c0,0.1,0,0.4,0.2,0.3
			c2.6-1.5,3.2-5.5,2.7-8.2c-0.2-1-0.4-2-0.9-2.8c-0.6-1,0.6-1.9,1.2-2.7c1.4-1.8,2.9-3.5,4.5-5.1c-0.5,1.8-1,3.6-1.2,5.4
			c0,0.1,0,0.4,0.2,0.3c2.7-1.3,4-4.4,3.6-7.3c-0.1-1,0.2-1.1,1-1.8c0.8-0.7,1.6-1.4,2.3-2.1c0.1-0.1,1.1-0.9,1.1-1.1
			c0,0.6,0,1.3-0.1,1.9c-0.2,1.3-0.5,2.5-0.9,3.7c-0.8,2.1-1.9,4-3,5.9c-0.4,0.8-0.9,1.5-1.3,2.3c-0.5,0.9-1,0.9-1.9,1.4
			c-2.4,1.3-4.1,3.3-3.5,6.1c0,0.1,0.1,0.3,0.2,0.2c0.9-0.8,1.7-1.7,2.6-2.4c-0.2,0.4-0.3,0.9-0.4,1.4c-0.1,0.6-0.2,1.9-0.9,2.1
			c-1.5,0.5-2.8,1.2-4.2,2c-0.2,0.1-0.1,0.5,0,0.5c1.5,0.7,2.9,0.3,4.3-0.5c-0.1,1.1-0.1,2.1-0.1,3.2c0,0.6-1.3,1.6-1.7,1.9
			c-1.2,1.1-2.4,2.2-3.5,3.4c-0.1,0.1-0.1,0.5,0.1,0.5c1.4,0.3,3-0.2,4-1.1c0.5-0.5,1-0.9,1.3-1.5c-0.1,0.3,0.2,1.5,0.2,1.8
			c0.3,1.7,0.3,3.1,1.1,4.7c0.7,1.4,1.7,2.7,2.9,3.7c0.1,0.1,0.2,0,0.2-0.1c0.2-1.2,0.1-2.6-0.3-3.8c-0.3-0.9-0.7-1.8-1.2-2.7
			c-0.4-0.7-1.3-1.6-1.5-2.5c-0.1-0.6-0.5-1.3,0.3-0.7c0.3,0.2,0.6,0.5,1,0.7c0.8,0.4,1.8,0.8,2.8,0.8c1.3-0.1,2.4-0.4,3.3-1.3
			c0.1-0.1,0.1-0.5-0.1-0.5c-1.8-0.4-3.7-1.2-5.3-2.2c-0.8-0.5-1.5-1-2.3-1.6c-0.8-0.6,0.3-2.2-0.1-2.7c1.6,2.4,5.9,3.8,8.3,1.7
			c0.1-0.1,0.1-0.5,0-0.5c-1.5-0.5-2.9-1.3-4.3-2c-0.8-0.4-1.6-0.8-2.4-1.2c-0.4-0.2-0.8-0.5-1.2-0.7c0,0,0,0,0,0
			c0.3-0.2,0.5-0.5,0.6-0.8c1.4,1.7,4.3,2.9,6.1,1.1c0.1-0.1,0.1-0.5-0.1-0.5c-2-0.4-3.6-1.8-5.3-2.8c2.6-5.5,6.6-10.4,7.3-16.6
			c0.2-1.5-0.2-3.2,0.7-4.4c1.1-1.4,2.2-2.9,3.1-4.4c0.2-0.4,0.4-0.7,0.6-1.1C203.7,241.1,203,240.9,202.4,240.6z"/>
		<path class="st14" d="M169.8,256.7c0.1,0,0.5-0.2,0.4-0.4c-1-1.9-2.5-3.7-3.2-5.7c-0.4-1.1,0.8-1.8,1.6-2.4
			c0.8-0.8,1.6-1.5,2.4-2.3c-0.1,2.3,1,4.7,3.3,5.5c0.1,0,0.5-0.1,0.5-0.3c-0.4-1.7-0.9-3.4-1.2-5c-0.1-0.6-0.5-2,0-2.5
			c0.6-0.5,1.1-1,1.7-1.5c-0.3,2.3,0.5,4.4,2.2,6c0.1,0.1,0.5-0.1,0.5-0.2c0.3-1.9,0.3-3.7,0.4-5.6c0.1-1,0.2-1.9,0.5-2.8
			c0.2-1,2.1-1.9,2.8-2.4c0.5-0.3,1-0.7,1.5-1c0.3-0.2,0.7-0.4,1-0.7c-0.1,0.1-0.2,0.2-0.3,0.3c-0.4,0.9-0.7,1.8-0.8,2.8
			c-0.2,1.5-0.2,3,0.2,4.5c0,0.2,0.3,0,0.4,0c1.1-1.2,2.1-2.7,2.6-4.3c0.4-1.2,0.7-2.5,0.8-3.8c0-0.3,0.1-0.7,0.1-1
			c0-0.7,1.5-1.2,2-1.4c0.6-0.4,1.3-0.7,1.9-1.1c-0.3-0.5-0.6-1-0.9-1.6c-1.1,0.6-1.9,1.1-3.2,1c-1.6-0.1-3.1-0.2-4.7-0.2
			c-2.2,0-4.5,0.3-6.6,1.1c-0.1,0-0.3,0.2-0.2,0.3c1.3,1,3,1.8,4.6,2.1c0.9,0.2,1.8,0.3,2.8,0.2c-0.7,0-2.1,1.5-2.7,1.9
			c-0.7,0.5-1.2,1.1-2.1,0.8c-0.3-0.1-0.7-0.2-1-0.2c-1.1-0.2-2.2-0.4-3.3-0.5c-1.5-0.2-3-0.3-4.3-1.1c-0.2-0.1-0.5,0.1-0.5,0.3
			c0.1,1.6,1.2,2.9,2.6,3.6c1,0.4,1.9,0.7,3,0.7c0.3,0,0.7,0,1,0c0,0-0.9,0.9-1,1c-0.8,0.7-2.1,2.4-3.3,2.4c-1,0-2.1,0-3.1,0
			c-1.9-0.1-3.7,0-5.6-0.2c-0.1,0-0.5,0.2-0.4,0.4c0.6,1.2,1.9,2.1,3.2,2.5c0.9,0.3,1.8,0.4,2.7,0.3c1.1-0.1-0.6,1-0.9,1.3
			c-0.1,0-1.2,1.1-1,1.1c-0.4-0.2-0.8-0.3-1.3-0.5c-0.8-0.3-1.6-0.7-2.5-1c-1.5-0.6-3-1-4.6-1.4c-0.1,0-0.5,0.2-0.4,0.3
			c0.5,1.7,2,3.2,3.6,3.8c0.5,0.2,1.1,0.4,1.7,0.5c0,0,1.3,0.1,1.1,0.3c-0.9,0.9-1.9,2-3.1,2.6c-3,1.5-5.6,4.8-5.4,8.3
			c0,0.2,0.3,0,0.3,0c1.6-1.1,3.1-2.5,4.3-4c0.7-0.9,1.4-1.8,1.9-2.9c0.5-1,1.8-1.9,2.7-2.6C165,254.5,167.2,256.5,169.8,256.7z"/>
	</g>
	<g>
		<g>
			<path d="M223.3,230.2v-5V213v-5c1.3,1.5,2.4,3.2,3.2,5h3.9c-1.3-4-3.8-7.5-7.1-10c-1.2-0.9-2.5-1.6-3.8-2.2v4.1v8.1v12.2v8.1v4.1
				c1.4-0.6,2.6-1.4,3.8-2.2c3.3-2.5,5.8-5.9,7.1-10h-3.9C225.7,227.1,224.6,228.8,223.3,230.2z"/>
		</g>
		<g>
			<path d="M191.2,217.3c-0.1,0.6-0.1,1.3-0.1,1.9c0,0.6,0,1.3,0.1,1.9c0.5,4.8,2.6,9.1,5.8,12.3v-6c-1.1-1.9-1.9-4.1-2.1-6.4h4.3
				v4.7v4.5v4.9c1.2,0.9,2.5,1.6,3.8,2.2v-4.1v-12.3v-3.8V205v-4.1c-1.4,0.6-2.6,1.4-3.8,2.2C194.8,206.4,191.7,211.5,191.2,217.3z
				 M194.9,217.3c0.4-3.5,2-6.7,4.3-9.2v9.2H194.9z"/>
		</g>
		<g>
			<path d="M211.2,199c-0.8,0-1.5,0-2.3,0.1c-1.3,0.1-2.6,0.4-3.8,0.8v3.9v13.3v3.8v13.3v3.9c1.2,0.4,2.5,0.7,3.8,0.8
				c0.7,0.1,1.5,0.1,2.3,0.1c0.8,0,1.5,0,2.3-0.1c1.3-0.1,2.6-0.4,3.8-0.8v-3.9V221l-2.7-1.9l2.7-1.9v-13.3V200
				c-1.2-0.4-2.5-0.7-3.8-0.8C212.7,199.1,212,199,211.2,199z M213.5,235.3c-0.7,0.1-1.5,0.2-2.3,0.2c-0.8,0-1.5-0.1-2.3-0.2V221
				h4.5V235.3z M213.5,217.2H209v-14.3c0.7-0.1,1.5-0.2,2.3-0.2c0.8,0,1.5,0.1,2.3,0.2V217.2z"/>
		</g>
	</g>
</g>
</svg>
