  0
SECTION
  2
HEADER
  9
$ACADVER
  1
AC1024
  9
$ACADMAINTVER
 70
     6
  9
$DWGCODEPAGE
  3
UNDEFINED
  9
$INSBASE
 10
0.0
 20
0.0
 30
0.0
  9
$EXTMIN
 10
1.000000000000000E+20
 20
1.000000000000000E+20
 30
1.000000000000000E+20
  9
$EXTMAX
 10
-1.000000000000000E+20
 20
-1.000000000000000E+20
 30
-1.000000000000000E+20
  9
$LIMMIN
 10
0.0
 20
0.0
  9
$LIMMAX
 10
12.0
 20
9.0
  9
$ORTHOMODE
 70
     0
  9
$REGENMODE
 70
     1
  9
$FILLMODE
 70
     1
  9
$QTEXTMODE
 70
     0
  9
$MIRRTEXT
 70
     1
  9
$LTSCALE
 40
1.0
  9
$ATTMODE
 70
     1
  9
$TEXTSIZE
 40
0.2
  9
$TRACEWID
 40
0.05
  9
$TEXTSTYLE
  7
Standard
  9
$CLAYER
  8
0
  9
$CELTYPE
  6
ByLayer
  9
$CECOLOR
 62
   256
  9
$CELTSCALE
 40
1.0
  9
$DISPSILH
 70
     0
  9
$DIMSCALE
 40
1.0
  9
$DIMASZ
 40
0.18
  9
$DIMEXO
 40
0.0625
  9
$DIMDLI
 40
0.38
  9
$DIMRND
 40
0.0
  9
$DIMDLE
 40
0.0
  9
$DIMEXE
 40
0.18
  9
$DIMTP
 40
0.0
  9
$DIMTM
 40
0.0
  9
$DIMTXT
 40
0.18
  9
$DIMCEN
 40
0.09
  9
$DIMTSZ
 40
0.0
  9
$DIMTOL
 70
     0
  9
$DIMLIM
 70
     0
  9
$DIMTIH
 70
     1
  9
$DIMTOH
 70
     1
  9
$DIMSE1
 70
     0
  9
$DIMSE2
 70
     0
  9
$DIMTAD
 70
     0
  9
$DIMZIN
 70
     0
  9
$DIMBLK
  1

  9
$DIMASO
 70
     1
  9
$DIMSHO
 70
     1
  9
$DIMPOST
  1

  9
$DIMAPOST
  1

  9
$DIMALT
 70
     0
  9
$DIMALTD
 70
     2
  9
$DIMALTF
 40
25.4
  9
$DIMLFAC
 40
1.0
  9
$DIMTOFL
 70
     0
  9
$DIMTVP
 40
0.0
  9
$DIMTIX
 70
     0
  9
$DIMSOXD
 70
     0
  9
$DIMSAH
 70
     0
  9
$DIMBLK1
  1

  9
$DIMBLK2
  1

  9
$DIMSTYLE
  2
Standard
  9
$DIMCLRD
 70
     0
  9
$DIMCLRE
 70
     0
  9
$DIMCLRT
 70
     0
  9
$DIMTFAC
 40
1.0
  9
$DIMGAP
 40
0.09
  9
$DIMJUST
 70
     0
  9
$DIMSD1
 70
     0
  9
$DIMSD2
 70
     0
  9
$DIMTOLJ
 70
     1
  9
$DIMTZIN
 70
     0
  9
$DIMALTZ
 70
     0
  9
$DIMALTTZ
 70
     0
  9
$DIMUPT
 70
     0
  9
$DIMDEC
 70
     4
  9
$DIMTDEC
 70
     4
  9
$DIMALTU
 70
     2
  9
$DIMALTTD
 70
     2
  9
$DIMTXSTY
  7
Standard
  9
$DIMAUNIT
 70
     0
  9
$DIMADEC
 70
     0
  9
$DIMALTRND
 40
0.0
  9
$DIMAZIN
 70
     0
  9
$DIMDSEP
 70
    46
  9
$DIMATFIT
 70
     3
  9
$DIMFRAC
 70
     0
  9
$DIMLDRBLK
  1

  9
$DIMLUNIT
 70
     2
  9
$DIMLWD
 70
    -2
  9
$DIMLWE
 70
    -2
  9
$DIMTMOVE
 70
     0
  9
$DIMFXL
 40
1.0
  9
$DIMFXLON
 70
     0
  9
$DIMJOGANG
 40
0.7853981633974483
  9
$DIMTFILL
 70
     0
  9
$DIMTFILLCLR
 70
     0
  9
$DIMARCSYM
 70
     0
  9
$DIMLTYPE
  6

  9
$DIMLTEX1
  6

  9
$DIMLTEX2
  6

  9
$DIMTXTDIRECTION
 70
     0
  9
$LUNITS
 70
     2
  9
$LUPREC
 70
     4
  9
$SKETCHINC
 40
0.1
  9
$FILLETRAD
 40
0.5
  9
$AUNITS
 70
     0
  9
$AUPREC
 70
     0
  9
$MENU
  1
.
  9
$ELEVATION
 40
0.0
  9
$PELEVATION
 40
0.0
  9
$THICKNESS
 40
0.0
  9
$LIMCHECK
 70
     0
  9
$CHAMFERA
 40
0.5
  9
$CHAMFERB
 40
0.5
  9
$CHAMFERC
 40
1.0
  9
$CHAMFERD
 40
0.0
  9
$SKPOLY
 70
     0
  9
$TDCREATE
 40
2458065.47337963
  9
$TDUCREATE
 40
2458065.681712963
  9
$TDUPDATE
 40
2458065.47337963
  9
$TDUUPDATE
 40
2458065.681712963
  9
$TDINDWG
 40
0.0000000116
  9
$TDUSRTIMER
 40
0.0000000116
  9
$USRTIMER
 70
     1
  9
$ANGBASE
 50
0.0
  9
$ANGDIR
 70
     0
  9
$PDMODE
 70
     0
  9
$PDSIZE
 40
0.0
  9
$PLINEWID
 40
0.0
  9
$SPLFRAME
 70
     0
  9
$SPLINETYPE
 70
     6
  9
$SPLINESEGS
 70
     8
  9
$HANDSEED
  5
6D
  9
$SURFTAB1
 70
     6
  9
$SURFTAB2
 70
     6
  9
$SURFTYPE
 70
     6
  9
$SURFU
 70
     6
  9
$SURFV
 70
     6
  9
$UCSBASE
  2

  9
$UCSNAME
  2

  9
$UCSORG
 10
0.0
 20
0.0
 30
0.0
  9
$UCSXDIR
 10
1.0
 20
0.0
 30
0.0
  9
$UCSYDIR
 10
0.0
 20
1.0
 30
0.0
  9
$UCSORTHOREF
  2

  9
$UCSORTHOVIEW
 70
     0
  9
$UCSORGTOP
 10
0.0
 20
0.0
 30
0.0
  9
$UCSORGBOTTOM
 10
0.0
 20
0.0
 30
0.0
  9
$UCSORGLEFT
 10
0.0
 20
0.0
 30
0.0
  9
$UCSORGRIGHT
 10
0.0
 20
0.0
 30
0.0
  9
$UCSORGFRONT
 10
0.0
 20
0.0
 30
0.0
  9
$UCSORGBACK
 10
0.0
 20
0.0
 30
0.0
  9
$PUCSBASE
  2

  9
$PUCSNAME
  2

  9
$PUCSORG
 10
0.0
 20
0.0
 30
0.0
  9
$PUCSXDIR
 10
1.0
 20
0.0
 30
0.0
  9
$PUCSYDIR
 10
0.0
 20
1.0
 30
0.0
  9
$PUCSORTHOREF
  2

  9
$PUCSORTHOVIEW
 70
     0
  9
$PUCSORGTOP
 10
0.0
 20
0.0
 30
0.0
  9
$PUCSORGBOTTOM
 10
0.0
 20
0.0
 30
0.0
  9
$PUCSORGLEFT
 10
0.0
 20
0.0
 30
0.0
  9
$PUCSORGRIGHT
 10
0.0
 20
0.0
 30
0.0
  9
$PUCSORGFRONT
 10
0.0
 20
0.0
 30
0.0
  9
$PUCSORGBACK
 10
0.0
 20
0.0
 30
0.0
  9
$USERI1
 70
     0
  9
$USERI2
 70
     0
  9
$USERI3
 70
     0
  9
$USERI4
 70
     0
  9
$USERI5
 70
     0
  9
$USERR1
 40
0.0
  9
$USERR2
 40
0.0
  9
$USERR3
 40
0.0
  9
$USERR4
 40
0.0
  9
$USERR5
 40
0.0
  9
$WORLDVIEW
 70
     1
  9
$SHADEDGE
 70
     3
  9
$SHADEDIF
 70
    70
  9
$TILEMODE
 70
     1
  9
$MAXACTVP
 70
    64
  9
$PINSBASE
 10
0.0
 20
0.0
 30
0.0
  9
$PLIMCHECK
 70
     0
  9
$PEXTMIN
 10
1.000000000000000E+20
 20
1.000000000000000E+20
 30
1.000000000000000E+20
  9
$PEXTMAX
 10
-1.000000000000000E+20
 20
-1.000000000000000E+20
 30
-1.000000000000000E+20
  9
$PLIMMIN
 10
0.0
 20
0.0
  9
$PLIMMAX
 10
12.0
 20
9.0
  9
$UNITMODE
 70
     0
  9
$VISRETAIN
 70
     1
  9
$PLINEGEN
 70
     0
  9
$PSLTSCALE
 70
     1
  9
$TREEDEPTH
 70
  3020
  9
$CMLSTYLE
  2
Standard
  9
$CMLJUST
 70
     0
  9
$CMLSCALE
 40
1.0
  9
$PROXYGRAPHICS
 70
     1
  9
$MEASUREMENT
 70
     0
  9
$CELWEIGHT
370
    -1
  9
$ENDCAPS
280
     0
  9
$JOINSTYLE
280
     0
  9
$LWDISPLAY
290
     1
  9
$INSUNITS
 70
     1
  9
$HYPERLINKBASE
  1

  9
$STYLESHEET
  1

  9
$XEDIT
290
     1
  9
$CEPSNTYPE
380
     0
  9
$PSTYLEMODE
290
     1
  9
$FINGERPRINTGUID
  2
{D88D5727-9D02-7518-7217-B32804799CE6}
  9
$VERSIONGUID
  2
{FAEB1C32-E019-11D5-929B-00C0DF256EC4}
  9
$EXTNAMES
290
     1
  9
$PSVPSCALE
 40
0.0
  9
$OLESTARTUP
290
     0
  9
$SORTENTS
280
   127
  9
$INDEXCTL
280
     0
  9
$HIDETEXT
280
     1
  9
$XCLIPFRAME
280
     2
  9
$HALOGAP
280
     0
  9
$OBSCOLOR
 70
   257
  9
$OBSLTYPE
280
     0
  9
$INTERSECTIONDISPLAY
280
     0
  9
$INTERSECTIONCOLOR
 70
   257
  9
$DIMASSOC
280
     2
  9
$PROJECTNAME
  1

  9
$CAMERADISPLAY
290
     0
  9
$LENSLENGTH
 40
50.0
  9
$CAMERAHEIGHT
 40
0.0
  9
$STEPSPERSEC
 40
2.0
  9
$STEPSIZE
 40
6.0
  9
$3DDWFPREC
 40
2.0
  9
$PSOLWIDTH
 40
0.25
  9
$PSOLHEIGHT
 40
4.0
  9
$LOFTANG1
 40
1.570796326794897
  9
$LOFTANG2
 40
1.570796326794897
  9
$LOFTMAG1
 40
0.0
  9
$LOFTMAG2
 40
0.0
  9
$LOFTPARAM
 70
     7
  9
$LOFTNORMALS
280
     1
  9
$LATITUDE
 40
37.795
  9
$LONGITUDE
 40
-122.394
  9
$NORTHDIRECTION
 40
0.0
  9
$TIMEZONE
 70
 -8000
  9
$LIGHTGLYPHDISPLAY
280
     1
  9
$TILEMODELIGHTSYNCH
280
     1
  9
$CMATERIAL
347
3C
  9
$SOLIDHIST
280
     1
  9
$SHOWHIST
280
     1
  9
$DWFFRAME
280
     2
  9
$DGNFRAME
280
     2
  9
$REALWORLDSCALE
290
     1
  9
$INTERFERECOLOR
 62
   256
  9
$CSHADOW
280
     0
  9
$SHADOWPLANELOCATION
 40
0.0
  0
ENDSEC
  0
SECTION
  2
CLASSES
  0
CLASS
  1
ACDBDICTIONARYWDFLT
  2
AcDbDictionaryWithDefault
  3
ObjectDBX Classes
 90
        0
 91
        4
280
     0
281
     0
  0
CLASS
  1
VISUALSTYLE
  2
AcDbVisualStyle
  3
ObjectDBX Classes
 90
     4095
 91
        4
280
     0
281
     0
  0
CLASS
  1
MATERIAL
  2
AcDbMaterial
  3
ObjectDBX Classes
 90
     1153
 91
        4
280
     0
281
     0
  0
CLASS
  1
SUN
  2
AcDbSun
  3
SCENEOE
 90
     1024
 91
        4
280
     0
281
     0
  0
ENDSEC
  0
SECTION
  2
TABLES
  0
TABLE
  2
VPORT
  5
8
330
0
100
AcDbSymbolTable
 70
     1
  0
VPORT
  5
29
330
8
100
AcDbSymbolTableRecord
100
AcDbViewportTableRecord
  2
*Active
 70
     0
 10
0.0
 20
0.0
 11
1.0
 21
1.0
 12
0.0
 22
0.0
 13
0.0
 23
0.0
 14
0.5
 24
0.5
 15
0.5
 25
0.5
 16
0.0
 26
0.0
 36
1.0
 17
3.0
 27
3.0
 37
0.0
 40
6.0
 41
1.0
 42
50.0
 43
0.0
 44
0.0
 50
0.0
 51
0.0
 71
     0
 72
   100
 73
     1
 74
     3
 75
     0
 76
     0
 77
     0
 78
     0
281
     0
 65
     1
110
0.0
120
0.0
130
0.0
111
1.0
121
0.0
131
0.0
112
0.0
122
1.0
132
0.0
 79
     0
146
0.0
 60
     3
 61
     5
292
     1
282
     1
141
0.0
142
0.0
 63
   250
361
3F
  0
ENDTAB
  0
TABLE
  2
LTYPE
  5
5
330
0
100
AcDbSymbolTable
 70
     1
  0
LTYPE
  5
14
330
5
100
AcDbSymbolTableRecord
100
AcDbLinetypeTableRecord
  2
ByBlock
 70
     0
  3

 72
    65
 73
     0
 40
0.0
  0
LTYPE
  5
15
330
5
100
AcDbSymbolTableRecord
100
AcDbLinetypeTableRecord
  2
ByLayer
 70
     0
  3

 72
    65
 73
     0
 40
0.0
  0
LTYPE
  5
16
330
5
100
AcDbSymbolTableRecord
100
AcDbLinetypeTableRecord
  2
Continuous
 70
     0
  3
Solid line
 72
    65
 73
     0
 40
0.0
  0
ENDTAB
  0
TABLE
  2
LAYER
  5
2
330
0
100
AcDbSymbolTable
 70
     2
  0
LAYER
  5
10
330
2
100
AcDbSymbolTableRecord
100
AcDbLayerTableRecord
  2
0
 70
     0
 62
     7
  6
Continuous
370
    -3
390
F
347
3E
  0
LAYER
  5
40
330
2
100
AcDbSymbolTableRecord
100
AcDbLayerTableRecord
  2
Calque 1
 70
     0
 62
     7
  6
Continuous
370
    -3
390
F
347
3E
  0
ENDTAB
  0
TABLE
  2
STYLE
  5
3
330
0
100
AcDbSymbolTable
 70
     1
  0
STYLE
  5
11
330
3
100
AcDbSymbolTableRecord
100
AcDbTextStyleTableRecord
  2
Standard
 70
     0
 40
0.0
 41
1.0
 50
0.0
 71
     0
 42
0.2
  3
txt
  4

  0
ENDTAB
  0
TABLE
  2
VIEW
  5
6
330
0
100
AcDbSymbolTable
 70
     0
  0
ENDTAB
  0
TABLE
  2
UCS
  5
7
330
0
100
AcDbSymbolTable
 70
     0
  0
ENDTAB
  0
TABLE
  2
APPID
  5
9
330
0
100
AcDbSymbolTable
 70
     1
  0
APPID
  5
12
330
9
100
AcDbSymbolTableRecord
100
AcDbRegAppTableRecord
  2
ACAD
 70
     0
  0
ENDTAB
  0
TABLE
  2
DIMSTYLE
  5
A
330
0
100
AcDbSymbolTable
 70
     1
100
AcDbDimStyleTable
  0
DIMSTYLE
105
27
330
A
100
AcDbSymbolTableRecord
100
AcDbDimStyleTableRecord
  2
Standard
 70
     0
178
     0
340
11
  0
ENDTAB
  0
TABLE
  2
BLOCK_RECORD
  5
1
330
0
100
AcDbSymbolTable
 70
     5
  0
BLOCK_RECORD
  5
1F
330
1
100
AcDbSymbolTableRecord
100
AcDbBlockTableRecord
  2
*Model_Space
340
22
 70
     0
280
     1
281
     0
  0
BLOCK_RECORD
  5
1B
330
1
100
AcDbSymbolTableRecord
100
AcDbBlockTableRecord
  2
*Paper_Space
340
1E
 70
     0
280
     1
281
     0
  0
BLOCK_RECORD
  5
23
330
1
100
AcDbSymbolTableRecord
100
AcDbBlockTableRecord
  2
*Paper_Space0
340
26
 70
     0
280
     1
281
     0
  0
BLOCK_RECORD
  5
41
330
1
100
AcDbSymbolTableRecord
100
AcDbBlockTableRecord
  2
block 2
340
0
102
{BLKREFS
331
42
102
}
 70
     0
280
     1
281
     0
  0
BLOCK_RECORD
  5
4D
330
1
100
AcDbSymbolTableRecord
100
AcDbBlockTableRecord
  2
block 3
340
0
102
{BLKREFS
331
4E
102
}
 70
     0
280
     1
281
     0
  0
BLOCK_RECORD
  5
55
330
1
100
AcDbSymbolTableRecord
100
AcDbBlockTableRecord
  2
block 4
340
0
102
{BLKREFS
331
56
102
}
 70
     0
280
     1
281
     0
  0
BLOCK_RECORD
  5
63
330
1
100
AcDbSymbolTableRecord
100
AcDbBlockTableRecord
  2
block 5
340
0
102
{BLKREFS
331
64
102
}
 70
     0
280
     1
281
     0
  0
ENDTAB
  0
ENDSEC
  0
SECTION
  2
BLOCKS
  0
BLOCK
  5
20
330
1F
100
AcDbEntity
  8
0
100
AcDbBlockBegin
  2
*Model_Space
 70
     0
 10
0.0
 20
0.0
 30
0.0
  3
*Model_Space
  1

  0
ENDBLK
  5
21
330
1F
100
AcDbEntity
  8
0
100
AcDbBlockEnd
  0
BLOCK
  5
1C
330
1B
100
AcDbEntity
 67
     1
  8
0
100
AcDbBlockBegin
  2
*Paper_Space
 70
     0
 10
0.0
 20
0.0
 30
0.0
  3
*Paper_Space
  1

  0
ENDBLK
  5
1D
330
1B
100
AcDbEntity
 67
     1
  8
0
100
AcDbBlockEnd
  0
BLOCK
  5
24
330
23
100
AcDbEntity
  8
0
100
AcDbBlockBegin
  2
*Paper_Space0
 70
     0
 10
0.0
 20
0.0
 30
0.0
  3
*Paper_Space0
  1

  0
ENDBLK
  5
25
330
23
100
AcDbEntity
  8
0
100
AcDbBlockEnd
  0
BLOCK
  5
43
330
41
100
AcDbEntity
  8
0
100
AcDbBlockBegin
  2
block 2
 70
     0
 10
0.0
 20
0.0
 30
0.0
  3
block 2
  1

  0
SPLINE
  5
45
330
41
100
AcDbEntity
  8
Calque 1
370
     0
100
AcDbSpline
210
0.0
220
0.0
230
1.0
 70
    11
 71
     3
 72
    17
 73
    13
 74
     0
 42
0.0000000001
 43
0.0000000001
 12
1.0
 22
0.0
 32
0.0
 13
1.0
 23
0.0
 33
0.0
 40
0.0
 40
0.0
 40
0.0
 40
0.0
 40
1.0
 40
1.0
 40
1.0
 40
2.0
 40
2.0
 40
2.0
 40
3.0
 40
3.0
 40
3.0
 40
4.0
 40
4.0
 40
4.0
 40
4.0
 10
2.329166624281141
 20
1.563888973659939
 30
0.0
 10
2.619116041395399
 20
1.563888973659939
 30
0.0
 10
2.854166666666667
 20
1.415272606743706
 30
0.0
 10
2.854166666666667
 20
1.231944613986545
 30
0.0
 10
2.854166666666667
 20
1.048616621229384
 30
0.0
 10
2.619116041395399
 20
0.900000254313151
 30
0.0
 10
2.329166624281141
 20
0.900000254313151
 30
0.0
 10
2.039217207166883
 20
0.900000254313151
 30
0.0
 10
1.804166581895616
 20
1.048616621229384
 30
0.0
 10
1.804166581895616
 20
1.231944613986545
 30
0.0
 10
1.804166581895616
 20
1.415272606743706
 30
0.0
 10
2.039217207166883
 20
1.563888973659939
 30
0.0
 10
2.329166624281141
 20
1.563888973659939
 30
0.0
  0
HATCH
  5
46
330
41
100
AcDbEntity
  8
Calque 1
 62
    27
420
  7687460
100
AcDbHatch
 10
0.0
 20
0.0
 30
0.0
210
0.0
220
0.0
230
1.0
  2
SOLID
 70
     1
 71
     0
 91
        1
 92
        1
 93
        1
 72
     4
 94
        3
 73
     0
 74
     1
 95
       17
 96
       13
 40
0.0
 40
0.0
 40
0.0
 40
0.0
 40
1.0
 40
1.0
 40
1.0
 40
2.0
 40
2.0
 40
2.0
 40
3.0
 40
3.0
 40
3.0
 40
4.0
 40
4.0
 40
4.0
 40
4.0
 10
2.329166624281141
 20
1.563888973659939
 10
2.619116041395399
 20
1.563888973659939
 10
2.854166666666667
 20
1.415272606743706
 10
2.854166666666667
 20
1.231944613986545
 10
2.854166666666667
 20
1.048616621229384
 10
2.619116041395399
 20
0.900000254313151
 10
2.329166624281141
 20
0.900000254313151
 10
2.039217207166883
 20
0.900000254313151
 10
1.804166581895616
 20
1.048616621229384
 10
1.804166581895616
 20
1.231944613986545
 10
1.804166581895616
 20
1.415272606743706
 10
2.039217207166883
 20
1.563888973659939
 10
2.329166624281141
 20
1.563888973659939
 97
        0
 97
        0
 75
     2
 76
     1
 98
        0
  0
SPLINE
  5
47
330
41
100
AcDbEntity
  8
Calque 1
370
     0
100
AcDbSpline
210
0.0
220
0.0
230
1.0
 70
    11
 71
     3
 72
    17
 73
    13
 74
     0
 42
0.0000000001
 43
0.0000000001
 12
1.0
 22
0.0
 32
0.0
 13
1.0
 23
0.0
 33
0.0
 40
0.0
 40
0.0
 40
0.0
 40
0.0
 40
1.0
 40
1.0
 40
1.0
 40
2.0
 40
2.0
 40
2.0
 40
3.0
 40
3.0
 40
3.0
 40
4.0
 40
4.0
 40
4.0
 40
4.0
 10
3.422222137451172
 20
1.563888973659939
 30
0.0
 10
3.712171766493055
 20
1.563888973659939
 30
0.0
 10
3.947221967909071
 20
1.415272606743706
 30
0.0
 10
3.947221967909071
 20
1.231944613986545
 30
0.0
 10
3.947221967909071
 20
1.048616621229384
 30
0.0
 10
3.712171766493055
 20
0.900000254313151
 30
0.0
 10
3.422222137451172
 20
0.900000254313151
 30
0.0
 10
3.132272720336914
 20
0.900000254313151
 30
0.0
 10
2.897222095065647
 20
1.048616621229384
 30
0.0
 10
2.897222095065647
 20
1.231944613986545
 30
0.0
 10
2.897222095065647
 20
1.415272606743706
 30
0.0
 10
3.132272720336914
 20
1.563888973659939
 30
0.0
 10
3.422222137451172
 20
1.563888973659939
 30
0.0
  0
HATCH
  5
48
330
41
100
AcDbEntity
  8
Calque 1
 62
    27
420
  7687460
100
AcDbHatch
 10
0.0
 20
0.0
 30
0.0
210
0.0
220
0.0
230
1.0
  2
SOLID
 70
     1
 71
     0
 91
        1
 92
        1
 93
        1
 72
     4
 94
        3
 73
     0
 74
     1
 95
       17
 96
       13
 40
0.0
 40
0.0
 40
0.0
 40
0.0
 40
1.0
 40
1.0
 40
1.0
 40
2.0
 40
2.0
 40
2.0
 40
3.0
 40
3.0
 40
3.0
 40
4.0
 40
4.0
 40
4.0
 40
4.0
 10
3.422222137451172
 20
1.563888973659939
 10
3.712171766493055
 20
1.563888973659939
 10
3.947221967909071
 20
1.415272606743706
 10
3.947221967909071
 20
1.231944613986545
 10
3.947221967909071
 20
1.048616621229384
 10
3.712171766493055
 20
0.900000254313151
 10
3.422222137451172
 20
0.900000254313151
 10
3.132272720336914
 20
0.900000254313151
 10
2.897222095065647
 20
1.048616621229384
 10
2.897222095065647
 20
1.231944613986545
 10
2.897222095065647
 20
1.415272606743706
 10
3.132272720336914
 20
1.563888973659939
 10
3.422222137451172
 20
1.563888973659939
 97
        0
 97
        0
 75
     2
 76
     1
 98
        0
  0
SPLINE
  5
49
330
41
100
AcDbEntity
  8
Calque 1
370
     0
100
AcDbSpline
210
0.0
220
0.0
230
1.0
 70
    11
 71
     3
 72
    56
 73
    52
 74
     0
 42
0.0000000001
 43
0.0000000001
 12
1.0
 22
0.0
 32
0.0
 13
1.0
 23
0.0
 33
0.0
 40
0.0
 40
0.0
 40
0.0
 40
0.0
 40
1.0
 40
1.0
 40
1.0
 40
2.0
 40
2.0
 40
2.0
 40
3.0
 40
3.0
 40
3.0
 40
4.0
 40
4.0
 40
4.0
 40
5.0
 40
5.0
 40
5.0
 40
6.0
 40
6.0
 40
6.0
 40
7.0
 40
7.0
 40
7.0
 40
8.0
 40
8.0
 40
8.0
 40
9.0
 40
9.0
 40
9.0
 40
10.0
 40
10.0
 40
10.0
 40
11.0
 40
11.0
 40
11.0
 40
12.0
 40
12.0
 40
12.0
 40
13.0
 40
13.0
 40
13.0
 40
14.0
 40
14.0
 40
14.0
 40
15.0
 40
15.0
 40
15.0
 40
16.0
 40
16.0
 40
16.0
 40
17.0
 40
17.0
 40
17.0
 40
17.0
 10
3.686111026340061
 20
3.662499957614475
 30
0.0
 10
3.665277693006727
 20
3.916666666666667
 30
0.0
 10
3.651388804117838
 20
4.345833248562283
 30
0.0
 10
3.444444444444444
 20
4.641666624281141
 30
0.0
 10
3.526388804117838
 20
4.680555555555555
 30
0.0
 10
3.583333333333333
 20
4.76249991522895
 30
0.0
 10
3.583333333333333
 20
4.859722137451172
 30
0.0
 10
3.583333333333333
 20
4.993055449591743
 30
0.0
 10
3.474999957614475
 20
5.101388825310601
 30
0.0
 10
3.341666751437717
 20
5.101388825310601
 30
0.0
 10
3.2250001695421
 20
5.101388825310601
 30
0.0
 10
3.126388973659939
 20
5.018055491977267
 30
0.0
 10
3.105555640326606
 20
4.906944380866157
 30
0.0
 10
3.011111153496636
 20
4.941666603088379
 30
0.0
 10
2.902777777777778
 20
4.961111068725586
 30
0.0
 10
2.773611280653212
 20
4.961111068725586
 30
0.0
 10
2.640277862548828
 20
4.961111068725586
 30
0.0
 10
2.527777989705403
 20
4.940277735392252
 30
0.0
 10
2.433333502875434
 20
4.902777777777778
 30
0.0
 10
2.4125001695421
 20
5.015277756585015
 30
0.0
 10
2.315277947319878
 20
5.101388931274414
 30
0.0
 10
2.195833418104383
 20
5.101388931274414
 30
0.0
 10
2.0625
 20
5.101388931274414
 30
0.0
 10
1.954166836208767
 20
4.993055555555555
 30
0.0
 10
1.954166836208767
 20
4.859722243414985
 30
0.0
 10
1.954166836208767
 20
4.759722285800509
 30
0.0
 10
2.015277862548828
 20
4.672222243414985
 30
0.0
 10
2.104166878594293
 20
4.637500021192762
 30
0.0
 10
1.905555725097656
 20
4.343055513170031
 30
0.0
 10
1.897222518920898
 20
3.916666666666667
 30
0.0
 10
1.876389185587565
 20
3.663888931274414
 30
0.0
 10
1.843055937025282
 20
3.25
 30
0.0
 10
1.490278032090929
 20
1.722222222222222
 30
0.0
 10
2.152777989705403
 20
1.383333418104384
 30
0.0
 10
2.630555894639757
 20
1.138888888888889
 30
0.0
 10
2.761111365424262
 20
1.125
 30
0.0
 10
2.859722561306424
 20
1.141666836208767
 30
0.0
 10
2.897222518920898
 20
1.144444783528646
 30
0.0
 10
2.93194474114312
 20
1.150000254313151
 30
0.0
 10
2.97638914320204
 20
1.165278116861979
 30
0.0
 10
2.97638914320204
 20
1.165278116861979
 30
0.0
 10
2.97638914320204
 20
1.165278116861979
 30
0.0
 10
2.97638914320204
 20
1.165278116861979
 30
0.0
 10
2.97638914320204
 20
1.165278116861979
 30
0.0
 10
2.97638914320204
 20
1.165278116861979
 30
0.0
 10
2.97638914320204
 20
1.165278116861979
 30
0.0
 10
3.059722476535373
 20
1.193055894639757
 30
0.0
 10
3.179167005750868
 20
1.254166920979818
 30
0.0
 10
3.409722434149848
 20
1.383333841959635
 30
0.0
 10
4.056944529215494
 20
1.745833502875434
 30
0.0
 10
3.719444274902344
 20
3.248611026340061
 30
0.0
 10
3.686111026340061
 20
3.662499957614475
 30
0.0
  0
HATCH
  5
4A
330
41
100
AcDbEntity
  8
Calque 1
 62
    37
420
  9200442
100
AcDbHatch
 10
0.0
 20
0.0
 30
0.0
210
0.0
220
0.0
230
1.0
  2
SOLID
 70
     1
 71
     0
 91
        1
 92
        1
 93
        1
 72
     4
 94
        3
 73
     0
 74
     1
 95
       56
 96
       52
 40
0.0
 40
0.0
 40
0.0
 40
0.0
 40
1.0
 40
1.0
 40
1.0
 40
2.0
 40
2.0
 40
2.0
 40
3.0
 40
3.0
 40
3.0
 40
4.0
 40
4.0
 40
4.0
 40
5.0
 40
5.0
 40
5.0
 40
6.0
 40
6.0
 40
6.0
 40
7.0
 40
7.0
 40
7.0
 40
8.0
 40
8.0
 40
8.0
 40
9.0
 40
9.0
 40
9.0
 40
10.0
 40
10.0
 40
10.0
 40
11.0
 40
11.0
 40
11.0
 40
12.0
 40
12.0
 40
12.0
 40
13.0
 40
13.0
 40
13.0
 40
14.0
 40
14.0
 40
14.0
 40
15.0
 40
15.0
 40
15.0
 40
16.0
 40
16.0
 40
16.0
 40
17.0
 40
17.0
 40
17.0
 40
17.0
 10
3.686111026340061
 20
3.662499957614475
 10
3.665277693006727
 20
3.916666666666667
 10
3.651388804117838
 20
4.345833248562283
 10
3.444444444444444
 20
4.641666624281141
 10
3.526388804117838
 20
4.680555555555555
 10
3.583333333333333
 20
4.76249991522895
 10
3.583333333333333
 20
4.859722137451172
 10
3.583333333333333
 20
4.993055449591743
 10
3.474999957614475
 20
5.101388825310601
 10
3.341666751437717
 20
5.101388825310601
 10
3.2250001695421
 20
5.101388825310601
 10
3.126388973659939
 20
5.018055491977267
 10
3.105555640326606
 20
4.906944380866157
 10
3.011111153496636
 20
4.941666603088379
 10
2.902777777777778
 20
4.961111068725586
 10
2.773611280653212
 20
4.961111068725586
 10
2.640277862548828
 20
4.961111068725586
 10
2.527777989705403
 20
4.940277735392252
 10
2.433333502875434
 20
4.902777777777778
 10
2.4125001695421
 20
5.015277756585015
 10
2.315277947319878
 20
5.101388931274414
 10
2.195833418104383
 20
5.101388931274414
 10
2.0625
 20
5.101388931274414
 10
1.954166836208767
 20
4.993055555555555
 10
1.954166836208767
 20
4.859722243414985
 10
1.954166836208767
 20
4.759722285800509
 10
2.015277862548828
 20
4.672222243414985
 10
2.104166878594293
 20
4.637500021192762
 10
1.905555725097656
 20
4.343055513170031
 10
1.897222518920898
 20
3.916666666666667
 10
1.876389185587565
 20
3.663888931274414
 10
1.843055937025282
 20
3.25
 10
1.490278032090929
 20
1.722222222222222
 10
2.152777989705403
 20
1.383333418104384
 10
2.630555894639757
 20
1.138888888888889
 10
2.761111365424262
 20
1.125
 10
2.859722561306424
 20
1.141666836208767
 10
2.897222518920898
 20
1.144444783528646
 10
2.93194474114312
 20
1.150000254313151
 10
2.97638914320204
 20
1.165278116861979
 10
2.97638914320204
 20
1.165278116861979
 10
2.97638914320204
 20
1.165278116861979
 10
2.97638914320204
 20
1.165278116861979
 10
2.97638914320204
 20
1.165278116861979
 10
2.97638914320204
 20
1.165278116861979
 10
2.97638914320204
 20
1.165278116861979
 10
3.059722476535373
 20
1.193055894639757
 10
3.179167005750868
 20
1.254166920979818
 10
3.409722434149848
 20
1.383333841959635
 10
4.056944529215494
 20
1.745833502875434
 10
3.719444274902344
 20
3.248611026340061
 10
3.686111026340061
 20
3.662499957614475
 97
        0
 97
        0
 75
     2
 76
     1
 98
        0
  0
SPLINE
  5
4B
330
41
100
AcDbEntity
  8
Calque 1
370
     0
100
AcDbSpline
210
0.0
220
0.0
230
1.0
 70
    11
 71
     3
 72
    32
 73
    28
 74
     0
 42
0.0000000001
 43
0.0000000001
 12
1.0
 22
0.0
 32
0.0
 13
1.0
 23
0.0
 33
0.0
 40
0.0
 40
0.0
 40
0.0
 40
0.0
 40
1.0
 40
1.0
 40
1.0
 40
2.0
 40
2.0
 40
2.0
 40
3.0
 40
3.0
 40
3.0
 40
4.0
 40
4.0
 40
4.0
 40
5.0
 40
5.0
 40
5.0
 40
6.0
 40
6.0
 40
6.0
 40
7.0
 40
7.0
 40
7.0
 40
8.0
 40
8.0
 40
8.0
 40
9.0
 40
9.0
 40
9.0
 40
9.0
 10
2.995833290947808
 20
4.347222222222222
 30
0.0
 10
2.872222264607747
 20
4.525000042385525
 30
0.0
 10
2.890277650621202
 20
4.733333375718858
 30
0.0
 10
3.059722264607747
 20
4.920833375718858
 30
0.0
 10
2.977777904934353
 20
4.966666751437717
 30
0.0
 10
2.663888931274414
 20
4.969444486829969
 30
0.0
 10
2.486111111111111
 20
4.920833375718858
 30
0.0
 10
2.669444402058919
 20
4.869444529215494
 30
0.0
 10
2.67500008477105
 20
4.619444529215494
 30
0.0
 10
2.501388973659939
 20
4.313888973659939
 30
0.0
 10
2.327777862548828
 20
4.008333418104383
 30
0.0
 10
2.298611111111111
 20
3.883333418104383
 30
0.0
 10
2.518055597941081
 20
3.86250008477105
 30
0.0
 10
2.548611111111111
 20
3.859722349378798
 30
0.0
 10
2.575000127156575
 20
3.859722349378798
 30
0.0
 10
2.598611195882161
 20
3.861111111111111
 30
0.0
 10
2.645833333333333
 20
3.784722222222222
 30
0.0
 10
2.726388931274414
 20
3.731944402058919
 30
0.0
 10
2.827777862548828
 20
3.738888846503364
 30
0.0
 10
2.918055640326606
 20
3.745833290947808
 30
0.0
 10
2.962500042385525
 20
3.805555555555555
 30
0.0
 10
2.98750008477105
 20
3.861111111111111
 30
0.0
 10
3.004166709052192
 20
3.859722137451172
 30
0.0
 10
3.022222306993272
 20
3.858333375718858
 30
0.0
 10
3.041666666666667
 20
3.859722137451172
 30
0.0
 10
3.401388804117838
 20
3.877777735392252
 30
0.0
 10
3.109722137451172
 20
4.184722264607747
 30
0.0
 10
2.995833290947808
 20
4.347222222222222
 30
0.0
  0
HATCH
  5
4C
330
41
100
AcDbEntity
  8
Calque 1
 62
    27
420
  7687460
100
AcDbHatch
 10
0.0
 20
0.0
 30
0.0
210
0.0
220
0.0
230
1.0
  2
SOLID
 70
     1
 71
     0
 91
        1
 92
        1
 93
        1
 72
     4
 94
        3
 73
     0
 74
     1
 95
       32
 96
       28
 40
0.0
 40
0.0
 40
0.0
 40
0.0
 40
1.0
 40
1.0
 40
1.0
 40
2.0
 40
2.0
 40
2.0
 40
3.0
 40
3.0
 40
3.0
 40
4.0
 40
4.0
 40
4.0
 40
5.0
 40
5.0
 40
5.0
 40
6.0
 40
6.0
 40
6.0
 40
7.0
 40
7.0
 40
7.0
 40
8.0
 40
8.0
 40
8.0
 40
9.0
 40
9.0
 40
9.0
 40
9.0
 10
2.995833290947808
 20
4.347222222222222
 10
2.872222264607747
 20
4.525000042385525
 10
2.890277650621202
 20
4.733333375718858
 10
3.059722264607747
 20
4.920833375718858
 10
2.977777904934353
 20
4.966666751437717
 10
2.663888931274414
 20
4.969444486829969
 10
2.486111111111111
 20
4.920833375718858
 10
2.669444402058919
 20
4.869444529215494
 10
2.67500008477105
 20
4.619444529215494
 10
2.501388973659939
 20
4.313888973659939
 10
2.327777862548828
 20
4.008333418104383
 10
2.298611111111111
 20
3.883333418104383
 10
2.518055597941081
 20
3.86250008477105
 10
2.548611111111111
 20
3.859722349378798
 10
2.575000127156575
 20
3.859722349378798
 10
2.598611195882161
 20
3.861111111111111
 10
2.645833333333333
 20
3.784722222222222
 10
2.726388931274414
 20
3.731944402058919
 10
2.827777862548828
 20
3.738888846503364
 10
2.918055640326606
 20
3.745833290947808
 10
2.962500042385525
 20
3.805555555555555
 10
2.98750008477105
 20
3.861111111111111
 10
3.004166709052192
 20
3.859722137451172
 10
3.022222306993272
 20
3.858333375718858
 10
3.041666666666667
 20
3.859722137451172
 10
3.401388804117838
 20
3.877777735392252
 10
3.109722137451172
 20
4.184722264607747
 10
2.995833290947808
 20
4.347222222222222
 97
        0
 97
        0
 75
     2
 76
     1
 98
        0
  0
INSERT
  5
4E
330
41
100
AcDbEntity
  8
Calque 1
100
AcDbBlockReference
  2
block 3
 10
0.0
 20
0.0
 30
0.0
  0
INSERT
  5
56
330
41
100
AcDbEntity
  8
Calque 1
100
AcDbBlockReference
  2
block 4
 10
0.0
 20
0.0
 30
0.0
  0
SPLINE
  5
61
330
41
100
AcDbEntity
  8
Calque 1
370
     0
100
AcDbSpline
210
0.0
220
0.0
230
1.0
 70
    11
 71
     3
 72
    44
 73
    40
 74
     0
 42
0.0000000001
 43
0.0000000001
 12
1.0
 22
0.0
 32
0.0
 13
1.0
 23
0.0
 33
0.0
 40
0.0
 40
0.0
 40
0.0
 40
0.0
 40
1.0
 40
1.0
 40
1.0
 40
2.0
 40
2.0
 40
2.0
 40
3.0
 40
3.0
 40
3.0
 40
4.0
 40
4.0
 40
4.0
 40
5.0
 40
5.0
 40
5.0
 40
6.0
 40
6.0
 40
6.0
 40
7.0
 40
7.0
 40
7.0
 40
8.0
 40
8.0
 40
8.0
 40
9.0
 40
9.0
 40
9.0
 40
10.0
 40
10.0
 40
10.0
 40
11.0
 40
11.0
 40
11.0
 40
12.0
 40
12.0
 40
12.0
 40
13.0
 40
13.0
 40
13.0
 40
13.0
 10
3.019444359673394
 20
4.034722222222222
 30
0.0
 10
2.963888804117838
 20
3.998611026340061
 30
0.0
 10
2.906944274902344
 20
3.959722306993272
 30
0.0
 10
2.841666539510091
 20
3.945833418104383
 30
0.0
 10
2.831944359673394
 20
3.944444444444444
 30
0.0
 10
2.82361094156901
 20
3.943055682712131
 30
0.0
 10
2.815277735392252
 20
3.941666709052192
 30
0.0
 10
2.815277735392252
 20
3.977777904934353
 30
0.0
 10
2.813888761732313
 20
4.012500127156575
 30
0.0
 10
2.811111026340061
 20
4.048611111111111
 30
0.0
 10
2.884722179836697
 20
4.052777820163302
 30
0.0
 10
2.941666497124566
 20
4.094444486829969
 30
0.0
 10
2.941666497124566
 20
4.145833333333333
 30
0.0
 10
2.941666497124566
 20
4.19999991522895
 30
0.0
 10
2.877777523464627
 20
4.244444423251681
 30
0.0
 10
2.799999872843424
 20
4.244444423251681
 30
0.0
 10
2.722222222222222
 20
4.244444423251681
 30
0.0
 10
2.658333248562283
 20
4.19999991522895
 30
0.0
 10
2.658333248562283
 20
4.145833333333333
 30
0.0
 10
2.658333248562283
 20
4.097222222222222
 30
0.0
 10
2.709722095065647
 20
4.056944529215494
 30
0.0
 10
2.777777777777778
 20
4.048611111111111
 30
0.0
 10
2.78055551317003
 20
4.01249991522895
 30
0.0
 10
2.781944486829969
 20
3.976388931274414
 30
0.0
 10
2.781944486829969
 20
3.940277735392252
 30
0.0
 10
2.723611195882161
 20
3.944444444444444
 30
0.0
 10
2.673611111111111
 20
3.973610983954535
 30
0.0
 10
2.622222264607747
 20
4.009722179836697
 30
0.0
 10
2.605555640326606
 20
4.022222095065646
 30
0.0
 10
2.588889016045464
 20
3.993055555555555
 30
0.0
 10
2.605555640326606
 20
3.981944402058919
 30
0.0
 10
2.670833375718858
 20
3.936111026340061
 30
0.0
 10
2.73750008477105
 20
3.898611068725586
 30
0.0
 10
2.820833418104383
 20
3.908333248562283
 30
0.0
 10
2.901389016045464
 20
3.91805542839898
 30
0.0
 10
2.970833460489909
 20
3.962499830457899
 30
0.0
 10
3.036111195882161
 20
4.005555470784505
 30
0.0
 10
3.054166581895616
 20
4.01805559794108
 30
0.0
 10
3.037499957614475
 20
4.045833375718859
 30
0.0
 10
3.019444359673394
 20
4.034722222222222
 30
0.0
  0
HATCH
  5
62
330
41
100
AcDbEntity
  8
Calque 1
 62
   178
420
   131587
100
AcDbHatch
 10
0.0
 20
0.0
 30
0.0
210
0.0
220
0.0
230
1.0
  2
SOLID
 70
     1
 71
     0
 91
        1
 92
        1
 93
        1
 72
     4
 94
        3
 73
     0
 74
     1
 95
       44
 96
       40
 40
0.0
 40
0.0
 40
0.0
 40
0.0
 40
1.0
 40
1.0
 40
1.0
 40
2.0
 40
2.0
 40
2.0
 40
3.0
 40
3.0
 40
3.0
 40
4.0
 40
4.0
 40
4.0
 40
5.0
 40
5.0
 40
5.0
 40
6.0
 40
6.0
 40
6.0
 40
7.0
 40
7.0
 40
7.0
 40
8.0
 40
8.0
 40
8.0
 40
9.0
 40
9.0
 40
9.0
 40
10.0
 40
10.0
 40
10.0
 40
11.0
 40
11.0
 40
11.0
 40
12.0
 40
12.0
 40
12.0
 40
13.0
 40
13.0
 40
13.0
 40
13.0
 10
3.019444359673394
 20
4.034722222222222
 10
2.963888804117838
 20
3.998611026340061
 10
2.906944274902344
 20
3.959722306993272
 10
2.841666539510091
 20
3.945833418104383
 10
2.831944359673394
 20
3.944444444444444
 10
2.82361094156901
 20
3.943055682712131
 10
2.815277735392252
 20
3.941666709052192
 10
2.815277735392252
 20
3.977777904934353
 10
2.813888761732313
 20
4.012500127156575
 10
2.811111026340061
 20
4.048611111111111
 10
2.884722179836697
 20
4.052777820163302
 10
2.941666497124566
 20
4.094444486829969
 10
2.941666497124566
 20
4.145833333333333
 10
2.941666497124566
 20
4.19999991522895
 10
2.877777523464627
 20
4.244444423251681
 10
2.799999872843424
 20
4.244444423251681
 10
2.722222222222222
 20
4.244444423251681
 10
2.658333248562283
 20
4.19999991522895
 10
2.658333248562283
 20
4.145833333333333
 10
2.658333248562283
 20
4.097222222222222
 10
2.709722095065647
 20
4.056944529215494
 10
2.777777777777778
 20
4.048611111111111
 10
2.78055551317003
 20
4.01249991522895
 10
2.781944486829969
 20
3.976388931274414
 10
2.781944486829969
 20
3.940277735392252
 10
2.723611195882161
 20
3.944444444444444
 10
2.673611111111111
 20
3.973610983954535
 10
2.622222264607747
 20
4.009722179836697
 10
2.605555640326606
 20
4.022222095065646
 10
2.588889016045464
 20
3.993055555555555
 10
2.605555640326606
 20
3.981944402058919
 10
2.670833375718858
 20
3.936111026340061
 10
2.73750008477105
 20
3.898611068725586
 10
2.820833418104383
 20
3.908333248562283
 10
2.901389016045464
 20
3.91805542839898
 10
2.970833460489909
 20
3.962499830457899
 10
3.036111195882161
 20
4.005555470784505
 10
3.054166581895616
 20
4.01805559794108
 10
3.037499957614475
 20
4.045833375718859
 10
3.019444359673394
 20
4.034722222222222
 97
        0
 97
        0
 75
     2
 76
     1
 98
        0
  0
INSERT
  5
64
330
41
100
AcDbEntity
  8
Calque 1
100
AcDbBlockReference
  2
block 5
 10
0.0
 20
0.0
 30
0.0
  0
ENDBLK
  5
44
330
41
100
AcDbEntity
  8
0
100
AcDbBlockEnd
  0
BLOCK
  5
4F
330
4D
100
AcDbEntity
  8
0
100
AcDbBlockBegin
  2
block 3
 70
     0
 10
0.0
 20
0.0
 30
0.0
  3
block 3
  1

  0
SPLINE
  5
51
330
4D
100
AcDbEntity
  8
Calque 1
370
     0
100
AcDbSpline
210
0.0
220
0.0
230
1.0
 70
    11
 71
     3
 72
    17
 73
    13
 74
     0
 42
0.0000000001
 43
0.0000000001
 12
1.0
 22
0.0
 32
0.0
 13
1.0
 23
0.0
 33
0.0
 40
0.0
 40
0.0
 40
0.0
 40
0.0
 40
1.0
 40
1.0
 40
1.0
 40
2.0
 40
2.0
 40
2.0
 40
3.0
 40
3.0
 40
3.0
 40
4.0
 40
4.0
 40
4.0
 40
4.0
 10
2.453236426794092
 20
4.522019889279439
 30
0.0
 10
2.460482711906429
 20
4.55498424315038
 30
0.0
 10
2.48154038403335
 20
4.578369381785402
 30
0.0
 10
2.500270158776806
 20
4.574252168130543
 30
0.0
 10
2.518999933520263
 20
4.570134954475685
 30
0.0
 10
2.528309101345005
 20
4.540074521032466
 30
0.0
 10
2.521062816232668
 20
4.507110167161525
 30
0.0
 10
2.513816531120331
 20
4.474145813290584
 30
0.0
 10
2.49275885899341
 20
4.450760674655561
 30
0.0
 10
2.474029084249966
 20
4.454877888310421
 30
0.0
 10
2.455299309506522
 20
4.45899510196528
 30
0.0
 10
2.445990141681755
 20
4.489055535408498
 30
0.0
 10
2.453236426794092
 20
4.522019889279439
 30
0.0
  0
HATCH
  5
52
330
4D
100
AcDbEntity
  8
Calque 1
 62
   178
420
   131587
100
AcDbHatch
 10
0.0
 20
0.0
 30
0.0
210
0.0
220
0.0
230
1.0
  2
SOLID
 70
     1
 71
     0
 91
        1
 92
        1
 93
        1
 72
     4
 94
        3
 73
     0
 74
     1
 95
       17
 96
       13
 40
0.0
 40
0.0
 40
0.0
 40
0.0
 40
1.0
 40
1.0
 40
1.0
 40
2.0
 40
2.0
 40
2.0
 40
3.0
 40
3.0
 40
3.0
 40
4.0
 40
4.0
 40
4.0
 40
4.0
 10
2.453236426794092
 20
4.522019889279439
 10
2.460482711906429
 20
4.55498424315038
 10
2.48154038403335
 20
4.578369381785402
 10
2.500270158776806
 20
4.574252168130543
 10
2.518999933520263
 20
4.570134954475685
 10
2.528309101345005
 20
4.540074521032466
 10
2.521062816232668
 20
4.507110167161525
 10
2.513816531120331
 20
4.474145813290584
 10
2.49275885899341
 20
4.450760674655561
 10
2.474029084249966
 20
4.454877888310421
 10
2.455299309506522
 20
4.45899510196528
 10
2.445990141681755
 20
4.489055535408498
 10
2.453236426794092
 20
4.522019889279439
 97
        0
 97
        0
 75
     2
 76
     1
 98
        0
  0
SPLINE
  5
53
330
4D
100
AcDbEntity
  8
Calque 1
370
     0
100
AcDbSpline
210
0.0
220
0.0
230
1.0
 70
    11
 71
     3
 72
    17
 73
    13
 74
     0
 42
0.0000000001
 43
0.0000000001
 12
1.0
 22
0.0
 32
0.0
 13
1.0
 23
0.0
 33
0.0
 40
0.0
 40
0.0
 40
0.0
 40
0.0
 40
1.0
 40
1.0
 40
1.0
 40
2.0
 40
2.0
 40
2.0
 40
3.0
 40
3.0
 40
3.0
 40
4.0
 40
4.0
 40
4.0
 40
4.0
 10
3.03004858284175
 20
4.573490982555515
 30
0.0
 10
3.048778254090343
 20
4.577608173459945
 30
0.0
 10
3.069836052462556
 20
4.554222954080488
 30
0.0
 10
3.077082337574893
 20
4.521258600209547
 30
0.0
 10
3.08432862268723
 20
4.488294246338606
 30
0.0
 10
3.075019374118054
 20
4.458233686650096
 30
0.0
 10
3.05628970286946
 20
4.454116495745678
 30
0.0
 10
3.037560031620867
 20
4.449999304841261
 30
0.0
 10
3.016502233248654
 20
4.473384524220692
 30
0.0
 10
3.009255948136317
 20
4.506348878091633
 30
0.0
 10
3.00200966302398
 20
4.539313231962574
 30
0.0
 10
3.011318911593157
 20
4.569373791651085
 30
0.0
 10
3.03004858284175
 20
4.573490982555515
 30
0.0
  0
HATCH
  5
54
330
4D
100
AcDbEntity
  8
Calque 1
 62
   178
420
   131587
100
AcDbHatch
 10
0.0
 20
0.0
 30
0.0
210
0.0
220
0.0
230
1.0
  2
SOLID
 70
     1
 71
     0
 91
        1
 92
        1
 93
        1
 72
     4
 94
        3
 73
     0
 74
     1
 95
       17
 96
       13
 40
0.0
 40
0.0
 40
0.0
 40
0.0
 40
1.0
 40
1.0
 40
1.0
 40
2.0
 40
2.0
 40
2.0
 40
3.0
 40
3.0
 40
3.0
 40
4.0
 40
4.0
 40
4.0
 40
4.0
 10
3.03004858284175
 20
4.573490982555515
 10
3.048778254090343
 20
4.577608173459945
 10
3.069836052462556
 20
4.554222954080488
 10
3.077082337574893
 20
4.521258600209547
 10
3.08432862268723
 20
4.488294246338606
 10
3.075019374118054
 20
4.458233686650096
 10
3.05628970286946
 20
4.454116495745678
 10
3.037560031620867
 20
4.449999304841261
 10
3.016502233248654
 20
4.473384524220692
 10
3.009255948136317
 20
4.506348878091633
 10
3.00200966302398
 20
4.539313231962574
 10
3.011318911593157
 20
4.569373791651085
 10
3.03004858284175
 20
4.573490982555515
 97
        0
 97
        0
 75
     2
 76
     1
 98
        0
  0
ENDBLK
  5
50
330
4D
100
AcDbEntity
  8
0
100
AcDbBlockEnd
  0
BLOCK
  5
57
330
55
100
AcDbEntity
  8
0
100
AcDbBlockBegin
  2
block 4
 70
     0
 10
0.0
 20
0.0
 30
0.0
  3
block 4
  1

  0
SPLINE
  5
59
330
55
100
AcDbEntity
  8
Calque 1
370
     0
100
AcDbSpline
210
0.0
220
0.0
230
1.0
 70
    11
 71
     3
 72
    17
 73
    13
 74
     0
 42
0.0000000001
 43
0.0000000001
 12
1.0
 22
0.0
 32
0.0
 13
1.0
 23
0.0
 33
0.0
 40
0.0
 40
0.0
 40
0.0
 40
0.0
 40
1.0
 40
1.0
 40
1.0
 40
2.0
 40
2.0
 40
2.0
 40
3.0
 40
3.0
 40
3.0
 40
4.0
 40
4.0
 40
4.0
 40
4.0
 10
3.256944444444444
 20
2.934722264607747
 30
0.0
 10
3.23750008477105
 20
2.805555555555555
 30
0.0
 10
3.230555640326606
 20
2.668055640326606
 30
0.0
 10
3.183333290947808
 20
2.587500042385525
 30
0.0
 10
3.287499957614475
 20
2.511111153496636
 30
0.0
 10
3.404166539510091
 20
2.511111153496636
 30
0.0
 10
3.441666709052192
 20
2.502777735392252
 30
0.0
 10
3.494444529215495
 20
2.616666581895616
 30
0.0
 10
3.594444274902344
 20
2.773611068725586
 30
0.0
 10
3.622222052680121
 20
2.802777820163303
 30
0.0
 10
3.495833290947808
 20
2.872222264607747
 30
0.0
 10
3.256944444444444
 20
2.934722264607747
 30
0.0
 10
3.256944444444444
 20
2.934722264607747
 30
0.0
  0
HATCH
  5
5A
330
55
100
AcDbEntity
  8
Calque 1
 62
    27
420
  7687460
100
AcDbHatch
 10
0.0
 20
0.0
 30
0.0
210
0.0
220
0.0
230
1.0
  2
SOLID
 70
     1
 71
     0
 91
        1
 92
        1
 93
        1
 72
     4
 94
        3
 73
     0
 74
     1
 95
       17
 96
       13
 40
0.0
 40
0.0
 40
0.0
 40
0.0
 40
1.0
 40
1.0
 40
1.0
 40
2.0
 40
2.0
 40
2.0
 40
3.0
 40
3.0
 40
3.0
 40
4.0
 40
4.0
 40
4.0
 40
4.0
 10
3.256944444444444
 20
2.934722264607747
 10
3.23750008477105
 20
2.805555555555555
 10
3.230555640326606
 20
2.668055640326606
 10
3.183333290947808
 20
2.587500042385525
 10
3.287499957614475
 20
2.511111153496636
 10
3.404166539510091
 20
2.511111153496636
 10
3.441666709052192
 20
2.502777735392252
 10
3.494444529215495
 20
2.616666581895616
 10
3.594444274902344
 20
2.773611068725586
 10
3.622222052680121
 20
2.802777820163303
 10
3.495833290947808
 20
2.872222264607747
 10
3.256944444444444
 20
2.934722264607747
 10
3.256944444444444
 20
2.934722264607747
 97
        0
 97
        0
 75
     2
 76
     1
 98
        0
  0
SPLINE
  5
5B
330
55
100
AcDbEntity
  8
Calque 1
370
     0
100
AcDbSpline
210
0.0
220
0.0
230
1.0
 70
    11
 71
     3
 72
    29
 73
    25
 74
     0
 42
0.0000000001
 43
0.0000000001
 12
1.0
 22
0.0
 32
0.0
 13
1.0
 23
0.0
 33
0.0
 40
0.0
 40
0.0
 40
0.0
 40
0.0
 40
1.0
 40
1.0
 40
1.0
 40
2.0
 40
2.0
 40
2.0
 40
3.0
 40
3.0
 40
3.0
 40
4.0
 40
4.0
 40
4.0
 40
5.0
 40
5.0
 40
5.0
 40
6.0
 40
6.0
 40
6.0
 40
7.0
 40
7.0
 40
7.0
 40
8.0
 40
8.0
 40
8.0
 40
8.0
 10
3.454166624281141
 20
1.6875
 30
0.0
 10
3.454166624281141
 20
1.6875
 30
0.0
 10
2.601388719346788
 20
2.05000008477105
 30
0.0
 10
2.601388719346788
 20
2.05000008477105
 30
0.0
 10
2.591666539510091
 20
2.054166581895616
 30
0.0
 10
2.58611085679796
 20
2.066666920979817
 30
0.0
 10
2.590277565850152
 20
2.076388888888889
 30
0.0
 10
2.590277565850152
 20
2.076388888888889
 30
0.0
 10
2.840277565850152
 20
2.666666666666667
 30
0.0
 10
2.840277565850152
 20
2.666666666666667
 30
0.0
 10
2.844444274902344
 20
2.676388846503364
 30
0.0
 10
2.856944190131293
 20
2.681944529215495
 30
0.0
 10
2.86666636996799
 20
2.677777820163303
 30
0.0
 10
2.86666636996799
 20
2.677777820163303
 30
0.0
 10
3.719444274902344
 20
2.315277947319878
 30
0.0
 10
3.719444274902344
 20
2.315277947319878
 30
0.0
 10
3.729166666666667
 20
2.311111450195312
 30
0.0
 10
3.734722137451172
 20
2.298611111111111
 30
0.0
 10
3.730555216471354
 20
2.28888914320204
 30
0.0
 10
3.730555216471354
 20
2.28888914320204
 30
0.0
 10
3.480555216471354
 20
1.698611365424262
 30
0.0
 10
3.480555216471354
 20
1.698611365424262
 30
0.0
 10
3.474999957614475
 20
1.6875
 30
0.0
 10
3.463888804117838
 20
1.683333502875434
 30
0.0
 10
3.454166624281141
 20
1.6875
 30
0.0
  0
HATCH
  5
5C
330
55
100
AcDbEntity
  8
Calque 1
 62
    33
420
 14129757
100
AcDbHatch
 10
0.0
 20
0.0
 30
0.0
210
0.0
220
0.0
230
1.0
  2
SOLID
 70
     1
 71
     0
 91
        1
 92
        1
 93
        1
 72
     4
 94
        3
 73
     0
 74
     1
 95
       29
 96
       25
 40
0.0
 40
0.0
 40
0.0
 40
0.0
 40
1.0
 40
1.0
 40
1.0
 40
2.0
 40
2.0
 40
2.0
 40
3.0
 40
3.0
 40
3.0
 40
4.0
 40
4.0
 40
4.0
 40
5.0
 40
5.0
 40
5.0
 40
6.0
 40
6.0
 40
6.0
 40
7.0
 40
7.0
 40
7.0
 40
8.0
 40
8.0
 40
8.0
 40
8.0
 10
3.454166624281141
 20
1.6875
 10
3.454166624281141
 20
1.6875
 10
2.601388719346788
 20
2.05000008477105
 10
2.601388719346788
 20
2.05000008477105
 10
2.591666539510091
 20
2.054166581895616
 10
2.58611085679796
 20
2.066666920979817
 10
2.590277565850152
 20
2.076388888888889
 10
2.590277565850152
 20
2.076388888888889
 10
2.840277565850152
 20
2.666666666666667
 10
2.840277565850152
 20
2.666666666666667
 10
2.844444274902344
 20
2.676388846503364
 10
2.856944190131293
 20
2.681944529215495
 10
2.86666636996799
 20
2.677777820163303
 10
2.86666636996799
 20
2.677777820163303
 10
3.719444274902344
 20
2.315277947319878
 10
3.719444274902344
 20
2.315277947319878
 10
3.729166666666667
 20
2.311111450195312
 10
3.734722137451172
 20
2.298611111111111
 10
3.730555216471354
 20
2.28888914320204
 10
3.730555216471354
 20
2.28888914320204
 10
3.480555216471354
 20
1.698611365424262
 10
3.480555216471354
 20
1.698611365424262
 10
3.474999957614475
 20
1.6875
 10
3.463888804117838
 20
1.683333502875434
 10
3.454166624281141
 20
1.6875
 97
        0
 97
        0
 75
     2
 76
     1
 98
        0
  0
SPLINE
  5
5D
330
55
100
AcDbEntity
  8
Calque 1
370
     0
100
AcDbSpline
210
0.0
220
0.0
230
1.0
 70
    11
 71
     3
 72
    65
 73
    61
 74
     0
 42
0.0000000001
 43
0.0000000001
 12
1.0
 22
0.0
 32
0.0
 13
1.0
 23
0.0
 33
0.0
 40
0.0
 40
0.0
 40
0.0
 40
0.0
 40
1.0
 40
1.0
 40
1.0
 40
2.0
 40
2.0
 40
2.0
 40
3.0
 40
3.0
 40
3.0
 40
4.0
 40
4.0
 40
4.0
 40
5.0
 40
5.0
 40
5.0
 40
6.0
 40
6.0
 40
6.0
 40
7.0
 40
7.0
 40
7.0
 40
8.0
 40
8.0
 40
8.0
 40
9.0
 40
9.0
 40
9.0
 40
10.0
 40
10.0
 40
10.0
 40
11.0
 40
11.0
 40
11.0
 40
12.0
 40
12.0
 40
12.0
 40
13.0
 40
13.0
 40
13.0
 40
14.0
 40
14.0
 40
14.0
 40
15.0
 40
15.0
 40
15.0
 40
16.0
 40
16.0
 40
16.0
 40
17.0
 40
17.0
 40
17.0
 40
18.0
 40
18.0
 40
18.0
 40
19.0
 40
19.0
 40
19.0
 40
20.0
 40
20.0
 40
20.0
 40
20.0
 10
4.233333163791232
 20
4.956944465637207
 30
0.0
 10
4.079166412353516
 20
4.868055555555555
 30
0.0
 10
3.566666497124566
 20
4.35277779897054
 30
0.0
 10
3.462499830457899
 20
4.333333333333333
 30
0.0
 10
3.358333163791233
 20
4.313888867696126
 30
0.0
 10
3.619444105360243
 20
4.190277735392252
 30
0.0
 10
3.781944274902344
 20
4.213888804117838
 30
0.0
 10
3.944444444444444
 20
4.237499872843424
 30
0.0
 10
3.662499745686849
 20
4.06111102634006
 30
0.0
 10
3.519444359673394
 20
4.04305542839898
 30
0.0
 10
3.376388761732313
 20
4.023611068725586
 30
0.0
 10
3.690277523464626
 20
3.976388719346788
 30
0.0
 10
3.76249991522895
 20
3.986110899183485
 30
0.0
 10
3.833333333333333
 20
3.995833079020182
 30
0.0
 10
3.181944317287869
 20
3.643055386013454
 30
0.0
 10
3.0625
 20
3.633333206176758
 30
0.0
 10
2.943055470784505
 20
3.623611026340061
 30
0.0
 10
3.315277735392252
 20
3.486110899183485
 30
0.0
 10
3.481944402058919
 20
3.509722179836697
 30
0.0
 10
3.648611280653212
 20
3.533333248562283
 30
0.0
 10
3.329166624281141
 20
3.380555470784505
 30
0.0
 10
3.10555542839898
 20
3.413888931274414
 30
0.0
 10
2.881944232516819
 20
3.447222391764323
 30
0.0
 10
3.272222095065647
 20
3.284722222222222
 30
0.0
 10
3.399999830457899
 20
3.294444402058919
 30
0.0
 10
3.529166539510091
 20
3.304166581895616
 30
0.0
 10
2.809722052680121
 20
3.208333333333333
 30
0.0
 10
2.662499745686849
 20
3.227777693006727
 30
0.0
 10
2.515277438693576
 20
3.247222052680121
 30
0.0
 10
3.066666497124566
 20
2.866666581895616
 30
0.0
 10
3.338888592190212
 20
2.870833290947808
 30
0.0
 10
3.529166327582465
 20
2.723610983954535
 30
0.0
 10
4.443055046929254
 20
2.184722052680121
 30
0.0
 10
4.115277608235677
 20
2.580555597941081
 30
0.0
 10
3.7875001695421
 20
2.97638914320204
 30
0.0
 10
3.668055216471354
 20
3.447222391764323
 30
0.0
 10
3.772221883138021
 20
3.23750008477105
 30
0.0
 10
3.876388549804688
 20
3.027777777777778
 30
0.0
 10
4.191666497124566
 20
2.766666836208767
 30
0.0
 10
4.129166497124566
 20
2.980555640326606
 30
0.0
 10
4.066666497124566
 20
3.194444444444444
 30
0.0
 10
3.76249991522895
 20
3.575000127156575
 30
0.0
 10
3.891666412353516
 20
3.4750001695421
 30
0.0
 10
4.020832909478082
 20
3.375000211927626
 30
0.0
 10
4.38611094156901
 20
2.870833502875434
 30
0.0
 10
4.32499991522895
 20
3.051389058430989
 30
0.0
 10
4.26249991522895
 20
3.231944613986545
 30
0.0
 10
4.005555470784505
 20
3.875000211927626
 30
0.0
 10
4.134721967909071
 20
3.731944613986545
 30
0.0
 10
4.263888465033637
 20
3.588889016045464
 30
0.0
 10
4.481944190131293
 20
3.4750001695421
 30
0.0
 10
4.363888634575738
 20
3.598611195882161
 30
0.0
 10
4.245833079020182
 20
3.722222222222222
 30
0.0
 10
4.134721967909071
 20
4.298611217074924
 30
0.0
 10
4.193055470784505
 20
4.151389016045465
 30
0.0
 10
4.25
 20
4.004166709052192
 30
0.0
 10
4.55000008477105
 20
3.89444457160102
 30
0.0
 10
4.430555555555555
 20
4.027777989705403
 30
0.0
 10
4.31111102634006
 20
4.161111407809787
 30
0.0
 10
4.32361094156901
 20
5.009722179836697
 30
0.0
 10
4.233333163791232
 20
4.956944465637207
 30
0.0
  0
HATCH
  5
5E
330
55
100
AcDbEntity
  8
Calque 1
 62
   116
420
   420152
100
AcDbHatch
 10
0.0
 20
0.0
 30
0.0
210
0.0
220
0.0
230
1.0
  2
SOLID
 70
     1
 71
     0
 91
        1
 92
        1
 93
        1
 72
     4
 94
        3
 73
     0
 74
     1
 95
       65
 96
       61
 40
0.0
 40
0.0
 40
0.0
 40
0.0
 40
1.0
 40
1.0
 40
1.0
 40
2.0
 40
2.0
 40
2.0
 40
3.0
 40
3.0
 40
3.0
 40
4.0
 40
4.0
 40
4.0
 40
5.0
 40
5.0
 40
5.0
 40
6.0
 40
6.0
 40
6.0
 40
7.0
 40
7.0
 40
7.0
 40
8.0
 40
8.0
 40
8.0
 40
9.0
 40
9.0
 40
9.0
 40
10.0
 40
10.0
 40
10.0
 40
11.0
 40
11.0
 40
11.0
 40
12.0
 40
12.0
 40
12.0
 40
13.0
 40
13.0
 40
13.0
 40
14.0
 40
14.0
 40
14.0
 40
15.0
 40
15.0
 40
15.0
 40
16.0
 40
16.0
 40
16.0
 40
17.0
 40
17.0
 40
17.0
 40
18.0
 40
18.0
 40
18.0
 40
19.0
 40
19.0
 40
19.0
 40
20.0
 40
20.0
 40
20.0
 40
20.0
 10
4.233333163791232
 20
4.956944465637207
 10
4.079166412353516
 20
4.868055555555555
 10
3.566666497124566
 20
4.35277779897054
 10
3.462499830457899
 20
4.333333333333333
 10
3.358333163791233
 20
4.313888867696126
 10
3.619444105360243
 20
4.190277735392252
 10
3.781944274902344
 20
4.213888804117838
 10
3.944444444444444
 20
4.237499872843424
 10
3.662499745686849
 20
4.06111102634006
 10
3.519444359673394
 20
4.04305542839898
 10
3.376388761732313
 20
4.023611068725586
 10
3.690277523464626
 20
3.976388719346788
 10
3.76249991522895
 20
3.986110899183485
 10
3.833333333333333
 20
3.995833079020182
 10
3.181944317287869
 20
3.643055386013454
 10
3.0625
 20
3.633333206176758
 10
2.943055470784505
 20
3.623611026340061
 10
3.315277735392252
 20
3.486110899183485
 10
3.481944402058919
 20
3.509722179836697
 10
3.648611280653212
 20
3.533333248562283
 10
3.329166624281141
 20
3.380555470784505
 10
3.10555542839898
 20
3.413888931274414
 10
2.881944232516819
 20
3.447222391764323
 10
3.272222095065647
 20
3.284722222222222
 10
3.399999830457899
 20
3.294444402058919
 10
3.529166539510091
 20
3.304166581895616
 10
2.809722052680121
 20
3.208333333333333
 10
2.662499745686849
 20
3.227777693006727
 10
2.515277438693576
 20
3.247222052680121
 10
3.066666497124566
 20
2.866666581895616
 10
3.338888592190212
 20
2.870833290947808
 10
3.529166327582465
 20
2.723610983954535
 10
4.443055046929254
 20
2.184722052680121
 10
4.115277608235677
 20
2.580555597941081
 10
3.7875001695421
 20
2.97638914320204
 10
3.668055216471354
 20
3.447222391764323
 10
3.772221883138021
 20
3.23750008477105
 10
3.876388549804688
 20
3.027777777777778
 10
4.191666497124566
 20
2.766666836208767
 10
4.129166497124566
 20
2.980555640326606
 10
4.066666497124566
 20
3.194444444444444
 10
3.76249991522895
 20
3.575000127156575
 10
3.891666412353516
 20
3.4750001695421
 10
4.020832909478082
 20
3.375000211927626
 10
4.38611094156901
 20
2.870833502875434
 10
4.32499991522895
 20
3.051389058430989
 10
4.26249991522895
 20
3.231944613986545
 10
4.005555470784505
 20
3.875000211927626
 10
4.134721967909071
 20
3.731944613986545
 10
4.263888465033637
 20
3.588889016045464
 10
4.481944190131293
 20
3.4750001695421
 10
4.363888634575738
 20
3.598611195882161
 10
4.245833079020182
 20
3.722222222222222
 10
4.134721967909071
 20
4.298611217074924
 10
4.193055470784505
 20
4.151389016045465
 10
4.25
 20
4.004166709052192
 10
4.55000008477105
 20
3.89444457160102
 10
4.430555555555555
 20
4.027777989705403
 10
4.31111102634006
 20
4.161111407809787
 10
4.32361094156901
 20
5.009722179836697
 10
4.233333163791232
 20
4.956944465637207
 97
        0
 97
        0
 75
     2
 76
     1
 98
        0
  0
SPLINE
  5
5F
330
55
100
AcDbEntity
  8
Calque 1
370
     0
100
AcDbSpline
210
0.0
220
0.0
230
1.0
 70
    11
 71
     3
 72
    29
 73
    25
 74
     0
 42
0.0000000001
 43
0.0000000001
 12
1.0
 22
0.0
 32
0.0
 13
1.0
 23
0.0
 33
0.0
 40
0.0
 40
0.0
 40
0.0
 40
0.0
 40
1.0
 40
1.0
 40
1.0
 40
2.0
 40
2.0
 40
2.0
 40
3.0
 40
3.0
 40
3.0
 40
4.0
 40
4.0
 40
4.0
 40
5.0
 40
5.0
 40
5.0
 40
6.0
 40
6.0
 40
6.0
 40
7.0
 40
7.0
 40
7.0
 40
8.0
 40
8.0
 40
8.0
 40
8.0
 10
3.63611094156901
 20
2.184722052680121
 30
0.0
 10
3.63611094156901
 20
2.184722052680121
 30
0.0
 10
2.827777862548828
 20
2.527777777777778
 30
0.0
 10
2.827777862548828
 20
2.527777777777778
 30
0.0
 10
2.780555725097656
 20
2.548611111111111
 30
0.0
 10
2.758333418104383
 20
2.602777693006727
 30
0.0
 10
2.777777777777778
 20
2.651388804117838
 30
0.0
 10
2.777777777777778
 20
2.651388804117838
 30
0.0
 10
2.813888973659939
 20
2.737499872843424
 30
0.0
 10
2.813888973659939
 20
2.737499872843424
 30
0.0
 10
2.834722306993272
 20
2.784722010294596
 30
0.0
 10
2.888888888888889
 20
2.806944317287869
 30
0.0
 10
2.9375
 20
2.787499957614475
 30
0.0
 10
2.9375
 20
2.787499957614475
 30
0.0
 10
3.745833502875434
 20
2.444444444444444
 30
0.0
 10
3.745833502875434
 20
2.444444444444444
 30
0.0
 10
3.793055640326606
 20
2.423611111111111
 30
0.0
 10
3.815277947319878
 20
2.369444529215495
 30
0.0
 10
3.795833587646484
 20
2.320833418104383
 30
0.0
 10
3.795833587646484
 20
2.320833418104383
 30
0.0
 10
3.759722391764323
 20
2.234722137451172
 30
0.0
 10
3.759722391764323
 20
2.234722137451172
 30
0.0
 10
3.738889058430989
 20
2.186111026340061
 30
0.0
 10
3.683333502875434
 20
2.163888719346788
 30
0.0
 10
3.63611094156901
 20
2.184722052680121
 30
0.0
  0
HATCH
  5
60
330
55
100
AcDbEntity
  8
Calque 1
 62
    23
420
 13009992
100
AcDbHatch
 10
0.0
 20
0.0
 30
0.0
210
0.0
220
0.0
230
1.0
  2
SOLID
 70
     1
 71
     0
 91
        1
 92
        1
 93
        1
 72
     4
 94
        3
 73
     0
 74
     1
 95
       29
 96
       25
 40
0.0
 40
0.0
 40
0.0
 40
0.0
 40
1.0
 40
1.0
 40
1.0
 40
2.0
 40
2.0
 40
2.0
 40
3.0
 40
3.0
 40
3.0
 40
4.0
 40
4.0
 40
4.0
 40
5.0
 40
5.0
 40
5.0
 40
6.0
 40
6.0
 40
6.0
 40
7.0
 40
7.0
 40
7.0
 40
8.0
 40
8.0
 40
8.0
 40
8.0
 10
3.63611094156901
 20
2.184722052680121
 10
3.63611094156901
 20
2.184722052680121
 10
2.827777862548828
 20
2.527777777777778
 10
2.827777862548828
 20
2.527777777777778
 10
2.780555725097656
 20
2.548611111111111
 10
2.758333418104383
 20
2.602777693006727
 10
2.777777777777778
 20
2.651388804117838
 10
2.777777777777778
 20
2.651388804117838
 10
2.813888973659939
 20
2.737499872843424
 10
2.813888973659939
 20
2.737499872843424
 10
2.834722306993272
 20
2.784722010294596
 10
2.888888888888889
 20
2.806944317287869
 10
2.9375
 20
2.787499957614475
 10
2.9375
 20
2.787499957614475
 10
3.745833502875434
 20
2.444444444444444
 10
3.745833502875434
 20
2.444444444444444
 10
3.793055640326606
 20
2.423611111111111
 10
3.815277947319878
 20
2.369444529215495
 10
3.795833587646484
 20
2.320833418104383
 10
3.795833587646484
 20
2.320833418104383
 10
3.759722391764323
 20
2.234722137451172
 10
3.759722391764323
 20
2.234722137451172
 10
3.738889058430989
 20
2.186111026340061
 10
3.683333502875434
 20
2.163888719346788
 10
3.63611094156901
 20
2.184722052680121
 97
        0
 97
        0
 75
     2
 76
     1
 98
        0
  0
ENDBLK
  5
58
330
55
100
AcDbEntity
  8
0
100
AcDbBlockEnd
  0
BLOCK
  5
65
330
63
100
AcDbEntity
  8
0
100
AcDbBlockBegin
  2
block 5
 70
     0
 10
0.0
 20
0.0
 30
0.0
  3
block 5
  1

  0
SPLINE
  5
67
330
63
100
AcDbEntity
  8
Calque 1
370
     0
100
AcDbSpline
210
0.0
220
0.0
230
1.0
 70
    11
 71
     3
 72
    14
 73
    10
 74
     0
 42
0.0000000001
 43
0.0000000001
 12
1.0
 22
0.0
 32
0.0
 13
1.0
 23
0.0
 33
0.0
 40
0.0
 40
0.0
 40
0.0
 40
0.0
 40
1.0
 40
1.0
 40
1.0
 40
2.0
 40
2.0
 40
2.0
 40
3.0
 40
3.0
 40
3.0
 40
3.0
 10
1.736111111111111
 20
3.351388931274414
 30
0.0
 10
1.919444402058919
 20
3.522222306993272
 30
0.0
 10
3.240277820163303
 20
3.0625
 30
0.0
 10
3.098611195882161
 20
2.718055725097656
 30
0.0
 10
2.95694457160102
 20
2.373611450195312
 30
0.0
 10
2.166666666666667
 20
2.420833587646484
 30
0.0
 10
1.766666730244954
 20
2.648611280653212
 30
0.0
 10
1.366666793823242
 20
2.876388973659939
 30
0.0
 10
1.598611089918348
 20
3.222222222222222
 30
0.0
 10
1.736111111111111
 20
3.351388931274414
 30
0.0
  0
HATCH
  5
68
330
63
100
AcDbEntity
  8
Calque 1
 62
    27
420
  7687460
100
AcDbHatch
 10
0.0
 20
0.0
 30
0.0
210
0.0
220
0.0
230
1.0
  2
SOLID
 70
     1
 71
     0
 91
        1
 92
        1
 93
        1
 72
     4
 94
        3
 73
     0
 74
     1
 95
       14
 96
       10
 40
0.0
 40
0.0
 40
0.0
 40
0.0
 40
1.0
 40
1.0
 40
1.0
 40
2.0
 40
2.0
 40
2.0
 40
3.0
 40
3.0
 40
3.0
 40
3.0
 10
1.736111111111111
 20
3.351388931274414
 10
1.919444402058919
 20
3.522222306993272
 10
3.240277820163303
 20
3.0625
 10
3.098611195882161
 20
2.718055725097656
 10
2.95694457160102
 20
2.373611450195312
 10
2.166666666666667
 20
2.420833587646484
 10
1.766666730244954
 20
2.648611280653212
 10
1.366666793823242
 20
2.876388973659939
 10
1.598611089918348
 20
3.222222222222222
 10
1.736111111111111
 20
3.351388931274414
 97
        0
 97
        0
 75
     2
 76
     1
 98
        0
  0
SPLINE
  5
69
330
63
100
AcDbEntity
  8
Calque 1
370
     0
100
AcDbSpline
210
0.0
220
0.0
230
1.0
 70
    11
 71
     3
 72
    14
 73
    10
 74
     0
 42
0.0000000001
 43
0.0000000001
 12
1.0
 22
0.0
 32
0.0
 13
1.0
 23
0.0
 33
0.0
 40
0.0
 40
0.0
 40
0.0
 40
0.0
 40
1.0
 40
1.0
 40
1.0
 40
2.0
 40
2.0
 40
2.0
 40
3.0
 40
3.0
 40
3.0
 40
3.0
 10
4.087499830457899
 20
2.772222306993272
 30
0.0
 10
3.979166666666667
 20
2.883333418104383
 30
0.0
 10
3.369444317287869
 20
2.398611280653212
 30
0.0
 10
3.484722137451172
 20
2.151388804117838
 30
0.0
 10
3.6000001695421
 20
1.904166327582465
 30
0.0
 10
3.954166412353516
 20
2.009721967909071
 30
0.0
 10
4.104166666666666
 20
2.218055301242404
 30
0.0
 10
4.254166497124566
 20
2.42500008477105
 30
0.0
 10
4.169444613986545
 20
2.6875
 30
0.0
 10
4.087499830457899
 20
2.772222306993272
 30
0.0
  0
HATCH
  5
6A
330
63
100
AcDbEntity
  8
Calque 1
 62
    27
420
  7687460
100
AcDbHatch
 10
0.0
 20
0.0
 30
0.0
210
0.0
220
0.0
230
1.0
  2
SOLID
 70
     1
 71
     0
 91
        1
 92
        1
 93
        1
 72
     4
 94
        3
 73
     0
 74
     1
 95
       14
 96
       10
 40
0.0
 40
0.0
 40
0.0
 40
0.0
 40
1.0
 40
1.0
 40
1.0
 40
2.0
 40
2.0
 40
2.0
 40
3.0
 40
3.0
 40
3.0
 40
3.0
 10
4.087499830457899
 20
2.772222306993272
 10
3.979166666666667
 20
2.883333418104383
 10
3.369444317287869
 20
2.398611280653212
 10
3.484722137451172
 20
2.151388804117838
 10
3.6000001695421
 20
1.904166327582465
 10
3.954166412353516
 20
2.009721967909071
 10
4.104166666666666
 20
2.218055301242404
 10
4.254166497124566
 20
2.42500008477105
 10
4.169444613986545
 20
2.6875
 10
4.087499830457899
 20
2.772222306993272
 97
        0
 97
        0
 75
     2
 76
     1
 98
        0
  0
ENDBLK
  5
66
330
63
100
AcDbEntity
  8
0
100
AcDbBlockEnd
  0
ENDSEC
  0
SECTION
  2
ENTITIES
  0
INSERT
  5
42
330
1F
100
AcDbEntity
  8
Calque 1
100
AcDbBlockReference
  2
block 2
 10
0.0
 20
0.0
 30
0.0
  0
ENDSEC
  0
SECTION
  2
OBJECTS
  0
DICTIONARY
  5
C
330
0
100
AcDbDictionary
281
     1
  3
ACAD_GROUP
350
D
  3
ACAD_LAYOUT
350
1A
  3
ACAD_MATERIAL
350
3B
  3
ACAD_MLEADERSTYLE
350
6C
  3
ACAD_MLINESTYLE
350
17
  3
ACAD_PLOTSETTINGS
350
19
  3
ACAD_PLOTSTYLENAME
350
E
  3
ACAD_TABLESTYLE
350
6B
  3
ACAD_VISUALSTYLE
350
2A
  0
SUN
  5
3F
330
29
100
AcDbSun
 90
        1
290
     0
 63
     7
421
 16777215
 40
1.0
291
     1
 91
  2455826
 92
 54000000
292
     0
 70
     2
 71
   256
280
     1
  0
DICTIONARY
  5
D
102
{ACAD_REACTORS
330
C
102
}
330
C
100
AcDbDictionary
281
     1
  0
DICTIONARY
  5
1A
102
{ACAD_REACTORS
330
C
102
}
330
C
100
AcDbDictionary
281
     1
  3
Layout1
350
1E
  3
Layout2
350
26
  3
Model
350
22
  0
DICTIONARY
  5
3B
102
{ACAD_REACTORS
330
C
102
}
330
C
100
AcDbDictionary
281
     1
  3
ByBlock
350
3D
  3
ByLayer
350
3C
  3
Global
350
3E
  0
DICTIONARY
  5
6C
102
{ACAD_REACTORS
330
C
102
}
330
C
100
AcDbDictionary
281
     1
  0
DICTIONARY
  5
17
102
{ACAD_REACTORS
330
C
102
}
330
C
100
AcDbDictionary
281
     1
  3
Standard
350
18
  0
DICTIONARY
  5
19
102
{ACAD_REACTORS
330
C
102
}
330
C
100
AcDbDictionary
281
     1
  0
ACDBDICTIONARYWDFLT
  5
E
102
{ACAD_REACTORS
330
C
102
}
330
C
100
AcDbDictionary
281
     1
  3
Normal
350
F
100
AcDbDictionaryWithDefault
340
F
  0
DICTIONARY
  5
6B
102
{ACAD_REACTORS
330
C
102
}
330
C
100
AcDbDictionary
281
     1
  0
DICTIONARY
  5
2A
102
{ACAD_REACTORS
330
C
102
}
330
C
100
AcDbDictionary
281
     1
  3
2dWireframe
350
2F
  3
3D Hidden
350
31
  3
3dWireframe
350
30
  3
Basic
350
32
  3
Brighten
350
36
  3
ColorChange
350
3A
  3
Conceptual
350
34
  3
Dim
350
35
  3
Facepattern
350
39
  3
Flat
350
2B
  3
FlatWithEdges
350
2C
  3
Gouraud
350
2D
  3
GouraudWithEdges
350
2E
  3
Linepattern
350
38
  3
Realistic
350
33
  3
Thicken
350
37
  0
LAYOUT
  5
1E
102
{ACAD_REACTORS
330
1A
102
}
330
1A
100
AcDbPlotSettings
  1

  2
none_device
  4

  6

 40
0.0
 41
0.0
 42
0.0
 43
0.0
 44
0.0
 45
0.0
 46
0.0
 47
0.0
 48
0.0
 49
0.0
140
0.0
141
0.0
142
1.0
143
1.0
 70
   688
 72
     0
 73
     0
 74
     5
  7

 75
    16
 76
     0
 77
     2
 78
   300
147
1.0
148
0.0
149
0.0
100
AcDbLayout
  1
Layout1
 70
     1
 71
     1
 10
0.0
 20
0.0
 11
12.0
 21
9.0
 12
0.0
 22
0.0
 32
0.0
 14
1.000000000000000E+20
 24
1.000000000000000E+20
 34
1.000000000000000E+20
 15
-1.000000000000000E+20
 25
-1.000000000000000E+20
 35
-1.000000000000000E+20
146
0.0
 13
0.0
 23
0.0
 33
0.0
 16
1.0
 26
0.0
 36
0.0
 17
0.0
 27
1.0
 37
0.0
 76
     0
330
1B
  0
LAYOUT
  5
26
102
{ACAD_REACTORS
330
1A
102
}
330
1A
100
AcDbPlotSettings
  1

  2
none_device
  4

  6

 40
0.0
 41
0.0
 42
0.0
 43
0.0
 44
0.0
 45
0.0
 46
0.0
 47
0.0
 48
0.0
 49
0.0
140
0.0
141
0.0
142
1.0
143
1.0
 70
   688
 72
     0
 73
     0
 74
     5
  7

 75
    16
 76
     0
 77
     2
 78
   300
147
1.0
148
0.0
149
0.0
100
AcDbLayout
  1
Layout2
 70
     1
 71
     2
 10
0.0
 20
0.0
 11
0.0
 21
0.0
 12
0.0
 22
0.0
 32
0.0
 14
0.0
 24
0.0
 34
0.0
 15
0.0
 25
0.0
 35
0.0
146
0.0
 13
0.0
 23
0.0
 33
0.0
 16
1.0
 26
0.0
 36
0.0
 17
0.0
 27
1.0
 37
0.0
 76
     0
330
23
  0
LAYOUT
  5
22
102
{ACAD_REACTORS
330
1A
102
}
330
1A
100
AcDbPlotSettings
  1

  2
none_device
  4

  6

 40
0.0
 41
0.0
 42
0.0
 43
0.0
 44
0.0
 45
0.0
 46
0.0
 47
0.0
 48
0.0
 49
0.0
140
0.0
141
0.0
142
1.0
143
1.0
 70
  1712
 72
     0
 73
     0
 74
     0
  7

 75
     0
 76
     0
 77
     2
 78
   300
147
1.0
148
0.0
149
0.0
100
AcDbLayout
  1
Model
 70
     1
 71
     0
 10
0.0
 20
0.0
 11
12.0
 21
9.0
 12
0.0
 22
0.0
 32
0.0
 14
1.000000000000000E+20
 24
1.000000000000000E+20
 34
1.000000000000000E+20
 15
-1.000000000000000E+20
 25
-1.000000000000000E+20
 35
-1.000000000000000E+20
146
0.0
 13
0.0
 23
0.0
 33
0.0
 16
1.0
 26
0.0
 36
0.0
 17
0.0
 27
1.0
 37
0.0
 76
     0
330
1F
331
29
  0
MATERIAL
  5
3D
102
{ACAD_REACTORS
330
3B
102
}
330
3B
100
AcDbMaterial
  1
ByBlock
 72
     1
 94
      127
  0
MATERIAL
  5
3C
102
{ACAD_REACTORS
330
3B
102
}
330
3B
100
AcDbMaterial
  1
ByLayer
 72
     1
 94
      127
  0
MATERIAL
  5
3E
102
{ACAD_REACTORS
330
3B
102
}
330
3B
100
AcDbMaterial
  1
Global
 72
     1
 94
      127
  0
MLINESTYLE
  5
18
102
{ACAD_REACTORS
330
17
102
}
330
17
100
AcDbMlineStyle
  2
Standard
 70
     0
  3

 62
   256
 51
90.0
 52
90.0
 71
     2
 49
0.5
 62
   256
  6
BYLAYER
 49
-0.5
 62
   256
  6
BYLAYER
  0
ACDBPLACEHOLDER
  5
F
102
{ACAD_REACTORS
330
E
102
}
330
E
  0
VISUALSTYLE
  5
2F
102
{ACAD_REACTORS
330
2A
102
}
330
2A
100
AcDbVisualStyle
  2
2dWireframe
 70
     4
177
     2
291
     0
 71
     0
176
     1
 72
     2
176
     1
 73
     0
176
     1
 90
        0
176
     1
 40
-0.6
176
     1
 41
-30.0
176
     1
 62
     5
 63
     7
421
 16777215
176
     1
 74
     1
176
     1
 91
        4
176
     1
 64
     7
176
     1
 65
   257
176
     1
 75
     1
176
     1
175
     1
176
     1
 42
1.0
176
     1
 92
        0
176
     1
 66
   257
176
     1
 43
1.0
176
     1
 76
     1
176
     1
 77
     6
176
     1
 78
     2
176
     1
 67
     7
176
     1
 79
     5
176
     1
170
     0
176
     1
171
     0
176
     1
290
     0
176
     1
 93
        1
176
     1
 44
0.0
176
     1
173
     0
176
     1
  0
VISUALSTYLE
  5
31
102
{ACAD_REACTORS
330
2A
102
}
330
2A
100
AcDbVisualStyle
  2
3D Hidden
 70
     6
177
     2
291
     0
 71
     1
176
     1
 72
     2
176
     1
 73
     2
176
     1
 90
        0
176
     1
 40
-0.6
176
     1
 41
-30.0
176
     1
 62
     5
 63
     7
421
 16777215
176
     1
 74
     2
176
     1
 91
        2
176
     1
 64
     7
176
     1
 65
   257
176
     1
 75
     2
176
     1
175
     1
176
     1
 42
40.0
176
     1
 92
        0
176
     1
 66
   257
176
     1
 43
1.0
176
     1
 76
     1
176
     1
 77
     6
176
     1
 78
     2
176
     1
 67
     7
176
     1
 79
     3
176
     1
170
     0
176
     1
171
     0
176
     1
290
     0
176
     1
 93
        1
176
     1
 44
0.0
176
     1
173
     0
176
     1
  0
VISUALSTYLE
  5
30
102
{ACAD_REACTORS
330
2A
102
}
330
2A
100
AcDbVisualStyle
  2
3dWireframe
 70
     5
177
     2
291
     0
 71
     0
176
     1
 72
     2
176
     1
 73
     0
176
     1
 90
        0
176
     1
 40
-0.6
176
     1
 41
-30.0
176
     1
 62
     5
 63
     7
421
 16777215
176
     1
 74
     1
176
     1
 91
        4
176
     1
 64
     7
176
     1
 65
   257
176
     1
 75
     1
176
     1
175
     1
176
     1
 42
1.0
176
     1
 92
        0
176
     1
 66
   257
176
     1
 43
1.0
176
     1
 76
     1
176
     1
 77
     6
176
     1
 78
     2
176
     1
 67
     7
176
     1
 79
     5
176
     1
170
     0
176
     1
171
     0
176
     1
290
     0
176
     1
 93
        1
176
     1
 44
0.0
176
     1
173
     0
176
     1
  0
VISUALSTYLE
  5
32
102
{ACAD_REACTORS
330
2A
102
}
330
2A
100
AcDbVisualStyle
  2
Basic
 70
     7
177
     2
291
     1
 71
     1
176
     1
 72
     0
176
     1
 73
     1
176
     1
 90
        0
176
     1
 40
-0.6
176
     1
 41
-30.0
176
     1
 62
     5
 63
     7
421
 16777215
176
     1
 74
     0
176
     1
 91
        4
176
     1
 64
     7
176
     1
 65
   257
176
     1
 75
     1
176
     1
175
     1
176
     1
 42
1.0
176
     1
 92
        8
176
     1
 66
     7
176
     1
 43
1.0
176
     1
 76
     1
176
     1
 77
     6
176
     1
 78
     2
176
     1
 67
     7
176
     1
 79
     5
176
     1
170
     0
176
     1
171
     0
176
     1
290
     0
176
     1
 93
        1
176
     1
 44
0.0
176
     1
173
     0
176
     1
  0
VISUALSTYLE
  5
36
102
{ACAD_REACTORS
330
2A
102
}
330
2A
100
AcDbVisualStyle
  2
Brighten
 70
    12
177
     2
291
     1
 71
     2
176
     1
 72
     2
176
     1
 73
     0
176
     1
 90
        0
176
     1
 40
-0.6
176
     1
 41
-30.0
176
     1
 62
     5
 63
     7
421
 16777215
176
     1
 74
     1
176
     1
 91
        4
176
     1
 64
     7
176
     1
 65
   257
176
     1
 75
     1
176
     1
175
     1
176
     1
 42
1.0
176
     1
 92
        8
176
     1
 66
     7
176
     1
 43
1.0
176
     1
 76
     1
176
     1
 77
     6
176
     1
 78
     2
176
     1
 67
     7
176
     1
 79
     5
176
     1
170
     0
176
     1
171
     0
176
     1
290
     0
176
     1
 93
        1
176
     1
 44
50.0
176
     1
173
     0
176
     1
  0
VISUALSTYLE
  5
3A
102
{ACAD_REACTORS
330
2A
102
}
330
2A
100
AcDbVisualStyle
  2
ColorChange
 70
    16
177
     2
291
     1
 71
     2
176
     1
 72
     2
176
     1
 73
     3
176
     1
 90
        0
176
     1
 40
-0.6
176
     1
 41
-30.0
176
     1
 62
     5
 63
     8
421
  8421504
176
     1
 74
     1
176
     1
 91
        4
176
     1
 64
     7
176
     1
 65
   257
176
     1
 75
     1
176
     1
175
     1
176
     1
 42
1.0
176
     1
 92
        8
176
     1
 66
     8
424
  8421504
176
     1
 43
1.0
176
     1
 76
     1
176
     1
 77
     6
176
     1
 78
     2
176
     1
 67
     7
176
     1
 79
     5
176
     1
170
     0
176
     1
171
     0
176
     1
290
     0
176
     1
 93
        1
176
     1
 44
0.0
176
     1
173
     0
176
     1
  0
VISUALSTYLE
  5
34
102
{ACAD_REACTORS
330
2A
102
}
330
2A
100
AcDbVisualStyle
  2
Conceptual
 70
     9
177
     2
291
     0
 71
     3
176
     1
 72
     2
176
     1
 73
     0
176
     1
 90
        0
176
     1
 40
-0.6
176
     1
 41
-30.0
176
     1
 62
     5
 63
     7
421
 16777215
176
     1
 74
     2
176
     1
 91
        2
176
     1
 64
     7
176
     1
 65
   257
176
     1
 75
     1
176
     1
175
     1
176
     1
 42
40.0
176
     1
 92
        8
176
     1
 66
     7
176
     1
 43
1.0
176
     1
 76
     1
176
     1
 77
     6
176
     1
 78
     2
176
     1
 67
     7
176
     1
 79
     3
176
     1
170
     0
176
     1
171
     0
176
     1
290
     0
176
     1
 93
        1
176
     1
 44
0.0
176
     1
173
     0
176
     1
  0
VISUALSTYLE
  5
35
102
{ACAD_REACTORS
330
2A
102
}
330
2A
100
AcDbVisualStyle
  2
Dim
 70
    11
177
     2
291
     1
 71
     2
176
     1
 72
     2
176
     1
 73
     0
176
     1
 90
        0
176
     1
 40
-0.6
176
     1
 41
-30.0
176
     1
 62
     5
 63
     7
421
 16777215
176
     1
 74
     1
176
     1
 91
        4
176
     1
 64
     7
176
     1
 65
   257
176
     1
 75
     1
176
     1
175
     1
176
     1
 42
1.0
176
     1
 92
        8
176
     1
 66
     7
176
     1
 43
1.0
176
     1
 76
     1
176
     1
 77
     6
176
     1
 78
     2
176
     1
 67
     7
176
     1
 79
     5
176
     1
170
     0
176
     1
171
     0
176
     1
290
     0
176
     1
 93
        1
176
     1
 44
-50.0
176
     1
173
     0
176
     1
  0
VISUALSTYLE
  5
39
102
{ACAD_REACTORS
330
2A
102
}
330
2A
100
AcDbVisualStyle
  2
Facepattern
 70
    15
177
     2
291
     1
 71
     2
176
     1
 72
     2
176
     1
 73
     0
176
     1
 90
        0
176
     1
 40
-0.6
176
     1
 41
-30.0
176
     1
 62
     5
 63
     7
421
 16777215
176
     1
 74
     1
176
     1
 91
        4
176
     1
 64
     7
176
     1
 65
   257
176
     1
 75
     1
176
     1
175
     1
176
     1
 42
1.0
176
     1
 92
        8
176
     1
 66
     7
176
     1
 43
1.0
176
     1
 76
     1
176
     1
 77
     6
176
     1
 78
     2
176
     1
 67
     7
176
     1
 79
     5
176
     1
170
     0
176
     1
171
     0
176
     1
290
     0
176
     1
 93
        1
176
     1
 44
0.0
176
     1
173
     0
176
     1
  0
VISUALSTYLE
  5
2B
102
{ACAD_REACTORS
330
2A
102
}
330
2A
100
AcDbVisualStyle
  2
Flat
 70
     0
177
     2
291
     1
 71
     2
176
     1
 72
     1
176
     1
 73
     1
176
     1
 90
        2
176
     1
 40
-0.6
176
     1
 41
30.0
176
     1
 62
     5
 63
     7
421
 16777215
176
     1
 74
     0
176
     1
 91
        4
176
     1
 64
     7
176
     1
 65
   257
176
     1
 75
     1
176
     1
175
     1
176
     1
 42
1.0
176
     1
 92
        8
176
     1
 66
     7
176
     1
 43
1.0
176
     1
 76
     1
176
     1
 77
     6
176
     1
 78
     2
176
     1
 67
     7
176
     1
 79
     5
176
     1
170
     0
176
     1
171
     0
176
     1
290
     0
176
     1
 93
       13
176
     1
 44
0.0
176
     1
173
     0
176
     1
  0
VISUALSTYLE
  5
2C
102
{ACAD_REACTORS
330
2A
102
}
330
2A
100
AcDbVisualStyle
  2
FlatWithEdges
 70
     1
177
     2
291
     1
 71
     2
176
     1
 72
     1
176
     1
 73
     1
176
     1
 90
        2
176
     1
 40
-0.6
176
     1
 41
30.0
176
     1
 62
     5
 63
     7
421
 16777215
176
     1
 74
     1
176
     1
 91
        4
176
     1
 64
     7
176
     1
 65
   257
176
     1
 75
     1
176
     1
175
     1
176
     1
 42
1.0
176
     1
 92
        0
176
     1
 66
   257
176
     1
 43
1.0
176
     1
 76
     1
176
     1
 77
     6
176
     1
 78
     2
176
     1
 67
     7
176
     1
 79
     5
176
     1
170
     0
176
     1
171
     0
176
     1
290
     0
176
     1
 93
       13
176
     1
 44
0.0
176
     1
173
     0
176
     1
  0
VISUALSTYLE
  5
2D
102
{ACAD_REACTORS
330
2A
102
}
330
2A
100
AcDbVisualStyle
  2
Gouraud
 70
     2
177
     2
291
     1
 71
     2
176
     1
 72
     2
176
     1
 73
     1
176
     1
 90
        2
176
     1
 40
-0.6
176
     1
 41
30.0
176
     1
 62
     5
 63
     7
421
 16777215
176
     1
 74
     0
176
     1
 91
        4
176
     1
 64
     7
176
     1
 65
   257
176
     1
 75
     1
176
     1
175
     1
176
     1
 42
1.0
176
     1
 92
        0
176
     1
 66
     7
176
     1
 43
1.0
176
     1
 76
     1
176
     1
 77
     6
176
     1
 78
     2
176
     1
 67
     7
176
     1
 79
     5
176
     1
170
     0
176
     1
171
     0
176
     1
290
     0
176
     1
 93
       13
176
     1
 44
0.0
176
     1
173
     0
176
     1
  0
VISUALSTYLE
  5
2E
102
{ACAD_REACTORS
330
2A
102
}
330
2A
100
AcDbVisualStyle
  2
GouraudWithEdges
 70
     3
177
     2
291
     1
 71
     2
176
     1
 72
     2
176
     1
 73
     1
176
     1
 90
        2
176
     1
 40
-0.6
176
     1
 41
30.0
176
     1
 62
     5
 63
     7
421
 16777215
176
     1
 74
     1
176
     1
 91
        4
176
     1
 64
     7
176
     1
 65
   257
176
     1
 75
     1
176
     1
175
     1
176
     1
 42
1.0
176
     1
 92
        0
176
     1
 66
   257
176
     1
 43
1.0
176
     1
 76
     1
176
     1
 77
     6
176
     1
 78
     2
176
     1
 67
     7
176
     1
 79
     5
176
     1
170
     0
176
     1
171
     0
176
     1
290
     0
176
     1
 93
       13
176
     1
 44
0.0
176
     1
173
     0
176
     1
  0
VISUALSTYLE
  5
38
102
{ACAD_REACTORS
330
2A
102
}
330
2A
100
AcDbVisualStyle
  2
Linepattern
 70
    14
177
     2
291
     1
 71
     2
176
     1
 72
     2
176
     1
 73
     0
176
     1
 90
        0
176
     1
 40
-0.6
176
     1
 41
-30.0
176
     1
 62
     5
 63
     7
421
 16777215
176
     1
 74
     1
176
     1
 91
        4
176
     1
 64
     7
176
     1
 65
   257
176
     1
 75
     7
176
     1
175
     7
176
     1
 42
1.0
176
     1
 92
        8
176
     1
 66
     7
176
     1
 43
1.0
176
     1
 76
     1
176
     1
 77
     6
176
     1
 78
     2
176
     1
 67
     7
176
     1
 79
     5
176
     1
170
     0
176
     1
171
     0
176
     1
290
     0
176
     1
 93
        1
176
     1
 44
0.0
176
     1
173
     0
176
     1
  0
VISUALSTYLE
  5
33
102
{ACAD_REACTORS
330
2A
102
}
330
2A
100
AcDbVisualStyle
  2
Realistic
 70
     8
177
     2
291
     0
 71
     2
176
     1
 72
     2
176
     1
 73
     0
176
     1
 90
        0
176
     1
 40
-0.6
176
     1
 41
-30.0
176
     1
 62
     5
 63
     7
421
 16777215
176
     1
 74
     1
176
     1
 91
        0
176
     1
 64
     7
176
     1
 65
   257
176
     1
 75
     1
176
     1
175
     1
176
     1
 42
1.0
176
     1
 92
        8
176
     1
 66
     8
424
  7895160
176
     1
 43
1.0
176
     1
 76
     1
176
     1
 77
     6
176
     1
 78
     2
176
     1
 67
     7
176
     1
 79
     5
176
     1
170
     0
176
     1
171
     0
176
     1
290
     0
176
     1
 93
       13
176
     1
 44
0.0
176
     1
173
     0
176
     1
  0
VISUALSTYLE
  5
37
102
{ACAD_REACTORS
330
2A
102
}
330
2A
100
AcDbVisualStyle
  2
Thicken
 70
    13
177
     2
291
     1
 71
     2
176
     1
 72
     2
176
     1
 73
     0
176
     1
 90
        0
176
     1
 40
-0.6
176
     1
 41
-30.0
176
     1
 62
     5
 63
     7
421
 16777215
176
     1
 74
     1
176
     1
 91
        4
176
     1
 64
     7
176
     1
 65
   257
176
     1
 75
     1
176
     1
175
     1
176
     1
 42
1.0
176
     1
 92
       12
176
     1
 66
     7
176
     1
 43
1.0
176
     1
 76
     1
176
     1
 77
     6
176
     1
 78
     2
176
     1
 67
     7
176
     1
 79
     5
176
     1
170
     0
176
     1
171
     0
176
     1
290
     0
176
     1
 93
        1
176
     1
 44
0.0
176
     1
173
     0
176
     1
  0
ENDSEC
  0
EOF
