  0
SECTION
  2
HEADER
  9
$ACADVER
  1
AC1024
  9
$ACADMAINTVER
 70
     6
  9
$DWGCODEPAGE
  3
UNDEFINED
  9
$INSBASE
 10
0.0
 20
0.0
 30
0.0
  9
$EXTMIN
 10
1.000000000000000E+20
 20
1.000000000000000E+20
 30
1.000000000000000E+20
  9
$EXTMAX
 10
-1.000000000000000E+20
 20
-1.000000000000000E+20
 30
-1.000000000000000E+20
  9
$LIMMIN
 10
0.0
 20
0.0
  9
$LIMMAX
 10
12.0
 20
9.0
  9
$ORTHOMODE
 70
     0
  9
$REGENMODE
 70
     1
  9
$FILLMODE
 70
     1
  9
$QTEXTMODE
 70
     0
  9
$MIRRTEXT
 70
     1
  9
$LTSCALE
 40
1.0
  9
$ATTMODE
 70
     1
  9
$TEXTSIZE
 40
0.2
  9
$TRACEWID
 40
0.05
  9
$TEXTSTYLE
  7
Standard
  9
$CLAYER
  8
0
  9
$CELTYPE
  6
ByLayer
  9
$CECOLOR
 62
   256
  9
$CELTSCALE
 40
1.0
  9
$DISPSILH
 70
     0
  9
$DIMSCALE
 40
1.0
  9
$DIMASZ
 40
0.18
  9
$DIMEXO
 40
0.0625
  9
$DIMDLI
 40
0.38
  9
$DIMRND
 40
0.0
  9
$DIMDLE
 40
0.0
  9
$DIMEXE
 40
0.18
  9
$DIMTP
 40
0.0
  9
$DIMTM
 40
0.0
  9
$DIMTXT
 40
0.18
  9
$DIMCEN
 40
0.09
  9
$DIMTSZ
 40
0.0
  9
$DIMTOL
 70
     0
  9
$DIMLIM
 70
     0
  9
$DIMTIH
 70
     1
  9
$DIMTOH
 70
     1
  9
$DIMSE1
 70
     0
  9
$DIMSE2
 70
     0
  9
$DIMTAD
 70
     0
  9
$DIMZIN
 70
     0
  9
$DIMBLK
  1

  9
$DIMASO
 70
     1
  9
$DIMSHO
 70
     1
  9
$DIMPOST
  1

  9
$DIMAPOST
  1

  9
$DIMALT
 70
     0
  9
$DIMALTD
 70
     2
  9
$DIMALTF
 40
25.4
  9
$DIMLFAC
 40
1.0
  9
$DIMTOFL
 70
     0
  9
$DIMTVP
 40
0.0
  9
$DIMTIX
 70
     0
  9
$DIMSOXD
 70
     0
  9
$DIMSAH
 70
     0
  9
$DIMBLK1
  1

  9
$DIMBLK2
  1

  9
$DIMSTYLE
  2
Standard
  9
$DIMCLRD
 70
     0
  9
$DIMCLRE
 70
     0
  9
$DIMCLRT
 70
     0
  9
$DIMTFAC
 40
1.0
  9
$DIMGAP
 40
0.09
  9
$DIMJUST
 70
     0
  9
$DIMSD1
 70
     0
  9
$DIMSD2
 70
     0
  9
$DIMTOLJ
 70
     1
  9
$DIMTZIN
 70
     0
  9
$DIMALTZ
 70
     0
  9
$DIMALTTZ
 70
     0
  9
$DIMUPT
 70
     0
  9
$DIMDEC
 70
     4
  9
$DIMTDEC
 70
     4
  9
$DIMALTU
 70
     2
  9
$DIMALTTD
 70
     2
  9
$DIMTXSTY
  7
Standard
  9
$DIMAUNIT
 70
     0
  9
$DIMADEC
 70
     0
  9
$DIMALTRND
 40
0.0
  9
$DIMAZIN
 70
     0
  9
$DIMDSEP
 70
    46
  9
$DIMATFIT
 70
     3
  9
$DIMFRAC
 70
     0
  9
$DIMLDRBLK
  1

  9
$DIMLUNIT
 70
     2
  9
$DIMLWD
 70
    -2
  9
$DIMLWE
 70
    -2
  9
$DIMTMOVE
 70
     0
  9
$DIMFXL
 40
1.0
  9
$DIMFXLON
 70
     0
  9
$DIMJOGANG
 40
0.7853981633974483
  9
$DIMTFILL
 70
     0
  9
$DIMTFILLCLR
 70
     0
  9
$DIMARCSYM
 70
     0
  9
$DIMLTYPE
  6

  9
$DIMLTEX1
  6

  9
$DIMLTEX2
  6

  9
$DIMTXTDIRECTION
 70
     0
  9
$LUNITS
 70
     2
  9
$LUPREC
 70
     4
  9
$SKETCHINC
 40
0.1
  9
$FILLETRAD
 40
0.5
  9
$AUNITS
 70
     0
  9
$AUPREC
 70
     0
  9
$MENU
  1
.
  9
$ELEVATION
 40
0.0
  9
$PELEVATION
 40
0.0
  9
$THICKNESS
 40
0.0
  9
$LIMCHECK
 70
     0
  9
$CHAMFERA
 40
0.5
  9
$CHAMFERB
 40
0.5
  9
$CHAMFERC
 40
1.0
  9
$CHAMFERD
 40
0.0
  9
$SKPOLY
 70
     0
  9
$TDCREATE
 40
2458095.406087951
  9
$TDUCREATE
 40
2458095.614421296
  9
$TDUPDATE
 40
2458095.406087951
  9
$TDUUPDATE
 40
2458095.614421296
  9
$TDINDWG
 40
0.0000000116
  9
$TDUSRTIMER
 40
0.0000000116
  9
$USRTIMER
 70
     1
  9
$ANGBASE
 50
0.0
  9
$ANGDIR
 70
     0
  9
$PDMODE
 70
     0
  9
$PDSIZE
 40
0.0
  9
$PLINEWID
 40
0.0
  9
$SPLFRAME
 70
     0
  9
$SPLINETYPE
 70
     6
  9
$SPLINESEGS
 70
     8
  9
$HANDSEED
  5
86
  9
$SURFTAB1
 70
     6
  9
$SURFTAB2
 70
     6
  9
$SURFTYPE
 70
     6
  9
$SURFU
 70
     6
  9
$SURFV
 70
     6
  9
$UCSBASE
  2

  9
$UCSNAME
  2

  9
$UCSORG
 10
0.0
 20
0.0
 30
0.0
  9
$UCSXDIR
 10
1.0
 20
0.0
 30
0.0
  9
$UCSYDIR
 10
0.0
 20
1.0
 30
0.0
  9
$UCSORTHOREF
  2

  9
$UCSORTHOVIEW
 70
     0
  9
$UCSORGTOP
 10
0.0
 20
0.0
 30
0.0
  9
$UCSORGBOTTOM
 10
0.0
 20
0.0
 30
0.0
  9
$UCSORGLEFT
 10
0.0
 20
0.0
 30
0.0
  9
$UCSORGRIGHT
 10
0.0
 20
0.0
 30
0.0
  9
$UCSORGFRONT
 10
0.0
 20
0.0
 30
0.0
  9
$UCSORGBACK
 10
0.0
 20
0.0
 30
0.0
  9
$PUCSBASE
  2

  9
$PUCSNAME
  2

  9
$PUCSORG
 10
0.0
 20
0.0
 30
0.0
  9
$PUCSXDIR
 10
1.0
 20
0.0
 30
0.0
  9
$PUCSYDIR
 10
0.0
 20
1.0
 30
0.0
  9
$PUCSORTHOREF
  2

  9
$PUCSORTHOVIEW
 70
     0
  9
$PUCSORGTOP
 10
0.0
 20
0.0
 30
0.0
  9
$PUCSORGBOTTOM
 10
0.0
 20
0.0
 30
0.0
  9
$PUCSORGLEFT
 10
0.0
 20
0.0
 30
0.0
  9
$PUCSORGRIGHT
 10
0.0
 20
0.0
 30
0.0
  9
$PUCSORGFRONT
 10
0.0
 20
0.0
 30
0.0
  9
$PUCSORGBACK
 10
0.0
 20
0.0
 30
0.0
  9
$USERI1
 70
     0
  9
$USERI2
 70
     0
  9
$USERI3
 70
     0
  9
$USERI4
 70
     0
  9
$USERI5
 70
     0
  9
$USERR1
 40
0.0
  9
$USERR2
 40
0.0
  9
$USERR3
 40
0.0
  9
$USERR4
 40
0.0
  9
$USERR5
 40
0.0
  9
$WORLDVIEW
 70
     1
  9
$SHADEDGE
 70
     3
  9
$SHADEDIF
 70
    70
  9
$TILEMODE
 70
     1
  9
$MAXACTVP
 70
    64
  9
$PINSBASE
 10
0.0
 20
0.0
 30
0.0
  9
$PLIMCHECK
 70
     0
  9
$PEXTMIN
 10
1.000000000000000E+20
 20
1.000000000000000E+20
 30
1.000000000000000E+20
  9
$PEXTMAX
 10
-1.000000000000000E+20
 20
-1.000000000000000E+20
 30
-1.000000000000000E+20
  9
$PLIMMIN
 10
0.0
 20
0.0
  9
$PLIMMAX
 10
12.0
 20
9.0
  9
$UNITMODE
 70
     0
  9
$VISRETAIN
 70
     1
  9
$PLINEGEN
 70
     0
  9
$PSLTSCALE
 70
     1
  9
$TREEDEPTH
 70
  3020
  9
$CMLSTYLE
  2
Standard
  9
$CMLJUST
 70
     0
  9
$CMLSCALE
 40
1.0
  9
$PROXYGRAPHICS
 70
     1
  9
$MEASUREMENT
 70
     0
  9
$CELWEIGHT
370
    -1
  9
$ENDCAPS
280
     0
  9
$JOINSTYLE
280
     0
  9
$LWDISPLAY
290
     1
  9
$INSUNITS
 70
     1
  9
$HYPERLINKBASE
  1

  9
$STYLESHEET
  1

  9
$XEDIT
290
     1
  9
$CEPSNTYPE
380
     0
  9
$PSTYLEMODE
290
     1
  9
$FINGERPRINTGUID
  2
{1AD60920-5C32-F2C7-AEDB-E82FE3484C1C}
  9
$VERSIONGUID
  2
{FAEB1C32-E019-11D5-929B-00C0DF256EC4}
  9
$EXTNAMES
290
     1
  9
$PSVPSCALE
 40
0.0
  9
$OLESTARTUP
290
     0
  9
$SORTENTS
280
   127
  9
$INDEXCTL
280
     0
  9
$HIDETEXT
280
     1
  9
$XCLIPFRAME
280
     2
  9
$HALOGAP
280
     0
  9
$OBSCOLOR
 70
   257
  9
$OBSLTYPE
280
     0
  9
$INTERSECTIONDISPLAY
280
     0
  9
$INTERSECTIONCOLOR
 70
   257
  9
$DIMASSOC
280
     2
  9
$PROJECTNAME
  1

  9
$CAMERADISPLAY
290
     0
  9
$LENSLENGTH
 40
50.0
  9
$CAMERAHEIGHT
 40
0.0
  9
$STEPSPERSEC
 40
2.0
  9
$STEPSIZE
 40
6.0
  9
$3DDWFPREC
 40
2.0
  9
$PSOLWIDTH
 40
0.25
  9
$PSOLHEIGHT
 40
4.0
  9
$LOFTANG1
 40
1.570796326794897
  9
$LOFTANG2
 40
1.570796326794897
  9
$LOFTMAG1
 40
0.0
  9
$LOFTMAG2
 40
0.0
  9
$LOFTPARAM
 70
     7
  9
$LOFTNORMALS
280
     1
  9
$LATITUDE
 40
37.795
  9
$LONGITUDE
 40
-122.394
  9
$NORTHDIRECTION
 40
0.0
  9
$TIMEZONE
 70
 -8000
  9
$LIGHTGLYPHDISPLAY
280
     1
  9
$TILEMODELIGHTSYNCH
280
     1
  9
$CMATERIAL
347
3C
  9
$SOLIDHIST
280
     1
  9
$SHOWHIST
280
     1
  9
$DWFFRAME
280
     2
  9
$DGNFRAME
280
     2
  9
$REALWORLDSCALE
290
     1
  9
$INTERFERECOLOR
 62
   256
  9
$CSHADOW
280
     0
  9
$SHADOWPLANELOCATION
 40
0.0
  0
ENDSEC
  0
SECTION
  2
CLASSES
  0
CLASS
  1
ACDBDICTIONARYWDFLT
  2
AcDbDictionaryWithDefault
  3
ObjectDBX Classes
 90
        0
 91
        4
280
     0
281
     0
  0
CLASS
  1
VISUALSTYLE
  2
AcDbVisualStyle
  3
ObjectDBX Classes
 90
     4095
 91
        4
280
     0
281
     0
  0
CLASS
  1
MATERIAL
  2
AcDbMaterial
  3
ObjectDBX Classes
 90
     1153
 91
        4
280
     0
281
     0
  0
CLASS
  1
SUN
  2
AcDbSun
  3
SCENEOE
 90
     1024
 91
        4
280
     0
281
     0
  0
ENDSEC
  0
SECTION
  2
TABLES
  0
TABLE
  2
VPORT
  5
8
330
0
100
AcDbSymbolTable
 70
     1
  0
VPORT
  5
29
330
8
100
AcDbSymbolTableRecord
100
AcDbViewportTableRecord
  2
*Active
 70
     0
 10
0.0
 20
0.0
 11
1.0
 21
1.0
 12
0.0
 22
0.0
 13
0.0
 23
0.0
 14
0.5
 24
0.5
 15
0.5
 25
0.5
 16
0.0
 26
0.0
 36
1.0
 17
3.0
 27
3.0
 37
0.0
 40
6.0
 41
1.0
 42
50.0
 43
0.0
 44
0.0
 50
0.0
 51
0.0
 71
     0
 72
   100
 73
     1
 74
     3
 75
     0
 76
     0
 77
     0
 78
     0
281
     0
 65
     1
110
0.0
120
0.0
130
0.0
111
1.0
121
0.0
131
0.0
112
0.0
122
1.0
132
0.0
 79
     0
146
0.0
 60
     3
 61
     5
292
     1
282
     1
141
0.0
142
0.0
 63
   250
361
3F
  0
ENDTAB
  0
TABLE
  2
LTYPE
  5
5
330
0
100
AcDbSymbolTable
 70
     1
  0
LTYPE
  5
14
330
5
100
AcDbSymbolTableRecord
100
AcDbLinetypeTableRecord
  2
ByBlock
 70
     0
  3

 72
    65
 73
     0
 40
0.0
  0
LTYPE
  5
15
330
5
100
AcDbSymbolTableRecord
100
AcDbLinetypeTableRecord
  2
ByLayer
 70
     0
  3

 72
    65
 73
     0
 40
0.0
  0
LTYPE
  5
16
330
5
100
AcDbSymbolTableRecord
100
AcDbLinetypeTableRecord
  2
Continuous
 70
     0
  3
Solid line
 72
    65
 73
     0
 40
0.0
  0
ENDTAB
  0
TABLE
  2
LAYER
  5
2
330
0
100
AcDbSymbolTable
 70
     2
  0
LAYER
  5
10
330
2
100
AcDbSymbolTableRecord
100
AcDbLayerTableRecord
  2
0
 70
     0
 62
     7
  6
Continuous
370
    -3
390
F
347
3E
  0
LAYER
  5
40
330
2
100
AcDbSymbolTableRecord
100
AcDbLayerTableRecord
  2
Calque 1
 70
     0
 62
     7
  6
Continuous
370
    -3
390
F
347
3E
  0
ENDTAB
  0
TABLE
  2
STYLE
  5
3
330
0
100
AcDbSymbolTable
 70
     1
  0
STYLE
  5
11
330
3
100
AcDbSymbolTableRecord
100
AcDbTextStyleTableRecord
  2
Standard
 70
     0
 40
0.0
 41
1.0
 50
0.0
 71
     0
 42
0.2
  3
txt
  4

  0
ENDTAB
  0
TABLE
  2
VIEW
  5
6
330
0
100
AcDbSymbolTable
 70
     0
  0
ENDTAB
  0
TABLE
  2
UCS
  5
7
330
0
100
AcDbSymbolTable
 70
     0
  0
ENDTAB
  0
TABLE
  2
APPID
  5
9
330
0
100
AcDbSymbolTable
 70
     1
  0
APPID
  5
12
330
9
100
AcDbSymbolTableRecord
100
AcDbRegAppTableRecord
  2
ACAD
 70
     0
  0
ENDTAB
  0
TABLE
  2
DIMSTYLE
  5
A
330
0
100
AcDbSymbolTable
 70
     1
100
AcDbDimStyleTable
  0
DIMSTYLE
105
27
330
A
100
AcDbSymbolTableRecord
100
AcDbDimStyleTableRecord
  2
Standard
 70
     0
178
     0
340
11
  0
ENDTAB
  0
TABLE
  2
BLOCK_RECORD
  5
1
330
0
100
AcDbSymbolTable
 70
    10
  0
BLOCK_RECORD
  5
1F
330
1
100
AcDbSymbolTableRecord
100
AcDbBlockTableRecord
  2
*Model_Space
340
22
 70
     0
280
     1
281
     0
  0
BLOCK_RECORD
  5
1B
330
1
100
AcDbSymbolTableRecord
100
AcDbBlockTableRecord
  2
*Paper_Space
340
1E
 70
     0
280
     1
281
     0
  0
BLOCK_RECORD
  5
23
330
1
100
AcDbSymbolTableRecord
100
AcDbBlockTableRecord
  2
*Paper_Space0
340
26
 70
     0
280
     1
281
     0
  0
BLOCK_RECORD
  5
41
330
1
100
AcDbSymbolTableRecord
100
AcDbBlockTableRecord
  2
block 2
340
0
102
{BLKREFS
331
42
102
}
 70
     0
280
     1
281
     0
  0
BLOCK_RECORD
  5
45
330
1
100
AcDbSymbolTableRecord
100
AcDbBlockTableRecord
  2
block 3
340
0
102
{BLKREFS
331
46
102
}
 70
     0
280
     1
281
     0
  0
BLOCK_RECORD
  5
49
330
1
100
AcDbSymbolTableRecord
100
AcDbBlockTableRecord
  2
block 4
340
0
102
{BLKREFS
331
4A
102
}
 70
     0
280
     1
281
     0
  0
BLOCK_RECORD
  5
53
330
1
100
AcDbSymbolTableRecord
100
AcDbBlockTableRecord
  2
block 5
340
0
102
{BLKREFS
331
54
102
}
 70
     0
280
     1
281
     0
  0
BLOCK_RECORD
  5
5A
330
1
100
AcDbSymbolTableRecord
100
AcDbBlockTableRecord
  2
block 6
340
0
102
{BLKREFS
331
5B
102
}
 70
     0
280
     1
281
     0
  0
BLOCK_RECORD
  5
64
330
1
100
AcDbSymbolTableRecord
100
AcDbBlockTableRecord
  2
block 7
340
0
102
{BLKREFS
331
65
102
}
 70
     0
280
     1
281
     0
  0
BLOCK_RECORD
  5
6B
330
1
100
AcDbSymbolTableRecord
100
AcDbBlockTableRecord
  2
block 8
340
0
102
{BLKREFS
331
6C
102
}
 70
     0
280
     1
281
     0
  0
BLOCK_RECORD
  5
75
330
1
100
AcDbSymbolTableRecord
100
AcDbBlockTableRecord
  2
block 9
340
0
102
{BLKREFS
331
76
102
}
 70
     0
280
     1
281
     0
  0
BLOCK_RECORD
  5
7C
330
1
100
AcDbSymbolTableRecord
100
AcDbBlockTableRecord
  2
block 10
340
0
102
{BLKREFS
331
7D
102
}
 70
     0
280
     1
281
     0
  0
ENDTAB
  0
ENDSEC
  0
SECTION
  2
BLOCKS
  0
BLOCK
  5
20
330
1F
100
AcDbEntity
  8
0
100
AcDbBlockBegin
  2
*Model_Space
 70
     0
 10
0.0
 20
0.0
 30
0.0
  3
*Model_Space
  1

  0
ENDBLK
  5
21
330
1F
100
AcDbEntity
  8
0
100
AcDbBlockEnd
  0
BLOCK
  5
1C
330
1B
100
AcDbEntity
 67
     1
  8
0
100
AcDbBlockBegin
  2
*Paper_Space
 70
     0
 10
0.0
 20
0.0
 30
0.0
  3
*Paper_Space
  1

  0
ENDBLK
  5
1D
330
1B
100
AcDbEntity
 67
     1
  8
0
100
AcDbBlockEnd
  0
BLOCK
  5
24
330
23
100
AcDbEntity
  8
0
100
AcDbBlockBegin
  2
*Paper_Space0
 70
     0
 10
0.0
 20
0.0
 30
0.0
  3
*Paper_Space0
  1

  0
ENDBLK
  5
25
330
23
100
AcDbEntity
  8
0
100
AcDbBlockEnd
  0
BLOCK
  5
43
330
41
100
AcDbEntity
  8
0
100
AcDbBlockBegin
  2
block 2
 70
     0
 10
0.0
 20
0.0
 30
0.0
  3
block 2
  1

  0
INSERT
  5
46
330
41
100
AcDbEntity
  8
Calque 1
100
AcDbBlockReference
  2
block 3
 10
0.0
 20
0.0
 30
0.0
  0
INSERT
  5
7D
330
41
100
AcDbEntity
  8
Calque 1
100
AcDbBlockReference
  2
block 10
 10
0.0
 20
0.0
 30
0.0
  0
ENDBLK
  5
44
330
41
100
AcDbEntity
  8
0
100
AcDbBlockEnd
  0
BLOCK
  5
47
330
45
100
AcDbEntity
  8
0
100
AcDbBlockBegin
  2
block 3
 70
     0
 10
0.0
 20
0.0
 30
0.0
  3
block 3
  1

  0
INSERT
  5
4A
330
45
100
AcDbEntity
  8
Calque 1
100
AcDbBlockReference
  2
block 4
 10
0.0
 20
0.0
 30
0.0
  0
INSERT
  5
5B
330
45
100
AcDbEntity
  8
Calque 1
100
AcDbBlockReference
  2
block 6
 10
0.0
 20
0.0
 30
0.0
  0
INSERT
  5
6C
330
45
100
AcDbEntity
  8
Calque 1
100
AcDbBlockReference
  2
block 8
 10
0.0
 20
0.0
 30
0.0
  0
ENDBLK
  5
48
330
45
100
AcDbEntity
  8
0
100
AcDbBlockEnd
  0
BLOCK
  5
4B
330
49
100
AcDbEntity
  8
0
100
AcDbBlockBegin
  2
block 4
 70
     0
 10
0.0
 20
0.0
 30
0.0
  3
block 4
  1

  0
SPLINE
  5
4D
330
49
100
AcDbEntity
  8
Calque 1
370
     0
100
AcDbSpline
210
0.0
220
0.0
230
1.0
 70
    11
 71
     3
 72
    14
 73
    10
 74
     0
 42
0.0000000001
 43
0.0000000001
 12
1.0
 22
0.0
 32
0.0
 13
1.0
 23
0.0
 33
0.0
 40
0.0
 40
0.0
 40
0.0
 40
0.0
 40
1.0
 40
1.0
 40
1.0
 40
2.0
 40
2.0
 40
2.0
 40
3.0
 40
3.0
 40
3.0
 40
3.0
 10
3.037499957614475
 20
4.741666687859429
 30
0.0
 10
3.037499957614475
 20
4.741666687859429
 30
0.0
 10
2.823611153496636
 20
4.656944486829969
 30
0.0
 10
2.823611153496636
 20
4.620833396911621
 30
0.0
 10
2.823611153496636
 20
4.584722306993272
 30
0.0
 10
3.052777820163303
 20
4.519444465637207
 30
0.0
 10
3.052777820163303
 20
4.519444465637207
 30
0.0
 10
3.052777820163303
 20
4.519444465637207
 30
0.0
 10
3.037499957614475
 20
4.741666687859429
 30
0.0
 10
3.037499957614475
 20
4.741666687859429
 30
0.0
  0
HATCH
  5
4E
330
49
100
AcDbEntity
  8
Calque 1
 62
    40
420
 16494651
100
AcDbHatch
 10
0.0
 20
0.0
 30
0.0
210
0.0
220
0.0
230
1.0
  2
SOLID
 70
     1
 71
     0
 91
        1
 92
        1
 93
        1
 72
     4
 94
        3
 73
     0
 74
     1
 95
       14
 96
       10
 40
0.0
 40
0.0
 40
0.0
 40
0.0
 40
1.0
 40
1.0
 40
1.0
 40
2.0
 40
2.0
 40
2.0
 40
3.0
 40
3.0
 40
3.0
 40
3.0
 10
3.037499957614475
 20
4.741666687859429
 10
3.037499957614475
 20
4.741666687859429
 10
2.823611153496636
 20
4.656944486829969
 10
2.823611153496636
 20
4.620833396911621
 10
2.823611153496636
 20
4.584722306993272
 10
3.052777820163303
 20
4.519444465637207
 10
3.052777820163303
 20
4.519444465637207
 10
3.052777820163303
 20
4.519444465637207
 10
3.037499957614475
 20
4.741666687859429
 10
3.037499957614475
 20
4.741666687859429
 97
        0
 97
        0
 75
     2
 76
     1
 98
        0
  0
SPLINE
  5
4F
330
49
100
AcDbEntity
  8
Calque 1
370
     0
100
AcDbSpline
210
0.0
220
0.0
230
1.0
 70
    11
 71
     3
 72
    32
 73
    28
 74
     0
 42
0.0000000001
 43
0.0000000001
 12
1.0
 22
0.0
 32
0.0
 13
1.0
 23
0.0
 33
0.0
 40
0.0
 40
0.0
 40
0.0
 40
0.0
 40
1.0
 40
1.0
 40
1.0
 40
2.0
 40
2.0
 40
2.0
 40
3.0
 40
3.0
 40
3.0
 40
4.0
 40
4.0
 40
4.0
 40
5.0
 40
5.0
 40
5.0
 40
6.0
 40
6.0
 40
6.0
 40
7.0
 40
7.0
 40
7.0
 40
8.0
 40
8.0
 40
8.0
 40
9.0
 40
9.0
 40
9.0
 40
9.0
 10
3.029166751437717
 20
4.469444486829969
 30
0.0
 10
2.92500008477105
 20
4.777777777777778
 30
0.0
 10
3.063888973659939
 20
5.100000063578287
 30
0.0
 10
3.359722349378798
 20
5.100000063578287
 30
0.0
 10
3.655555725097656
 20
5.100000063578287
 30
0.0
 10
3.825000339084201
 20
5.029166751437717
 30
0.0
 10
3.894444783528646
 20
4.823611153496636
 30
0.0
 10
3.96388922797309
 20
4.618055555555555
 30
0.0
 10
3.952778286404079
 20
4.366666687859429
 30
0.0
 10
4.147222730848524
 20
4.288888931274414
 30
0.0
 10
4.341667175292969
 20
4.212500042385525
 30
0.0
 10
4.394444783528646
 20
4.281944486829969
 30
0.0
 10
4.444444868299696
 20
4.305555555555555
 30
0.0
 10
4.494444953070746
 20
4.329166624281141
 30
0.0
 10
4.598611619737413
 20
4.188888973659939
 30
0.0
 10
4.405556148952908
 20
4.14305559794108
 30
0.0
 10
4.505556318495008
 20
4.036111195882161
 30
0.0
 10
4.419445037841797
 20
3.984722349378798
 30
0.0
 10
4.331945207383898
 20
3.993055555555555
 30
0.0
 10
4.406945122612847
 20
3.847222222222222
 30
0.0
 10
4.226389567057291
 20
3.726388931274414
 30
0.0
 10
4.088889651828342
 20
3.92500008477105
 30
0.0
 10
3.750000847710503
 20
3.798611111111111
 30
0.0
 10
3.434722900390625
 20
3.829166836208767
 30
0.0
 10
3.195834053887261
 20
4.027777777777778
 30
0.0
 10
2.956945207383897
 20
4.226388719346788
 30
0.0
 10
3.029166751437717
 20
4.469444486829969
 30
0.0
 10
3.029166751437717
 20
4.469444486829969
 30
0.0
  0
HATCH
  5
50
330
49
100
AcDbEntity
  8
Calque 1
 62
    31
420
 16757426
100
AcDbHatch
 10
0.0
 20
0.0
 30
0.0
210
0.0
220
0.0
230
1.0
  2
SOLID
 70
     1
 71
     0
 91
        1
 92
        1
 93
        1
 72
     4
 94
        3
 73
     0
 74
     1
 95
       32
 96
       28
 40
0.0
 40
0.0
 40
0.0
 40
0.0
 40
1.0
 40
1.0
 40
1.0
 40
2.0
 40
2.0
 40
2.0
 40
3.0
 40
3.0
 40
3.0
 40
4.0
 40
4.0
 40
4.0
 40
5.0
 40
5.0
 40
5.0
 40
6.0
 40
6.0
 40
6.0
 40
7.0
 40
7.0
 40
7.0
 40
8.0
 40
8.0
 40
8.0
 40
9.0
 40
9.0
 40
9.0
 40
9.0
 10
3.029166751437717
 20
4.469444486829969
 10
2.92500008477105
 20
4.777777777777778
 10
3.063888973659939
 20
5.100000063578287
 10
3.359722349378798
 20
5.100000063578287
 10
3.655555725097656
 20
5.100000063578287
 10
3.825000339084201
 20
5.029166751437717
 10
3.894444783528646
 20
4.823611153496636
 10
3.96388922797309
 20
4.618055555555555
 10
3.952778286404079
 20
4.366666687859429
 10
4.147222730848524
 20
4.288888931274414
 10
4.341667175292969
 20
4.212500042385525
 10
4.394444783528646
 20
4.281944486829969
 10
4.444444868299696
 20
4.305555555555555
 10
4.494444953070746
 20
4.329166624281141
 10
4.598611619737413
 20
4.188888973659939
 10
4.405556148952908
 20
4.14305559794108
 10
4.505556318495008
 20
4.036111195882161
 10
4.419445037841797
 20
3.984722349378798
 10
4.331945207383898
 20
3.993055555555555
 10
4.406945122612847
 20
3.847222222222222
 10
4.226389567057291
 20
3.726388931274414
 10
4.088889651828342
 20
3.92500008477105
 10
3.750000847710503
 20
3.798611111111111
 10
3.434722900390625
 20
3.829166836208767
 10
3.195834053887261
 20
4.027777777777778
 10
2.956945207383897
 20
4.226388719346788
 10
3.029166751437717
 20
4.469444486829969
 10
3.029166751437717
 20
4.469444486829969
 97
        0
 97
        0
 75
     2
 76
     1
 98
        0
  0
SPLINE
  5
51
330
49
100
AcDbEntity
  8
Calque 1
370
     0
100
AcDbSpline
210
0.0
220
0.0
230
1.0
 70
    11
 71
     3
 72
    17
 73
    13
 74
     0
 42
0.0000000001
 43
0.0000000001
 12
1.0
 22
0.0
 32
0.0
 13
1.0
 23
0.0
 33
0.0
 40
0.0
 40
0.0
 40
0.0
 40
0.0
 40
1.0
 40
1.0
 40
1.0
 40
2.0
 40
2.0
 40
2.0
 40
3.0
 40
3.0
 40
3.0
 40
4.0
 40
4.0
 40
4.0
 40
4.0
 10
3.397222306993272
 20
4.295833375718859
 30
0.0
 10
3.3500001695421
 20
4.538888931274414
 30
0.0
 10
3.509722391764323
 20
4.579166730244954
 30
0.0
 10
3.591666751437717
 20
4.586111174689399
 30
0.0
 10
3.673611111111111
 20
4.594444486829969
 30
0.0
 10
4.086111280653212
 20
4.658333354526095
 30
0.0
 10
4.120833502875434
 20
4.616666687859429
 30
0.0
 10
4.155555725097656
 20
4.573611153496636
 30
0.0
 10
3.865278032090929
 20
4.197222179836697
 30
0.0
 10
3.679167005750868
 20
4.168055640326606
 30
0.0
 10
3.493055979410807
 20
4.138889100816515
 30
0.0
 10
3.412499957614475
 20
4.213888804117838
 30
0.0
 10
3.397222306993272
 20
4.295833375718859
 30
0.0
  0
HATCH
  5
52
330
49
100
AcDbEntity
  8
Calque 1
 62
    14
420
 10946568
100
AcDbHatch
 10
0.0
 20
0.0
 30
0.0
210
0.0
220
0.0
230
1.0
  2
SOLID
 70
     1
 71
     0
 91
        1
 92
        1
 93
        1
 72
     4
 94
        3
 73
     0
 74
     1
 95
       17
 96
       13
 40
0.0
 40
0.0
 40
0.0
 40
0.0
 40
1.0
 40
1.0
 40
1.0
 40
2.0
 40
2.0
 40
2.0
 40
3.0
 40
3.0
 40
3.0
 40
4.0
 40
4.0
 40
4.0
 40
4.0
 10
3.397222306993272
 20
4.295833375718859
 10
3.3500001695421
 20
4.538888931274414
 10
3.509722391764323
 20
4.579166730244954
 10
3.591666751437717
 20
4.586111174689399
 10
3.673611111111111
 20
4.594444486829969
 10
4.086111280653212
 20
4.658333354526095
 10
4.120833502875434
 20
4.616666687859429
 10
4.155555725097656
 20
4.573611153496636
 10
3.865278032090929
 20
4.197222179836697
 10
3.679167005750868
 20
4.168055640326606
 10
3.493055979410807
 20
4.138889100816515
 10
3.412499957614475
 20
4.213888804117838
 10
3.397222306993272
 20
4.295833375718859
 97
        0
 97
        0
 75
     2
 76
     1
 98
        0
  0
INSERT
  5
54
330
49
100
AcDbEntity
  8
Calque 1
100
AcDbBlockReference
  2
block 5
 10
0.0
 20
0.0
 30
0.0
  0
ENDBLK
  5
4C
330
49
100
AcDbEntity
  8
0
100
AcDbBlockEnd
  0
BLOCK
  5
55
330
53
100
AcDbEntity
  8
0
100
AcDbBlockBegin
  2
block 5
 70
     0
 10
0.0
 20
0.0
 30
0.0
  3
block 5
  1

  0
SPLINE
  5
57
330
53
100
AcDbEntity
  8
Calque 1
370
     0
100
AcDbSpline
210
0.0
220
0.0
230
1.0
 70
    11
 71
     3
 72
    17
 73
    13
 74
     0
 42
0.0000000001
 43
0.0000000001
 12
1.0
 22
0.0
 32
0.0
 13
1.0
 23
0.0
 33
0.0
 40
0.0
 40
0.0
 40
0.0
 40
0.0
 40
1.0
 40
1.0
 40
1.0
 40
2.0
 40
2.0
 40
2.0
 40
3.0
 40
3.0
 40
3.0
 40
4.0
 40
4.0
 40
4.0
 40
4.0
 10
3.288888931274414
 20
4.963888804117838
 30
0.0
 10
3.37096447414822
 20
4.963888804117838
 30
0.0
 10
3.4375
 20
4.897353384229872
 30
0.0
 10
3.4375
 20
4.815277735392252
 30
0.0
 10
3.4375
 20
4.733202086554633
 30
0.0
 10
3.37096447414822
 20
4.666666666666666
 30
0.0
 10
3.288888931274414
 20
4.666666666666666
 30
0.0
 10
3.206813388400608
 20
4.666666666666666
 30
0.0
 10
3.140277862548828
 20
4.733202086554633
 30
0.0
 10
3.140277862548828
 20
4.815277735392252
 30
0.0
 10
3.140277862548828
 20
4.897353384229872
 30
0.0
 10
3.206813388400608
 20
4.963888804117838
 30
0.0
 10
3.288888931274414
 20
4.963888804117838
 30
0.0
  0
SPLINE
  5
58
330
53
100
AcDbEntity
  8
Calque 1
370
     0
100
AcDbSpline
210
0.0
220
0.0
230
1.0
 70
    11
 71
     3
 72
    29
 73
    25
 74
     0
 42
0.0000000001
 43
0.0000000001
 12
1.0
 22
0.0
 32
0.0
 13
1.0
 23
0.0
 33
0.0
 40
0.0
 40
0.0
 40
0.0
 40
0.0
 40
1.0
 40
1.0
 40
1.0
 40
2.0
 40
2.0
 40
2.0
 40
3.0
 40
3.0
 40
3.0
 40
4.0
 40
4.0
 40
4.0
 40
5.0
 40
5.0
 40
5.0
 40
6.0
 40
6.0
 40
6.0
 40
7.0
 40
7.0
 40
7.0
 40
8.0
 40
8.0
 40
8.0
 40
8.0
 10
3.394444359673394
 20
4.815277735392252
 30
0.0
 10
3.394444359673394
 20
4.756944444444444
 30
0.0
 10
3.347222222222222
 20
4.711111068725586
 30
0.0
 10
3.290277693006727
 20
4.711111068725586
 30
0.0
 10
3.231944402058919
 20
4.711111068725586
 30
0.0
 10
3.186111026340061
 20
4.758333312140571
 30
0.0
 10
3.186111026340061
 20
4.815277735392252
 30
0.0
 10
3.186111026340061
 20
4.861111111111111
 30
0.0
 10
3.215277777777778
 20
4.899999936421712
 30
0.0
 10
3.256944444444444
 20
4.913888825310601
 30
0.0
 10
3.247222264607747
 20
4.901388804117838
 30
0.0
 10
3.240277820163303
 20
4.886111047532823
 30
0.0
 10
3.240277820163303
 20
4.869444423251681
 30
0.0
 10
3.240277820163303
 20
4.830555491977267
 30
0.0
 10
3.270833333333333
 20
4.799999978807237
 30
0.0
 10
3.309722264607747
 20
4.799999978807237
 30
0.0
 10
3.348611195882161
 20
4.799999978807237
 30
0.0
 10
3.379166709052192
 20
4.830555491977267
 30
0.0
 10
3.379166709052192
 20
4.869444423251681
 30
0.0
 10
3.379166709052192
 20
4.869444423251681
 30
0.0
 10
3.379166709052192
 20
4.870833290947808
 30
0.0
 10
3.379166709052192
 20
4.870833290947808
 30
0.0
 10
3.388888888888889
 20
4.854166666666666
 30
0.0
 10
3.394444359673394
 20
4.836111068725586
 30
0.0
 10
3.394444359673394
 20
4.815277735392252
 30
0.0
  0
HATCH
  5
59
330
53
100
AcDbEntity
  8
Calque 1
 62
   250
420
  2763307
100
AcDbHatch
 10
0.0
 20
0.0
 30
0.0
210
0.0
220
0.0
230
1.0
  2
SOLID
 70
     1
 71
     0
 91
        1
 92
        1
 93
        1
 72
     4
 94
        3
 73
     0
 74
     1
 95
       29
 96
       25
 40
0.0
 40
0.0
 40
0.0
 40
0.0
 40
1.0
 40
1.0
 40
1.0
 40
2.0
 40
2.0
 40
2.0
 40
3.0
 40
3.0
 40
3.0
 40
4.0
 40
4.0
 40
4.0
 40
5.0
 40
5.0
 40
5.0
 40
6.0
 40
6.0
 40
6.0
 40
7.0
 40
7.0
 40
7.0
 40
8.0
 40
8.0
 40
8.0
 40
8.0
 10
3.394444359673394
 20
4.815277735392252
 10
3.394444359673394
 20
4.756944444444444
 10
3.347222222222222
 20
4.711111068725586
 10
3.290277693006727
 20
4.711111068725586
 10
3.231944402058919
 20
4.711111068725586
 10
3.186111026340061
 20
4.758333312140571
 10
3.186111026340061
 20
4.815277735392252
 10
3.186111026340061
 20
4.861111111111111
 10
3.215277777777778
 20
4.899999936421712
 10
3.256944444444444
 20
4.913888825310601
 10
3.247222264607747
 20
4.901388804117838
 10
3.240277820163303
 20
4.886111047532823
 10
3.240277820163303
 20
4.869444423251681
 10
3.240277820163303
 20
4.830555491977267
 10
3.270833333333333
 20
4.799999978807237
 10
3.309722264607747
 20
4.799999978807237
 10
3.348611195882161
 20
4.799999978807237
 10
3.379166709052192
 20
4.830555491977267
 10
3.379166709052192
 20
4.869444423251681
 10
3.379166709052192
 20
4.869444423251681
 10
3.379166709052192
 20
4.870833290947808
 10
3.379166709052192
 20
4.870833290947808
 10
3.388888888888889
 20
4.854166666666666
 10
3.394444359673394
 20
4.836111068725586
 10
3.394444359673394
 20
4.815277735392252
 97
        0
 97
        0
 75
     2
 76
     1
 98
        0
  0
ENDBLK
  5
56
330
53
100
AcDbEntity
  8
0
100
AcDbBlockEnd
  0
BLOCK
  5
5C
330
5A
100
AcDbEntity
  8
0
100
AcDbBlockBegin
  2
block 6
 70
     0
 10
0.0
 20
0.0
 30
0.0
  3
block 6
  1

  0
SPLINE
  5
5E
330
5A
100
AcDbEntity
  8
Calque 1
370
     0
100
AcDbSpline
210
0.0
220
0.0
230
1.0
 70
    11
 71
     3
 72
    14
 73
    10
 74
     0
 42
0.0000000001
 43
0.0000000001
 12
1.0
 22
0.0
 32
0.0
 13
1.0
 23
0.0
 33
0.0
 40
0.0
 40
0.0
 40
0.0
 40
0.0
 40
1.0
 40
1.0
 40
1.0
 40
2.0
 40
2.0
 40
2.0
 40
3.0
 40
3.0
 40
3.0
 40
3.0
 10
2.361111111111111
 20
3.344444486829969
 30
0.0
 10
2.361111111111111
 20
3.344444486829969
 30
0.0
 10
2.57499991522895
 20
3.259722179836697
 30
0.0
 10
2.57499991522895
 20
3.223611195882161
 30
0.0
 10
2.57499991522895
 20
3.187500211927626
 30
0.0
 10
2.345833248562283
 20
3.122222264607747
 30
0.0
 10
2.345833248562283
 20
3.122222264607747
 30
0.0
 10
2.345833248562283
 20
3.122222264607747
 30
0.0
 10
2.361111111111111
 20
3.344444486829969
 30
0.0
 10
2.361111111111111
 20
3.344444486829969
 30
0.0
  0
HATCH
  5
5F
330
5A
100
AcDbEntity
  8
Calque 1
 62
    40
420
 16494651
100
AcDbHatch
 10
0.0
 20
0.0
 30
0.0
210
0.0
220
0.0
230
1.0
  2
SOLID
 70
     1
 71
     0
 91
        1
 92
        1
 93
        1
 72
     4
 94
        3
 73
     0
 74
     1
 95
       14
 96
       10
 40
0.0
 40
0.0
 40
0.0
 40
0.0
 40
1.0
 40
1.0
 40
1.0
 40
2.0
 40
2.0
 40
2.0
 40
3.0
 40
3.0
 40
3.0
 40
3.0
 10
2.361111111111111
 20
3.344444486829969
 10
2.361111111111111
 20
3.344444486829969
 10
2.57499991522895
 20
3.259722179836697
 10
2.57499991522895
 20
3.223611195882161
 10
2.57499991522895
 20
3.187500211927626
 10
2.345833248562283
 20
3.122222264607747
 10
2.345833248562283
 20
3.122222264607747
 10
2.345833248562283
 20
3.122222264607747
 10
2.361111111111111
 20
3.344444486829969
 10
2.361111111111111
 20
3.344444486829969
 97
        0
 97
        0
 75
     2
 76
     1
 98
        0
  0
SPLINE
  5
60
330
5A
100
AcDbEntity
  8
Calque 1
370
     0
100
AcDbSpline
210
0.0
220
0.0
230
1.0
 70
    11
 71
     3
 72
    32
 73
    28
 74
     0
 42
0.0000000001
 43
0.0000000001
 12
1.0
 22
0.0
 32
0.0
 13
1.0
 23
0.0
 33
0.0
 40
0.0
 40
0.0
 40
0.0
 40
0.0
 40
1.0
 40
1.0
 40
1.0
 40
2.0
 40
2.0
 40
2.0
 40
3.0
 40
3.0
 40
3.0
 40
4.0
 40
4.0
 40
4.0
 40
5.0
 40
5.0
 40
5.0
 40
6.0
 40
6.0
 40
6.0
 40
7.0
 40
7.0
 40
7.0
 40
8.0
 40
8.0
 40
8.0
 40
9.0
 40
9.0
 40
9.0
 40
9.0
 10
2.369444529215495
 20
3.072222179836697
 30
0.0
 10
2.473611195882161
 20
3.380555470784505
 30
0.0
 10
2.334722306993272
 20
3.702777862548828
 30
0.0
 10
2.038888931274414
 20
3.702777862548828
 30
0.0
 10
1.743055555555555
 20
3.702777862548828
 30
0.0
 10
1.573611153496636
 20
3.631944444444444
 30
0.0
 10
1.504166709052192
 20
3.426389058430989
 30
0.0
 10
1.434722264607747
 20
3.220833460489909
 30
0.0
 10
1.445833418104384
 20
2.969444698757596
 30
0.0
 10
1.251388973659939
 20
2.891666836208767
 30
0.0
 10
1.056944529215495
 20
2.813888973659939
 30
0.0
 10
1.004166709052192
 20
2.884722391764323
 30
0.0
 10
0.9541667302449544
 20
2.908333460489909
 30
0.0
 10
0.904166751437717
 20
2.931944529215495
 30
0.0
 10
0.8000000847710503
 20
2.791666878594292
 30
0.0
 10
0.9930556615193684
 20
2.745833502875434
 30
0.0
 10
0.8930557039048936
 20
2.638889100816515
 30
0.0
 10
0.9791667726304796
 20
2.587500254313151
 30
0.0
 10
1.066666815016005
 20
2.595833460489909
 30
0.0
 10
0.9916667938232422
 20
2.450000127156575
 30
0.0
 10
1.172222349378798
 20
2.329166836208767
 30
0.0
 10
1.30972237057156
 20
2.527777989705403
 30
0.0
 10
1.648611280653212
 20
2.40138922797309
 30
0.0
 10
1.963889016045464
 20
2.431944529215495
 30
0.0
 10
2.202777862548828
 20
2.630555682712131
 30
0.0
 10
2.443055470784505
 20
2.830555597941081
 30
0.0
 10
2.369444529215495
 20
3.072222179836697
 30
0.0
 10
2.369444529215495
 20
3.072222179836697
 30
0.0
  0
HATCH
  5
61
330
5A
100
AcDbEntity
  8
Calque 1
 62
   254
420
 15519186
100
AcDbHatch
 10
0.0
 20
0.0
 30
0.0
210
0.0
220
0.0
230
1.0
  2
SOLID
 70
     1
 71
     0
 91
        1
 92
        1
 93
        1
 72
     4
 94
        3
 73
     0
 74
     1
 95
       32
 96
       28
 40
0.0
 40
0.0
 40
0.0
 40
0.0
 40
1.0
 40
1.0
 40
1.0
 40
2.0
 40
2.0
 40
2.0
 40
3.0
 40
3.0
 40
3.0
 40
4.0
 40
4.0
 40
4.0
 40
5.0
 40
5.0
 40
5.0
 40
6.0
 40
6.0
 40
6.0
 40
7.0
 40
7.0
 40
7.0
 40
8.0
 40
8.0
 40
8.0
 40
9.0
 40
9.0
 40
9.0
 40
9.0
 10
2.369444529215495
 20
3.072222179836697
 10
2.473611195882161
 20
3.380555470784505
 10
2.334722306993272
 20
3.702777862548828
 10
2.038888931274414
 20
3.702777862548828
 10
1.743055555555555
 20
3.702777862548828
 10
1.573611153496636
 20
3.631944444444444
 10
1.504166709052192
 20
3.426389058430989
 10
1.434722264607747
 20
3.220833460489909
 10
1.445833418104384
 20
2.969444698757596
 10
1.251388973659939
 20
2.891666836208767
 10
1.056944529215495
 20
2.813888973659939
 10
1.004166709052192
 20
2.884722391764323
 10
0.9541667302449544
 20
2.908333460489909
 10
0.904166751437717
 20
2.931944529215495
 10
0.8000000847710503
 20
2.791666878594292
 10
0.9930556615193684
 20
2.745833502875434
 10
0.8930557039048936
 20
2.638889100816515
 10
0.9791667726304796
 20
2.587500254313151
 10
1.066666815016005
 20
2.595833460489909
 10
0.9916667938232422
 20
2.450000127156575
 10
1.172222349378798
 20
2.329166836208767
 10
1.30972237057156
 20
2.527777989705403
 10
1.648611280653212
 20
2.40138922797309
 10
1.963889016045464
 20
2.431944529215495
 10
2.202777862548828
 20
2.630555682712131
 10
2.443055470784505
 20
2.830555597941081
 10
2.369444529215495
 20
3.072222179836697
 10
2.369444529215495
 20
3.072222179836697
 97
        0
 97
        0
 75
     2
 76
     1
 98
        0
  0
SPLINE
  5
62
330
5A
100
AcDbEntity
  8
Calque 1
370
     0
100
AcDbSpline
210
0.0
220
0.0
230
1.0
 70
    11
 71
     3
 72
    17
 73
    13
 74
     0
 42
0.0000000001
 43
0.0000000001
 12
1.0
 22
0.0
 32
0.0
 13
1.0
 23
0.0
 33
0.0
 40
0.0
 40
0.0
 40
0.0
 40
0.0
 40
1.0
 40
1.0
 40
1.0
 40
2.0
 40
2.0
 40
2.0
 40
3.0
 40
3.0
 40
3.0
 40
4.0
 40
4.0
 40
4.0
 40
4.0
 10
2.002777735392252
 20
2.898611068725586
 30
0.0
 10
2.049999872843424
 20
3.141666624281141
 30
0.0
 10
1.890277650621202
 20
3.181944317287869
 30
0.0
 10
1.808333290947808
 20
3.188888761732313
 30
0.0
 10
1.726388825310601
 20
3.197222179836697
 30
0.0
 10
1.313888867696126
 20
3.26111094156901
 30
0.0
 10
1.279166645473904
 20
3.219444274902344
 30
0.0
 10
1.244444423251682
 20
3.176388634575738
 30
0.0
 10
1.534722222222222
 20
2.799999872843424
 30
0.0
 10
1.720833248562283
 20
2.770833121405707
 30
0.0
 10
1.906944274902344
 20
2.74166636996799
 30
0.0
 10
1.986111111111111
 20
2.816666709052192
 30
0.0
 10
2.002777735392252
 20
2.898611068725586
 30
0.0
  0
HATCH
  5
63
330
5A
100
AcDbEntity
  8
Calque 1
 62
   243
420
 14706049
100
AcDbHatch
 10
0.0
 20
0.0
 30
0.0
210
0.0
220
0.0
230
1.0
  2
SOLID
 70
     1
 71
     0
 91
        1
 92
        1
 93
        1
 72
     4
 94
        3
 73
     0
 74
     1
 95
       17
 96
       13
 40
0.0
 40
0.0
 40
0.0
 40
0.0
 40
1.0
 40
1.0
 40
1.0
 40
2.0
 40
2.0
 40
2.0
 40
3.0
 40
3.0
 40
3.0
 40
4.0
 40
4.0
 40
4.0
 40
4.0
 10
2.002777735392252
 20
2.898611068725586
 10
2.049999872843424
 20
3.141666624281141
 10
1.890277650621202
 20
3.181944317287869
 10
1.808333290947808
 20
3.188888761732313
 10
1.726388825310601
 20
3.197222179836697
 10
1.313888867696126
 20
3.26111094156901
 10
1.279166645473904
 20
3.219444274902344
 10
1.244444423251682
 20
3.176388634575738
 10
1.534722222222222
 20
2.799999872843424
 10
1.720833248562283
 20
2.770833121405707
 10
1.906944274902344
 20
2.74166636996799
 10
1.986111111111111
 20
2.816666709052192
 10
2.002777735392252
 20
2.898611068725586
 97
        0
 97
        0
 75
     2
 76
     1
 98
        0
  0
INSERT
  5
65
330
5A
100
AcDbEntity
  8
Calque 1
100
AcDbBlockReference
  2
block 7
 10
0.0
 20
0.0
 30
0.0
  0
ENDBLK
  5
5D
330
5A
100
AcDbEntity
  8
0
100
AcDbBlockEnd
  0
BLOCK
  5
66
330
64
100
AcDbEntity
  8
0
100
AcDbBlockBegin
  2
block 7
 70
     0
 10
0.0
 20
0.0
 30
0.0
  3
block 7
  1

  0
SPLINE
  5
68
330
64
100
AcDbEntity
  8
Calque 1
370
     0
100
AcDbSpline
210
0.0
220
0.0
230
1.0
 70
    11
 71
     3
 72
    17
 73
    13
 74
     0
 42
0.0000000001
 43
0.0000000001
 12
1.0
 22
0.0
 32
0.0
 13
1.0
 23
0.0
 33
0.0
 40
0.0
 40
0.0
 40
0.0
 40
0.0
 40
1.0
 40
1.0
 40
1.0
 40
2.0
 40
2.0
 40
2.0
 40
3.0
 40
3.0
 40
3.0
 40
4.0
 40
4.0
 40
4.0
 40
4.0
 10
2.109722137451172
 20
3.566666709052192
 30
0.0
 10
2.191797892252604
 20
3.566666709052192
 30
0.0
 10
2.258333206176758
 20
3.500131395128038
 30
0.0
 10
2.258333206176758
 20
3.418055640326606
 30
0.0
 10
2.258333206176758
 20
3.335979885525173
 30
0.0
 10
2.191797892252604
 20
3.26944457160102
 30
0.0
 10
2.109722137451172
 20
3.26944457160102
 30
0.0
 10
2.027646382649739
 20
3.26944457160102
 30
0.0
 10
1.961111068725586
 20
3.335979885525173
 30
0.0
 10
1.961111068725586
 20
3.418055640326606
 30
0.0
 10
1.961111068725586
 20
3.500131395128038
 30
0.0
 10
2.027646382649739
 20
3.566666709052192
 30
0.0
 10
2.109722137451172
 20
3.566666709052192
 30
0.0
  0
SPLINE
  5
69
330
64
100
AcDbEntity
  8
Calque 1
370
     0
100
AcDbSpline
210
0.0
220
0.0
230
1.0
 70
    11
 71
     3
 72
    29
 73
    25
 74
     0
 42
0.0000000001
 43
0.0000000001
 12
1.0
 22
0.0
 32
0.0
 13
1.0
 23
0.0
 33
0.0
 40
0.0
 40
0.0
 40
0.0
 40
0.0
 40
1.0
 40
1.0
 40
1.0
 40
2.0
 40
2.0
 40
2.0
 40
3.0
 40
3.0
 40
3.0
 40
4.0
 40
4.0
 40
4.0
 40
5.0
 40
5.0
 40
5.0
 40
6.0
 40
6.0
 40
6.0
 40
7.0
 40
7.0
 40
7.0
 40
8.0
 40
8.0
 40
8.0
 40
8.0
 10
2.005555470784505
 20
3.418055640326606
 30
0.0
 10
2.005555470784505
 20
3.359722349378798
 30
0.0
 10
2.052777608235677
 20
3.313888973659939
 30
0.0
 10
2.109722137451172
 20
3.313888973659939
 30
0.0
 10
2.16805542839898
 20
3.313888973659939
 30
0.0
 10
2.213888804117838
 20
3.361111111111111
 30
0.0
 10
2.213888804117838
 20
3.418055640326606
 30
0.0
 10
2.213888804117838
 20
3.463889016045464
 30
0.0
 10
2.184722052680121
 20
3.502777947319878
 30
0.0
 10
2.143055386013455
 20
3.516666836208767
 30
0.0
 10
2.152777565850152
 20
3.504166920979817
 30
0.0
 10
2.159722010294596
 20
3.488889058430989
 30
0.0
 10
2.159722010294596
 20
3.472222434149848
 30
0.0
 10
2.159722010294596
 20
3.433333502875434
 30
0.0
 10
2.129166497124566
 20
3.402777989705403
 30
0.0
 10
2.090277565850152
 20
3.402777989705403
 30
0.0
 10
2.051388634575738
 20
3.402777989705403
 30
0.0
 10
2.020833121405707
 20
3.433333502875434
 30
0.0
 10
2.020833121405707
 20
3.472222434149848
 30
0.0
 10
2.020833121405707
 20
3.472222434149848
 30
0.0
 10
2.020833121405707
 20
3.473611407809787
 30
0.0
 10
2.020833121405707
 20
3.473611407809787
 30
0.0
 10
2.011111153496636
 20
3.456944359673394
 30
0.0
 10
2.005555470784505
 20
3.4375
 30
0.0
 10
2.005555470784505
 20
3.418055640326606
 30
0.0
  0
HATCH
  5
6A
330
64
100
AcDbEntity
  8
Calque 1
 62
   250
420
  2763307
100
AcDbHatch
 10
0.0
 20
0.0
 30
0.0
210
0.0
220
0.0
230
1.0
  2
SOLID
 70
     1
 71
     0
 91
        1
 92
        1
 93
        1
 72
     4
 94
        3
 73
     0
 74
     1
 95
       29
 96
       25
 40
0.0
 40
0.0
 40
0.0
 40
0.0
 40
1.0
 40
1.0
 40
1.0
 40
2.0
 40
2.0
 40
2.0
 40
3.0
 40
3.0
 40
3.0
 40
4.0
 40
4.0
 40
4.0
 40
5.0
 40
5.0
 40
5.0
 40
6.0
 40
6.0
 40
6.0
 40
7.0
 40
7.0
 40
7.0
 40
8.0
 40
8.0
 40
8.0
 40
8.0
 10
2.005555470784505
 20
3.418055640326606
 10
2.005555470784505
 20
3.359722349378798
 10
2.052777608235677
 20
3.313888973659939
 10
2.109722137451172
 20
3.313888973659939
 10
2.16805542839898
 20
3.313888973659939
 10
2.213888804117838
 20
3.361111111111111
 10
2.213888804117838
 20
3.418055640326606
 10
2.213888804117838
 20
3.463889016045464
 10
2.184722052680121
 20
3.502777947319878
 10
2.143055386013455
 20
3.516666836208767
 10
2.152777565850152
 20
3.504166920979817
 10
2.159722010294596
 20
3.488889058430989
 10
2.159722010294596
 20
3.472222434149848
 10
2.159722010294596
 20
3.433333502875434
 10
2.129166497124566
 20
3.402777989705403
 10
2.090277565850152
 20
3.402777989705403
 10
2.051388634575738
 20
3.402777989705403
 10
2.020833121405707
 20
3.433333502875434
 10
2.020833121405707
 20
3.472222434149848
 10
2.020833121405707
 20
3.472222434149848
 10
2.020833121405707
 20
3.473611407809787
 10
2.020833121405707
 20
3.473611407809787
 10
2.011111153496636
 20
3.456944359673394
 10
2.005555470784505
 20
3.4375
 10
2.005555470784505
 20
3.418055640326606
 97
        0
 97
        0
 75
     2
 76
     1
 98
        0
  0
ENDBLK
  5
67
330
64
100
AcDbEntity
  8
0
100
AcDbBlockEnd
  0
BLOCK
  5
6D
330
6B
100
AcDbEntity
  8
0
100
AcDbBlockBegin
  2
block 8
 70
     0
 10
0.0
 20
0.0
 30
0.0
  3
block 8
  1

  0
SPLINE
  5
6F
330
6B
100
AcDbEntity
  8
Calque 1
370
     0
100
AcDbSpline
210
0.0
220
0.0
230
1.0
 70
    11
 71
     3
 72
    14
 73
    10
 74
     0
 42
0.0000000001
 43
0.0000000001
 12
1.0
 22
0.0
 32
0.0
 13
1.0
 23
0.0
 33
0.0
 40
0.0
 40
0.0
 40
0.0
 40
0.0
 40
1.0
 40
1.0
 40
1.0
 40
2.0
 40
2.0
 40
2.0
 40
3.0
 40
3.0
 40
3.0
 40
3.0
 10
4.723611195882161
 20
2.590277777777778
 30
0.0
 10
4.723611195882161
 20
2.590277777777778
 30
0.0
 10
5.118055555555555
 20
2.433333502875434
 30
0.0
 10
5.118055555555555
 20
2.368055555555555
 30
0.0
 10
5.118055555555555
 20
2.302777608235677
 30
0.0
 10
4.697222391764322
 20
2.181944529215495
 30
0.0
 10
4.697222391764322
 20
2.181944529215495
 30
0.0
 10
4.697222391764322
 20
2.181944529215495
 30
0.0
 10
4.723611195882161
 20
2.590277777777778
 30
0.0
 10
4.723611195882161
 20
2.590277777777778
 30
0.0
  0
HATCH
  5
70
330
6B
100
AcDbEntity
  8
Calque 1
 62
    40
420
 16494651
100
AcDbHatch
 10
0.0
 20
0.0
 30
0.0
210
0.0
220
0.0
230
1.0
  2
SOLID
 70
     1
 71
     0
 91
        1
 92
        1
 93
        1
 72
     4
 94
        3
 73
     0
 74
     1
 95
       14
 96
       10
 40
0.0
 40
0.0
 40
0.0
 40
0.0
 40
1.0
 40
1.0
 40
1.0
 40
2.0
 40
2.0
 40
2.0
 40
3.0
 40
3.0
 40
3.0
 40
3.0
 10
4.723611195882161
 20
2.590277777777778
 10
4.723611195882161
 20
2.590277777777778
 10
5.118055555555555
 20
2.433333502875434
 10
5.118055555555555
 20
2.368055555555555
 10
5.118055555555555
 20
2.302777608235677
 10
4.697222391764322
 20
2.181944529215495
 10
4.697222391764322
 20
2.181944529215495
 10
4.697222391764322
 20
2.181944529215495
 10
4.723611195882161
 20
2.590277777777778
 10
4.723611195882161
 20
2.590277777777778
 97
        0
 97
        0
 75
     2
 76
     1
 98
        0
  0
SPLINE
  5
71
330
6B
100
AcDbEntity
  8
Calque 1
370
     0
100
AcDbSpline
210
0.0
220
0.0
230
1.0
 70
    11
 71
     3
 72
    32
 73
    28
 74
     0
 42
0.0000000001
 43
0.0000000001
 12
1.0
 22
0.0
 32
0.0
 13
1.0
 23
0.0
 33
0.0
 40
0.0
 40
0.0
 40
0.0
 40
0.0
 40
1.0
 40
1.0
 40
1.0
 40
2.0
 40
2.0
 40
2.0
 40
3.0
 40
3.0
 40
3.0
 40
4.0
 40
4.0
 40
4.0
 40
5.0
 40
5.0
 40
5.0
 40
6.0
 40
6.0
 40
6.0
 40
7.0
 40
7.0
 40
7.0
 40
8.0
 40
8.0
 40
8.0
 40
9.0
 40
9.0
 40
9.0
 40
9.0
 10
4.738889058430989
 20
2.090277777777778
 30
0.0
 10
4.929167005750868
 20
2.656944486829969
 30
0.0
 10
4.67500008477105
 20
3.25
 30
0.0
 10
4.131944444444445
 20
3.25
 30
0.0
 10
3.588888804117838
 20
3.25
 30
0.0
 10
3.276388804117838
 20
3.119444529215495
 30
0.0
 10
3.148611068725586
 20
2.741666581895616
 30
0.0
 10
3.020833333333333
 20
2.36250008477105
 30
0.0
 10
3.041666666666667
 20
1.899999830457899
 30
0.0
 10
2.683333290947808
 20
1.758332994249132
 30
0.0
 10
2.32499991522895
 20
1.616666158040365
 30
0.0
 10
2.229166666666667
 20
1.747222052680121
 30
0.0
 10
2.13749991522895
 20
1.790277269151476
 30
0.0
 10
2.045833163791233
 20
1.83333248562283
 30
0.0
 10
1.854166666666667
 20
1.576388465033637
 30
0.0
 10
2.209722095065647
 20
1.493055131700304
 30
0.0
 10
2.024999830457899
 20
1.295832739935981
 30
0.0
 10
2.183333290947808
 20
1.201388465033637
 30
0.0
 10
2.345833248562283
 20
1.218055301242404
 30
0.0
 10
2.206944359673394
 20
0.9486109415690104
 30
0.0
 10
2.538888719346788
 20
0.7263887193467882
 30
0.0
 10
2.794444402058919
 20
1.093055301242404
 30
0.0
 10
3.419444402058919
 20
0.8611106872558594
 30
0.0
 10
3.997222052680121
 20
0.9166662428114148
 30
0.0
 10
4.43611102634006
 20
1.280555301242404
 30
0.0
 10
4.875
 20
1.644444359673394
 30
0.0
 10
4.738889058430989
 20
2.090277777777778
 30
0.0
 10
4.738889058430989
 20
2.090277777777778
 30
0.0
  0
HATCH
  5
72
330
6B
100
AcDbEntity
  8
Calque 1
 62
    15
420
 10828108
100
AcDbHatch
 10
0.0
 20
0.0
 30
0.0
210
0.0
220
0.0
230
1.0
  2
SOLID
 70
     1
 71
     0
 91
        1
 92
        1
 93
        1
 72
     4
 94
        3
 73
     0
 74
     1
 95
       32
 96
       28
 40
0.0
 40
0.0
 40
0.0
 40
0.0
 40
1.0
 40
1.0
 40
1.0
 40
2.0
 40
2.0
 40
2.0
 40
3.0
 40
3.0
 40
3.0
 40
4.0
 40
4.0
 40
4.0
 40
5.0
 40
5.0
 40
5.0
 40
6.0
 40
6.0
 40
6.0
 40
7.0
 40
7.0
 40
7.0
 40
8.0
 40
8.0
 40
8.0
 40
9.0
 40
9.0
 40
9.0
 40
9.0
 10
4.738889058430989
 20
2.090277777777778
 10
4.929167005750868
 20
2.656944486829969
 10
4.67500008477105
 20
3.25
 10
4.131944444444445
 20
3.25
 10
3.588888804117838
 20
3.25
 10
3.276388804117838
 20
3.119444529215495
 10
3.148611068725586
 20
2.741666581895616
 10
3.020833333333333
 20
2.36250008477105
 10
3.041666666666667
 20
1.899999830457899
 10
2.683333290947808
 20
1.758332994249132
 10
2.32499991522895
 20
1.616666158040365
 10
2.229166666666667
 20
1.747222052680121
 10
2.13749991522895
 20
1.790277269151476
 10
2.045833163791233
 20
1.83333248562283
 10
1.854166666666667
 20
1.576388465033637
 10
2.209722095065647
 20
1.493055131700304
 10
2.024999830457899
 20
1.295832739935981
 10
2.183333290947808
 20
1.201388465033637
 10
2.345833248562283
 20
1.218055301242404
 10
2.206944359673394
 20
0.9486109415690104
 10
2.538888719346788
 20
0.7263887193467882
 10
2.794444402058919
 20
1.093055301242404
 10
3.419444402058919
 20
0.8611106872558594
 10
3.997222052680121
 20
0.9166662428114148
 10
4.43611102634006
 20
1.280555301242404
 10
4.875
 20
1.644444359673394
 10
4.738889058430989
 20
2.090277777777778
 10
4.738889058430989
 20
2.090277777777778
 97
        0
 97
        0
 75
     2
 76
     1
 98
        0
  0
SPLINE
  5
73
330
6B
100
AcDbEntity
  8
Calque 1
370
     0
100
AcDbSpline
210
0.0
220
0.0
230
1.0
 70
    11
 71
     3
 72
    17
 73
    13
 74
     0
 42
0.0000000001
 43
0.0000000001
 12
1.0
 22
0.0
 32
0.0
 13
1.0
 23
0.0
 33
0.0
 40
0.0
 40
0.0
 40
0.0
 40
0.0
 40
1.0
 40
1.0
 40
1.0
 40
2.0
 40
2.0
 40
2.0
 40
3.0
 40
3.0
 40
3.0
 40
4.0
 40
4.0
 40
4.0
 40
4.0
 10
4.0625
 20
1.770833333333333
 30
0.0
 10
4.148611280653212
 20
2.216666751437717
 30
0.0
 10
3.854166666666667
 20
2.291666666666667
 30
0.0
 10
3.704166836208767
 20
2.305555555555555
 30
0.0
 10
3.554166793823242
 20
2.319444444444444
 30
0.0
 10
2.793055640326606
 20
2.438888973659939
 30
0.0
 10
2.730555640326606
 20
2.361111111111111
 30
0.0
 10
2.666666666666667
 20
2.283333248562283
 30
0.0
 10
3.201388888888889
 20
1.588888804117838
 30
0.0
 10
3.543055640326606
 20
1.537500169542101
 30
0.0
 10
3.884722391764323
 20
1.486111534966363
 30
0.0
 10
4.034722222222222
 20
1.619444529215495
 30
0.0
 10
4.0625
 20
1.770833333333333
 30
0.0
  0
HATCH
  5
74
330
6B
100
AcDbEntity
  8
Calque 1
 62
    11
420
 16742520
100
AcDbHatch
 10
0.0
 20
0.0
 30
0.0
210
0.0
220
0.0
230
1.0
  2
SOLID
 70
     1
 71
     0
 91
        1
 92
        1
 93
        1
 72
     4
 94
        3
 73
     0
 74
     1
 95
       17
 96
       13
 40
0.0
 40
0.0
 40
0.0
 40
0.0
 40
1.0
 40
1.0
 40
1.0
 40
2.0
 40
2.0
 40
2.0
 40
3.0
 40
3.0
 40
3.0
 40
4.0
 40
4.0
 40
4.0
 40
4.0
 10
4.0625
 20
1.770833333333333
 10
4.148611280653212
 20
2.216666751437717
 10
3.854166666666667
 20
2.291666666666667
 10
3.704166836208767
 20
2.305555555555555
 10
3.554166793823242
 20
2.319444444444444
 10
2.793055640326606
 20
2.438888973659939
 10
2.730555640326606
 20
2.361111111111111
 10
2.666666666666667
 20
2.283333248562283
 10
3.201388888888889
 20
1.588888804117838
 10
3.543055640326606
 20
1.537500169542101
 10
3.884722391764323
 20
1.486111534966363
 10
4.034722222222222
 20
1.619444529215495
 10
4.0625
 20
1.770833333333333
 97
        0
 97
        0
 75
     2
 76
     1
 98
        0
  0
INSERT
  5
76
330
6B
100
AcDbEntity
  8
Calque 1
100
AcDbBlockReference
  2
block 9
 10
0.0
 20
0.0
 30
0.0
  0
ENDBLK
  5
6E
330
6B
100
AcDbEntity
  8
0
100
AcDbBlockEnd
  0
BLOCK
  5
77
330
75
100
AcDbEntity
  8
0
100
AcDbBlockBegin
  2
block 9
 70
     0
 10
0.0
 20
0.0
 30
0.0
  3
block 9
  1

  0
SPLINE
  5
79
330
75
100
AcDbEntity
  8
Calque 1
370
     0
100
AcDbSpline
210
0.0
220
0.0
230
1.0
 70
    11
 71
     3
 72
    17
 73
    13
 74
     0
 42
0.0000000001
 43
0.0000000001
 12
1.0
 22
0.0
 32
0.0
 13
1.0
 23
0.0
 33
0.0
 40
0.0
 40
0.0
 40
0.0
 40
0.0
 40
1.0
 40
1.0
 40
1.0
 40
2.0
 40
2.0
 40
2.0
 40
3.0
 40
3.0
 40
3.0
 40
4.0
 40
4.0
 40
4.0
 40
4.0
 10
4.26111094156901
 20
2.998611238267686
 30
0.0
 10
4.41145494249132
 20
2.998611238267686
 30
0.0
 10
4.533333248562283
 20
2.876733144124349
 30
0.0
 10
4.533333248562283
 20
2.726388931274414
 30
0.0
 10
4.533333248562283
 20
2.576044718424479
 30
0.0
 10
4.41145494249132
 20
2.454166624281141
 30
0.0
 10
4.26111094156901
 20
2.454166624281141
 30
0.0
 10
4.110766940646701
 20
2.454166624281141
 30
0.0
 10
3.988888634575738
 20
2.576044718424479
 30
0.0
 10
3.988888634575738
 20
2.726388931274414
 30
0.0
 10
3.988888634575738
 20
2.876733144124349
 30
0.0
 10
4.110766940646701
 20
2.998611238267686
 30
0.0
 10
4.26111094156901
 20
2.998611238267686
 30
0.0
  0
SPLINE
  5
7A
330
75
100
AcDbEntity
  8
Calque 1
370
     0
100
AcDbSpline
210
0.0
220
0.0
230
1.0
 70
    11
 71
     3
 72
    29
 73
    25
 74
     0
 42
0.0000000001
 43
0.0000000001
 12
1.0
 22
0.0
 32
0.0
 13
1.0
 23
0.0
 33
0.0
 40
0.0
 40
0.0
 40
0.0
 40
0.0
 40
1.0
 40
1.0
 40
1.0
 40
2.0
 40
2.0
 40
2.0
 40
3.0
 40
3.0
 40
3.0
 40
4.0
 40
4.0
 40
4.0
 40
5.0
 40
5.0
 40
5.0
 40
6.0
 40
6.0
 40
6.0
 40
7.0
 40
7.0
 40
7.0
 40
8.0
 40
8.0
 40
8.0
 40
8.0
 10
4.068055470784505
 20
2.726388931274414
 30
0.0
 10
4.068055470784505
 20
2.619444529215495
 30
0.0
 10
4.154166751437717
 20
2.533333460489909
 30
0.0
 10
4.26111094156901
 20
2.533333460489909
 30
0.0
 10
4.368055131700304
 20
2.533333460489909
 30
0.0
 10
4.454166412353516
 20
2.619444529215495
 30
0.0
 10
4.454166412353516
 20
2.726388931274414
 30
0.0
 10
4.454166412353516
 20
2.811111238267686
 30
0.0
 10
4.399999830457899
 20
2.881944444444444
 30
0.0
 10
4.32499991522895
 20
2.908333460489909
 30
0.0
 10
4.343055301242404
 20
2.886111153496636
 30
0.0
 10
4.354166666666666
 20
2.858333375718858
 30
0.0
 10
4.354166666666666
 20
2.826389100816515
 30
0.0
 10
4.354166666666666
 20
2.755555682712131
 30
0.0
 10
4.297222137451172
 20
2.698611365424262
 30
0.0
 10
4.226388719346788
 20
2.698611365424262
 30
0.0
 10
4.155555301242404
 20
2.698611365424262
 30
0.0
 10
4.09861077202691
 20
2.755555894639757
 30
0.0
 10
4.09861077202691
 20
2.826389100816515
 30
0.0
 10
4.09861077202691
 20
2.826389100816515
 30
0.0
 10
4.09861077202691
 20
2.827778074476454
 30
0.0
 10
4.09861077202691
 20
2.827778074476454
 30
0.0
 10
4.079166836208767
 20
2.798611111111111
 30
0.0
 10
4.068055470784505
 20
2.763888888888889
 30
0.0
 10
4.068055470784505
 20
2.726388931274414
 30
0.0
  0
HATCH
  5
7B
330
75
100
AcDbEntity
  8
Calque 1
 62
   250
420
  2763307
100
AcDbHatch
 10
0.0
 20
0.0
 30
0.0
210
0.0
220
0.0
230
1.0
  2
SOLID
 70
     1
 71
     0
 91
        1
 92
        1
 93
        1
 72
     4
 94
        3
 73
     0
 74
     1
 95
       29
 96
       25
 40
0.0
 40
0.0
 40
0.0
 40
0.0
 40
1.0
 40
1.0
 40
1.0
 40
2.0
 40
2.0
 40
2.0
 40
3.0
 40
3.0
 40
3.0
 40
4.0
 40
4.0
 40
4.0
 40
5.0
 40
5.0
 40
5.0
 40
6.0
 40
6.0
 40
6.0
 40
7.0
 40
7.0
 40
7.0
 40
8.0
 40
8.0
 40
8.0
 40
8.0
 10
4.068055470784505
 20
2.726388931274414
 10
4.068055470784505
 20
2.619444529215495
 10
4.154166751437717
 20
2.533333460489909
 10
4.26111094156901
 20
2.533333460489909
 10
4.368055131700304
 20
2.533333460489909
 10
4.454166412353516
 20
2.619444529215495
 10
4.454166412353516
 20
2.726388931274414
 10
4.454166412353516
 20
2.811111238267686
 10
4.399999830457899
 20
2.881944444444444
 10
4.32499991522895
 20
2.908333460489909
 10
4.343055301242404
 20
2.886111153496636
 10
4.354166666666666
 20
2.858333375718858
 10
4.354166666666666
 20
2.826389100816515
 10
4.354166666666666
 20
2.755555682712131
 10
4.297222137451172
 20
2.698611365424262
 10
4.226388719346788
 20
2.698611365424262
 10
4.155555301242404
 20
2.698611365424262
 10
4.09861077202691
 20
2.755555894639757
 10
4.09861077202691
 20
2.826389100816515
 10
4.09861077202691
 20
2.826389100816515
 10
4.09861077202691
 20
2.827778074476454
 10
4.09861077202691
 20
2.827778074476454
 10
4.079166836208767
 20
2.798611111111111
 10
4.068055470784505
 20
2.763888888888889
 10
4.068055470784505
 20
2.726388931274414
 97
        0
 97
        0
 75
     2
 76
     1
 98
        0
  0
ENDBLK
  5
78
330
75
100
AcDbEntity
  8
0
100
AcDbBlockEnd
  0
BLOCK
  5
7E
330
7C
100
AcDbEntity
  8
0
100
AcDbBlockBegin
  2
block 10
 70
     0
 10
0.0
 20
0.0
 30
0.0
  3
block 10
  1

  0
SPLINE
  5
80
330
7C
100
AcDbEntity
  8
Calque 1
370
     0
100
AcDbSpline
210
0.0
220
0.0
230
1.0
 70
    11
 71
     3
 72
    68
 73
    64
 74
     0
 42
0.0000000001
 43
0.0000000001
 12
1.0
 22
0.0
 32
0.0
 13
1.0
 23
0.0
 33
0.0
 40
0.0
 40
0.0
 40
0.0
 40
0.0
 40
1.0
 40
1.0
 40
1.0
 40
2.0
 40
2.0
 40
2.0
 40
3.0
 40
3.0
 40
3.0
 40
4.0
 40
4.0
 40
4.0
 40
5.0
 40
5.0
 40
5.0
 40
6.0
 40
6.0
 40
6.0
 40
7.0
 40
7.0
 40
7.0
 40
8.0
 40
8.0
 40
8.0
 40
9.0
 40
9.0
 40
9.0
 40
10.0
 40
10.0
 40
10.0
 40
11.0
 40
11.0
 40
11.0
 40
12.0
 40
12.0
 40
12.0
 40
13.0
 40
13.0
 40
13.0
 40
14.0
 40
14.0
 40
14.0
 40
15.0
 40
15.0
 40
15.0
 40
16.0
 40
16.0
 40
16.0
 40
17.0
 40
17.0
 40
17.0
 40
18.0
 40
18.0
 40
18.0
 40
19.0
 40
19.0
 40
19.0
 40
20.0
 40
20.0
 40
20.0
 40
21.0
 40
21.0
 40
21.0
 40
21.0
 10
1.409722222222222
 20
1.929166581895616
 30
0.0
 10
1.41527779897054
 20
1.934722052680121
 30
0.0
 10
1.420833375718858
 20
1.938888973659939
 30
0.0
 10
1.426388846503364
 20
1.943055470784505
 30
0.0
 10
1.455555491977268
 20
1.965277777777778
 30
0.0
 10
1.486111111111111
 20
1.983333163791233
 30
0.0
 10
1.520833333333333
 20
1.994444529215495
 30
0.0
 10
1.548611111111111
 20
2.002777947319879
 30
0.0
 10
1.576388888888889
 20
2.008333418104383
 30
0.0
 10
1.605555534362793
 20
2.005555470784505
 30
0.0
 10
1.669444402058919
 20
2.0
 30
0.0
 10
1.715277777777778
 20
1.962499830457899
 30
0.0
 10
1.733333269755045
 20
1.905555301242404
 30
0.0
 10
1.74027771419949
 20
1.881944020589193
 30
0.0
 10
1.743055449591743
 20
1.858333163791233
 30
0.0
 10
1.741666581895616
 20
1.833332909478081
 30
0.0
 10
1.738888846503364
 20
1.79722171359592
 30
0.0
 10
1.726388825310601
 20
1.762499491373698
 30
0.0
 10
1.711111068725586
 20
1.729166242811415
 30
0.0
 10
1.693055470784505
 20
1.690277523464627
 30
0.0
 10
1.669444402058919
 20
1.654166327582465
 30
0.0
 10
1.644444359673394
 20
1.619444105360243
 30
0.0
 10
1.580555491977268
 20
1.530555301242404
 30
0.0
 10
1.506944338480631
 20
1.451388465033637
 30
0.0
 10
1.424999872843424
 20
1.379166497124566
 30
0.0
 10
1.415277693006727
 20
1.370833079020182
 30
0.0
 10
1.404166539510091
 20
1.362499660915798
 30
0.0
 10
1.393055386013455
 20
1.355555216471354
 30
0.0
 10
1.381944232516819
 20
1.34861077202691
 30
0.0
 10
1.369444317287869
 20
1.344444274902344
 30
0.0
 10
1.35555542839898
 20
1.345832824707031
 30
0.0
 10
1.347222116258409
 20
1.345832824707031
 30
0.0
 10
1.338888804117838
 20
1.34861077202691
 30
0.0
 10
1.330555386013455
 20
1.352777269151476
 30
0.0
 10
1.31527762942844
 20
1.35972171359592
 30
0.0
 10
1.302777608235677
 20
1.369444105360243
 30
0.0
 10
1.290277587042914
 20
1.379166073269314
 30
0.0
 10
1.25277762942844
 20
1.411110348171658
 30
0.0
 10
1.219444274902344
 20
1.44583257039388
 30
0.0
 10
1.19027762942844
 20
1.486110687255859
 30
0.0
 10
1.143055386013455
 20
1.551388634575738
 30
0.0
 10
1.106944296095106
 20
1.62222162882487
 30
0.0
 10
1.081944253709581
 20
1.699999491373698
 30
0.0
 10
1.062499788072374
 20
1.762499491373698
 30
0.0
 10
1.054166475931803
 20
1.827777438693576
 30
0.0
 10
1.058333184983995
 20
1.893054962158203
 30
0.0
 10
1.059722052680121
 20
1.920832739935981
 30
0.0
 10
1.066666497124566
 20
1.948610517713758
 30
0.0
 10
1.076388782925076
 20
1.974999321831597
 30
0.0
 10
1.091666539510091
 20
2.011110517713758
 30
0.0
 10
1.118055449591743
 20
2.037499321831597
 30
0.0
 10
1.154166539510091
 20
2.055554707845052
 30
0.0
 10
1.194444338480631
 20
2.076388041178385
 30
0.0
 10
1.237499872843424
 20
2.080554538302951
 30
0.0
 10
1.280555407206217
 20
2.066665649414062
 30
0.0
 10
1.308333184983995
 20
2.056943257649739
 30
0.0
 10
1.33333322736952
 20
2.041665818956163
 30
0.0
 10
1.352777587042914
 20
2.019443511962891
 30
0.0
 10
1.3763886557685
 20
1.995832231309679
 30
0.0
 10
1.393055386013455
 20
1.966665903727213
 30
0.0
 10
1.405555407206217
 20
1.936110178629557
 30
0.0
 10
1.40694448682997
 20
1.934722052680121
 30
0.0
 10
1.408333354526096
 20
1.931944529215495
 30
0.0
 10
1.409722222222222
 20
1.929166581895616
 30
0.0
  0
HATCH
  5
81
330
7C
100
AcDbEntity
  8
Calque 1
 62
    31
420
 16757426
100
AcDbHatch
 10
0.0
 20
0.0
 30
0.0
210
0.0
220
0.0
230
1.0
  2
SOLID
 70
     1
 71
     0
 91
        1
 92
        1
 93
        1
 72
     4
 94
        3
 73
     0
 74
     1
 95
       68
 96
       64
 40
0.0
 40
0.0
 40
0.0
 40
0.0
 40
1.0
 40
1.0
 40
1.0
 40
2.0
 40
2.0
 40
2.0
 40
3.0
 40
3.0
 40
3.0
 40
4.0
 40
4.0
 40
4.0
 40
5.0
 40
5.0
 40
5.0
 40
6.0
 40
6.0
 40
6.0
 40
7.0
 40
7.0
 40
7.0
 40
8.0
 40
8.0
 40
8.0
 40
9.0
 40
9.0
 40
9.0
 40
10.0
 40
10.0
 40
10.0
 40
11.0
 40
11.0
 40
11.0
 40
12.0
 40
12.0
 40
12.0
 40
13.0
 40
13.0
 40
13.0
 40
14.0
 40
14.0
 40
14.0
 40
15.0
 40
15.0
 40
15.0
 40
16.0
 40
16.0
 40
16.0
 40
17.0
 40
17.0
 40
17.0
 40
18.0
 40
18.0
 40
18.0
 40
19.0
 40
19.0
 40
19.0
 40
20.0
 40
20.0
 40
20.0
 40
21.0
 40
21.0
 40
21.0
 40
21.0
 10
1.409722222222222
 20
1.929166581895616
 10
1.41527779897054
 20
1.934722052680121
 10
1.420833375718858
 20
1.938888973659939
 10
1.426388846503364
 20
1.943055470784505
 10
1.455555491977268
 20
1.965277777777778
 10
1.486111111111111
 20
1.983333163791233
 10
1.520833333333333
 20
1.994444529215495
 10
1.548611111111111
 20
2.002777947319879
 10
1.576388888888889
 20
2.008333418104383
 10
1.605555534362793
 20
2.005555470784505
 10
1.669444402058919
 20
2.0
 10
1.715277777777778
 20
1.962499830457899
 10
1.733333269755045
 20
1.905555301242404
 10
1.74027771419949
 20
1.881944020589193
 10
1.743055449591743
 20
1.858333163791233
 10
1.741666581895616
 20
1.833332909478081
 10
1.738888846503364
 20
1.79722171359592
 10
1.726388825310601
 20
1.762499491373698
 10
1.711111068725586
 20
1.729166242811415
 10
1.693055470784505
 20
1.690277523464627
 10
1.669444402058919
 20
1.654166327582465
 10
1.644444359673394
 20
1.619444105360243
 10
1.580555491977268
 20
1.530555301242404
 10
1.506944338480631
 20
1.451388465033637
 10
1.424999872843424
 20
1.379166497124566
 10
1.415277693006727
 20
1.370833079020182
 10
1.404166539510091
 20
1.362499660915798
 10
1.393055386013455
 20
1.355555216471354
 10
1.381944232516819
 20
1.34861077202691
 10
1.369444317287869
 20
1.344444274902344
 10
1.35555542839898
 20
1.345832824707031
 10
1.347222116258409
 20
1.345832824707031
 10
1.338888804117838
 20
1.34861077202691
 10
1.330555386013455
 20
1.352777269151476
 10
1.31527762942844
 20
1.35972171359592
 10
1.302777608235677
 20
1.369444105360243
 10
1.290277587042914
 20
1.379166073269314
 10
1.25277762942844
 20
1.411110348171658
 10
1.219444274902344
 20
1.44583257039388
 10
1.19027762942844
 20
1.486110687255859
 10
1.143055386013455
 20
1.551388634575738
 10
1.106944296095106
 20
1.62222162882487
 10
1.081944253709581
 20
1.699999491373698
 10
1.062499788072374
 20
1.762499491373698
 10
1.054166475931803
 20
1.827777438693576
 10
1.058333184983995
 20
1.893054962158203
 10
1.059722052680121
 20
1.920832739935981
 10
1.066666497124566
 20
1.948610517713758
 10
1.076388782925076
 20
1.974999321831597
 10
1.091666539510091
 20
2.011110517713758
 10
1.118055449591743
 20
2.037499321831597
 10
1.154166539510091
 20
2.055554707845052
 10
1.194444338480631
 20
2.076388041178385
 10
1.237499872843424
 20
2.080554538302951
 10
1.280555407206217
 20
2.066665649414062
 10
1.308333184983995
 20
2.056943257649739
 10
1.33333322736952
 20
2.041665818956163
 10
1.352777587042914
 20
2.019443511962891
 10
1.3763886557685
 20
1.995832231309679
 10
1.393055386013455
 20
1.966665903727213
 10
1.405555407206217
 20
1.936110178629557
 10
1.40694448682997
 20
1.934722052680121
 10
1.408333354526096
 20
1.931944529215495
 10
1.409722222222222
 20
1.929166581895616
 97
        0
 97
        0
 75
     2
 76
     1
 98
        0
  0
SPLINE
  5
82
330
7C
100
AcDbEntity
  8
Calque 1
370
     0
100
AcDbSpline
210
0.0
220
0.0
230
1.0
 70
    11
 71
     3
 72
    68
 73
    64
 74
     0
 42
0.0000000001
 43
0.0000000001
 12
1.0
 22
0.0
 32
0.0
 13
1.0
 23
0.0
 33
0.0
 40
0.0
 40
0.0
 40
0.0
 40
0.0
 40
1.0
 40
1.0
 40
1.0
 40
2.0
 40
2.0
 40
2.0
 40
3.0
 40
3.0
 40
3.0
 40
4.0
 40
4.0
 40
4.0
 40
5.0
 40
5.0
 40
5.0
 40
6.0
 40
6.0
 40
6.0
 40
7.0
 40
7.0
 40
7.0
 40
8.0
 40
8.0
 40
8.0
 40
9.0
 40
9.0
 40
9.0
 40
10.0
 40
10.0
 40
10.0
 40
11.0
 40
11.0
 40
11.0
 40
12.0
 40
12.0
 40
12.0
 40
13.0
 40
13.0
 40
13.0
 40
14.0
 40
14.0
 40
14.0
 40
15.0
 40
15.0
 40
15.0
 40
16.0
 40
16.0
 40
16.0
 40
17.0
 40
17.0
 40
17.0
 40
18.0
 40
18.0
 40
18.0
 40
19.0
 40
19.0
 40
19.0
 40
20.0
 40
20.0
 40
20.0
 40
21.0
 40
21.0
 40
21.0
 40
21.0
 10
2.051388846503364
 20
4.601388931274414
 30
0.0
 10
2.052777820163303
 20
4.609722243414985
 30
0.0
 10
2.054166581895616
 20
4.615277820163302
 30
0.0
 10
2.055555555555555
 20
4.622222264607747
 30
0.0
 10
2.0625
 20
4.658333354526095
 30
0.0
 10
2.07499991522895
 20
4.691666709052192
 30
0.0
 10
2.09305551317003
 20
4.722222222222222
 30
0.0
 10
2.108333375718858
 20
4.747222264607747
 30
0.0
 10
2.126388761732313
 20
4.769444465637207
 30
0.0
 10
2.150000042385525
 20
4.786111089918348
 30
0.0
 10
2.202777862548828
 20
4.823611047532823
 30
0.0
 10
2.261111153496636
 20
4.825000021192762
 30
0.0
 10
2.3125
 20
4.793055534362793
 30
0.0
 10
2.333333333333333
 20
4.78055551317003
 30
0.0
 10
2.351388931274414
 20
4.763888888888888
 30
0.0
 10
2.365277820163303
 20
4.744444423251681
 30
0.0
 10
2.387500127156575
 20
4.715277777777778
 30
0.0
 10
2.400000042385525
 20
4.680555555555555
 30
0.0
 10
2.409722222222222
 20
4.645833333333333
 30
0.0
 10
2.420833375718858
 20
4.604166666666666
 30
0.0
 10
2.427777820163303
 20
4.5625
 30
0.0
 10
2.430555555555555
 20
4.519444465637207
 30
0.0
 10
2.440277735392252
 20
4.411111089918348
 30
0.0
 10
2.436111026340061
 20
4.302777820163302
 30
0.0
 10
2.420833375718858
 20
4.194444444444445
 30
0.0
 10
2.419444402058919
 20
4.180555555555555
 30
0.0
 10
2.416666666666667
 20
4.168055640326606
 30
0.0
 10
2.412499957614475
 20
4.155555513170031
 30
0.0
 10
2.408333248562283
 20
4.14305559794108
 30
0.0
 10
2.401388804117838
 20
4.131944444444445
 30
0.0
 10
2.391666624281141
 20
4.12361102634006
 30
0.0
 10
2.384722179836697
 20
4.118055555555555
 30
0.0
 10
2.376388761732313
 20
4.115277608235677
 30
0.0
 10
2.368055555555555
 20
4.112499872843424
 30
0.0
 10
2.352777693006727
 20
4.108333163791232
 30
0.0
 10
2.336111068725586
 20
4.106944402058919
 30
0.0
 10
2.320833418104383
 20
4.106944402058919
 30
0.0
 10
2.272222306993272
 20
4.10555542839898
 30
0.0
 10
2.223611195882161
 20
4.111111111111111
 30
0.0
 10
2.176389058430989
 20
4.122222264607747
 30
0.0
 10
2.097222434149848
 20
4.140277862548828
 30
0.0
 10
2.023611280653212
 20
4.170833375718859
 30
0.0
 10
1.955555809868706
 20
4.213889016045465
 30
0.0
 10
1.900000254313151
 20
4.248611238267687
 30
0.0
 10
1.85138914320204
 20
4.29166677263048
 30
0.0
 10
1.811111450195312
 20
4.344444592793782
 30
0.0
 10
1.794444825914171
 20
4.366666793823242
 30
0.0
 10
1.780555937025282
 20
4.391666836208767
 30
0.0
 10
1.772222518920898
 20
4.418055746290419
 30
0.0
 10
1.759722497728136
 20
4.455555703904893
 30
0.0
 10
1.762500339084201
 20
4.493055767483181
 30
0.0
 10
1.777777989705404
 20
4.529166857401529
 30
0.0
 10
1.795833587646484
 20
4.570833524068196
 30
0.0
 10
1.825000127156575
 20
4.602778010898166
 30
0.0
 10
1.866666793823242
 20
4.619444635179307
 30
0.0
 10
1.89444457160102
 20
4.630555788675943
 30
0.0
 10
1.922222349378798
 20
4.634722391764322
 30
0.0
 10
1.951389100816515
 20
4.63194465637207
 30
0.0
 10
1.984722349378798
 20
4.629166920979817
 30
0.0
 10
2.015278074476454
 20
4.618055767483181
 30
0.0
 10
2.045833587646484
 20
4.602778010898166
 30
0.0
 10
2.045833375718858
 20
4.60277779897054
 30
0.0
 10
2.048611111111111
 20
4.60277779897054
 30
0.0
 10
2.051388846503364
 20
4.601388931274414
 30
0.0
  0
HATCH
  5
83
330
7C
100
AcDbEntity
  8
Calque 1
 62
    15
420
 10828108
100
AcDbHatch
 10
0.0
 20
0.0
 30
0.0
210
0.0
220
0.0
230
1.0
  2
SOLID
 70
     1
 71
     0
 91
        1
 92
        1
 93
        1
 72
     4
 94
        3
 73
     0
 74
     1
 95
       68
 96
       64
 40
0.0
 40
0.0
 40
0.0
 40
0.0
 40
1.0
 40
1.0
 40
1.0
 40
2.0
 40
2.0
 40
2.0
 40
3.0
 40
3.0
 40
3.0
 40
4.0
 40
4.0
 40
4.0
 40
5.0
 40
5.0
 40
5.0
 40
6.0
 40
6.0
 40
6.0
 40
7.0
 40
7.0
 40
7.0
 40
8.0
 40
8.0
 40
8.0
 40
9.0
 40
9.0
 40
9.0
 40
10.0
 40
10.0
 40
10.0
 40
11.0
 40
11.0
 40
11.0
 40
12.0
 40
12.0
 40
12.0
 40
13.0
 40
13.0
 40
13.0
 40
14.0
 40
14.0
 40
14.0
 40
15.0
 40
15.0
 40
15.0
 40
16.0
 40
16.0
 40
16.0
 40
17.0
 40
17.0
 40
17.0
 40
18.0
 40
18.0
 40
18.0
 40
19.0
 40
19.0
 40
19.0
 40
20.0
 40
20.0
 40
20.0
 40
21.0
 40
21.0
 40
21.0
 40
21.0
 10
2.051388846503364
 20
4.601388931274414
 10
2.052777820163303
 20
4.609722243414985
 10
2.054166581895616
 20
4.615277820163302
 10
2.055555555555555
 20
4.622222264607747
 10
2.0625
 20
4.658333354526095
 10
2.07499991522895
 20
4.691666709052192
 10
2.09305551317003
 20
4.722222222222222
 10
2.108333375718858
 20
4.747222264607747
 10
2.126388761732313
 20
4.769444465637207
 10
2.150000042385525
 20
4.786111089918348
 10
2.202777862548828
 20
4.823611047532823
 10
2.261111153496636
 20
4.825000021192762
 10
2.3125
 20
4.793055534362793
 10
2.333333333333333
 20
4.78055551317003
 10
2.351388931274414
 20
4.763888888888888
 10
2.365277820163303
 20
4.744444423251681
 10
2.387500127156575
 20
4.715277777777778
 10
2.400000042385525
 20
4.680555555555555
 10
2.409722222222222
 20
4.645833333333333
 10
2.420833375718858
 20
4.604166666666666
 10
2.427777820163303
 20
4.5625
 10
2.430555555555555
 20
4.519444465637207
 10
2.440277735392252
 20
4.411111089918348
 10
2.436111026340061
 20
4.302777820163302
 10
2.420833375718858
 20
4.194444444444445
 10
2.419444402058919
 20
4.180555555555555
 10
2.416666666666667
 20
4.168055640326606
 10
2.412499957614475
 20
4.155555513170031
 10
2.408333248562283
 20
4.14305559794108
 10
2.401388804117838
 20
4.131944444444445
 10
2.391666624281141
 20
4.12361102634006
 10
2.384722179836697
 20
4.118055555555555
 10
2.376388761732313
 20
4.115277608235677
 10
2.368055555555555
 20
4.112499872843424
 10
2.352777693006727
 20
4.108333163791232
 10
2.336111068725586
 20
4.106944402058919
 10
2.320833418104383
 20
4.106944402058919
 10
2.272222306993272
 20
4.10555542839898
 10
2.223611195882161
 20
4.111111111111111
 10
2.176389058430989
 20
4.122222264607747
 10
2.097222434149848
 20
4.140277862548828
 10
2.023611280653212
 20
4.170833375718859
 10
1.955555809868706
 20
4.213889016045465
 10
1.900000254313151
 20
4.248611238267687
 10
1.85138914320204
 20
4.29166677263048
 10
1.811111450195312
 20
4.344444592793782
 10
1.794444825914171
 20
4.366666793823242
 10
1.780555937025282
 20
4.391666836208767
 10
1.772222518920898
 20
4.418055746290419
 10
1.759722497728136
 20
4.455555703904893
 10
1.762500339084201
 20
4.493055767483181
 10
1.777777989705404
 20
4.529166857401529
 10
1.795833587646484
 20
4.570833524068196
 10
1.825000127156575
 20
4.602778010898166
 10
1.866666793823242
 20
4.619444635179307
 10
1.89444457160102
 20
4.630555788675943
 10
1.922222349378798
 20
4.634722391764322
 10
1.951389100816515
 20
4.63194465637207
 10
1.984722349378798
 20
4.629166920979817
 10
2.015278074476454
 20
4.618055767483181
 10
2.045833587646484
 20
4.602778010898166
 10
2.045833375718858
 20
4.60277779897054
 10
2.048611111111111
 20
4.60277779897054
 10
2.051388846503364
 20
4.601388931274414
 97
        0
 97
        0
 75
     2
 76
     1
 98
        0
  0
ENDBLK
  5
7F
330
7C
100
AcDbEntity
  8
0
100
AcDbBlockEnd
  0
ENDSEC
  0
SECTION
  2
ENTITIES
  0
INSERT
  5
42
330
1F
100
AcDbEntity
  8
Calque 1
100
AcDbBlockReference
  2
block 2
 10
0.0
 20
0.0
 30
0.0
  0
ENDSEC
  0
SECTION
  2
OBJECTS
  0
DICTIONARY
  5
C
330
0
100
AcDbDictionary
281
     1
  3
ACAD_GROUP
350
D
  3
ACAD_LAYOUT
350
1A
  3
ACAD_MATERIAL
350
3B
  3
ACAD_MLEADERSTYLE
350
85
  3
ACAD_MLINESTYLE
350
17
  3
ACAD_PLOTSETTINGS
350
19
  3
ACAD_PLOTSTYLENAME
350
E
  3
ACAD_TABLESTYLE
350
84
  3
ACAD_VISUALSTYLE
350
2A
  0
SUN
  5
3F
330
29
100
AcDbSun
 90
        1
290
     0
 63
     7
421
 16777215
 40
1.0
291
     1
 91
  2455826
 92
 54000000
292
     0
 70
     2
 71
   256
280
     1
  0
DICTIONARY
  5
D
102
{ACAD_REACTORS
330
C
102
}
330
C
100
AcDbDictionary
281
     1
  0
DICTIONARY
  5
1A
102
{ACAD_REACTORS
330
C
102
}
330
C
100
AcDbDictionary
281
     1
  3
Layout1
350
1E
  3
Layout2
350
26
  3
Model
350
22
  0
DICTIONARY
  5
3B
102
{ACAD_REACTORS
330
C
102
}
330
C
100
AcDbDictionary
281
     1
  3
ByBlock
350
3D
  3
ByLayer
350
3C
  3
Global
350
3E
  0
DICTIONARY
  5
85
102
{ACAD_REACTORS
330
C
102
}
330
C
100
AcDbDictionary
281
     1
  0
DICTIONARY
  5
17
102
{ACAD_REACTORS
330
C
102
}
330
C
100
AcDbDictionary
281
     1
  3
Standard
350
18
  0
DICTIONARY
  5
19
102
{ACAD_REACTORS
330
C
102
}
330
C
100
AcDbDictionary
281
     1
  0
ACDBDICTIONARYWDFLT
  5
E
102
{ACAD_REACTORS
330
C
102
}
330
C
100
AcDbDictionary
281
     1
  3
Normal
350
F
100
AcDbDictionaryWithDefault
340
F
  0
DICTIONARY
  5
84
102
{ACAD_REACTORS
330
C
102
}
330
C
100
AcDbDictionary
281
     1
  0
DICTIONARY
  5
2A
102
{ACAD_REACTORS
330
C
102
}
330
C
100
AcDbDictionary
281
     1
  3
2dWireframe
350
2F
  3
3D Hidden
350
31
  3
3dWireframe
350
30
  3
Basic
350
32
  3
Brighten
350
36
  3
ColorChange
350
3A
  3
Conceptual
350
34
  3
Dim
350
35
  3
Facepattern
350
39
  3
Flat
350
2B
  3
FlatWithEdges
350
2C
  3
Gouraud
350
2D
  3
GouraudWithEdges
350
2E
  3
Linepattern
350
38
  3
Realistic
350
33
  3
Thicken
350
37
  0
LAYOUT
  5
1E
102
{ACAD_REACTORS
330
1A
102
}
330
1A
100
AcDbPlotSettings
  1

  2
none_device
  4

  6

 40
0.0
 41
0.0
 42
0.0
 43
0.0
 44
0.0
 45
0.0
 46
0.0
 47
0.0
 48
0.0
 49
0.0
140
0.0
141
0.0
142
1.0
143
1.0
 70
   688
 72
     0
 73
     0
 74
     5
  7

 75
    16
 76
     0
 77
     2
 78
   300
147
1.0
148
0.0
149
0.0
100
AcDbLayout
  1
Layout1
 70
     1
 71
     1
 10
0.0
 20
0.0
 11
12.0
 21
9.0
 12
0.0
 22
0.0
 32
0.0
 14
1.000000000000000E+20
 24
1.000000000000000E+20
 34
1.000000000000000E+20
 15
-1.000000000000000E+20
 25
-1.000000000000000E+20
 35
-1.000000000000000E+20
146
0.0
 13
0.0
 23
0.0
 33
0.0
 16
1.0
 26
0.0
 36
0.0
 17
0.0
 27
1.0
 37
0.0
 76
     0
330
1B
  0
LAYOUT
  5
26
102
{ACAD_REACTORS
330
1A
102
}
330
1A
100
AcDbPlotSettings
  1

  2
none_device
  4

  6

 40
0.0
 41
0.0
 42
0.0
 43
0.0
 44
0.0
 45
0.0
 46
0.0
 47
0.0
 48
0.0
 49
0.0
140
0.0
141
0.0
142
1.0
143
1.0
 70
   688
 72
     0
 73
     0
 74
     5
  7

 75
    16
 76
     0
 77
     2
 78
   300
147
1.0
148
0.0
149
0.0
100
AcDbLayout
  1
Layout2
 70
     1
 71
     2
 10
0.0
 20
0.0
 11
0.0
 21
0.0
 12
0.0
 22
0.0
 32
0.0
 14
0.0
 24
0.0
 34
0.0
 15
0.0
 25
0.0
 35
0.0
146
0.0
 13
0.0
 23
0.0
 33
0.0
 16
1.0
 26
0.0
 36
0.0
 17
0.0
 27
1.0
 37
0.0
 76
     0
330
23
  0
LAYOUT
  5
22
102
{ACAD_REACTORS
330
1A
102
}
330
1A
100
AcDbPlotSettings
  1

  2
none_device
  4

  6

 40
0.0
 41
0.0
 42
0.0
 43
0.0
 44
0.0
 45
0.0
 46
0.0
 47
0.0
 48
0.0
 49
0.0
140
0.0
141
0.0
142
1.0
143
1.0
 70
  1712
 72
     0
 73
     0
 74
     0
  7

 75
     0
 76
     0
 77
     2
 78
   300
147
1.0
148
0.0
149
0.0
100
AcDbLayout
  1
Model
 70
     1
 71
     0
 10
0.0
 20
0.0
 11
12.0
 21
9.0
 12
0.0
 22
0.0
 32
0.0
 14
1.000000000000000E+20
 24
1.000000000000000E+20
 34
1.000000000000000E+20
 15
-1.000000000000000E+20
 25
-1.000000000000000E+20
 35
-1.000000000000000E+20
146
0.0
 13
0.0
 23
0.0
 33
0.0
 16
1.0
 26
0.0
 36
0.0
 17
0.0
 27
1.0
 37
0.0
 76
     0
330
1F
331
29
  0
MATERIAL
  5
3D
102
{ACAD_REACTORS
330
3B
102
}
330
3B
100
AcDbMaterial
  1
ByBlock
 72
     1
 94
      127
  0
MATERIAL
  5
3C
102
{ACAD_REACTORS
330
3B
102
}
330
3B
100
AcDbMaterial
  1
ByLayer
 72
     1
 94
      127
  0
MATERIAL
  5
3E
102
{ACAD_REACTORS
330
3B
102
}
330
3B
100
AcDbMaterial
  1
Global
 72
     1
 94
      127
  0
MLINESTYLE
  5
18
102
{ACAD_REACTORS
330
17
102
}
330
17
100
AcDbMlineStyle
  2
Standard
 70
     0
  3

 62
   256
 51
90.0
 52
90.0
 71
     2
 49
0.5
 62
   256
  6
BYLAYER
 49
-0.5
 62
   256
  6
BYLAYER
  0
ACDBPLACEHOLDER
  5
F
102
{ACAD_REACTORS
330
E
102
}
330
E
  0
VISUALSTYLE
  5
2F
102
{ACAD_REACTORS
330
2A
102
}
330
2A
100
AcDbVisualStyle
  2
2dWireframe
 70
     4
177
     2
291
     0
 71
     0
176
     1
 72
     2
176
     1
 73
     0
176
     1
 90
        0
176
     1
 40
-0.6
176
     1
 41
-30.0
176
     1
 62
     5
 63
     7
421
 16777215
176
     1
 74
     1
176
     1
 91
        4
176
     1
 64
     7
176
     1
 65
   257
176
     1
 75
     1
176
     1
175
     1
176
     1
 42
1.0
176
     1
 92
        0
176
     1
 66
   257
176
     1
 43
1.0
176
     1
 76
     1
176
     1
 77
     6
176
     1
 78
     2
176
     1
 67
     7
176
     1
 79
     5
176
     1
170
     0
176
     1
171
     0
176
     1
290
     0
176
     1
 93
        1
176
     1
 44
0.0
176
     1
173
     0
176
     1
  0
VISUALSTYLE
  5
31
102
{ACAD_REACTORS
330
2A
102
}
330
2A
100
AcDbVisualStyle
  2
3D Hidden
 70
     6
177
     2
291
     0
 71
     1
176
     1
 72
     2
176
     1
 73
     2
176
     1
 90
        0
176
     1
 40
-0.6
176
     1
 41
-30.0
176
     1
 62
     5
 63
     7
421
 16777215
176
     1
 74
     2
176
     1
 91
        2
176
     1
 64
     7
176
     1
 65
   257
176
     1
 75
     2
176
     1
175
     1
176
     1
 42
40.0
176
     1
 92
        0
176
     1
 66
   257
176
     1
 43
1.0
176
     1
 76
     1
176
     1
 77
     6
176
     1
 78
     2
176
     1
 67
     7
176
     1
 79
     3
176
     1
170
     0
176
     1
171
     0
176
     1
290
     0
176
     1
 93
        1
176
     1
 44
0.0
176
     1
173
     0
176
     1
  0
VISUALSTYLE
  5
30
102
{ACAD_REACTORS
330
2A
102
}
330
2A
100
AcDbVisualStyle
  2
3dWireframe
 70
     5
177
     2
291
     0
 71
     0
176
     1
 72
     2
176
     1
 73
     0
176
     1
 90
        0
176
     1
 40
-0.6
176
     1
 41
-30.0
176
     1
 62
     5
 63
     7
421
 16777215
176
     1
 74
     1
176
     1
 91
        4
176
     1
 64
     7
176
     1
 65
   257
176
     1
 75
     1
176
     1
175
     1
176
     1
 42
1.0
176
     1
 92
        0
176
     1
 66
   257
176
     1
 43
1.0
176
     1
 76
     1
176
     1
 77
     6
176
     1
 78
     2
176
     1
 67
     7
176
     1
 79
     5
176
     1
170
     0
176
     1
171
     0
176
     1
290
     0
176
     1
 93
        1
176
     1
 44
0.0
176
     1
173
     0
176
     1
  0
VISUALSTYLE
  5
32
102
{ACAD_REACTORS
330
2A
102
}
330
2A
100
AcDbVisualStyle
  2
Basic
 70
     7
177
     2
291
     1
 71
     1
176
     1
 72
     0
176
     1
 73
     1
176
     1
 90
        0
176
     1
 40
-0.6
176
     1
 41
-30.0
176
     1
 62
     5
 63
     7
421
 16777215
176
     1
 74
     0
176
     1
 91
        4
176
     1
 64
     7
176
     1
 65
   257
176
     1
 75
     1
176
     1
175
     1
176
     1
 42
1.0
176
     1
 92
        8
176
     1
 66
     7
176
     1
 43
1.0
176
     1
 76
     1
176
     1
 77
     6
176
     1
 78
     2
176
     1
 67
     7
176
     1
 79
     5
176
     1
170
     0
176
     1
171
     0
176
     1
290
     0
176
     1
 93
        1
176
     1
 44
0.0
176
     1
173
     0
176
     1
  0
VISUALSTYLE
  5
36
102
{ACAD_REACTORS
330
2A
102
}
330
2A
100
AcDbVisualStyle
  2
Brighten
 70
    12
177
     2
291
     1
 71
     2
176
     1
 72
     2
176
     1
 73
     0
176
     1
 90
        0
176
     1
 40
-0.6
176
     1
 41
-30.0
176
     1
 62
     5
 63
     7
421
 16777215
176
     1
 74
     1
176
     1
 91
        4
176
     1
 64
     7
176
     1
 65
   257
176
     1
 75
     1
176
     1
175
     1
176
     1
 42
1.0
176
     1
 92
        8
176
     1
 66
     7
176
     1
 43
1.0
176
     1
 76
     1
176
     1
 77
     6
176
     1
 78
     2
176
     1
 67
     7
176
     1
 79
     5
176
     1
170
     0
176
     1
171
     0
176
     1
290
     0
176
     1
 93
        1
176
     1
 44
50.0
176
     1
173
     0
176
     1
  0
VISUALSTYLE
  5
3A
102
{ACAD_REACTORS
330
2A
102
}
330
2A
100
AcDbVisualStyle
  2
ColorChange
 70
    16
177
     2
291
     1
 71
     2
176
     1
 72
     2
176
     1
 73
     3
176
     1
 90
        0
176
     1
 40
-0.6
176
     1
 41
-30.0
176
     1
 62
     5
 63
     8
421
  8421504
176
     1
 74
     1
176
     1
 91
        4
176
     1
 64
     7
176
     1
 65
   257
176
     1
 75
     1
176
     1
175
     1
176
     1
 42
1.0
176
     1
 92
        8
176
     1
 66
     8
424
  8421504
176
     1
 43
1.0
176
     1
 76
     1
176
     1
 77
     6
176
     1
 78
     2
176
     1
 67
     7
176
     1
 79
     5
176
     1
170
     0
176
     1
171
     0
176
     1
290
     0
176
     1
 93
        1
176
     1
 44
0.0
176
     1
173
     0
176
     1
  0
VISUALSTYLE
  5
34
102
{ACAD_REACTORS
330
2A
102
}
330
2A
100
AcDbVisualStyle
  2
Conceptual
 70
     9
177
     2
291
     0
 71
     3
176
     1
 72
     2
176
     1
 73
     0
176
     1
 90
        0
176
     1
 40
-0.6
176
     1
 41
-30.0
176
     1
 62
     5
 63
     7
421
 16777215
176
     1
 74
     2
176
     1
 91
        2
176
     1
 64
     7
176
     1
 65
   257
176
     1
 75
     1
176
     1
175
     1
176
     1
 42
40.0
176
     1
 92
        8
176
     1
 66
     7
176
     1
 43
1.0
176
     1
 76
     1
176
     1
 77
     6
176
     1
 78
     2
176
     1
 67
     7
176
     1
 79
     3
176
     1
170
     0
176
     1
171
     0
176
     1
290
     0
176
     1
 93
        1
176
     1
 44
0.0
176
     1
173
     0
176
     1
  0
VISUALSTYLE
  5
35
102
{ACAD_REACTORS
330
2A
102
}
330
2A
100
AcDbVisualStyle
  2
Dim
 70
    11
177
     2
291
     1
 71
     2
176
     1
 72
     2
176
     1
 73
     0
176
     1
 90
        0
176
     1
 40
-0.6
176
     1
 41
-30.0
176
     1
 62
     5
 63
     7
421
 16777215
176
     1
 74
     1
176
     1
 91
        4
176
     1
 64
     7
176
     1
 65
   257
176
     1
 75
     1
176
     1
175
     1
176
     1
 42
1.0
176
     1
 92
        8
176
     1
 66
     7
176
     1
 43
1.0
176
     1
 76
     1
176
     1
 77
     6
176
     1
 78
     2
176
     1
 67
     7
176
     1
 79
     5
176
     1
170
     0
176
     1
171
     0
176
     1
290
     0
176
     1
 93
        1
176
     1
 44
-50.0
176
     1
173
     0
176
     1
  0
VISUALSTYLE
  5
39
102
{ACAD_REACTORS
330
2A
102
}
330
2A
100
AcDbVisualStyle
  2
Facepattern
 70
    15
177
     2
291
     1
 71
     2
176
     1
 72
     2
176
     1
 73
     0
176
     1
 90
        0
176
     1
 40
-0.6
176
     1
 41
-30.0
176
     1
 62
     5
 63
     7
421
 16777215
176
     1
 74
     1
176
     1
 91
        4
176
     1
 64
     7
176
     1
 65
   257
176
     1
 75
     1
176
     1
175
     1
176
     1
 42
1.0
176
     1
 92
        8
176
     1
 66
     7
176
     1
 43
1.0
176
     1
 76
     1
176
     1
 77
     6
176
     1
 78
     2
176
     1
 67
     7
176
     1
 79
     5
176
     1
170
     0
176
     1
171
     0
176
     1
290
     0
176
     1
 93
        1
176
     1
 44
0.0
176
     1
173
     0
176
     1
  0
VISUALSTYLE
  5
2B
102
{ACAD_REACTORS
330
2A
102
}
330
2A
100
AcDbVisualStyle
  2
Flat
 70
     0
177
     2
291
     1
 71
     2
176
     1
 72
     1
176
     1
 73
     1
176
     1
 90
        2
176
     1
 40
-0.6
176
     1
 41
30.0
176
     1
 62
     5
 63
     7
421
 16777215
176
     1
 74
     0
176
     1
 91
        4
176
     1
 64
     7
176
     1
 65
   257
176
     1
 75
     1
176
     1
175
     1
176
     1
 42
1.0
176
     1
 92
        8
176
     1
 66
     7
176
     1
 43
1.0
176
     1
 76
     1
176
     1
 77
     6
176
     1
 78
     2
176
     1
 67
     7
176
     1
 79
     5
176
     1
170
     0
176
     1
171
     0
176
     1
290
     0
176
     1
 93
       13
176
     1
 44
0.0
176
     1
173
     0
176
     1
  0
VISUALSTYLE
  5
2C
102
{ACAD_REACTORS
330
2A
102
}
330
2A
100
AcDbVisualStyle
  2
FlatWithEdges
 70
     1
177
     2
291
     1
 71
     2
176
     1
 72
     1
176
     1
 73
     1
176
     1
 90
        2
176
     1
 40
-0.6
176
     1
 41
30.0
176
     1
 62
     5
 63
     7
421
 16777215
176
     1
 74
     1
176
     1
 91
        4
176
     1
 64
     7
176
     1
 65
   257
176
     1
 75
     1
176
     1
175
     1
176
     1
 42
1.0
176
     1
 92
        0
176
     1
 66
   257
176
     1
 43
1.0
176
     1
 76
     1
176
     1
 77
     6
176
     1
 78
     2
176
     1
 67
     7
176
     1
 79
     5
176
     1
170
     0
176
     1
171
     0
176
     1
290
     0
176
     1
 93
       13
176
     1
 44
0.0
176
     1
173
     0
176
     1
  0
VISUALSTYLE
  5
2D
102
{ACAD_REACTORS
330
2A
102
}
330
2A
100
AcDbVisualStyle
  2
Gouraud
 70
     2
177
     2
291
     1
 71
     2
176
     1
 72
     2
176
     1
 73
     1
176
     1
 90
        2
176
     1
 40
-0.6
176
     1
 41
30.0
176
     1
 62
     5
 63
     7
421
 16777215
176
     1
 74
     0
176
     1
 91
        4
176
     1
 64
     7
176
     1
 65
   257
176
     1
 75
     1
176
     1
175
     1
176
     1
 42
1.0
176
     1
 92
        0
176
     1
 66
     7
176
     1
 43
1.0
176
     1
 76
     1
176
     1
 77
     6
176
     1
 78
     2
176
     1
 67
     7
176
     1
 79
     5
176
     1
170
     0
176
     1
171
     0
176
     1
290
     0
176
     1
 93
       13
176
     1
 44
0.0
176
     1
173
     0
176
     1
  0
VISUALSTYLE
  5
2E
102
{ACAD_REACTORS
330
2A
102
}
330
2A
100
AcDbVisualStyle
  2
GouraudWithEdges
 70
     3
177
     2
291
     1
 71
     2
176
     1
 72
     2
176
     1
 73
     1
176
     1
 90
        2
176
     1
 40
-0.6
176
     1
 41
30.0
176
     1
 62
     5
 63
     7
421
 16777215
176
     1
 74
     1
176
     1
 91
        4
176
     1
 64
     7
176
     1
 65
   257
176
     1
 75
     1
176
     1
175
     1
176
     1
 42
1.0
176
     1
 92
        0
176
     1
 66
   257
176
     1
 43
1.0
176
     1
 76
     1
176
     1
 77
     6
176
     1
 78
     2
176
     1
 67
     7
176
     1
 79
     5
176
     1
170
     0
176
     1
171
     0
176
     1
290
     0
176
     1
 93
       13
176
     1
 44
0.0
176
     1
173
     0
176
     1
  0
VISUALSTYLE
  5
38
102
{ACAD_REACTORS
330
2A
102
}
330
2A
100
AcDbVisualStyle
  2
Linepattern
 70
    14
177
     2
291
     1
 71
     2
176
     1
 72
     2
176
     1
 73
     0
176
     1
 90
        0
176
     1
 40
-0.6
176
     1
 41
-30.0
176
     1
 62
     5
 63
     7
421
 16777215
176
     1
 74
     1
176
     1
 91
        4
176
     1
 64
     7
176
     1
 65
   257
176
     1
 75
     7
176
     1
175
     7
176
     1
 42
1.0
176
     1
 92
        8
176
     1
 66
     7
176
     1
 43
1.0
176
     1
 76
     1
176
     1
 77
     6
176
     1
 78
     2
176
     1
 67
     7
176
     1
 79
     5
176
     1
170
     0
176
     1
171
     0
176
     1
290
     0
176
     1
 93
        1
176
     1
 44
0.0
176
     1
173
     0
176
     1
  0
VISUALSTYLE
  5
33
102
{ACAD_REACTORS
330
2A
102
}
330
2A
100
AcDbVisualStyle
  2
Realistic
 70
     8
177
     2
291
     0
 71
     2
176
     1
 72
     2
176
     1
 73
     0
176
     1
 90
        0
176
     1
 40
-0.6
176
     1
 41
-30.0
176
     1
 62
     5
 63
     7
421
 16777215
176
     1
 74
     1
176
     1
 91
        0
176
     1
 64
     7
176
     1
 65
   257
176
     1
 75
     1
176
     1
175
     1
176
     1
 42
1.0
176
     1
 92
        8
176
     1
 66
     8
424
  7895160
176
     1
 43
1.0
176
     1
 76
     1
176
     1
 77
     6
176
     1
 78
     2
176
     1
 67
     7
176
     1
 79
     5
176
     1
170
     0
176
     1
171
     0
176
     1
290
     0
176
     1
 93
       13
176
     1
 44
0.0
176
     1
173
     0
176
     1
  0
VISUALSTYLE
  5
37
102
{ACAD_REACTORS
330
2A
102
}
330
2A
100
AcDbVisualStyle
  2
Thicken
 70
    13
177
     2
291
     1
 71
     2
176
     1
 72
     2
176
     1
 73
     0
176
     1
 90
        0
176
     1
 40
-0.6
176
     1
 41
-30.0
176
     1
 62
     5
 63
     7
421
 16777215
176
     1
 74
     1
176
     1
 91
        4
176
     1
 64
     7
176
     1
 65
   257
176
     1
 75
     1
176
     1
175
     1
176
     1
 42
1.0
176
     1
 92
       12
176
     1
 66
     7
176
     1
 43
1.0
176
     1
 76
     1
176
     1
 77
     6
176
     1
 78
     2
176
     1
 67
     7
176
     1
 79
     5
176
     1
170
     0
176
     1
171
     0
176
     1
290
     0
176
     1
 93
        1
176
     1
 44
0.0
176
     1
173
     0
176
     1
  0
ENDSEC
  0
EOF
