  0
SECTION
  2
HEADER
  9
$ACADVER
  1
AC1024
  9
$ACADMAINTVER
 70
     6
  9
$DWGCODEPAGE
  3
ANSI_1252
  9
$INSBASE
 10
0.0
 20
0.0
 30
0.0
  9
$EXTMIN
 10
1.000000000000000E+20
 20
1.000000000000000E+20
 30
1.000000000000000E+20
  9
$EXTMAX
 10
-1.000000000000000E+20
 20
-1.000000000000000E+20
 30
-1.000000000000000E+20
  9
$LIMMIN
 10
0.0
 20
0.0
  9
$LIMMAX
 10
12.0
 20
9.0
  9
$ORTHOMODE
 70
     0
  9
$REGENMODE
 70
     1
  9
$FILLMODE
 70
     1
  9
$QTEXTMODE
 70
     0
  9
$MIRRTEXT
 70
     1
  9
$LTSCALE
 40
1.0
  9
$ATTMODE
 70
     1
  9
$TEXTSIZE
 40
0.2
  9
$TRACEWID
 40
0.05
  9
$TEXTSTYLE
  7
Standard
  9
$CLAYER
  8
0
  9
$CELTYPE
  6
ByLayer
  9
$CECOLOR
 62
   256
  9
$CELTSCALE
 40
1.0
  9
$DISPSILH
 70
     0
  9
$DIMSCALE
 40
1.0
  9
$DIMASZ
 40
0.18
  9
$DIMEXO
 40
0.0625
  9
$DIMDLI
 40
0.38
  9
$DIMRND
 40
0.0
  9
$DIMDLE
 40
0.0
  9
$DIMEXE
 40
0.18
  9
$DIMTP
 40
0.0
  9
$DIMTM
 40
0.0
  9
$DIMTXT
 40
0.18
  9
$DIMCEN
 40
0.09
  9
$DIMTSZ
 40
0.0
  9
$DIMTOL
 70
     0
  9
$DIMLIM
 70
     0
  9
$DIMTIH
 70
     1
  9
$DIMTOH
 70
     1
  9
$DIMSE1
 70
     0
  9
$DIMSE2
 70
     0
  9
$DIMTAD
 70
     0
  9
$DIMZIN
 70
     0
  9
$DIMBLK
  1

  9
$DIMASO
 70
     1
  9
$DIMSHO
 70
     1
  9
$DIMPOST
  1

  9
$DIMAPOST
  1

  9
$DIMALT
 70
     0
  9
$DIMALTD
 70
     2
  9
$DIMALTF
 40
25.4
  9
$DIMLFAC
 40
1.0
  9
$DIMTOFL
 70
     0
  9
$DIMTVP
 40
0.0
  9
$DIMTIX
 70
     0
  9
$DIMSOXD
 70
     0
  9
$DIMSAH
 70
     0
  9
$DIMBLK1
  1

  9
$DIMBLK2
  1

  9
$DIMSTYLE
  2
Standard
  9
$DIMCLRD
 70
     0
  9
$DIMCLRE
 70
     0
  9
$DIMCLRT
 70
     0
  9
$DIMTFAC
 40
1.0
  9
$DIMGAP
 40
0.09
  9
$DIMJUST
 70
     0
  9
$DIMSD1
 70
     0
  9
$DIMSD2
 70
     0
  9
$DIMTOLJ
 70
     1
  9
$DIMTZIN
 70
     0
  9
$DIMALTZ
 70
     0
  9
$DIMALTTZ
 70
     0
  9
$DIMUPT
 70
     0
  9
$DIMDEC
 70
     4
  9
$DIMTDEC
 70
     4
  9
$DIMALTU
 70
     2
  9
$DIMALTTD
 70
     2
  9
$DIMTXSTY
  7
Standard
  9
$DIMAUNIT
 70
     0
  9
$DIMADEC
 70
     0
  9
$DIMALTRND
 40
0.0
  9
$DIMAZIN
 70
     0
  9
$DIMDSEP
 70
    46
  9
$DIMATFIT
 70
     3
  9
$DIMFRAC
 70
     0
  9
$DIMLDRBLK
  1

  9
$DIMLUNIT
 70
     2
  9
$DIMLWD
 70
    -2
  9
$DIMLWE
 70
    -2
  9
$DIMTMOVE
 70
     0
  9
$DIMFXL
 40
1.0
  9
$DIMFXLON
 70
     0
  9
$DIMJOGANG
 40
0.7853981633974483
  9
$DIMTFILL
 70
     0
  9
$DIMTFILLCLR
 70
     0
  9
$DIMARCSYM
 70
     0
  9
$DIMLTYPE
  6

  9
$DIMLTEX1
  6

  9
$DIMLTEX2
  6

  9
$DIMTXTDIRECTION
 70
     0
  9
$LUNITS
 70
     2
  9
$LUPREC
 70
     4
  9
$SKETCHINC
 40
0.1
  9
$FILLETRAD
 40
0.5
  9
$AUNITS
 70
     0
  9
$AUPREC
 70
     0
  9
$MENU
  1
.
  9
$ELEVATION
 40
0.0
  9
$PELEVATION
 40
0.0
  9
$THICKNESS
 40
0.0
  9
$LIMCHECK
 70
     0
  9
$CHAMFERA
 40
0.5
  9
$CHAMFERB
 40
0.5
  9
$CHAMFERC
 40
1.0
  9
$CHAMFERD
 40
0.0
  9
$SKPOLY
 70
     0
  9
$TDCREATE
 40
2458144.448940567
  9
$TDUCREATE
 40
2458144.657273901
  9
$TDUPDATE
 40
2458144.44894059
  9
$TDUUPDATE
 40
2458144.657273924
  9
$TDINDWG
 40
0.0000000116
  9
$TDUSRTIMER
 40
0.0000000116
  9
$USRTIMER
 70
     1
  9
$ANGBASE
 50
0.0
  9
$ANGDIR
 70
     0
  9
$PDMODE
 70
     0
  9
$PDSIZE
 40
0.0
  9
$PLINEWID
 40
0.0
  9
$SPLFRAME
 70
     0
  9
$SPLINETYPE
 70
     6
  9
$SPLINESEGS
 70
     8
  9
$HANDSEED
  5
A2
  9
$SURFTAB1
 70
     6
  9
$SURFTAB2
 70
     6
  9
$SURFTYPE
 70
     6
  9
$SURFU
 70
     6
  9
$SURFV
 70
     6
  9
$UCSBASE
  2

  9
$UCSNAME
  2

  9
$UCSORG
 10
0.0
 20
0.0
 30
0.0
  9
$UCSXDIR
 10
1.0
 20
0.0
 30
0.0
  9
$UCSYDIR
 10
0.0
 20
1.0
 30
0.0
  9
$UCSORTHOREF
  2

  9
$UCSORTHOVIEW
 70
     0
  9
$UCSORGTOP
 10
0.0
 20
0.0
 30
0.0
  9
$UCSORGBOTTOM
 10
0.0
 20
0.0
 30
0.0
  9
$UCSORGLEFT
 10
0.0
 20
0.0
 30
0.0
  9
$UCSORGRIGHT
 10
0.0
 20
0.0
 30
0.0
  9
$UCSORGFRONT
 10
0.0
 20
0.0
 30
0.0
  9
$UCSORGBACK
 10
0.0
 20
0.0
 30
0.0
  9
$PUCSBASE
  2

  9
$PUCSNAME
  2

  9
$PUCSORG
 10
0.0
 20
0.0
 30
0.0
  9
$PUCSXDIR
 10
1.0
 20
0.0
 30
0.0
  9
$PUCSYDIR
 10
0.0
 20
1.0
 30
0.0
  9
$PUCSORTHOREF
  2

  9
$PUCSORTHOVIEW
 70
     0
  9
$PUCSORGTOP
 10
0.0
 20
0.0
 30
0.0
  9
$PUCSORGBOTTOM
 10
0.0
 20
0.0
 30
0.0
  9
$PUCSORGLEFT
 10
0.0
 20
0.0
 30
0.0
  9
$PUCSORGRIGHT
 10
0.0
 20
0.0
 30
0.0
  9
$PUCSORGFRONT
 10
0.0
 20
0.0
 30
0.0
  9
$PUCSORGBACK
 10
0.0
 20
0.0
 30
0.0
  9
$USERI1
 70
     0
  9
$USERI2
 70
     0
  9
$USERI3
 70
     0
  9
$USERI4
 70
     0
  9
$USERI5
 70
     0
  9
$USERR1
 40
0.0
  9
$USERR2
 40
0.0
  9
$USERR3
 40
0.0
  9
$USERR4
 40
0.0
  9
$USERR5
 40
0.0
  9
$WORLDVIEW
 70
     1
  9
$SHADEDGE
 70
     3
  9
$SHADEDIF
 70
    70
  9
$TILEMODE
 70
     1
  9
$MAXACTVP
 70
    64
  9
$PINSBASE
 10
0.0
 20
0.0
 30
0.0
  9
$PLIMCHECK
 70
     0
  9
$PEXTMIN
 10
1.000000000000000E+20
 20
1.000000000000000E+20
 30
1.000000000000000E+20
  9
$PEXTMAX
 10
-1.000000000000000E+20
 20
-1.000000000000000E+20
 30
-1.000000000000000E+20
  9
$PLIMMIN
 10
0.0
 20
0.0
  9
$PLIMMAX
 10
12.0
 20
9.0
  9
$UNITMODE
 70
     0
  9
$VISRETAIN
 70
     1
  9
$PLINEGEN
 70
     0
  9
$PSLTSCALE
 70
     1
  9
$TREEDEPTH
 70
  3020
  9
$CMLSTYLE
  2
Standard
  9
$CMLJUST
 70
     0
  9
$CMLSCALE
 40
1.0
  9
$PROXYGRAPHICS
 70
     1
  9
$MEASUREMENT
 70
     0
  9
$CELWEIGHT
370
    -1
  9
$ENDCAPS
280
     0
  9
$JOINSTYLE
280
     0
  9
$LWDISPLAY
290
     1
  9
$INSUNITS
 70
     1
  9
$HYPERLINKBASE
  1

  9
$STYLESHEET
  1

  9
$XEDIT
290
     1
  9
$CEPSNTYPE
380
     0
  9
$PSTYLEMODE
290
     1
  9
$FINGERPRINTGUID
  2
{AFBE7FC9-3865-4874-8BA6-0CBCD91C336E}
  9
$VERSIONGUID
  2
{FAEB1C32-E019-11D5-929B-00C0DF256EC4}
  9
$EXTNAMES
290
     1
  9
$PSVPSCALE
 40
0.0
  9
$OLESTARTUP
290
     0
  9
$SORTENTS
280
   127
  9
$INDEXCTL
280
     0
  9
$HIDETEXT
280
     1
  9
$XCLIPFRAME
280
     2
  9
$HALOGAP
280
     0
  9
$OBSCOLOR
 70
   257
  9
$OBSLTYPE
280
     0
  9
$INTERSECTIONDISPLAY
280
     0
  9
$INTERSECTIONCOLOR
 70
   257
  9
$DIMASSOC
280
     2
  9
$PROJECTNAME
  1

  9
$CAMERADISPLAY
290
     0
  9
$LENSLENGTH
 40
50.0
  9
$CAMERAHEIGHT
 40
0.0
  9
$STEPSPERSEC
 40
2.0
  9
$STEPSIZE
 40
6.0
  9
$3DDWFPREC
 40
2.0
  9
$PSOLWIDTH
 40
0.25
  9
$PSOLHEIGHT
 40
4.0
  9
$LOFTANG1
 40
1.570796326794897
  9
$LOFTANG2
 40
1.570796326794897
  9
$LOFTMAG1
 40
0.0
  9
$LOFTMAG2
 40
0.0
  9
$LOFTPARAM
 70
     7
  9
$LOFTNORMALS
280
     1
  9
$LATITUDE
 40
37.795
  9
$LONGITUDE
 40
-122.394
  9
$NORTHDIRECTION
 40
0.0
  9
$TIMEZONE
 70
 -8000
  9
$LIGHTGLYPHDISPLAY
280
     1
  9
$TILEMODELIGHTSYNCH
280
     1
  9
$CMATERIAL
347
3C
  9
$SOLIDHIST
280
     1
  9
$SHOWHIST
280
     1
  9
$DWFFRAME
280
     2
  9
$DGNFRAME
280
     2
  9
$REALWORLDSCALE
290
     1
  9
$INTERFERECOLOR
 62
   256
  9
$CSHADOW
280
     0
  9
$SHADOWPLANELOCATION
 40
0.0
  0
ENDSEC
  0
SECTION
  2
CLASSES
  0
CLASS
  1
ACDBDICTIONARYWDFLT
  2
AcDbDictionaryWithDefault
  3
ObjectDBX Classes
 90
        0
 91
        4
280
     0
281
     0
  0
CLASS
  1
VISUALSTYLE
  2
AcDbVisualStyle
  3
ObjectDBX Classes
 90
     4095
 91
        4
280
     0
281
     0
  0
CLASS
  1
MATERIAL
  2
AcDbMaterial
  3
ObjectDBX Classes
 90
     1153
 91
        4
280
     0
281
     0
  0
CLASS
  1
SUN
  2
AcDbSun
  3
SCENEOE
 90
     1024
 91
        4
280
     0
281
     0
  0
ENDSEC
  0
SECTION
  2
TABLES
  0
TABLE
  2
VPORT
  5
8
330
0
100
AcDbSymbolTable
 70
     1
  0
VPORT
  5
29
330
8
100
AcDbSymbolTableRecord
100
AcDbViewportTableRecord
  2
*Active
 70
     0
 10
0.0
 20
0.0
 11
1.0
 21
1.0
 12
0.0
 22
0.0
 13
0.0
 23
0.0
 14
0.5
 24
0.5
 15
0.5
 25
0.5
 16
0.0
 26
0.0
 36
1.0
 17
216.0
 27
216.0
 37
0.0
 40
432.0
 41
1.0
 42
50.0
 43
0.0
 44
0.0
 50
0.0
 51
0.0
 71
     0
 72
   100
 73
     1
 74
     3
 75
     0
 76
     0
 77
     0
 78
     0
281
     0
 65
     1
110
0.0
120
0.0
130
0.0
111
1.0
121
0.0
131
0.0
112
0.0
122
1.0
132
0.0
 79
     0
146
0.0
 60
     3
 61
     5
292
     1
282
     1
141
0.0
142
0.0
 63
   250
361
3F
  0
ENDTAB
  0
TABLE
  2
LTYPE
  5
5
330
0
100
AcDbSymbolTable
 70
     1
  0
LTYPE
  5
14
330
5
100
AcDbSymbolTableRecord
100
AcDbLinetypeTableRecord
  2
ByBlock
 70
     0
  3

 72
    65
 73
     0
 40
0.0
  0
LTYPE
  5
15
330
5
100
AcDbSymbolTableRecord
100
AcDbLinetypeTableRecord
  2
ByLayer
 70
     0
  3

 72
    65
 73
     0
 40
0.0
  0
LTYPE
  5
16
330
5
100
AcDbSymbolTableRecord
100
AcDbLinetypeTableRecord
  2
Continuous
 70
     0
  3
Solid line
 72
    65
 73
     0
 40
0.0
  0
ENDTAB
  0
TABLE
  2
LAYER
  5
2
330
0
100
AcDbSymbolTable
 70
     2
  0
LAYER
  5
10
330
2
100
AcDbSymbolTableRecord
100
AcDbLayerTableRecord
  2
0
 70
     0
 62
     7
  6
Continuous
370
    -3
390
F
347
3E
  0
LAYER
  5
40
330
2
100
AcDbSymbolTableRecord
100
AcDbLayerTableRecord
  2
Calque 1
 70
     0
 62
     7
  6
Continuous
370
    -3
390
F
347
3E
  0
ENDTAB
  0
TABLE
  2
STYLE
  5
3
330
0
100
AcDbSymbolTable
 70
     1
  0
STYLE
  5
11
330
3
100
AcDbSymbolTableRecord
100
AcDbTextStyleTableRecord
  2
Standard
 70
     0
 40
0.0
 41
1.0
 50
0.0
 71
     0
 42
0.2
  3
txt
  4

  0
ENDTAB
  0
TABLE
  2
VIEW
  5
6
330
0
100
AcDbSymbolTable
 70
     0
  0
ENDTAB
  0
TABLE
  2
UCS
  5
7
330
0
100
AcDbSymbolTable
 70
     0
  0
ENDTAB
  0
TABLE
  2
APPID
  5
9
330
0
100
AcDbSymbolTable
 70
     1
  0
APPID
  5
12
330
9
100
AcDbSymbolTableRecord
100
AcDbRegAppTableRecord
  2
ACAD
 70
     0
  0
ENDTAB
  0
TABLE
  2
DIMSTYLE
  5
A
330
0
100
AcDbSymbolTable
 70
     1
100
AcDbDimStyleTable
  0
DIMSTYLE
105
27
330
A
100
AcDbSymbolTableRecord
100
AcDbDimStyleTableRecord
  2
Standard
 70
     0
178
     0
340
11
  0
ENDTAB
  0
TABLE
  2
BLOCK_RECORD
  5
1
330
0
100
AcDbSymbolTable
 70
    12
  0
BLOCK_RECORD
  5
1F
330
1
100
AcDbSymbolTableRecord
100
AcDbBlockTableRecord
  2
*Model_Space
340
22
 70
     0
280
     1
281
     0
  0
BLOCK_RECORD
  5
1B
330
1
100
AcDbSymbolTableRecord
100
AcDbBlockTableRecord
  2
*Paper_Space
340
1E
 70
     0
280
     1
281
     0
  0
BLOCK_RECORD
  5
23
330
1
100
AcDbSymbolTableRecord
100
AcDbBlockTableRecord
  2
*Paper_Space0
340
26
 70
     0
280
     1
281
     0
  0
BLOCK_RECORD
  5
41
330
1
100
AcDbSymbolTableRecord
100
AcDbBlockTableRecord
  2
block 2
340
0
102
{BLKREFS
331
42
102
}
 70
     0
280
     1
281
     0
  0
BLOCK_RECORD
  5
45
330
1
100
AcDbSymbolTableRecord
100
AcDbBlockTableRecord
  2
block 3
340
0
102
{BLKREFS
331
46
102
}
 70
     0
280
     1
281
     0
  0
BLOCK_RECORD
  5
4D
330
1
100
AcDbSymbolTableRecord
100
AcDbBlockTableRecord
  2
block 4
340
0
102
{BLKREFS
331
4E
102
}
 70
     0
280
     1
281
     0
  0
BLOCK_RECORD
  5
51
330
1
100
AcDbSymbolTableRecord
100
AcDbBlockTableRecord
  2
block 5
340
0
102
{BLKREFS
331
52
102
}
 70
     0
280
     1
281
     0
  0
BLOCK_RECORD
  5
57
330
1
100
AcDbSymbolTableRecord
100
AcDbBlockTableRecord
  2
block 6
340
0
102
{BLKREFS
331
58
102
}
 70
     0
280
     1
281
     0
  0
BLOCK_RECORD
  5
68
330
1
100
AcDbSymbolTableRecord
100
AcDbBlockTableRecord
  2
block 7
340
0
102
{BLKREFS
331
69
102
}
 70
     0
280
     1
281
     0
  0
BLOCK_RECORD
  5
6E
330
1
100
AcDbSymbolTableRecord
100
AcDbBlockTableRecord
  2
block 8
340
0
102
{BLKREFS
331
6F
102
}
 70
     0
280
     1
281
     0
  0
BLOCK_RECORD
  5
72
330
1
100
AcDbSymbolTableRecord
100
AcDbBlockTableRecord
  2
block 9
340
0
102
{BLKREFS
331
73
102
}
 70
     0
280
     1
281
     0
  0
BLOCK_RECORD
  5
8C
330
1
100
AcDbSymbolTableRecord
100
AcDbBlockTableRecord
  2
block 10
340
0
102
{BLKREFS
331
8D
102
}
 70
     0
280
     1
281
     0
  0
BLOCK_RECORD
  5
90
330
1
100
AcDbSymbolTableRecord
100
AcDbBlockTableRecord
  2
block 11
340
0
102
{BLKREFS
331
91
102
}
 70
     0
280
     1
281
     0
  0
BLOCK_RECORD
  5
98
330
1
100
AcDbSymbolTableRecord
100
AcDbBlockTableRecord
  2
block 12
340
0
102
{BLKREFS
331
99
102
}
 70
     0
280
     1
281
     0
  0
ENDTAB
  0
ENDSEC
  0
SECTION
  2
BLOCKS
  0
BLOCK
  5
20
330
1F
100
AcDbEntity
  8
0
100
AcDbBlockBegin
  2
*Model_Space
 70
     0
 10
0.0
 20
0.0
 30
0.0
  3
*Model_Space
  1

  0
ENDBLK
  5
21
330
1F
100
AcDbEntity
  8
0
100
AcDbBlockEnd
  0
BLOCK
  5
1C
330
1B
100
AcDbEntity
 67
     1
  8
0
100
AcDbBlockBegin
  2
*Paper_Space
 70
     0
 10
0.0
 20
0.0
 30
0.0
  3
*Paper_Space
  1

  0
ENDBLK
  5
1D
330
1B
100
AcDbEntity
 67
     1
  8
0
100
AcDbBlockEnd
  0
BLOCK
  5
24
330
23
100
AcDbEntity
  8
0
100
AcDbBlockBegin
  2
*Paper_Space0
 70
     0
 10
0.0
 20
0.0
 30
0.0
  3
*Paper_Space0
  1

  0
ENDBLK
  5
25
330
23
100
AcDbEntity
  8
0
100
AcDbBlockEnd
  0
BLOCK
  5
43
330
41
100
AcDbEntity
  8
0
100
AcDbBlockBegin
  2
block 2
 70
     0
 10
0.0
 20
0.0
 30
0.0
  3
block 2
  1

  0
INSERT
  5
46
330
41
100
AcDbEntity
  8
Calque 1
100
AcDbBlockReference
  2
block 3
 10
0.0
 20
0.0
 30
0.0
  0
INSERT
  5
6F
330
41
100
AcDbEntity
  8
Calque 1
100
AcDbBlockReference
  2
block 8
 10
0.0
 20
0.0
 30
0.0
  0
ENDBLK
  5
44
330
41
100
AcDbEntity
  8
0
100
AcDbBlockEnd
  0
BLOCK
  5
47
330
45
100
AcDbEntity
  8
0
100
AcDbBlockBegin
  2
block 3
 70
     0
 10
0.0
 20
0.0
 30
0.0
  3
block 3
  1

  0
SPLINE
  5
49
330
45
100
AcDbEntity
  8
Calque 1
370
     0
100
AcDbSpline
210
0.0
220
0.0
230
1.0
 70
    11
 71
     3
 72
    59
 73
    55
 74
     0
 42
0.0000000001
 43
0.0000000001
 12
1.0
 22
0.0
 32
0.0
 13
1.0
 23
0.0
 33
0.0
 40
0.0
 40
0.0
 40
0.0
 40
0.0
 40
1.0
 40
1.0
 40
1.0
 40
2.0
 40
2.0
 40
2.0
 40
3.0
 40
3.0
 40
3.0
 40
4.0
 40
4.0
 40
4.0
 40
5.0
 40
5.0
 40
5.0
 40
6.0
 40
6.0
 40
6.0
 40
7.0
 40
7.0
 40
7.0
 40
8.0
 40
8.0
 40
8.0
 40
9.0
 40
9.0
 40
9.0
 40
10.0
 40
10.0
 40
10.0
 40
11.0
 40
11.0
 40
11.0
 40
12.0
 40
12.0
 40
12.0
 40
13.0
 40
13.0
 40
13.0
 40
14.0
 40
14.0
 40
14.0
 40
15.0
 40
15.0
 40
15.0
 40
16.0
 40
16.0
 40
16.0
 40
17.0
 40
17.0
 40
17.0
 40
18.0
 40
18.0
 40
18.0
 40
18.0
 10
313.2999877929688
 20
261.8999938964844
 30
0.0
 10
322.3999938964844
 20
268.5
 30
0.0
 10
325.0
 20
281.3999938964844
 30
0.0
 10
320.1999816894531
 20
290.8999938964844
 30
0.0
 10
318.6999816894531
 20
293.7999877929688
 30
0.0
 10
316.1999816894531
 20
295.6999969482422
 30
0.0
 10
314.4999694824219
 20
298.3999938964844
 30
0.0
 10
311.9999694824219
 20
302.2999877929688
 30
0.0
 10
313.7999572753906
 20
306.2999954223633
 30
0.0
 10
309.2999572753906
 20
315.3999938964844
 30
0.0
 10
294.2999572753906
 20
345.3999938964844
 30
0.0
 10
264.2999572753906
 20
332.7999954223633
 30
0.0
 10
261.2999572753906
 20
335.5999908447266
 30
0.0
 10
258.5999450683594
 20
338.0999908447266
 30
0.0
 10
255.5999603271484
 20
339.9999923706055
 30
0.0
 10
252.199951171875
 20
341.2999877929688
 30
0.0
 10
241.9999542236328
 20
345.4999847412109
 30
0.0
 10
230.0999450683594
 20
344.2999877929688
 30
0.0
 10
221.0999450683594
 20
337.8999862670898
 30
0.0
 10
217.3999481201172
 20
343.099983215332
 30
0.0
 10
210.8999481201172
 20
344.9999847412109
 30
0.0
 10
204.699951171875
 20
344.099983215332
 30
0.0
 10
196.8999481201172
 20
342.8999862670898
 30
0.0
 10
190.7999572753906
 20
337.4999847412109
 30
0.0
 10
185.2999572753906
 20
332.099983215332
 30
0.0
 10
178.199951171875
 20
335.599983215332
 30
0.0
 10
149.0999603271484
 20
331.6999816894531
 30
0.0
 10
147.8999633789062
 20
319.8999862670898
 30
0.0
 10
122.0999603271484
 20
330.7999877929688
 30
0.0
 10
99.09996032714844
 20
290.4999847412109
 30
0.0
 10
110.0999603271484
 20
280.0999908447266
 30
0.0
 10
87.89996337890625
 20
274.9999847412109
 30
0.0
 10
85.49996185302734
 20
220.7999877929688
 30
0.0
 10
109.1999588012695
 20
221.7999877929688
 30
0.0
 10
93.99996185302734
 20
197.2999877929688
 30
0.0
 10
105.9999618530273
 20
172.0999755859375
 30
0.0
 10
139.199951171875
 20
178.1999816894531
 30
0.0
 10
138.3999481201172
 20
173.2999877929688
 30
0.0
 10
137.8999481201172
 20
167.9999694824219
 30
0.0
 10
139.7999572753906
 20
163.2999877929688
 30
0.0
 10
145.699951171875
 20
148.8999938964844
 30
0.0
 10
182.0999603271484
 20
151.3999938964844
 30
0.0
 10
184.199951171875
 20
155.2999877929688
 30
0.0
 10
199.2999572753906
 20
143.6999816894531
 30
0.0
 10
237.8999481201172
 20
147.0
 30
0.0
 10
240.199951171875
 20
158.1999816894531
 30
0.0
 10
260.8999633789062
 20
149.1999816894531
 30
0.0
 10
296.0999450683594
 20
155.1999816894531
 30
0.0
 10
291.2999572753906
 20
173.8999938964844
 30
0.0
 10
309.9999694824219
 20
170.3999938964844
 30
0.0
 10
328.5999450683594
 20
191.7999877929688
 30
0.0
 10
314.8999633789062
 20
218.3999938964844
 30
0.0
 10
328.5
 20
224.3000030517578
 30
0.0
 10
332.7999877929688
 20
244.8000030517578
 30
0.0
 10
313.2999877929688
 20
261.8999938964844
 30
0.0
  0
HATCH
  5
4A
330
45
100
AcDbEntity
  8
Calque 1
 62
    23
420
 13792324
100
AcDbHatch
 10
0.0
 20
0.0
 30
0.0
210
0.0
220
0.0
230
1.0
  2
SOLID
 70
     1
 71
     0
 91
        1
 92
        1
 93
        1
 72
     4
 94
        3
 73
     0
 74
     1
 95
       59
 96
       55
 40
0.0
 40
0.0
 40
0.0
 40
0.0
 40
1.0
 40
1.0
 40
1.0
 40
2.0
 40
2.0
 40
2.0
 40
3.0
 40
3.0
 40
3.0
 40
4.0
 40
4.0
 40
4.0
 40
5.0
 40
5.0
 40
5.0
 40
6.0
 40
6.0
 40
6.0
 40
7.0
 40
7.0
 40
7.0
 40
8.0
 40
8.0
 40
8.0
 40
9.0
 40
9.0
 40
9.0
 40
10.0
 40
10.0
 40
10.0
 40
11.0
 40
11.0
 40
11.0
 40
12.0
 40
12.0
 40
12.0
 40
13.0
 40
13.0
 40
13.0
 40
14.0
 40
14.0
 40
14.0
 40
15.0
 40
15.0
 40
15.0
 40
16.0
 40
16.0
 40
16.0
 40
17.0
 40
17.0
 40
17.0
 40
18.0
 40
18.0
 40
18.0
 40
18.0
 10
313.2999877929688
 20
261.8999938964844
 10
322.3999938964844
 20
268.5
 10
325.0
 20
281.3999938964844
 10
320.1999816894531
 20
290.8999938964844
 10
318.6999816894531
 20
293.7999877929688
 10
316.1999816894531
 20
295.6999969482422
 10
314.4999694824219
 20
298.3999938964844
 10
311.9999694824219
 20
302.2999877929688
 10
313.7999572753906
 20
306.2999954223633
 10
309.2999572753906
 20
315.3999938964844
 10
294.2999572753906
 20
345.3999938964844
 10
264.2999572753906
 20
332.7999954223633
 10
261.2999572753906
 20
335.5999908447266
 10
258.5999450683594
 20
338.0999908447266
 10
255.5999603271484
 20
339.9999923706055
 10
252.199951171875
 20
341.2999877929688
 10
241.9999542236328
 20
345.4999847412109
 10
230.0999450683594
 20
344.2999877929688
 10
221.0999450683594
 20
337.8999862670898
 10
217.3999481201172
 20
343.099983215332
 10
210.8999481201172
 20
344.9999847412109
 10
204.699951171875
 20
344.099983215332
 10
196.8999481201172
 20
342.8999862670898
 10
190.7999572753906
 20
337.4999847412109
 10
185.2999572753906
 20
332.099983215332
 10
178.199951171875
 20
335.599983215332
 10
149.0999603271484
 20
331.6999816894531
 10
147.8999633789062
 20
319.8999862670898
 10
122.0999603271484
 20
330.7999877929688
 10
99.09996032714844
 20
290.4999847412109
 10
110.0999603271484
 20
280.0999908447266
 10
87.89996337890625
 20
274.9999847412109
 10
85.49996185302734
 20
220.7999877929688
 10
109.1999588012695
 20
221.7999877929688
 10
93.99996185302734
 20
197.2999877929688
 10
105.9999618530273
 20
172.0999755859375
 10
139.199951171875
 20
178.1999816894531
 10
138.3999481201172
 20
173.2999877929688
 10
137.8999481201172
 20
167.9999694824219
 10
139.7999572753906
 20
163.2999877929688
 10
145.699951171875
 20
148.8999938964844
 10
182.0999603271484
 20
151.3999938964844
 10
184.199951171875
 20
155.2999877929688
 10
199.2999572753906
 20
143.6999816894531
 10
237.8999481201172
 20
147.0
 10
240.199951171875
 20
158.1999816894531
 10
260.8999633789062
 20
149.1999816894531
 10
296.0999450683594
 20
155.1999816894531
 10
291.2999572753906
 20
173.8999938964844
 10
309.9999694824219
 20
170.3999938964844
 10
328.5999450683594
 20
191.7999877929688
 10
314.8999633789062
 20
218.3999938964844
 10
328.5
 20
224.3000030517578
 10
332.7999877929688
 20
244.8000030517578
 10
313.2999877929688
 20
261.8999938964844
 97
        0
 97
        0
 75
     2
 76
     1
 98
        0
  0
SPLINE
  5
4B
330
45
100
AcDbEntity
  8
Calque 1
370
     0
100
AcDbSpline
210
0.0
220
0.0
230
1.0
 70
    11
 71
     3
 72
    26
 73
    22
 74
     0
 42
0.0000000001
 43
0.0000000001
 12
1.0
 22
0.0
 32
0.0
 13
1.0
 23
0.0
 33
0.0
 40
0.0
 40
0.0
 40
0.0
 40
0.0
 40
1.0
 40
1.0
 40
1.0
 40
2.0
 40
2.0
 40
2.0
 40
3.0
 40
3.0
 40
3.0
 40
4.0
 40
4.0
 40
4.0
 40
5.0
 40
5.0
 40
5.0
 40
6.0
 40
6.0
 40
6.0
 40
7.0
 40
7.0
 40
7.0
 40
7.0
 10
275.2999877929688
 20
291.5
 30
0.0
 10
262.2999877929688
 20
301.3000030517578
 30
0.0
 10
244.5999908447266
 20
296.8000030517578
 30
0.0
 10
236.4999847412109
 20
284.0
 30
0.0
 10
221.4999847412109
 20
289.5
 30
0.0
 10
204.8999786376953
 20
290.0
 30
0.0
 10
189.5999755859375
 20
284.6999969482422
 30
0.0
 10
187.3999786376953
 20
289.3999938964844
 30
0.0
 10
183.8999786376953
 20
293.5
 30
0.0
 10
179.1999816894531
 20
296.0999908447266
 30
0.0
 10
152.5999755859375
 20
310.9999923706055
 30
0.0
 10
130.7999877929688
 20
273.5999908447266
 30
0.0
 10
156.6999816894531
 20
259.2999877929688
 30
0.0
 10
131.1999816894531
 20
226.6999816894531
 30
0.0
 10
160.2999877929688
 20
167.0
 30
0.0
 10
229.9999847412109
 20
178.5999908447266
 30
0.0
 10
277.7999877929688
 20
186.4999847412109
 30
0.0
 10
283.5
 20
241.3999938964844
 30
0.0
 10
271.5999755859375
 20
257.0999908447266
 30
0.0
 10
286.2999877929688
 20
265.1999969482422
 30
0.0
 10
287.8999938964844
 20
282.0
 30
0.0
 10
275.2999877929688
 20
291.5
 30
0.0
  0
HATCH
  5
4C
330
45
100
AcDbEntity
  8
Calque 1
 62
    43
420
 13742170
100
AcDbHatch
 10
0.0
 20
0.0
 30
0.0
210
0.0
220
0.0
230
1.0
  2
SOLID
 70
     1
 71
     0
 91
        1
 92
        1
 93
        1
 72
     4
 94
        3
 73
     0
 74
     1
 95
       26
 96
       22
 40
0.0
 40
0.0
 40
0.0
 40
0.0
 40
1.0
 40
1.0
 40
1.0
 40
2.0
 40
2.0
 40
2.0
 40
3.0
 40
3.0
 40
3.0
 40
4.0
 40
4.0
 40
4.0
 40
5.0
 40
5.0
 40
5.0
 40
6.0
 40
6.0
 40
6.0
 40
7.0
 40
7.0
 40
7.0
 40
7.0
 10
275.2999877929688
 20
291.5
 10
262.2999877929688
 20
301.3000030517578
 10
244.5999908447266
 20
296.8000030517578
 10
236.4999847412109
 20
284.0
 10
221.4999847412109
 20
289.5
 10
204.8999786376953
 20
290.0
 10
189.5999755859375
 20
284.6999969482422
 10
187.3999786376953
 20
289.3999938964844
 10
183.8999786376953
 20
293.5
 10
179.1999816894531
 20
296.0999908447266
 10
152.5999755859375
 20
310.9999923706055
 10
130.7999877929688
 20
273.5999908447266
 10
156.6999816894531
 20
259.2999877929688
 10
131.1999816894531
 20
226.6999816894531
 10
160.2999877929688
 20
167.0
 10
229.9999847412109
 20
178.5999908447266
 10
277.7999877929688
 20
186.4999847412109
 10
283.5
 20
241.3999938964844
 10
271.5999755859375
 20
257.0999908447266
 10
286.2999877929688
 20
265.1999969482422
 10
287.8999938964844
 20
282.0
 10
275.2999877929688
 20
291.5
 97
        0
 97
        0
 75
     2
 76
     1
 98
        0
  0
INSERT
  5
4E
330
45
100
AcDbEntity
  8
Calque 1
100
AcDbBlockReference
  2
block 4
 10
0.0
 20
0.0
 30
0.0
  0
SPLINE
  5
5D
330
45
100
AcDbEntity
  8
Calque 1
370
     0
100
AcDbSpline
210
0.0
220
0.0
230
1.0
 70
    11
 71
     3
 72
    23
 73
    19
 74
     0
 42
0.0000000001
 43
0.0000000001
 12
1.0
 22
0.0
 32
0.0
 13
1.0
 23
0.0
 33
0.0
 40
0.0
 40
0.0
 40
0.0
 40
0.0
 40
1.0
 40
1.0
 40
1.0
 40
2.0
 40
2.0
 40
2.0
 40
3.0
 40
3.0
 40
3.0
 40
4.0
 40
4.0
 40
4.0
 40
5.0
 40
5.0
 40
5.0
 40
6.0
 40
6.0
 40
6.0
 40
6.0
 10
217.6999969482422
 20
218.0
 30
0.0
 10
217.3999938964844
 20
218.6000061035156
 30
0.0
 10
216.8999938964844
 20
218.6999969482422
 30
0.0
 10
216.3999938964844
 20
218.6999969482422
 30
0.0
 10
214.3999938964844
 20
219.3999938964844
 30
0.0
 10
210.3999938964844
 20
219.3999938964844
 30
0.0
 10
208.2999877929688
 20
219.3999938964844
 30
0.0
 10
195.1999816894531
 20
220.2999877929688
 30
0.0
 10
202.3999938964844
 20
208.1999969482422
 30
0.0
 10
208.2999877929688
 20
206.3999938964844
 30
0.0
 10
208.1999816894531
 20
204.0
 30
0.0
 10
208.1999816894531
 20
201.6999969482422
 30
0.0
 10
209.5999908447266
 20
201.6999969482422
 30
0.0
 10
211.2999877929688
 20
201.6999969482422
 30
0.0
 10
210.5999908447266
 20
203.5999908447266
 30
0.0
 10
210.5999908447266
 20
206.0999908447266
 30
0.0
 10
217.3000030517578
 20
206.6999969482422
 30
0.0
 10
221.1000061035156
 20
215.1000061035156
 30
0.0
 10
217.6999969482422
 20
218.0
 30
0.0
  0
SPLINE
  5
5E
330
45
100
AcDbEntity
  8
Calque 1
370
     0
100
AcDbSpline
210
0.0
220
0.0
230
1.0
 70
    11
 71
     3
 72
    14
 73
    10
 74
     0
 42
0.0000000001
 43
0.0000000001
 12
1.0
 22
0.0
 32
0.0
 13
1.0
 23
0.0
 33
0.0
 40
0.0
 40
0.0
 40
0.0
 40
0.0
 40
1.0
 40
1.0
 40
1.0
 40
2.0
 40
2.0
 40
2.0
 40
3.0
 40
3.0
 40
3.0
 40
3.0
 10
205.1999969482422
 20
211.8000030517578
 30
0.0
 10
204.1999969482422
 20
213.1000061035156
 30
0.0
 10
202.3000030517578
 20
216.0
 30
0.0
 10
204.3999938964844
 20
217.0
 30
0.0
 10
212.8999938964844
 20
216.8000030517578
 30
0.0
 10
206.0999908447266
 20
217.0
 30
0.0
 10
215.0999908447266
 20
216.3999938964844
 30
0.0
 10
218.8999938964844
 20
214.3999938964844
 30
0.0
 10
212.0
 20
203.3000030517578
 30
0.0
 10
205.1999969482422
 20
211.8000030517578
 30
0.0
  0
HATCH
  5
5F
330
45
100
AcDbEntity
  8
Calque 1
 62
   250
420
  3421236
100
AcDbHatch
 10
0.0
 20
0.0
 30
0.0
210
0.0
220
0.0
230
1.0
  2
SOLID
 70
     1
 71
     0
 91
        2
 92
        1
 93
        1
 72
     4
 94
        3
 73
     0
 74
     1
 95
       23
 96
       19
 40
0.0
 40
0.0
 40
0.0
 40
0.0
 40
1.0
 40
1.0
 40
1.0
 40
2.0
 40
2.0
 40
2.0
 40
3.0
 40
3.0
 40
3.0
 40
4.0
 40
4.0
 40
4.0
 40
5.0
 40
5.0
 40
5.0
 40
6.0
 40
6.0
 40
6.0
 40
6.0
 10
217.6999969482422
 20
218.0
 10
217.3999938964844
 20
218.6000061035156
 10
216.8999938964844
 20
218.6999969482422
 10
216.3999938964844
 20
218.6999969482422
 10
214.3999938964844
 20
219.3999938964844
 10
210.3999938964844
 20
219.3999938964844
 10
208.2999877929688
 20
219.3999938964844
 10
195.1999816894531
 20
220.2999877929688
 10
202.3999938964844
 20
208.1999969482422
 10
208.2999877929688
 20
206.3999938964844
 10
208.1999816894531
 20
204.0
 10
208.1999816894531
 20
201.6999969482422
 10
209.5999908447266
 20
201.6999969482422
 10
211.2999877929688
 20
201.6999969482422
 10
210.5999908447266
 20
203.5999908447266
 10
210.5999908447266
 20
206.0999908447266
 10
217.3000030517578
 20
206.6999969482422
 10
221.1000061035156
 20
215.1000061035156
 10
217.6999969482422
 20
218.0
 97
        0
 97
        0
 92
        1
 93
        1
 72
     4
 94
        3
 73
     0
 74
     1
 95
       14
 96
       10
 40
0.0
 40
0.0
 40
0.0
 40
0.0
 40
1.0
 40
1.0
 40
1.0
 40
2.0
 40
2.0
 40
2.0
 40
3.0
 40
3.0
 40
3.0
 40
3.0
 10
205.1999969482422
 20
211.8000030517578
 10
204.1999969482422
 20
213.1000061035156
 10
202.3000030517578
 20
216.0
 10
204.3999938964844
 20
217.0
 10
212.8999938964844
 20
216.8000030517578
 10
206.0999908447266
 20
217.0
 10
215.0999908447266
 20
216.3999938964844
 10
218.8999938964844
 20
214.3999938964844
 10
212.0
 20
203.3000030517578
 10
205.1999969482422
 20
211.8000030517578
 97
        0
 97
        0
 75
     2
 76
     1
 98
        0
  0
SPLINE
  5
60
330
45
100
AcDbEntity
  8
Calque 1
370
     0
100
AcDbSpline
210
0.0
220
0.0
230
1.0
 70
    11
 71
     3
 72
    17
 73
    13
 74
     0
 42
0.0000000001
 43
0.0000000001
 12
1.0
 22
0.0
 32
0.0
 13
1.0
 23
0.0
 33
0.0
 40
0.0
 40
0.0
 40
0.0
 40
0.0
 40
1.0
 40
1.0
 40
1.0
 40
2.0
 40
2.0
 40
2.0
 40
3.0
 40
3.0
 40
3.0
 40
4.0
 40
4.0
 40
4.0
 40
4.0
 10
247.5
 20
224.6999969482422
 30
0.0
 10
252.8019409179688
 20
224.6999969482422
 30
0.0
 10
257.1000061035156
 20
221.8346252441406
 30
0.0
 10
257.1000061035156
 20
218.3000030517578
 30
0.0
 10
257.1000061035156
 20
214.765380859375
 30
0.0
 10
252.8019409179688
 20
211.9000091552734
 30
0.0
 10
247.5
 20
211.9000091552734
 30
0.0
 10
242.1980590820312
 20
211.9000091552734
 30
0.0
 10
237.8999938964844
 20
214.765380859375
 30
0.0
 10
237.8999938964844
 20
218.3000030517578
 30
0.0
 10
237.8999938964844
 20
221.8346252441406
 30
0.0
 10
242.1980590820312
 20
224.6999969482422
 30
0.0
 10
247.5
 20
224.6999969482422
 30
0.0
  0
HATCH
  5
61
330
45
100
AcDbEntity
  8
Calque 1
 62
   254
420
 16049085
100
AcDbHatch
 10
0.0
 20
0.0
 30
0.0
210
0.0
220
0.0
230
1.0
  2
SOLID
 70
     1
 71
     0
 91
        1
 92
        1
 93
        1
 72
     4
 94
        3
 73
     0
 74
     1
 95
       17
 96
       13
 40
0.0
 40
0.0
 40
0.0
 40
0.0
 40
1.0
 40
1.0
 40
1.0
 40
2.0
 40
2.0
 40
2.0
 40
3.0
 40
3.0
 40
3.0
 40
4.0
 40
4.0
 40
4.0
 40
4.0
 10
247.5
 20
224.6999969482422
 10
252.8019409179688
 20
224.6999969482422
 10
257.1000061035156
 20
221.8346252441406
 10
257.1000061035156
 20
218.3000030517578
 10
257.1000061035156
 20
214.765380859375
 10
252.8019409179688
 20
211.9000091552734
 10
247.5
 20
211.9000091552734
 10
242.1980590820312
 20
211.9000091552734
 10
237.8999938964844
 20
214.765380859375
 10
237.8999938964844
 20
218.3000030517578
 10
237.8999938964844
 20
221.8346252441406
 10
242.1980590820312
 20
224.6999969482422
 10
247.5
 20
224.6999969482422
 97
        0
 97
        0
 75
     2
 76
     1
 98
        0
  0
SPLINE
  5
62
330
45
100
AcDbEntity
  8
Calque 1
370
     0
100
AcDbSpline
210
0.0
220
0.0
230
1.0
 70
    11
 71
     3
 72
    17
 73
    13
 74
     0
 42
0.0000000001
 43
0.0000000001
 12
1.0
 22
0.0
 32
0.0
 13
1.0
 23
0.0
 33
0.0
 40
0.0
 40
0.0
 40
0.0
 40
0.0
 40
1.0
 40
1.0
 40
1.0
 40
2.0
 40
2.0
 40
2.0
 40
3.0
 40
3.0
 40
3.0
 40
4.0
 40
4.0
 40
4.0
 40
4.0
 10
174.0
 20
225.5
 30
0.0
 10
179.3019409179688
 20
225.5
 30
0.0
 10
183.6000061035156
 20
222.6346282958984
 30
0.0
 10
183.6000061035156
 20
219.1000061035156
 30
0.0
 10
183.6000061035156
 20
215.5653839111328
 30
0.0
 10
179.3019409179688
 20
212.7000122070312
 30
0.0
 10
174.0
 20
212.7000122070312
 30
0.0
 10
168.6980590820312
 20
212.7000122070312
 30
0.0
 10
164.3999938964844
 20
215.5653839111328
 30
0.0
 10
164.3999938964844
 20
219.1000061035156
 30
0.0
 10
164.3999938964844
 20
222.6346282958984
 30
0.0
 10
168.6980590820312
 20
225.5
 30
0.0
 10
174.0
 20
225.5
 30
0.0
  0
HATCH
  5
63
330
45
100
AcDbEntity
  8
Calque 1
 62
   254
420
 16049085
100
AcDbHatch
 10
0.0
 20
0.0
 30
0.0
210
0.0
220
0.0
230
1.0
  2
SOLID
 70
     1
 71
     0
 91
        1
 92
        1
 93
        1
 72
     4
 94
        3
 73
     0
 74
     1
 95
       17
 96
       13
 40
0.0
 40
0.0
 40
0.0
 40
0.0
 40
1.0
 40
1.0
 40
1.0
 40
2.0
 40
2.0
 40
2.0
 40
3.0
 40
3.0
 40
3.0
 40
4.0
 40
4.0
 40
4.0
 40
4.0
 10
174.0
 20
225.5
 10
179.3019409179688
 20
225.5
 10
183.6000061035156
 20
222.6346282958984
 10
183.6000061035156
 20
219.1000061035156
 10
183.6000061035156
 20
215.5653839111328
 10
179.3019409179688
 20
212.7000122070312
 10
174.0
 20
212.7000122070312
 10
168.6980590820312
 20
212.7000122070312
 10
164.3999938964844
 20
215.5653839111328
 10
164.3999938964844
 20
219.1000061035156
 10
164.3999938964844
 20
222.6346282958984
 10
168.6980590820312
 20
225.5
 10
174.0
 20
225.5
 97
        0
 97
        0
 75
     2
 76
     1
 98
        0
  0
SPLINE
  5
64
330
45
100
AcDbEntity
  8
Calque 1
370
     0
100
AcDbSpline
210
0.0
220
0.0
230
1.0
 70
    11
 71
     3
 72
    17
 73
    13
 74
     0
 42
0.0000000001
 43
0.0000000001
 12
1.0
 22
0.0
 32
0.0
 13
1.0
 23
0.0
 33
0.0
 40
0.0
 40
0.0
 40
0.0
 40
0.0
 40
1.0
 40
1.0
 40
1.0
 40
2.0
 40
2.0
 40
2.0
 40
3.0
 40
3.0
 40
3.0
 40
4.0
 40
4.0
 40
4.0
 40
4.0
 10
179.6000061035156
 20
247.0
 30
0.0
 10
182.2509765625
 20
247.0
 30
0.0
 10
184.4000091552734
 20
243.4182739257812
 30
0.0
 10
184.4000091552734
 20
239.0
 30
0.0
 10
184.4000091552734
 20
234.5817260742188
 30
0.0
 10
182.2509765625
 20
231.0
 30
0.0
 10
179.6000061035156
 20
231.0
 30
0.0
 10
176.9490356445312
 20
231.0
 30
0.0
 10
174.8000030517578
 20
234.5817260742188
 30
0.0
 10
174.8000030517578
 20
239.0
 30
0.0
 10
174.8000030517578
 20
243.4182739257812
 30
0.0
 10
176.9490356445312
 20
247.0
 30
0.0
 10
179.6000061035156
 20
247.0
 30
0.0
  0
HATCH
  5
65
330
45
100
AcDbEntity
  8
Calque 1
 62
   250
420
  3421236
100
AcDbHatch
 10
0.0
 20
0.0
 30
0.0
210
0.0
220
0.0
230
1.0
  2
SOLID
 70
     1
 71
     0
 91
        1
 92
        1
 93
        1
 72
     4
 94
        3
 73
     0
 74
     1
 95
       17
 96
       13
 40
0.0
 40
0.0
 40
0.0
 40
0.0
 40
1.0
 40
1.0
 40
1.0
 40
2.0
 40
2.0
 40
2.0
 40
3.0
 40
3.0
 40
3.0
 40
4.0
 40
4.0
 40
4.0
 40
4.0
 10
179.6000061035156
 20
247.0
 10
182.2509765625
 20
247.0
 10
184.4000091552734
 20
243.4182739257812
 10
184.4000091552734
 20
239.0
 10
184.4000091552734
 20
234.5817260742188
 10
182.2509765625
 20
231.0
 10
179.6000061035156
 20
231.0
 10
176.9490356445312
 20
231.0
 10
174.8000030517578
 20
234.5817260742188
 10
174.8000030517578
 20
239.0
 10
174.8000030517578
 20
243.4182739257812
 10
176.9490356445312
 20
247.0
 10
179.6000061035156
 20
247.0
 97
        0
 97
        0
 75
     2
 76
     1
 98
        0
  0
SPLINE
  5
66
330
45
100
AcDbEntity
  8
Calque 1
370
     0
100
AcDbSpline
210
0.0
220
0.0
230
1.0
 70
    11
 71
     3
 72
    17
 73
    13
 74
     0
 42
0.0000000001
 43
0.0000000001
 12
1.0
 22
0.0
 32
0.0
 13
1.0
 23
0.0
 33
0.0
 40
0.0
 40
0.0
 40
0.0
 40
0.0
 40
1.0
 40
1.0
 40
1.0
 40
2.0
 40
2.0
 40
2.0
 40
3.0
 40
3.0
 40
3.0
 40
4.0
 40
4.0
 40
4.0
 40
4.0
 10
244.3000030517578
 20
248.6000061035156
 30
0.0
 10
246.9509735107422
 20
248.6000061035156
 30
0.0
 10
249.1000061035156
 20
245.0182800292969
 30
0.0
 10
249.1000061035156
 20
240.6000061035156
 30
0.0
 10
249.1000061035156
 20
236.1817321777344
 30
0.0
 10
246.9509735107422
 20
232.6000061035156
 30
0.0
 10
244.3000030517578
 20
232.6000061035156
 30
0.0
 10
241.6490325927734
 20
232.6000061035156
 30
0.0
 10
239.5
 20
236.1817321777344
 30
0.0
 10
239.5
 20
240.6000061035156
 30
0.0
 10
239.5
 20
245.0182800292969
 30
0.0
 10
241.6490325927734
 20
248.6000061035156
 30
0.0
 10
244.3000030517578
 20
248.6000061035156
 30
0.0
  0
HATCH
  5
67
330
45
100
AcDbEntity
  8
Calque 1
 62
   250
420
  3421236
100
AcDbHatch
 10
0.0
 20
0.0
 30
0.0
210
0.0
220
0.0
230
1.0
  2
SOLID
 70
     1
 71
     0
 91
        1
 92
        1
 93
        1
 72
     4
 94
        3
 73
     0
 74
     1
 95
       17
 96
       13
 40
0.0
 40
0.0
 40
0.0
 40
0.0
 40
1.0
 40
1.0
 40
1.0
 40
2.0
 40
2.0
 40
2.0
 40
3.0
 40
3.0
 40
3.0
 40
4.0
 40
4.0
 40
4.0
 40
4.0
 10
244.3000030517578
 20
248.6000061035156
 10
246.9509735107422
 20
248.6000061035156
 10
249.1000061035156
 20
245.0182800292969
 10
249.1000061035156
 20
240.6000061035156
 10
249.1000061035156
 20
236.1817321777344
 10
246.9509735107422
 20
232.6000061035156
 10
244.3000030517578
 20
232.6000061035156
 10
241.6490325927734
 20
232.6000061035156
 10
239.5
 20
236.1817321777344
 10
239.5
 20
240.6000061035156
 10
239.5
 20
245.0182800292969
 10
241.6490325927734
 20
248.6000061035156
 10
244.3000030517578
 20
248.6000061035156
 97
        0
 97
        0
 75
     2
 76
     1
 98
        0
  0
INSERT
  5
69
330
45
100
AcDbEntity
  8
Calque 1
100
AcDbBlockReference
  2
block 7
 10
0.0
 20
0.0
 30
0.0
  0
ENDBLK
  5
48
330
45
100
AcDbEntity
  8
0
100
AcDbBlockEnd
  0
BLOCK
  5
4F
330
4D
100
AcDbEntity
  8
0
100
AcDbBlockBegin
  2
block 4
 70
     0
 10
0.0
 20
0.0
 30
0.0
  3
block 4
  1

  0
INSERT
  5
52
330
4D
100
AcDbEntity
  8
Calque 1
100
AcDbBlockReference
  2
block 5
 10
0.0
 20
0.0
 30
0.0
  0
INSERT
  5
58
330
4D
100
AcDbEntity
  8
Calque 1
100
AcDbBlockReference
  2
block 6
 10
0.0
 20
0.0
 30
0.0
  0
ENDBLK
  5
50
330
4D
100
AcDbEntity
  8
0
100
AcDbBlockEnd
  0
BLOCK
  5
53
330
51
100
AcDbEntity
  8
0
100
AcDbBlockBegin
  2
block 5
 70
     0
 10
0.0
 20
0.0
 30
0.0
  3
block 5
  1

  0
SPLINE
  5
55
330
51
100
AcDbEntity
  8
Calque 1
370
     0
100
AcDbSpline
210
0.0
220
0.0
230
1.0
 70
    11
 71
     3
 72
    20
 73
    16
 74
     0
 42
0.0000000001
 43
0.0000000001
 12
1.0
 22
0.0
 32
0.0
 13
1.0
 23
0.0
 33
0.0
 40
0.0
 40
0.0
 40
0.0
 40
0.0
 40
1.0
 40
1.0
 40
1.0
 40
2.0
 40
2.0
 40
2.0
 40
3.0
 40
3.0
 40
3.0
 40
4.0
 40
4.0
 40
4.0
 40
5.0
 40
5.0
 40
5.0
 40
5.0
 10
258.0
 20
282.8999938964844
 30
0.0
 10
263.7000122070312
 20
284.8999938964844
 30
0.0
 10
270.6000061035156
 20
283.3999938964844
 30
0.0
 10
272.0
 20
276.7999877929688
 30
0.0
 10
272.2999877929688
 20
275.2999877929688
 30
0.0
 10
274.6000061035156
 20
275.8999938964844
 30
0.0
 10
274.2999877929688
 20
277.3999938964844
 30
0.0
 10
272.6999816894531
 20
285.2999877929688
 30
0.0
 10
264.1999816894531
 20
287.5999908447266
 30
0.0
 10
257.3999938964844
 20
285.1999969482422
 30
0.0
 10
256.0
 20
284.6999969482422
 30
0.0
 10
256.6000061035156
 20
282.3999938964844
 30
0.0
 10
258.0
 20
282.8999938964844
 30
0.0
 10
258.0
 20
282.8999938964844
 30
0.0
 10
258.0
 20
282.8999938964844
 30
0.0
 10
258.0
 20
282.8999938964844
 30
0.0
  0
HATCH
  5
56
330
51
100
AcDbEntity
  8
Calque 1
 62
   250
420
  3421236
100
AcDbHatch
 10
0.0
 20
0.0
 30
0.0
210
0.0
220
0.0
230
1.0
  2
SOLID
 70
     1
 71
     0
 91
        1
 92
        1
 93
        1
 72
     4
 94
        3
 73
     0
 74
     1
 95
       20
 96
       16
 40
0.0
 40
0.0
 40
0.0
 40
0.0
 40
1.0
 40
1.0
 40
1.0
 40
2.0
 40
2.0
 40
2.0
 40
3.0
 40
3.0
 40
3.0
 40
4.0
 40
4.0
 40
4.0
 40
5.0
 40
5.0
 40
5.0
 40
5.0
 10
258.0
 20
282.8999938964844
 10
263.7000122070312
 20
284.8999938964844
 10
270.6000061035156
 20
283.3999938964844
 10
272.0
 20
276.7999877929688
 10
272.2999877929688
 20
275.2999877929688
 10
274.6000061035156
 20
275.8999938964844
 10
274.2999877929688
 20
277.3999938964844
 10
272.6999816894531
 20
285.2999877929688
 10
264.1999816894531
 20
287.5999908447266
 10
257.3999938964844
 20
285.1999969482422
 10
256.0
 20
284.6999969482422
 10
256.6000061035156
 20
282.3999938964844
 10
258.0
 20
282.8999938964844
 10
258.0
 20
282.8999938964844
 10
258.0
 20
282.8999938964844
 10
258.0
 20
282.8999938964844
 97
        0
 97
        0
 75
     2
 76
     1
 98
        0
  0
ENDBLK
  5
54
330
51
100
AcDbEntity
  8
0
100
AcDbBlockEnd
  0
BLOCK
  5
59
330
57
100
AcDbEntity
  8
0
100
AcDbBlockBegin
  2
block 6
 70
     0
 10
0.0
 20
0.0
 30
0.0
  3
block 6
  1

  0
SPLINE
  5
5B
330
57
100
AcDbEntity
  8
Calque 1
370
     0
100
AcDbSpline
210
0.0
220
0.0
230
1.0
 70
    11
 71
     3
 72
    20
 73
    16
 74
     0
 42
0.0000000001
 43
0.0000000001
 12
1.0
 22
0.0
 32
0.0
 13
1.0
 23
0.0
 33
0.0
 40
0.0
 40
0.0
 40
0.0
 40
0.0
 40
1.0
 40
1.0
 40
1.0
 40
2.0
 40
2.0
 40
2.0
 40
3.0
 40
3.0
 40
3.0
 40
4.0
 40
4.0
 40
4.0
 40
5.0
 40
5.0
 40
5.0
 40
5.0
 10
177.1000061035156
 20
285.1000061035156
 30
0.0
 10
170.0
 20
289.3000030517578
 30
0.0
 10
157.6000061035156
 20
284.2000122070312
 30
0.0
 10
156.5
 20
275.7000122070312
 30
0.0
 10
156.3000030517578
 20
274.2000122070312
 30
0.0
 10
158.6999969482422
 20
274.2000122070312
 30
0.0
 10
158.8999938964844
 20
275.7000122070312
 30
0.0
 10
159.6999969482422
 20
282.3000183105469
 30
0.0
 10
170.6999969482422
 20
286.1000061035156
 30
0.0
 10
175.8999938964844
 20
283.0000152587891
 30
0.0
 10
177.1999969482422
 20
282.1999969482422
 30
0.0
 10
178.3999938964844
 20
284.3000030517578
 30
0.0
 10
177.1000061035156
 20
285.1000061035156
 30
0.0
 10
177.1000061035156
 20
285.1000061035156
 30
0.0
 10
177.1000061035156
 20
285.1000061035156
 30
0.0
 10
177.1000061035156
 20
285.1000061035156
 30
0.0
  0
HATCH
  5
5C
330
57
100
AcDbEntity
  8
Calque 1
 62
   250
420
  3421236
100
AcDbHatch
 10
0.0
 20
0.0
 30
0.0
210
0.0
220
0.0
230
1.0
  2
SOLID
 70
     1
 71
     0
 91
        1
 92
        1
 93
        1
 72
     4
 94
        3
 73
     0
 74
     1
 95
       20
 96
       16
 40
0.0
 40
0.0
 40
0.0
 40
0.0
 40
1.0
 40
1.0
 40
1.0
 40
2.0
 40
2.0
 40
2.0
 40
3.0
 40
3.0
 40
3.0
 40
4.0
 40
4.0
 40
4.0
 40
5.0
 40
5.0
 40
5.0
 40
5.0
 10
177.1000061035156
 20
285.1000061035156
 10
170.0
 20
289.3000030517578
 10
157.6000061035156
 20
284.2000122070312
 10
156.5
 20
275.7000122070312
 10
156.3000030517578
 20
274.2000122070312
 10
158.6999969482422
 20
274.2000122070312
 10
158.8999938964844
 20
275.7000122070312
 10
159.6999969482422
 20
282.3000183105469
 10
170.6999969482422
 20
286.1000061035156
 10
175.8999938964844
 20
283.0000152587891
 10
177.1999969482422
 20
282.1999969482422
 10
178.3999938964844
 20
284.3000030517578
 10
177.1000061035156
 20
285.1000061035156
 10
177.1000061035156
 20
285.1000061035156
 10
177.1000061035156
 20
285.1000061035156
 10
177.1000061035156
 20
285.1000061035156
 97
        0
 97
        0
 75
     2
 76
     1
 98
        0
  0
ENDBLK
  5
5A
330
57
100
AcDbEntity
  8
0
100
AcDbBlockEnd
  0
BLOCK
  5
6A
330
68
100
AcDbEntity
  8
0
100
AcDbBlockBegin
  2
block 7
 70
     0
 10
0.0
 20
0.0
 30
0.0
  3
block 7
  1

  0
SPLINE
  5
6C
330
68
100
AcDbEntity
  8
Calque 1
370
     0
100
AcDbSpline
210
0.0
220
0.0
230
1.0
 70
    11
 71
     3
 72
    14
 73
    10
 74
     0
 42
0.0000000001
 43
0.0000000001
 12
1.0
 22
0.0
 32
0.0
 13
1.0
 23
0.0
 33
0.0
 40
0.0
 40
0.0
 40
0.0
 40
0.0
 40
1.0
 40
1.0
 40
1.0
 40
2.0
 40
2.0
 40
2.0
 40
3.0
 40
3.0
 40
3.0
 40
3.0
 10
223.8000030517578
 20
192.1000061035156
 30
0.0
 10
228.6999969482422
 20
192.1000061035156
 30
0.0
 10
228.6999969482422
 20
199.7000122070312
 30
0.0
 10
223.8000030517578
 20
199.7000122070312
 30
0.0
 10
218.8999938964844
 20
199.6999969482422
 30
0.0
 10
218.8999938964844
 20
192.1000061035156
 30
0.0
 10
223.8000030517578
 20
192.1000061035156
 30
0.0
 10
223.8000030517578
 20
192.1000061035156
 30
0.0
 10
223.8000030517578
 20
192.1000061035156
 30
0.0
 10
223.8000030517578
 20
192.1000061035156
 30
0.0
  0
HATCH
  5
6D
330
68
100
AcDbEntity
  8
Calque 1
 62
   250
420
  3421236
100
AcDbHatch
 10
0.0
 20
0.0
 30
0.0
210
0.0
220
0.0
230
1.0
  2
SOLID
 70
     1
 71
     0
 91
        1
 92
        1
 93
        1
 72
     4
 94
        3
 73
     0
 74
     1
 95
       14
 96
       10
 40
0.0
 40
0.0
 40
0.0
 40
0.0
 40
1.0
 40
1.0
 40
1.0
 40
2.0
 40
2.0
 40
2.0
 40
3.0
 40
3.0
 40
3.0
 40
3.0
 10
223.8000030517578
 20
192.1000061035156
 10
228.6999969482422
 20
192.1000061035156
 10
228.6999969482422
 20
199.7000122070312
 10
223.8000030517578
 20
199.7000122070312
 10
218.8999938964844
 20
199.6999969482422
 10
218.8999938964844
 20
192.1000061035156
 10
223.8000030517578
 20
192.1000061035156
 10
223.8000030517578
 20
192.1000061035156
 10
223.8000030517578
 20
192.1000061035156
 10
223.8000030517578
 20
192.1000061035156
 97
        0
 97
        0
 75
     2
 76
     1
 98
        0
  0
ENDBLK
  5
6B
330
68
100
AcDbEntity
  8
0
100
AcDbBlockEnd
  0
BLOCK
  5
70
330
6E
100
AcDbEntity
  8
0
100
AcDbBlockBegin
  2
block 8
 70
     0
 10
0.0
 20
0.0
 30
0.0
  3
block 8
  1

  0
INSERT
  5
73
330
6E
100
AcDbEntity
  8
Calque 1
100
AcDbBlockReference
  2
block 9
 10
0.0
 20
0.0
 30
0.0
  0
INSERT
  5
8D
330
6E
100
AcDbEntity
  8
Calque 1
100
AcDbBlockReference
  2
block 10
 10
0.0
 20
0.0
 30
0.0
  0
ENDBLK
  5
71
330
6E
100
AcDbEntity
  8
0
100
AcDbBlockEnd
  0
BLOCK
  5
74
330
72
100
AcDbEntity
  8
0
100
AcDbBlockBegin
  2
block 9
 70
     0
 10
0.0
 20
0.0
 30
0.0
  3
block 9
  1

  0
SPLINE
  5
76
330
72
100
AcDbEntity
  8
Calque 1
370
     0
100
AcDbSpline
210
0.0
220
0.0
230
1.0
 70
    11
 71
     3
 72
    50
 73
    46
 74
     0
 42
0.0000000001
 43
0.0000000001
 12
1.0
 22
0.0
 32
0.0
 13
1.0
 23
0.0
 33
0.0
 40
0.0
 40
0.0
 40
0.0
 40
0.0
 40
1.0
 40
1.0
 40
1.0
 40
2.0
 40
2.0
 40
2.0
 40
3.0
 40
3.0
 40
3.0
 40
4.0
 40
4.0
 40
4.0
 40
5.0
 40
5.0
 40
5.0
 40
6.0
 40
6.0
 40
6.0
 40
7.0
 40
7.0
 40
7.0
 40
8.0
 40
8.0
 40
8.0
 40
9.0
 40
9.0
 40
9.0
 40
10.0
 40
10.0
 40
10.0
 40
11.0
 40
11.0
 40
11.0
 40
12.0
 40
12.0
 40
12.0
 40
13.0
 40
13.0
 40
13.0
 40
14.0
 40
14.0
 40
14.0
 40
15.0
 40
15.0
 40
15.0
 40
15.0
 10
132.5
 20
129.2000122070312
 30
0.0
 10
137.1000061035156
 20
137.9000244140625
 30
0.0
 10
136.1999969482422
 20
147.7000122070312
 30
0.0
 10
131.1000061035156
 20
155.9000244140625
 30
0.0
 10
121.9000091552734
 20
169.4000244140625
 30
0.0
 10
106.1000061035156
 20
170.7000122070312
 30
0.0
 10
91.10000610351562
 20
169.6000366210938
 30
0.0
 10
90.00000762939453
 20
169.5000305175781
 30
0.0
 10
87.80000305175781
 20
168.800048828125
 30
0.0
 10
87.80000305175781
 20
167.300048828125
 30
0.0
 10
87.80000305175781
 20
141.300048828125
 30
0.0
 10
87.80000305175781
 20
115.300048828125
 30
0.0
 10
87.80000305175781
 20
89.300048828125
 30
0.0
 10
87.80000305175781
 20
88.60003662109375
 30
0.0
 10
89.20000457763672
 20
88.50006103515625
 30
0.0
 10
89.5
 20
88.50006103515625
 30
0.0
 10
92.80000305175781
 20
88.50006103515625
 30
0.0
 10
96.19999694824219
 20
88.50006103515625
 30
0.0
 10
99.5
 20
88.50006103515625
 30
0.0
 10
100.8000030517578
 20
88.50006103515625
 30
0.0
 10
103.5999984741211
 20
89.10006713867188
 30
0.0
 10
103.5999984741211
 20
90.800048828125
 30
0.0
 10
103.5999984741211
 20
93.20004272460938
 30
0.0
 10
103.5999984741211
 20
95.60003662109375
 30
0.0
 10
103.5999984741211
 20
98.00006103515625
 30
0.0
 10
103.6999969482422
 20
97.90005493164062
 30
0.0
 10
103.7999954223633
 20
97.800048828125
 30
0.0
 10
104.0
 20
97.60006713867188
 30
0.0
 10
106.5999984741211
 20
95.00006103515625
 30
0.0
 10
109.1999969482422
 20
91.40005493164062
 30
0.0
 10
112.1999969482422
 20
89.40005493164062
 30
0.0
 10
114.0
 20
88.10006713867188
 30
0.0
 10
115.7999954223633
 20
88.50006103515625
 30
0.0
 10
118.0999984741211
 20
88.50006103515625
 30
0.0
 10
121.5999984741211
 20
88.50006103515625
 30
0.0
 10
125.0
 20
88.50006103515625
 30
0.0
 10
128.5
 20
88.50006103515625
 30
0.0
 10
129.3000030517578
 20
88.50006103515625
 30
0.0
 10
133.8000030517578
 20
89.7000732421875
 30
0.0
 10
132.3999938964844
 20
91.2000732421875
 30
0.0
 10
125.1999969482422
 20
98.30007934570312
 30
0.0
 10
118.0999908447266
 20
105.5000610351562
 30
0.0
 10
110.8999938964844
 20
112.6000671386719
 30
0.0
 10
119.8000030517578
 20
115.5
 30
0.0
 10
128.0
 20
120.7000122070312
 30
0.0
 10
132.5
 20
129.2000122070312
 30
0.0
  0
SPLINE
  5
77
330
72
100
AcDbEntity
  8
Calque 1
370
     0
100
AcDbSpline
210
0.0
220
0.0
230
1.0
 70
    11
 71
     3
 72
    14
 73
    10
 74
     0
 42
0.0000000001
 43
0.0000000001
 12
1.0
 22
0.0
 32
0.0
 13
1.0
 23
0.0
 33
0.0
 40
0.0
 40
0.0
 40
0.0
 40
0.0
 40
1.0
 40
1.0
 40
1.0
 40
2.0
 40
2.0
 40
2.0
 40
3.0
 40
3.0
 40
3.0
 40
3.0
 10
122.8000030517578
 20
138.3999938964844
 30
0.0
 10
122.3000030517578
 20
129.5
 30
0.0
 10
111.6000061035156
 20
122.7999877929688
 30
0.0
 10
98.9000015258789
 20
123.3999938964844
 30
0.0
 10
98.9000015258789
 20
123.3999938964844
 30
0.0
 10
100.5999984741211
 20
155.7999877929688
 30
0.0
 10
100.5999984741211
 20
155.7999877929688
 30
0.0
 10
113.3000030517578
 20
155.1000061035156
 30
0.0
 10
123.3000030517578
 20
147.2999877929688
 30
0.0
 10
122.8000030517578
 20
138.3999938964844
 30
0.0
  0
HATCH
  5
78
330
72
100
AcDbEntity
  8
Calque 1
 62
    85
420
  6719570
100
AcDbHatch
 10
0.0
 20
0.0
 30
0.0
210
0.0
220
0.0
230
1.0
  2
SOLID
 70
     1
 71
     0
 91
        2
 92
        1
 93
        1
 72
     4
 94
        3
 73
     0
 74
     1
 95
       50
 96
       46
 40
0.0
 40
0.0
 40
0.0
 40
0.0
 40
1.0
 40
1.0
 40
1.0
 40
2.0
 40
2.0
 40
2.0
 40
3.0
 40
3.0
 40
3.0
 40
4.0
 40
4.0
 40
4.0
 40
5.0
 40
5.0
 40
5.0
 40
6.0
 40
6.0
 40
6.0
 40
7.0
 40
7.0
 40
7.0
 40
8.0
 40
8.0
 40
8.0
 40
9.0
 40
9.0
 40
9.0
 40
10.0
 40
10.0
 40
10.0
 40
11.0
 40
11.0
 40
11.0
 40
12.0
 40
12.0
 40
12.0
 40
13.0
 40
13.0
 40
13.0
 40
14.0
 40
14.0
 40
14.0
 40
15.0
 40
15.0
 40
15.0
 40
15.0
 10
132.5
 20
129.2000122070312
 10
137.1000061035156
 20
137.9000244140625
 10
136.1999969482422
 20
147.7000122070312
 10
131.1000061035156
 20
155.9000244140625
 10
121.9000091552734
 20
169.4000244140625
 10
106.1000061035156
 20
170.7000122070312
 10
91.10000610351562
 20
169.6000366210938
 10
90.00000762939453
 20
169.5000305175781
 10
87.80000305175781
 20
168.800048828125
 10
87.80000305175781
 20
167.300048828125
 10
87.80000305175781
 20
141.300048828125
 10
87.80000305175781
 20
115.300048828125
 10
87.80000305175781
 20
89.300048828125
 10
87.80000305175781
 20
88.60003662109375
 10
89.20000457763672
 20
88.50006103515625
 10
89.5
 20
88.50006103515625
 10
92.80000305175781
 20
88.50006103515625
 10
96.19999694824219
 20
88.50006103515625
 10
99.5
 20
88.50006103515625
 10
100.8000030517578
 20
88.50006103515625
 10
103.5999984741211
 20
89.10006713867188
 10
103.5999984741211
 20
90.800048828125
 10
103.5999984741211
 20
93.20004272460938
 10
103.5999984741211
 20
95.60003662109375
 10
103.5999984741211
 20
98.00006103515625
 10
103.6999969482422
 20
97.90005493164062
 10
103.7999954223633
 20
97.800048828125
 10
104.0
 20
97.60006713867188
 10
106.5999984741211
 20
95.00006103515625
 10
109.1999969482422
 20
91.40005493164062
 10
112.1999969482422
 20
89.40005493164062
 10
114.0
 20
88.10006713867188
 10
115.7999954223633
 20
88.50006103515625
 10
118.0999984741211
 20
88.50006103515625
 10
121.5999984741211
 20
88.50006103515625
 10
125.0
 20
88.50006103515625
 10
128.5
 20
88.50006103515625
 10
129.3000030517578
 20
88.50006103515625
 10
133.8000030517578
 20
89.7000732421875
 10
132.3999938964844
 20
91.2000732421875
 10
125.1999969482422
 20
98.30007934570312
 10
118.0999908447266
 20
105.5000610351562
 10
110.8999938964844
 20
112.6000671386719
 10
119.8000030517578
 20
115.5
 10
128.0
 20
120.7000122070312
 10
132.5
 20
129.2000122070312
 97
        0
 97
        0
 92
        1
 93
        1
 72
     4
 94
        3
 73
     0
 74
     1
 95
       14
 96
       10
 40
0.0
 40
0.0
 40
0.0
 40
0.0
 40
1.0
 40
1.0
 40
1.0
 40
2.0
 40
2.0
 40
2.0
 40
3.0
 40
3.0
 40
3.0
 40
3.0
 10
122.8000030517578
 20
138.3999938964844
 10
122.3000030517578
 20
129.5
 10
111.6000061035156
 20
122.7999877929688
 10
98.9000015258789
 20
123.3999938964844
 10
98.9000015258789
 20
123.3999938964844
 10
100.5999984741211
 20
155.7999877929688
 10
100.5999984741211
 20
155.7999877929688
 10
113.3000030517578
 20
155.1000061035156
 10
123.3000030517578
 20
147.2999877929688
 10
122.8000030517578
 20
138.3999938964844
 97
        0
 97
        0
 75
     2
 76
     1
 98
        0
  0
SPLINE
  5
79
330
72
100
AcDbEntity
  8
Calque 1
370
     0
100
AcDbSpline
210
0.0
220
0.0
230
1.0
 70
    11
 71
     3
 72
    20
 73
    16
 74
     0
 42
0.0000000001
 43
0.0000000001
 12
1.0
 22
0.0
 32
0.0
 13
1.0
 23
0.0
 33
0.0
 40
0.0
 40
0.0
 40
0.0
 40
0.0
 40
1.0
 40
1.0
 40
1.0
 40
2.0
 40
2.0
 40
2.0
 40
3.0
 40
3.0
 40
3.0
 40
4.0
 40
4.0
 40
4.0
 40
5.0
 40
5.0
 40
5.0
 40
5.0
 10
171.6999969482422
 20
170.2000122070312
 30
0.0
 10
151.8999938964844
 20
166.4000244140625
 30
0.0
 10
141.3999938964844
 20
148.2000122070312
 30
0.0
 10
141.1999969482422
 20
129.1000061035156
 30
0.0
 10
141.3999938964844
 20
112.2000122070312
 30
0.0
 10
149.0
 20
95.39999389648438
 30
0.0
 10
166.0
 20
89.60000610351562
 30
0.0
 10
180.1999969482422
 20
84.80001831054688
 30
0.0
 10
196.3999938964844
 20
89.30001831054688
 30
0.0
 10
205.8999938964844
 20
100.8999938964844
 30
0.0
 10
217.2999877929688
 20
114.7999877929688
 30
0.0
 10
218.1999969482422
 20
137.3999938964844
 30
0.0
 10
209.5999908447266
 20
152.7999877929688
 30
0.0
 10
202.1000061035156
 20
166.2999877929688
 30
0.0
 10
186.6000061035156
 20
173.1000061035156
 30
0.0
 10
171.6999969482422
 20
170.2000122070312
 30
0.0
  0
SPLINE
  5
7A
330
72
100
AcDbEntity
  8
Calque 1
370
     0
100
AcDbSpline
210
0.0
220
0.0
230
1.0
 70
    11
 71
     3
 72
    17
 73
    13
 74
     0
 42
0.0000000001
 43
0.0000000001
 12
1.0
 22
0.0
 32
0.0
 13
1.0
 23
0.0
 33
0.0
 40
0.0
 40
0.0
 40
0.0
 40
0.0
 40
1.0
 40
1.0
 40
1.0
 40
2.0
 40
2.0
 40
2.0
 40
3.0
 40
3.0
 40
3.0
 40
4.0
 40
4.0
 40
4.0
 40
4.0
 10
179.1000061035156
 20
101.0
 30
0.0
 10
166.9000091552734
 20
101.0
 30
0.0
 10
157.0
 20
112.7000122070312
 30
0.0
 10
157.0
 20
127.1000061035156
 30
0.0
 10
157.0
 20
141.5
 30
0.0
 10
166.8999938964844
 20
153.2000122070312
 30
0.0
 10
179.1000061035156
 20
153.2000122070312
 30
0.0
 10
191.3000030517578
 20
153.2000122070312
 30
0.0
 10
201.2000122070312
 20
141.5
 30
0.0
 10
201.2000122070312
 20
127.1000061035156
 30
0.0
 10
201.2000122070312
 20
112.7000122070312
 30
0.0
 10
191.3000030517578
 20
101.0
 30
0.0
 10
179.1000061035156
 20
101.0
 30
0.0
  0
HATCH
  5
7B
330
72
100
AcDbEntity
  8
Calque 1
 62
   253
420
 10731919
100
AcDbHatch
 10
0.0
 20
0.0
 30
0.0
210
0.0
220
0.0
230
1.0
  2
SOLID
 70
     1
 71
     0
 91
        2
 92
        1
 93
        1
 72
     4
 94
        3
 73
     0
 74
     1
 95
       20
 96
       16
 40
0.0
 40
0.0
 40
0.0
 40
0.0
 40
1.0
 40
1.0
 40
1.0
 40
2.0
 40
2.0
 40
2.0
 40
3.0
 40
3.0
 40
3.0
 40
4.0
 40
4.0
 40
4.0
 40
5.0
 40
5.0
 40
5.0
 40
5.0
 10
171.6999969482422
 20
170.2000122070312
 10
151.8999938964844
 20
166.4000244140625
 10
141.3999938964844
 20
148.2000122070312
 10
141.1999969482422
 20
129.1000061035156
 10
141.3999938964844
 20
112.2000122070312
 10
149.0
 20
95.39999389648438
 10
166.0
 20
89.60000610351562
 10
180.1999969482422
 20
84.80001831054688
 10
196.3999938964844
 20
89.30001831054688
 10
205.8999938964844
 20
100.8999938964844
 10
217.2999877929688
 20
114.7999877929688
 10
218.1999969482422
 20
137.3999938964844
 10
209.5999908447266
 20
152.7999877929688
 10
202.1000061035156
 20
166.2999877929688
 10
186.6000061035156
 20
173.1000061035156
 10
171.6999969482422
 20
170.2000122070312
 97
        0
 97
        0
 92
        1
 93
        1
 72
     4
 94
        3
 73
     0
 74
     1
 95
       17
 96
       13
 40
0.0
 40
0.0
 40
0.0
 40
0.0
 40
1.0
 40
1.0
 40
1.0
 40
2.0
 40
2.0
 40
2.0
 40
3.0
 40
3.0
 40
3.0
 40
4.0
 40
4.0
 40
4.0
 40
4.0
 10
179.1000061035156
 20
101.0
 10
166.9000091552734
 20
101.0
 10
157.0
 20
112.7000122070312
 10
157.0
 20
127.1000061035156
 10
157.0
 20
141.5
 10
166.8999938964844
 20
153.2000122070312
 10
179.1000061035156
 20
153.2000122070312
 10
191.3000030517578
 20
153.2000122070312
 10
201.2000122070312
 20
141.5
 10
201.2000122070312
 20
127.1000061035156
 10
201.2000122070312
 20
112.7000122070312
 10
191.3000030517578
 20
101.0
 10
179.1000061035156
 20
101.0
 97
        0
 97
        0
 75
     2
 76
     1
 98
        0
  0
SPLINE
  5
7C
330
72
100
AcDbEntity
  8
Calque 1
370
     0
100
AcDbSpline
210
0.0
220
0.0
230
1.0
 70
    11
 71
     3
 72
    44
 73
    40
 74
     0
 42
0.0000000001
 43
0.0000000001
 12
1.0
 22
0.0
 32
0.0
 13
1.0
 23
0.0
 33
0.0
 40
0.0
 40
0.0
 40
0.0
 40
0.0
 40
1.0
 40
1.0
 40
1.0
 40
2.0
 40
2.0
 40
2.0
 40
3.0
 40
3.0
 40
3.0
 40
4.0
 40
4.0
 40
4.0
 40
5.0
 40
5.0
 40
5.0
 40
6.0
 40
6.0
 40
6.0
 40
7.0
 40
7.0
 40
7.0
 40
8.0
 40
8.0
 40
8.0
 40
9.0
 40
9.0
 40
9.0
 40
10.0
 40
10.0
 40
10.0
 40
11.0
 40
11.0
 40
11.0
 40
12.0
 40
12.0
 40
12.0
 40
13.0
 40
13.0
 40
13.0
 40
13.0
 10
254.1999969482422
 20
170.8999938964844
 30
0.0
 10
253.5
 20
173.2999877929688
 30
0.0
 10
248.8999938964844
 20
171.3999938964844
 30
0.0
 10
248.3999938964844
 20
169.7999877929688
 30
0.0
 10
239.2999877929688
 20
143.0999755859375
 30
0.0
 10
230.1999969482422
 20
116.5
 30
0.0
 10
221.1999969482422
 20
89.79998779296875
 30
0.0
 10
221.0999908447266
 20
89.39999389648438
 30
0.0
 10
221.1999969482422
 20
89.0999755859375
 30
0.0
 10
221.3999938964844
 20
88.89999389648438
 30
0.0
 10
221.5999908447266
 20
88.60000610351562
 30
0.0
 10
222.0999908447266
 20
88.29998779296875
 30
0.0
 10
223.0999908447266
 20
88.29998779296875
 30
0.0
 10
226.5999908447266
 20
88.29998779296875
 30
0.0
 10
230.0999908447266
 20
88.29998779296875
 30
0.0
 10
233.6999969482422
 20
88.29998779296875
 30
0.0
 10
235.1999969482422
 20
88.29998779296875
 30
0.0
 10
237.1999969482422
 20
88.79998779296875
 30
0.0
 10
237.6999969482422
 20
90.39999389648438
 30
0.0
 10
238.8000030517578
 20
93.79998779296875
 30
0.0
 10
239.8999938964844
 20
97.19998168945312
 30
0.0
 10
241.0
 20
100.6000061035156
 30
0.0
 10
246.8000030517578
 20
100.6000061035156
 30
0.0
 10
252.5
 20
100.6000061035156
 30
0.0
 10
258.2000122070312
 20
100.6000061035156
 30
0.0
 10
259.3000183105469
 20
96.80001831054688
 30
0.0
 10
260.3000183105469
 20
93.10000610351562
 30
0.0
 10
261.4000244140625
 20
89.30001831054688
 30
0.0
 10
261.6000366210938
 20
88.60000610351562
 30
0.0
 10
262.5000305175781
 20
88.30001831054688
 30
0.0
 10
263.2000122070312
 20
88.30001831054688
 30
0.0
 10
266.7000122070312
 20
88.30001831054688
 30
0.0
 10
270.1000061035156
 20
88.30001831054688
 30
0.0
 10
273.6000061035156
 20
88.30001831054688
 30
0.0
 10
274.7000122070312
 20
88.30001831054688
 30
0.0
 10
278.1000061035156
 20
89.00003051757812
 30
0.0
 10
277.6000061035156
 20
90.9000244140625
 30
0.0
 10
269.7000122070312
 20
117.6000061035156
 30
0.0
 10
261.8999938964844
 20
144.2999877929688
 30
0.0
 10
254.1999969482422
 20
170.8999938964844
 30
0.0
  0
SPLINE
  5
7D
330
72
100
AcDbEntity
  8
Calque 1
370
     0
100
AcDbSpline
210
0.0
220
0.0
230
1.0
 70
    11
 71
     3
 72
    17
 73
    13
 74
     0
 42
0.0000000001
 43
0.0000000001
 12
1.0
 22
0.0
 32
0.0
 13
1.0
 23
0.0
 33
0.0
 40
0.0
 40
0.0
 40
0.0
 40
0.0
 40
1.0
 40
1.0
 40
1.0
 40
2.0
 40
2.0
 40
2.0
 40
3.0
 40
3.0
 40
3.0
 40
4.0
 40
4.0
 40
4.0
 40
4.0
 10
250.3999938964844
 20
113.2000122070312
 30
0.0
 10
245.0999908447266
 20
113.2000122070312
 30
0.0
 10
240.7999877929688
 20
118.3000183105469
 30
0.0
 10
240.7999877929688
 20
124.5
 30
0.0
 10
240.7999877929688
 20
130.7000122070312
 30
0.0
 10
245.0999908447266
 20
135.7999877929688
 30
0.0
 10
250.3999938964844
 20
135.7999877929688
 30
0.0
 10
255.6999969482422
 20
135.7999877929688
 30
0.0
 10
260.0
 20
130.6999816894531
 30
0.0
 10
260.0
 20
124.5
 30
0.0
 10
260.0
 20
118.2000122070312
 30
0.0
 10
255.6999969482422
 20
113.2000122070312
 30
0.0
 10
250.3999938964844
 20
113.2000122070312
 30
0.0
  0
HATCH
  5
7E
330
72
100
AcDbEntity
  8
Calque 1
 62
    85
420
  6719570
100
AcDbHatch
 10
0.0
 20
0.0
 30
0.0
210
0.0
220
0.0
230
1.0
  2
SOLID
 70
     1
 71
     0
 91
        2
 92
        1
 93
        1
 72
     4
 94
        3
 73
     0
 74
     1
 95
       44
 96
       40
 40
0.0
 40
0.0
 40
0.0
 40
0.0
 40
1.0
 40
1.0
 40
1.0
 40
2.0
 40
2.0
 40
2.0
 40
3.0
 40
3.0
 40
3.0
 40
4.0
 40
4.0
 40
4.0
 40
5.0
 40
5.0
 40
5.0
 40
6.0
 40
6.0
 40
6.0
 40
7.0
 40
7.0
 40
7.0
 40
8.0
 40
8.0
 40
8.0
 40
9.0
 40
9.0
 40
9.0
 40
10.0
 40
10.0
 40
10.0
 40
11.0
 40
11.0
 40
11.0
 40
12.0
 40
12.0
 40
12.0
 40
13.0
 40
13.0
 40
13.0
 40
13.0
 10
254.1999969482422
 20
170.8999938964844
 10
253.5
 20
173.2999877929688
 10
248.8999938964844
 20
171.3999938964844
 10
248.3999938964844
 20
169.7999877929688
 10
239.2999877929688
 20
143.0999755859375
 10
230.1999969482422
 20
116.5
 10
221.1999969482422
 20
89.79998779296875
 10
221.0999908447266
 20
89.39999389648438
 10
221.1999969482422
 20
89.0999755859375
 10
221.3999938964844
 20
88.89999389648438
 10
221.5999908447266
 20
88.60000610351562
 10
222.0999908447266
 20
88.29998779296875
 10
223.0999908447266
 20
88.29998779296875
 10
226.5999908447266
 20
88.29998779296875
 10
230.0999908447266
 20
88.29998779296875
 10
233.6999969482422
 20
88.29998779296875
 10
235.1999969482422
 20
88.29998779296875
 10
237.1999969482422
 20
88.79998779296875
 10
237.6999969482422
 20
90.39999389648438
 10
238.8000030517578
 20
93.79998779296875
 10
239.8999938964844
 20
97.19998168945312
 10
241.0
 20
100.6000061035156
 10
246.8000030517578
 20
100.6000061035156
 10
252.5
 20
100.6000061035156
 10
258.2000122070312
 20
100.6000061035156
 10
259.3000183105469
 20
96.80001831054688
 10
260.3000183105469
 20
93.10000610351562
 10
261.4000244140625
 20
89.30001831054688
 10
261.6000366210938
 20
88.60000610351562
 10
262.5000305175781
 20
88.30001831054688
 10
263.2000122070312
 20
88.30001831054688
 10
266.7000122070312
 20
88.30001831054688
 10
270.1000061035156
 20
88.30001831054688
 10
273.6000061035156
 20
88.30001831054688
 10
274.7000122070312
 20
88.30001831054688
 10
278.1000061035156
 20
89.00003051757812
 10
277.6000061035156
 20
90.9000244140625
 10
269.7000122070312
 20
117.6000061035156
 10
261.8999938964844
 20
144.2999877929688
 10
254.1999969482422
 20
170.8999938964844
 97
        0
 97
        0
 92
        1
 93
        1
 72
     4
 94
        3
 73
     0
 74
     1
 95
       17
 96
       13
 40
0.0
 40
0.0
 40
0.0
 40
0.0
 40
1.0
 40
1.0
 40
1.0
 40
2.0
 40
2.0
 40
2.0
 40
3.0
 40
3.0
 40
3.0
 40
4.0
 40
4.0
 40
4.0
 40
4.0
 10
250.3999938964844
 20
113.2000122070312
 10
245.0999908447266
 20
113.2000122070312
 10
240.7999877929688
 20
118.3000183105469
 10
240.7999877929688
 20
124.5
 10
240.7999877929688
 20
130.7000122070312
 10
245.0999908447266
 20
135.7999877929688
 10
250.3999938964844
 20
135.7999877929688
 10
255.6999969482422
 20
135.7999877929688
 10
260.0
 20
130.6999816894531
 10
260.0
 20
124.5
 10
260.0
 20
118.2000122070312
 10
255.6999969482422
 20
113.2000122070312
 10
250.3999938964844
 20
113.2000122070312
 97
        0
 97
        0
 75
     2
 76
     1
 98
        0
  0
SPLINE
  5
7F
330
72
100
AcDbEntity
  8
Calque 1
370
     0
100
AcDbSpline
210
0.0
220
0.0
230
1.0
 70
    11
 71
     3
 72
    50
 73
    46
 74
     0
 42
0.0000000001
 43
0.0000000001
 12
1.0
 22
0.0
 32
0.0
 13
1.0
 23
0.0
 33
0.0
 40
0.0
 40
0.0
 40
0.0
 40
0.0
 40
1.0
 40
1.0
 40
1.0
 40
2.0
 40
2.0
 40
2.0
 40
3.0
 40
3.0
 40
3.0
 40
4.0
 40
4.0
 40
4.0
 40
5.0
 40
5.0
 40
5.0
 40
6.0
 40
6.0
 40
6.0
 40
7.0
 40
7.0
 40
7.0
 40
8.0
 40
8.0
 40
8.0
 40
9.0
 40
9.0
 40
9.0
 40
10.0
 40
10.0
 40
10.0
 40
11.0
 40
11.0
 40
11.0
 40
12.0
 40
12.0
 40
12.0
 40
13.0
 40
13.0
 40
13.0
 40
14.0
 40
14.0
 40
14.0
 40
15.0
 40
15.0
 40
15.0
 40
15.0
 10
328.0
 20
129.2000122070312
 30
0.0
 10
332.6000061035156
 20
137.9000244140625
 30
0.0
 10
331.7000122070312
 20
147.7000122070312
 30
0.0
 10
326.6000061035156
 20
155.9000244140625
 30
0.0
 10
317.3999938964844
 20
169.4000244140625
 30
0.0
 10
301.6000061035156
 20
170.7000122070312
 30
0.0
 10
286.6000061035156
 20
169.6000366210938
 30
0.0
 10
285.5
 20
169.5000305175781
 30
0.0
 10
283.3000183105469
 20
168.800048828125
 30
0.0
 10
283.3000183105469
 20
167.300048828125
 30
0.0
 10
283.3000183105469
 20
141.300048828125
 30
0.0
 10
283.3000183105469
 20
115.300048828125
 30
0.0
 10
283.3000183105469
 20
89.300048828125
 30
0.0
 10
283.3000183105469
 20
88.60003662109375
 30
0.0
 10
284.7000122070312
 20
88.50006103515625
 30
0.0
 10
285.0000305175781
 20
88.50006103515625
 30
0.0
 10
288.3000183105469
 20
88.50006103515625
 30
0.0
 10
291.7000427246094
 20
88.50006103515625
 30
0.0
 10
295.0000305175781
 20
88.50006103515625
 30
0.0
 10
296.3000183105469
 20
88.50006103515625
 30
0.0
 10
299.1000366210938
 20
89.10006713867188
 30
0.0
 10
299.1000366210938
 20
90.800048828125
 30
0.0
 10
299.1000366210938
 20
93.20004272460938
 30
0.0
 10
299.1000366210938
 20
95.60003662109375
 30
0.0
 10
299.1000366210938
 20
98.00006103515625
 30
0.0
 10
299.2000427246094
 20
97.90005493164062
 30
0.0
 10
299.300048828125
 20
97.800048828125
 30
0.0
 10
299.5000305175781
 20
97.60006713867188
 30
0.0
 10
302.1000366210938
 20
95.00006103515625
 30
0.0
 10
304.7000427246094
 20
91.40005493164062
 30
0.0
 10
307.7000427246094
 20
89.40005493164062
 30
0.0
 10
309.5000305175781
 20
88.10006713867188
 30
0.0
 10
311.300048828125
 20
88.50006103515625
 30
0.0
 10
313.6000366210938
 20
88.50006103515625
 30
0.0
 10
317.1000366210938
 20
88.50006103515625
 30
0.0
 10
320.5000305175781
 20
88.50006103515625
 30
0.0
 10
324.0000305175781
 20
88.50006103515625
 30
0.0
 10
324.8000183105469
 20
88.50006103515625
 30
0.0
 10
329.3000183105469
 20
89.7000732421875
 30
0.0
 10
327.9000244140625
 20
91.2000732421875
 30
0.0
 10
320.7000122070312
 20
98.30007934570312
 30
0.0
 10
313.6000366210938
 20
105.5000610351562
 30
0.0
 10
306.4000244140625
 20
112.6000671386719
 30
0.0
 10
315.2999877929688
 20
115.5
 30
0.0
 10
323.6000061035156
 20
120.7000122070312
 30
0.0
 10
328.0
 20
129.2000122070312
 30
0.0
  0
SPLINE
  5
80
330
72
100
AcDbEntity
  8
Calque 1
370
     0
100
AcDbSpline
210
0.0
220
0.0
230
1.0
 70
    11
 71
     3
 72
    14
 73
    10
 74
     0
 42
0.0000000001
 43
0.0000000001
 12
1.0
 22
0.0
 32
0.0
 13
1.0
 23
0.0
 33
0.0
 40
0.0
 40
0.0
 40
0.0
 40
0.0
 40
1.0
 40
1.0
 40
1.0
 40
2.0
 40
2.0
 40
2.0
 40
3.0
 40
3.0
 40
3.0
 40
3.0
 10
321.1000061035156
 20
140.1000061035156
 30
0.0
 10
320.6000061035156
 20
131.2000122070312
 30
0.0
 10
309.8999938964844
 20
124.5
 30
0.0
 10
297.2000122070312
 20
125.1000061035156
 30
0.0
 10
297.2000122070312
 20
125.1000061035156
 30
0.0
 10
298.9000244140625
 20
157.5
 30
0.0
 10
298.9000244140625
 20
157.5
 30
0.0
 10
311.6000061035156
 20
156.8999938964844
 30
0.0
 10
321.5
 20
149.1000061035156
 30
0.0
 10
321.1000061035156
 20
140.1000061035156
 30
0.0
  0
HATCH
  5
81
330
72
100
AcDbEntity
  8
Calque 1
 62
   253
420
 10731919
100
AcDbHatch
 10
0.0
 20
0.0
 30
0.0
210
0.0
220
0.0
230
1.0
  2
SOLID
 70
     1
 71
     0
 91
        2
 92
        1
 93
        1
 72
     4
 94
        3
 73
     0
 74
     1
 95
       50
 96
       46
 40
0.0
 40
0.0
 40
0.0
 40
0.0
 40
1.0
 40
1.0
 40
1.0
 40
2.0
 40
2.0
 40
2.0
 40
3.0
 40
3.0
 40
3.0
 40
4.0
 40
4.0
 40
4.0
 40
5.0
 40
5.0
 40
5.0
 40
6.0
 40
6.0
 40
6.0
 40
7.0
 40
7.0
 40
7.0
 40
8.0
 40
8.0
 40
8.0
 40
9.0
 40
9.0
 40
9.0
 40
10.0
 40
10.0
 40
10.0
 40
11.0
 40
11.0
 40
11.0
 40
12.0
 40
12.0
 40
12.0
 40
13.0
 40
13.0
 40
13.0
 40
14.0
 40
14.0
 40
14.0
 40
15.0
 40
15.0
 40
15.0
 40
15.0
 10
328.0
 20
129.2000122070312
 10
332.6000061035156
 20
137.9000244140625
 10
331.7000122070312
 20
147.7000122070312
 10
326.6000061035156
 20
155.9000244140625
 10
317.3999938964844
 20
169.4000244140625
 10
301.6000061035156
 20
170.7000122070312
 10
286.6000061035156
 20
169.6000366210938
 10
285.5
 20
169.5000305175781
 10
283.3000183105469
 20
168.800048828125
 10
283.3000183105469
 20
167.300048828125
 10
283.3000183105469
 20
141.300048828125
 10
283.3000183105469
 20
115.300048828125
 10
283.3000183105469
 20
89.300048828125
 10
283.3000183105469
 20
88.60003662109375
 10
284.7000122070312
 20
88.50006103515625
 10
285.0000305175781
 20
88.50006103515625
 10
288.3000183105469
 20
88.50006103515625
 10
291.7000427246094
 20
88.50006103515625
 10
295.0000305175781
 20
88.50006103515625
 10
296.3000183105469
 20
88.50006103515625
 10
299.1000366210938
 20
89.10006713867188
 10
299.1000366210938
 20
90.800048828125
 10
299.1000366210938
 20
93.20004272460938
 10
299.1000366210938
 20
95.60003662109375
 10
299.1000366210938
 20
98.00006103515625
 10
299.2000427246094
 20
97.90005493164062
 10
299.300048828125
 20
97.800048828125
 10
299.5000305175781
 20
97.60006713867188
 10
302.1000366210938
 20
95.00006103515625
 10
304.7000427246094
 20
91.40005493164062
 10
307.7000427246094
 20
89.40005493164062
 10
309.5000305175781
 20
88.10006713867188
 10
311.300048828125
 20
88.50006103515625
 10
313.6000366210938
 20
88.50006103515625
 10
317.1000366210938
 20
88.50006103515625
 10
320.5000305175781
 20
88.50006103515625
 10
324.0000305175781
 20
88.50006103515625
 10
324.8000183105469
 20
88.50006103515625
 10
329.3000183105469
 20
89.7000732421875
 10
327.9000244140625
 20
91.2000732421875
 10
320.7000122070312
 20
98.30007934570312
 10
313.6000366210938
 20
105.5000610351562
 10
306.4000244140625
 20
112.6000671386719
 10
315.2999877929688
 20
115.5
 10
323.6000061035156
 20
120.7000122070312
 10
328.0
 20
129.2000122070312
 97
        0
 97
        0
 92
        1
 93
        1
 72
     4
 94
        3
 73
     0
 74
     1
 95
       14
 96
       10
 40
0.0
 40
0.0
 40
0.0
 40
0.0
 40
1.0
 40
1.0
 40
1.0
 40
2.0
 40
2.0
 40
2.0
 40
3.0
 40
3.0
 40
3.0
 40
3.0
 10
321.1000061035156
 20
140.1000061035156
 10
320.6000061035156
 20
131.2000122070312
 10
309.8999938964844
 20
124.5
 10
297.2000122070312
 20
125.1000061035156
 10
297.2000122070312
 20
125.1000061035156
 10
298.9000244140625
 20
157.5
 10
298.9000244140625
 20
157.5
 10
311.6000061035156
 20
156.8999938964844
 10
321.5
 20
149.1000061035156
 10
321.1000061035156
 20
140.1000061035156
 97
        0
 97
        0
 75
     2
 76
     1
 98
        0
  0
SPLINE
  5
82
330
72
100
AcDbEntity
  8
Calque 1
370
     0
100
AcDbSpline
210
0.0
220
0.0
230
1.0
 70
    11
 71
     3
 72
    17
 73
    13
 74
     0
 42
0.0000000001
 43
0.0000000001
 12
1.0
 22
0.0
 32
0.0
 13
1.0
 23
0.0
 33
0.0
 40
0.0
 40
0.0
 40
0.0
 40
0.0
 40
1.0
 40
1.0
 40
1.0
 40
2.0
 40
2.0
 40
2.0
 40
3.0
 40
3.0
 40
3.0
 40
4.0
 40
4.0
 40
4.0
 40
4.0
 10
344.1000061035156
 20
102.0
 30
0.0
 10
347.8003234863281
 20
102.0
 30
0.0
 10
350.8000183105469
 20
99.00030517578125
 30
0.0
 10
350.8000183105469
 20
95.29998779296875
 30
0.0
 10
350.8000183105469
 20
91.59967041015625
 30
0.0
 10
347.8003234863281
 20
88.5999755859375
 30
0.0
 10
344.1000061035156
 20
88.5999755859375
 30
0.0
 10
340.3996887207031
 20
88.5999755859375
 30
0.0
 10
337.3999938964844
 20
91.59967041015625
 30
0.0
 10
337.3999938964844
 20
95.29998779296875
 30
0.0
 10
337.3999938964844
 20
99.00030517578125
 30
0.0
 10
340.3996887207031
 20
102.0
 30
0.0
 10
344.1000061035156
 20
102.0
 30
0.0
  0
HATCH
  5
83
330
72
100
AcDbEntity
  8
Calque 1
 62
    85
420
  6719570
100
AcDbHatch
 10
0.0
 20
0.0
 30
0.0
210
0.0
220
0.0
230
1.0
  2
SOLID
 70
     1
 71
     0
 91
        1
 92
        1
 93
        1
 72
     4
 94
        3
 73
     0
 74
     1
 95
       17
 96
       13
 40
0.0
 40
0.0
 40
0.0
 40
0.0
 40
1.0
 40
1.0
 40
1.0
 40
2.0
 40
2.0
 40
2.0
 40
3.0
 40
3.0
 40
3.0
 40
4.0
 40
4.0
 40
4.0
 40
4.0
 10
344.1000061035156
 20
102.0
 10
347.8003234863281
 20
102.0
 10
350.8000183105469
 20
99.00030517578125
 10
350.8000183105469
 20
95.29998779296875
 10
350.8000183105469
 20
91.59967041015625
 10
347.8003234863281
 20
88.5999755859375
 10
344.1000061035156
 20
88.5999755859375
 10
340.3996887207031
 20
88.5999755859375
 10
337.3999938964844
 20
91.59967041015625
 10
337.3999938964844
 20
95.29998779296875
 10
337.3999938964844
 20
99.00030517578125
 10
340.3996887207031
 20
102.0
 10
344.1000061035156
 20
102.0
 97
        0
 97
        0
 75
     2
 76
     1
 98
        0
  0
POLYLINE
  5
84
330
72
100
AcDbEntity
  8
Calque 1
370
     0
100
AcDb2dPolyline
 66
     1
 10
0.0
 20
0.0
 30
0.0
  0
VERTEX
  5
85
330
84
100
AcDbEntity
  8
Calque 1
370
     0
100
AcDbVertex
100
AcDb2dVertex
 10
339.6000061035156
 20
170.8999938964844
 30
0.0
  0
VERTEX
  5
86
330
84
100
AcDbEntity
  8
Calque 1
370
     0
100
AcDbVertex
100
AcDb2dVertex
 10
348.6000061035156
 20
170.8999938964844
 30
0.0
  0
VERTEX
  5
87
330
84
100
AcDbEntity
  8
Calque 1
370
     0
100
AcDbVertex
100
AcDb2dVertex
 10
348.6000061035156
 20
109.6999816894531
 30
0.0
  0
VERTEX
  5
88
330
84
100
AcDbEntity
  8
Calque 1
370
     0
100
AcDbVertex
100
AcDb2dVertex
 10
339.6000061035156
 20
109.6999816894531
 30
0.0
  0
VERTEX
  5
89
330
84
100
AcDbEntity
  8
Calque 1
370
     0
100
AcDbVertex
100
AcDb2dVertex
 10
339.6000061035156
 20
170.8999938964844
 30
0.0
  0
SEQEND
  5
8B
330
84
100
AcDbEntity
  8
Calque 1
370
     0
  0
HATCH
  5
8A
330
72
100
AcDbEntity
  8
Calque 1
 62
    85
420
  6719570
100
AcDbHatch
 10
0.0
 20
0.0
 30
0.0
210
0.0
220
0.0
230
1.0
  2
SOLID
 70
     1
 71
     0
 91
        1
 92
        1
 93
        4
 72
     1
 10
339.6000061035156
 20
170.8999938964844
 11
348.6000061035156
 21
170.8999938964844
 72
     1
 10
348.6000061035156
 20
170.8999938964844
 11
348.6000061035156
 21
109.6999816894531
 72
     1
 10
348.6000061035156
 20
109.6999816894531
 11
339.6000061035156
 21
109.6999816894531
 72
     1
 10
339.6000061035156
 20
109.6999816894531
 11
339.6000061035156
 21
170.8999938964844
 97
        0
 75
     2
 76
     1
 98
        0
  0
ENDBLK
  5
75
330
72
100
AcDbEntity
  8
0
100
AcDbBlockEnd
  0
BLOCK
  5
8E
330
8C
100
AcDbEntity
  8
0
100
AcDbBlockBegin
  2
block 10
 70
     0
 10
0.0
 20
0.0
 30
0.0
  3
block 10
  1

  0
INSERT
  5
91
330
8C
100
AcDbEntity
  8
Calque 1
100
AcDbBlockReference
  2
block 11
 10
0.0
 20
0.0
 30
0.0
  0
INSERT
  5
99
330
8C
100
AcDbEntity
  8
Calque 1
100
AcDbBlockReference
  2
block 12
 10
0.0
 20
0.0
 30
0.0
  0
ENDBLK
  5
8F
330
8C
100
AcDbEntity
  8
0
100
AcDbBlockEnd
  0
BLOCK
  5
92
330
90
100
AcDbEntity
  8
0
100
AcDbBlockBegin
  2
block 11
 70
     0
 10
0.0
 20
0.0
 30
0.0
  3
block 11
  1

  0
SPLINE
  5
94
330
90
100
AcDbEntity
  8
Calque 1
370
     0
100
AcDbSpline
210
0.0
220
0.0
230
1.0
 70
    11
 71
     3
 72
    17
 73
    13
 74
     0
 42
0.0000000001
 43
0.0000000001
 12
1.0
 22
0.0
 32
0.0
 13
1.0
 23
0.0
 33
0.0
 40
0.0
 40
0.0
 40
0.0
 40
0.0
 40
1.0
 40
1.0
 40
1.0
 40
2.0
 40
2.0
 40
2.0
 40
3.0
 40
3.0
 40
3.0
 40
4.0
 40
4.0
 40
4.0
 40
4.0
 10
356.6000061035156
 20
201.3999938964844
 30
0.0
 10
359.8000183105469
 20
205.5
 30
0.0
 10
362.3000183105469
 20
222.2999877929688
 30
0.0
 10
359.7000122070312
 20
222.8999938964844
 30
0.0
 10
353.2000122070312
 20
224.5
 30
0.0
 10
345.3000183105469
 20
218.5999908447266
 30
0.0
 10
341.6000061035156
 20
214.0
 30
0.0
 10
334.3999938964844
 20
205.0
 30
0.0
 10
334.3000183105469
 20
190.8999938964844
 30
0.0
 10
335.3999938964844
 20
189.8000030517578
 30
0.0
 10
336.2999877929688
 20
185.6000061035156
 30
0.0
 10
354.0
 20
198.0
 30
0.0
 10
356.6000061035156
 20
201.3999938964844
 30
0.0
  0
HATCH
  5
95
330
90
100
AcDbEntity
  8
Calque 1
 62
    85
420
  6719570
100
AcDbHatch
 10
0.0
 20
0.0
 30
0.0
210
0.0
220
0.0
230
1.0
  2
SOLID
 70
     1
 71
     0
 91
        1
 92
        1
 93
        1
 72
     4
 94
        3
 73
     0
 74
     1
 95
       17
 96
       13
 40
0.0
 40
0.0
 40
0.0
 40
0.0
 40
1.0
 40
1.0
 40
1.0
 40
2.0
 40
2.0
 40
2.0
 40
3.0
 40
3.0
 40
3.0
 40
4.0
 40
4.0
 40
4.0
 40
4.0
 10
356.6000061035156
 20
201.3999938964844
 10
359.8000183105469
 20
205.5
 10
362.3000183105469
 20
222.2999877929688
 10
359.7000122070312
 20
222.8999938964844
 10
353.2000122070312
 20
224.5
 10
345.3000183105469
 20
218.5999908447266
 10
341.6000061035156
 20
214.0
 10
334.3999938964844
 20
205.0
 10
334.3000183105469
 20
190.8999938964844
 10
335.3999938964844
 20
189.8000030517578
 10
336.2999877929688
 20
185.6000061035156
 10
354.0
 20
198.0
 10
356.6000061035156
 20
201.3999938964844
 97
        0
 97
        0
 75
     2
 76
     1
 98
        0
  0
SPLINE
  5
96
330
90
100
AcDbEntity
  8
Calque 1
370
     0
100
AcDbSpline
210
0.0
220
0.0
230
1.0
 70
    11
 71
     3
 72
    17
 73
    13
 74
     0
 42
0.0000000001
 43
0.0000000001
 12
1.0
 22
0.0
 32
0.0
 13
1.0
 23
0.0
 33
0.0
 40
0.0
 40
0.0
 40
0.0
 40
0.0
 40
1.0
 40
1.0
 40
1.0
 40
2.0
 40
2.0
 40
2.0
 40
3.0
 40
3.0
 40
3.0
 40
4.0
 40
4.0
 40
4.0
 40
4.0
 10
377.7999877929688
 20
187.8000030517578
 30
0.0
 10
374.5
 20
193.1000061035156
 30
0.0
 10
366.7999877929688
 20
193.5
 30
0.0
 10
361.0999755859375
 20
193.6999969482422
 30
0.0
 10
349.3999633789062
 20
194.0999908447266
 30
0.0
 10
337.9999694824219
 20
182.6999969482422
 30
0.0
 10
341.2999877929688
 20
181.0999908447266
 30
0.0
 10
347.3999938964844
 20
175.0
 30
0.0
 10
370.3999938964844
 20
186.1999969482422
 30
0.0
 10
376.6999816894531
 20
185.8999938964844
 30
0.0
 10
377.7000122070312
 20
185.8000030517578
 30
0.0
 10
378.2999877929688
 20
187.0
 30
0.0
 10
377.7999877929688
 20
187.8000030517578
 30
0.0
  0
HATCH
  5
97
330
90
100
AcDbEntity
  8
Calque 1
 62
   253
420
 10731919
100
AcDbHatch
 10
0.0
 20
0.0
 30
0.0
210
0.0
220
0.0
230
1.0
  2
SOLID
 70
     1
 71
     0
 91
        1
 92
        1
 93
        1
 72
     4
 94
        3
 73
     0
 74
     1
 95
       17
 96
       13
 40
0.0
 40
0.0
 40
0.0
 40
0.0
 40
1.0
 40
1.0
 40
1.0
 40
2.0
 40
2.0
 40
2.0
 40
3.0
 40
3.0
 40
3.0
 40
4.0
 40
4.0
 40
4.0
 40
4.0
 10
377.7999877929688
 20
187.8000030517578
 10
374.5
 20
193.1000061035156
 10
366.7999877929688
 20
193.5
 10
361.0999755859375
 20
193.6999969482422
 10
349.3999633789062
 20
194.0999908447266
 10
337.9999694824219
 20
182.6999969482422
 10
341.2999877929688
 20
181.0999908447266
 10
347.3999938964844
 20
175.0
 10
370.3999938964844
 20
186.1999969482422
 10
376.6999816894531
 20
185.8999938964844
 10
377.7000122070312
 20
185.8000030517578
 10
378.2999877929688
 20
187.0
 10
377.7999877929688
 20
187.8000030517578
 97
        0
 97
        0
 75
     2
 76
     1
 98
        0
  0
ENDBLK
  5
93
330
90
100
AcDbEntity
  8
0
100
AcDbBlockEnd
  0
BLOCK
  5
9A
330
98
100
AcDbEntity
  8
0
100
AcDbBlockBegin
  2
block 12
 70
     0
 10
0.0
 20
0.0
 30
0.0
  3
block 12
  1

  0
SPLINE
  5
9C
330
98
100
AcDbEntity
  8
Calque 1
370
     0
100
AcDbSpline
210
0.0
220
0.0
230
1.0
 70
    11
 71
     3
 72
    17
 73
    13
 74
     0
 42
0.0000000001
 43
0.0000000001
 12
1.0
 22
0.0
 32
0.0
 13
1.0
 23
0.0
 33
0.0
 40
0.0
 40
0.0
 40
0.0
 40
0.0
 40
1.0
 40
1.0
 40
1.0
 40
2.0
 40
2.0
 40
2.0
 40
3.0
 40
3.0
 40
3.0
 40
4.0
 40
4.0
 40
4.0
 40
4.0
 10
75.4000015258789
 20
202.3000030517578
 30
0.0
 10
72.20000457763672
 20
206.4000091552734
 30
0.0
 10
69.70000457763672
 20
223.1999969482422
 30
0.0
 10
72.30000305175781
 20
223.8000030517578
 30
0.0
 10
78.80000305175781
 20
225.4000091552734
 30
0.0
 10
86.70000457763672
 20
219.5
 30
0.0
 10
90.4000015258789
 20
214.9000091552734
 30
0.0
 10
97.5999984741211
 20
205.9000091552734
 30
0.0
 10
97.70000457763672
 20
191.8000030517578
 30
0.0
 10
96.5999984741211
 20
190.7000122070312
 30
0.0
 10
95.69999694824219
 20
186.3999938964844
 30
0.0
 10
78.0
 20
198.8999938964844
 30
0.0
 10
75.4000015258789
 20
202.3000030517578
 30
0.0
  0
HATCH
  5
9D
330
98
100
AcDbEntity
  8
Calque 1
 62
    85
420
  6719570
100
AcDbHatch
 10
0.0
 20
0.0
 30
0.0
210
0.0
220
0.0
230
1.0
  2
SOLID
 70
     1
 71
     0
 91
        1
 92
        1
 93
        1
 72
     4
 94
        3
 73
     0
 74
     1
 95
       17
 96
       13
 40
0.0
 40
0.0
 40
0.0
 40
0.0
 40
1.0
 40
1.0
 40
1.0
 40
2.0
 40
2.0
 40
2.0
 40
3.0
 40
3.0
 40
3.0
 40
4.0
 40
4.0
 40
4.0
 40
4.0
 10
75.4000015258789
 20
202.3000030517578
 10
72.20000457763672
 20
206.4000091552734
 10
69.70000457763672
 20
223.1999969482422
 10
72.30000305175781
 20
223.8000030517578
 10
78.80000305175781
 20
225.4000091552734
 10
86.70000457763672
 20
219.5
 10
90.4000015258789
 20
214.9000091552734
 10
97.5999984741211
 20
205.9000091552734
 10
97.70000457763672
 20
191.8000030517578
 10
96.5999984741211
 20
190.7000122070312
 10
95.69999694824219
 20
186.3999938964844
 10
78.0
 20
198.8999938964844
 10
75.4000015258789
 20
202.3000030517578
 97
        0
 97
        0
 75
     2
 76
     1
 98
        0
  0
SPLINE
  5
9E
330
98
100
AcDbEntity
  8
Calque 1
370
     0
100
AcDbSpline
210
0.0
220
0.0
230
1.0
 70
    11
 71
     3
 72
    17
 73
    13
 74
     0
 42
0.0000000001
 43
0.0000000001
 12
1.0
 22
0.0
 32
0.0
 13
1.0
 23
0.0
 33
0.0
 40
0.0
 40
0.0
 40
0.0
 40
0.0
 40
1.0
 40
1.0
 40
1.0
 40
2.0
 40
2.0
 40
2.0
 40
3.0
 40
3.0
 40
3.0
 40
4.0
 40
4.0
 40
4.0
 40
4.0
 10
54.20000076293945
 20
188.6000061035156
 30
0.0
 10
57.5
 20
193.9000091552734
 30
0.0
 10
65.19999694824219
 20
194.3000030517578
 30
0.0
 10
70.9000015258789
 20
194.5
 30
0.0
 10
82.5999984741211
 20
194.8999938964844
 30
0.0
 10
94.0
 20
183.5
 30
0.0
 10
90.69999694824219
 20
181.8999938964844
 30
0.0
 10
84.5999984741211
 20
175.7999877929688
 30
0.0
 10
61.59999847412109
 20
187.0
 30
0.0
 10
55.29999542236328
 20
186.6999969482422
 30
0.0
 10
54.29999923706055
 20
186.6000061035156
 30
0.0
 10
53.70000076293945
 20
187.8000030517578
 30
0.0
 10
54.20000076293945
 20
188.6000061035156
 30
0.0
  0
HATCH
  5
9F
330
98
100
AcDbEntity
  8
Calque 1
 62
   253
420
 10731919
100
AcDbHatch
 10
0.0
 20
0.0
 30
0.0
210
0.0
220
0.0
230
1.0
  2
SOLID
 70
     1
 71
     0
 91
        1
 92
        1
 93
        1
 72
     4
 94
        3
 73
     0
 74
     1
 95
       17
 96
       13
 40
0.0
 40
0.0
 40
0.0
 40
0.0
 40
1.0
 40
1.0
 40
1.0
 40
2.0
 40
2.0
 40
2.0
 40
3.0
 40
3.0
 40
3.0
 40
4.0
 40
4.0
 40
4.0
 40
4.0
 10
54.20000076293945
 20
188.6000061035156
 10
57.5
 20
193.9000091552734
 10
65.19999694824219
 20
194.3000030517578
 10
70.9000015258789
 20
194.5
 10
82.5999984741211
 20
194.8999938964844
 10
94.0
 20
183.5
 10
90.69999694824219
 20
181.8999938964844
 10
84.5999984741211
 20
175.7999877929688
 10
61.59999847412109
 20
187.0
 10
55.29999542236328
 20
186.6999969482422
 10
54.29999923706055
 20
186.6000061035156
 10
53.70000076293945
 20
187.8000030517578
 10
54.20000076293945
 20
188.6000061035156
 97
        0
 97
        0
 75
     2
 76
     1
 98
        0
  0
ENDBLK
  5
9B
330
98
100
AcDbEntity
  8
0
100
AcDbBlockEnd
  0
ENDSEC
  0
SECTION
  2
ENTITIES
  0
INSERT
  5
42
330
1F
100
AcDbEntity
  8
Calque 1
100
AcDbBlockReference
  2
block 2
 10
0.0
 20
0.0
 30
0.0
  0
ENDSEC
  0
SECTION
  2
OBJECTS
  0
DICTIONARY
  5
C
330
0
100
AcDbDictionary
281
     1
  3
ACAD_GROUP
350
D
  3
ACAD_LAYOUT
350
1A
  3
ACAD_MATERIAL
350
3B
  3
ACAD_MLEADERSTYLE
350
A1
  3
ACAD_MLINESTYLE
350
17
  3
ACAD_PLOTSETTINGS
350
19
  3
ACAD_PLOTSTYLENAME
350
E
  3
ACAD_TABLESTYLE
350
A0
  3
ACAD_VISUALSTYLE
350
2A
  0
SUN
  5
3F
330
29
100
AcDbSun
 90
        1
290
     0
 63
     7
421
 16777215
 40
1.0
291
     1
 91
  2455826
 92
 54000000
292
     0
 70
     2
 71
   256
280
     1
  0
DICTIONARY
  5
D
102
{ACAD_REACTORS
330
C
102
}
330
C
100
AcDbDictionary
281
     1
  0
DICTIONARY
  5
1A
102
{ACAD_REACTORS
330
C
102
}
330
C
100
AcDbDictionary
281
     1
  3
Layout1
350
1E
  3
Layout2
350
26
  3
Model
350
22
  0
DICTIONARY
  5
3B
102
{ACAD_REACTORS
330
C
102
}
330
C
100
AcDbDictionary
281
     1
  3
ByBlock
350
3D
  3
ByLayer
350
3C
  3
Global
350
3E
  0
DICTIONARY
  5
A1
102
{ACAD_REACTORS
330
C
102
}
330
C
100
AcDbDictionary
281
     1
  0
DICTIONARY
  5
17
102
{ACAD_REACTORS
330
C
102
}
330
C
100
AcDbDictionary
281
     1
  3
Standard
350
18
  0
DICTIONARY
  5
19
102
{ACAD_REACTORS
330
C
102
}
330
C
100
AcDbDictionary
281
     1
  0
ACDBDICTIONARYWDFLT
  5
E
102
{ACAD_REACTORS
330
C
102
}
330
C
100
AcDbDictionary
281
     1
  3
Normal
350
F
100
AcDbDictionaryWithDefault
340
F
  0
DICTIONARY
  5
A0
102
{ACAD_REACTORS
330
C
102
}
330
C
100
AcDbDictionary
281
     1
  0
DICTIONARY
  5
2A
102
{ACAD_REACTORS
330
C
102
}
330
C
100
AcDbDictionary
281
     1
  3
2dWireframe
350
2F
  3
3D Hidden
350
31
  3
3dWireframe
350
30
  3
Basic
350
32
  3
Brighten
350
36
  3
ColorChange
350
3A
  3
Conceptual
350
34
  3
Dim
350
35
  3
Facepattern
350
39
  3
Flat
350
2B
  3
FlatWithEdges
350
2C
  3
Gouraud
350
2D
  3
GouraudWithEdges
350
2E
  3
Linepattern
350
38
  3
Realistic
350
33
  3
Thicken
350
37
  0
LAYOUT
  5
1E
102
{ACAD_REACTORS
330
1A
102
}
330
1A
100
AcDbPlotSettings
  1

  2
none_device
  4

  6

 40
0.0
 41
0.0
 42
0.0
 43
0.0
 44
0.0
 45
0.0
 46
0.0
 47
0.0
 48
0.0
 49
0.0
140
0.0
141
0.0
142
1.0
143
1.0
 70
   688
 72
     0
 73
     0
 74
     5
  7

 75
    16
 76
     0
 77
     2
 78
   300
147
1.0
148
0.0
149
0.0
100
AcDbLayout
  1
Layout1
 70
     1
 71
     1
 10
0.0
 20
0.0
 11
12.0
 21
9.0
 12
0.0
 22
0.0
 32
0.0
 14
1.000000000000000E+20
 24
1.000000000000000E+20
 34
1.000000000000000E+20
 15
-1.000000000000000E+20
 25
-1.000000000000000E+20
 35
-1.000000000000000E+20
146
0.0
 13
0.0
 23
0.0
 33
0.0
 16
1.0
 26
0.0
 36
0.0
 17
0.0
 27
1.0
 37
0.0
 76
     0
330
1B
  0
LAYOUT
  5
26
102
{ACAD_REACTORS
330
1A
102
}
330
1A
100
AcDbPlotSettings
  1

  2
none_device
  4

  6

 40
0.0
 41
0.0
 42
0.0
 43
0.0
 44
0.0
 45
0.0
 46
0.0
 47
0.0
 48
0.0
 49
0.0
140
0.0
141
0.0
142
1.0
143
1.0
 70
   688
 72
     0
 73
     0
 74
     5
  7

 75
    16
 76
     0
 77
     2
 78
   300
147
1.0
148
0.0
149
0.0
100
AcDbLayout
  1
Layout2
 70
     1
 71
     2
 10
0.0
 20
0.0
 11
0.0
 21
0.0
 12
0.0
 22
0.0
 32
0.0
 14
0.0
 24
0.0
 34
0.0
 15
0.0
 25
0.0
 35
0.0
146
0.0
 13
0.0
 23
0.0
 33
0.0
 16
1.0
 26
0.0
 36
0.0
 17
0.0
 27
1.0
 37
0.0
 76
     0
330
23
  0
LAYOUT
  5
22
102
{ACAD_REACTORS
330
1A
102
}
330
1A
100
AcDbPlotSettings
  1

  2
none_device
  4

  6

 40
0.0
 41
0.0
 42
0.0
 43
0.0
 44
0.0
 45
0.0
 46
0.0
 47
0.0
 48
0.0
 49
0.0
140
0.0
141
0.0
142
1.0
143
1.0
 70
  1712
 72
     0
 73
     0
 74
     0
  7

 75
     0
 76
     0
 77
     2
 78
   300
147
1.0
148
0.0
149
0.0
100
AcDbLayout
  1
Model
 70
     1
 71
     0
 10
0.0
 20
0.0
 11
12.0
 21
9.0
 12
0.0
 22
0.0
 32
0.0
 14
1.000000000000000E+20
 24
1.000000000000000E+20
 34
1.000000000000000E+20
 15
-1.000000000000000E+20
 25
-1.000000000000000E+20
 35
-1.000000000000000E+20
146
0.0
 13
0.0
 23
0.0
 33
0.0
 16
1.0
 26
0.0
 36
0.0
 17
0.0
 27
1.0
 37
0.0
 76
     0
330
1F
331
29
  0
MATERIAL
  5
3D
102
{ACAD_REACTORS
330
3B
102
}
330
3B
100
AcDbMaterial
  1
ByBlock
 72
     1
 94
      127
  0
MATERIAL
  5
3C
102
{ACAD_REACTORS
330
3B
102
}
330
3B
100
AcDbMaterial
  1
ByLayer
 72
     1
 94
      127
  0
MATERIAL
  5
3E
102
{ACAD_REACTORS
330
3B
102
}
330
3B
100
AcDbMaterial
  1
Global
 72
     1
 94
      127
  0
MLINESTYLE
  5
18
102
{ACAD_REACTORS
330
17
102
}
330
17
100
AcDbMlineStyle
  2
Standard
 70
     0
  3

 62
   256
 51
90.0
 52
90.0
 71
     2
 49
0.5
 62
   256
  6
BYLAYER
 49
-0.5
 62
   256
  6
BYLAYER
  0
ACDBPLACEHOLDER
  5
F
102
{ACAD_REACTORS
330
E
102
}
330
E
  0
VISUALSTYLE
  5
2F
102
{ACAD_REACTORS
330
2A
102
}
330
2A
100
AcDbVisualStyle
  2
2dWireframe
 70
     4
177
     2
291
     0
 71
     0
176
     1
 72
     2
176
     1
 73
     0
176
     1
 90
        0
176
     1
 40
-0.6
176
     1
 41
-30.0
176
     1
 62
     5
 63
     7
421
 16777215
176
     1
 74
     1
176
     1
 91
        4
176
     1
 64
     7
176
     1
 65
   257
176
     1
 75
     1
176
     1
175
     1
176
     1
 42
1.0
176
     1
 92
        0
176
     1
 66
   257
176
     1
 43
1.0
176
     1
 76
     1
176
     1
 77
     6
176
     1
 78
     2
176
     1
 67
     7
176
     1
 79
     5
176
     1
170
     0
176
     1
171
     0
176
     1
290
     0
176
     1
 93
        1
176
     1
 44
0.0
176
     1
173
     0
176
     1
  0
VISUALSTYLE
  5
31
102
{ACAD_REACTORS
330
2A
102
}
330
2A
100
AcDbVisualStyle
  2
3D Hidden
 70
     6
177
     2
291
     0
 71
     1
176
     1
 72
     2
176
     1
 73
     2
176
     1
 90
        0
176
     1
 40
-0.6
176
     1
 41
-30.0
176
     1
 62
     5
 63
     7
421
 16777215
176
     1
 74
     2
176
     1
 91
        2
176
     1
 64
     7
176
     1
 65
   257
176
     1
 75
     2
176
     1
175
     1
176
     1
 42
40.0
176
     1
 92
        0
176
     1
 66
   257
176
     1
 43
1.0
176
     1
 76
     1
176
     1
 77
     6
176
     1
 78
     2
176
     1
 67
     7
176
     1
 79
     3
176
     1
170
     0
176
     1
171
     0
176
     1
290
     0
176
     1
 93
        1
176
     1
 44
0.0
176
     1
173
     0
176
     1
  0
VISUALSTYLE
  5
30
102
{ACAD_REACTORS
330
2A
102
}
330
2A
100
AcDbVisualStyle
  2
3dWireframe
 70
     5
177
     2
291
     0
 71
     0
176
     1
 72
     2
176
     1
 73
     0
176
     1
 90
        0
176
     1
 40
-0.6
176
     1
 41
-30.0
176
     1
 62
     5
 63
     7
421
 16777215
176
     1
 74
     1
176
     1
 91
        4
176
     1
 64
     7
176
     1
 65
   257
176
     1
 75
     1
176
     1
175
     1
176
     1
 42
1.0
176
     1
 92
        0
176
     1
 66
   257
176
     1
 43
1.0
176
     1
 76
     1
176
     1
 77
     6
176
     1
 78
     2
176
     1
 67
     7
176
     1
 79
     5
176
     1
170
     0
176
     1
171
     0
176
     1
290
     0
176
     1
 93
        1
176
     1
 44
0.0
176
     1
173
     0
176
     1
  0
VISUALSTYLE
  5
32
102
{ACAD_REACTORS
330
2A
102
}
330
2A
100
AcDbVisualStyle
  2
Basic
 70
     7
177
     2
291
     1
 71
     1
176
     1
 72
     0
176
     1
 73
     1
176
     1
 90
        0
176
     1
 40
-0.6
176
     1
 41
-30.0
176
     1
 62
     5
 63
     7
421
 16777215
176
     1
 74
     0
176
     1
 91
        4
176
     1
 64
     7
176
     1
 65
   257
176
     1
 75
     1
176
     1
175
     1
176
     1
 42
1.0
176
     1
 92
        8
176
     1
 66
     7
176
     1
 43
1.0
176
     1
 76
     1
176
     1
 77
     6
176
     1
 78
     2
176
     1
 67
     7
176
     1
 79
     5
176
     1
170
     0
176
     1
171
     0
176
     1
290
     0
176
     1
 93
        1
176
     1
 44
0.0
176
     1
173
     0
176
     1
  0
VISUALSTYLE
  5
36
102
{ACAD_REACTORS
330
2A
102
}
330
2A
100
AcDbVisualStyle
  2
Brighten
 70
    12
177
     2
291
     1
 71
     2
176
     1
 72
     2
176
     1
 73
     0
176
     1
 90
        0
176
     1
 40
-0.6
176
     1
 41
-30.0
176
     1
 62
     5
 63
     7
421
 16777215
176
     1
 74
     1
176
     1
 91
        4
176
     1
 64
     7
176
     1
 65
   257
176
     1
 75
     1
176
     1
175
     1
176
     1
 42
1.0
176
     1
 92
        8
176
     1
 66
     7
176
     1
 43
1.0
176
     1
 76
     1
176
     1
 77
     6
176
     1
 78
     2
176
     1
 67
     7
176
     1
 79
     5
176
     1
170
     0
176
     1
171
     0
176
     1
290
     0
176
     1
 93
        1
176
     1
 44
50.0
176
     1
173
     0
176
     1
  0
VISUALSTYLE
  5
3A
102
{ACAD_REACTORS
330
2A
102
}
330
2A
100
AcDbVisualStyle
  2
ColorChange
 70
    16
177
     2
291
     1
 71
     2
176
     1
 72
     2
176
     1
 73
     3
176
     1
 90
        0
176
     1
 40
-0.6
176
     1
 41
-30.0
176
     1
 62
     5
 63
     8
421
  8421504
176
     1
 74
     1
176
     1
 91
        4
176
     1
 64
     7
176
     1
 65
   257
176
     1
 75
     1
176
     1
175
     1
176
     1
 42
1.0
176
     1
 92
        8
176
     1
 66
     8
424
  8421504
176
     1
 43
1.0
176
     1
 76
     1
176
     1
 77
     6
176
     1
 78
     2
176
     1
 67
     7
176
     1
 79
     5
176
     1
170
     0
176
     1
171
     0
176
     1
290
     0
176
     1
 93
        1
176
     1
 44
0.0
176
     1
173
     0
176
     1
  0
VISUALSTYLE
  5
34
102
{ACAD_REACTORS
330
2A
102
}
330
2A
100
AcDbVisualStyle
  2
Conceptual
 70
     9
177
     2
291
     0
 71
     3
176
     1
 72
     2
176
     1
 73
     0
176
     1
 90
        0
176
     1
 40
-0.6
176
     1
 41
-30.0
176
     1
 62
     5
 63
     7
421
 16777215
176
     1
 74
     2
176
     1
 91
        2
176
     1
 64
     7
176
     1
 65
   257
176
     1
 75
     1
176
     1
175
     1
176
     1
 42
40.0
176
     1
 92
        8
176
     1
 66
     7
176
     1
 43
1.0
176
     1
 76
     1
176
     1
 77
     6
176
     1
 78
     2
176
     1
 67
     7
176
     1
 79
     3
176
     1
170
     0
176
     1
171
     0
176
     1
290
     0
176
     1
 93
        1
176
     1
 44
0.0
176
     1
173
     0
176
     1
  0
VISUALSTYLE
  5
35
102
{ACAD_REACTORS
330
2A
102
}
330
2A
100
AcDbVisualStyle
  2
Dim
 70
    11
177
     2
291
     1
 71
     2
176
     1
 72
     2
176
     1
 73
     0
176
     1
 90
        0
176
     1
 40
-0.6
176
     1
 41
-30.0
176
     1
 62
     5
 63
     7
421
 16777215
176
     1
 74
     1
176
     1
 91
        4
176
     1
 64
     7
176
     1
 65
   257
176
     1
 75
     1
176
     1
175
     1
176
     1
 42
1.0
176
     1
 92
        8
176
     1
 66
     7
176
     1
 43
1.0
176
     1
 76
     1
176
     1
 77
     6
176
     1
 78
     2
176
     1
 67
     7
176
     1
 79
     5
176
     1
170
     0
176
     1
171
     0
176
     1
290
     0
176
     1
 93
        1
176
     1
 44
-50.0
176
     1
173
     0
176
     1
  0
VISUALSTYLE
  5
39
102
{ACAD_REACTORS
330
2A
102
}
330
2A
100
AcDbVisualStyle
  2
Facepattern
 70
    15
177
     2
291
     1
 71
     2
176
     1
 72
     2
176
     1
 73
     0
176
     1
 90
        0
176
     1
 40
-0.6
176
     1
 41
-30.0
176
     1
 62
     5
 63
     7
421
 16777215
176
     1
 74
     1
176
     1
 91
        4
176
     1
 64
     7
176
     1
 65
   257
176
     1
 75
     1
176
     1
175
     1
176
     1
 42
1.0
176
     1
 92
        8
176
     1
 66
     7
176
     1
 43
1.0
176
     1
 76
     1
176
     1
 77
     6
176
     1
 78
     2
176
     1
 67
     7
176
     1
 79
     5
176
     1
170
     0
176
     1
171
     0
176
     1
290
     0
176
     1
 93
        1
176
     1
 44
0.0
176
     1
173
     0
176
     1
  0
VISUALSTYLE
  5
2B
102
{ACAD_REACTORS
330
2A
102
}
330
2A
100
AcDbVisualStyle
  2
Flat
 70
     0
177
     2
291
     1
 71
     2
176
     1
 72
     1
176
     1
 73
     1
176
     1
 90
        2
176
     1
 40
-0.6
176
     1
 41
30.0
176
     1
 62
     5
 63
     7
421
 16777215
176
     1
 74
     0
176
     1
 91
        4
176
     1
 64
     7
176
     1
 65
   257
176
     1
 75
     1
176
     1
175
     1
176
     1
 42
1.0
176
     1
 92
        8
176
     1
 66
     7
176
     1
 43
1.0
176
     1
 76
     1
176
     1
 77
     6
176
     1
 78
     2
176
     1
 67
     7
176
     1
 79
     5
176
     1
170
     0
176
     1
171
     0
176
     1
290
     0
176
     1
 93
       13
176
     1
 44
0.0
176
     1
173
     0
176
     1
  0
VISUALSTYLE
  5
2C
102
{ACAD_REACTORS
330
2A
102
}
330
2A
100
AcDbVisualStyle
  2
FlatWithEdges
 70
     1
177
     2
291
     1
 71
     2
176
     1
 72
     1
176
     1
 73
     1
176
     1
 90
        2
176
     1
 40
-0.6
176
     1
 41
30.0
176
     1
 62
     5
 63
     7
421
 16777215
176
     1
 74
     1
176
     1
 91
        4
176
     1
 64
     7
176
     1
 65
   257
176
     1
 75
     1
176
     1
175
     1
176
     1
 42
1.0
176
     1
 92
        0
176
     1
 66
   257
176
     1
 43
1.0
176
     1
 76
     1
176
     1
 77
     6
176
     1
 78
     2
176
     1
 67
     7
176
     1
 79
     5
176
     1
170
     0
176
     1
171
     0
176
     1
290
     0
176
     1
 93
       13
176
     1
 44
0.0
176
     1
173
     0
176
     1
  0
VISUALSTYLE
  5
2D
102
{ACAD_REACTORS
330
2A
102
}
330
2A
100
AcDbVisualStyle
  2
Gouraud
 70
     2
177
     2
291
     1
 71
     2
176
     1
 72
     2
176
     1
 73
     1
176
     1
 90
        2
176
     1
 40
-0.6
176
     1
 41
30.0
176
     1
 62
     5
 63
     7
421
 16777215
176
     1
 74
     0
176
     1
 91
        4
176
     1
 64
     7
176
     1
 65
   257
176
     1
 75
     1
176
     1
175
     1
176
     1
 42
1.0
176
     1
 92
        0
176
     1
 66
     7
176
     1
 43
1.0
176
     1
 76
     1
176
     1
 77
     6
176
     1
 78
     2
176
     1
 67
     7
176
     1
 79
     5
176
     1
170
     0
176
     1
171
     0
176
     1
290
     0
176
     1
 93
       13
176
     1
 44
0.0
176
     1
173
     0
176
     1
  0
VISUALSTYLE
  5
2E
102
{ACAD_REACTORS
330
2A
102
}
330
2A
100
AcDbVisualStyle
  2
GouraudWithEdges
 70
     3
177
     2
291
     1
 71
     2
176
     1
 72
     2
176
     1
 73
     1
176
     1
 90
        2
176
     1
 40
-0.6
176
     1
 41
30.0
176
     1
 62
     5
 63
     7
421
 16777215
176
     1
 74
     1
176
     1
 91
        4
176
     1
 64
     7
176
     1
 65
   257
176
     1
 75
     1
176
     1
175
     1
176
     1
 42
1.0
176
     1
 92
        0
176
     1
 66
   257
176
     1
 43
1.0
176
     1
 76
     1
176
     1
 77
     6
176
     1
 78
     2
176
     1
 67
     7
176
     1
 79
     5
176
     1
170
     0
176
     1
171
     0
176
     1
290
     0
176
     1
 93
       13
176
     1
 44
0.0
176
     1
173
     0
176
     1
  0
VISUALSTYLE
  5
38
102
{ACAD_REACTORS
330
2A
102
}
330
2A
100
AcDbVisualStyle
  2
Linepattern
 70
    14
177
     2
291
     1
 71
     2
176
     1
 72
     2
176
     1
 73
     0
176
     1
 90
        0
176
     1
 40
-0.6
176
     1
 41
-30.0
176
     1
 62
     5
 63
     7
421
 16777215
176
     1
 74
     1
176
     1
 91
        4
176
     1
 64
     7
176
     1
 65
   257
176
     1
 75
     7
176
     1
175
     7
176
     1
 42
1.0
176
     1
 92
        8
176
     1
 66
     7
176
     1
 43
1.0
176
     1
 76
     1
176
     1
 77
     6
176
     1
 78
     2
176
     1
 67
     7
176
     1
 79
     5
176
     1
170
     0
176
     1
171
     0
176
     1
290
     0
176
     1
 93
        1
176
     1
 44
0.0
176
     1
173
     0
176
     1
  0
VISUALSTYLE
  5
33
102
{ACAD_REACTORS
330
2A
102
}
330
2A
100
AcDbVisualStyle
  2
Realistic
 70
     8
177
     2
291
     0
 71
     2
176
     1
 72
     2
176
     1
 73
     0
176
     1
 90
        0
176
     1
 40
-0.6
176
     1
 41
-30.0
176
     1
 62
     5
 63
     7
421
 16777215
176
     1
 74
     1
176
     1
 91
        0
176
     1
 64
     7
176
     1
 65
   257
176
     1
 75
     1
176
     1
175
     1
176
     1
 42
1.0
176
     1
 92
        8
176
     1
 66
     8
424
  7895160
176
     1
 43
1.0
176
     1
 76
     1
176
     1
 77
     6
176
     1
 78
     2
176
     1
 67
     7
176
     1
 79
     5
176
     1
170
     0
176
     1
171
     0
176
     1
290
     0
176
     1
 93
       13
176
     1
 44
0.0
176
     1
173
     0
176
     1
  0
VISUALSTYLE
  5
37
102
{ACAD_REACTORS
330
2A
102
}
330
2A
100
AcDbVisualStyle
  2
Thicken
 70
    13
177
     2
291
     1
 71
     2
176
     1
 72
     2
176
     1
 73
     0
176
     1
 90
        0
176
     1
 40
-0.6
176
     1
 41
-30.0
176
     1
 62
     5
 63
     7
421
 16777215
176
     1
 74
     1
176
     1
 91
        4
176
     1
 64
     7
176
     1
 65
   257
176
     1
 75
     1
176
     1
175
     1
176
     1
 42
1.0
176
     1
 92
       12
176
     1
 66
     7
176
     1
 43
1.0
176
     1
 76
     1
176
     1
 77
     6
176
     1
 78
     2
176
     1
 67
     7
176
     1
 79
     5
176
     1
170
     0
176
     1
171
     0
176
     1
290
     0
176
     1
 93
        1
176
     1
 44
0.0
176
     1
173
     0
176
     1
  0
ENDSEC
  0
EOF
