  0
SECTION
  2
HEADER
  9
$ACADVER
  1
AC1024
  9
$ACADMAINTVER
 70
     6
  9
$DWGCODEPAGE
  3
UNDEFINED
  9
$INSBASE
 10
0.0
 20
0.0
 30
0.0
  9
$EXTMIN
 10
1.000000000000000E+20
 20
1.000000000000000E+20
 30
1.000000000000000E+20
  9
$EXTMAX
 10
-1.000000000000000E+20
 20
-1.000000000000000E+20
 30
-1.000000000000000E+20
  9
$LIMMIN
 10
0.0
 20
0.0
  9
$LIMMAX
 10
12.0
 20
9.0
  9
$ORTHOMODE
 70
     0
  9
$REGENMODE
 70
     1
  9
$FILLMODE
 70
     1
  9
$QTEXTMODE
 70
     0
  9
$MIRRTEXT
 70
     1
  9
$LTSCALE
 40
1.0
  9
$ATTMODE
 70
     1
  9
$TEXTSIZE
 40
0.2
  9
$TRACEWID
 40
0.05
  9
$TEXTSTYLE
  7
Standard
  9
$CLAYER
  8
0
  9
$CELTYPE
  6
ByLayer
  9
$CECOLOR
 62
   256
  9
$CELTSCALE
 40
1.0
  9
$DISPSILH
 70
     0
  9
$DIMSCALE
 40
1.0
  9
$DIMASZ
 40
0.18
  9
$DIMEXO
 40
0.0625
  9
$DIMDLI
 40
0.38
  9
$DIMRND
 40
0.0
  9
$DIMDLE
 40
0.0
  9
$DIMEXE
 40
0.18
  9
$DIMTP
 40
0.0
  9
$DIMTM
 40
0.0
  9
$DIMTXT
 40
0.18
  9
$DIMCEN
 40
0.09
  9
$DIMTSZ
 40
0.0
  9
$DIMTOL
 70
     0
  9
$DIMLIM
 70
     0
  9
$DIMTIH
 70
     1
  9
$DIMTOH
 70
     1
  9
$DIMSE1
 70
     0
  9
$DIMSE2
 70
     0
  9
$DIMTAD
 70
     0
  9
$DIMZIN
 70
     0
  9
$DIMBLK
  1

  9
$DIMASO
 70
     1
  9
$DIMSHO
 70
     1
  9
$DIMPOST
  1

  9
$DIMAPOST
  1

  9
$DIMALT
 70
     0
  9
$DIMALTD
 70
     2
  9
$DIMALTF
 40
25.4
  9
$DIMLFAC
 40
1.0
  9
$DIMTOFL
 70
     0
  9
$DIMTVP
 40
0.0
  9
$DIMTIX
 70
     0
  9
$DIMSOXD
 70
     0
  9
$DIMSAH
 70
     0
  9
$DIMBLK1
  1

  9
$DIMBLK2
  1

  9
$DIMSTYLE
  2
Standard
  9
$DIMCLRD
 70
     0
  9
$DIMCLRE
 70
     0
  9
$DIMCLRT
 70
     0
  9
$DIMTFAC
 40
1.0
  9
$DIMGAP
 40
0.09
  9
$DIMJUST
 70
     0
  9
$DIMSD1
 70
     0
  9
$DIMSD2
 70
     0
  9
$DIMTOLJ
 70
     1
  9
$DIMTZIN
 70
     0
  9
$DIMALTZ
 70
     0
  9
$DIMALTTZ
 70
     0
  9
$DIMUPT
 70
     0
  9
$DIMDEC
 70
     4
  9
$DIMTDEC
 70
     4
  9
$DIMALTU
 70
     2
  9
$DIMALTTD
 70
     2
  9
$DIMTXSTY
  7
Standard
  9
$DIMAUNIT
 70
     0
  9
$DIMADEC
 70
     0
  9
$DIMALTRND
 40
0.0
  9
$DIMAZIN
 70
     0
  9
$DIMDSEP
 70
    46
  9
$DIMATFIT
 70
     3
  9
$DIMFRAC
 70
     0
  9
$DIMLDRBLK
  1

  9
$DIMLUNIT
 70
     2
  9
$DIMLWD
 70
    -2
  9
$DIMLWE
 70
    -2
  9
$DIMTMOVE
 70
     0
  9
$DIMFXL
 40
1.0
  9
$DIMFXLON
 70
     0
  9
$DIMJOGANG
 40
0.7853981633974483
  9
$DIMTFILL
 70
     0
  9
$DIMTFILLCLR
 70
     0
  9
$DIMARCSYM
 70
     0
  9
$DIMLTYPE
  6

  9
$DIMLTEX1
  6

  9
$DIMLTEX2
  6

  9
$DIMTXTDIRECTION
 70
     0
  9
$LUNITS
 70
     2
  9
$LUPREC
 70
     4
  9
$SKETCHINC
 40
0.1
  9
$FILLETRAD
 40
0.5
  9
$AUNITS
 70
     0
  9
$AUPREC
 70
     0
  9
$MENU
  1
.
  9
$ELEVATION
 40
0.0
  9
$PELEVATION
 40
0.0
  9
$THICKNESS
 40
0.0
  9
$LIMCHECK
 70
     0
  9
$CHAMFERA
 40
0.5
  9
$CHAMFERB
 40
0.5
  9
$CHAMFERC
 40
1.0
  9
$CHAMFERD
 40
0.0
  9
$SKPOLY
 70
     0
  9
$TDCREATE
 40
2458086.407824062
  9
$TDUCREATE
 40
2458086.616157407
  9
$TDUPDATE
 40
2458086.407824062
  9
$TDUUPDATE
 40
2458086.616157407
  9
$TDINDWG
 40
0.0000000116
  9
$TDUSRTIMER
 40
0.0000000116
  9
$USRTIMER
 70
     1
  9
$ANGBASE
 50
0.0
  9
$ANGDIR
 70
     0
  9
$PDMODE
 70
     0
  9
$PDSIZE
 40
0.0
  9
$PLINEWID
 40
0.0
  9
$SPLFRAME
 70
     0
  9
$SPLINETYPE
 70
     6
  9
$SPLINESEGS
 70
     8
  9
$HANDSEED
  5
99
  9
$SURFTAB1
 70
     6
  9
$SURFTAB2
 70
     6
  9
$SURFTYPE
 70
     6
  9
$SURFU
 70
     6
  9
$SURFV
 70
     6
  9
$UCSBASE
  2

  9
$UCSNAME
  2

  9
$UCSORG
 10
0.0
 20
0.0
 30
0.0
  9
$UCSXDIR
 10
1.0
 20
0.0
 30
0.0
  9
$UCSYDIR
 10
0.0
 20
1.0
 30
0.0
  9
$UCSORTHOREF
  2

  9
$UCSORTHOVIEW
 70
     0
  9
$UCSORGTOP
 10
0.0
 20
0.0
 30
0.0
  9
$UCSORGBOTTOM
 10
0.0
 20
0.0
 30
0.0
  9
$UCSORGLEFT
 10
0.0
 20
0.0
 30
0.0
  9
$UCSORGRIGHT
 10
0.0
 20
0.0
 30
0.0
  9
$UCSORGFRONT
 10
0.0
 20
0.0
 30
0.0
  9
$UCSORGBACK
 10
0.0
 20
0.0
 30
0.0
  9
$PUCSBASE
  2

  9
$PUCSNAME
  2

  9
$PUCSORG
 10
0.0
 20
0.0
 30
0.0
  9
$PUCSXDIR
 10
1.0
 20
0.0
 30
0.0
  9
$PUCSYDIR
 10
0.0
 20
1.0
 30
0.0
  9
$PUCSORTHOREF
  2

  9
$PUCSORTHOVIEW
 70
     0
  9
$PUCSORGTOP
 10
0.0
 20
0.0
 30
0.0
  9
$PUCSORGBOTTOM
 10
0.0
 20
0.0
 30
0.0
  9
$PUCSORGLEFT
 10
0.0
 20
0.0
 30
0.0
  9
$PUCSORGRIGHT
 10
0.0
 20
0.0
 30
0.0
  9
$PUCSORGFRONT
 10
0.0
 20
0.0
 30
0.0
  9
$PUCSORGBACK
 10
0.0
 20
0.0
 30
0.0
  9
$USERI1
 70
     0
  9
$USERI2
 70
     0
  9
$USERI3
 70
     0
  9
$USERI4
 70
     0
  9
$USERI5
 70
     0
  9
$USERR1
 40
0.0
  9
$USERR2
 40
0.0
  9
$USERR3
 40
0.0
  9
$USERR4
 40
0.0
  9
$USERR5
 40
0.0
  9
$WORLDVIEW
 70
     1
  9
$SHADEDGE
 70
     3
  9
$SHADEDIF
 70
    70
  9
$TILEMODE
 70
     1
  9
$MAXACTVP
 70
    64
  9
$PINSBASE
 10
0.0
 20
0.0
 30
0.0
  9
$PLIMCHECK
 70
     0
  9
$PEXTMIN
 10
1.000000000000000E+20
 20
1.000000000000000E+20
 30
1.000000000000000E+20
  9
$PEXTMAX
 10
-1.000000000000000E+20
 20
-1.000000000000000E+20
 30
-1.000000000000000E+20
  9
$PLIMMIN
 10
0.0
 20
0.0
  9
$PLIMMAX
 10
12.0
 20
9.0
  9
$UNITMODE
 70
     0
  9
$VISRETAIN
 70
     1
  9
$PLINEGEN
 70
     0
  9
$PSLTSCALE
 70
     1
  9
$TREEDEPTH
 70
  3020
  9
$CMLSTYLE
  2
Standard
  9
$CMLJUST
 70
     0
  9
$CMLSCALE
 40
1.0
  9
$PROXYGRAPHICS
 70
     1
  9
$MEASUREMENT
 70
     0
  9
$CELWEIGHT
370
    -1
  9
$ENDCAPS
280
     0
  9
$JOINSTYLE
280
     0
  9
$LWDISPLAY
290
     1
  9
$INSUNITS
 70
     1
  9
$HYPERLINKBASE
  1

  9
$STYLESHEET
  1

  9
$XEDIT
290
     1
  9
$CEPSNTYPE
380
     0
  9
$PSTYLEMODE
290
     1
  9
$FINGERPRINTGUID
  2
{7D89A420-E898-1ACE-F298-AC6F4EB6CE35}
  9
$VERSIONGUID
  2
{FAEB1C32-E019-11D5-929B-00C0DF256EC4}
  9
$EXTNAMES
290
     1
  9
$PSVPSCALE
 40
0.0
  9
$OLESTARTUP
290
     0
  9
$SORTENTS
280
   127
  9
$INDEXCTL
280
     0
  9
$HIDETEXT
280
     1
  9
$XCLIPFRAME
280
     2
  9
$HALOGAP
280
     0
  9
$OBSCOLOR
 70
   257
  9
$OBSLTYPE
280
     0
  9
$INTERSECTIONDISPLAY
280
     0
  9
$INTERSECTIONCOLOR
 70
   257
  9
$DIMASSOC
280
     2
  9
$PROJECTNAME
  1

  9
$CAMERADISPLAY
290
     0
  9
$LENSLENGTH
 40
50.0
  9
$CAMERAHEIGHT
 40
0.0
  9
$STEPSPERSEC
 40
2.0
  9
$STEPSIZE
 40
6.0
  9
$3DDWFPREC
 40
2.0
  9
$PSOLWIDTH
 40
0.25
  9
$PSOLHEIGHT
 40
4.0
  9
$LOFTANG1
 40
1.570796326794897
  9
$LOFTANG2
 40
1.570796326794897
  9
$LOFTMAG1
 40
0.0
  9
$LOFTMAG2
 40
0.0
  9
$LOFTPARAM
 70
     7
  9
$LOFTNORMALS
280
     1
  9
$LATITUDE
 40
37.795
  9
$LONGITUDE
 40
-122.394
  9
$NORTHDIRECTION
 40
0.0
  9
$TIMEZONE
 70
 -8000
  9
$LIGHTGLYPHDISPLAY
280
     1
  9
$TILEMODELIGHTSYNCH
280
     1
  9
$CMATERIAL
347
3C
  9
$SOLIDHIST
280
     1
  9
$SHOWHIST
280
     1
  9
$DWFFRAME
280
     2
  9
$DGNFRAME
280
     2
  9
$REALWORLDSCALE
290
     1
  9
$INTERFERECOLOR
 62
   256
  9
$CSHADOW
280
     0
  9
$SHADOWPLANELOCATION
 40
0.0
  0
ENDSEC
  0
SECTION
  2
CLASSES
  0
CLASS
  1
ACDBDICTIONARYWDFLT
  2
AcDbDictionaryWithDefault
  3
ObjectDBX Classes
 90
        0
 91
        4
280
     0
281
     0
  0
CLASS
  1
VISUALSTYLE
  2
AcDbVisualStyle
  3
ObjectDBX Classes
 90
     4095
 91
        4
280
     0
281
     0
  0
CLASS
  1
MATERIAL
  2
AcDbMaterial
  3
ObjectDBX Classes
 90
     1153
 91
        4
280
     0
281
     0
  0
CLASS
  1
SUN
  2
AcDbSun
  3
SCENEOE
 90
     1024
 91
        4
280
     0
281
     0
  0
ENDSEC
  0
SECTION
  2
TABLES
  0
TABLE
  2
VPORT
  5
8
330
0
100
AcDbSymbolTable
 70
     1
  0
VPORT
  5
29
330
8
100
AcDbSymbolTableRecord
100
AcDbViewportTableRecord
  2
*Active
 70
     0
 10
0.0
 20
0.0
 11
1.0
 21
1.0
 12
0.0
 22
0.0
 13
0.0
 23
0.0
 14
0.5
 24
0.5
 15
0.5
 25
0.5
 16
0.0
 26
0.0
 36
1.0
 17
3.0
 27
3.0
 37
0.0
 40
6.0
 41
1.0
 42
50.0
 43
0.0
 44
0.0
 50
0.0
 51
0.0
 71
     0
 72
   100
 73
     1
 74
     3
 75
     0
 76
     0
 77
     0
 78
     0
281
     0
 65
     1
110
0.0
120
0.0
130
0.0
111
1.0
121
0.0
131
0.0
112
0.0
122
1.0
132
0.0
 79
     0
146
0.0
 60
     3
 61
     5
292
     1
282
     1
141
0.0
142
0.0
 63
   250
361
3F
  0
ENDTAB
  0
TABLE
  2
LTYPE
  5
5
330
0
100
AcDbSymbolTable
 70
     1
  0
LTYPE
  5
14
330
5
100
AcDbSymbolTableRecord
100
AcDbLinetypeTableRecord
  2
ByBlock
 70
     0
  3

 72
    65
 73
     0
 40
0.0
  0
LTYPE
  5
15
330
5
100
AcDbSymbolTableRecord
100
AcDbLinetypeTableRecord
  2
ByLayer
 70
     0
  3

 72
    65
 73
     0
 40
0.0
  0
LTYPE
  5
16
330
5
100
AcDbSymbolTableRecord
100
AcDbLinetypeTableRecord
  2
Continuous
 70
     0
  3
Solid line
 72
    65
 73
     0
 40
0.0
  0
ENDTAB
  0
TABLE
  2
LAYER
  5
2
330
0
100
AcDbSymbolTable
 70
     2
  0
LAYER
  5
10
330
2
100
AcDbSymbolTableRecord
100
AcDbLayerTableRecord
  2
0
 70
     0
 62
     7
  6
Continuous
370
    -3
390
F
347
3E
  0
LAYER
  5
40
330
2
100
AcDbSymbolTableRecord
100
AcDbLayerTableRecord
  2
Calque 1
 70
     0
 62
     7
  6
Continuous
370
    -3
390
F
347
3E
  0
ENDTAB
  0
TABLE
  2
STYLE
  5
3
330
0
100
AcDbSymbolTable
 70
     1
  0
STYLE
  5
11
330
3
100
AcDbSymbolTableRecord
100
AcDbTextStyleTableRecord
  2
Standard
 70
     0
 40
0.0
 41
1.0
 50
0.0
 71
     0
 42
0.2
  3
txt
  4

  0
ENDTAB
  0
TABLE
  2
VIEW
  5
6
330
0
100
AcDbSymbolTable
 70
     0
  0
ENDTAB
  0
TABLE
  2
UCS
  5
7
330
0
100
AcDbSymbolTable
 70
     0
  0
ENDTAB
  0
TABLE
  2
APPID
  5
9
330
0
100
AcDbSymbolTable
 70
     1
  0
APPID
  5
12
330
9
100
AcDbSymbolTableRecord
100
AcDbRegAppTableRecord
  2
ACAD
 70
     0
  0
ENDTAB
  0
TABLE
  2
DIMSTYLE
  5
A
330
0
100
AcDbSymbolTable
 70
     1
100
AcDbDimStyleTable
  0
DIMSTYLE
105
27
330
A
100
AcDbSymbolTableRecord
100
AcDbDimStyleTableRecord
  2
Standard
 70
     0
178
     0
340
11
  0
ENDTAB
  0
TABLE
  2
BLOCK_RECORD
  5
1
330
0
100
AcDbSymbolTable
 70
    13
  0
BLOCK_RECORD
  5
1F
330
1
100
AcDbSymbolTableRecord
100
AcDbBlockTableRecord
  2
*Model_Space
340
22
 70
     0
280
     1
281
     0
  0
BLOCK_RECORD
  5
1B
330
1
100
AcDbSymbolTableRecord
100
AcDbBlockTableRecord
  2
*Paper_Space
340
1E
 70
     0
280
     1
281
     0
  0
BLOCK_RECORD
  5
23
330
1
100
AcDbSymbolTableRecord
100
AcDbBlockTableRecord
  2
*Paper_Space0
340
26
 70
     0
280
     1
281
     0
  0
BLOCK_RECORD
  5
41
330
1
100
AcDbSymbolTableRecord
100
AcDbBlockTableRecord
  2
block 2
340
0
102
{BLKREFS
331
42
102
}
 70
     0
280
     1
281
     0
  0
BLOCK_RECORD
  5
45
330
1
100
AcDbSymbolTableRecord
100
AcDbBlockTableRecord
  2
block 3
340
0
102
{BLKREFS
331
46
102
}
 70
     0
280
     1
281
     0
  0
BLOCK_RECORD
  5
4D
330
1
100
AcDbSymbolTableRecord
100
AcDbBlockTableRecord
  2
block 4
340
0
102
{BLKREFS
331
4E
102
}
 70
     0
280
     1
281
     0
  0
BLOCK_RECORD
  5
53
330
1
100
AcDbSymbolTableRecord
100
AcDbBlockTableRecord
  2
block 5
340
0
102
{BLKREFS
331
54
102
}
 70
     0
280
     1
281
     0
  0
BLOCK_RECORD
  5
65
330
1
100
AcDbSymbolTableRecord
100
AcDbBlockTableRecord
  2
block 6
340
0
102
{BLKREFS
331
66
102
}
 70
     0
280
     1
281
     0
  0
BLOCK_RECORD
  5
6D
330
1
100
AcDbSymbolTableRecord
100
AcDbBlockTableRecord
  2
block 7
340
0
102
{BLKREFS
331
6E
102
}
 70
     0
280
     1
281
     0
  0
BLOCK_RECORD
  5
73
330
1
100
AcDbSymbolTableRecord
100
AcDbBlockTableRecord
  2
block 8
340
0
102
{BLKREFS
331
74
102
}
 70
     0
280
     1
281
     0
  0
BLOCK_RECORD
  5
79
330
1
100
AcDbSymbolTableRecord
100
AcDbBlockTableRecord
  2
block 9
340
0
102
{BLKREFS
331
7A
102
}
 70
     0
280
     1
281
     0
  0
BLOCK_RECORD
  5
7D
330
1
100
AcDbSymbolTableRecord
100
AcDbBlockTableRecord
  2
block 10
340
0
102
{BLKREFS
331
7E
102
}
 70
     0
280
     1
281
     0
  0
BLOCK_RECORD
  5
83
330
1
100
AcDbSymbolTableRecord
100
AcDbBlockTableRecord
  2
block 11
340
0
102
{BLKREFS
331
84
102
}
 70
     0
280
     1
281
     0
  0
BLOCK_RECORD
  5
89
330
1
100
AcDbSymbolTableRecord
100
AcDbBlockTableRecord
  2
block 12
340
0
102
{BLKREFS
331
8A
102
}
 70
     0
280
     1
281
     0
  0
BLOCK_RECORD
  5
8F
330
1
100
AcDbSymbolTableRecord
100
AcDbBlockTableRecord
  2
block 13
340
0
102
{BLKREFS
331
90
102
}
 70
     0
280
     1
281
     0
  0
ENDTAB
  0
ENDSEC
  0
SECTION
  2
BLOCKS
  0
BLOCK
  5
20
330
1F
100
AcDbEntity
  8
0
100
AcDbBlockBegin
  2
*Model_Space
 70
     0
 10
0.0
 20
0.0
 30
0.0
  3
*Model_Space
  1

  0
ENDBLK
  5
21
330
1F
100
AcDbEntity
  8
0
100
AcDbBlockEnd
  0
BLOCK
  5
1C
330
1B
100
AcDbEntity
 67
     1
  8
0
100
AcDbBlockBegin
  2
*Paper_Space
 70
     0
 10
0.0
 20
0.0
 30
0.0
  3
*Paper_Space
  1

  0
ENDBLK
  5
1D
330
1B
100
AcDbEntity
 67
     1
  8
0
100
AcDbBlockEnd
  0
BLOCK
  5
24
330
23
100
AcDbEntity
  8
0
100
AcDbBlockBegin
  2
*Paper_Space0
 70
     0
 10
0.0
 20
0.0
 30
0.0
  3
*Paper_Space0
  1

  0
ENDBLK
  5
25
330
23
100
AcDbEntity
  8
0
100
AcDbBlockEnd
  0
BLOCK
  5
43
330
41
100
AcDbEntity
  8
0
100
AcDbBlockBegin
  2
block 2
 70
     0
 10
0.0
 20
0.0
 30
0.0
  3
block 2
  1

  0
INSERT
  5
46
330
41
100
AcDbEntity
  8
Calque 1
100
AcDbBlockReference
  2
block 3
 10
0.0
 20
0.0
 30
0.0
  0
INSERT
  5
4E
330
41
100
AcDbEntity
  8
Calque 1
100
AcDbBlockReference
  2
block 4
 10
0.0
 20
0.0
 30
0.0
  0
INSERT
  5
66
330
41
100
AcDbEntity
  8
Calque 1
100
AcDbBlockReference
  2
block 6
 10
0.0
 20
0.0
 30
0.0
  0
ENDBLK
  5
44
330
41
100
AcDbEntity
  8
0
100
AcDbBlockEnd
  0
BLOCK
  5
47
330
45
100
AcDbEntity
  8
0
100
AcDbBlockBegin
  2
block 3
 70
     0
 10
0.0
 20
0.0
 30
0.0
  3
block 3
  1

  0
SPLINE
  5
49
330
45
100
AcDbEntity
  8
Calque 1
370
     0
100
AcDbSpline
210
0.0
220
0.0
230
1.0
 70
    11
 71
     3
 72
    47
 73
    43
 74
     0
 42
0.0000000001
 43
0.0000000001
 12
1.0
 22
0.0
 32
0.0
 13
1.0
 23
0.0
 33
0.0
 40
0.0
 40
0.0
 40
0.0
 40
0.0
 40
1.0
 40
1.0
 40
1.0
 40
2.0
 40
2.0
 40
2.0
 40
3.0
 40
3.0
 40
3.0
 40
4.0
 40
4.0
 40
4.0
 40
5.0
 40
5.0
 40
5.0
 40
6.0
 40
6.0
 40
6.0
 40
7.0
 40
7.0
 40
7.0
 40
8.0
 40
8.0
 40
8.0
 40
9.0
 40
9.0
 40
9.0
 40
10.0
 40
10.0
 40
10.0
 40
11.0
 40
11.0
 40
11.0
 40
12.0
 40
12.0
 40
12.0
 40
13.0
 40
13.0
 40
13.0
 40
14.0
 40
14.0
 40
14.0
 40
14.0
 10
4.470833248562283
 20
2.930555555555555
 30
0.0
 10
4.465277777777778
 20
2.970833248562283
 30
0.0
 10
4.462499830457899
 20
3.008333418104383
 30
0.0
 10
4.454166412353516
 20
3.043055640326606
 30
0.0
 10
4.438888549804688
 20
3.109722349378798
 30
0.0
 10
4.404166327582465
 20
3.165277904934353
 30
0.0
 10
4.343055301242404
 20
3.201388888888889
 30
0.0
 10
4.294444190131293
 20
3.230555640326606
 30
0.0
 10
4.243055131700304
 20
3.231944402058919
 30
0.0
 10
4.191666497124566
 20
3.206944359673394
 30
0.0
 10
4.112499660915798
 20
3.16805542839898
 30
0.0
 10
4.068055470784505
 20
3.101388719346788
 30
0.0
 10
4.040277693006727
 20
3.020833333333333
 30
0.0
 10
3.993055555555555
 20
2.883333418104383
 30
0.0
 10
3.995833079020182
 20
2.745833290947808
 30
0.0
 10
4.034722222222222
 20
2.606944402058919
 30
0.0
 10
4.045833163791232
 20
2.566666709052192
 30
0.0
 10
4.065277947319879
 20
2.529166539510091
 30
0.0
 10
4.084722306993273
 20
2.493055555555555
 30
0.0
 10
4.11250008477105
 20
2.438888973659939
 30
0.0
 10
4.162500169542101
 20
2.416666666666667
 30
0.0
 10
4.220833248562283
 20
2.413888719346788
 30
0.0
 10
4.227777693006727
 20
2.413888719346788
 30
0.0
 10
4.236111111111111
 20
2.413888719346788
 30
0.0
 10
4.243055555555555
 20
2.413888719346788
 30
0.0
 10
4.413888719346788
 20
2.430555555555555
 30
0.0
 10
4.572222391764322
 20
2.481944190131293
 30
0.0
 10
4.705555386013454
 20
2.594444274902344
 30
0.0
 10
4.751388549804688
 20
2.633333206176758
 30
0.0
 10
4.788888719346788
 20
2.677777608235677
 30
0.0
 10
4.809722052680121
 20
2.734722137451172
 30
0.0
 10
4.816666497124566
 20
2.751388761732313
 30
0.0
 10
4.820832994249131
 20
2.769444359673394
 30
0.0
 10
4.82361094156901
 20
2.787499957614475
 30
0.0
 10
4.837499830457899
 20
2.90555551317003
 30
0.0
 10
4.758332994249131
 20
2.990277820163303
 30
0.0
 10
4.640277438693576
 20
2.987499872843424
 30
0.0
 10
4.602777269151475
 20
2.986110899183485
 30
0.0
 10
4.566666497124566
 20
2.977777693006727
 30
0.0
 10
4.533332824707031
 20
2.961111068725586
 30
0.0
 10
4.513888888888888
 20
2.951388888888889
 30
0.0
 10
4.493055555555555
 20
2.941666709052192
 30
0.0
 10
4.470833248562283
 20
2.930555555555555
 30
0.0
  0
HATCH
  5
4A
330
45
100
AcDbEntity
  8
Calque 1
 62
    24
420
 10427945
100
AcDbHatch
 10
0.0
 20
0.0
 30
0.0
210
0.0
220
0.0
230
1.0
  2
SOLID
 70
     1
 71
     0
 91
        1
 92
        1
 93
        1
 72
     4
 94
        3
 73
     0
 74
     1
 95
       47
 96
       43
 40
0.0
 40
0.0
 40
0.0
 40
0.0
 40
1.0
 40
1.0
 40
1.0
 40
2.0
 40
2.0
 40
2.0
 40
3.0
 40
3.0
 40
3.0
 40
4.0
 40
4.0
 40
4.0
 40
5.0
 40
5.0
 40
5.0
 40
6.0
 40
6.0
 40
6.0
 40
7.0
 40
7.0
 40
7.0
 40
8.0
 40
8.0
 40
8.0
 40
9.0
 40
9.0
 40
9.0
 40
10.0
 40
10.0
 40
10.0
 40
11.0
 40
11.0
 40
11.0
 40
12.0
 40
12.0
 40
12.0
 40
13.0
 40
13.0
 40
13.0
 40
14.0
 40
14.0
 40
14.0
 40
14.0
 10
4.470833248562283
 20
2.930555555555555
 10
4.465277777777778
 20
2.970833248562283
 10
4.462499830457899
 20
3.008333418104383
 10
4.454166412353516
 20
3.043055640326606
 10
4.438888549804688
 20
3.109722349378798
 10
4.404166327582465
 20
3.165277904934353
 10
4.343055301242404
 20
3.201388888888889
 10
4.294444190131293
 20
3.230555640326606
 10
4.243055131700304
 20
3.231944402058919
 10
4.191666497124566
 20
3.206944359673394
 10
4.112499660915798
 20
3.16805542839898
 10
4.068055470784505
 20
3.101388719346788
 10
4.040277693006727
 20
3.020833333333333
 10
3.993055555555555
 20
2.883333418104383
 10
3.995833079020182
 20
2.745833290947808
 10
4.034722222222222
 20
2.606944402058919
 10
4.045833163791232
 20
2.566666709052192
 10
4.065277947319879
 20
2.529166539510091
 10
4.084722306993273
 20
2.493055555555555
 10
4.11250008477105
 20
2.438888973659939
 10
4.162500169542101
 20
2.416666666666667
 10
4.220833248562283
 20
2.413888719346788
 10
4.227777693006727
 20
2.413888719346788
 10
4.236111111111111
 20
2.413888719346788
 10
4.243055555555555
 20
2.413888719346788
 10
4.413888719346788
 20
2.430555555555555
 10
4.572222391764322
 20
2.481944190131293
 10
4.705555386013454
 20
2.594444274902344
 10
4.751388549804688
 20
2.633333206176758
 10
4.788888719346788
 20
2.677777608235677
 10
4.809722052680121
 20
2.734722137451172
 10
4.816666497124566
 20
2.751388761732313
 10
4.820832994249131
 20
2.769444359673394
 10
4.82361094156901
 20
2.787499957614475
 10
4.837499830457899
 20
2.90555551317003
 10
4.758332994249131
 20
2.990277820163303
 10
4.640277438693576
 20
2.987499872843424
 10
4.602777269151475
 20
2.986110899183485
 10
4.566666497124566
 20
2.977777693006727
 10
4.533332824707031
 20
2.961111068725586
 10
4.513888888888888
 20
2.951388888888889
 10
4.493055555555555
 20
2.941666709052192
 10
4.470833248562283
 20
2.930555555555555
 97
        0
 97
        0
 75
     2
 76
     1
 98
        0
  0
SPLINE
  5
4B
330
45
100
AcDbEntity
  8
Calque 1
370
     0
100
AcDbSpline
210
0.0
220
0.0
230
1.0
 70
    11
 71
     3
 72
    47
 73
    43
 74
     0
 42
0.0000000001
 43
0.0000000001
 12
1.0
 22
0.0
 32
0.0
 13
1.0
 23
0.0
 33
0.0
 40
0.0
 40
0.0
 40
0.0
 40
0.0
 40
1.0
 40
1.0
 40
1.0
 40
2.0
 40
2.0
 40
2.0
 40
3.0
 40
3.0
 40
3.0
 40
4.0
 40
4.0
 40
4.0
 40
5.0
 40
5.0
 40
5.0
 40
6.0
 40
6.0
 40
6.0
 40
7.0
 40
7.0
 40
7.0
 40
8.0
 40
8.0
 40
8.0
 40
9.0
 40
9.0
 40
9.0
 40
10.0
 40
10.0
 40
10.0
 40
11.0
 40
11.0
 40
11.0
 40
12.0
 40
12.0
 40
12.0
 40
13.0
 40
13.0
 40
13.0
 40
14.0
 40
14.0
 40
14.0
 40
14.0
 10
4.57499991522895
 20
3.956944359673394
 30
0.0
 10
4.572221967909071
 20
3.98055542839898
 30
0.0
 10
4.570833418104383
 20
4.002777735392252
 30
0.0
 10
4.565277523464626
 20
4.023611068725586
 30
0.0
 10
4.555555131700303
 20
4.0625
 30
0.0
 10
4.53611077202691
 20
4.095833248562283
 30
0.0
 10
4.499999576144748
 20
4.116666581895617
 30
0.0
 10
4.470832824707031
 20
4.133333206176758
 30
0.0
 10
4.441666073269314
 20
4.134722179836697
 30
0.0
 10
4.41111077202691
 20
4.119444317287869
 30
0.0
 10
4.363888634575738
 20
4.097222010294596
 30
0.0
 10
4.338888380262587
 20
4.056944317287869
 30
0.0
 10
4.322221967909071
 20
4.009722179836697
 30
0.0
 10
4.294444190131293
 20
3.929166581895616
 30
0.0
 10
4.295833163791232
 20
3.847222222222222
 30
0.0
 10
4.318055470784505
 20
3.766666624281141
 30
0.0
 10
4.32499991522895
 20
3.743055555555555
 30
0.0
 10
4.33611085679796
 20
3.720833248562283
 30
0.0
 10
4.347222222222222
 20
3.69999991522895
 30
0.0
 10
4.363889058430989
 20
3.66805542839898
 30
0.0
 10
4.393055386013454
 20
3.65555551317003
 30
0.0
 10
4.427777608235677
 20
3.654166539510091
 30
0.0
 10
4.431944105360243
 20
3.654166539510091
 30
0.0
 10
4.43611102634006
 20
3.654166539510091
 30
0.0
 10
4.440277523464626
 20
3.654166539510091
 30
0.0
 10
4.540277693006727
 20
3.663888719346788
 30
0.0
 10
4.633332994249131
 20
3.694444232516819
 30
0.0
 10
4.712499830457899
 20
3.76111094156901
 30
0.0
 10
4.738888634575738
 20
3.783333248562283
 30
0.0
 10
4.76111094156901
 20
3.809722052680121
 30
0.0
 10
4.773610856797959
 20
3.843055301242404
 30
0.0
 10
4.777777353922525
 20
3.852777481079102
 30
0.0
 10
4.780555301242404
 20
3.863888634575738
 30
0.0
 10
4.781944274902344
 20
3.874999788072374
 30
0.0
 10
4.790277693006727
 20
3.944444232516819
 30
0.0
 10
4.744444105360243
 20
3.994444317287869
 30
0.0
 10
4.673611111111111
 20
3.99305534362793
 30
0.0
 10
4.651388804117838
 20
3.99305534362793
 30
0.0
 10
4.630555470784505
 20
3.987499872843424
 30
0.0
 10
4.611111111111111
 20
3.977777481079102
 30
0.0
 10
4.6000001695421
 20
3.970833248562283
 30
0.0
 10
4.587499830457899
 20
3.963888804117838
 30
0.0
 10
4.57499991522895
 20
3.956944359673394
 30
0.0
  0
HATCH
  5
4C
330
45
100
AcDbEntity
  8
Calque 1
 62
    24
420
 10427945
100
AcDbHatch
 10
0.0
 20
0.0
 30
0.0
210
0.0
220
0.0
230
1.0
  2
SOLID
 70
     1
 71
     0
 91
        1
 92
        1
 93
        1
 72
     4
 94
        3
 73
     0
 74
     1
 95
       47
 96
       43
 40
0.0
 40
0.0
 40
0.0
 40
0.0
 40
1.0
 40
1.0
 40
1.0
 40
2.0
 40
2.0
 40
2.0
 40
3.0
 40
3.0
 40
3.0
 40
4.0
 40
4.0
 40
4.0
 40
5.0
 40
5.0
 40
5.0
 40
6.0
 40
6.0
 40
6.0
 40
7.0
 40
7.0
 40
7.0
 40
8.0
 40
8.0
 40
8.0
 40
9.0
 40
9.0
 40
9.0
 40
10.0
 40
10.0
 40
10.0
 40
11.0
 40
11.0
 40
11.0
 40
12.0
 40
12.0
 40
12.0
 40
13.0
 40
13.0
 40
13.0
 40
14.0
 40
14.0
 40
14.0
 40
14.0
 10
4.57499991522895
 20
3.956944359673394
 10
4.572221967909071
 20
3.98055542839898
 10
4.570833418104383
 20
4.002777735392252
 10
4.565277523464626
 20
4.023611068725586
 10
4.555555131700303
 20
4.0625
 10
4.53611077202691
 20
4.095833248562283
 10
4.499999576144748
 20
4.116666581895617
 10
4.470832824707031
 20
4.133333206176758
 10
4.441666073269314
 20
4.134722179836697
 10
4.41111077202691
 20
4.119444317287869
 10
4.363888634575738
 20
4.097222010294596
 10
4.338888380262587
 20
4.056944317287869
 10
4.322221967909071
 20
4.009722179836697
 10
4.294444190131293
 20
3.929166581895616
 10
4.295833163791232
 20
3.847222222222222
 10
4.318055470784505
 20
3.766666624281141
 10
4.32499991522895
 20
3.743055555555555
 10
4.33611085679796
 20
3.720833248562283
 10
4.347222222222222
 20
3.69999991522895
 10
4.363889058430989
 20
3.66805542839898
 10
4.393055386013454
 20
3.65555551317003
 10
4.427777608235677
 20
3.654166539510091
 10
4.431944105360243
 20
3.654166539510091
 10
4.43611102634006
 20
3.654166539510091
 10
4.440277523464626
 20
3.654166539510091
 10
4.540277693006727
 20
3.663888719346788
 10
4.633332994249131
 20
3.694444232516819
 10
4.712499830457899
 20
3.76111094156901
 10
4.738888634575738
 20
3.783333248562283
 10
4.76111094156901
 20
3.809722052680121
 10
4.773610856797959
 20
3.843055301242404
 10
4.777777353922525
 20
3.852777481079102
 10
4.780555301242404
 20
3.863888634575738
 10
4.781944274902344
 20
3.874999788072374
 10
4.790277693006727
 20
3.944444232516819
 10
4.744444105360243
 20
3.994444317287869
 10
4.673611111111111
 20
3.99305534362793
 10
4.651388804117838
 20
3.99305534362793
 10
4.630555470784505
 20
3.987499872843424
 10
4.611111111111111
 20
3.977777481079102
 10
4.6000001695421
 20
3.970833248562283
 10
4.587499830457899
 20
3.963888804117838
 10
4.57499991522895
 20
3.956944359673394
 97
        0
 97
        0
 75
     2
 76
     1
 98
        0
  0
ENDBLK
  5
48
330
45
100
AcDbEntity
  8
0
100
AcDbBlockEnd
  0
BLOCK
  5
4F
330
4D
100
AcDbEntity
  8
0
100
AcDbBlockBegin
  2
block 4
 70
     0
 10
0.0
 20
0.0
 30
0.0
  3
block 4
  1

  0
SPLINE
  5
51
330
4D
100
AcDbEntity
  8
Calque 1
370
     0
100
AcDbSpline
210
0.0
220
0.0
230
1.0
 70
    11
 71
     3
 72
   107
 73
   103
 74
     0
 42
0.0000000001
 43
0.0000000001
 12
1.0
 22
0.0
 32
0.0
 13
1.0
 23
0.0
 33
0.0
 40
0.0
 40
0.0
 40
0.0
 40
0.0
 40
1.0
 40
1.0
 40
1.0
 40
2.0
 40
2.0
 40
2.0
 40
3.0
 40
3.0
 40
3.0
 40
4.0
 40
4.0
 40
4.0
 40
5.0
 40
5.0
 40
5.0
 40
6.0
 40
6.0
 40
6.0
 40
7.0
 40
7.0
 40
7.0
 40
8.0
 40
8.0
 40
8.0
 40
9.0
 40
9.0
 40
9.0
 40
10.0
 40
10.0
 40
10.0
 40
11.0
 40
11.0
 40
11.0
 40
12.0
 40
12.0
 40
12.0
 40
13.0
 40
13.0
 40
13.0
 40
14.0
 40
14.0
 40
14.0
 40
15.0
 40
15.0
 40
15.0
 40
16.0
 40
16.0
 40
16.0
 40
17.0
 40
17.0
 40
17.0
 40
18.0
 40
18.0
 40
18.0
 40
19.0
 40
19.0
 40
19.0
 40
20.0
 40
20.0
 40
20.0
 40
21.0
 40
21.0
 40
21.0
 40
22.0
 40
22.0
 40
22.0
 40
23.0
 40
23.0
 40
23.0
 40
24.0
 40
24.0
 40
24.0
 40
25.0
 40
25.0
 40
25.0
 40
26.0
 40
26.0
 40
26.0
 40
27.0
 40
27.0
 40
27.0
 40
28.0
 40
28.0
 40
28.0
 40
29.0
 40
29.0
 40
29.0
 40
30.0
 40
30.0
 40
30.0
 40
31.0
 40
31.0
 40
31.0
 40
32.0
 40
32.0
 40
32.0
 40
33.0
 40
33.0
 40
33.0
 40
34.0
 40
34.0
 40
34.0
 40
34.0
 10
2.162499957614475
 20
2.722222222222222
 30
0.0
 10
2.120833290947808
 20
2.869444529215495
 30
0.0
 10
2.052777820163303
 20
3.002777735392252
 30
0.0
 10
1.961111068725586
 20
3.125
 30
0.0
 10
1.945833206176758
 20
3.144444359673394
 30
0.0
 10
1.929166581895616
 20
3.163888931274414
 30
0.0
 10
1.912499957614475
 20
3.183333290947808
 30
0.0
 10
1.912499957614475
 20
3.183333290947808
 30
0.0
 10
1.931944317287869
 20
3.198611153496636
 30
0.0
 10
1.931944317287869
 20
3.198611153496636
 30
0.0
 10
1.940277735392252
 20
3.205555597941081
 30
0.0
 10
1.941666497124566
 20
3.216666751437717
 30
0.0
 10
1.934722052680121
 20
3.224999957614475
 30
0.0
 10
1.934722052680121
 20
3.224999957614475
 30
0.0
 10
1.89861085679796
 20
3.270833333333333
 30
0.0
 10
1.89861085679796
 20
3.270833333333333
 30
0.0
 10
1.891666412353516
 20
3.279166751437717
 30
0.0
 10
1.880555258856879
 20
3.28055551317003
 30
0.0
 10
1.872222052680121
 20
3.273611068725586
 30
0.0
 10
1.872222052680121
 20
3.273611068725586
 30
0.0
 10
1.734722031487359
 20
3.166666666666667
 30
0.0
 10
1.734722031487359
 20
3.166666666666667
 30
0.0
 10
1.726388719346788
 20
3.159722222222222
 30
0.0
 10
1.724999851650662
 20
3.148611068725586
 30
0.0
 10
1.731944296095106
 20
3.140277862548828
 30
0.0
 10
1.731944296095106
 20
3.140277862548828
 30
0.0
 10
1.768055386013455
 20
3.094444486829969
 30
0.0
 10
1.768055386013455
 20
3.094444486829969
 30
0.0
 10
1.774999830457899
 20
3.086111068725586
 30
0.0
 10
1.786110983954535
 20
3.084722306993272
 30
0.0
 10
1.794444190131293
 20
3.091666751437717
 30
0.0
 10
1.794444190131293
 20
3.091666751437717
 30
0.0
 10
1.813888549804688
 20
3.105555640326606
 30
0.0
 10
1.813888549804688
 20
3.105555640326606
 30
0.0
 10
1.820832994249132
 20
3.094444486829969
 30
0.0
 10
1.827777438693576
 20
3.08194457160102
 30
0.0
 10
1.83611085679796
 20
3.070833418104383
 30
0.0
 10
1.944444232516819
 20
2.908333460489909
 30
0.0
 10
2.01111094156901
 20
2.733333375718858
 30
0.0
 10
2.029166327582465
 20
2.5375001695421
 30
0.0
 10
2.044444190131293
 20
2.366667005750868
 30
0.0
 10
1.931944105360243
 20
2.177778032090929
 30
0.0
 10
1.716666327582465
 20
2.169444613986545
 30
0.0
 10
1.63888857099745
 20
2.166666666666667
 30
0.0
 10
1.568055258856879
 20
2.184722476535373
 30
0.0
 10
1.508332994249132
 20
2.23750008477105
 30
0.0
 10
1.452777438693576
 20
2.2875001695421
 30
0.0
 10
1.413888507419162
 20
2.348611195882161
 30
0.0
 10
1.38888857099745
 20
2.416666666666667
 30
0.0
 10
1.338888592190213
 20
2.55000008477105
 30
0.0
 10
1.318055258856879
 20
2.688888973659939
 30
0.0
 10
1.319444126553005
 20
2.830555597941081
 30
0.0
 10
1.319444126553005
 20
2.883333418104383
 30
0.0
 10
1.323610835605197
 20
2.936111238267686
 30
0.0
 10
1.327777438693576
 20
2.990277820163303
 30
0.0
 10
1.327777438693576
 20
2.990277820163303
 30
0.0
 10
1.361111111111111
 20
2.986111111111111
 30
0.0
 10
1.361111111111111
 20
2.986111111111111
 30
0.0
 10
1.370833290947808
 20
2.984722137451172
 30
0.0
 10
1.380555576748318
 20
2.991666581895616
 30
0.0
 10
1.383333312140571
 20
3.001388973659939
 30
0.0
 10
1.383333312140571
 20
3.001388973659939
 30
0.0
 10
1.393055491977268
 20
3.058333502875434
 30
0.0
 10
1.393055491977268
 20
3.058333502875434
 30
0.0
 10
1.394444359673394
 20
3.068055682712131
 30
0.0
 10
1.38749991522895
 20
3.077777862548828
 30
0.0
 10
1.377777735392252
 20
3.080555809868706
 30
0.0
 10
1.377777735392252
 20
3.080555809868706
 30
0.0
 10
1.206944465637207
 20
3.111111111111111
 30
0.0
 10
1.206944465637207
 20
3.111111111111111
 30
0.0
 10
1.19722228580051
 20
3.11250008477105
 30
0.0
 10
1.1875
 20
3.105555640326606
 30
0.0
 10
1.184722264607747
 20
3.095833248562283
 30
0.0
 10
1.184722264607747
 20
3.095833248562283
 30
0.0
 10
1.17500008477105
 20
3.038888719346788
 30
0.0
 10
1.17500008477105
 20
3.038888719346788
 30
0.0
 10
1.173611217074924
 20
3.029166539510091
 30
0.0
 10
1.180555661519368
 20
3.019444359673394
 30
0.0
 10
1.190277841356066
 20
3.016666412353516
 30
0.0
 10
1.190277841356066
 20
3.016666412353516
 30
0.0
 10
1.212500042385525
 20
3.012499703301323
 30
0.0
 10
1.212500042385525
 20
3.012499703301323
 30
0.0
 10
1.209722306993273
 20
3.00416628519694
 30
0.0
 10
1.208333333333333
 20
2.994444105360243
 30
0.0
 10
1.205555597941081
 20
2.984721925523546
 30
0.0
 10
1.158333354526096
 20
2.758332994249132
 30
0.0
 10
1.16527779897054
 20
2.534721798366971
 30
0.0
 10
1.25
 20
2.318055046929253
 30
0.0
 10
1.299999978807237
 20
2.188888549804688
 30
0.0
 10
1.383333312140571
 20
2.091666327582465
 30
0.0
 10
1.508333312140571
 20
2.031943851047092
 30
0.0
 10
1.555555555555555
 20
2.009721544053819
 30
0.0
 10
1.604166666666667
 20
1.993055131700304
 30
0.0
 10
1.659722222222222
 20
1.988888210720486
 30
0.0
 10
1.755555576748318
 20
1.987499237060547
 30
0.0
 10
1.866666581895616
 20
2.015277014838325
 30
0.0
 10
1.979166666666667
 20
2.076388041178385
 30
0.0
 10
2.084722306993272
 20
2.138888041178385
 30
0.0
 10
2.168055640326606
 20
2.268054538302951
 30
0.0
 10
2.1875
 20
2.398610432942708
 30
0.0
 10
2.205555597941081
 20
2.508333418104383
 30
0.0
 10
2.193055470784505
 20
2.616666581895616
 30
0.0
 10
2.162499957614475
 20
2.722222222222222
 30
0.0
  0
HATCH
  5
52
330
4D
100
AcDbEntity
  8
Calque 1
 62
   252
420
 10061429
100
AcDbHatch
 10
0.0
 20
0.0
 30
0.0
210
0.0
220
0.0
230
1.0
  2
SOLID
 70
     1
 71
     0
 91
        1
 92
        1
 93
        1
 72
     4
 94
        3
 73
     0
 74
     1
 95
      107
 96
      103
 40
0.0
 40
0.0
 40
0.0
 40
0.0
 40
1.0
 40
1.0
 40
1.0
 40
2.0
 40
2.0
 40
2.0
 40
3.0
 40
3.0
 40
3.0
 40
4.0
 40
4.0
 40
4.0
 40
5.0
 40
5.0
 40
5.0
 40
6.0
 40
6.0
 40
6.0
 40
7.0
 40
7.0
 40
7.0
 40
8.0
 40
8.0
 40
8.0
 40
9.0
 40
9.0
 40
9.0
 40
10.0
 40
10.0
 40
10.0
 40
11.0
 40
11.0
 40
11.0
 40
12.0
 40
12.0
 40
12.0
 40
13.0
 40
13.0
 40
13.0
 40
14.0
 40
14.0
 40
14.0
 40
15.0
 40
15.0
 40
15.0
 40
16.0
 40
16.0
 40
16.0
 40
17.0
 40
17.0
 40
17.0
 40
18.0
 40
18.0
 40
18.0
 40
19.0
 40
19.0
 40
19.0
 40
20.0
 40
20.0
 40
20.0
 40
21.0
 40
21.0
 40
21.0
 40
22.0
 40
22.0
 40
22.0
 40
23.0
 40
23.0
 40
23.0
 40
24.0
 40
24.0
 40
24.0
 40
25.0
 40
25.0
 40
25.0
 40
26.0
 40
26.0
 40
26.0
 40
27.0
 40
27.0
 40
27.0
 40
28.0
 40
28.0
 40
28.0
 40
29.0
 40
29.0
 40
29.0
 40
30.0
 40
30.0
 40
30.0
 40
31.0
 40
31.0
 40
31.0
 40
32.0
 40
32.0
 40
32.0
 40
33.0
 40
33.0
 40
33.0
 40
34.0
 40
34.0
 40
34.0
 40
34.0
 10
2.162499957614475
 20
2.722222222222222
 10
2.120833290947808
 20
2.869444529215495
 10
2.052777820163303
 20
3.002777735392252
 10
1.961111068725586
 20
3.125
 10
1.945833206176758
 20
3.144444359673394
 10
1.929166581895616
 20
3.163888931274414
 10
1.912499957614475
 20
3.183333290947808
 10
1.912499957614475
 20
3.183333290947808
 10
1.931944317287869
 20
3.198611153496636
 10
1.931944317287869
 20
3.198611153496636
 10
1.940277735392252
 20
3.205555597941081
 10
1.941666497124566
 20
3.216666751437717
 10
1.934722052680121
 20
3.224999957614475
 10
1.934722052680121
 20
3.224999957614475
 10
1.89861085679796
 20
3.270833333333333
 10
1.89861085679796
 20
3.270833333333333
 10
1.891666412353516
 20
3.279166751437717
 10
1.880555258856879
 20
3.28055551317003
 10
1.872222052680121
 20
3.273611068725586
 10
1.872222052680121
 20
3.273611068725586
 10
1.734722031487359
 20
3.166666666666667
 10
1.734722031487359
 20
3.166666666666667
 10
1.726388719346788
 20
3.159722222222222
 10
1.724999851650662
 20
3.148611068725586
 10
1.731944296095106
 20
3.140277862548828
 10
1.731944296095106
 20
3.140277862548828
 10
1.768055386013455
 20
3.094444486829969
 10
1.768055386013455
 20
3.094444486829969
 10
1.774999830457899
 20
3.086111068725586
 10
1.786110983954535
 20
3.084722306993272
 10
1.794444190131293
 20
3.091666751437717
 10
1.794444190131293
 20
3.091666751437717
 10
1.813888549804688
 20
3.105555640326606
 10
1.813888549804688
 20
3.105555640326606
 10
1.820832994249132
 20
3.094444486829969
 10
1.827777438693576
 20
3.08194457160102
 10
1.83611085679796
 20
3.070833418104383
 10
1.944444232516819
 20
2.908333460489909
 10
2.01111094156901
 20
2.733333375718858
 10
2.029166327582465
 20
2.5375001695421
 10
2.044444190131293
 20
2.366667005750868
 10
1.931944105360243
 20
2.177778032090929
 10
1.716666327582465
 20
2.169444613986545
 10
1.63888857099745
 20
2.166666666666667
 10
1.568055258856879
 20
2.184722476535373
 10
1.508332994249132
 20
2.23750008477105
 10
1.452777438693576
 20
2.2875001695421
 10
1.413888507419162
 20
2.348611195882161
 10
1.38888857099745
 20
2.416666666666667
 10
1.338888592190213
 20
2.55000008477105
 10
1.318055258856879
 20
2.688888973659939
 10
1.319444126553005
 20
2.830555597941081
 10
1.319444126553005
 20
2.883333418104383
 10
1.323610835605197
 20
2.936111238267686
 10
1.327777438693576
 20
2.990277820163303
 10
1.327777438693576
 20
2.990277820163303
 10
1.361111111111111
 20
2.986111111111111
 10
1.361111111111111
 20
2.986111111111111
 10
1.370833290947808
 20
2.984722137451172
 10
1.380555576748318
 20
2.991666581895616
 10
1.383333312140571
 20
3.001388973659939
 10
1.383333312140571
 20
3.001388973659939
 10
1.393055491977268
 20
3.058333502875434
 10
1.393055491977268
 20
3.058333502875434
 10
1.394444359673394
 20
3.068055682712131
 10
1.38749991522895
 20
3.077777862548828
 10
1.377777735392252
 20
3.080555809868706
 10
1.377777735392252
 20
3.080555809868706
 10
1.206944465637207
 20
3.111111111111111
 10
1.206944465637207
 20
3.111111111111111
 10
1.19722228580051
 20
3.11250008477105
 10
1.1875
 20
3.105555640326606
 10
1.184722264607747
 20
3.095833248562283
 10
1.184722264607747
 20
3.095833248562283
 10
1.17500008477105
 20
3.038888719346788
 10
1.17500008477105
 20
3.038888719346788
 10
1.173611217074924
 20
3.029166539510091
 10
1.180555661519368
 20
3.019444359673394
 10
1.190277841356066
 20
3.016666412353516
 10
1.190277841356066
 20
3.016666412353516
 10
1.212500042385525
 20
3.012499703301323
 10
1.212500042385525
 20
3.012499703301323
 10
1.209722306993273
 20
3.00416628519694
 10
1.208333333333333
 20
2.994444105360243
 10
1.205555597941081
 20
2.984721925523546
 10
1.158333354526096
 20
2.758332994249132
 10
1.16527779897054
 20
2.534721798366971
 10
1.25
 20
2.318055046929253
 10
1.299999978807237
 20
2.188888549804688
 10
1.383333312140571
 20
2.091666327582465
 10
1.508333312140571
 20
2.031943851047092
 10
1.555555555555555
 20
2.009721544053819
 10
1.604166666666667
 20
1.993055131700304
 10
1.659722222222222
 20
1.988888210720486
 10
1.755555576748318
 20
1.987499237060547
 10
1.866666581895616
 20
2.015277014838325
 10
1.979166666666667
 20
2.076388041178385
 10
2.084722306993272
 20
2.138888041178385
 10
2.168055640326606
 20
2.268054538302951
 10
2.1875
 20
2.398610432942708
 10
2.205555597941081
 20
2.508333418104383
 10
2.193055470784505
 20
2.616666581895616
 10
2.162499957614475
 20
2.722222222222222
 97
        0
 97
        0
 75
     2
 76
     1
 98
        0
  0
INSERT
  5
54
330
4D
100
AcDbEntity
  8
Calque 1
100
AcDbBlockReference
  2
block 5
 10
0.0
 20
0.0
 30
0.0
  0
ENDBLK
  5
50
330
4D
100
AcDbEntity
  8
0
100
AcDbBlockEnd
  0
BLOCK
  5
55
330
53
100
AcDbEntity
  8
0
100
AcDbBlockBegin
  2
block 5
 70
     0
 10
0.0
 20
0.0
 30
0.0
  3
block 5
  1

  0
SPLINE
  5
57
330
53
100
AcDbEntity
  8
Calque 1
370
     0
100
AcDbSpline
210
0.0
220
0.0
230
1.0
 70
    11
 71
     3
 72
    17
 73
    13
 74
     0
 42
0.0000000001
 43
0.0000000001
 12
1.0
 22
0.0
 32
0.0
 13
1.0
 23
0.0
 33
0.0
 40
0.0
 40
0.0
 40
0.0
 40
0.0
 40
1.0
 40
1.0
 40
1.0
 40
2.0
 40
2.0
 40
2.0
 40
3.0
 40
3.0
 40
3.0
 40
4.0
 40
4.0
 40
4.0
 40
4.0
 10
1.438888867696126
 20
2.13611094156901
 30
0.0
 10
1.433333290947808
 20
2.159722222222222
 30
0.0
 10
1.447222179836697
 20
2.179166581895616
 30
0.0
 10
1.470833354526096
 20
2.184722052680121
 30
0.0
 10
1.491666687859429
 20
2.188888549804688
 30
0.0
 10
1.513888888888889
 20
2.176388634575738
 30
0.0
 10
1.519444465637207
 20
2.155555301242404
 30
0.0
 10
1.525000042385525
 20
2.133332994249132
 30
0.0
 10
1.512500021192763
 20
2.111110687255859
 30
0.0
 10
1.488888952467177
 20
2.105555216471354
 30
0.0
 10
1.465277777777778
 20
2.101388719346788
 30
0.0
 10
1.444444444444444
 20
2.113889058430989
 30
0.0
 10
1.438888867696126
 20
2.13611094156901
 30
0.0
  0
HATCH
  5
58
330
53
100
AcDbEntity
  8
Calque 1
 62
    37
420
  7627864
100
AcDbHatch
 10
0.0
 20
0.0
 30
0.0
210
0.0
220
0.0
230
1.0
  2
SOLID
 70
     1
 71
     0
 91
        1
 92
        1
 93
        1
 72
     4
 94
        3
 73
     0
 74
     1
 95
       17
 96
       13
 40
0.0
 40
0.0
 40
0.0
 40
0.0
 40
1.0
 40
1.0
 40
1.0
 40
2.0
 40
2.0
 40
2.0
 40
3.0
 40
3.0
 40
3.0
 40
4.0
 40
4.0
 40
4.0
 40
4.0
 10
1.438888867696126
 20
2.13611094156901
 10
1.433333290947808
 20
2.159722222222222
 10
1.447222179836697
 20
2.179166581895616
 10
1.470833354526096
 20
2.184722052680121
 10
1.491666687859429
 20
2.188888549804688
 10
1.513888888888889
 20
2.176388634575738
 10
1.519444465637207
 20
2.155555301242404
 10
1.525000042385525
 20
2.133332994249132
 10
1.512500021192763
 20
2.111110687255859
 10
1.488888952467177
 20
2.105555216471354
 10
1.465277777777778
 20
2.101388719346788
 10
1.444444444444444
 20
2.113889058430989
 10
1.438888867696126
 20
2.13611094156901
 97
        0
 97
        0
 75
     2
 76
     1
 98
        0
  0
SPLINE
  5
59
330
53
100
AcDbEntity
  8
Calque 1
370
     0
100
AcDbSpline
210
0.0
220
0.0
230
1.0
 70
    11
 71
     3
 72
    17
 73
    13
 74
     0
 42
0.0000000001
 43
0.0000000001
 12
1.0
 22
0.0
 32
0.0
 13
1.0
 23
0.0
 33
0.0
 40
0.0
 40
0.0
 40
0.0
 40
0.0
 40
1.0
 40
1.0
 40
1.0
 40
2.0
 40
2.0
 40
2.0
 40
3.0
 40
3.0
 40
3.0
 40
4.0
 40
4.0
 40
4.0
 40
4.0
 10
1.309722264607747
 20
2.399999830457899
 30
0.0
 10
1.331944465637207
 20
2.405555301242404
 30
0.0
 10
1.355555640326606
 20
2.391666412353516
 30
0.0
 10
1.359722243414985
 20
2.369444105360243
 30
0.0
 10
1.363888952467177
 20
2.345832824707031
 30
0.0
 10
1.350000063578288
 20
2.326388465033637
 30
0.0
 10
1.326388888888889
 20
2.320832994249132
 30
0.0
 10
1.304166687859429
 20
2.316666497124566
 30
0.0
 10
1.284722222222222
 20
2.327777438693576
 30
0.0
 10
1.279166645473904
 20
2.349999745686849
 30
0.0
 10
1.273611068725586
 20
2.373611026340061
 30
0.0
 10
1.287499957614475
 20
2.395833333333333
 30
0.0
 10
1.309722264607747
 20
2.399999830457899
 30
0.0
  0
HATCH
  5
5A
330
53
100
AcDbEntity
  8
Calque 1
 62
    37
420
  7627864
100
AcDbHatch
 10
0.0
 20
0.0
 30
0.0
210
0.0
220
0.0
230
1.0
  2
SOLID
 70
     1
 71
     0
 91
        1
 92
        1
 93
        1
 72
     4
 94
        3
 73
     0
 74
     1
 95
       17
 96
       13
 40
0.0
 40
0.0
 40
0.0
 40
0.0
 40
1.0
 40
1.0
 40
1.0
 40
2.0
 40
2.0
 40
2.0
 40
3.0
 40
3.0
 40
3.0
 40
4.0
 40
4.0
 40
4.0
 40
4.0
 10
1.309722264607747
 20
2.399999830457899
 10
1.331944465637207
 20
2.405555301242404
 10
1.355555640326606
 20
2.391666412353516
 10
1.359722243414985
 20
2.369444105360243
 10
1.363888952467177
 20
2.345832824707031
 10
1.350000063578288
 20
2.326388465033637
 10
1.326388888888889
 20
2.320832994249132
 10
1.304166687859429
 20
2.316666497124566
 10
1.284722222222222
 20
2.327777438693576
 10
1.279166645473904
 20
2.349999745686849
 10
1.273611068725586
 20
2.373611026340061
 10
1.287499957614475
 20
2.395833333333333
 10
1.309722264607747
 20
2.399999830457899
 97
        0
 97
        0
 75
     2
 76
     1
 98
        0
  0
SPLINE
  5
5B
330
53
100
AcDbEntity
  8
Calque 1
370
     0
100
AcDbSpline
210
0.0
220
0.0
230
1.0
 70
    11
 71
     3
 72
    17
 73
    13
 74
     0
 42
0.0000000001
 43
0.0000000001
 12
1.0
 22
0.0
 32
0.0
 13
1.0
 23
0.0
 33
0.0
 40
0.0
 40
0.0
 40
0.0
 40
0.0
 40
1.0
 40
1.0
 40
1.0
 40
2.0
 40
2.0
 40
2.0
 40
3.0
 40
3.0
 40
3.0
 40
4.0
 40
4.0
 40
4.0
 40
4.0
 10
2.083333333333333
 20
2.25
 30
0.0
 10
2.061111026340061
 20
2.244444529215495
 30
0.0
 10
2.038888931274414
 20
2.258333418104383
 30
0.0
 10
2.033333248562283
 20
2.280555725097656
 30
0.0
 10
2.027777777777778
 20
2.304167005750868
 30
0.0
 10
2.041666666666667
 20
2.325000339084201
 30
0.0
 10
2.063888761732313
 20
2.330555809868706
 30
0.0
 10
2.084722095065647
 20
2.334722306993272
 30
0.0
 10
2.106944402058919
 20
2.322222391764323
 30
0.0
 10
2.112499872843424
 20
2.301389058430989
 30
0.0
 10
2.119444529215495
 20
2.277777777777778
 30
0.0
 10
2.105555640326606
 20
2.255555470784505
 30
0.0
 10
2.083333333333333
 20
2.25
 30
0.0
  0
HATCH
  5
5C
330
53
100
AcDbEntity
  8
Calque 1
 62
    37
420
  7627864
100
AcDbHatch
 10
0.0
 20
0.0
 30
0.0
210
0.0
220
0.0
230
1.0
  2
SOLID
 70
     1
 71
     0
 91
        1
 92
        1
 93
        1
 72
     4
 94
        3
 73
     0
 74
     1
 95
       17
 96
       13
 40
0.0
 40
0.0
 40
0.0
 40
0.0
 40
1.0
 40
1.0
 40
1.0
 40
2.0
 40
2.0
 40
2.0
 40
3.0
 40
3.0
 40
3.0
 40
4.0
 40
4.0
 40
4.0
 40
4.0
 10
2.083333333333333
 20
2.25
 10
2.061111026340061
 20
2.244444529215495
 10
2.038888931274414
 20
2.258333418104383
 10
2.033333248562283
 20
2.280555725097656
 10
2.027777777777778
 20
2.304167005750868
 10
2.041666666666667
 20
2.325000339084201
 10
2.063888761732313
 20
2.330555809868706
 10
2.084722095065647
 20
2.334722306993272
 10
2.106944402058919
 20
2.322222391764323
 10
2.112499872843424
 20
2.301389058430989
 10
2.119444529215495
 20
2.277777777777778
 10
2.105555640326606
 20
2.255555470784505
 10
2.083333333333333
 20
2.25
 97
        0
 97
        0
 75
     2
 76
     1
 98
        0
  0
SPLINE
  5
5D
330
53
100
AcDbEntity
  8
Calque 1
370
     0
100
AcDbSpline
210
0.0
220
0.0
230
1.0
 70
    11
 71
     3
 72
    17
 73
    13
 74
     0
 42
0.0000000001
 43
0.0000000001
 12
1.0
 22
0.0
 32
0.0
 13
1.0
 23
0.0
 33
0.0
 40
0.0
 40
0.0
 40
0.0
 40
0.0
 40
1.0
 40
1.0
 40
1.0
 40
2.0
 40
2.0
 40
2.0
 40
3.0
 40
3.0
 40
3.0
 40
4.0
 40
4.0
 40
4.0
 40
4.0
 10
2.069444444444444
 20
2.755555470784505
 30
0.0
 10
2.047222137451172
 20
2.75
 30
0.0
 10
2.025000042385525
 20
2.763888888888889
 30
0.0
 10
2.019444359673394
 20
2.786110983954535
 30
0.0
 10
2.013888888888889
 20
2.808333290947808
 30
0.0
 10
2.026388804117838
 20
2.827777650621202
 30
0.0
 10
2.047222137451172
 20
2.834722095065647
 30
0.0
 10
2.070833206176758
 20
2.841666539510091
 30
0.0
 10
2.091666539510091
 20
2.829166624281141
 30
0.0
 10
2.097222222222222
 20
2.806944317287869
 30
0.0
 10
2.104166666666667
 20
2.783333248562283
 30
0.0
 10
2.091666751437717
 20
2.761111153496636
 30
0.0
 10
2.069444444444444
 20
2.755555470784505
 30
0.0
  0
HATCH
  5
5E
330
53
100
AcDbEntity
  8
Calque 1
 62
    37
420
  7627864
100
AcDbHatch
 10
0.0
 20
0.0
 30
0.0
210
0.0
220
0.0
230
1.0
  2
SOLID
 70
     1
 71
     0
 91
        1
 92
        1
 93
        1
 72
     4
 94
        3
 73
     0
 74
     1
 95
       17
 96
       13
 40
0.0
 40
0.0
 40
0.0
 40
0.0
 40
1.0
 40
1.0
 40
1.0
 40
2.0
 40
2.0
 40
2.0
 40
3.0
 40
3.0
 40
3.0
 40
4.0
 40
4.0
 40
4.0
 40
4.0
 10
2.069444444444444
 20
2.755555470784505
 10
2.047222137451172
 20
2.75
 10
2.025000042385525
 20
2.763888888888889
 10
2.019444359673394
 20
2.786110983954535
 10
2.013888888888889
 20
2.808333290947808
 10
2.026388804117838
 20
2.827777650621202
 10
2.047222137451172
 20
2.834722095065647
 10
2.070833206176758
 20
2.841666539510091
 10
2.091666539510091
 20
2.829166624281141
 10
2.097222222222222
 20
2.806944317287869
 10
2.104166666666667
 20
2.783333248562283
 10
2.091666751437717
 20
2.761111153496636
 10
2.069444444444444
 20
2.755555470784505
 97
        0
 97
        0
 75
     2
 76
     1
 98
        0
  0
SPLINE
  5
5F
330
53
100
AcDbEntity
  8
Calque 1
370
     0
100
AcDbSpline
210
0.0
220
0.0
230
1.0
 70
    11
 71
     3
 72
    17
 73
    13
 74
     0
 42
0.0000000001
 43
0.0000000001
 12
1.0
 22
0.0
 32
0.0
 13
1.0
 23
0.0
 33
0.0
 40
0.0
 40
0.0
 40
0.0
 40
0.0
 40
1.0
 40
1.0
 40
1.0
 40
2.0
 40
2.0
 40
2.0
 40
3.0
 40
3.0
 40
3.0
 40
4.0
 40
4.0
 40
4.0
 40
4.0
 10
2.120833290947808
 20
2.515277862548828
 30
0.0
 10
2.097222222222222
 20
2.509722391764323
 30
0.0
 10
2.077777650621202
 20
2.523611280653212
 30
0.0
 10
2.073611153496636
 20
2.547222349378798
 30
0.0
 10
2.069444444444444
 20
2.56944465637207
 30
0.0
 10
2.08194457160102
 20
2.588889016045464
 30
0.0
 10
2.104166666666667
 20
2.594444486829969
 30
0.0
 10
2.126388973659939
 20
2.599999957614475
 30
0.0
 10
2.148611068725586
 20
2.586111068725586
 30
0.0
 10
2.154166751437717
 20
2.563888973659939
 30
0.0
 10
2.156944486829969
 20
2.540277693006727
 30
0.0
 10
2.144444359673394
 20
2.520833333333333
 30
0.0
 10
2.120833290947808
 20
2.515277862548828
 30
0.0
  0
HATCH
  5
60
330
53
100
AcDbEntity
  8
Calque 1
 62
    37
420
  7627864
100
AcDbHatch
 10
0.0
 20
0.0
 30
0.0
210
0.0
220
0.0
230
1.0
  2
SOLID
 70
     1
 71
     0
 91
        1
 92
        1
 93
        1
 72
     4
 94
        3
 73
     0
 74
     1
 95
       17
 96
       13
 40
0.0
 40
0.0
 40
0.0
 40
0.0
 40
1.0
 40
1.0
 40
1.0
 40
2.0
 40
2.0
 40
2.0
 40
3.0
 40
3.0
 40
3.0
 40
4.0
 40
4.0
 40
4.0
 40
4.0
 10
2.120833290947808
 20
2.515277862548828
 10
2.097222222222222
 20
2.509722391764323
 10
2.077777650621202
 20
2.523611280653212
 10
2.073611153496636
 20
2.547222349378798
 10
2.069444444444444
 20
2.56944465637207
 10
2.08194457160102
 20
2.588889016045464
 10
2.104166666666667
 20
2.594444486829969
 10
2.126388973659939
 20
2.599999957614475
 10
2.148611068725586
 20
2.586111068725586
 10
2.154166751437717
 20
2.563888973659939
 10
2.156944486829969
 20
2.540277693006727
 10
2.144444359673394
 20
2.520833333333333
 10
2.120833290947808
 20
2.515277862548828
 97
        0
 97
        0
 75
     2
 76
     1
 98
        0
  0
SPLINE
  5
61
330
53
100
AcDbEntity
  8
Calque 1
370
     0
100
AcDbSpline
210
0.0
220
0.0
230
1.0
 70
    11
 71
     3
 72
    17
 73
    13
 74
     0
 42
0.0000000001
 43
0.0000000001
 12
1.0
 22
0.0
 32
0.0
 13
1.0
 23
0.0
 33
0.0
 40
0.0
 40
0.0
 40
0.0
 40
0.0
 40
1.0
 40
1.0
 40
1.0
 40
2.0
 40
2.0
 40
2.0
 40
3.0
 40
3.0
 40
3.0
 40
4.0
 40
4.0
 40
4.0
 40
4.0
 10
1.268055597941081
 20
2.561111026340061
 30
0.0
 10
1.244444529215495
 20
2.555555555555555
 30
0.0
 10
1.223611195882161
 20
2.568055470784505
 30
0.0
 10
1.218055619133843
 20
2.591666539510091
 30
0.0
 10
1.212500042385525
 20
2.613888846503364
 30
0.0
 10
1.225000063578288
 20
2.634722179836697
 30
0.0
 10
1.247222264607747
 20
2.640277650621202
 30
0.0
 10
1.269444465637207
 20
2.647222095065647
 30
0.0
 10
1.291666666666667
 20
2.634722179836697
 30
0.0
 10
1.297222243414985
 20
2.611110899183485
 30
0.0
 10
1.304166687859429
 20
2.587500042385525
 30
0.0
 10
1.293055534362793
 20
2.566666709052192
 30
0.0
 10
1.268055597941081
 20
2.561111026340061
 30
0.0
  0
HATCH
  5
62
330
53
100
AcDbEntity
  8
Calque 1
 62
    37
420
  7627864
100
AcDbHatch
 10
0.0
 20
0.0
 30
0.0
210
0.0
220
0.0
230
1.0
  2
SOLID
 70
     1
 71
     0
 91
        1
 92
        1
 93
        1
 72
     4
 94
        3
 73
     0
 74
     1
 95
       17
 96
       13
 40
0.0
 40
0.0
 40
0.0
 40
0.0
 40
1.0
 40
1.0
 40
1.0
 40
2.0
 40
2.0
 40
2.0
 40
3.0
 40
3.0
 40
3.0
 40
4.0
 40
4.0
 40
4.0
 40
4.0
 10
1.268055597941081
 20
2.561111026340061
 10
1.244444529215495
 20
2.555555555555555
 10
1.223611195882161
 20
2.568055470784505
 10
1.218055619133843
 20
2.591666539510091
 10
1.212500042385525
 20
2.613888846503364
 10
1.225000063578288
 20
2.634722179836697
 10
1.247222264607747
 20
2.640277650621202
 10
1.269444465637207
 20
2.647222095065647
 10
1.291666666666667
 20
2.634722179836697
 10
1.297222243414985
 20
2.611110899183485
 10
1.304166687859429
 20
2.587500042385525
 10
1.293055534362793
 20
2.566666709052192
 10
1.268055597941081
 20
2.561111026340061
 97
        0
 97
        0
 75
     2
 76
     1
 98
        0
  0
SPLINE
  5
63
330
53
100
AcDbEntity
  8
Calque 1
370
     0
100
AcDbSpline
210
0.0
220
0.0
230
1.0
 70
    11
 71
     3
 72
    29
 73
    25
 74
     0
 42
0.0000000001
 43
0.0000000001
 12
1.0
 22
0.0
 32
0.0
 13
1.0
 23
0.0
 33
0.0
 40
0.0
 40
0.0
 40
0.0
 40
0.0
 40
1.0
 40
1.0
 40
1.0
 40
2.0
 40
2.0
 40
2.0
 40
3.0
 40
3.0
 40
3.0
 40
4.0
 40
4.0
 40
4.0
 40
5.0
 40
5.0
 40
5.0
 40
6.0
 40
6.0
 40
6.0
 40
7.0
 40
7.0
 40
7.0
 40
8.0
 40
8.0
 40
8.0
 40
8.0
 10
2.029166751437717
 20
2.013888888888889
 30
0.0
 10
2.029166751437717
 20
2.013888888888889
 30
0.0
 10
1.64444457160102
 20
1.919444613986545
 30
0.0
 10
1.64444457160102
 20
1.919444613986545
 30
0.0
 10
1.633333418104383
 20
1.916666666666667
 30
0.0
 10
1.62222237057156
 20
1.923611111111111
 30
0.0
 10
1.620833502875434
 20
1.934722476535373
 30
0.0
 10
1.620833502875434
 20
1.934722476535373
 30
0.0
 10
1.590277989705404
 20
2.059722476535373
 30
0.0
 10
1.590277989705404
 20
2.059722476535373
 30
0.0
 10
1.587500254313151
 20
2.070833418104383
 30
0.0
 10
1.594444698757595
 20
2.081944783528646
 30
0.0
 10
1.605555746290419
 20
2.083333757188585
 30
0.0
 10
1.605555746290419
 20
2.083333757188585
 30
0.0
 10
1.990278032090929
 20
2.177778032090929
 30
0.0
 10
1.990278032090929
 20
2.177778032090929
 30
0.0
 10
2.001389185587565
 20
2.180555979410807
 30
0.0
 10
2.012500339084201
 20
2.173611534966363
 30
0.0
 10
2.013889100816515
 20
2.1625001695421
 30
0.0
 10
2.013889100816515
 20
2.1625001695421
 30
0.0
 10
2.044444613986545
 20
2.0375001695421
 30
0.0
 10
2.044444613986545
 20
2.0375001695421
 30
0.0
 10
2.045833375718858
 20
2.026388804117838
 30
0.0
 10
2.038888931274414
 20
2.016666836208767
 30
0.0
 10
2.029166751437717
 20
2.013888888888889
 30
0.0
  0
HATCH
  5
64
330
53
100
AcDbEntity
  8
Calque 1
 62
    37
420
  7627864
100
AcDbHatch
 10
0.0
 20
0.0
 30
0.0
210
0.0
220
0.0
230
1.0
  2
SOLID
 70
     1
 71
     0
 91
        1
 92
        1
 93
        1
 72
     4
 94
        3
 73
     0
 74
     1
 95
       29
 96
       25
 40
0.0
 40
0.0
 40
0.0
 40
0.0
 40
1.0
 40
1.0
 40
1.0
 40
2.0
 40
2.0
 40
2.0
 40
3.0
 40
3.0
 40
3.0
 40
4.0
 40
4.0
 40
4.0
 40
5.0
 40
5.0
 40
5.0
 40
6.0
 40
6.0
 40
6.0
 40
7.0
 40
7.0
 40
7.0
 40
8.0
 40
8.0
 40
8.0
 40
8.0
 10
2.029166751437717
 20
2.013888888888889
 10
2.029166751437717
 20
2.013888888888889
 10
1.64444457160102
 20
1.919444613986545
 10
1.64444457160102
 20
1.919444613986545
 10
1.633333418104383
 20
1.916666666666667
 10
1.62222237057156
 20
1.923611111111111
 10
1.620833502875434
 20
1.934722476535373
 10
1.620833502875434
 20
1.934722476535373
 10
1.590277989705404
 20
2.059722476535373
 10
1.590277989705404
 20
2.059722476535373
 10
1.587500254313151
 20
2.070833418104383
 10
1.594444698757595
 20
2.081944783528646
 10
1.605555746290419
 20
2.083333757188585
 10
1.605555746290419
 20
2.083333757188585
 10
1.990278032090929
 20
2.177778032090929
 10
1.990278032090929
 20
2.177778032090929
 10
2.001389185587565
 20
2.180555979410807
 10
2.012500339084201
 20
2.173611534966363
 10
2.013889100816515
 20
2.1625001695421
 10
2.013889100816515
 20
2.1625001695421
 10
2.044444613986545
 20
2.0375001695421
 10
2.044444613986545
 20
2.0375001695421
 10
2.045833375718858
 20
2.026388804117838
 10
2.038888931274414
 20
2.016666836208767
 10
2.029166751437717
 20
2.013888888888889
 97
        0
 97
        0
 75
     2
 76
     1
 98
        0
  0
ENDBLK
  5
56
330
53
100
AcDbEntity
  8
0
100
AcDbBlockEnd
  0
BLOCK
  5
67
330
65
100
AcDbEntity
  8
0
100
AcDbBlockBegin
  2
block 6
 70
     0
 10
0.0
 20
0.0
 30
0.0
  3
block 6
  1

  0
SPLINE
  5
69
330
65
100
AcDbEntity
  8
Calque 1
370
     0
100
AcDbSpline
210
0.0
220
0.0
230
1.0
 70
    11
 71
     3
 72
   143
 73
   139
 74
     0
 42
0.0000000001
 43
0.0000000001
 12
1.0
 22
0.0
 32
0.0
 13
1.0
 23
0.0
 33
0.0
 40
0.0
 40
0.0
 40
0.0
 40
0.0
 40
1.0
 40
1.0
 40
1.0
 40
2.0
 40
2.0
 40
2.0
 40
3.0
 40
3.0
 40
3.0
 40
4.0
 40
4.0
 40
4.0
 40
5.0
 40
5.0
 40
5.0
 40
6.0
 40
6.0
 40
6.0
 40
7.0
 40
7.0
 40
7.0
 40
8.0
 40
8.0
 40
8.0
 40
9.0
 40
9.0
 40
9.0
 40
10.0
 40
10.0
 40
10.0
 40
11.0
 40
11.0
 40
11.0
 40
12.0
 40
12.0
 40
12.0
 40
13.0
 40
13.0
 40
13.0
 40
14.0
 40
14.0
 40
14.0
 40
15.0
 40
15.0
 40
15.0
 40
16.0
 40
16.0
 40
16.0
 40
17.0
 40
17.0
 40
17.0
 40
18.0
 40
18.0
 40
18.0
 40
19.0
 40
19.0
 40
19.0
 40
20.0
 40
20.0
 40
20.0
 40
21.0
 40
21.0
 40
21.0
 40
22.0
 40
22.0
 40
22.0
 40
23.0
 40
23.0
 40
23.0
 40
24.0
 40
24.0
 40
24.0
 40
25.0
 40
25.0
 40
25.0
 40
26.0
 40
26.0
 40
26.0
 40
27.0
 40
27.0
 40
27.0
 40
28.0
 40
28.0
 40
28.0
 40
29.0
 40
29.0
 40
29.0
 40
30.0
 40
30.0
 40
30.0
 40
31.0
 40
31.0
 40
31.0
 40
32.0
 40
32.0
 40
32.0
 40
33.0
 40
33.0
 40
33.0
 40
34.0
 40
34.0
 40
34.0
 40
35.0
 40
35.0
 40
35.0
 40
36.0
 40
36.0
 40
36.0
 40
37.0
 40
37.0
 40
37.0
 40
38.0
 40
38.0
 40
38.0
 40
39.0
 40
39.0
 40
39.0
 40
40.0
 40
40.0
 40
40.0
 40
41.0
 40
41.0
 40
41.0
 40
42.0
 40
42.0
 40
42.0
 40
43.0
 40
43.0
 40
43.0
 40
44.0
 40
44.0
 40
44.0
 40
45.0
 40
45.0
 40
45.0
 40
46.0
 40
46.0
 40
46.0
 40
46.0
 10
3.083333333333333
 20
0.9013888041178385
 30
0.0
 10
3.016666624281141
 20
0.9013888041178385
 30
0.0
 10
2.948611153496636
 20
0.8999998304578992
 30
0.0
 10
2.881944444444444
 20
0.9013888041178385
 30
0.0
 10
2.8125
 20
0.9027777777777777
 30
0.0
 10
2.744444529215495
 20
0.9083332485622829
 30
0.0
 10
2.67500008477105
 20
0.9111111958821614
 30
0.0
 10
2.643055597941081
 20
0.9125001695421007
 30
0.0
 10
2.609722349378798
 20
0.9152776930067273
 30
0.0
 10
2.577777862548828
 20
0.9180556403266058
 30
0.0
 10
2.495833502875434
 20
0.9250000847710503
 30
0.0
 10
2.413888931274414
 20
0.9361110263400607
 30
0.0
 10
2.336111280653212
 20
0.9638888041178385
 30
0.0
 10
2.305555767483181
 20
0.9749997456868489
 30
0.0
 10
2.276389016045464
 20
0.9888886345757378
 30
0.0
 10
2.248611238267686
 20
1.005555470784505
 30
0.0
 10
2.2250001695421
 20
1.019444359673394
 30
0.0
 10
2.204166836208767
 20
1.037499745686849
 30
0.0
 10
2.188888973659939
 20
1.059722052680121
 30
0.0
 10
2.166666666666667
 20
1.091666327582465
 30
0.0
 10
2.156944486829969
 20
1.126388549804688
 30
0.0
 10
2.159722222222222
 20
1.166666666666667
 30
0.0
 10
2.165277693006727
 20
1.241666581895616
 30
0.0
 10
2.177777820163303
 20
1.315277947319878
 30
0.0
 10
2.195833418104383
 20
1.38749991522895
 30
0.0
 10
2.234722349378798
 20
1.540277693006727
 30
0.0
 10
2.272222306993272
 20
1.693055470784505
 30
0.0
 10
2.304166793823242
 20
1.848611195882161
 30
0.0
 10
2.31944465637207
 20
1.92638905843099
 30
0.0
 10
2.33194457160102
 20
2.004166920979817
 30
0.0
 10
2.344444486829969
 20
2.081944359673394
 30
0.0
 10
2.361111111111111
 20
2.183333079020182
 30
0.0
 10
2.376388973659939
 20
2.286111195882161
 30
0.0
 10
2.391666624281141
 20
2.38749991522895
 30
0.0
 10
2.401388804117838
 20
2.44861094156901
 30
0.0
 10
2.409722222222222
 20
2.509722179836697
 30
0.0
 10
2.416666666666667
 20
2.572222179836697
 30
0.0
 10
2.423611111111111
 20
2.63749991522895
 30
0.0
 10
2.420833375718858
 20
2.702777650621202
 30
0.0
 10
2.419444402058919
 20
2.769444359673394
 30
0.0
 10
2.41805542839898
 20
2.809722052680121
 30
0.0
 10
2.416666666666667
 20
2.851388719346788
 30
0.0
 10
2.412499957614475
 20
2.890277650621202
 30
0.0
 10
2.406944486829969
 20
2.940277735392252
 30
0.0
 10
2.397222095065647
 20
2.988888846503364
 30
0.0
 10
2.388888888888889
 20
3.038888719346788
 30
0.0
 10
2.384722179836697
 20
3.062499788072374
 30
0.0
 10
2.379166709052192
 20
3.087499830457899
 30
0.0
 10
2.376388973659939
 20
3.111110899183485
 30
0.0
 10
2.372222264607747
 20
3.138888676961263
 30
0.0
 10
2.365277820163303
 20
3.165277481079102
 30
0.0
 10
2.356944613986545
 20
3.191666497124566
 30
0.0
 10
2.347222434149848
 20
3.219444274902344
 30
0.0
 10
2.340277989705403
 20
3.247222052680121
 30
0.0
 10
2.338889016045464
 20
3.276388804117838
 30
0.0
 10
2.334722306993272
 20
3.326388888888889
 30
0.0
 10
2.3500001695421
 20
3.366666581895616
 30
0.0
 10
2.391666836208767
 20
3.395833333333333
 30
0.0
 10
2.434722476535373
 20
3.426388846503364
 30
0.0
 10
2.483333587646484
 20
3.443055470784505
 30
0.0
 10
2.534722434149848
 20
3.44999991522895
 30
0.0
 10
2.583333545260959
 20
3.456944359673394
 30
0.0
 10
2.63194465637207
 20
3.461111068725586
 30
0.0
 10
2.68194474114312
 20
3.462499830457899
 30
0.0
 10
2.74583371480306
 20
3.465277565850152
 30
0.0
 10
2.80833371480306
 20
3.469444274902344
 30
0.0
 10
2.872222476535373
 20
3.473610983954535
 30
0.0
 10
2.972222434149848
 20
3.48055542839898
 30
0.0
 10
3.072222391764323
 20
3.48055542839898
 30
0.0
 10
3.172222561306423
 20
3.481944402058919
 30
0.0
 10
3.231944825914171
 20
3.481944402058919
 30
0.0
 10
3.291667090521918
 20
3.479166666666667
 30
0.0
 10
3.35138914320204
 20
3.476388931274414
 30
0.0
 10
3.433333502875434
 20
3.472222222222222
 30
0.0
 10
3.516666836208767
 20
3.462500042385525
 30
0.0
 10
3.595833672417534
 20
3.441666709052192
 30
0.0
 10
3.643055809868706
 20
3.429166793823242
 30
0.0
 10
3.687500423855251
 20
3.411111195882161
 30
0.0
 10
3.731944613986545
 20
3.390277862548828
 30
0.0
 10
3.744444529215495
 20
3.384722391764323
 30
0.0
 10
3.755555894639757
 20
3.377777947319878
 30
0.0
 10
3.766666836208767
 20
3.368055555555555
 30
0.0
 10
3.794444613986545
 20
3.345833248562283
 30
0.0
 10
3.808333502875434
 20
3.319444444444444
 30
0.0
 10
3.802778032090929
 20
3.281944486829969
 30
0.0
 10
3.78888914320204
 20
3.191666709052192
 30
0.0
 10
3.7875001695421
 20
3.098611195882161
 30
0.0
 10
3.784722646077474
 20
3.006944444444444
 30
0.0
 10
3.783333672417534
 20
2.956944359673394
 30
0.0
 10
3.783333672417534
 20
2.906944486829969
 30
0.0
 10
3.783333672417534
 20
2.856944402058919
 30
0.0
 10
3.783333672417534
 20
2.776388804117838
 30
0.0
 10
3.7875001695421
 20
2.695833206176758
 30
0.0
 10
3.794444613986545
 20
2.615277820163303
 30
0.0
 10
3.804167005750868
 20
2.490277820163303
 30
0.0
 10
3.825000339084201
 20
2.366666581895616
 30
0.0
 10
3.847222222222222
 20
2.243055555555555
 30
0.0
 10
3.868055555555555
 20
2.129166497124566
 30
0.0
 10
3.88749991522895
 20
2.016666836208767
 30
0.0
 10
3.905555725097656
 20
1.902777777777778
 30
0.0
 10
3.918055640326606
 20
1.830555386013455
 30
0.0
 10
3.929167005750868
 20
1.758333418104383
 30
0.0
 10
3.938888973659939
 20
1.686111026340061
 30
0.0
 10
3.945833418104383
 20
1.63749991522895
 30
0.0
 10
3.951388888888889
 20
1.587499830457899
 30
0.0
 10
3.955555809868706
 20
1.538888719346788
 30
0.0
 10
3.961111280653212
 20
1.484722137451172
 30
0.0
 10
3.965278201633029
 20
1.430555555555556
 30
0.0
 10
3.969444698757595
 20
1.377777523464627
 30
0.0
 10
3.972222646077474
 20
1.341666327582465
 30
0.0
 10
3.973611195882161
 20
1.306944105360243
 30
0.0
 10
3.97638914320204
 20
1.270832909478081
 30
0.0
 10
3.977778116861979
 20
1.24722162882487
 30
0.0
 10
3.979167090521918
 20
1.22361077202691
 30
0.0
 10
3.980555640326606
 20
1.199999491373698
 30
0.0
 10
3.984722137451172
 20
1.144443935818142
 30
0.0
 10
3.97638914320204
 20
1.091666327582465
 30
0.0
 10
3.958333333333333
 20
1.038888295491536
 30
0.0
 10
3.940277947319878
 20
0.988888210720486
 30
0.0
 10
3.906944274902344
 20
0.9583329094780816
 30
0.0
 10
3.854166666666667
 20
0.9472215440538194
 30
0.0
 10
3.843055725097656
 20
0.944443596733941
 30
0.0
 10
3.830555386013454
 20
0.9416660732693142
 30
0.0
 10
3.819444444444444
 20
0.940277099609375
 30
0.0
 10
3.768055386013454
 20
0.9361106024848089
 30
0.0
 10
3.718055725097656
 20
0.930554707845052
 30
0.0
 10
3.666666666666667
 20
0.9277771843804253
 30
0.0
 10
3.606944613986545
 20
0.9236106872558594
 30
0.0
 10
3.547222137451172
 20
0.9194437662760416
 30
0.0
 10
3.486111111111111
 20
0.9166662428114148
 30
0.0
 10
3.413888931274414
 20
0.9124997456868489
 30
0.0
 10
3.341666751437717
 20
0.9083328247070312
 30
0.0
 10
3.269444359673394
 20
0.9055553012424045
 30
0.0
 10
3.206944359673394
 20
0.902777353922526
 30
0.0
 10
3.145833333333333
 20
0.902777353922526
 30
0.0
 10
3.083333333333333
 20
0.9013888041178385
 30
0.0
 10
3.083333333333333
 20
0.8999998304578992
 30
0.0
 10
3.083333333333333
 20
0.9013888041178385
 30
0.0
 10
3.083333333333333
 20
0.9013888041178385
 30
0.0
  0
HATCH
  5
6A
330
65
100
AcDbEntity
  8
Calque 1
 62
    19
420
  4269075
100
AcDbHatch
 10
0.0
 20
0.0
 30
0.0
210
0.0
220
0.0
230
1.0
  2
SOLID
 70
     1
 71
     0
 91
        1
 92
        1
 93
        1
 72
     4
 94
        3
 73
     0
 74
     1
 95
      143
 96
      139
 40
0.0
 40
0.0
 40
0.0
 40
0.0
 40
1.0
 40
1.0
 40
1.0
 40
2.0
 40
2.0
 40
2.0
 40
3.0
 40
3.0
 40
3.0
 40
4.0
 40
4.0
 40
4.0
 40
5.0
 40
5.0
 40
5.0
 40
6.0
 40
6.0
 40
6.0
 40
7.0
 40
7.0
 40
7.0
 40
8.0
 40
8.0
 40
8.0
 40
9.0
 40
9.0
 40
9.0
 40
10.0
 40
10.0
 40
10.0
 40
11.0
 40
11.0
 40
11.0
 40
12.0
 40
12.0
 40
12.0
 40
13.0
 40
13.0
 40
13.0
 40
14.0
 40
14.0
 40
14.0
 40
15.0
 40
15.0
 40
15.0
 40
16.0
 40
16.0
 40
16.0
 40
17.0
 40
17.0
 40
17.0
 40
18.0
 40
18.0
 40
18.0
 40
19.0
 40
19.0
 40
19.0
 40
20.0
 40
20.0
 40
20.0
 40
21.0
 40
21.0
 40
21.0
 40
22.0
 40
22.0
 40
22.0
 40
23.0
 40
23.0
 40
23.0
 40
24.0
 40
24.0
 40
24.0
 40
25.0
 40
25.0
 40
25.0
 40
26.0
 40
26.0
 40
26.0
 40
27.0
 40
27.0
 40
27.0
 40
28.0
 40
28.0
 40
28.0
 40
29.0
 40
29.0
 40
29.0
 40
30.0
 40
30.0
 40
30.0
 40
31.0
 40
31.0
 40
31.0
 40
32.0
 40
32.0
 40
32.0
 40
33.0
 40
33.0
 40
33.0
 40
34.0
 40
34.0
 40
34.0
 40
35.0
 40
35.0
 40
35.0
 40
36.0
 40
36.0
 40
36.0
 40
37.0
 40
37.0
 40
37.0
 40
38.0
 40
38.0
 40
38.0
 40
39.0
 40
39.0
 40
39.0
 40
40.0
 40
40.0
 40
40.0
 40
41.0
 40
41.0
 40
41.0
 40
42.0
 40
42.0
 40
42.0
 40
43.0
 40
43.0
 40
43.0
 40
44.0
 40
44.0
 40
44.0
 40
45.0
 40
45.0
 40
45.0
 40
46.0
 40
46.0
 40
46.0
 40
46.0
 10
3.083333333333333
 20
0.9013888041178385
 10
3.016666624281141
 20
0.9013888041178385
 10
2.948611153496636
 20
0.8999998304578992
 10
2.881944444444444
 20
0.9013888041178385
 10
2.8125
 20
0.9027777777777777
 10
2.744444529215495
 20
0.9083332485622829
 10
2.67500008477105
 20
0.9111111958821614
 10
2.643055597941081
 20
0.9125001695421007
 10
2.609722349378798
 20
0.9152776930067273
 10
2.577777862548828
 20
0.9180556403266058
 10
2.495833502875434
 20
0.9250000847710503
 10
2.413888931274414
 20
0.9361110263400607
 10
2.336111280653212
 20
0.9638888041178385
 10
2.305555767483181
 20
0.9749997456868489
 10
2.276389016045464
 20
0.9888886345757378
 10
2.248611238267686
 20
1.005555470784505
 10
2.2250001695421
 20
1.019444359673394
 10
2.204166836208767
 20
1.037499745686849
 10
2.188888973659939
 20
1.059722052680121
 10
2.166666666666667
 20
1.091666327582465
 10
2.156944486829969
 20
1.126388549804688
 10
2.159722222222222
 20
1.166666666666667
 10
2.165277693006727
 20
1.241666581895616
 10
2.177777820163303
 20
1.315277947319878
 10
2.195833418104383
 20
1.38749991522895
 10
2.234722349378798
 20
1.540277693006727
 10
2.272222306993272
 20
1.693055470784505
 10
2.304166793823242
 20
1.848611195882161
 10
2.31944465637207
 20
1.92638905843099
 10
2.33194457160102
 20
2.004166920979817
 10
2.344444486829969
 20
2.081944359673394
 10
2.361111111111111
 20
2.183333079020182
 10
2.376388973659939
 20
2.286111195882161
 10
2.391666624281141
 20
2.38749991522895
 10
2.401388804117838
 20
2.44861094156901
 10
2.409722222222222
 20
2.509722179836697
 10
2.416666666666667
 20
2.572222179836697
 10
2.423611111111111
 20
2.63749991522895
 10
2.420833375718858
 20
2.702777650621202
 10
2.419444402058919
 20
2.769444359673394
 10
2.41805542839898
 20
2.809722052680121
 10
2.416666666666667
 20
2.851388719346788
 10
2.412499957614475
 20
2.890277650621202
 10
2.406944486829969
 20
2.940277735392252
 10
2.397222095065647
 20
2.988888846503364
 10
2.388888888888889
 20
3.038888719346788
 10
2.384722179836697
 20
3.062499788072374
 10
2.379166709052192
 20
3.087499830457899
 10
2.376388973659939
 20
3.111110899183485
 10
2.372222264607747
 20
3.138888676961263
 10
2.365277820163303
 20
3.165277481079102
 10
2.356944613986545
 20
3.191666497124566
 10
2.347222434149848
 20
3.219444274902344
 10
2.340277989705403
 20
3.247222052680121
 10
2.338889016045464
 20
3.276388804117838
 10
2.334722306993272
 20
3.326388888888889
 10
2.3500001695421
 20
3.366666581895616
 10
2.391666836208767
 20
3.395833333333333
 10
2.434722476535373
 20
3.426388846503364
 10
2.483333587646484
 20
3.443055470784505
 10
2.534722434149848
 20
3.44999991522895
 10
2.583333545260959
 20
3.456944359673394
 10
2.63194465637207
 20
3.461111068725586
 10
2.68194474114312
 20
3.462499830457899
 10
2.74583371480306
 20
3.465277565850152
 10
2.80833371480306
 20
3.469444274902344
 10
2.872222476535373
 20
3.473610983954535
 10
2.972222434149848
 20
3.48055542839898
 10
3.072222391764323
 20
3.48055542839898
 10
3.172222561306423
 20
3.481944402058919
 10
3.231944825914171
 20
3.481944402058919
 10
3.291667090521918
 20
3.479166666666667
 10
3.35138914320204
 20
3.476388931274414
 10
3.433333502875434
 20
3.472222222222222
 10
3.516666836208767
 20
3.462500042385525
 10
3.595833672417534
 20
3.441666709052192
 10
3.643055809868706
 20
3.429166793823242
 10
3.687500423855251
 20
3.411111195882161
 10
3.731944613986545
 20
3.390277862548828
 10
3.744444529215495
 20
3.384722391764323
 10
3.755555894639757
 20
3.377777947319878
 10
3.766666836208767
 20
3.368055555555555
 10
3.794444613986545
 20
3.345833248562283
 10
3.808333502875434
 20
3.319444444444444
 10
3.802778032090929
 20
3.281944486829969
 10
3.78888914320204
 20
3.191666709052192
 10
3.7875001695421
 20
3.098611195882161
 10
3.784722646077474
 20
3.006944444444444
 10
3.783333672417534
 20
2.956944359673394
 10
3.783333672417534
 20
2.906944486829969
 10
3.783333672417534
 20
2.856944402058919
 10
3.783333672417534
 20
2.776388804117838
 10
3.7875001695421
 20
2.695833206176758
 10
3.794444613986545
 20
2.615277820163303
 10
3.804167005750868
 20
2.490277820163303
 10
3.825000339084201
 20
2.366666581895616
 10
3.847222222222222
 20
2.243055555555555
 10
3.868055555555555
 20
2.129166497124566
 10
3.88749991522895
 20
2.016666836208767
 10
3.905555725097656
 20
1.902777777777778
 10
3.918055640326606
 20
1.830555386013455
 10
3.929167005750868
 20
1.758333418104383
 10
3.938888973659939
 20
1.686111026340061
 10
3.945833418104383
 20
1.63749991522895
 10
3.951388888888889
 20
1.587499830457899
 10
3.955555809868706
 20
1.538888719346788
 10
3.961111280653212
 20
1.484722137451172
 10
3.965278201633029
 20
1.430555555555556
 10
3.969444698757595
 20
1.377777523464627
 10
3.972222646077474
 20
1.341666327582465
 10
3.973611195882161
 20
1.306944105360243
 10
3.97638914320204
 20
1.270832909478081
 10
3.977778116861979
 20
1.24722162882487
 10
3.979167090521918
 20
1.22361077202691
 10
3.980555640326606
 20
1.199999491373698
 10
3.984722137451172
 20
1.144443935818142
 10
3.97638914320204
 20
1.091666327582465
 10
3.958333333333333
 20
1.038888295491536
 10
3.940277947319878
 20
0.988888210720486
 10
3.906944274902344
 20
0.9583329094780816
 10
3.854166666666667
 20
0.9472215440538194
 10
3.843055725097656
 20
0.944443596733941
 10
3.830555386013454
 20
0.9416660732693142
 10
3.819444444444444
 20
0.940277099609375
 10
3.768055386013454
 20
0.9361106024848089
 10
3.718055725097656
 20
0.930554707845052
 10
3.666666666666667
 20
0.9277771843804253
 10
3.606944613986545
 20
0.9236106872558594
 10
3.547222137451172
 20
0.9194437662760416
 10
3.486111111111111
 20
0.9166662428114148
 10
3.413888931274414
 20
0.9124997456868489
 10
3.341666751437717
 20
0.9083328247070312
 10
3.269444359673394
 20
0.9055553012424045
 10
3.206944359673394
 20
0.902777353922526
 10
3.145833333333333
 20
0.902777353922526
 10
3.083333333333333
 20
0.9013888041178385
 10
3.083333333333333
 20
0.8999998304578992
 10
3.083333333333333
 20
0.9013888041178385
 10
3.083333333333333
 20
0.9013888041178385
 97
        0
 97
        0
 75
     2
 76
     1
 98
        0
  0
SPLINE
  5
6B
330
65
100
AcDbEntity
  8
Calque 1
370
     0
100
AcDbSpline
210
0.0
220
0.0
230
1.0
 70
    11
 71
     3
 72
   206
 73
   202
 74
     0
 42
0.0000000001
 43
0.0000000001
 12
1.0
 22
0.0
 32
0.0
 13
1.0
 23
0.0
 33
0.0
 40
0.0
 40
0.0
 40
0.0
 40
0.0
 40
1.0
 40
1.0
 40
1.0
 40
2.0
 40
2.0
 40
2.0
 40
3.0
 40
3.0
 40
3.0
 40
4.0
 40
4.0
 40
4.0
 40
5.0
 40
5.0
 40
5.0
 40
6.0
 40
6.0
 40
6.0
 40
7.0
 40
7.0
 40
7.0
 40
8.0
 40
8.0
 40
8.0
 40
9.0
 40
9.0
 40
9.0
 40
10.0
 40
10.0
 40
10.0
 40
11.0
 40
11.0
 40
11.0
 40
12.0
 40
12.0
 40
12.0
 40
13.0
 40
13.0
 40
13.0
 40
14.0
 40
14.0
 40
14.0
 40
15.0
 40
15.0
 40
15.0
 40
16.0
 40
16.0
 40
16.0
 40
17.0
 40
17.0
 40
17.0
 40
18.0
 40
18.0
 40
18.0
 40
19.0
 40
19.0
 40
19.0
 40
20.0
 40
20.0
 40
20.0
 40
21.0
 40
21.0
 40
21.0
 40
22.0
 40
22.0
 40
22.0
 40
23.0
 40
23.0
 40
23.0
 40
24.0
 40
24.0
 40
24.0
 40
25.0
 40
25.0
 40
25.0
 40
26.0
 40
26.0
 40
26.0
 40
27.0
 40
27.0
 40
27.0
 40
28.0
 40
28.0
 40
28.0
 40
29.0
 40
29.0
 40
29.0
 40
30.0
 40
30.0
 40
30.0
 40
31.0
 40
31.0
 40
31.0
 40
32.0
 40
32.0
 40
32.0
 40
33.0
 40
33.0
 40
33.0
 40
34.0
 40
34.0
 40
34.0
 40
35.0
 40
35.0
 40
35.0
 40
36.0
 40
36.0
 40
36.0
 40
37.0
 40
37.0
 40
37.0
 40
38.0
 40
38.0
 40
38.0
 40
39.0
 40
39.0
 40
39.0
 40
40.0
 40
40.0
 40
40.0
 40
41.0
 40
41.0
 40
41.0
 40
42.0
 40
42.0
 40
42.0
 40
43.0
 40
43.0
 40
43.0
 40
44.0
 40
44.0
 40
44.0
 40
45.0
 40
45.0
 40
45.0
 40
46.0
 40
46.0
 40
46.0
 40
47.0
 40
47.0
 40
47.0
 40
48.0
 40
48.0
 40
48.0
 40
49.0
 40
49.0
 40
49.0
 40
50.0
 40
50.0
 40
50.0
 40
51.0
 40
51.0
 40
51.0
 40
52.0
 40
52.0
 40
52.0
 40
53.0
 40
53.0
 40
53.0
 40
54.0
 40
54.0
 40
54.0
 40
55.0
 40
55.0
 40
55.0
 40
56.0
 40
56.0
 40
56.0
 40
57.0
 40
57.0
 40
57.0
 40
58.0
 40
58.0
 40
58.0
 40
59.0
 40
59.0
 40
59.0
 40
60.0
 40
60.0
 40
60.0
 40
61.0
 40
61.0
 40
61.0
 40
62.0
 40
62.0
 40
62.0
 40
63.0
 40
63.0
 40
63.0
 40
64.0
 40
64.0
 40
64.0
 40
65.0
 40
65.0
 40
65.0
 40
66.0
 40
66.0
 40
66.0
 40
67.0
 40
67.0
 40
67.0
 40
67.0
 10
3.994444529215495
 20
3.544444402058919
 30
0.0
 10
3.983333587646484
 20
3.577777650621202
 30
0.0
 10
3.970833248562283
 20
3.611111111111111
 30
0.0
 10
3.961111280653212
 20
3.645833333333333
 30
0.0
 10
3.948611365424262
 20
3.686111026340061
 30
0.0
 10
3.941666920979817
 20
3.726388931274414
 30
0.0
 10
3.938888973659939
 20
3.768055597941081
 30
0.0
 10
3.936111026340061
 20
3.809722264607747
 30
0.0
 10
3.930555555555555
 20
3.851388931274414
 30
0.0
 10
3.92500008477105
 20
3.891666624281141
 30
0.0
 10
3.916666666666667
 20
3.947222179836697
 30
0.0
 10
3.900000254313151
 20
4.001388761732313
 30
0.0
 10
3.883333418104383
 20
4.054166581895617
 30
0.0
 10
3.863889058430989
 20
4.115277608235677
 30
0.0
 10
3.838888804117838
 20
4.173611111111111
 30
0.0
 10
3.809722476535373
 20
4.23055542839898
 30
0.0
 10
3.808333502875434
 20
4.231944296095106
 30
0.0
 10
3.808333502875434
 20
4.233333163791232
 30
0.0
 10
3.806944529215495
 20
4.234722137451172
 30
0.0
 10
3.861111111111111
 20
4.276388804117838
 30
0.0
 10
3.901388804117838
 20
4.331944359673394
 30
0.0
 10
3.933333502875434
 20
4.393055491977267
 30
0.0
 10
3.966666751437717
 20
4.459722201029459
 30
0.0
 10
3.984722561306423
 20
4.53055551317003
 30
0.0
 10
3.994444529215495
 20
4.604166560702853
 30
0.0
 10
4.005555470784505
 20
4.683333184983995
 30
0.0
 10
4.001388973659939
 20
4.76249991522895
 30
0.0
 10
3.981944613986545
 20
4.840277671813965
 30
0.0
 10
3.96388922797309
 20
4.909722116258409
 30
0.0
 10
3.9375
 20
4.976388825310601
 30
0.0
 10
3.906944698757595
 20
5.041666560702853
 30
0.0
 10
3.90138922797309
 20
5.054166581895616
 30
0.0
 10
3.893055809868706
 20
5.066666603088379
 30
0.0
 10
3.884722391764323
 20
5.077777650621202
 30
0.0
 10
3.86250008477105
 20
5.10555542839898
 30
0.0
 10
3.825000339084201
 20
5.108333163791232
 30
0.0
 10
3.798611111111111
 20
5.081944359673394
 30
0.0
 10
3.793055640326606
 20
5.076388782925076
 30
0.0
 10
3.788888719346788
 20
5.070833206176758
 30
0.0
 10
3.783333248562283
 20
5.065277735392252
 30
0.0
 10
3.769444359673394
 20
5.047222137451172
 30
0.0
 10
3.755555470784505
 20
5.027777777777778
 30
0.0
 10
3.741666581895616
 20
5.009722179836697
 30
0.0
 10
3.709722306993272
 20
4.963888804117838
 30
0.0
 10
3.673611111111111
 20
4.922222137451172
 30
0.0
 10
3.630555470784505
 20
4.884722179836697
 30
0.0
 10
3.609722137451172
 20
4.866666581895616
 30
0.0
 10
3.590277777777778
 20
4.848611089918348
 30
0.0
 10
3.569444444444444
 20
4.831944359673394
 30
0.0
 10
3.526388804117838
 20
4.795833269755045
 30
0.0
 10
3.484722137451172
 20
4.758333206176758
 30
0.0
 10
3.44999991522895
 20
4.713888804117838
 30
0.0
 10
3.406944274902344
 20
4.658333248562283
 30
0.0
 10
3.384722179836697
 20
4.595833248562283
 30
0.0
 10
3.379166497124566
 20
4.529166539510091
 30
0.0
 10
3.372222052680121
 20
4.531944274902344
 30
0.0
 10
3.366666581895616
 20
4.533333248562283
 30
0.0
 10
3.359722137451172
 20
4.536110983954535
 30
0.0
 10
3.272222095065647
 20
4.56111102634006
 30
0.0
 10
3.183333290947808
 20
4.572222073872884
 30
0.0
 10
3.09305551317003
 20
4.57499991522895
 30
0.0
 10
3.049999872843424
 20
4.576388782925076
 30
0.0
 10
2.976388931274414
 20
4.572222179836697
 30
0.0
 10
2.933333290947808
 20
4.566666603088379
 30
0.0
 10
2.906944486829969
 20
4.562499894036187
 30
0.0
 10
2.881944444444444
 20
4.555555449591743
 30
0.0
 10
2.858333375718858
 20
4.541666560702853
 30
0.0
 10
2.855555640326606
 20
4.540277693006727
 30
0.0
 10
2.852777904934353
 20
4.538888825310601
 30
0.0
 10
2.849999957614475
 20
4.537499851650661
 30
0.0
 10
2.834722095065647
 20
4.591666539510091
 30
0.0
 10
2.804166581895616
 20
4.638888782925076
 30
0.0
 10
2.759722179836697
 20
4.676388740539551
 30
0.0
 10
2.729166666666667
 20
4.702777650621202
 30
0.0
 10
2.697222179836697
 20
4.727777587042914
 30
0.0
 10
2.661110983954535
 20
4.748610920376247
 30
0.0
 10
2.633333206176758
 20
4.765277544657389
 30
0.0
 10
2.606944402058919
 20
4.780555407206217
 30
0.0
 10
2.579166624281141
 20
4.797222031487359
 30
0.0
 10
2.570833206176758
 20
4.802777608235677
 30
0.0
 10
2.5625
 20
4.806944211324056
 30
0.0
 10
2.555555555555555
 20
4.8138886557685
 30
0.0
 10
2.506944444444444
 20
4.85416645473904
 30
0.0
 10
2.461111068725586
 20
4.897221989101833
 30
0.0
 10
2.420833375718858
 20
4.944444232516818
 30
0.0
 10
2.40555551317003
 20
4.961110856797959
 30
0.0
 10
2.390277862548828
 20
4.977777587042914
 30
0.0
 10
2.375
 20
4.994444211324056
 30
0.0
 10
2.369444529215495
 20
4.999999788072373
 30
0.0
 10
2.363888846503364
 20
5.005555364820692
 30
0.0
 10
2.358333375718858
 20
5.009721967909071
 30
0.0
 10
2.341666751437717
 20
5.020833121405707
 30
0.0
 10
2.322222179836697
 20
5.018055280049642
 30
0.0
 10
2.309722264607747
 20
5.002777523464626
 30
0.0
 10
2.304166793823242
 20
4.995833079020182
 30
0.0
 10
2.30000008477105
 20
4.986110899183485
 30
0.0
 10
2.297222349378798
 20
4.977777481079102
 30
0.0
 10
2.290277904934353
 20
4.955555280049642
 30
0.0
 10
2.283333460489909
 20
4.933333079020182
 30
0.0
 10
2.279166751437717
 20
4.91111077202691
 30
0.0
 10
2.268055597941081
 20
4.851388507419162
 30
0.0
 10
2.258333418104383
 20
4.790277481079102
 30
0.0
 10
2.25
 20
4.730555216471354
 30
0.0
 10
2.240277820163303
 20
4.663888507419162
 30
0.0
 10
2.234722137451172
 20
4.595833036634657
 30
0.0
 10
2.234722137451172
 20
4.527777459886338
 30
0.0
 10
2.234722137451172
 20
4.455555280049642
 30
0.0
 10
2.244444317287869
 20
4.386110835605197
 30
0.0
 10
2.269444359673394
 20
4.318055258856879
 30
0.0
 10
2.287499957614475
 20
4.269444147745768
 30
0.0
 10
2.313888761732313
 20
4.226388613382975
 30
0.0
 10
2.351388719346788
 20
4.190277523464626
 30
0.0
 10
2.352777693006727
 20
4.188888549804688
 30
0.0
 10
2.35555542839898
 20
4.187499788072374
 30
0.0
 10
2.356944190131293
 20
4.184722052680121
 30
0.0
 10
2.32361094156901
 20
4.119444317287869
 30
0.0
 10
2.301388634575738
 20
4.049999872843424
 30
0.0
 10
2.288888719346788
 20
3.977777693006727
 30
0.0
 10
2.276388804117838
 20
3.90555551317003
 30
0.0
 10
2.272222095065647
 20
3.833333333333333
 30
0.0
 10
2.272222095065647
 20
3.76111094156901
 30
0.0
 10
2.272222095065647
 20
3.722222010294596
 30
0.0
 10
2.268055386013455
 20
3.683333079020182
 30
0.0
 10
2.256944232516819
 20
3.645833121405707
 30
0.0
 10
2.249999788072374
 20
3.620833079020182
 30
0.0
 10
2.24305534362793
 20
3.594444274902344
 30
0.0
 10
2.236110899183485
 20
3.569444232516819
 30
0.0
 10
2.223610983954535
 20
3.52361085679796
 30
0.0
 10
2.229166454739041
 20
3.48055542839898
 30
0.0
 10
2.249999788072374
 20
3.437499788072374
 30
0.0
 10
2.252777523464627
 20
3.43055534362793
 30
0.0
 10
2.256944232516819
 20
3.423610899183485
 30
0.0
 10
2.259721967909071
 20
3.41666645473904
 30
0.0
 10
2.27361085679796
 20
3.390277650621202
 30
0.0
 10
2.287499745686849
 20
3.363888634575738
 30
0.0
 10
2.301388634575738
 20
3.337499830457899
 30
0.0
 10
2.30555534362793
 20
3.330555386013454
 30
0.0
 10
2.308333079020182
 20
3.322221967909071
 30
0.0
 10
2.309722052680121
 20
3.313888761732313
 30
0.0
 10
2.329166412353516
 20
3.213888804117838
 30
0.0
 10
2.352777693006727
 20
3.113888846503364
 30
0.0
 10
2.380555470784505
 20
3.015277650621202
 30
0.0
 10
2.4375
 20
2.809722052680121
 30
0.0
 10
2.502777735392252
 20
2.606944402058919
 30
0.0
 10
2.572222179836697
 20
2.405555301242404
 30
0.0
 10
2.588888804117838
 20
2.355555216471354
 30
0.0
 10
2.606944402058919
 20
2.305555131700304
 30
0.0
 10
2.625
 20
2.255555470784505
 30
0.0
 10
2.648611068725586
 20
2.188888973659939
 30
0.0
 10
2.672222137451172
 20
2.123611026340061
 30
0.0
 10
2.695833418104383
 20
2.056944529215495
 30
0.0
 10
2.715277777777778
 20
2.002777947319879
 30
0.0
 10
2.734722349378798
 20
1.947222391764323
 30
0.0
 10
2.756944444444444
 20
1.894444359673394
 30
0.0
 10
2.784722222222222
 20
1.82499991522895
 30
0.0
 10
2.822222179836697
 20
1.759721967909071
 30
0.0
 10
2.859722137451172
 20
1.695833418104383
 30
0.0
 10
2.872222052680121
 20
1.673611111111111
 30
0.0
 10
2.888888888888889
 20
1.652777777777778
 30
0.0
 10
2.90555551317003
 20
1.633333418104383
 30
0.0
 10
2.922222137451172
 20
1.61250008477105
 30
0.0
 10
2.943055470784505
 20
1.595833248562283
 30
0.0
 10
2.966666539510091
 20
1.581944359673394
 30
0.0
 10
3.03055551317003
 20
1.547222137451172
 30
0.0
 10
3.09305551317003
 20
1.548611111111111
 30
0.0
 10
3.151388804117838
 20
1.590277777777778
 30
0.0
 10
3.170833163791233
 20
1.604166666666667
 30
0.0
 10
3.188888761732313
 20
1.620833502875434
 30
0.0
 10
3.205555386013454
 20
1.63749991522895
 30
0.0
 10
3.241666581895616
 20
1.676388634575738
 30
0.0
 10
3.269444359673394
 20
1.720833248562283
 30
0.0
 10
3.29305542839898
 20
1.768055386013455
 30
0.0
 10
3.331944359673394
 20
1.84861077202691
 30
0.0
 10
3.370833290947808
 20
1.929166581895616
 30
0.0
 10
3.412499957614475
 20
2.008332994249132
 30
0.0
 10
3.455555597941081
 20
2.091666327582465
 30
0.0
 10
3.495833290947808
 20
2.176388634575738
 30
0.0
 10
3.531944486829969
 20
2.262499491373698
 30
0.0
 10
3.544444402058919
 20
2.293055216471354
 30
0.0
 10
3.556944529215495
 20
2.323610517713758
 30
0.0
 10
3.569444444444444
 20
2.355555216471354
 30
0.0
 10
3.620833502875434
 20
2.484721925523546
 30
0.0
 10
3.666666666666667
 20
2.61666636996799
 30
0.0
 10
3.712499830457899
 20
2.747221840752495
 30
0.0
 10
3.765277438693576
 20
2.899999618530273
 30
0.0
 10
3.816666497124566
 20
3.052777396308051
 30
0.0
 10
3.856944190131293
 20
3.209721883138021
 30
0.0
 10
3.859722137451172
 20
3.219444062974718
 30
0.0
 10
3.863888634575738
 20
3.229166242811415
 30
0.0
 10
3.868055131700304
 20
3.237499660915798
 30
0.0
 10
3.886110517713758
 20
3.265277438693576
 30
0.0
 10
3.904166327582465
 20
3.291666242811415
 30
0.0
 10
3.92222171359592
 20
3.319444020589192
 30
0.0
 10
3.936110602484809
 20
3.340277353922526
 30
0.0
 10
3.952777438693576
 20
3.361110687255859
 30
0.0
 10
3.966666327582465
 20
3.381944020589192
 30
0.0
 10
3.980555216471354
 20
3.402777353922526
 30
0.0
 10
3.991666158040364
 20
3.424999660915798
 30
0.0
 10
3.995833079020182
 20
3.449999491373698
 30
0.0
 10
4.009722391764322
 20
3.480555640326606
 30
0.0
 10
4.004166497124566
 20
3.51249991522895
 30
0.0
 10
3.994444529215495
 20
3.544444402058919
 30
0.0
  0
HATCH
  5
6C
330
65
100
AcDbEntity
  8
Calque 1
 62
    59
420
  5523522
100
AcDbHatch
 10
0.0
 20
0.0
 30
0.0
210
0.0
220
0.0
230
1.0
  2
SOLID
 70
     1
 71
     0
 91
        1
 92
        1
 93
        1
 72
     4
 94
        3
 73
     0
 74
     1
 95
      206
 96
      202
 40
0.0
 40
0.0
 40
0.0
 40
0.0
 40
1.0
 40
1.0
 40
1.0
 40
2.0
 40
2.0
 40
2.0
 40
3.0
 40
3.0
 40
3.0
 40
4.0
 40
4.0
 40
4.0
 40
5.0
 40
5.0
 40
5.0
 40
6.0
 40
6.0
 40
6.0
 40
7.0
 40
7.0
 40
7.0
 40
8.0
 40
8.0
 40
8.0
 40
9.0
 40
9.0
 40
9.0
 40
10.0
 40
10.0
 40
10.0
 40
11.0
 40
11.0
 40
11.0
 40
12.0
 40
12.0
 40
12.0
 40
13.0
 40
13.0
 40
13.0
 40
14.0
 40
14.0
 40
14.0
 40
15.0
 40
15.0
 40
15.0
 40
16.0
 40
16.0
 40
16.0
 40
17.0
 40
17.0
 40
17.0
 40
18.0
 40
18.0
 40
18.0
 40
19.0
 40
19.0
 40
19.0
 40
20.0
 40
20.0
 40
20.0
 40
21.0
 40
21.0
 40
21.0
 40
22.0
 40
22.0
 40
22.0
 40
23.0
 40
23.0
 40
23.0
 40
24.0
 40
24.0
 40
24.0
 40
25.0
 40
25.0
 40
25.0
 40
26.0
 40
26.0
 40
26.0
 40
27.0
 40
27.0
 40
27.0
 40
28.0
 40
28.0
 40
28.0
 40
29.0
 40
29.0
 40
29.0
 40
30.0
 40
30.0
 40
30.0
 40
31.0
 40
31.0
 40
31.0
 40
32.0
 40
32.0
 40
32.0
 40
33.0
 40
33.0
 40
33.0
 40
34.0
 40
34.0
 40
34.0
 40
35.0
 40
35.0
 40
35.0
 40
36.0
 40
36.0
 40
36.0
 40
37.0
 40
37.0
 40
37.0
 40
38.0
 40
38.0
 40
38.0
 40
39.0
 40
39.0
 40
39.0
 40
40.0
 40
40.0
 40
40.0
 40
41.0
 40
41.0
 40
41.0
 40
42.0
 40
42.0
 40
42.0
 40
43.0
 40
43.0
 40
43.0
 40
44.0
 40
44.0
 40
44.0
 40
45.0
 40
45.0
 40
45.0
 40
46.0
 40
46.0
 40
46.0
 40
47.0
 40
47.0
 40
47.0
 40
48.0
 40
48.0
 40
48.0
 40
49.0
 40
49.0
 40
49.0
 40
50.0
 40
50.0
 40
50.0
 40
51.0
 40
51.0
 40
51.0
 40
52.0
 40
52.0
 40
52.0
 40
53.0
 40
53.0
 40
53.0
 40
54.0
 40
54.0
 40
54.0
 40
55.0
 40
55.0
 40
55.0
 40
56.0
 40
56.0
 40
56.0
 40
57.0
 40
57.0
 40
57.0
 40
58.0
 40
58.0
 40
58.0
 40
59.0
 40
59.0
 40
59.0
 40
60.0
 40
60.0
 40
60.0
 40
61.0
 40
61.0
 40
61.0
 40
62.0
 40
62.0
 40
62.0
 40
63.0
 40
63.0
 40
63.0
 40
64.0
 40
64.0
 40
64.0
 40
65.0
 40
65.0
 40
65.0
 40
66.0
 40
66.0
 40
66.0
 40
67.0
 40
67.0
 40
67.0
 40
67.0
 10
3.994444529215495
 20
3.544444402058919
 10
3.983333587646484
 20
3.577777650621202
 10
3.970833248562283
 20
3.611111111111111
 10
3.961111280653212
 20
3.645833333333333
 10
3.948611365424262
 20
3.686111026340061
 10
3.941666920979817
 20
3.726388931274414
 10
3.938888973659939
 20
3.768055597941081
 10
3.936111026340061
 20
3.809722264607747
 10
3.930555555555555
 20
3.851388931274414
 10
3.92500008477105
 20
3.891666624281141
 10
3.916666666666667
 20
3.947222179836697
 10
3.900000254313151
 20
4.001388761732313
 10
3.883333418104383
 20
4.054166581895617
 10
3.863889058430989
 20
4.115277608235677
 10
3.838888804117838
 20
4.173611111111111
 10
3.809722476535373
 20
4.23055542839898
 10
3.808333502875434
 20
4.231944296095106
 10
3.808333502875434
 20
4.233333163791232
 10
3.806944529215495
 20
4.234722137451172
 10
3.861111111111111
 20
4.276388804117838
 10
3.901388804117838
 20
4.331944359673394
 10
3.933333502875434
 20
4.393055491977267
 10
3.966666751437717
 20
4.459722201029459
 10
3.984722561306423
 20
4.53055551317003
 10
3.994444529215495
 20
4.604166560702853
 10
4.005555470784505
 20
4.683333184983995
 10
4.001388973659939
 20
4.76249991522895
 10
3.981944613986545
 20
4.840277671813965
 10
3.96388922797309
 20
4.909722116258409
 10
3.9375
 20
4.976388825310601
 10
3.906944698757595
 20
5.041666560702853
 10
3.90138922797309
 20
5.054166581895616
 10
3.893055809868706
 20
5.066666603088379
 10
3.884722391764323
 20
5.077777650621202
 10
3.86250008477105
 20
5.10555542839898
 10
3.825000339084201
 20
5.108333163791232
 10
3.798611111111111
 20
5.081944359673394
 10
3.793055640326606
 20
5.076388782925076
 10
3.788888719346788
 20
5.070833206176758
 10
3.783333248562283
 20
5.065277735392252
 10
3.769444359673394
 20
5.047222137451172
 10
3.755555470784505
 20
5.027777777777778
 10
3.741666581895616
 20
5.009722179836697
 10
3.709722306993272
 20
4.963888804117838
 10
3.673611111111111
 20
4.922222137451172
 10
3.630555470784505
 20
4.884722179836697
 10
3.609722137451172
 20
4.866666581895616
 10
3.590277777777778
 20
4.848611089918348
 10
3.569444444444444
 20
4.831944359673394
 10
3.526388804117838
 20
4.795833269755045
 10
3.484722137451172
 20
4.758333206176758
 10
3.44999991522895
 20
4.713888804117838
 10
3.406944274902344
 20
4.658333248562283
 10
3.384722179836697
 20
4.595833248562283
 10
3.379166497124566
 20
4.529166539510091
 10
3.372222052680121
 20
4.531944274902344
 10
3.366666581895616
 20
4.533333248562283
 10
3.359722137451172
 20
4.536110983954535
 10
3.272222095065647
 20
4.56111102634006
 10
3.183333290947808
 20
4.572222073872884
 10
3.09305551317003
 20
4.57499991522895
 10
3.049999872843424
 20
4.576388782925076
 10
2.976388931274414
 20
4.572222179836697
 10
2.933333290947808
 20
4.566666603088379
 10
2.906944486829969
 20
4.562499894036187
 10
2.881944444444444
 20
4.555555449591743
 10
2.858333375718858
 20
4.541666560702853
 10
2.855555640326606
 20
4.540277693006727
 10
2.852777904934353
 20
4.538888825310601
 10
2.849999957614475
 20
4.537499851650661
 10
2.834722095065647
 20
4.591666539510091
 10
2.804166581895616
 20
4.638888782925076
 10
2.759722179836697
 20
4.676388740539551
 10
2.729166666666667
 20
4.702777650621202
 10
2.697222179836697
 20
4.727777587042914
 10
2.661110983954535
 20
4.748610920376247
 10
2.633333206176758
 20
4.765277544657389
 10
2.606944402058919
 20
4.780555407206217
 10
2.579166624281141
 20
4.797222031487359
 10
2.570833206176758
 20
4.802777608235677
 10
2.5625
 20
4.806944211324056
 10
2.555555555555555
 20
4.8138886557685
 10
2.506944444444444
 20
4.85416645473904
 10
2.461111068725586
 20
4.897221989101833
 10
2.420833375718858
 20
4.944444232516818
 10
2.40555551317003
 20
4.961110856797959
 10
2.390277862548828
 20
4.977777587042914
 10
2.375
 20
4.994444211324056
 10
2.369444529215495
 20
4.999999788072373
 10
2.363888846503364
 20
5.005555364820692
 10
2.358333375718858
 20
5.009721967909071
 10
2.341666751437717
 20
5.020833121405707
 10
2.322222179836697
 20
5.018055280049642
 10
2.309722264607747
 20
5.002777523464626
 10
2.304166793823242
 20
4.995833079020182
 10
2.30000008477105
 20
4.986110899183485
 10
2.297222349378798
 20
4.977777481079102
 10
2.290277904934353
 20
4.955555280049642
 10
2.283333460489909
 20
4.933333079020182
 10
2.279166751437717
 20
4.91111077202691
 10
2.268055597941081
 20
4.851388507419162
 10
2.258333418104383
 20
4.790277481079102
 10
2.25
 20
4.730555216471354
 10
2.240277820163303
 20
4.663888507419162
 10
2.234722137451172
 20
4.595833036634657
 10
2.234722137451172
 20
4.527777459886338
 10
2.234722137451172
 20
4.455555280049642
 10
2.244444317287869
 20
4.386110835605197
 10
2.269444359673394
 20
4.318055258856879
 10
2.287499957614475
 20
4.269444147745768
 10
2.313888761732313
 20
4.226388613382975
 10
2.351388719346788
 20
4.190277523464626
 10
2.352777693006727
 20
4.188888549804688
 10
2.35555542839898
 20
4.187499788072374
 10
2.356944190131293
 20
4.184722052680121
 10
2.32361094156901
 20
4.119444317287869
 10
2.301388634575738
 20
4.049999872843424
 10
2.288888719346788
 20
3.977777693006727
 10
2.276388804117838
 20
3.90555551317003
 10
2.272222095065647
 20
3.833333333333333
 10
2.272222095065647
 20
3.76111094156901
 10
2.272222095065647
 20
3.722222010294596
 10
2.268055386013455
 20
3.683333079020182
 10
2.256944232516819
 20
3.645833121405707
 10
2.249999788072374
 20
3.620833079020182
 10
2.24305534362793
 20
3.594444274902344
 10
2.236110899183485
 20
3.569444232516819
 10
2.223610983954535
 20
3.52361085679796
 10
2.229166454739041
 20
3.48055542839898
 10
2.249999788072374
 20
3.437499788072374
 10
2.252777523464627
 20
3.43055534362793
 10
2.256944232516819
 20
3.423610899183485
 10
2.259721967909071
 20
3.41666645473904
 10
2.27361085679796
 20
3.390277650621202
 10
2.287499745686849
 20
3.363888634575738
 10
2.301388634575738
 20
3.337499830457899
 10
2.30555534362793
 20
3.330555386013454
 10
2.308333079020182
 20
3.322221967909071
 10
2.309722052680121
 20
3.313888761732313
 10
2.329166412353516
 20
3.213888804117838
 10
2.352777693006727
 20
3.113888846503364
 10
2.380555470784505
 20
3.015277650621202
 10
2.4375
 20
2.809722052680121
 10
2.502777735392252
 20
2.606944402058919
 10
2.572222179836697
 20
2.405555301242404
 10
2.588888804117838
 20
2.355555216471354
 10
2.606944402058919
 20
2.305555131700304
 10
2.625
 20
2.255555470784505
 10
2.648611068725586
 20
2.188888973659939
 10
2.672222137451172
 20
2.123611026340061
 10
2.695833418104383
 20
2.056944529215495
 10
2.715277777777778
 20
2.002777947319879
 10
2.734722349378798
 20
1.947222391764323
 10
2.756944444444444
 20
1.894444359673394
 10
2.784722222222222
 20
1.82499991522895
 10
2.822222179836697
 20
1.759721967909071
 10
2.859722137451172
 20
1.695833418104383
 10
2.872222052680121
 20
1.673611111111111
 10
2.888888888888889
 20
1.652777777777778
 10
2.90555551317003
 20
1.633333418104383
 10
2.922222137451172
 20
1.61250008477105
 10
2.943055470784505
 20
1.595833248562283
 10
2.966666539510091
 20
1.581944359673394
 10
3.03055551317003
 20
1.547222137451172
 10
3.09305551317003
 20
1.548611111111111
 10
3.151388804117838
 20
1.590277777777778
 10
3.170833163791233
 20
1.604166666666667
 10
3.188888761732313
 20
1.620833502875434
 10
3.205555386013454
 20
1.63749991522895
 10
3.241666581895616
 20
1.676388634575738
 10
3.269444359673394
 20
1.720833248562283
 10
3.29305542839898
 20
1.768055386013455
 10
3.331944359673394
 20
1.84861077202691
 10
3.370833290947808
 20
1.929166581895616
 10
3.412499957614475
 20
2.008332994249132
 10
3.455555597941081
 20
2.091666327582465
 10
3.495833290947808
 20
2.176388634575738
 10
3.531944486829969
 20
2.262499491373698
 10
3.544444402058919
 20
2.293055216471354
 10
3.556944529215495
 20
2.323610517713758
 10
3.569444444444444
 20
2.355555216471354
 10
3.620833502875434
 20
2.484721925523546
 10
3.666666666666667
 20
2.61666636996799
 10
3.712499830457899
 20
2.747221840752495
 10
3.765277438693576
 20
2.899999618530273
 10
3.816666497124566
 20
3.052777396308051
 10
3.856944190131293
 20
3.209721883138021
 10
3.859722137451172
 20
3.219444062974718
 10
3.863888634575738
 20
3.229166242811415
 10
3.868055131700304
 20
3.237499660915798
 10
3.886110517713758
 20
3.265277438693576
 10
3.904166327582465
 20
3.291666242811415
 10
3.92222171359592
 20
3.319444020589192
 10
3.936110602484809
 20
3.340277353922526
 10
3.952777438693576
 20
3.361110687255859
 10
3.966666327582465
 20
3.381944020589192
 10
3.980555216471354
 20
3.402777353922526
 10
3.991666158040364
 20
3.424999660915798
 10
3.995833079020182
 20
3.449999491373698
 10
4.009722391764322
 20
3.480555640326606
 10
4.004166497124566
 20
3.51249991522895
 10
3.994444529215495
 20
3.544444402058919
 97
        0
 97
        0
 75
     2
 76
     1
 98
        0
  0
INSERT
  5
6E
330
65
100
AcDbEntity
  8
Calque 1
100
AcDbBlockReference
  2
block 7
 10
0.0
 20
0.0
 30
0.0
  0
INSERT
  5
74
330
65
100
AcDbEntity
  8
Calque 1
100
AcDbBlockReference
  2
block 8
 10
0.0
 20
0.0
 30
0.0
  0
ENDBLK
  5
68
330
65
100
AcDbEntity
  8
0
100
AcDbBlockEnd
  0
BLOCK
  5
6F
330
6D
100
AcDbEntity
  8
0
100
AcDbBlockBegin
  2
block 7
 70
     0
 10
0.0
 20
0.0
 30
0.0
  3
block 7
  1

  0
SPLINE
  5
71
330
6D
100
AcDbEntity
  8
Calque 1
370
     0
100
AcDbSpline
210
0.0
220
0.0
230
1.0
 70
    11
 71
     3
 72
   179
 73
   175
 74
     0
 42
0.0000000001
 43
0.0000000001
 12
1.0
 22
0.0
 32
0.0
 13
1.0
 23
0.0
 33
0.0
 40
0.0
 40
0.0
 40
0.0
 40
0.0
 40
1.0
 40
1.0
 40
1.0
 40
2.0
 40
2.0
 40
2.0
 40
3.0
 40
3.0
 40
3.0
 40
4.0
 40
4.0
 40
4.0
 40
5.0
 40
5.0
 40
5.0
 40
6.0
 40
6.0
 40
6.0
 40
7.0
 40
7.0
 40
7.0
 40
8.0
 40
8.0
 40
8.0
 40
9.0
 40
9.0
 40
9.0
 40
10.0
 40
10.0
 40
10.0
 40
11.0
 40
11.0
 40
11.0
 40
12.0
 40
12.0
 40
12.0
 40
13.0
 40
13.0
 40
13.0
 40
14.0
 40
14.0
 40
14.0
 40
15.0
 40
15.0
 40
15.0
 40
16.0
 40
16.0
 40
16.0
 40
17.0
 40
17.0
 40
17.0
 40
18.0
 40
18.0
 40
18.0
 40
19.0
 40
19.0
 40
19.0
 40
20.0
 40
20.0
 40
20.0
 40
21.0
 40
21.0
 40
21.0
 40
22.0
 40
22.0
 40
22.0
 40
23.0
 40
23.0
 40
23.0
 40
24.0
 40
24.0
 40
24.0
 40
25.0
 40
25.0
 40
25.0
 40
26.0
 40
26.0
 40
26.0
 40
27.0
 40
27.0
 40
27.0
 40
28.0
 40
28.0
 40
28.0
 40
29.0
 40
29.0
 40
29.0
 40
30.0
 40
30.0
 40
30.0
 40
31.0
 40
31.0
 40
31.0
 40
32.0
 40
32.0
 40
32.0
 40
33.0
 40
33.0
 40
33.0
 40
34.0
 40
34.0
 40
34.0
 40
35.0
 40
35.0
 40
35.0
 40
36.0
 40
36.0
 40
36.0
 40
37.0
 40
37.0
 40
37.0
 40
38.0
 40
38.0
 40
38.0
 40
39.0
 40
39.0
 40
39.0
 40
40.0
 40
40.0
 40
40.0
 40
41.0
 40
41.0
 40
41.0
 40
42.0
 40
42.0
 40
42.0
 40
43.0
 40
43.0
 40
43.0
 40
44.0
 40
44.0
 40
44.0
 40
45.0
 40
45.0
 40
45.0
 40
46.0
 40
46.0
 40
46.0
 40
47.0
 40
47.0
 40
47.0
 40
48.0
 40
48.0
 40
48.0
 40
49.0
 40
49.0
 40
49.0
 40
50.0
 40
50.0
 40
50.0
 40
51.0
 40
51.0
 40
51.0
 40
52.0
 40
52.0
 40
52.0
 40
53.0
 40
53.0
 40
53.0
 40
54.0
 40
54.0
 40
54.0
 40
55.0
 40
55.0
 40
55.0
 40
56.0
 40
56.0
 40
56.0
 40
57.0
 40
57.0
 40
57.0
 40
58.0
 40
58.0
 40
58.0
 40
58.0
 10
3.363888846503364
 20
3.222222222222222
 30
0.0
 10
3.358333375718858
 20
3.143055597941081
 30
0.0
 10
3.356944402058919
 20
3.065277735392252
 30
0.0
 10
3.359722137451172
 20
2.986111111111111
 30
0.0
 10
3.361111111111111
 20
2.931944529215495
 30
0.0
 10
3.363888846503364
 20
2.877777735392252
 30
0.0
 10
3.368055555555555
 20
2.823611153496636
 30
0.0
 10
3.369444529215495
 20
2.797222349378798
 30
0.0
 10
3.375
 20
2.772222306993272
 30
0.0
 10
3.380555470784505
 20
2.745833290947808
 30
0.0
 10
3.388888888888889
 20
2.694444444444444
 30
0.0
 10
3.397222095065647
 20
2.643055597941081
 30
0.0
 10
3.408333248562283
 20
2.591666539510091
 30
0.0
 10
3.420833163791233
 20
2.529166539510091
 30
0.0
 10
3.443055470784505
 20
2.469444274902344
 30
0.0
 10
3.470833248562283
 20
2.412499745686849
 30
0.0
 10
3.494444317287869
 20
2.361110687255859
 30
0.0
 10
3.518055386013454
 20
2.309722052680121
 30
0.0
 10
3.537499957614475
 20
2.258332994249132
 30
0.0
 10
3.541666666666667
 20
2.247222052680121
 30
0.0
 10
3.545833375718858
 20
2.236110687255859
 30
0.0
 10
3.549999872843424
 20
2.224999745686849
 30
0.0
 10
3.561111026340061
 20
2.193055470784505
 30
0.0
 10
3.568055470784505
 20
2.159721798366971
 30
0.0
 10
3.569444444444444
 20
2.126388549804688
 30
0.0
 10
3.570833418104383
 20
2.088888380262587
 30
0.0
 10
3.572222391764323
 20
2.051388634575738
 30
0.0
 10
3.57499991522895
 20
2.001388549804688
 30
0.0
 10
3.57499991522895
 20
1.987499660915798
 30
0.0
 10
3.57361094156901
 20
1.970832824707031
 30
0.0
 10
3.57361094156901
 20
1.952777438693576
 30
0.0
 10
3.572221967909071
 20
1.926388634575738
 30
0.0
 10
3.572221967909071
 20
1.897221883138021
 30
0.0
 10
3.569444444444444
 20
1.868055131700304
 30
0.0
 10
3.568055470784505
 20
1.858332739935981
 30
0.0
 10
3.568055470784505
 20
1.84861077202691
 30
0.0
 10
3.566666497124566
 20
1.837499406602648
 30
0.0
 10
3.5625
 20
1.806943681504991
 30
0.0
 10
3.558333079020182
 20
1.776388380262587
 30
0.0
 10
3.551388634575738
 20
1.74583265516493
 30
0.0
 10
3.54166645473904
 20
1.701388041178385
 30
0.0
 10
3.52361085679796
 20
1.658332824707031
 30
0.0
 10
3.49166636996799
 20
1.624999152289496
 30
0.0
 10
3.476388507419162
 20
1.609721289740668
 30
0.0
 10
3.46111085679796
 20
1.595832400851779
 30
0.0
 10
3.443055258856879
 20
1.581943511962891
 30
0.0
 10
3.431944105360243
 20
1.573610093858507
 30
0.0
 10
3.419444190131293
 20
1.568054623074002
 30
0.0
 10
3.406944062974718
 20
1.565276675754123
 30
0.0
 10
3.331944147745768
 20
1.54444334242079
 30
0.0
 10
3.255555258856879
 20
1.529165479871962
 30
0.0
 10
3.177777396308051
 20
1.523610009087456
 30
0.0
 10
3.151388592190212
 20
1.522221035427517
 30
0.0
 10
3.123610814412435
 20
1.523610009087456
 30
0.0
 10
3.097221798366971
 20
1.523610009087456
 30
0.0
 10
3.084721883138021
 20
1.523610009087456
 30
0.0
 10
3.070832994249132
 20
1.523610009087456
 30
0.0
 10
3.058332867092556
 20
1.523610009087456
 30
0.0
 10
3.019443935818142
 20
1.522221035427517
 30
0.0
 10
2.980555004543728
 20
1.527776506212023
 30
0.0
 10
2.94166628519694
 20
1.536109924316406
 30
0.0
 10
2.898610644870334
 20
1.54444334242079
 30
0.0
 10
2.855555216471354
 20
1.552776760525173
 30
0.0
 10
2.813888549804688
 20
1.569443172878689
 30
0.0
 10
2.787499745686849
 20
1.5805541144477
 30
0.0
 10
2.762499703301323
 20
1.591665479871962
 30
0.0
 10
2.740277396308051
 20
1.609720865885417
 30
0.0
 10
2.708332909478081
 20
1.634720696343316
 30
0.0
 10
2.684721840752495
 20
1.666665395100911
 30
0.0
 10
2.668055216471354
 20
1.70416514078776
 30
0.0
 10
2.651388592190213
 20
1.741665310329861
 30
0.0
 10
2.643055174085829
 20
1.780554029676649
 30
0.0
 10
2.634721967909071
 20
1.820831722683377
 30
0.0
 10
2.631944232516819
 20
1.836109585232205
 30
0.0
 10
2.629166497124566
 20
1.849998474121094
 30
0.0
 10
2.626388549804688
 20
1.865276336669922
 30
0.0
 10
2.619444105360243
 20
1.90416505601671
 30
0.0
 10
2.615277396308051
 20
1.94305419921875
 30
0.0
 10
2.612499660915799
 20
1.981942918565538
 30
0.0
 10
2.612499660915799
 20
1.988887363009983
 30
0.0
 10
2.611110687255859
 20
1.997220781114366
 30
0.0
 10
2.611110687255859
 20
2.004165225558811
 30
0.0
 10
2.60972171359592
 20
2.045831892225477
 30
0.0
 10
2.60972171359592
 20
2.086109585232205
 30
0.0
 10
2.613888422648112
 20
2.127776251898871
 30
0.0
 10
2.616666158040364
 20
2.169442918565538
 30
0.0
 10
2.622221840752495
 20
2.212498558892144
 30
0.0
 10
2.62916628519694
 20
2.254165225558811
 30
0.0
 10
2.62916628519694
 20
2.256943172878689
 30
0.0
 10
2.630555258856879
 20
2.261109670003255
 30
0.0
 10
2.630555258856879
 20
2.265276167127821
 30
0.0
 10
2.634721967909071
 20
2.290275997585721
 30
0.0
 10
2.643055174085829
 20
2.316665225558811
 30
0.0
 10
2.651388592190213
 20
2.340276082356771
 30
0.0
 10
2.676388634575738
 20
2.406942579481337
 30
0.0
 10
2.695832994249132
 20
2.474998262193468
 30
0.0
 10
2.71111085679796
 20
2.543053944905599
 30
0.0
 10
2.726388719346788
 20
2.613887363009983
 30
0.0
 10
2.74166636996799
 20
2.683331807454427
 30
0.0
 10
2.754166497124566
 20
2.755553987291124
 30
0.0
 10
2.76111094156901
 20
2.797220653957791
 30
0.0
 10
2.765277650621202
 20
2.838887320624457
 30
0.0
 10
2.768055386013455
 20
2.880553987291124
 30
0.0
 10
2.77361085679796
 20
2.959720611572266
 30
0.0
 10
2.774999830457899
 20
3.037498474121094
 30
0.0
 10
2.780555301242404
 20
3.116665098402235
 30
0.0
 10
2.790277481079102
 20
3.261109458075629
 30
0.0
 10
2.794444190131293
 20
3.405554029676649
 30
0.0
 10
2.790277481079102
 20
3.551387363009983
 30
0.0
 10
2.788888507419162
 20
3.616665098402235
 30
0.0
 10
2.781944062974718
 20
3.681942833794488
 30
0.0
 10
2.777777565850152
 20
3.747220781114366
 30
0.0
 10
2.77361085679796
 20
3.813887490166558
 30
0.0
 10
2.763888676961263
 20
3.879165225558811
 30
0.0
 10
2.752777523464627
 20
3.945831934611002
 30
0.0
 10
2.74166636996799
 20
4.008331934611002
 30
0.0
 10
2.730555216471354
 20
4.070831934611002
 30
0.0
 10
2.704166412353516
 20
4.13055419921875
 30
0.0
 10
2.694444232516819
 20
4.154165267944336
 30
0.0
 10
2.68055534362793
 20
4.177776336669922
 30
0.0
 10
2.668055216471354
 20
4.199998643663195
 30
0.0
 10
2.652777353922526
 20
4.227776421440972
 30
0.0
 10
2.630555258856879
 20
4.249998622470431
 30
0.0
 10
2.606944190131293
 20
4.269443088107638
 30
0.0
 10
2.594444274902344
 20
4.280554241604275
 30
0.0
 10
2.579166412353516
 20
4.287498686048719
 30
0.0
 10
2.562499788072374
 20
4.290276421440972
 30
0.0
 10
2.531944274902344
 20
4.297220865885416
 30
0.0
 10
2.501388761732313
 20
4.298609733581543
 30
0.0
 10
2.470833036634657
 20
4.299998601277669
 30
0.0
 10
2.488888634575738
 20
4.313887490166558
 30
0.0
 10
2.506944232516819
 20
4.327776379055447
 30
0.0
 10
2.524999618530273
 20
4.341665267944336
 30
0.0
 10
2.599999533759223
 20
4.398609691196017
 30
0.0
 10
2.680555131700304
 20
4.447220802307129
 30
0.0
 10
2.762499703301323
 20
4.493054178025987
 30
0.0
 10
2.793055216471354
 20
4.509720802307129
 30
0.0
 10
2.824999703301323
 20
4.526387532552083
 30
0.0
 10
2.855555216471354
 20
4.544443024529351
 30
0.0
 10
2.87916628519694
 20
4.556943045722114
 30
0.0
 10
2.904166327582465
 20
4.565276357862684
 30
0.0
 10
2.930555131700304
 20
4.569443066914876
 30
0.0
 10
2.973610772026909
 20
4.576387511359321
 30
0.0
 10
3.04722171359592
 20
4.580554220411512
 30
0.0
 10
3.091666327582465
 20
4.577776379055447
 30
0.0
 10
3.181944105360243
 20
4.574998643663194
 30
0.0
 10
3.270832909478081
 20
4.563887490166558
 30
0.0
 10
3.358332951863606
 20
4.538887447781033
 30
0.0
 10
3.368055131700304
 20
4.53610971238878
 30
0.0
 10
3.376388549804688
 20
4.533331871032715
 30
0.0
 10
3.384721755981445
 20
4.529165267944336
 30
0.0
 10
3.483332951863606
 20
4.486109733581543
 30
0.0
 10
3.574999491373698
 20
4.431943045722114
 30
0.0
 10
3.662499321831597
 20
4.369443045722114
 30
0.0
 10
3.687499152289496
 20
4.351387447781033
 30
0.0
 10
3.711110432942708
 20
4.3305541144477
 30
0.0
 10
3.73472171359592
 20
4.309720781114367
 30
0.0
 10
3.693055046929253
 20
4.295831892225477
 30
0.0
 10
3.656943851047092
 20
4.272220823499891
 30
0.0
 10
3.624999576144748
 20
4.240276336669922
 30
0.0
 10
3.602777269151475
 20
4.218054029676649
 30
0.0
 10
3.583332909478081
 20
4.194442960951063
 30
0.0
 10
3.566666073269314
 20
4.168054156833224
 30
0.0
 10
3.522221671210395
 20
4.098609712388781
 30
0.0
 10
3.491666158040364
 20
4.024998558892144
 30
0.0
 10
3.466666115654839
 20
3.947220908270942
 30
0.0
 10
3.438888337877061
 20
3.862498601277669
 30
0.0
 10
3.420832739935981
 20
3.776387532552083
 30
0.0
 10
3.409721586439344
 20
3.687498728434245
 30
0.0
 10
3.399999406602647
 20
3.611109839545356
 30
0.0
 10
3.388888253106011
 20
3.536109924316406
 30
0.0
 10
3.380554835001627
 20
3.459721035427517
 30
0.0
 10
3.376388973659939
 20
3.377777735392252
 30
0.0
 10
3.370833290947808
 20
3.30000008477105
 30
0.0
 10
3.363888846503364
 20
3.222222222222222
 30
0.0
  0
HATCH
  5
72
330
6D
100
AcDbEntity
  8
Calque 1
 62
   253
420
 13087386
100
AcDbHatch
 10
0.0
 20
0.0
 30
0.0
210
0.0
220
0.0
230
1.0
  2
SOLID
 70
     1
 71
     0
 91
        1
 92
        1
 93
        1
 72
     4
 94
        3
 73
     0
 74
     1
 95
      179
 96
      175
 40
0.0
 40
0.0
 40
0.0
 40
0.0
 40
1.0
 40
1.0
 40
1.0
 40
2.0
 40
2.0
 40
2.0
 40
3.0
 40
3.0
 40
3.0
 40
4.0
 40
4.0
 40
4.0
 40
5.0
 40
5.0
 40
5.0
 40
6.0
 40
6.0
 40
6.0
 40
7.0
 40
7.0
 40
7.0
 40
8.0
 40
8.0
 40
8.0
 40
9.0
 40
9.0
 40
9.0
 40
10.0
 40
10.0
 40
10.0
 40
11.0
 40
11.0
 40
11.0
 40
12.0
 40
12.0
 40
12.0
 40
13.0
 40
13.0
 40
13.0
 40
14.0
 40
14.0
 40
14.0
 40
15.0
 40
15.0
 40
15.0
 40
16.0
 40
16.0
 40
16.0
 40
17.0
 40
17.0
 40
17.0
 40
18.0
 40
18.0
 40
18.0
 40
19.0
 40
19.0
 40
19.0
 40
20.0
 40
20.0
 40
20.0
 40
21.0
 40
21.0
 40
21.0
 40
22.0
 40
22.0
 40
22.0
 40
23.0
 40
23.0
 40
23.0
 40
24.0
 40
24.0
 40
24.0
 40
25.0
 40
25.0
 40
25.0
 40
26.0
 40
26.0
 40
26.0
 40
27.0
 40
27.0
 40
27.0
 40
28.0
 40
28.0
 40
28.0
 40
29.0
 40
29.0
 40
29.0
 40
30.0
 40
30.0
 40
30.0
 40
31.0
 40
31.0
 40
31.0
 40
32.0
 40
32.0
 40
32.0
 40
33.0
 40
33.0
 40
33.0
 40
34.0
 40
34.0
 40
34.0
 40
35.0
 40
35.0
 40
35.0
 40
36.0
 40
36.0
 40
36.0
 40
37.0
 40
37.0
 40
37.0
 40
38.0
 40
38.0
 40
38.0
 40
39.0
 40
39.0
 40
39.0
 40
40.0
 40
40.0
 40
40.0
 40
41.0
 40
41.0
 40
41.0
 40
42.0
 40
42.0
 40
42.0
 40
43.0
 40
43.0
 40
43.0
 40
44.0
 40
44.0
 40
44.0
 40
45.0
 40
45.0
 40
45.0
 40
46.0
 40
46.0
 40
46.0
 40
47.0
 40
47.0
 40
47.0
 40
48.0
 40
48.0
 40
48.0
 40
49.0
 40
49.0
 40
49.0
 40
50.0
 40
50.0
 40
50.0
 40
51.0
 40
51.0
 40
51.0
 40
52.0
 40
52.0
 40
52.0
 40
53.0
 40
53.0
 40
53.0
 40
54.0
 40
54.0
 40
54.0
 40
55.0
 40
55.0
 40
55.0
 40
56.0
 40
56.0
 40
56.0
 40
57.0
 40
57.0
 40
57.0
 40
58.0
 40
58.0
 40
58.0
 40
58.0
 10
3.363888846503364
 20
3.222222222222222
 10
3.358333375718858
 20
3.143055597941081
 10
3.356944402058919
 20
3.065277735392252
 10
3.359722137451172
 20
2.986111111111111
 10
3.361111111111111
 20
2.931944529215495
 10
3.363888846503364
 20
2.877777735392252
 10
3.368055555555555
 20
2.823611153496636
 10
3.369444529215495
 20
2.797222349378798
 10
3.375
 20
2.772222306993272
 10
3.380555470784505
 20
2.745833290947808
 10
3.388888888888889
 20
2.694444444444444
 10
3.397222095065647
 20
2.643055597941081
 10
3.408333248562283
 20
2.591666539510091
 10
3.420833163791233
 20
2.529166539510091
 10
3.443055470784505
 20
2.469444274902344
 10
3.470833248562283
 20
2.412499745686849
 10
3.494444317287869
 20
2.361110687255859
 10
3.518055386013454
 20
2.309722052680121
 10
3.537499957614475
 20
2.258332994249132
 10
3.541666666666667
 20
2.247222052680121
 10
3.545833375718858
 20
2.236110687255859
 10
3.549999872843424
 20
2.224999745686849
 10
3.561111026340061
 20
2.193055470784505
 10
3.568055470784505
 20
2.159721798366971
 10
3.569444444444444
 20
2.126388549804688
 10
3.570833418104383
 20
2.088888380262587
 10
3.572222391764323
 20
2.051388634575738
 10
3.57499991522895
 20
2.001388549804688
 10
3.57499991522895
 20
1.987499660915798
 10
3.57361094156901
 20
1.970832824707031
 10
3.57361094156901
 20
1.952777438693576
 10
3.572221967909071
 20
1.926388634575738
 10
3.572221967909071
 20
1.897221883138021
 10
3.569444444444444
 20
1.868055131700304
 10
3.568055470784505
 20
1.858332739935981
 10
3.568055470784505
 20
1.84861077202691
 10
3.566666497124566
 20
1.837499406602648
 10
3.5625
 20
1.806943681504991
 10
3.558333079020182
 20
1.776388380262587
 10
3.551388634575738
 20
1.74583265516493
 10
3.54166645473904
 20
1.701388041178385
 10
3.52361085679796
 20
1.658332824707031
 10
3.49166636996799
 20
1.624999152289496
 10
3.476388507419162
 20
1.609721289740668
 10
3.46111085679796
 20
1.595832400851779
 10
3.443055258856879
 20
1.581943511962891
 10
3.431944105360243
 20
1.573610093858507
 10
3.419444190131293
 20
1.568054623074002
 10
3.406944062974718
 20
1.565276675754123
 10
3.331944147745768
 20
1.54444334242079
 10
3.255555258856879
 20
1.529165479871962
 10
3.177777396308051
 20
1.523610009087456
 10
3.151388592190212
 20
1.522221035427517
 10
3.123610814412435
 20
1.523610009087456
 10
3.097221798366971
 20
1.523610009087456
 10
3.084721883138021
 20
1.523610009087456
 10
3.070832994249132
 20
1.523610009087456
 10
3.058332867092556
 20
1.523610009087456
 10
3.019443935818142
 20
1.522221035427517
 10
2.980555004543728
 20
1.527776506212023
 10
2.94166628519694
 20
1.536109924316406
 10
2.898610644870334
 20
1.54444334242079
 10
2.855555216471354
 20
1.552776760525173
 10
2.813888549804688
 20
1.569443172878689
 10
2.787499745686849
 20
1.5805541144477
 10
2.762499703301323
 20
1.591665479871962
 10
2.740277396308051
 20
1.609720865885417
 10
2.708332909478081
 20
1.634720696343316
 10
2.684721840752495
 20
1.666665395100911
 10
2.668055216471354
 20
1.70416514078776
 10
2.651388592190213
 20
1.741665310329861
 10
2.643055174085829
 20
1.780554029676649
 10
2.634721967909071
 20
1.820831722683377
 10
2.631944232516819
 20
1.836109585232205
 10
2.629166497124566
 20
1.849998474121094
 10
2.626388549804688
 20
1.865276336669922
 10
2.619444105360243
 20
1.90416505601671
 10
2.615277396308051
 20
1.94305419921875
 10
2.612499660915799
 20
1.981942918565538
 10
2.612499660915799
 20
1.988887363009983
 10
2.611110687255859
 20
1.997220781114366
 10
2.611110687255859
 20
2.004165225558811
 10
2.60972171359592
 20
2.045831892225477
 10
2.60972171359592
 20
2.086109585232205
 10
2.613888422648112
 20
2.127776251898871
 10
2.616666158040364
 20
2.169442918565538
 10
2.622221840752495
 20
2.212498558892144
 10
2.62916628519694
 20
2.254165225558811
 10
2.62916628519694
 20
2.256943172878689
 10
2.630555258856879
 20
2.261109670003255
 10
2.630555258856879
 20
2.265276167127821
 10
2.634721967909071
 20
2.290275997585721
 10
2.643055174085829
 20
2.316665225558811
 10
2.651388592190213
 20
2.340276082356771
 10
2.676388634575738
 20
2.406942579481337
 10
2.695832994249132
 20
2.474998262193468
 10
2.71111085679796
 20
2.543053944905599
 10
2.726388719346788
 20
2.613887363009983
 10
2.74166636996799
 20
2.683331807454427
 10
2.754166497124566
 20
2.755553987291124
 10
2.76111094156901
 20
2.797220653957791
 10
2.765277650621202
 20
2.838887320624457
 10
2.768055386013455
 20
2.880553987291124
 10
2.77361085679796
 20
2.959720611572266
 10
2.774999830457899
 20
3.037498474121094
 10
2.780555301242404
 20
3.116665098402235
 10
2.790277481079102
 20
3.261109458075629
 10
2.794444190131293
 20
3.405554029676649
 10
2.790277481079102
 20
3.551387363009983
 10
2.788888507419162
 20
3.616665098402235
 10
2.781944062974718
 20
3.681942833794488
 10
2.777777565850152
 20
3.747220781114366
 10
2.77361085679796
 20
3.813887490166558
 10
2.763888676961263
 20
3.879165225558811
 10
2.752777523464627
 20
3.945831934611002
 10
2.74166636996799
 20
4.008331934611002
 10
2.730555216471354
 20
4.070831934611002
 10
2.704166412353516
 20
4.13055419921875
 10
2.694444232516819
 20
4.154165267944336
 10
2.68055534362793
 20
4.177776336669922
 10
2.668055216471354
 20
4.199998643663195
 10
2.652777353922526
 20
4.227776421440972
 10
2.630555258856879
 20
4.249998622470431
 10
2.606944190131293
 20
4.269443088107638
 10
2.594444274902344
 20
4.280554241604275
 10
2.579166412353516
 20
4.287498686048719
 10
2.562499788072374
 20
4.290276421440972
 10
2.531944274902344
 20
4.297220865885416
 10
2.501388761732313
 20
4.298609733581543
 10
2.470833036634657
 20
4.299998601277669
 10
2.488888634575738
 20
4.313887490166558
 10
2.506944232516819
 20
4.327776379055447
 10
2.524999618530273
 20
4.341665267944336
 10
2.599999533759223
 20
4.398609691196017
 10
2.680555131700304
 20
4.447220802307129
 10
2.762499703301323
 20
4.493054178025987
 10
2.793055216471354
 20
4.509720802307129
 10
2.824999703301323
 20
4.526387532552083
 10
2.855555216471354
 20
4.544443024529351
 10
2.87916628519694
 20
4.556943045722114
 10
2.904166327582465
 20
4.565276357862684
 10
2.930555131700304
 20
4.569443066914876
 10
2.973610772026909
 20
4.576387511359321
 10
3.04722171359592
 20
4.580554220411512
 10
3.091666327582465
 20
4.577776379055447
 10
3.181944105360243
 20
4.574998643663194
 10
3.270832909478081
 20
4.563887490166558
 10
3.358332951863606
 20
4.538887447781033
 10
3.368055131700304
 20
4.53610971238878
 10
3.376388549804688
 20
4.533331871032715
 10
3.384721755981445
 20
4.529165267944336
 10
3.483332951863606
 20
4.486109733581543
 10
3.574999491373698
 20
4.431943045722114
 10
3.662499321831597
 20
4.369443045722114
 10
3.687499152289496
 20
4.351387447781033
 10
3.711110432942708
 20
4.3305541144477
 10
3.73472171359592
 20
4.309720781114367
 10
3.693055046929253
 20
4.295831892225477
 10
3.656943851047092
 20
4.272220823499891
 10
3.624999576144748
 20
4.240276336669922
 10
3.602777269151475
 20
4.218054029676649
 10
3.583332909478081
 20
4.194442960951063
 10
3.566666073269314
 20
4.168054156833224
 10
3.522221671210395
 20
4.098609712388781
 10
3.491666158040364
 20
4.024998558892144
 10
3.466666115654839
 20
3.947220908270942
 10
3.438888337877061
 20
3.862498601277669
 10
3.420832739935981
 20
3.776387532552083
 10
3.409721586439344
 20
3.687498728434245
 10
3.399999406602647
 20
3.611109839545356
 10
3.388888253106011
 20
3.536109924316406
 10
3.380554835001627
 20
3.459721035427517
 10
3.376388973659939
 20
3.377777735392252
 10
3.370833290947808
 20
3.30000008477105
 10
3.363888846503364
 20
3.222222222222222
 97
        0
 97
        0
 75
     2
 76
     1
 98
        0
  0
ENDBLK
  5
70
330
6D
100
AcDbEntity
  8
0
100
AcDbBlockEnd
  0
BLOCK
  5
75
330
73
100
AcDbEntity
  8
0
100
AcDbBlockBegin
  2
block 8
 70
     0
 10
0.0
 20
0.0
 30
0.0
  3
block 8
  1

  0
SPLINE
  5
77
330
73
100
AcDbEntity
  8
Calque 1
370
     0
100
AcDbSpline
210
0.0
220
0.0
230
1.0
 70
    11
 71
     3
 72
   200
 73
   196
 74
     0
 42
0.0000000001
 43
0.0000000001
 12
1.0
 22
0.0
 32
0.0
 13
1.0
 23
0.0
 33
0.0
 40
0.0
 40
0.0
 40
0.0
 40
0.0
 40
1.0
 40
1.0
 40
1.0
 40
2.0
 40
2.0
 40
2.0
 40
3.0
 40
3.0
 40
3.0
 40
4.0
 40
4.0
 40
4.0
 40
5.0
 40
5.0
 40
5.0
 40
6.0
 40
6.0
 40
6.0
 40
7.0
 40
7.0
 40
7.0
 40
8.0
 40
8.0
 40
8.0
 40
9.0
 40
9.0
 40
9.0
 40
10.0
 40
10.0
 40
10.0
 40
11.0
 40
11.0
 40
11.0
 40
12.0
 40
12.0
 40
12.0
 40
13.0
 40
13.0
 40
13.0
 40
14.0
 40
14.0
 40
14.0
 40
15.0
 40
15.0
 40
15.0
 40
16.0
 40
16.0
 40
16.0
 40
17.0
 40
17.0
 40
17.0
 40
18.0
 40
18.0
 40
18.0
 40
19.0
 40
19.0
 40
19.0
 40
20.0
 40
20.0
 40
20.0
 40
21.0
 40
21.0
 40
21.0
 40
22.0
 40
22.0
 40
22.0
 40
23.0
 40
23.0
 40
23.0
 40
24.0
 40
24.0
 40
24.0
 40
25.0
 40
25.0
 40
25.0
 40
26.0
 40
26.0
 40
26.0
 40
27.0
 40
27.0
 40
27.0
 40
28.0
 40
28.0
 40
28.0
 40
29.0
 40
29.0
 40
29.0
 40
30.0
 40
30.0
 40
30.0
 40
31.0
 40
31.0
 40
31.0
 40
32.0
 40
32.0
 40
32.0
 40
33.0
 40
33.0
 40
33.0
 40
34.0
 40
34.0
 40
34.0
 40
35.0
 40
35.0
 40
35.0
 40
36.0
 40
36.0
 40
36.0
 40
37.0
 40
37.0
 40
37.0
 40
38.0
 40
38.0
 40
38.0
 40
39.0
 40
39.0
 40
39.0
 40
40.0
 40
40.0
 40
40.0
 40
41.0
 40
41.0
 40
41.0
 40
42.0
 40
42.0
 40
42.0
 40
43.0
 40
43.0
 40
43.0
 40
44.0
 40
44.0
 40
44.0
 40
45.0
 40
45.0
 40
45.0
 40
46.0
 40
46.0
 40
46.0
 40
47.0
 40
47.0
 40
47.0
 40
48.0
 40
48.0
 40
48.0
 40
49.0
 40
49.0
 40
49.0
 40
50.0
 40
50.0
 40
50.0
 40
51.0
 40
51.0
 40
51.0
 40
52.0
 40
52.0
 40
52.0
 40
53.0
 40
53.0
 40
53.0
 40
54.0
 40
54.0
 40
54.0
 40
55.0
 40
55.0
 40
55.0
 40
56.0
 40
56.0
 40
56.0
 40
57.0
 40
57.0
 40
57.0
 40
58.0
 40
58.0
 40
58.0
 40
59.0
 40
59.0
 40
59.0
 40
60.0
 40
60.0
 40
60.0
 40
61.0
 40
61.0
 40
61.0
 40
62.0
 40
62.0
 40
62.0
 40
63.0
 40
63.0
 40
63.0
 40
64.0
 40
64.0
 40
64.0
 40
65.0
 40
65.0
 40
65.0
 40
65.0
 10
3.099999957614475
 20
4.372222264607747
 30
0.0
 10
3.098610983954535
 20
4.372222264607747
 30
0.0
 10
3.097222222222222
 20
4.372222264607747
 30
0.0
 10
3.095833248562283
 20
4.370833396911621
 30
0.0
 10
3.068055470784505
 20
4.35416677263048
 30
0.0
 10
3.041666666666667
 20
4.336111174689399
 30
0.0
 10
3.019444359673394
 20
4.312500105963813
 30
0.0
 10
2.987499872843424
 20
4.279166751437717
 30
0.0
 10
2.970833248562283
 20
4.238888952467176
 30
0.0
 10
2.959722095065647
 20
4.195833418104383
 30
0.0
 10
2.956944359673394
 20
4.186111238267687
 30
0.0
 10
2.955555386013455
 20
4.176389058430989
 30
0.0
 10
2.952777650621202
 20
4.166666666666666
 30
0.0
 10
2.944444232516819
 20
4.13749991522895
 30
0.0
 10
2.919444402058919
 20
4.129166709052192
 30
0.0
 10
2.895833121405707
 20
4.148611068725586
 30
0.0
 10
2.879166497124566
 20
4.162499957614474
 30
0.0
 10
2.86805534362793
 20
4.180555555555555
 30
0.0
 10
2.859721925523546
 20
4.201388888888888
 30
0.0
 10
2.843055301242404
 20
4.244444423251681
 30
0.0
 10
2.838888592190213
 20
4.288888931274414
 30
0.0
 10
2.847222010294596
 20
4.334722201029459
 30
0.0
 10
2.849999745686849
 20
4.351388825310601
 30
0.0
 10
2.852777481079102
 20
4.368055555555555
 30
0.0
 10
2.856944190131293
 20
4.386111047532824
 30
0.0
 10
2.854166454739041
 20
4.384722179836697
 30
0.0
 10
2.851388719346788
 20
4.384722179836697
 30
0.0
 10
2.851388719346788
 20
4.383333312140571
 30
0.0
 10
2.801388634575738
 20
4.341666645473904
 30
0.0
 10
2.76111094156901
 20
4.29027779897054
 30
0.0
 10
2.737499872843424
 20
4.229166666666666
 30
0.0
 10
2.708333121405707
 20
4.156944486829969
 30
0.0
 10
2.719444274902344
 20
4.091666751437717
 30
0.0
 10
2.772222095065647
 20
4.034722222222222
 30
0.0
 10
2.794444402058919
 20
4.011111153496636
 30
0.0
 10
2.819444232516819
 20
3.991666581895616
 30
0.0
 10
2.845833248562283
 20
3.972222222222222
 30
0.0
 10
2.861111111111111
 20
3.959722306993272
 30
0.0
 10
2.876388761732313
 20
3.948611153496636
 30
0.0
 10
2.890277650621202
 20
3.934722264607747
 30
0.0
 10
2.913888719346788
 20
3.912499957614475
 30
0.0
 10
2.926388846503364
 20
3.883333418104383
 30
0.0
 10
2.927777608235677
 20
3.849999957614475
 30
0.0
 10
2.929166581895616
 20
3.820833206176758
 30
0.0
 10
2.924999872843424
 20
3.79305542839898
 30
0.0
 10
2.919444190131293
 20
3.765277650621202
 30
0.0
 10
2.918055216471354
 20
3.756944232516819
 30
0.0
 10
2.913888719346788
 20
3.749999788072374
 30
0.0
 10
2.905555301242404
 20
3.745833290947808
 30
0.0
 10
2.893055386013455
 20
3.740277820163303
 30
0.0
 10
2.877777523464627
 20
3.747222264607747
 30
0.0
 10
2.876388549804688
 20
3.761111153496636
 30
0.0
 10
2.872221840752495
 20
3.80000008477105
 30
0.0
 10
2.848610772026909
 20
3.827777862548828
 30
0.0
 10
2.822221967909071
 20
3.851388931274414
 30
0.0
 10
2.795833163791233
 20
3.875
 30
0.0
 10
2.768055386013455
 20
3.895833333333333
 30
0.0
 10
2.740277608235677
 20
3.918055640326606
 30
0.0
 10
2.695833206176758
 20
3.954166836208767
 30
0.0
 10
2.651388804117838
 20
3.990277820163303
 30
0.0
 10
2.616666581895616
 20
4.036111195882161
 30
0.0
 10
2.565277735392252
 20
4.101388931274414
 30
0.0
 10
2.547222137451172
 20
4.176389058430989
 30
0.0
 10
2.555555555555555
 20
4.256944550408257
 30
0.0
 10
2.556944529215495
 20
4.265277862548828
 30
0.0
 10
2.556944529215495
 20
4.272222306993273
 30
0.0
 10
2.558333290947808
 20
4.283333460489908
 30
0.0
 10
2.551388846503364
 20
4.280555725097656
 30
0.0
 10
2.545833375718858
 20
4.280555725097656
 30
0.0
 10
2.541666666666667
 20
4.277777883741591
 30
0.0
 10
2.520833333333333
 20
4.268055703904894
 30
0.0
 10
2.501388973659939
 20
4.258333418104383
 30
0.0
 10
2.480555640326606
 20
4.250000105963813
 30
0.0
 10
2.458333333333333
 20
4.238888952467176
 30
0.0
 10
2.438888973659939
 20
4.223611195882161
 30
0.0
 10
2.42500008477105
 20
4.202777862548828
 30
0.0
 10
2.408333460489909
 20
4.179166793823242
 30
0.0
 10
2.39444457160102
 20
4.154166751437717
 30
0.0
 10
2.379166709052192
 20
4.130555682712131
 30
0.0
 10
2.379166709052192
 20
4.130555682712131
 30
0.0
 10
2.379166709052192
 20
4.129166709052192
 30
0.0
 10
2.379166709052192
 20
4.129166709052192
 30
0.0
 10
2.373611238267686
 20
4.118055555555555
 30
0.0
 10
2.368055555555555
 20
4.115277820163302
 30
0.0
 10
2.359722349378798
 20
4.116666793823242
 30
0.0
 10
2.3500001695421
 20
4.118055767483181
 30
0.0
 10
2.344444486829969
 20
4.123611238267687
 30
0.0
 10
2.344444486829969
 20
4.136111153496636
 30
0.0
 10
2.344444486829969
 20
4.150000042385525
 30
0.0
 10
2.344444486829969
 20
4.162499957614474
 30
0.0
 10
2.347222222222222
 20
4.176388846503364
 30
0.0
 10
2.351388931274414
 20
4.204166624281141
 30
0.0
 10
2.361111111111111
 20
4.230555534362793
 30
0.0
 10
2.373611026340061
 20
4.255555470784505
 30
0.0
 10
2.393055386013455
 20
4.295833269755045
 30
0.0
 10
2.416666666666667
 20
4.33333322736952
 30
0.0
 10
2.447222179836697
 20
4.363888846503364
 30
0.0
 10
2.461111068725586
 20
4.377777735392252
 30
0.0
 10
2.473610983954535
 20
4.391666624281141
 30
0.0
 10
2.486111111111111
 20
4.405555513170031
 30
0.0
 10
2.559722264607747
 20
4.477777693006727
 30
0.0
 10
2.645833333333333
 20
4.529166645473904
 30
0.0
 10
2.740277820163303
 20
4.568055470784505
 30
0.0
 10
2.844444486829969
 20
4.609722137451172
 30
0.0
 10
2.952777862548828
 20
4.638888782925076
 30
0.0
 10
3.063888973659939
 20
4.656944380866157
 30
0.0
 10
3.130555682712131
 20
4.668055534362793
 30
0.0
 10
3.198611153496636
 20
4.672222137451172
 30
0.0
 10
3.266666836208767
 20
4.669444402058919
 30
0.0
 10
3.375000211927626
 20
4.665277693006727
 30
0.0
 10
3.479166878594292
 20
4.638888888888888
 30
0.0
 10
3.579166836208767
 20
4.597222222222222
 30
0.0
 10
3.6000001695421
 20
4.588888910081651
 30
0.0
 10
3.619444529215495
 20
4.58055559794108
 30
0.0
 10
3.640277862548828
 20
4.570833312140571
 30
0.0
 10
3.712500254313151
 20
4.537499957614474
 30
0.0
 10
3.776388804117838
 20
4.491666687859429
 30
0.0
 10
3.827777862548828
 20
4.429166687859429
 30
0.0
 10
3.847222222222222
 20
4.406944486829969
 30
0.0
 10
3.86250008477105
 20
4.381944444444445
 30
0.0
 10
3.870833502875434
 20
4.35277779897054
 30
0.0
 10
3.883333418104383
 20
4.309722264607747
 30
0.0
 10
3.872222476535373
 20
4.273611174689399
 30
0.0
 10
3.840277777777778
 20
4.243055555555555
 30
0.0
 10
3.82499991522895
 20
4.22777779897054
 30
0.0
 10
3.805555555555555
 20
4.218055513170031
 30
0.0
 10
3.7875001695421
 20
4.20555559794108
 30
0.0
 10
3.769444783528646
 20
4.193055682712131
 30
0.0
 10
3.75
 20
4.180555555555555
 30
0.0
 10
3.731944613986545
 20
4.166666666666666
 30
0.0
 10
3.700000339084201
 20
4.140277862548828
 30
0.0
 10
3.676389058430989
 20
4.108333375718859
 30
0.0
 10
3.6625001695421
 20
4.068055470784505
 30
0.0
 10
3.656944698757595
 20
4.052777608235677
 30
0.0
 10
3.655555725097656
 20
4.036110983954535
 30
0.0
 10
3.65138922797309
 20
4.019444359673394
 30
0.0
 10
3.650000254313151
 20
4.013888888888888
 30
0.0
 10
3.650000254313151
 20
4.009722179836697
 30
0.0
 10
3.650000254313151
 20
4.004166497124566
 30
0.0
 10
3.645833757188585
 20
3.981944190131293
 30
0.0
 10
3.627777947319878
 20
3.972222010294596
 30
0.0
 10
3.606944613986545
 20
3.981944190131293
 30
0.0
 10
3.598611195882161
 20
3.986110899183485
 30
0.0
 10
3.591666751437717
 20
3.99166636996799
 30
0.0
 10
3.586111280653212
 20
3.998610814412435
 30
0.0
 10
3.572222391764323
 20
4.015277438693576
 30
0.0
 10
3.559722476535373
 20
4.031944062974718
 30
0.0
 10
3.548611323038737
 20
4.051388634575738
 30
0.0
 10
3.512500127156575
 20
4.113888634575738
 30
0.0
 10
3.49444474114312
 20
4.181944105360243
 30
0.0
 10
3.488889058430989
 20
4.254166391160753
 30
0.0
 10
3.48750008477105
 20
4.274999724494086
 30
0.0
 10
3.48750008477105
 20
4.294444190131293
 30
0.0
 10
3.486111323038737
 20
4.318055258856879
 30
0.0
 10
3.483333587646484
 20
4.313888549804688
 30
0.0
 10
3.480555852254231
 20
4.311110814412435
 30
0.0
 10
3.480555852254231
 20
4.308333079020182
 30
0.0
 10
3.470833672417534
 20
4.286110877990723
 30
0.0
 10
3.461111492580837
 20
4.265277544657389
 30
0.0
 10
3.452778074476454
 20
4.24305534362793
 30
0.0
 10
3.434722476535373
 20
4.199999703301324
 30
0.0
 10
3.406944698757595
 20
4.161110983954535
 30
0.0
 10
3.380555894639757
 20
4.123610814412435
 30
0.0
 10
3.35138914320204
 20
4.083333121405707
 30
0.0
 10
3.320833630032009
 20
4.04166645473904
 30
0.0
 10
3.295833587646484
 20
3.998610814412435
 30
0.0
 10
3.266666836208767
 20
3.945832994249132
 30
0.0
 10
3.241667005750868
 20
3.891666412353516
 30
0.0
 10
3.230555852254231
 20
3.831944147745768
 30
0.0
 10
3.22638914320204
 20
3.812499788072374
 30
0.0
 10
3.225000381469727
 20
3.79166645473904
 30
0.0
 10
3.223611407809787
 20
3.772221883138021
 30
0.0
 10
3.222222434149848
 20
3.758332994249132
 30
0.0
 10
3.218055937025282
 20
3.744444105360243
 30
0.0
 10
3.202778074476454
 20
3.740277396308051
 30
0.0
 10
3.187500211927626
 20
3.736110687255859
 30
0.0
 10
3.176389270358615
 20
3.743055131700304
 30
0.0
 10
3.168055852254231
 20
3.75416628519694
 30
0.0
 10
3.143055809868706
 20
3.786110772026909
 30
0.0
 10
3.125000211927626
 20
3.820832994249132
 30
0.0
 10
3.112500296698676
 20
3.858332951863606
 30
0.0
 10
3.095833672417534
 20
3.906944062974718
 30
0.0
 10
3.087500254313151
 20
3.955555174085829
 30
0.0
 10
3.080555809868706
 20
4.006944020589192
 30
0.0
 10
3.072222391764323
 20
4.069444020589192
 30
0.0
 10
3.068055894639757
 20
4.133332994249132
 30
0.0
 10
3.07083363003201
 20
4.197221755981445
 30
0.0
 10
3.072222603691948
 20
4.252777311537001
 30
0.0
 10
3.080555809868706
 20
4.308332867092556
 30
0.0
 10
3.102778116861979
 20
4.35972171359592
 30
0.0
 10
3.104167090521918
 20
4.362499448988173
 30
0.0
 10
3.104167090521918
 20
4.365277290344238
 30
0.0
 10
3.105555852254231
 20
4.36805502573649
 30
0.0
 10
3.101388931274414
 20
4.370833290947808
 30
0.0
 10
3.099999957614475
 20
4.370833290947808
 30
0.0
 10
3.099999957614475
 20
4.372222264607747
 30
0.0
  0
HATCH
  5
78
330
73
100
AcDbEntity
  8
Calque 1
 62
    19
420
  4269075
100
AcDbHatch
 10
0.0
 20
0.0
 30
0.0
210
0.0
220
0.0
230
1.0
  2
SOLID
 70
     1
 71
     0
 91
        1
 92
        1
 93
        1
 72
     4
 94
        3
 73
     0
 74
     1
 95
      200
 96
      196
 40
0.0
 40
0.0
 40
0.0
 40
0.0
 40
1.0
 40
1.0
 40
1.0
 40
2.0
 40
2.0
 40
2.0
 40
3.0
 40
3.0
 40
3.0
 40
4.0
 40
4.0
 40
4.0
 40
5.0
 40
5.0
 40
5.0
 40
6.0
 40
6.0
 40
6.0
 40
7.0
 40
7.0
 40
7.0
 40
8.0
 40
8.0
 40
8.0
 40
9.0
 40
9.0
 40
9.0
 40
10.0
 40
10.0
 40
10.0
 40
11.0
 40
11.0
 40
11.0
 40
12.0
 40
12.0
 40
12.0
 40
13.0
 40
13.0
 40
13.0
 40
14.0
 40
14.0
 40
14.0
 40
15.0
 40
15.0
 40
15.0
 40
16.0
 40
16.0
 40
16.0
 40
17.0
 40
17.0
 40
17.0
 40
18.0
 40
18.0
 40
18.0
 40
19.0
 40
19.0
 40
19.0
 40
20.0
 40
20.0
 40
20.0
 40
21.0
 40
21.0
 40
21.0
 40
22.0
 40
22.0
 40
22.0
 40
23.0
 40
23.0
 40
23.0
 40
24.0
 40
24.0
 40
24.0
 40
25.0
 40
25.0
 40
25.0
 40
26.0
 40
26.0
 40
26.0
 40
27.0
 40
27.0
 40
27.0
 40
28.0
 40
28.0
 40
28.0
 40
29.0
 40
29.0
 40
29.0
 40
30.0
 40
30.0
 40
30.0
 40
31.0
 40
31.0
 40
31.0
 40
32.0
 40
32.0
 40
32.0
 40
33.0
 40
33.0
 40
33.0
 40
34.0
 40
34.0
 40
34.0
 40
35.0
 40
35.0
 40
35.0
 40
36.0
 40
36.0
 40
36.0
 40
37.0
 40
37.0
 40
37.0
 40
38.0
 40
38.0
 40
38.0
 40
39.0
 40
39.0
 40
39.0
 40
40.0
 40
40.0
 40
40.0
 40
41.0
 40
41.0
 40
41.0
 40
42.0
 40
42.0
 40
42.0
 40
43.0
 40
43.0
 40
43.0
 40
44.0
 40
44.0
 40
44.0
 40
45.0
 40
45.0
 40
45.0
 40
46.0
 40
46.0
 40
46.0
 40
47.0
 40
47.0
 40
47.0
 40
48.0
 40
48.0
 40
48.0
 40
49.0
 40
49.0
 40
49.0
 40
50.0
 40
50.0
 40
50.0
 40
51.0
 40
51.0
 40
51.0
 40
52.0
 40
52.0
 40
52.0
 40
53.0
 40
53.0
 40
53.0
 40
54.0
 40
54.0
 40
54.0
 40
55.0
 40
55.0
 40
55.0
 40
56.0
 40
56.0
 40
56.0
 40
57.0
 40
57.0
 40
57.0
 40
58.0
 40
58.0
 40
58.0
 40
59.0
 40
59.0
 40
59.0
 40
60.0
 40
60.0
 40
60.0
 40
61.0
 40
61.0
 40
61.0
 40
62.0
 40
62.0
 40
62.0
 40
63.0
 40
63.0
 40
63.0
 40
64.0
 40
64.0
 40
64.0
 40
65.0
 40
65.0
 40
65.0
 40
65.0
 10
3.099999957614475
 20
4.372222264607747
 10
3.098610983954535
 20
4.372222264607747
 10
3.097222222222222
 20
4.372222264607747
 10
3.095833248562283
 20
4.370833396911621
 10
3.068055470784505
 20
4.35416677263048
 10
3.041666666666667
 20
4.336111174689399
 10
3.019444359673394
 20
4.312500105963813
 10
2.987499872843424
 20
4.279166751437717
 10
2.970833248562283
 20
4.238888952467176
 10
2.959722095065647
 20
4.195833418104383
 10
2.956944359673394
 20
4.186111238267687
 10
2.955555386013455
 20
4.176389058430989
 10
2.952777650621202
 20
4.166666666666666
 10
2.944444232516819
 20
4.13749991522895
 10
2.919444402058919
 20
4.129166709052192
 10
2.895833121405707
 20
4.148611068725586
 10
2.879166497124566
 20
4.162499957614474
 10
2.86805534362793
 20
4.180555555555555
 10
2.859721925523546
 20
4.201388888888888
 10
2.843055301242404
 20
4.244444423251681
 10
2.838888592190213
 20
4.288888931274414
 10
2.847222010294596
 20
4.334722201029459
 10
2.849999745686849
 20
4.351388825310601
 10
2.852777481079102
 20
4.368055555555555
 10
2.856944190131293
 20
4.386111047532824
 10
2.854166454739041
 20
4.384722179836697
 10
2.851388719346788
 20
4.384722179836697
 10
2.851388719346788
 20
4.383333312140571
 10
2.801388634575738
 20
4.341666645473904
 10
2.76111094156901
 20
4.29027779897054
 10
2.737499872843424
 20
4.229166666666666
 10
2.708333121405707
 20
4.156944486829969
 10
2.719444274902344
 20
4.091666751437717
 10
2.772222095065647
 20
4.034722222222222
 10
2.794444402058919
 20
4.011111153496636
 10
2.819444232516819
 20
3.991666581895616
 10
2.845833248562283
 20
3.972222222222222
 10
2.861111111111111
 20
3.959722306993272
 10
2.876388761732313
 20
3.948611153496636
 10
2.890277650621202
 20
3.934722264607747
 10
2.913888719346788
 20
3.912499957614475
 10
2.926388846503364
 20
3.883333418104383
 10
2.927777608235677
 20
3.849999957614475
 10
2.929166581895616
 20
3.820833206176758
 10
2.924999872843424
 20
3.79305542839898
 10
2.919444190131293
 20
3.765277650621202
 10
2.918055216471354
 20
3.756944232516819
 10
2.913888719346788
 20
3.749999788072374
 10
2.905555301242404
 20
3.745833290947808
 10
2.893055386013455
 20
3.740277820163303
 10
2.877777523464627
 20
3.747222264607747
 10
2.876388549804688
 20
3.761111153496636
 10
2.872221840752495
 20
3.80000008477105
 10
2.848610772026909
 20
3.827777862548828
 10
2.822221967909071
 20
3.851388931274414
 10
2.795833163791233
 20
3.875
 10
2.768055386013455
 20
3.895833333333333
 10
2.740277608235677
 20
3.918055640326606
 10
2.695833206176758
 20
3.954166836208767
 10
2.651388804117838
 20
3.990277820163303
 10
2.616666581895616
 20
4.036111195882161
 10
2.565277735392252
 20
4.101388931274414
 10
2.547222137451172
 20
4.176389058430989
 10
2.555555555555555
 20
4.256944550408257
 10
2.556944529215495
 20
4.265277862548828
 10
2.556944529215495
 20
4.272222306993273
 10
2.558333290947808
 20
4.283333460489908
 10
2.551388846503364
 20
4.280555725097656
 10
2.545833375718858
 20
4.280555725097656
 10
2.541666666666667
 20
4.277777883741591
 10
2.520833333333333
 20
4.268055703904894
 10
2.501388973659939
 20
4.258333418104383
 10
2.480555640326606
 20
4.250000105963813
 10
2.458333333333333
 20
4.238888952467176
 10
2.438888973659939
 20
4.223611195882161
 10
2.42500008477105
 20
4.202777862548828
 10
2.408333460489909
 20
4.179166793823242
 10
2.39444457160102
 20
4.154166751437717
 10
2.379166709052192
 20
4.130555682712131
 10
2.379166709052192
 20
4.130555682712131
 10
2.379166709052192
 20
4.129166709052192
 10
2.379166709052192
 20
4.129166709052192
 10
2.373611238267686
 20
4.118055555555555
 10
2.368055555555555
 20
4.115277820163302
 10
2.359722349378798
 20
4.116666793823242
 10
2.3500001695421
 20
4.118055767483181
 10
2.344444486829969
 20
4.123611238267687
 10
2.344444486829969
 20
4.136111153496636
 10
2.344444486829969
 20
4.150000042385525
 10
2.344444486829969
 20
4.162499957614474
 10
2.347222222222222
 20
4.176388846503364
 10
2.351388931274414
 20
4.204166624281141
 10
2.361111111111111
 20
4.230555534362793
 10
2.373611026340061
 20
4.255555470784505
 10
2.393055386013455
 20
4.295833269755045
 10
2.416666666666667
 20
4.33333322736952
 10
2.447222179836697
 20
4.363888846503364
 10
2.461111068725586
 20
4.377777735392252
 10
2.473610983954535
 20
4.391666624281141
 10
2.486111111111111
 20
4.405555513170031
 10
2.559722264607747
 20
4.477777693006727
 10
2.645833333333333
 20
4.529166645473904
 10
2.740277820163303
 20
4.568055470784505
 10
2.844444486829969
 20
4.609722137451172
 10
2.952777862548828
 20
4.638888782925076
 10
3.063888973659939
 20
4.656944380866157
 10
3.130555682712131
 20
4.668055534362793
 10
3.198611153496636
 20
4.672222137451172
 10
3.266666836208767
 20
4.669444402058919
 10
3.375000211927626
 20
4.665277693006727
 10
3.479166878594292
 20
4.638888888888888
 10
3.579166836208767
 20
4.597222222222222
 10
3.6000001695421
 20
4.588888910081651
 10
3.619444529215495
 20
4.58055559794108
 10
3.640277862548828
 20
4.570833312140571
 10
3.712500254313151
 20
4.537499957614474
 10
3.776388804117838
 20
4.491666687859429
 10
3.827777862548828
 20
4.429166687859429
 10
3.847222222222222
 20
4.406944486829969
 10
3.86250008477105
 20
4.381944444444445
 10
3.870833502875434
 20
4.35277779897054
 10
3.883333418104383
 20
4.309722264607747
 10
3.872222476535373
 20
4.273611174689399
 10
3.840277777777778
 20
4.243055555555555
 10
3.82499991522895
 20
4.22777779897054
 10
3.805555555555555
 20
4.218055513170031
 10
3.7875001695421
 20
4.20555559794108
 10
3.769444783528646
 20
4.193055682712131
 10
3.75
 20
4.180555555555555
 10
3.731944613986545
 20
4.166666666666666
 10
3.700000339084201
 20
4.140277862548828
 10
3.676389058430989
 20
4.108333375718859
 10
3.6625001695421
 20
4.068055470784505
 10
3.656944698757595
 20
4.052777608235677
 10
3.655555725097656
 20
4.036110983954535
 10
3.65138922797309
 20
4.019444359673394
 10
3.650000254313151
 20
4.013888888888888
 10
3.650000254313151
 20
4.009722179836697
 10
3.650000254313151
 20
4.004166497124566
 10
3.645833757188585
 20
3.981944190131293
 10
3.627777947319878
 20
3.972222010294596
 10
3.606944613986545
 20
3.981944190131293
 10
3.598611195882161
 20
3.986110899183485
 10
3.591666751437717
 20
3.99166636996799
 10
3.586111280653212
 20
3.998610814412435
 10
3.572222391764323
 20
4.015277438693576
 10
3.559722476535373
 20
4.031944062974718
 10
3.548611323038737
 20
4.051388634575738
 10
3.512500127156575
 20
4.113888634575738
 10
3.49444474114312
 20
4.181944105360243
 10
3.488889058430989
 20
4.254166391160753
 10
3.48750008477105
 20
4.274999724494086
 10
3.48750008477105
 20
4.294444190131293
 10
3.486111323038737
 20
4.318055258856879
 10
3.483333587646484
 20
4.313888549804688
 10
3.480555852254231
 20
4.311110814412435
 10
3.480555852254231
 20
4.308333079020182
 10
3.470833672417534
 20
4.286110877990723
 10
3.461111492580837
 20
4.265277544657389
 10
3.452778074476454
 20
4.24305534362793
 10
3.434722476535373
 20
4.199999703301324
 10
3.406944698757595
 20
4.161110983954535
 10
3.380555894639757
 20
4.123610814412435
 10
3.35138914320204
 20
4.083333121405707
 10
3.320833630032009
 20
4.04166645473904
 10
3.295833587646484
 20
3.998610814412435
 10
3.266666836208767
 20
3.945832994249132
 10
3.241667005750868
 20
3.891666412353516
 10
3.230555852254231
 20
3.831944147745768
 10
3.22638914320204
 20
3.812499788072374
 10
3.225000381469727
 20
3.79166645473904
 10
3.223611407809787
 20
3.772221883138021
 10
3.222222434149848
 20
3.758332994249132
 10
3.218055937025282
 20
3.744444105360243
 10
3.202778074476454
 20
3.740277396308051
 10
3.187500211927626
 20
3.736110687255859
 10
3.176389270358615
 20
3.743055131700304
 10
3.168055852254231
 20
3.75416628519694
 10
3.143055809868706
 20
3.786110772026909
 10
3.125000211927626
 20
3.820832994249132
 10
3.112500296698676
 20
3.858332951863606
 10
3.095833672417534
 20
3.906944062974718
 10
3.087500254313151
 20
3.955555174085829
 10
3.080555809868706
 20
4.006944020589192
 10
3.072222391764323
 20
4.069444020589192
 10
3.068055894639757
 20
4.133332994249132
 10
3.07083363003201
 20
4.197221755981445
 10
3.072222603691948
 20
4.252777311537001
 10
3.080555809868706
 20
4.308332867092556
 10
3.102778116861979
 20
4.35972171359592
 10
3.104167090521918
 20
4.362499448988173
 10
3.104167090521918
 20
4.365277290344238
 10
3.105555852254231
 20
4.36805502573649
 10
3.101388931274414
 20
4.370833290947808
 10
3.099999957614475
 20
4.370833290947808
 10
3.099999957614475
 20
4.372222264607747
 97
        0
 97
        0
 75
     2
 76
     1
 98
        0
  0
INSERT
  5
7A
330
73
100
AcDbEntity
  8
Calque 1
100
AcDbBlockReference
  2
block 9
 10
0.0
 20
0.0
 30
0.0
  0
INSERT
  5
8A
330
73
100
AcDbEntity
  8
Calque 1
100
AcDbBlockReference
  2
block 12
 10
0.0
 20
0.0
 30
0.0
  0
INSERT
  5
90
330
73
100
AcDbEntity
  8
Calque 1
100
AcDbBlockReference
  2
block 13
 10
0.0
 20
0.0
 30
0.0
  0
ENDBLK
  5
76
330
73
100
AcDbEntity
  8
0
100
AcDbBlockEnd
  0
BLOCK
  5
7B
330
79
100
AcDbEntity
  8
0
100
AcDbBlockBegin
  2
block 9
 70
     0
 10
0.0
 20
0.0
 30
0.0
  3
block 9
  1

  0
INSERT
  5
7E
330
79
100
AcDbEntity
  8
Calque 1
100
AcDbBlockReference
  2
block 10
 10
0.0
 20
0.0
 30
0.0
  0
INSERT
  5
84
330
79
100
AcDbEntity
  8
Calque 1
100
AcDbBlockReference
  2
block 11
 10
0.0
 20
0.0
 30
0.0
  0
ENDBLK
  5
7C
330
79
100
AcDbEntity
  8
0
100
AcDbBlockEnd
  0
BLOCK
  5
7F
330
7D
100
AcDbEntity
  8
0
100
AcDbBlockBegin
  2
block 10
 70
     0
 10
0.0
 20
0.0
 30
0.0
  3
block 10
  1

  0
SPLINE
  5
81
330
7D
100
AcDbEntity
  8
Calque 1
370
     0
100
AcDbSpline
210
0.0
220
0.0
230
1.0
 70
    11
 71
     3
 72
    26
 73
    22
 74
     0
 42
0.0000000001
 43
0.0000000001
 12
1.0
 22
0.0
 32
0.0
 13
1.0
 23
0.0
 33
0.0
 40
0.0
 40
0.0
 40
0.0
 40
0.0
 40
1.0
 40
1.0
 40
1.0
 40
2.0
 40
2.0
 40
2.0
 40
3.0
 40
3.0
 40
3.0
 40
4.0
 40
4.0
 40
4.0
 40
5.0
 40
5.0
 40
5.0
 40
6.0
 40
6.0
 40
6.0
 40
7.0
 40
7.0
 40
7.0
 40
7.0
 10
2.36250008477105
 20
3.472222222222222
 30
0.0
 10
2.381944444444444
 20
3.511111153496636
 30
0.0
 10
2.401389016045464
 20
3.551388846503364
 30
0.0
 10
2.441666709052192
 20
3.573611153496636
 30
0.0
 10
2.490277820163303
 20
3.599999957614475
 30
0.0
 10
2.545833375718858
 20
3.59305551317003
 30
0.0
 10
2.588889016045464
 20
3.558333290947808
 30
0.0
 10
2.625000211927626
 20
3.529166539510091
 30
0.0
 10
2.677777820163303
 20
3.580555597941081
 30
0.0
 10
2.641666836208767
 20
3.611111111111111
 30
0.0
 10
2.586111280653212
 20
3.656944486829969
 30
0.0
 10
2.518055809868706
 20
3.676388846503364
 30
0.0
 10
2.445833418104383
 20
3.65555551317003
 30
0.0
 10
2.372222264607747
 20
3.633333206176758
 30
0.0
 10
2.330555597941081
 20
3.57499991522895
 30
0.0
 10
2.298611111111111
 20
3.509722179836697
 30
0.0
 10
2.277777777777778
 20
3.466666751437717
 30
0.0
 10
2.340277777777778
 20
3.429166581895616
 30
0.0
 10
2.36250008477105
 20
3.472222222222222
 30
0.0
 10
2.36250008477105
 20
3.472222222222222
 30
0.0
 10
2.36250008477105
 20
3.472222222222222
 30
0.0
 10
2.36250008477105
 20
3.472222222222222
 30
0.0
  0
HATCH
  5
82
330
7D
100
AcDbEntity
  8
Calque 1
 62
   178
420
   131587
100
AcDbHatch
 10
0.0
 20
0.0
 30
0.0
210
0.0
220
0.0
230
1.0
  2
SOLID
 70
     1
 71
     0
 91
        1
 92
        1
 93
        1
 72
     4
 94
        3
 73
     0
 74
     1
 95
       26
 96
       22
 40
0.0
 40
0.0
 40
0.0
 40
0.0
 40
1.0
 40
1.0
 40
1.0
 40
2.0
 40
2.0
 40
2.0
 40
3.0
 40
3.0
 40
3.0
 40
4.0
 40
4.0
 40
4.0
 40
5.0
 40
5.0
 40
5.0
 40
6.0
 40
6.0
 40
6.0
 40
7.0
 40
7.0
 40
7.0
 40
7.0
 10
2.36250008477105
 20
3.472222222222222
 10
2.381944444444444
 20
3.511111153496636
 10
2.401389016045464
 20
3.551388846503364
 10
2.441666709052192
 20
3.573611153496636
 10
2.490277820163303
 20
3.599999957614475
 10
2.545833375718858
 20
3.59305551317003
 10
2.588889016045464
 20
3.558333290947808
 10
2.625000211927626
 20
3.529166539510091
 10
2.677777820163303
 20
3.580555597941081
 10
2.641666836208767
 20
3.611111111111111
 10
2.586111280653212
 20
3.656944486829969
 10
2.518055809868706
 20
3.676388846503364
 10
2.445833418104383
 20
3.65555551317003
 10
2.372222264607747
 20
3.633333206176758
 10
2.330555597941081
 20
3.57499991522895
 10
2.298611111111111
 20
3.509722179836697
 10
2.277777777777778
 20
3.466666751437717
 10
2.340277777777778
 20
3.429166581895616
 10
2.36250008477105
 20
3.472222222222222
 10
2.36250008477105
 20
3.472222222222222
 10
2.36250008477105
 20
3.472222222222222
 10
2.36250008477105
 20
3.472222222222222
 97
        0
 97
        0
 75
     2
 76
     1
 98
        0
  0
ENDBLK
  5
80
330
7D
100
AcDbEntity
  8
0
100
AcDbBlockEnd
  0
BLOCK
  5
85
330
83
100
AcDbEntity
  8
0
100
AcDbBlockBegin
  2
block 11
 70
     0
 10
0.0
 20
0.0
 30
0.0
  3
block 11
  1

  0
SPLINE
  5
87
330
83
100
AcDbEntity
  8
Calque 1
370
     0
100
AcDbSpline
210
0.0
220
0.0
230
1.0
 70
    11
 71
     3
 72
    26
 73
    22
 74
     0
 42
0.0000000001
 43
0.0000000001
 12
1.0
 22
0.0
 32
0.0
 13
1.0
 23
0.0
 33
0.0
 40
0.0
 40
0.0
 40
0.0
 40
0.0
 40
1.0
 40
1.0
 40
1.0
 40
2.0
 40
2.0
 40
2.0
 40
3.0
 40
3.0
 40
3.0
 40
4.0
 40
4.0
 40
4.0
 40
5.0
 40
5.0
 40
5.0
 40
6.0
 40
6.0
 40
6.0
 40
7.0
 40
7.0
 40
7.0
 40
7.0
 10
3.877777947319878
 20
3.472222222222222
 30
0.0
 10
3.858333587646484
 20
3.511111153496636
 30
0.0
 10
3.83888922797309
 20
3.551388846503364
 30
0.0
 10
3.798611111111111
 20
3.573611153496636
 30
0.0
 10
3.75
 20
3.599999957614475
 30
0.0
 10
3.694444444444444
 20
3.59305551317003
 30
0.0
 10
3.651388804117838
 20
3.558333290947808
 30
0.0
 10
3.615277608235677
 20
3.529166539510091
 30
0.0
 10
3.5625
 20
3.580555597941081
 30
0.0
 10
3.598611195882161
 20
3.611111111111111
 30
0.0
 10
3.654166751437717
 20
3.656944486829969
 30
0.0
 10
3.722222222222222
 20
3.676388846503364
 30
0.0
 10
3.794444613986545
 20
3.65555551317003
 30
0.0
 10
3.868055555555555
 20
3.633333206176758
 30
0.0
 10
3.909722222222222
 20
3.57499991522895
 30
0.0
 10
3.941666920979817
 20
3.509722179836697
 30
0.0
 10
3.962499830457899
 20
3.466666751437717
 30
0.0
 10
3.898611280653212
 20
3.429166581895616
 30
0.0
 10
3.877777947319878
 20
3.472222222222222
 30
0.0
 10
3.877777947319878
 20
3.472222222222222
 30
0.0
 10
3.877777947319878
 20
3.472222222222222
 30
0.0
 10
3.877777947319878
 20
3.472222222222222
 30
0.0
  0
HATCH
  5
88
330
83
100
AcDbEntity
  8
Calque 1
 62
   178
420
   131587
100
AcDbHatch
 10
0.0
 20
0.0
 30
0.0
210
0.0
220
0.0
230
1.0
  2
SOLID
 70
     1
 71
     0
 91
        1
 92
        1
 93
        1
 72
     4
 94
        3
 73
     0
 74
     1
 95
       26
 96
       22
 40
0.0
 40
0.0
 40
0.0
 40
0.0
 40
1.0
 40
1.0
 40
1.0
 40
2.0
 40
2.0
 40
2.0
 40
3.0
 40
3.0
 40
3.0
 40
4.0
 40
4.0
 40
4.0
 40
5.0
 40
5.0
 40
5.0
 40
6.0
 40
6.0
 40
6.0
 40
7.0
 40
7.0
 40
7.0
 40
7.0
 10
3.877777947319878
 20
3.472222222222222
 10
3.858333587646484
 20
3.511111153496636
 10
3.83888922797309
 20
3.551388846503364
 10
3.798611111111111
 20
3.573611153496636
 10
3.75
 20
3.599999957614475
 10
3.694444444444444
 20
3.59305551317003
 10
3.651388804117838
 20
3.558333290947808
 10
3.615277608235677
 20
3.529166539510091
 10
3.5625
 20
3.580555597941081
 10
3.598611195882161
 20
3.611111111111111
 10
3.654166751437717
 20
3.656944486829969
 10
3.722222222222222
 20
3.676388846503364
 10
3.794444613986545
 20
3.65555551317003
 10
3.868055555555555
 20
3.633333206176758
 10
3.909722222222222
 20
3.57499991522895
 10
3.941666920979817
 20
3.509722179836697
 10
3.962499830457899
 20
3.466666751437717
 10
3.898611280653212
 20
3.429166581895616
 10
3.877777947319878
 20
3.472222222222222
 10
3.877777947319878
 20
3.472222222222222
 10
3.877777947319878
 20
3.472222222222222
 10
3.877777947319878
 20
3.472222222222222
 97
        0
 97
        0
 75
     2
 76
     1
 98
        0
  0
ENDBLK
  5
86
330
83
100
AcDbEntity
  8
0
100
AcDbBlockEnd
  0
BLOCK
  5
8B
330
89
100
AcDbEntity
  8
0
100
AcDbBlockBegin
  2
block 12
 70
     0
 10
0.0
 20
0.0
 30
0.0
  3
block 12
  1

  0
SPLINE
  5
8D
330
89
100
AcDbEntity
  8
Calque 1
370
     0
100
AcDbSpline
210
0.0
220
0.0
230
1.0
 70
    11
 71
     3
 72
    26
 73
    22
 74
     0
 42
0.0000000001
 43
0.0000000001
 12
1.0
 22
0.0
 32
0.0
 13
1.0
 23
0.0
 33
0.0
 40
0.0
 40
0.0
 40
0.0
 40
0.0
 40
1.0
 40
1.0
 40
1.0
 40
2.0
 40
2.0
 40
2.0
 40
3.0
 40
3.0
 40
3.0
 40
4.0
 40
4.0
 40
4.0
 40
5.0
 40
5.0
 40
5.0
 40
6.0
 40
6.0
 40
6.0
 40
7.0
 40
7.0
 40
7.0
 40
7.0
 10
3.57361094156901
 20
1.952777862548828
 30
0.0
 10
3.572221967909071
 20
1.92638905843099
 30
0.0
 10
3.572221967909071
 20
1.897222306993273
 30
0.0
 10
3.569444444444444
 20
1.868055555555555
 30
0.0
 10
3.568055470784505
 20
1.858333163791233
 30
0.0
 10
3.568055470784505
 20
1.848611195882161
 30
0.0
 10
3.566666497124566
 20
1.837499830457899
 30
0.0
 10
3.455555386013454
 20
1.737499660915798
 30
0.0
 10
3.302777608235677
 20
1.690277523464627
 30
0.0
 10
3.143055386013454
 20
1.670833163791233
 30
0.0
 10
2.944444232516819
 20
1.647221883138021
 30
0.0
 10
2.769444359673394
 20
1.736111111111111
 30
0.0
 10
2.627777523464627
 20
1.865277608235677
 30
0.0
 10
2.620833079020182
 20
1.904166327582465
 30
0.0
 10
2.61666636996799
 20
1.943055470784505
 30
0.0
 10
2.613888634575738
 20
1.981944190131293
 30
0.0
 10
2.740277608235677
 20
1.84861077202691
 30
0.0
 10
2.904166327582465
 20
1.731944190131293
 30
0.0
 10
3.095833036634657
 20
1.741666581895616
 30
0.0
 10
3.273611068725586
 20
1.748611026340061
 30
0.0
 10
3.466666751437717
 20
1.809722052680121
 30
0.0
 10
3.57361094156901
 20
1.952777862548828
 30
0.0
  0
HATCH
  5
8E
330
89
100
AcDbEntity
  8
Calque 1
 62
   252
420
 10061429
100
AcDbHatch
 10
0.0
 20
0.0
 30
0.0
210
0.0
220
0.0
230
1.0
  2
SOLID
 70
     1
 71
     0
 91
        1
 92
        1
 93
        1
 72
     4
 94
        3
 73
     0
 74
     1
 95
       26
 96
       22
 40
0.0
 40
0.0
 40
0.0
 40
0.0
 40
1.0
 40
1.0
 40
1.0
 40
2.0
 40
2.0
 40
2.0
 40
3.0
 40
3.0
 40
3.0
 40
4.0
 40
4.0
 40
4.0
 40
5.0
 40
5.0
 40
5.0
 40
6.0
 40
6.0
 40
6.0
 40
7.0
 40
7.0
 40
7.0
 40
7.0
 10
3.57361094156901
 20
1.952777862548828
 10
3.572221967909071
 20
1.92638905843099
 10
3.572221967909071
 20
1.897222306993273
 10
3.569444444444444
 20
1.868055555555555
 10
3.568055470784505
 20
1.858333163791233
 10
3.568055470784505
 20
1.848611195882161
 10
3.566666497124566
 20
1.837499830457899
 10
3.455555386013454
 20
1.737499660915798
 10
3.302777608235677
 20
1.690277523464627
 10
3.143055386013454
 20
1.670833163791233
 10
2.944444232516819
 20
1.647221883138021
 10
2.769444359673394
 20
1.736111111111111
 10
2.627777523464627
 20
1.865277608235677
 10
2.620833079020182
 20
1.904166327582465
 10
2.61666636996799
 20
1.943055470784505
 10
2.613888634575738
 20
1.981944190131293
 10
2.740277608235677
 20
1.84861077202691
 10
2.904166327582465
 20
1.731944190131293
 10
3.095833036634657
 20
1.741666581895616
 10
3.273611068725586
 20
1.748611026340061
 10
3.466666751437717
 20
1.809722052680121
 10
3.57361094156901
 20
1.952777862548828
 97
        0
 97
        0
 75
     2
 76
     1
 98
        0
  0
ENDBLK
  5
8C
330
89
100
AcDbEntity
  8
0
100
AcDbBlockEnd
  0
BLOCK
  5
91
330
8F
100
AcDbEntity
  8
0
100
AcDbBlockBegin
  2
block 13
 70
     0
 10
0.0
 20
0.0
 30
0.0
  3
block 13
  1

  0
SPLINE
  5
93
330
8F
100
AcDbEntity
  8
Calque 1
370
     0
100
AcDbSpline
210
0.0
220
0.0
230
1.0
 70
    11
 71
     3
 72
    17
 73
    13
 74
     0
 42
0.0000000001
 43
0.0000000001
 12
1.0
 22
0.0
 32
0.0
 13
1.0
 23
0.0
 33
0.0
 40
0.0
 40
0.0
 40
0.0
 40
0.0
 40
1.0
 40
1.0
 40
1.0
 40
2.0
 40
2.0
 40
2.0
 40
3.0
 40
3.0
 40
3.0
 40
4.0
 40
4.0
 40
4.0
 40
4.0
 10
2.847222222222222
 20
2.344444274902344
 30
0.0
 10
2.776388804117838
 20
2.340277777777778
 30
0.0
 10
2.702777862548828
 20
2.202777438693576
 30
0.0
 10
2.712500042385525
 20
2.088888804117838
 30
0.0
 10
2.720833460489909
 20
1.976388719346788
 30
0.0
 10
2.865277820163303
 20
1.986111111111111
 30
0.0
 10
2.86250008477105
 20
2.088888804117838
 30
0.0
 10
2.859722349378798
 20
2.191666497124566
 30
0.0
 10
2.876388973659939
 20
2.308333079020182
 30
0.0
 10
2.887500127156575
 20
2.322221967909071
 30
0.0
 10
2.897222306993272
 20
2.338888804117838
 30
0.0
 10
2.886111153496636
 20
2.347222222222222
 30
0.0
 10
2.847222222222222
 20
2.344444274902344
 30
0.0
  0
HATCH
  5
94
330
8F
100
AcDbEntity
  8
Calque 1
 62
    59
420
  5523522
100
AcDbHatch
 10
0.0
 20
0.0
 30
0.0
210
0.0
220
0.0
230
1.0
  2
SOLID
 70
     1
 71
     0
 91
        1
 92
        1
 93
        1
 72
     4
 94
        3
 73
     0
 74
     1
 95
       17
 96
       13
 40
0.0
 40
0.0
 40
0.0
 40
0.0
 40
1.0
 40
1.0
 40
1.0
 40
2.0
 40
2.0
 40
2.0
 40
3.0
 40
3.0
 40
3.0
 40
4.0
 40
4.0
 40
4.0
 40
4.0
 10
2.847222222222222
 20
2.344444274902344
 10
2.776388804117838
 20
2.340277777777778
 10
2.702777862548828
 20
2.202777438693576
 10
2.712500042385525
 20
2.088888804117838
 10
2.720833460489909
 20
1.976388719346788
 10
2.865277820163303
 20
1.986111111111111
 10
2.86250008477105
 20
2.088888804117838
 10
2.859722349378798
 20
2.191666497124566
 10
2.876388973659939
 20
2.308333079020182
 10
2.887500127156575
 20
2.322221967909071
 10
2.897222306993272
 20
2.338888804117838
 10
2.886111153496636
 20
2.347222222222222
 10
2.847222222222222
 20
2.344444274902344
 97
        0
 97
        0
 75
     2
 76
     1
 98
        0
  0
SPLINE
  5
95
330
8F
100
AcDbEntity
  8
Calque 1
370
     0
100
AcDbSpline
210
0.0
220
0.0
230
1.0
 70
    11
 71
     3
 72
    17
 73
    13
 74
     0
 42
0.0000000001
 43
0.0000000001
 12
1.0
 22
0.0
 32
0.0
 13
1.0
 23
0.0
 33
0.0
 40
0.0
 40
0.0
 40
0.0
 40
0.0
 40
1.0
 40
1.0
 40
1.0
 40
2.0
 40
2.0
 40
2.0
 40
3.0
 40
3.0
 40
3.0
 40
4.0
 40
4.0
 40
4.0
 40
4.0
 10
3.338888804117838
 20
2.344444274902344
 30
0.0
 10
3.409722222222222
 20
2.340277777777778
 30
0.0
 10
3.483333163791233
 20
2.202777438693576
 30
0.0
 10
3.473610983954535
 20
2.088888804117838
 30
0.0
 10
3.465277565850152
 20
1.976388719346788
 30
0.0
 10
3.320833206176758
 20
1.986111111111111
 30
0.0
 10
3.32361094156901
 20
2.088888804117838
 30
0.0
 10
3.326388676961263
 20
2.191666497124566
 30
0.0
 10
3.309722052680121
 20
2.308333079020182
 30
0.0
 10
3.298610899183485
 20
2.322221967909071
 30
0.0
 10
3.288888931274414
 20
2.338888804117838
 30
0.0
 10
3.30000008477105
 20
2.347222222222222
 30
0.0
 10
3.338888804117838
 20
2.344444274902344
 30
0.0
  0
HATCH
  5
96
330
8F
100
AcDbEntity
  8
Calque 1
 62
    59
420
  5523522
100
AcDbHatch
 10
0.0
 20
0.0
 30
0.0
210
0.0
220
0.0
230
1.0
  2
SOLID
 70
     1
 71
     0
 91
        1
 92
        1
 93
        1
 72
     4
 94
        3
 73
     0
 74
     1
 95
       17
 96
       13
 40
0.0
 40
0.0
 40
0.0
 40
0.0
 40
1.0
 40
1.0
 40
1.0
 40
2.0
 40
2.0
 40
2.0
 40
3.0
 40
3.0
 40
3.0
 40
4.0
 40
4.0
 40
4.0
 40
4.0
 10
3.338888804117838
 20
2.344444274902344
 10
3.409722222222222
 20
2.340277777777778
 10
3.483333163791233
 20
2.202777438693576
 10
3.473610983954535
 20
2.088888804117838
 10
3.465277565850152
 20
1.976388719346788
 10
3.320833206176758
 20
1.986111111111111
 10
3.32361094156901
 20
2.088888804117838
 10
3.326388676961263
 20
2.191666497124566
 10
3.309722052680121
 20
2.308333079020182
 10
3.298610899183485
 20
2.322221967909071
 10
3.288888931274414
 20
2.338888804117838
 10
3.30000008477105
 20
2.347222222222222
 10
3.338888804117838
 20
2.344444274902344
 97
        0
 97
        0
 75
     2
 76
     1
 98
        0
  0
ENDBLK
  5
92
330
8F
100
AcDbEntity
  8
0
100
AcDbBlockEnd
  0
ENDSEC
  0
SECTION
  2
ENTITIES
  0
INSERT
  5
42
330
1F
100
AcDbEntity
  8
Calque 1
100
AcDbBlockReference
  2
block 2
 10
0.0
 20
0.0
 30
0.0
  0
ENDSEC
  0
SECTION
  2
OBJECTS
  0
DICTIONARY
  5
C
330
0
100
AcDbDictionary
281
     1
  3
ACAD_GROUP
350
D
  3
ACAD_LAYOUT
350
1A
  3
ACAD_MATERIAL
350
3B
  3
ACAD_MLEADERSTYLE
350
98
  3
ACAD_MLINESTYLE
350
17
  3
ACAD_PLOTSETTINGS
350
19
  3
ACAD_PLOTSTYLENAME
350
E
  3
ACAD_TABLESTYLE
350
97
  3
ACAD_VISUALSTYLE
350
2A
  0
SUN
  5
3F
330
29
100
AcDbSun
 90
        1
290
     0
 63
     7
421
 16777215
 40
1.0
291
     1
 91
  2455826
 92
 54000000
292
     0
 70
     2
 71
   256
280
     1
  0
DICTIONARY
  5
D
102
{ACAD_REACTORS
330
C
102
}
330
C
100
AcDbDictionary
281
     1
  0
DICTIONARY
  5
1A
102
{ACAD_REACTORS
330
C
102
}
330
C
100
AcDbDictionary
281
     1
  3
Layout1
350
1E
  3
Layout2
350
26
  3
Model
350
22
  0
DICTIONARY
  5
3B
102
{ACAD_REACTORS
330
C
102
}
330
C
100
AcDbDictionary
281
     1
  3
ByBlock
350
3D
  3
ByLayer
350
3C
  3
Global
350
3E
  0
DICTIONARY
  5
98
102
{ACAD_REACTORS
330
C
102
}
330
C
100
AcDbDictionary
281
     1
  0
DICTIONARY
  5
17
102
{ACAD_REACTORS
330
C
102
}
330
C
100
AcDbDictionary
281
     1
  3
Standard
350
18
  0
DICTIONARY
  5
19
102
{ACAD_REACTORS
330
C
102
}
330
C
100
AcDbDictionary
281
     1
  0
ACDBDICTIONARYWDFLT
  5
E
102
{ACAD_REACTORS
330
C
102
}
330
C
100
AcDbDictionary
281
     1
  3
Normal
350
F
100
AcDbDictionaryWithDefault
340
F
  0
DICTIONARY
  5
97
102
{ACAD_REACTORS
330
C
102
}
330
C
100
AcDbDictionary
281
     1
  0
DICTIONARY
  5
2A
102
{ACAD_REACTORS
330
C
102
}
330
C
100
AcDbDictionary
281
     1
  3
2dWireframe
350
2F
  3
3D Hidden
350
31
  3
3dWireframe
350
30
  3
Basic
350
32
  3
Brighten
350
36
  3
ColorChange
350
3A
  3
Conceptual
350
34
  3
Dim
350
35
  3
Facepattern
350
39
  3
Flat
350
2B
  3
FlatWithEdges
350
2C
  3
Gouraud
350
2D
  3
GouraudWithEdges
350
2E
  3
Linepattern
350
38
  3
Realistic
350
33
  3
Thicken
350
37
  0
LAYOUT
  5
1E
102
{ACAD_REACTORS
330
1A
102
}
330
1A
100
AcDbPlotSettings
  1

  2
none_device
  4

  6

 40
0.0
 41
0.0
 42
0.0
 43
0.0
 44
0.0
 45
0.0
 46
0.0
 47
0.0
 48
0.0
 49
0.0
140
0.0
141
0.0
142
1.0
143
1.0
 70
   688
 72
     0
 73
     0
 74
     5
  7

 75
    16
 76
     0
 77
     2
 78
   300
147
1.0
148
0.0
149
0.0
100
AcDbLayout
  1
Layout1
 70
     1
 71
     1
 10
0.0
 20
0.0
 11
12.0
 21
9.0
 12
0.0
 22
0.0
 32
0.0
 14
1.000000000000000E+20
 24
1.000000000000000E+20
 34
1.000000000000000E+20
 15
-1.000000000000000E+20
 25
-1.000000000000000E+20
 35
-1.000000000000000E+20
146
0.0
 13
0.0
 23
0.0
 33
0.0
 16
1.0
 26
0.0
 36
0.0
 17
0.0
 27
1.0
 37
0.0
 76
     0
330
1B
  0
LAYOUT
  5
26
102
{ACAD_REACTORS
330
1A
102
}
330
1A
100
AcDbPlotSettings
  1

  2
none_device
  4

  6

 40
0.0
 41
0.0
 42
0.0
 43
0.0
 44
0.0
 45
0.0
 46
0.0
 47
0.0
 48
0.0
 49
0.0
140
0.0
141
0.0
142
1.0
143
1.0
 70
   688
 72
     0
 73
     0
 74
     5
  7

 75
    16
 76
     0
 77
     2
 78
   300
147
1.0
148
0.0
149
0.0
100
AcDbLayout
  1
Layout2
 70
     1
 71
     2
 10
0.0
 20
0.0
 11
0.0
 21
0.0
 12
0.0
 22
0.0
 32
0.0
 14
0.0
 24
0.0
 34
0.0
 15
0.0
 25
0.0
 35
0.0
146
0.0
 13
0.0
 23
0.0
 33
0.0
 16
1.0
 26
0.0
 36
0.0
 17
0.0
 27
1.0
 37
0.0
 76
     0
330
23
  0
LAYOUT
  5
22
102
{ACAD_REACTORS
330
1A
102
}
330
1A
100
AcDbPlotSettings
  1

  2
none_device
  4

  6

 40
0.0
 41
0.0
 42
0.0
 43
0.0
 44
0.0
 45
0.0
 46
0.0
 47
0.0
 48
0.0
 49
0.0
140
0.0
141
0.0
142
1.0
143
1.0
 70
  1712
 72
     0
 73
     0
 74
     0
  7

 75
     0
 76
     0
 77
     2
 78
   300
147
1.0
148
0.0
149
0.0
100
AcDbLayout
  1
Model
 70
     1
 71
     0
 10
0.0
 20
0.0
 11
12.0
 21
9.0
 12
0.0
 22
0.0
 32
0.0
 14
1.000000000000000E+20
 24
1.000000000000000E+20
 34
1.000000000000000E+20
 15
-1.000000000000000E+20
 25
-1.000000000000000E+20
 35
-1.000000000000000E+20
146
0.0
 13
0.0
 23
0.0
 33
0.0
 16
1.0
 26
0.0
 36
0.0
 17
0.0
 27
1.0
 37
0.0
 76
     0
330
1F
331
29
  0
MATERIAL
  5
3D
102
{ACAD_REACTORS
330
3B
102
}
330
3B
100
AcDbMaterial
  1
ByBlock
 72
     1
 94
      127
  0
MATERIAL
  5
3C
102
{ACAD_REACTORS
330
3B
102
}
330
3B
100
AcDbMaterial
  1
ByLayer
 72
     1
 94
      127
  0
MATERIAL
  5
3E
102
{ACAD_REACTORS
330
3B
102
}
330
3B
100
AcDbMaterial
  1
Global
 72
     1
 94
      127
  0
MLINESTYLE
  5
18
102
{ACAD_REACTORS
330
17
102
}
330
17
100
AcDbMlineStyle
  2
Standard
 70
     0
  3

 62
   256
 51
90.0
 52
90.0
 71
     2
 49
0.5
 62
   256
  6
BYLAYER
 49
-0.5
 62
   256
  6
BYLAYER
  0
ACDBPLACEHOLDER
  5
F
102
{ACAD_REACTORS
330
E
102
}
330
E
  0
VISUALSTYLE
  5
2F
102
{ACAD_REACTORS
330
2A
102
}
330
2A
100
AcDbVisualStyle
  2
2dWireframe
 70
     4
177
     2
291
     0
 71
     0
176
     1
 72
     2
176
     1
 73
     0
176
     1
 90
        0
176
     1
 40
-0.6
176
     1
 41
-30.0
176
     1
 62
     5
 63
     7
421
 16777215
176
     1
 74
     1
176
     1
 91
        4
176
     1
 64
     7
176
     1
 65
   257
176
     1
 75
     1
176
     1
175
     1
176
     1
 42
1.0
176
     1
 92
        0
176
     1
 66
   257
176
     1
 43
1.0
176
     1
 76
     1
176
     1
 77
     6
176
     1
 78
     2
176
     1
 67
     7
176
     1
 79
     5
176
     1
170
     0
176
     1
171
     0
176
     1
290
     0
176
     1
 93
        1
176
     1
 44
0.0
176
     1
173
     0
176
     1
  0
VISUALSTYLE
  5
31
102
{ACAD_REACTORS
330
2A
102
}
330
2A
100
AcDbVisualStyle
  2
3D Hidden
 70
     6
177
     2
291
     0
 71
     1
176
     1
 72
     2
176
     1
 73
     2
176
     1
 90
        0
176
     1
 40
-0.6
176
     1
 41
-30.0
176
     1
 62
     5
 63
     7
421
 16777215
176
     1
 74
     2
176
     1
 91
        2
176
     1
 64
     7
176
     1
 65
   257
176
     1
 75
     2
176
     1
175
     1
176
     1
 42
40.0
176
     1
 92
        0
176
     1
 66
   257
176
     1
 43
1.0
176
     1
 76
     1
176
     1
 77
     6
176
     1
 78
     2
176
     1
 67
     7
176
     1
 79
     3
176
     1
170
     0
176
     1
171
     0
176
     1
290
     0
176
     1
 93
        1
176
     1
 44
0.0
176
     1
173
     0
176
     1
  0
VISUALSTYLE
  5
30
102
{ACAD_REACTORS
330
2A
102
}
330
2A
100
AcDbVisualStyle
  2
3dWireframe
 70
     5
177
     2
291
     0
 71
     0
176
     1
 72
     2
176
     1
 73
     0
176
     1
 90
        0
176
     1
 40
-0.6
176
     1
 41
-30.0
176
     1
 62
     5
 63
     7
421
 16777215
176
     1
 74
     1
176
     1
 91
        4
176
     1
 64
     7
176
     1
 65
   257
176
     1
 75
     1
176
     1
175
     1
176
     1
 42
1.0
176
     1
 92
        0
176
     1
 66
   257
176
     1
 43
1.0
176
     1
 76
     1
176
     1
 77
     6
176
     1
 78
     2
176
     1
 67
     7
176
     1
 79
     5
176
     1
170
     0
176
     1
171
     0
176
     1
290
     0
176
     1
 93
        1
176
     1
 44
0.0
176
     1
173
     0
176
     1
  0
VISUALSTYLE
  5
32
102
{ACAD_REACTORS
330
2A
102
}
330
2A
100
AcDbVisualStyle
  2
Basic
 70
     7
177
     2
291
     1
 71
     1
176
     1
 72
     0
176
     1
 73
     1
176
     1
 90
        0
176
     1
 40
-0.6
176
     1
 41
-30.0
176
     1
 62
     5
 63
     7
421
 16777215
176
     1
 74
     0
176
     1
 91
        4
176
     1
 64
     7
176
     1
 65
   257
176
     1
 75
     1
176
     1
175
     1
176
     1
 42
1.0
176
     1
 92
        8
176
     1
 66
     7
176
     1
 43
1.0
176
     1
 76
     1
176
     1
 77
     6
176
     1
 78
     2
176
     1
 67
     7
176
     1
 79
     5
176
     1
170
     0
176
     1
171
     0
176
     1
290
     0
176
     1
 93
        1
176
     1
 44
0.0
176
     1
173
     0
176
     1
  0
VISUALSTYLE
  5
36
102
{ACAD_REACTORS
330
2A
102
}
330
2A
100
AcDbVisualStyle
  2
Brighten
 70
    12
177
     2
291
     1
 71
     2
176
     1
 72
     2
176
     1
 73
     0
176
     1
 90
        0
176
     1
 40
-0.6
176
     1
 41
-30.0
176
     1
 62
     5
 63
     7
421
 16777215
176
     1
 74
     1
176
     1
 91
        4
176
     1
 64
     7
176
     1
 65
   257
176
     1
 75
     1
176
     1
175
     1
176
     1
 42
1.0
176
     1
 92
        8
176
     1
 66
     7
176
     1
 43
1.0
176
     1
 76
     1
176
     1
 77
     6
176
     1
 78
     2
176
     1
 67
     7
176
     1
 79
     5
176
     1
170
     0
176
     1
171
     0
176
     1
290
     0
176
     1
 93
        1
176
     1
 44
50.0
176
     1
173
     0
176
     1
  0
VISUALSTYLE
  5
3A
102
{ACAD_REACTORS
330
2A
102
}
330
2A
100
AcDbVisualStyle
  2
ColorChange
 70
    16
177
     2
291
     1
 71
     2
176
     1
 72
     2
176
     1
 73
     3
176
     1
 90
        0
176
     1
 40
-0.6
176
     1
 41
-30.0
176
     1
 62
     5
 63
     8
421
  8421504
176
     1
 74
     1
176
     1
 91
        4
176
     1
 64
     7
176
     1
 65
   257
176
     1
 75
     1
176
     1
175
     1
176
     1
 42
1.0
176
     1
 92
        8
176
     1
 66
     8
424
  8421504
176
     1
 43
1.0
176
     1
 76
     1
176
     1
 77
     6
176
     1
 78
     2
176
     1
 67
     7
176
     1
 79
     5
176
     1
170
     0
176
     1
171
     0
176
     1
290
     0
176
     1
 93
        1
176
     1
 44
0.0
176
     1
173
     0
176
     1
  0
VISUALSTYLE
  5
34
102
{ACAD_REACTORS
330
2A
102
}
330
2A
100
AcDbVisualStyle
  2
Conceptual
 70
     9
177
     2
291
     0
 71
     3
176
     1
 72
     2
176
     1
 73
     0
176
     1
 90
        0
176
     1
 40
-0.6
176
     1
 41
-30.0
176
     1
 62
     5
 63
     7
421
 16777215
176
     1
 74
     2
176
     1
 91
        2
176
     1
 64
     7
176
     1
 65
   257
176
     1
 75
     1
176
     1
175
     1
176
     1
 42
40.0
176
     1
 92
        8
176
     1
 66
     7
176
     1
 43
1.0
176
     1
 76
     1
176
     1
 77
     6
176
     1
 78
     2
176
     1
 67
     7
176
     1
 79
     3
176
     1
170
     0
176
     1
171
     0
176
     1
290
     0
176
     1
 93
        1
176
     1
 44
0.0
176
     1
173
     0
176
     1
  0
VISUALSTYLE
  5
35
102
{ACAD_REACTORS
330
2A
102
}
330
2A
100
AcDbVisualStyle
  2
Dim
 70
    11
177
     2
291
     1
 71
     2
176
     1
 72
     2
176
     1
 73
     0
176
     1
 90
        0
176
     1
 40
-0.6
176
     1
 41
-30.0
176
     1
 62
     5
 63
     7
421
 16777215
176
     1
 74
     1
176
     1
 91
        4
176
     1
 64
     7
176
     1
 65
   257
176
     1
 75
     1
176
     1
175
     1
176
     1
 42
1.0
176
     1
 92
        8
176
     1
 66
     7
176
     1
 43
1.0
176
     1
 76
     1
176
     1
 77
     6
176
     1
 78
     2
176
     1
 67
     7
176
     1
 79
     5
176
     1
170
     0
176
     1
171
     0
176
     1
290
     0
176
     1
 93
        1
176
     1
 44
-50.0
176
     1
173
     0
176
     1
  0
VISUALSTYLE
  5
39
102
{ACAD_REACTORS
330
2A
102
}
330
2A
100
AcDbVisualStyle
  2
Facepattern
 70
    15
177
     2
291
     1
 71
     2
176
     1
 72
     2
176
     1
 73
     0
176
     1
 90
        0
176
     1
 40
-0.6
176
     1
 41
-30.0
176
     1
 62
     5
 63
     7
421
 16777215
176
     1
 74
     1
176
     1
 91
        4
176
     1
 64
     7
176
     1
 65
   257
176
     1
 75
     1
176
     1
175
     1
176
     1
 42
1.0
176
     1
 92
        8
176
     1
 66
     7
176
     1
 43
1.0
176
     1
 76
     1
176
     1
 77
     6
176
     1
 78
     2
176
     1
 67
     7
176
     1
 79
     5
176
     1
170
     0
176
     1
171
     0
176
     1
290
     0
176
     1
 93
        1
176
     1
 44
0.0
176
     1
173
     0
176
     1
  0
VISUALSTYLE
  5
2B
102
{ACAD_REACTORS
330
2A
102
}
330
2A
100
AcDbVisualStyle
  2
Flat
 70
     0
177
     2
291
     1
 71
     2
176
     1
 72
     1
176
     1
 73
     1
176
     1
 90
        2
176
     1
 40
-0.6
176
     1
 41
30.0
176
     1
 62
     5
 63
     7
421
 16777215
176
     1
 74
     0
176
     1
 91
        4
176
     1
 64
     7
176
     1
 65
   257
176
     1
 75
     1
176
     1
175
     1
176
     1
 42
1.0
176
     1
 92
        8
176
     1
 66
     7
176
     1
 43
1.0
176
     1
 76
     1
176
     1
 77
     6
176
     1
 78
     2
176
     1
 67
     7
176
     1
 79
     5
176
     1
170
     0
176
     1
171
     0
176
     1
290
     0
176
     1
 93
       13
176
     1
 44
0.0
176
     1
173
     0
176
     1
  0
VISUALSTYLE
  5
2C
102
{ACAD_REACTORS
330
2A
102
}
330
2A
100
AcDbVisualStyle
  2
FlatWithEdges
 70
     1
177
     2
291
     1
 71
     2
176
     1
 72
     1
176
     1
 73
     1
176
     1
 90
        2
176
     1
 40
-0.6
176
     1
 41
30.0
176
     1
 62
     5
 63
     7
421
 16777215
176
     1
 74
     1
176
     1
 91
        4
176
     1
 64
     7
176
     1
 65
   257
176
     1
 75
     1
176
     1
175
     1
176
     1
 42
1.0
176
     1
 92
        0
176
     1
 66
   257
176
     1
 43
1.0
176
     1
 76
     1
176
     1
 77
     6
176
     1
 78
     2
176
     1
 67
     7
176
     1
 79
     5
176
     1
170
     0
176
     1
171
     0
176
     1
290
     0
176
     1
 93
       13
176
     1
 44
0.0
176
     1
173
     0
176
     1
  0
VISUALSTYLE
  5
2D
102
{ACAD_REACTORS
330
2A
102
}
330
2A
100
AcDbVisualStyle
  2
Gouraud
 70
     2
177
     2
291
     1
 71
     2
176
     1
 72
     2
176
     1
 73
     1
176
     1
 90
        2
176
     1
 40
-0.6
176
     1
 41
30.0
176
     1
 62
     5
 63
     7
421
 16777215
176
     1
 74
     0
176
     1
 91
        4
176
     1
 64
     7
176
     1
 65
   257
176
     1
 75
     1
176
     1
175
     1
176
     1
 42
1.0
176
     1
 92
        0
176
     1
 66
     7
176
     1
 43
1.0
176
     1
 76
     1
176
     1
 77
     6
176
     1
 78
     2
176
     1
 67
     7
176
     1
 79
     5
176
     1
170
     0
176
     1
171
     0
176
     1
290
     0
176
     1
 93
       13
176
     1
 44
0.0
176
     1
173
     0
176
     1
  0
VISUALSTYLE
  5
2E
102
{ACAD_REACTORS
330
2A
102
}
330
2A
100
AcDbVisualStyle
  2
GouraudWithEdges
 70
     3
177
     2
291
     1
 71
     2
176
     1
 72
     2
176
     1
 73
     1
176
     1
 90
        2
176
     1
 40
-0.6
176
     1
 41
30.0
176
     1
 62
     5
 63
     7
421
 16777215
176
     1
 74
     1
176
     1
 91
        4
176
     1
 64
     7
176
     1
 65
   257
176
     1
 75
     1
176
     1
175
     1
176
     1
 42
1.0
176
     1
 92
        0
176
     1
 66
   257
176
     1
 43
1.0
176
     1
 76
     1
176
     1
 77
     6
176
     1
 78
     2
176
     1
 67
     7
176
     1
 79
     5
176
     1
170
     0
176
     1
171
     0
176
     1
290
     0
176
     1
 93
       13
176
     1
 44
0.0
176
     1
173
     0
176
     1
  0
VISUALSTYLE
  5
38
102
{ACAD_REACTORS
330
2A
102
}
330
2A
100
AcDbVisualStyle
  2
Linepattern
 70
    14
177
     2
291
     1
 71
     2
176
     1
 72
     2
176
     1
 73
     0
176
     1
 90
        0
176
     1
 40
-0.6
176
     1
 41
-30.0
176
     1
 62
     5
 63
     7
421
 16777215
176
     1
 74
     1
176
     1
 91
        4
176
     1
 64
     7
176
     1
 65
   257
176
     1
 75
     7
176
     1
175
     7
176
     1
 42
1.0
176
     1
 92
        8
176
     1
 66
     7
176
     1
 43
1.0
176
     1
 76
     1
176
     1
 77
     6
176
     1
 78
     2
176
     1
 67
     7
176
     1
 79
     5
176
     1
170
     0
176
     1
171
     0
176
     1
290
     0
176
     1
 93
        1
176
     1
 44
0.0
176
     1
173
     0
176
     1
  0
VISUALSTYLE
  5
33
102
{ACAD_REACTORS
330
2A
102
}
330
2A
100
AcDbVisualStyle
  2
Realistic
 70
     8
177
     2
291
     0
 71
     2
176
     1
 72
     2
176
     1
 73
     0
176
     1
 90
        0
176
     1
 40
-0.6
176
     1
 41
-30.0
176
     1
 62
     5
 63
     7
421
 16777215
176
     1
 74
     1
176
     1
 91
        0
176
     1
 64
     7
176
     1
 65
   257
176
     1
 75
     1
176
     1
175
     1
176
     1
 42
1.0
176
     1
 92
        8
176
     1
 66
     8
424
  7895160
176
     1
 43
1.0
176
     1
 76
     1
176
     1
 77
     6
176
     1
 78
     2
176
     1
 67
     7
176
     1
 79
     5
176
     1
170
     0
176
     1
171
     0
176
     1
290
     0
176
     1
 93
       13
176
     1
 44
0.0
176
     1
173
     0
176
     1
  0
VISUALSTYLE
  5
37
102
{ACAD_REACTORS
330
2A
102
}
330
2A
100
AcDbVisualStyle
  2
Thicken
 70
    13
177
     2
291
     1
 71
     2
176
     1
 72
     2
176
     1
 73
     0
176
     1
 90
        0
176
     1
 40
-0.6
176
     1
 41
-30.0
176
     1
 62
     5
 63
     7
421
 16777215
176
     1
 74
     1
176
     1
 91
        4
176
     1
 64
     7
176
     1
 65
   257
176
     1
 75
     1
176
     1
175
     1
176
     1
 42
1.0
176
     1
 92
       12
176
     1
 66
     7
176
     1
 43
1.0
176
     1
 76
     1
176
     1
 77
     6
176
     1
 78
     2
176
     1
 67
     7
176
     1
 79
     5
176
     1
170
     0
176
     1
171
     0
176
     1
290
     0
176
     1
 93
        1
176
     1
 44
0.0
176
     1
173
     0
176
     1
  0
ENDSEC
  0
EOF
