  0
SECTION
  2
HEADER
  9
$ACADVER
  1
AC1024
  9
$ACADMAINTVER
 70
     6
  9
$DWGCODEPAGE
  3
ANSI_1252
  9
$INSBASE
 10
0.0
 20
0.0
 30
0.0
  9
$EXTMIN
 10
1.000000000000000E+20
 20
1.000000000000000E+20
 30
1.000000000000000E+20
  9
$EXTMAX
 10
-1.000000000000000E+20
 20
-1.000000000000000E+20
 30
-1.000000000000000E+20
  9
$LIMMIN
 10
0.0
 20
0.0
  9
$LIMMAX
 10
12.0
 20
9.0
  9
$ORTHOMODE
 70
     0
  9
$REGENMODE
 70
     1
  9
$FILLMODE
 70
     1
  9
$QTEXTMODE
 70
     0
  9
$MIRRTEXT
 70
     1
  9
$LTSCALE
 40
1.0
  9
$ATTMODE
 70
     1
  9
$TEXTSIZE
 40
0.2
  9
$TRACEWID
 40
0.05
  9
$TEXTSTYLE
  7
Standard
  9
$CLAYER
  8
0
  9
$CELTYPE
  6
ByLayer
  9
$CECOLOR
 62
   256
  9
$CELTSCALE
 40
1.0
  9
$DISPSILH
 70
     0
  9
$DIMSCALE
 40
1.0
  9
$DIMASZ
 40
0.18
  9
$DIMEXO
 40
0.0625
  9
$DIMDLI
 40
0.38
  9
$DIMRND
 40
0.0
  9
$DIMDLE
 40
0.0
  9
$DIMEXE
 40
0.18
  9
$DIMTP
 40
0.0
  9
$DIMTM
 40
0.0
  9
$DIMTXT
 40
0.18
  9
$DIMCEN
 40
0.09
  9
$DIMTSZ
 40
0.0
  9
$DIMTOL
 70
     0
  9
$DIMLIM
 70
     0
  9
$DIMTIH
 70
     1
  9
$DIMTOH
 70
     1
  9
$DIMSE1
 70
     0
  9
$DIMSE2
 70
     0
  9
$DIMTAD
 70
     0
  9
$DIMZIN
 70
     0
  9
$DIMBLK
  1

  9
$DIMASO
 70
     1
  9
$DIMSHO
 70
     1
  9
$DIMPOST
  1

  9
$DIMAPOST
  1

  9
$DIMALT
 70
     0
  9
$DIMALTD
 70
     2
  9
$DIMALTF
 40
25.4
  9
$DIMLFAC
 40
1.0
  9
$DIMTOFL
 70
     0
  9
$DIMTVP
 40
0.0
  9
$DIMTIX
 70
     0
  9
$DIMSOXD
 70
     0
  9
$DIMSAH
 70
     0
  9
$DIMBLK1
  1

  9
$DIMBLK2
  1

  9
$DIMSTYLE
  2
Standard
  9
$DIMCLRD
 70
     0
  9
$DIMCLRE
 70
     0
  9
$DIMCLRT
 70
     0
  9
$DIMTFAC
 40
1.0
  9
$DIMGAP
 40
0.09
  9
$DIMJUST
 70
     0
  9
$DIMSD1
 70
     0
  9
$DIMSD2
 70
     0
  9
$DIMTOLJ
 70
     1
  9
$DIMTZIN
 70
     0
  9
$DIMALTZ
 70
     0
  9
$DIMALTTZ
 70
     0
  9
$DIMUPT
 70
     0
  9
$DIMDEC
 70
     4
  9
$DIMTDEC
 70
     4
  9
$DIMALTU
 70
     2
  9
$DIMALTTD
 70
     2
  9
$DIMTXSTY
  7
Standard
  9
$DIMAUNIT
 70
     0
  9
$DIMADEC
 70
     0
  9
$DIMALTRND
 40
0.0
  9
$DIMAZIN
 70
     0
  9
$DIMDSEP
 70
    46
  9
$DIMATFIT
 70
     3
  9
$DIMFRAC
 70
     0
  9
$DIMLDRBLK
  1

  9
$DIMLUNIT
 70
     2
  9
$DIMLWD
 70
    -2
  9
$DIMLWE
 70
    -2
  9
$DIMTMOVE
 70
     0
  9
$DIMFXL
 40
1.0
  9
$DIMFXLON
 70
     0
  9
$DIMJOGANG
 40
0.7853981633974483
  9
$DIMTFILL
 70
     0
  9
$DIMTFILLCLR
 70
     0
  9
$DIMARCSYM
 70
     0
  9
$DIMLTYPE
  6

  9
$DIMLTEX1
  6

  9
$DIMLTEX2
  6

  9
$DIMTXTDIRECTION
 70
     0
  9
$LUNITS
 70
     2
  9
$LUPREC
 70
     4
  9
$SKETCHINC
 40
0.1
  9
$FILLETRAD
 40
0.5
  9
$AUNITS
 70
     0
  9
$AUPREC
 70
     0
  9
$MENU
  1
.
  9
$ELEVATION
 40
0.0
  9
$PELEVATION
 40
0.0
  9
$THICKNESS
 40
0.0
  9
$LIMCHECK
 70
     0
  9
$CHAMFERA
 40
0.5
  9
$CHAMFERB
 40
0.5
  9
$CHAMFERC
 40
1.0
  9
$CHAMFERD
 40
0.0
  9
$SKPOLY
 70
     0
  9
$TDCREATE
 40
2458136.491061829
  9
$TDUCREATE
 40
2458136.699395162
  9
$TDUPDATE
 40
2458136.491061979
  9
$TDUUPDATE
 40
2458136.699395312
  9
$TDINDWG
 40
0.0000000116
  9
$TDUSRTIMER
 40
0.0000000116
  9
$USRTIMER
 70
     1
  9
$ANGBASE
 50
0.0
  9
$ANGDIR
 70
     0
  9
$PDMODE
 70
     0
  9
$PDSIZE
 40
0.0
  9
$PLINEWID
 40
0.0
  9
$SPLFRAME
 70
     0
  9
$SPLINETYPE
 70
     6
  9
$SPLINESEGS
 70
     8
  9
$HANDSEED
  5
E9
  9
$SURFTAB1
 70
     6
  9
$SURFTAB2
 70
     6
  9
$SURFTYPE
 70
     6
  9
$SURFU
 70
     6
  9
$SURFV
 70
     6
  9
$UCSBASE
  2

  9
$UCSNAME
  2

  9
$UCSORG
 10
0.0
 20
0.0
 30
0.0
  9
$UCSXDIR
 10
1.0
 20
0.0
 30
0.0
  9
$UCSYDIR
 10
0.0
 20
1.0
 30
0.0
  9
$UCSORTHOREF
  2

  9
$UCSORTHOVIEW
 70
     0
  9
$UCSORGTOP
 10
0.0
 20
0.0
 30
0.0
  9
$UCSORGBOTTOM
 10
0.0
 20
0.0
 30
0.0
  9
$UCSORGLEFT
 10
0.0
 20
0.0
 30
0.0
  9
$UCSORGRIGHT
 10
0.0
 20
0.0
 30
0.0
  9
$UCSORGFRONT
 10
0.0
 20
0.0
 30
0.0
  9
$UCSORGBACK
 10
0.0
 20
0.0
 30
0.0
  9
$PUCSBASE
  2

  9
$PUCSNAME
  2

  9
$PUCSORG
 10
0.0
 20
0.0
 30
0.0
  9
$PUCSXDIR
 10
1.0
 20
0.0
 30
0.0
  9
$PUCSYDIR
 10
0.0
 20
1.0
 30
0.0
  9
$PUCSORTHOREF
  2

  9
$PUCSORTHOVIEW
 70
     0
  9
$PUCSORGTOP
 10
0.0
 20
0.0
 30
0.0
  9
$PUCSORGBOTTOM
 10
0.0
 20
0.0
 30
0.0
  9
$PUCSORGLEFT
 10
0.0
 20
0.0
 30
0.0
  9
$PUCSORGRIGHT
 10
0.0
 20
0.0
 30
0.0
  9
$PUCSORGFRONT
 10
0.0
 20
0.0
 30
0.0
  9
$PUCSORGBACK
 10
0.0
 20
0.0
 30
0.0
  9
$USERI1
 70
     0
  9
$USERI2
 70
     0
  9
$USERI3
 70
     0
  9
$USERI4
 70
     0
  9
$USERI5
 70
     0
  9
$USERR1
 40
0.0
  9
$USERR2
 40
0.0
  9
$USERR3
 40
0.0
  9
$USERR4
 40
0.0
  9
$USERR5
 40
0.0
  9
$WORLDVIEW
 70
     1
  9
$SHADEDGE
 70
     3
  9
$SHADEDIF
 70
    70
  9
$TILEMODE
 70
     1
  9
$MAXACTVP
 70
    64
  9
$PINSBASE
 10
0.0
 20
0.0
 30
0.0
  9
$PLIMCHECK
 70
     0
  9
$PEXTMIN
 10
1.000000000000000E+20
 20
1.000000000000000E+20
 30
1.000000000000000E+20
  9
$PEXTMAX
 10
-1.000000000000000E+20
 20
-1.000000000000000E+20
 30
-1.000000000000000E+20
  9
$PLIMMIN
 10
0.0
 20
0.0
  9
$PLIMMAX
 10
12.0
 20
9.0
  9
$UNITMODE
 70
     0
  9
$VISRETAIN
 70
     1
  9
$PLINEGEN
 70
     0
  9
$PSLTSCALE
 70
     1
  9
$TREEDEPTH
 70
  3020
  9
$CMLSTYLE
  2
Standard
  9
$CMLJUST
 70
     0
  9
$CMLSCALE
 40
1.0
  9
$PROXYGRAPHICS
 70
     1
  9
$MEASUREMENT
 70
     0
  9
$CELWEIGHT
370
    -1
  9
$ENDCAPS
280
     0
  9
$JOINSTYLE
280
     0
  9
$LWDISPLAY
290
     1
  9
$INSUNITS
 70
     1
  9
$HYPERLINKBASE
  1

  9
$STYLESHEET
  1

  9
$XEDIT
290
     1
  9
$CEPSNTYPE
380
     0
  9
$PSTYLEMODE
290
     1
  9
$FINGERPRINTGUID
  2
{279403A7-84E4-4CEB-9717-EB7E291862AB}
  9
$VERSIONGUID
  2
{FAEB1C32-E019-11D5-929B-00C0DF256EC4}
  9
$EXTNAMES
290
     1
  9
$PSVPSCALE
 40
0.0
  9
$OLESTARTUP
290
     0
  9
$SORTENTS
280
   127
  9
$INDEXCTL
280
     0
  9
$HIDETEXT
280
     1
  9
$XCLIPFRAME
280
     2
  9
$HALOGAP
280
     0
  9
$OBSCOLOR
 70
   257
  9
$OBSLTYPE
280
     0
  9
$INTERSECTIONDISPLAY
280
     0
  9
$INTERSECTIONCOLOR
 70
   257
  9
$DIMASSOC
280
     2
  9
$PROJECTNAME
  1

  9
$CAMERADISPLAY
290
     0
  9
$LENSLENGTH
 40
50.0
  9
$CAMERAHEIGHT
 40
0.0
  9
$STEPSPERSEC
 40
2.0
  9
$STEPSIZE
 40
6.0
  9
$3DDWFPREC
 40
2.0
  9
$PSOLWIDTH
 40
0.25
  9
$PSOLHEIGHT
 40
4.0
  9
$LOFTANG1
 40
1.570796326794897
  9
$LOFTANG2
 40
1.570796326794897
  9
$LOFTMAG1
 40
0.0
  9
$LOFTMAG2
 40
0.0
  9
$LOFTPARAM
 70
     7
  9
$LOFTNORMALS
280
     1
  9
$LATITUDE
 40
37.795
  9
$LONGITUDE
 40
-122.394
  9
$NORTHDIRECTION
 40
0.0
  9
$TIMEZONE
 70
 -8000
  9
$LIGHTGLYPHDISPLAY
280
     1
  9
$TILEMODELIGHTSYNCH
280
     1
  9
$CMATERIAL
347
3C
  9
$SOLIDHIST
280
     1
  9
$SHOWHIST
280
     1
  9
$DWFFRAME
280
     2
  9
$DGNFRAME
280
     2
  9
$REALWORLDSCALE
290
     1
  9
$INTERFERECOLOR
 62
   256
  9
$CSHADOW
280
     0
  9
$SHADOWPLANELOCATION
 40
0.0
  0
ENDSEC
  0
SECTION
  2
CLASSES
  0
CLASS
  1
ACDBDICTIONARYWDFLT
  2
AcDbDictionaryWithDefault
  3
ObjectDBX Classes
 90
        0
 91
        4
280
     0
281
     0
  0
CLASS
  1
VISUALSTYLE
  2
AcDbVisualStyle
  3
ObjectDBX Classes
 90
     4095
 91
        4
280
     0
281
     0
  0
CLASS
  1
MATERIAL
  2
AcDbMaterial
  3
ObjectDBX Classes
 90
     1153
 91
        4
280
     0
281
     0
  0
CLASS
  1
SUN
  2
AcDbSun
  3
SCENEOE
 90
     1024
 91
        4
280
     0
281
     0
  0
ENDSEC
  0
SECTION
  2
TABLES
  0
TABLE
  2
VPORT
  5
8
330
0
100
AcDbSymbolTable
 70
     1
  0
VPORT
  5
29
330
8
100
AcDbSymbolTableRecord
100
AcDbViewportTableRecord
  2
*Active
 70
     0
 10
0.0
 20
0.0
 11
1.0
 21
1.0
 12
0.0
 22
0.0
 13
0.0
 23
0.0
 14
0.5
 24
0.5
 15
0.5
 25
0.5
 16
0.0
 26
0.0
 36
1.0
 17
216.0
 27
216.0
 37
0.0
 40
432.0
 41
1.0
 42
50.0
 43
0.0
 44
0.0
 50
0.0
 51
0.0
 71
     0
 72
   100
 73
     1
 74
     3
 75
     0
 76
     0
 77
     0
 78
     0
281
     0
 65
     1
110
0.0
120
0.0
130
0.0
111
1.0
121
0.0
131
0.0
112
0.0
122
1.0
132
0.0
 79
     0
146
0.0
 60
     3
 61
     5
292
     1
282
     1
141
0.0
142
0.0
 63
   250
361
3F
  0
ENDTAB
  0
TABLE
  2
LTYPE
  5
5
330
0
100
AcDbSymbolTable
 70
     1
  0
LTYPE
  5
14
330
5
100
AcDbSymbolTableRecord
100
AcDbLinetypeTableRecord
  2
ByBlock
 70
     0
  3

 72
    65
 73
     0
 40
0.0
  0
LTYPE
  5
15
330
5
100
AcDbSymbolTableRecord
100
AcDbLinetypeTableRecord
  2
ByLayer
 70
     0
  3

 72
    65
 73
     0
 40
0.0
  0
LTYPE
  5
16
330
5
100
AcDbSymbolTableRecord
100
AcDbLinetypeTableRecord
  2
Continuous
 70
     0
  3
Solid line
 72
    65
 73
     0
 40
0.0
  0
ENDTAB
  0
TABLE
  2
LAYER
  5
2
330
0
100
AcDbSymbolTable
 70
     2
  0
LAYER
  5
10
330
2
100
AcDbSymbolTableRecord
100
AcDbLayerTableRecord
  2
0
 70
     0
 62
     7
  6
Continuous
370
    -3
390
F
347
3E
  0
LAYER
  5
40
330
2
100
AcDbSymbolTableRecord
100
AcDbLayerTableRecord
  2
Calque 1
 70
     0
 62
     7
  6
Continuous
370
    -3
390
F
347
3E
  0
ENDTAB
  0
TABLE
  2
STYLE
  5
3
330
0
100
AcDbSymbolTable
 70
     1
  0
STYLE
  5
11
330
3
100
AcDbSymbolTableRecord
100
AcDbTextStyleTableRecord
  2
Standard
 70
     0
 40
0.0
 41
1.0
 50
0.0
 71
     0
 42
0.2
  3
txt
  4

  0
ENDTAB
  0
TABLE
  2
VIEW
  5
6
330
0
100
AcDbSymbolTable
 70
     0
  0
ENDTAB
  0
TABLE
  2
UCS
  5
7
330
0
100
AcDbSymbolTable
 70
     0
  0
ENDTAB
  0
TABLE
  2
APPID
  5
9
330
0
100
AcDbSymbolTable
 70
     1
  0
APPID
  5
12
330
9
100
AcDbSymbolTableRecord
100
AcDbRegAppTableRecord
  2
ACAD
 70
     0
  0
ENDTAB
  0
TABLE
  2
DIMSTYLE
  5
A
330
0
100
AcDbSymbolTable
 70
     1
100
AcDbDimStyleTable
  0
DIMSTYLE
105
27
330
A
100
AcDbSymbolTableRecord
100
AcDbDimStyleTableRecord
  2
Standard
 70
     0
178
     0
340
11
  0
ENDTAB
  0
TABLE
  2
BLOCK_RECORD
  5
1
330
0
100
AcDbSymbolTable
 70
    14
  0
BLOCK_RECORD
  5
1F
330
1
100
AcDbSymbolTableRecord
100
AcDbBlockTableRecord
  2
*Model_Space
340
22
 70
     0
280
     1
281
     0
  0
BLOCK_RECORD
  5
1B
330
1
100
AcDbSymbolTableRecord
100
AcDbBlockTableRecord
  2
*Paper_Space
340
1E
 70
     0
280
     1
281
     0
  0
BLOCK_RECORD
  5
23
330
1
100
AcDbSymbolTableRecord
100
AcDbBlockTableRecord
  2
*Paper_Space0
340
26
 70
     0
280
     1
281
     0
  0
BLOCK_RECORD
  5
41
330
1
100
AcDbSymbolTableRecord
100
AcDbBlockTableRecord
  2
block 2
340
0
102
{BLKREFS
331
42
102
}
 70
     0
280
     1
281
     0
  0
BLOCK_RECORD
  5
45
330
1
100
AcDbSymbolTableRecord
100
AcDbBlockTableRecord
  2
block 3
340
0
102
{BLKREFS
331
46
102
}
 70
     0
280
     1
281
     0
  0
BLOCK_RECORD
  5
4B
330
1
100
AcDbSymbolTableRecord
100
AcDbBlockTableRecord
  2
block 4
340
0
102
{BLKREFS
331
4C
102
}
 70
     0
280
     1
281
     0
  0
BLOCK_RECORD
  5
4F
330
1
100
AcDbSymbolTableRecord
100
AcDbBlockTableRecord
  2
block 5
340
0
102
{BLKREFS
331
50
102
}
 70
     0
280
     1
281
     0
  0
BLOCK_RECORD
  5
5B
330
1
100
AcDbSymbolTableRecord
100
AcDbBlockTableRecord
  2
block 6
340
0
102
{BLKREFS
331
5C
102
}
 70
     0
280
     1
281
     0
  0
BLOCK_RECORD
  5
5F
330
1
100
AcDbSymbolTableRecord
100
AcDbBlockTableRecord
  2
block 7
340
0
102
{BLKREFS
331
60
102
}
 70
     0
280
     1
281
     0
  0
BLOCK_RECORD
  5
65
330
1
100
AcDbSymbolTableRecord
100
AcDbBlockTableRecord
  2
block 8
340
0
102
{BLKREFS
331
66
102
}
 70
     0
280
     1
281
     0
  0
BLOCK_RECORD
  5
6B
330
1
100
AcDbSymbolTableRecord
100
AcDbBlockTableRecord
  2
block 9
340
0
102
{BLKREFS
331
6C
102
}
 70
     0
280
     1
281
     0
  0
BLOCK_RECORD
  5
71
330
1
100
AcDbSymbolTableRecord
100
AcDbBlockTableRecord
  2
block 10
340
0
102
{BLKREFS
331
72
102
}
 70
     0
280
     1
281
     0
  0
BLOCK_RECORD
  5
79
330
1
100
AcDbSymbolTableRecord
100
AcDbBlockTableRecord
  2
block 11
340
0
102
{BLKREFS
331
7A
102
}
 70
     0
280
     1
281
     0
  0
BLOCK_RECORD
  5
B3
330
1
100
AcDbSymbolTableRecord
100
AcDbBlockTableRecord
  2
block 12
340
0
102
{BLKREFS
331
B4
102
}
 70
     0
280
     1
281
     0
  0
BLOCK_RECORD
  5
B7
330
1
100
AcDbSymbolTableRecord
100
AcDbBlockTableRecord
  2
block 13
340
0
102
{BLKREFS
331
B8
102
}
 70
     0
280
     1
281
     0
  0
BLOCK_RECORD
  5
CF
330
1
100
AcDbSymbolTableRecord
100
AcDbBlockTableRecord
  2
block 14
340
0
102
{BLKREFS
331
D0
102
}
 70
     0
280
     1
281
     0
  0
ENDTAB
  0
ENDSEC
  0
SECTION
  2
BLOCKS
  0
BLOCK
  5
20
330
1F
100
AcDbEntity
  8
0
100
AcDbBlockBegin
  2
*Model_Space
 70
     0
 10
0.0
 20
0.0
 30
0.0
  3
*Model_Space
  1

  0
ENDBLK
  5
21
330
1F
100
AcDbEntity
  8
0
100
AcDbBlockEnd
  0
BLOCK
  5
1C
330
1B
100
AcDbEntity
 67
     1
  8
0
100
AcDbBlockBegin
  2
*Paper_Space
 70
     0
 10
0.0
 20
0.0
 30
0.0
  3
*Paper_Space
  1

  0
ENDBLK
  5
1D
330
1B
100
AcDbEntity
 67
     1
  8
0
100
AcDbBlockEnd
  0
BLOCK
  5
24
330
23
100
AcDbEntity
  8
0
100
AcDbBlockBegin
  2
*Paper_Space0
 70
     0
 10
0.0
 20
0.0
 30
0.0
  3
*Paper_Space0
  1

  0
ENDBLK
  5
25
330
23
100
AcDbEntity
  8
0
100
AcDbBlockEnd
  0
BLOCK
  5
43
330
41
100
AcDbEntity
  8
0
100
AcDbBlockBegin
  2
block 2
 70
     0
 10
0.0
 20
0.0
 30
0.0
  3
block 2
  1

  0
INSERT
  5
46
330
41
100
AcDbEntity
  8
Calque 1
100
AcDbBlockReference
  2
block 3
 10
0.0
 20
0.0
 30
0.0
  0
INSERT
  5
B4
330
41
100
AcDbEntity
  8
Calque 1
100
AcDbBlockReference
  2
block 12
 10
0.0
 20
0.0
 30
0.0
  0
ENDBLK
  5
44
330
41
100
AcDbEntity
  8
0
100
AcDbBlockEnd
  0
BLOCK
  5
47
330
45
100
AcDbEntity
  8
0
100
AcDbBlockBegin
  2
block 3
 70
     0
 10
0.0
 20
0.0
 30
0.0
  3
block 3
  1

  0
SPLINE
  5
49
330
45
100
AcDbEntity
  8
Calque 1
370
     0
100
AcDbSpline
210
0.0
220
0.0
230
1.0
 70
    11
 71
     3
 72
    77
 73
    73
 74
     0
 42
0.0000000001
 43
0.0000000001
 12
1.0
 22
0.0
 32
0.0
 13
1.0
 23
0.0
 33
0.0
 40
0.0
 40
0.0
 40
0.0
 40
0.0
 40
1.0
 40
1.0
 40
1.0
 40
2.0
 40
2.0
 40
2.0
 40
3.0
 40
3.0
 40
3.0
 40
4.0
 40
4.0
 40
4.0
 40
5.0
 40
5.0
 40
5.0
 40
6.0
 40
6.0
 40
6.0
 40
7.0
 40
7.0
 40
7.0
 40
8.0
 40
8.0
 40
8.0
 40
9.0
 40
9.0
 40
9.0
 40
10.0
 40
10.0
 40
10.0
 40
11.0
 40
11.0
 40
11.0
 40
12.0
 40
12.0
 40
12.0
 40
13.0
 40
13.0
 40
13.0
 40
14.0
 40
14.0
 40
14.0
 40
15.0
 40
15.0
 40
15.0
 40
16.0
 40
16.0
 40
16.0
 40
17.0
 40
17.0
 40
17.0
 40
18.0
 40
18.0
 40
18.0
 40
19.0
 40
19.0
 40
19.0
 40
20.0
 40
20.0
 40
20.0
 40
21.0
 40
21.0
 40
21.0
 40
22.0
 40
22.0
 40
22.0
 40
23.0
 40
23.0
 40
23.0
 40
24.0
 40
24.0
 40
24.0
 40
24.0
 10
343.0
 20
94.20001220703125
 30
0.0
 10
343.0
 20
94.20001220703125
 30
0.0
 10
354.5
 20
95.0
 30
0.0
 10
354.5
 20
95.0
 30
0.0
 10
354.5
 20
95.0
 30
0.0
 10
294.0
 20
123.6000061035156
 30
0.0
 10
294.0
 20
123.6000061035156
 30
0.0
 10
291.8999938964844
 20
151.7000122070312
 30
0.0
 10
277.6000061035156
 20
185.2000122070312
 30
0.0
 10
266.8999938964844
 20
206.8000030517578
 30
0.0
 10
299.1999816894531
 20
214.3000030517578
 30
0.0
 10
324.5
 20
231.8000030517578
 30
0.0
 10
321.1000061035156
 20
265.8999938964844
 30
0.0
 10
319.3000183105469
 20
283.6999969482422
 30
0.0
 10
301.3000183105469
 20
298.5999908447266
 30
0.0
 10
289.6000061035156
 20
311.2999954223633
 30
0.0
 10
289.6000061035156
 20
311.2999954223633
 30
0.0
 10
312.5
 20
346.0
 30
0.0
 10
312.5
 20
346.0
 30
0.0
 10
312.5
 20
346.0
 30
0.0
 10
282.3999938964844
 20
362.4000015258789
 30
0.0
 10
282.3999938964844
 20
362.4000015258789
 30
0.0
 10
282.3999938964844
 20
362.4000015258789
 30
0.0
 10
264.1000061035156
 20
330.3000030517578
 30
0.0
 10
264.1000061035156
 20
330.3000030517578
 30
0.0
 10
264.1000061035156
 20
330.3000030517578
 30
0.0
 10
264.1000061035156
 20
330.3000030517578
 30
0.0
 10
264.1000061035156
 20
330.3000030517578
 30
0.0
 10
233.2000122070312
 20
346.1000061035156
 30
0.0
 10
195.9000091552734
 20
344.3000030517578
 30
0.0
 10
166.9000091552734
 20
328.1000061035156
 30
0.0
 10
166.9000091552734
 20
328.1000061035156
 30
0.0
 10
167.1000061035156
 20
328.3000030517578
 30
0.0
 10
167.1000061035156
 20
328.3000030517578
 30
0.0
 10
167.1000061035156
 20
328.3000030517578
 30
0.0
 10
147.5
 20
359.6000061035156
 30
0.0
 10
147.5
 20
359.6000061035156
 30
0.0
 10
147.5
 20
359.6000061035156
 30
0.0
 10
118.0999984741211
 20
341.9000091552734
 30
0.0
 10
118.0999984741211
 20
341.9000091552734
 30
0.0
 10
118.0999984741211
 20
341.9000091552734
 30
0.0
 10
142.3999938964844
 20
308.5000076293945
 30
0.0
 10
142.3999938964844
 20
308.5000076293945
 30
0.0
 10
127.5999908447266
 20
292.0
 30
0.0
 10
115.9999923706055
 20
278.4000091552734
 30
0.0
 10
112.6999969482422
 20
265.5
 30
0.0
 10
104.1999969482422
 20
231.6999969482422
 30
0.0
 10
122.2999954223633
 20
213.1000061035156
 30
0.0
 10
164.6999969482422
 20
205.8000030517578
 30
0.0
 10
154.0
 20
184.1000061035156
 30
0.0
 10
140.0999908447266
 20
151.2000122070312
 30
0.0
 10
138.0
 20
123.5
 30
0.0
 10
138.0
 20
123.5
 30
0.0
 10
77.5
 20
95.0
 30
0.0
 10
77.5
 20
95.0
 30
0.0
 10
77.5
 20
95.0
 30
0.0
 10
89.0
 20
94.20001220703125
 30
0.0
 10
89.0
 20
94.20001220703125
 30
0.0
 10
89.0
 20
94.20001220703125
 30
0.0
 10
80.5
 20
87.0
 30
0.0
 10
80.5
 20
87.0
 30
0.0
 10
80.5
 20
87.0
 30
0.0
 10
148.6999969482422
 20
104.2000122070312
 30
0.0
 10
148.6999969482422
 20
104.2000122070312
 30
0.0
 10
178.0999908447266
 20
88.70001220703125
 30
0.0
 10
258.7999877929688
 20
86.4000244140625
 30
0.0
 10
285.5
 20
103.7000122070312
 30
0.0
 10
285.5
 20
103.7000122070312
 30
0.0
 10
351.6000061035156
 20
87.0
 30
0.0
 10
351.6000061035156
 20
87.0
 30
0.0
 10
351.6000061035156
 20
87.0
 30
0.0
 10
343.0
 20
94.20001220703125
 30
0.0
 10
343.0
 20
94.20001220703125
 30
0.0
  0
HATCH
  5
4A
330
45
100
AcDbEntity
  8
Calque 1
 62
    21
420
 16033701
100
AcDbHatch
 10
0.0
 20
0.0
 30
0.0
210
0.0
220
0.0
230
1.0
  2
SOLID
 70
     1
 71
     0
 91
        1
 92
        1
 93
        1
 72
     4
 94
        3
 73
     0
 74
     1
 95
       77
 96
       73
 40
0.0
 40
0.0
 40
0.0
 40
0.0
 40
1.0
 40
1.0
 40
1.0
 40
2.0
 40
2.0
 40
2.0
 40
3.0
 40
3.0
 40
3.0
 40
4.0
 40
4.0
 40
4.0
 40
5.0
 40
5.0
 40
5.0
 40
6.0
 40
6.0
 40
6.0
 40
7.0
 40
7.0
 40
7.0
 40
8.0
 40
8.0
 40
8.0
 40
9.0
 40
9.0
 40
9.0
 40
10.0
 40
10.0
 40
10.0
 40
11.0
 40
11.0
 40
11.0
 40
12.0
 40
12.0
 40
12.0
 40
13.0
 40
13.0
 40
13.0
 40
14.0
 40
14.0
 40
14.0
 40
15.0
 40
15.0
 40
15.0
 40
16.0
 40
16.0
 40
16.0
 40
17.0
 40
17.0
 40
17.0
 40
18.0
 40
18.0
 40
18.0
 40
19.0
 40
19.0
 40
19.0
 40
20.0
 40
20.0
 40
20.0
 40
21.0
 40
21.0
 40
21.0
 40
22.0
 40
22.0
 40
22.0
 40
23.0
 40
23.0
 40
23.0
 40
24.0
 40
24.0
 40
24.0
 40
24.0
 10
343.0
 20
94.20001220703125
 10
343.0
 20
94.20001220703125
 10
354.5
 20
95.0
 10
354.5
 20
95.0
 10
354.5
 20
95.0
 10
294.0
 20
123.6000061035156
 10
294.0
 20
123.6000061035156
 10
291.8999938964844
 20
151.7000122070312
 10
277.6000061035156
 20
185.2000122070312
 10
266.8999938964844
 20
206.8000030517578
 10
299.1999816894531
 20
214.3000030517578
 10
324.5
 20
231.8000030517578
 10
321.1000061035156
 20
265.8999938964844
 10
319.3000183105469
 20
283.6999969482422
 10
301.3000183105469
 20
298.5999908447266
 10
289.6000061035156
 20
311.2999954223633
 10
289.6000061035156
 20
311.2999954223633
 10
312.5
 20
346.0
 10
312.5
 20
346.0
 10
312.5
 20
346.0
 10
282.3999938964844
 20
362.4000015258789
 10
282.3999938964844
 20
362.4000015258789
 10
282.3999938964844
 20
362.4000015258789
 10
264.1000061035156
 20
330.3000030517578
 10
264.1000061035156
 20
330.3000030517578
 10
264.1000061035156
 20
330.3000030517578
 10
264.1000061035156
 20
330.3000030517578
 10
264.1000061035156
 20
330.3000030517578
 10
233.2000122070312
 20
346.1000061035156
 10
195.9000091552734
 20
344.3000030517578
 10
166.9000091552734
 20
328.1000061035156
 10
166.9000091552734
 20
328.1000061035156
 10
167.1000061035156
 20
328.3000030517578
 10
167.1000061035156
 20
328.3000030517578
 10
167.1000061035156
 20
328.3000030517578
 10
147.5
 20
359.6000061035156
 10
147.5
 20
359.6000061035156
 10
147.5
 20
359.6000061035156
 10
118.0999984741211
 20
341.9000091552734
 10
118.0999984741211
 20
341.9000091552734
 10
118.0999984741211
 20
341.9000091552734
 10
142.3999938964844
 20
308.5000076293945
 10
142.3999938964844
 20
308.5000076293945
 10
127.5999908447266
 20
292.0
 10
115.9999923706055
 20
278.4000091552734
 10
112.6999969482422
 20
265.5
 10
104.1999969482422
 20
231.6999969482422
 10
122.2999954223633
 20
213.1000061035156
 10
164.6999969482422
 20
205.8000030517578
 10
154.0
 20
184.1000061035156
 10
140.0999908447266
 20
151.2000122070312
 10
138.0
 20
123.5
 10
138.0
 20
123.5
 10
77.5
 20
95.0
 10
77.5
 20
95.0
 10
77.5
 20
95.0
 10
89.0
 20
94.20001220703125
 10
89.0
 20
94.20001220703125
 10
89.0
 20
94.20001220703125
 10
80.5
 20
87.0
 10
80.5
 20
87.0
 10
80.5
 20
87.0
 10
148.6999969482422
 20
104.2000122070312
 10
148.6999969482422
 20
104.2000122070312
 10
178.0999908447266
 20
88.70001220703125
 10
258.7999877929688
 20
86.4000244140625
 10
285.5
 20
103.7000122070312
 10
285.5
 20
103.7000122070312
 10
351.6000061035156
 20
87.0
 10
351.6000061035156
 20
87.0
 10
351.6000061035156
 20
87.0
 10
343.0
 20
94.20001220703125
 10
343.0
 20
94.20001220703125
 97
        0
 97
        0
 75
     2
 76
     1
 98
        0
  0
INSERT
  5
4C
330
45
100
AcDbEntity
  8
Calque 1
100
AcDbBlockReference
  2
block 4
 10
0.0
 20
0.0
 30
0.0
  0
SPLINE
  5
77
330
45
100
AcDbEntity
  8
Calque 1
370
     0
100
AcDbSpline
210
0.0
220
0.0
230
1.0
 70
    11
 71
     3
 72
    23
 73
    19
 74
     0
 42
0.0000000001
 43
0.0000000001
 12
1.0
 22
0.0
 32
0.0
 13
1.0
 23
0.0
 33
0.0
 40
0.0
 40
0.0
 40
0.0
 40
0.0
 40
1.0
 40
1.0
 40
1.0
 40
2.0
 40
2.0
 40
2.0
 40
3.0
 40
3.0
 40
3.0
 40
4.0
 40
4.0
 40
4.0
 40
5.0
 40
5.0
 40
5.0
 40
6.0
 40
6.0
 40
6.0
 40
6.0
 10
227.1000061035156
 20
202.3000030517578
 30
0.0
 10
202.5
 20
201.9000091552734
 30
0.0
 10
181.7000122070312
 20
203.0
 30
0.0
 10
164.7000122070312
 20
205.9000091552734
 30
0.0
 10
163.7000122070312
 20
203.8000030517578
 30
0.0
 10
162.6000061035156
 20
201.5000152587891
 30
0.0
 10
161.5000152587891
 20
199.2000122070312
 30
0.0
 10
179.0000152587891
 20
195.8000183105469
 30
0.0
 10
201.0000152587891
 20
194.5000152587891
 30
0.0
 10
227.1000061035156
 20
195.0000152587891
 30
0.0
 10
241.7000122070312
 20
195.3000183105469
 30
0.0
 10
256.5
 20
196.9000091552734
 30
0.0
 10
269.8999938964844
 20
200.3000183105469
 30
0.0
 10
268.7999877929688
 20
202.6000213623047
 30
0.0
 10
267.7999877929688
 20
204.7000122070312
 30
0.0
 10
266.6999816894531
 20
206.8000183105469
 30
0.0
 10
254.1999969482422
 20
203.8999938964844
 30
0.0
 10
240.6000061035156
 20
202.6000061035156
 30
0.0
 10
227.1000061035156
 20
202.3000030517578
 30
0.0
  0
HATCH
  5
78
330
45
100
AcDbEntity
  8
Calque 1
 62
    21
420
 15441307
100
AcDbHatch
 10
0.0
 20
0.0
 30
0.0
210
0.0
220
0.0
230
1.0
  2
SOLID
 70
     1
 71
     0
 91
        1
 92
        1
 93
        1
 72
     4
 94
        3
 73
     0
 74
     1
 95
       23
 96
       19
 40
0.0
 40
0.0
 40
0.0
 40
0.0
 40
1.0
 40
1.0
 40
1.0
 40
2.0
 40
2.0
 40
2.0
 40
3.0
 40
3.0
 40
3.0
 40
4.0
 40
4.0
 40
4.0
 40
5.0
 40
5.0
 40
5.0
 40
6.0
 40
6.0
 40
6.0
 40
6.0
 10
227.1000061035156
 20
202.3000030517578
 10
202.5
 20
201.9000091552734
 10
181.7000122070312
 20
203.0
 10
164.7000122070312
 20
205.9000091552734
 10
163.7000122070312
 20
203.8000030517578
 10
162.6000061035156
 20
201.5000152587891
 10
161.5000152587891
 20
199.2000122070312
 10
179.0000152587891
 20
195.8000183105469
 10
201.0000152587891
 20
194.5000152587891
 10
227.1000061035156
 20
195.0000152587891
 10
241.7000122070312
 20
195.3000183105469
 10
256.5
 20
196.9000091552734
 10
269.8999938964844
 20
200.3000183105469
 10
268.7999877929688
 20
202.6000213623047
 10
267.7999877929688
 20
204.7000122070312
 10
266.6999816894531
 20
206.8000183105469
 10
254.1999969482422
 20
203.8999938964844
 10
240.6000061035156
 20
202.6000061035156
 10
227.1000061035156
 20
202.3000030517578
 97
        0
 97
        0
 75
     2
 76
     1
 98
        0
  0
INSERT
  5
7A
330
45
100
AcDbEntity
  8
Calque 1
100
AcDbBlockReference
  2
block 11
 10
0.0
 20
0.0
 30
0.0
  0
POLYLINE
  5
8F
330
45
100
AcDbEntity
  8
Calque 1
370
     0
100
AcDb2dPolyline
 66
     1
 10
0.0
 20
0.0
 30
0.0
  0
VERTEX
  5
90
330
8F
100
AcDbEntity
  8
Calque 1
370
     0
100
AcDbVertex
100
AcDb2dVertex
 10
89.0
 20
94.20001220703125
 30
0.0
  0
VERTEX
  5
91
330
8F
100
AcDbEntity
  8
Calque 1
370
     0
100
AcDbVertex
100
AcDb2dVertex
 10
80.5
 20
87.0
 30
0.0
  0
VERTEX
  5
92
330
8F
100
AcDbEntity
  8
Calque 1
370
     0
100
AcDbVertex
100
AcDb2dVertex
 10
98.0
 20
91.39999389648438
 30
0.0
  0
VERTEX
  5
93
330
8F
100
AcDbEntity
  8
Calque 1
370
     0
100
AcDbVertex
100
AcDb2dVertex
 10
95.0
 20
103.2999877929688
 30
0.0
  0
VERTEX
  5
94
330
8F
100
AcDbEntity
  8
Calque 1
370
     0
100
AcDbVertex
100
AcDb2dVertex
 10
77.5
 20
95.0
 30
0.0
  0
VERTEX
  5
95
330
8F
100
AcDbEntity
  8
Calque 1
370
     0
100
AcDbVertex
100
AcDb2dVertex
 10
89.0
 20
94.20001220703125
 30
0.0
  0
SEQEND
  5
97
330
8F
100
AcDbEntity
  8
Calque 1
370
     0
  0
HATCH
  5
96
330
45
100
AcDbEntity
  8
Calque 1
 62
    11
420
 15695232
100
AcDbHatch
 10
0.0
 20
0.0
 30
0.0
210
0.0
220
0.0
230
1.0
  2
SOLID
 70
     1
 71
     0
 91
        1
 92
        1
 93
        5
 72
     1
 10
89.0
 20
94.20001220703125
 11
80.5
 21
87.0
 72
     1
 10
80.5
 20
87.0
 11
98.0
 21
91.39999389648438
 72
     1
 10
98.0
 20
91.39999389648438
 11
95.0
 21
103.2999877929688
 72
     1
 10
95.0
 20
103.2999877929688
 11
77.5
 21
95.0
 72
     1
 10
77.5
 20
95.0
 11
89.0
 21
94.20001220703125
 97
        0
 75
     2
 76
     1
 98
        0
  0
POLYLINE
  5
98
330
45
100
AcDbEntity
  8
Calque 1
370
     0
100
AcDb2dPolyline
 66
     1
 10
0.0
 20
0.0
 30
0.0
  0
VERTEX
  5
99
330
98
100
AcDbEntity
  8
Calque 1
370
     0
100
AcDbVertex
100
AcDb2dVertex
 10
343.0
 20
94.20001220703125
 30
0.0
  0
VERTEX
  5
9A
330
98
100
AcDbEntity
  8
Calque 1
370
     0
100
AcDbVertex
100
AcDb2dVertex
 10
351.5
 20
87.0
 30
0.0
  0
VERTEX
  5
9B
330
98
100
AcDbEntity
  8
Calque 1
370
     0
100
AcDbVertex
100
AcDb2dVertex
 10
334.0
 20
91.39999389648438
 30
0.0
  0
VERTEX
  5
9C
330
98
100
AcDbEntity
  8
Calque 1
370
     0
100
AcDbVertex
100
AcDb2dVertex
 10
337.0
 20
103.2999877929688
 30
0.0
  0
VERTEX
  5
9D
330
98
100
AcDbEntity
  8
Calque 1
370
     0
100
AcDbVertex
100
AcDb2dVertex
 10
354.5
 20
95.0
 30
0.0
  0
VERTEX
  5
9E
330
98
100
AcDbEntity
  8
Calque 1
370
     0
100
AcDbVertex
100
AcDb2dVertex
 10
343.0
 20
94.20001220703125
 30
0.0
  0
SEQEND
  5
A0
330
98
100
AcDbEntity
  8
Calque 1
370
     0
  0
HATCH
  5
9F
330
45
100
AcDbEntity
  8
Calque 1
 62
    11
420
 15695232
100
AcDbHatch
 10
0.0
 20
0.0
 30
0.0
210
0.0
220
0.0
230
1.0
  2
SOLID
 70
     1
 71
     0
 91
        1
 92
        1
 93
        5
 72
     1
 10
343.0
 20
94.20001220703125
 11
351.5
 21
87.0
 72
     1
 10
351.5
 20
87.0
 11
334.0
 21
91.39999389648438
 72
     1
 10
334.0
 20
91.39999389648438
 11
337.0
 21
103.2999877929688
 72
     1
 10
337.0
 20
103.2999877929688
 11
354.5
 21
95.0
 72
     1
 10
354.5
 20
95.0
 11
343.0
 21
94.20001220703125
 97
        0
 75
     2
 76
     1
 98
        0
  0
POLYLINE
  5
A1
330
45
100
AcDbEntity
  8
Calque 1
370
     0
100
AcDb2dPolyline
 66
     1
 10
0.0
 20
0.0
 30
0.0
  0
VERTEX
  5
A2
330
A1
100
AcDbEntity
  8
Calque 1
370
     0
100
AcDbVertex
100
AcDb2dVertex
 10
253.1999969482422
 20
151.2999877929688
 30
0.0
  0
VERTEX
  5
A3
330
A1
100
AcDbEntity
  8
Calque 1
370
     0
100
AcDbVertex
100
AcDb2dVertex
 10
245.8000030517578
 20
69.5
 30
0.0
  0
VERTEX
  5
A4
330
A1
100
AcDbEntity
  8
Calque 1
370
     0
100
AcDbVertex
100
AcDb2dVertex
 10
241.1000061035156
 20
79.89999389648438
 30
0.0
  0
VERTEX
  5
A5
330
A1
100
AcDbEntity
  8
Calque 1
370
     0
100
AcDbVertex
100
AcDb2dVertex
 10
237.3000030517578
 20
69.5
 30
0.0
  0
VERTEX
  5
A6
330
A1
100
AcDbEntity
  8
Calque 1
370
     0
100
AcDbVertex
100
AcDb2dVertex
 10
228.8000030517578
 20
151.2999877929688
 30
0.0
  0
VERTEX
  5
A7
330
A1
100
AcDbEntity
  8
Calque 1
370
     0
100
AcDbVertex
100
AcDb2dVertex
 10
253.1999969482422
 20
151.2999877929688
 30
0.0
  0
SEQEND
  5
A9
330
A1
100
AcDbEntity
  8
Calque 1
370
     0
  0
HATCH
  5
A8
330
45
100
AcDbEntity
  8
Calque 1
 62
    21
420
 15441307
100
AcDbHatch
 10
0.0
 20
0.0
 30
0.0
210
0.0
220
0.0
230
1.0
  2
SOLID
 70
     1
 71
     0
 91
        1
 92
        1
 93
        5
 72
     1
 10
253.1999969482422
 20
151.2999877929688
 11
245.8000030517578
 21
69.5
 72
     1
 10
245.8000030517578
 20
69.5
 11
241.1000061035156
 21
79.89999389648438
 72
     1
 10
241.1000061035156
 20
79.89999389648438
 11
237.3000030517578
 21
69.5
 72
     1
 10
237.3000030517578
 20
69.5
 11
228.8000030517578
 21
151.2999877929688
 72
     1
 10
228.8000030517578
 20
151.2999877929688
 11
253.1999969482422
 21
151.2999877929688
 97
        0
 75
     2
 76
     1
 98
        0
  0
POLYLINE
  5
AA
330
45
100
AcDbEntity
  8
Calque 1
370
     0
100
AcDb2dPolyline
 66
     1
 10
0.0
 20
0.0
 30
0.0
  0
VERTEX
  5
AB
330
AA
100
AcDbEntity
  8
Calque 1
370
     0
100
AcDbVertex
100
AcDb2dVertex
 10
241.1000061035156
 20
79.89999389648438
 30
0.0
  0
VERTEX
  5
AC
330
AA
100
AcDbEntity
  8
Calque 1
370
     0
100
AcDbVertex
100
AcDb2dVertex
 10
237.3000030517578
 20
69.5
 30
0.0
  0
VERTEX
  5
AD
330
AA
100
AcDbEntity
  8
Calque 1
370
     0
100
AcDbVertex
100
AcDb2dVertex
 10
235.3999938964844
 20
87.29998779296875
 30
0.0
  0
VERTEX
  5
AE
330
AA
100
AcDbEntity
  8
Calque 1
370
     0
100
AcDbVertex
100
AcDb2dVertex
 10
247.5
 20
88.60000610351562
 30
0.0
  0
VERTEX
  5
AF
330
AA
100
AcDbEntity
  8
Calque 1
370
     0
100
AcDbVertex
100
AcDb2dVertex
 10
245.8000030517578
 20
69.5
 30
0.0
  0
VERTEX
  5
B0
330
AA
100
AcDbEntity
  8
Calque 1
370
     0
100
AcDbVertex
100
AcDb2dVertex
 10
241.1000061035156
 20
79.89999389648438
 30
0.0
  0
SEQEND
  5
B2
330
AA
100
AcDbEntity
  8
Calque 1
370
     0
  0
HATCH
  5
B1
330
45
100
AcDbEntity
  8
Calque 1
 62
    11
420
 15695232
100
AcDbHatch
 10
0.0
 20
0.0
 30
0.0
210
0.0
220
0.0
230
1.0
  2
SOLID
 70
     1
 71
     0
 91
        1
 92
        1
 93
        5
 72
     1
 10
241.1000061035156
 20
79.89999389648438
 11
237.3000030517578
 21
69.5
 72
     1
 10
237.3000030517578
 20
69.5
 11
235.3999938964844
 21
87.29998779296875
 72
     1
 10
235.3999938964844
 20
87.29998779296875
 11
247.5
 21
88.60000610351562
 72
     1
 10
247.5
 20
88.60000610351562
 11
245.8000030517578
 21
69.5
 72
     1
 10
245.8000030517578
 20
69.5
 11
241.1000061035156
 21
79.89999389648438
 97
        0
 75
     2
 76
     1
 98
        0
  0
ENDBLK
  5
48
330
45
100
AcDbEntity
  8
0
100
AcDbBlockEnd
  0
BLOCK
  5
4D
330
4B
100
AcDbEntity
  8
0
100
AcDbBlockBegin
  2
block 4
 70
     0
 10
0.0
 20
0.0
 30
0.0
  3
block 4
  1

  0
INSERT
  5
50
330
4B
100
AcDbEntity
  8
Calque 1
100
AcDbBlockReference
  2
block 5
 10
0.0
 20
0.0
 30
0.0
  0
SPLINE
  5
57
330
4B
100
AcDbEntity
  8
Calque 1
370
     0
100
AcDbSpline
210
0.0
220
0.0
230
1.0
 70
    11
 71
     3
 72
    17
 73
    13
 74
     0
 42
0.0000000001
 43
0.0000000001
 12
1.0
 22
0.0
 32
0.0
 13
1.0
 23
0.0
 33
0.0
 40
0.0
 40
0.0
 40
0.0
 40
0.0
 40
1.0
 40
1.0
 40
1.0
 40
2.0
 40
2.0
 40
2.0
 40
3.0
 40
3.0
 40
3.0
 40
4.0
 40
4.0
 40
4.0
 40
4.0
 10
214.8000030517578
 20
261.6000061035156
 30
0.0
 10
182.7000122070312
 20
260.4000091552734
 30
0.0
 10
157.2000122070312
 20
244.7000122070312
 30
0.0
 10
157.8999938964844
 20
226.4000091552734
 30
0.0
 10
158.5999908447266
 20
208.1000061035156
 30
0.0
 10
182.0999908447266
 20
208.0000152587891
 30
0.0
 10
216.0
 20
208.4000091552734
 30
0.0
 10
252.3999938964844
 20
208.8000030517578
 30
0.0
 10
274.7000122070312
 20
212.3000030517578
 30
0.0
 10
274.1000061035156
 20
230.6000061035156
 30
0.0
 10
273.3999938964844
 20
248.8999938964844
 30
0.0
 10
246.8999938964844
 20
262.6999969482422
 30
0.0
 10
214.8000030517578
 20
261.6000061035156
 30
0.0
  0
SPLINE
  5
58
330
4B
100
AcDbEntity
  8
Calque 1
370
     0
100
AcDbSpline
210
0.0
220
0.0
230
1.0
 70
    11
 71
     3
 72
    17
 73
    13
 74
     0
 42
0.0000000001
 43
0.0000000001
 12
1.0
 22
0.0
 32
0.0
 13
1.0
 23
0.0
 33
0.0
 40
0.0
 40
0.0
 40
0.0
 40
0.0
 40
1.0
 40
1.0
 40
1.0
 40
2.0
 40
2.0
 40
2.0
 40
3.0
 40
3.0
 40
3.0
 40
4.0
 40
4.0
 40
4.0
 40
4.0
 10
177.6000061035156
 20
218.3000030517578
 30
0.0
 10
175.0
 20
218.1999969482422
 30
0.0
 10
172.7000122070312
 20
221.8000030517578
 30
0.0
 10
172.6000061035156
 20
226.4000091552734
 30
0.0
 10
172.4000091552734
 20
231.0000152587891
 30
0.0
 10
174.4000091552734
 20
234.8000030517578
 30
0.0
 10
177.0
 20
234.8000030517578
 30
0.0
 10
179.6000061035156
 20
234.9000091552734
 30
0.0
 10
181.8999938964844
 20
231.3000030517578
 30
0.0
 10
182.0
 20
226.6999969482422
 30
0.0
 10
182.1999969482422
 20
222.1000061035156
 30
0.0
 10
180.1999969482422
 20
218.3999938964844
 30
0.0
 10
177.6000061035156
 20
218.3000030517578
 30
0.0
  0
SPLINE
  5
59
330
4B
100
AcDbEntity
  8
Calque 1
370
     0
100
AcDbSpline
210
0.0
220
0.0
230
1.0
 70
    11
 71
     3
 72
    17
 73
    13
 74
     0
 42
0.0000000001
 43
0.0000000001
 12
1.0
 22
0.0
 32
0.0
 13
1.0
 23
0.0
 33
0.0
 40
0.0
 40
0.0
 40
0.0
 40
0.0
 40
1.0
 40
1.0
 40
1.0
 40
2.0
 40
2.0
 40
2.0
 40
3.0
 40
3.0
 40
3.0
 40
4.0
 40
4.0
 40
4.0
 40
4.0
 10
256.5
 20
221.1000061035156
 30
0.0
 10
253.8999938964844
 20
221.0
 30
0.0
 10
251.6000061035156
 20
224.6000061035156
 30
0.0
 10
251.5
 20
229.2000122070312
 30
0.0
 10
251.3000030517578
 20
233.8000183105469
 30
0.0
 10
253.3000030517578
 20
237.6000061035156
 30
0.0
 10
255.8999938964844
 20
237.6000061035156
 30
0.0
 10
258.5
 20
237.7000122070312
 30
0.0
 10
260.7999877929688
 20
234.1000061035156
 30
0.0
 10
260.8999938964844
 20
229.5
 30
0.0
 10
261.1000061035156
 20
225.0
 30
0.0
 10
259.2000122070312
 20
221.1999969482422
 30
0.0
 10
256.5
 20
221.1000061035156
 30
0.0
  0
HATCH
  5
5A
330
4B
100
AcDbEntity
  8
Calque 1
 62
    11
420
 15695232
100
AcDbHatch
 10
0.0
 20
0.0
 30
0.0
210
0.0
220
0.0
230
1.0
  2
SOLID
 70
     1
 71
     0
 91
        3
 92
        1
 93
        1
 72
     4
 94
        3
 73
     0
 74
     1
 95
       17
 96
       13
 40
0.0
 40
0.0
 40
0.0
 40
0.0
 40
1.0
 40
1.0
 40
1.0
 40
2.0
 40
2.0
 40
2.0
 40
3.0
 40
3.0
 40
3.0
 40
4.0
 40
4.0
 40
4.0
 40
4.0
 10
214.8000030517578
 20
261.6000061035156
 10
182.7000122070312
 20
260.4000091552734
 10
157.2000122070312
 20
244.7000122070312
 10
157.8999938964844
 20
226.4000091552734
 10
158.5999908447266
 20
208.1000061035156
 10
182.0999908447266
 20
208.0000152587891
 10
216.0
 20
208.4000091552734
 10
252.3999938964844
 20
208.8000030517578
 10
274.7000122070312
 20
212.3000030517578
 10
274.1000061035156
 20
230.6000061035156
 10
273.3999938964844
 20
248.8999938964844
 10
246.8999938964844
 20
262.6999969482422
 10
214.8000030517578
 20
261.6000061035156
 97
        0
 97
        0
 92
        1
 93
        1
 72
     4
 94
        3
 73
     0
 74
     1
 95
       17
 96
       13
 40
0.0
 40
0.0
 40
0.0
 40
0.0
 40
1.0
 40
1.0
 40
1.0
 40
2.0
 40
2.0
 40
2.0
 40
3.0
 40
3.0
 40
3.0
 40
4.0
 40
4.0
 40
4.0
 40
4.0
 10
177.6000061035156
 20
218.3000030517578
 10
175.0
 20
218.1999969482422
 10
172.7000122070312
 20
221.8000030517578
 10
172.6000061035156
 20
226.4000091552734
 10
172.4000091552734
 20
231.0000152587891
 10
174.4000091552734
 20
234.8000030517578
 10
177.0
 20
234.8000030517578
 10
179.6000061035156
 20
234.9000091552734
 10
181.8999938964844
 20
231.3000030517578
 10
182.0
 20
226.6999969482422
 10
182.1999969482422
 20
222.1000061035156
 10
180.1999969482422
 20
218.3999938964844
 10
177.6000061035156
 20
218.3000030517578
 97
        0
 97
        0
 92
        1
 93
        1
 72
     4
 94
        3
 73
     0
 74
     1
 95
       17
 96
       13
 40
0.0
 40
0.0
 40
0.0
 40
0.0
 40
1.0
 40
1.0
 40
1.0
 40
2.0
 40
2.0
 40
2.0
 40
3.0
 40
3.0
 40
3.0
 40
4.0
 40
4.0
 40
4.0
 40
4.0
 10
256.5
 20
221.1000061035156
 10
253.8999938964844
 20
221.0
 10
251.6000061035156
 20
224.6000061035156
 10
251.5
 20
229.2000122070312
 10
251.3000030517578
 20
233.8000183105469
 10
253.3000030517578
 20
237.6000061035156
 10
255.8999938964844
 20
237.6000061035156
 10
258.5
 20
237.7000122070312
 10
260.7999877929688
 20
234.1000061035156
 10
260.8999938964844
 20
229.5
 10
261.1000061035156
 20
225.0
 10
259.2000122070312
 20
221.1999969482422
 10
256.5
 20
221.1000061035156
 97
        0
 97
        0
 75
     2
 76
     1
 98
        0
  0
INSERT
  5
5C
330
4B
100
AcDbEntity
  8
Calque 1
100
AcDbBlockReference
  2
block 6
 10
0.0
 20
0.0
 30
0.0
  0
ENDBLK
  5
4E
330
4B
100
AcDbEntity
  8
0
100
AcDbBlockEnd
  0
BLOCK
  5
51
330
4F
100
AcDbEntity
  8
0
100
AcDbBlockBegin
  2
block 5
 70
     0
 10
0.0
 20
0.0
 30
0.0
  3
block 5
  1

  0
SPLINE
  5
53
330
4F
100
AcDbEntity
  8
Calque 1
370
     0
100
AcDbSpline
210
0.0
220
0.0
230
1.0
 70
    11
 71
     3
 72
    20
 73
    16
 74
     0
 42
0.0000000001
 43
0.0000000001
 12
1.0
 22
0.0
 32
0.0
 13
1.0
 23
0.0
 33
0.0
 40
0.0
 40
0.0
 40
0.0
 40
0.0
 40
1.0
 40
1.0
 40
1.0
 40
2.0
 40
2.0
 40
2.0
 40
3.0
 40
3.0
 40
3.0
 40
4.0
 40
4.0
 40
4.0
 40
5.0
 40
5.0
 40
5.0
 40
5.0
 10
282.5
 20
362.5
 30
0.0
 10
282.5
 20
362.5
 30
0.0
 10
282.2999877929688
 20
362.1999969482422
 30
0.0
 10
282.2999877929688
 20
362.1999969482422
 30
0.0
 10
281.7999877929688
 20
356.0999984741211
 30
0.0
 10
281.0
 20
342.1999969482422
 30
0.0
 10
285.0999755859375
 20
339.2999954223633
 30
0.0
 10
289.9999694824219
 20
335.8999938964844
 30
0.0
 10
304.8999633789062
 20
341.8999938964844
 30
0.0
 10
311.8999633789062
 20
345.0999984741211
 30
0.0
 10
311.8999633789062
 20
345.0999984741211
 30
0.0
 10
312.4999694824219
 20
346.0
 30
0.0
 10
312.4999694824219
 20
346.0
 30
0.0
 10
312.4999694824219
 20
346.0
 30
0.0
 10
282.5
 20
362.5
 30
0.0
 10
282.5
 20
362.5
 30
0.0
  0
HATCH
  5
54
330
4F
100
AcDbEntity
  8
Calque 1
 62
    11
420
 15695232
100
AcDbHatch
 10
0.0
 20
0.0
 30
0.0
210
0.0
220
0.0
230
1.0
  2
SOLID
 70
     1
 71
     0
 91
        1
 92
        1
 93
        1
 72
     4
 94
        3
 73
     0
 74
     1
 95
       20
 96
       16
 40
0.0
 40
0.0
 40
0.0
 40
0.0
 40
1.0
 40
1.0
 40
1.0
 40
2.0
 40
2.0
 40
2.0
 40
3.0
 40
3.0
 40
3.0
 40
4.0
 40
4.0
 40
4.0
 40
5.0
 40
5.0
 40
5.0
 40
5.0
 10
282.5
 20
362.5
 10
282.5
 20
362.5
 10
282.2999877929688
 20
362.1999969482422
 10
282.2999877929688
 20
362.1999969482422
 10
281.7999877929688
 20
356.0999984741211
 10
281.0
 20
342.1999969482422
 10
285.0999755859375
 20
339.2999954223633
 10
289.9999694824219
 20
335.8999938964844
 10
304.8999633789062
 20
341.8999938964844
 10
311.8999633789062
 20
345.0999984741211
 10
311.8999633789062
 20
345.0999984741211
 10
312.4999694824219
 20
346.0
 10
312.4999694824219
 20
346.0
 10
312.4999694824219
 20
346.0
 10
282.5
 20
362.5
 10
282.5
 20
362.5
 97
        0
 97
        0
 75
     2
 76
     1
 98
        0
  0
SPLINE
  5
55
330
4F
100
AcDbEntity
  8
Calque 1
370
     0
100
AcDbSpline
210
0.0
220
0.0
230
1.0
 70
    11
 71
     3
 72
    20
 73
    16
 74
     0
 42
0.0000000001
 43
0.0000000001
 12
1.0
 22
0.0
 32
0.0
 13
1.0
 23
0.0
 33
0.0
 40
0.0
 40
0.0
 40
0.0
 40
0.0
 40
1.0
 40
1.0
 40
1.0
 40
2.0
 40
2.0
 40
2.0
 40
3.0
 40
3.0
 40
3.0
 40
4.0
 40
4.0
 40
4.0
 40
5.0
 40
5.0
 40
5.0
 40
5.0
 10
147.5
 20
359.6999969482422
 30
0.0
 10
147.5
 20
359.6999969482422
 30
0.0
 10
118.0999984741211
 20
342.0
 30
0.0
 10
118.0999984741211
 20
342.0
 30
0.0
 10
118.0999984741211
 20
342.0
 30
0.0
 10
119.0
 20
341.0
 30
0.0
 10
119.0
 20
341.0
 30
0.0
 10
126.4000015258789
 20
338.0
 30
0.0
 10
141.3000030517578
 20
332.8000030517578
 30
0.0
 10
145.8999938964844
 20
336.4000015258789
 30
0.0
 10
149.8999938964844
 20
339.4000015258789
 30
0.0
 10
148.5999908447266
 20
353.1000061035156
 30
0.0
 10
147.7999877929688
 20
359.3000030517578
 30
0.0
 10
147.7999877929688
 20
359.3000030517578
 30
0.0
 10
147.5
 20
359.6999969482422
 30
0.0
 10
147.5
 20
359.6999969482422
 30
0.0
  0
HATCH
  5
56
330
4F
100
AcDbEntity
  8
Calque 1
 62
    11
420
 15695232
100
AcDbHatch
 10
0.0
 20
0.0
 30
0.0
210
0.0
220
0.0
230
1.0
  2
SOLID
 70
     1
 71
     0
 91
        1
 92
        1
 93
        1
 72
     4
 94
        3
 73
     0
 74
     1
 95
       20
 96
       16
 40
0.0
 40
0.0
 40
0.0
 40
0.0
 40
1.0
 40
1.0
 40
1.0
 40
2.0
 40
2.0
 40
2.0
 40
3.0
 40
3.0
 40
3.0
 40
4.0
 40
4.0
 40
4.0
 40
5.0
 40
5.0
 40
5.0
 40
5.0
 10
147.5
 20
359.6999969482422
 10
147.5
 20
359.6999969482422
 10
118.0999984741211
 20
342.0
 10
118.0999984741211
 20
342.0
 10
118.0999984741211
 20
342.0
 10
119.0
 20
341.0
 10
119.0
 20
341.0
 10
126.4000015258789
 20
338.0
 10
141.3000030517578
 20
332.8000030517578
 10
145.8999938964844
 20
336.4000015258789
 10
149.8999938964844
 20
339.4000015258789
 10
148.5999908447266
 20
353.1000061035156
 10
147.7999877929688
 20
359.3000030517578
 10
147.7999877929688
 20
359.3000030517578
 10
147.5
 20
359.6999969482422
 10
147.5
 20
359.6999969482422
 97
        0
 97
        0
 75
     2
 76
     1
 98
        0
  0
ENDBLK
  5
52
330
4F
100
AcDbEntity
  8
0
100
AcDbBlockEnd
  0
BLOCK
  5
5D
330
5B
100
AcDbEntity
  8
0
100
AcDbBlockBegin
  2
block 6
 70
     0
 10
0.0
 20
0.0
 30
0.0
  3
block 6
  1

  0
INSERT
  5
60
330
5B
100
AcDbEntity
  8
Calque 1
100
AcDbBlockReference
  2
block 7
 10
0.0
 20
0.0
 30
0.0
  0
INSERT
  5
6C
330
5B
100
AcDbEntity
  8
Calque 1
100
AcDbBlockReference
  2
block 9
 10
0.0
 20
0.0
 30
0.0
  0
ENDBLK
  5
5E
330
5B
100
AcDbEntity
  8
0
100
AcDbBlockEnd
  0
BLOCK
  5
61
330
5F
100
AcDbEntity
  8
0
100
AcDbBlockBegin
  2
block 7
 70
     0
 10
0.0
 20
0.0
 30
0.0
  3
block 7
  1

  0
SPLINE
  5
63
330
5F
100
AcDbEntity
  8
Calque 1
370
     0
100
AcDbSpline
210
0.0
220
0.0
230
1.0
 70
    11
 71
     3
 72
    17
 73
    13
 74
     0
 42
0.0000000001
 43
0.0000000001
 12
1.0
 22
0.0
 32
0.0
 13
1.0
 23
0.0
 33
0.0
 40
0.0
 40
0.0
 40
0.0
 40
0.0
 40
1.0
 40
1.0
 40
1.0
 40
2.0
 40
2.0
 40
2.0
 40
3.0
 40
3.0
 40
3.0
 40
4.0
 40
4.0
 40
4.0
 40
4.0
 10
168.8999938964844
 20
309.8000030517578
 30
0.0
 10
159.6999969482422
 20
309.9000015258789
 30
0.0
 10
152.0999908447266
 20
300.1000061035156
 30
0.0
 10
151.8999938964844
 20
287.9000091552734
 30
0.0
 10
151.6999969482422
 20
275.7000122070312
 30
0.0
 10
158.8999938964844
 20
265.7000122070312
 30
0.0
 10
168.0999908447266
 20
265.6000061035156
 30
0.0
 10
177.2999877929688
 20
265.5
 30
0.0
 10
184.8999938964844
 20
275.3000030517578
 30
0.0
 10
185.0999908447266
 20
287.5
 30
0.0
 10
185.3000030517578
 20
299.8000030517578
 30
0.0
 10
178.1000061035156
 20
309.6999969482422
 30
0.0
 10
168.8999938964844
 20
309.8000030517578
 30
0.0
  0
HATCH
  5
64
330
5F
100
AcDbEntity
  8
Calque 1
 62
   250
420
  3947579
100
AcDbHatch
 10
0.0
 20
0.0
 30
0.0
210
0.0
220
0.0
230
1.0
  2
SOLID
 70
     1
 71
     0
 91
        1
 92
        1
 93
        1
 72
     4
 94
        3
 73
     0
 74
     1
 95
       17
 96
       13
 40
0.0
 40
0.0
 40
0.0
 40
0.0
 40
1.0
 40
1.0
 40
1.0
 40
2.0
 40
2.0
 40
2.0
 40
3.0
 40
3.0
 40
3.0
 40
4.0
 40
4.0
 40
4.0
 40
4.0
 10
168.8999938964844
 20
309.8000030517578
 10
159.6999969482422
 20
309.9000015258789
 10
152.0999908447266
 20
300.1000061035156
 10
151.8999938964844
 20
287.9000091552734
 10
151.6999969482422
 20
275.7000122070312
 10
158.8999938964844
 20
265.7000122070312
 10
168.0999908447266
 20
265.6000061035156
 10
177.2999877929688
 20
265.5
 10
184.8999938964844
 20
275.3000030517578
 10
185.0999908447266
 20
287.5
 10
185.3000030517578
 20
299.8000030517578
 10
178.1000061035156
 20
309.6999969482422
 10
168.8999938964844
 20
309.8000030517578
 97
        0
 97
        0
 75
     2
 76
     1
 98
        0
  0
INSERT
  5
66
330
5F
100
AcDbEntity
  8
Calque 1
100
AcDbBlockReference
  2
block 8
 10
0.0
 20
0.0
 30
0.0
  0
ENDBLK
  5
62
330
5F
100
AcDbEntity
  8
0
100
AcDbBlockEnd
  0
BLOCK
  5
67
330
65
100
AcDbEntity
  8
0
100
AcDbBlockBegin
  2
block 8
 70
     0
 10
0.0
 20
0.0
 30
0.0
  3
block 8
  1

  0
SPLINE
  5
69
330
65
100
AcDbEntity
  8
Calque 1
370
     0
100
AcDbSpline
210
0.0
220
0.0
230
1.0
 70
    11
 71
     3
 72
    17
 73
    13
 74
     0
 42
0.0000000001
 43
0.0000000001
 12
1.0
 22
0.0
 32
0.0
 13
1.0
 23
0.0
 33
0.0
 40
0.0
 40
0.0
 40
0.0
 40
0.0
 40
1.0
 40
1.0
 40
1.0
 40
2.0
 40
2.0
 40
2.0
 40
3.0
 40
3.0
 40
3.0
 40
4.0
 40
4.0
 40
4.0
 40
4.0
 10
170.1999969482422
 20
281.3999938964844
 30
0.0
 10
174.8999938964844
 20
282.1999969482422
 30
0.0
 10
177.8999938964844
 20
287.7999877929688
 30
0.0
 10
176.8999938964844
 20
294.0
 30
0.0
 10
175.8999938964844
 20
300.1999969482422
 30
0.0
 10
171.3999938964844
 20
304.5999984741211
 30
0.0
 10
166.6999969482422
 20
303.8000030517578
 30
0.0
 10
162.0
 20
303.0
 30
0.0
 10
159.0
 20
297.4000091552734
 30
0.0
 10
160.0
 20
291.1999969482422
 30
0.0
 10
161.0
 20
285.0
 30
0.0
 10
165.6000061035156
 20
280.6000061035156
 30
0.0
 10
170.1999969482422
 20
281.3999938964844
 30
0.0
  0
SPLINE
  5
6A
330
65
100
AcDbEntity
  8
Calque 1
370
     0
100
AcDbSpline
210
0.0
220
0.0
230
1.0
 70
    11
 71
     3
 72
    17
 73
    13
 74
     0
 42
0.0000000001
 43
0.0000000001
 12
1.0
 22
0.0
 32
0.0
 13
1.0
 23
0.0
 33
0.0
 40
0.0
 40
0.0
 40
0.0
 40
0.0
 40
1.0
 40
1.0
 40
1.0
 40
2.0
 40
2.0
 40
2.0
 40
3.0
 40
3.0
 40
3.0
 40
4.0
 40
4.0
 40
4.0
 40
4.0
 10
170.0
 20
280.5
 30
0.0
 10
168.1999969482422
 20
280.0
 30
0.0
 10
167.3999938964844
 20
277.6999969482422
 30
0.0
 10
168.1000061035156
 20
275.3000030517578
 30
0.0
 10
168.8000030517578
 20
272.9000091552734
 30
0.0
 10
170.9000091552734
 20
271.3000030517578
 30
0.0
 10
172.7000122070312
 20
271.6999969482422
 30
0.0
 10
174.5000152587891
 20
272.1999969482422
 30
0.0
 10
175.3000183105469
 20
274.5
 30
0.0
 10
174.6000061035156
 20
276.8999938964844
 30
0.0
 10
173.8999938964844
 20
279.3000030517578
 30
0.0
 10
171.8000030517578
 20
280.8999938964844
 30
0.0
 10
170.0
 20
280.5
 30
0.0
  0
ENDBLK
  5
68
330
65
100
AcDbEntity
  8
0
100
AcDbBlockEnd
  0
BLOCK
  5
6D
330
6B
100
AcDbEntity
  8
0
100
AcDbBlockBegin
  2
block 9
 70
     0
 10
0.0
 20
0.0
 30
0.0
  3
block 9
  1

  0
SPLINE
  5
6F
330
6B
100
AcDbEntity
  8
Calque 1
370
     0
100
AcDbSpline
210
0.0
220
0.0
230
1.0
 70
    11
 71
     3
 72
    17
 73
    13
 74
     0
 42
0.0000000001
 43
0.0000000001
 12
1.0
 22
0.0
 32
0.0
 13
1.0
 23
0.0
 33
0.0
 40
0.0
 40
0.0
 40
0.0
 40
0.0
 40
1.0
 40
1.0
 40
1.0
 40
2.0
 40
2.0
 40
2.0
 40
3.0
 40
3.0
 40
3.0
 40
4.0
 40
4.0
 40
4.0
 40
4.0
 10
261.3999938964844
 20
309.8000030517578
 30
0.0
 10
252.1999969482422
 20
309.9000015258789
 30
0.0
 10
244.5999908447266
 20
300.1000061035156
 30
0.0
 10
244.3999938964844
 20
287.9000091552734
 30
0.0
 10
244.1999969482422
 20
275.7000122070312
 30
0.0
 10
251.3999938964844
 20
265.7000122070312
 30
0.0
 10
260.6000061035156
 20
265.6000061035156
 30
0.0
 10
269.8000183105469
 20
265.5
 30
0.0
 10
277.3999938964844
 20
275.3000030517578
 30
0.0
 10
277.6000061035156
 20
287.5
 30
0.0
 10
277.7999877929688
 20
299.8000030517578
 30
0.0
 10
270.6000061035156
 20
309.6999969482422
 30
0.0
 10
261.3999938964844
 20
309.8000030517578
 30
0.0
  0
HATCH
  5
70
330
6B
100
AcDbEntity
  8
Calque 1
 62
   250
420
  3947579
100
AcDbHatch
 10
0.0
 20
0.0
 30
0.0
210
0.0
220
0.0
230
1.0
  2
SOLID
 70
     1
 71
     0
 91
        1
 92
        1
 93
        1
 72
     4
 94
        3
 73
     0
 74
     1
 95
       17
 96
       13
 40
0.0
 40
0.0
 40
0.0
 40
0.0
 40
1.0
 40
1.0
 40
1.0
 40
2.0
 40
2.0
 40
2.0
 40
3.0
 40
3.0
 40
3.0
 40
4.0
 40
4.0
 40
4.0
 40
4.0
 10
261.3999938964844
 20
309.8000030517578
 10
252.1999969482422
 20
309.9000015258789
 10
244.5999908447266
 20
300.1000061035156
 10
244.3999938964844
 20
287.9000091552734
 10
244.1999969482422
 20
275.7000122070312
 10
251.3999938964844
 20
265.7000122070312
 10
260.6000061035156
 20
265.6000061035156
 10
269.8000183105469
 20
265.5
 10
277.3999938964844
 20
275.3000030517578
 10
277.6000061035156
 20
287.5
 10
277.7999877929688
 20
299.8000030517578
 10
270.6000061035156
 20
309.6999969482422
 10
261.3999938964844
 20
309.8000030517578
 97
        0
 97
        0
 75
     2
 76
     1
 98
        0
  0
INSERT
  5
72
330
6B
100
AcDbEntity
  8
Calque 1
100
AcDbBlockReference
  2
block 10
 10
0.0
 20
0.0
 30
0.0
  0
ENDBLK
  5
6E
330
6B
100
AcDbEntity
  8
0
100
AcDbBlockEnd
  0
BLOCK
  5
73
330
71
100
AcDbEntity
  8
0
100
AcDbBlockBegin
  2
block 10
 70
     0
 10
0.0
 20
0.0
 30
0.0
  3
block 10
  1

  0
SPLINE
  5
75
330
71
100
AcDbEntity
  8
Calque 1
370
     0
100
AcDbSpline
210
0.0
220
0.0
230
1.0
 70
    11
 71
     3
 72
    17
 73
    13
 74
     0
 42
0.0000000001
 43
0.0000000001
 12
1.0
 22
0.0
 32
0.0
 13
1.0
 23
0.0
 33
0.0
 40
0.0
 40
0.0
 40
0.0
 40
0.0
 40
1.0
 40
1.0
 40
1.0
 40
2.0
 40
2.0
 40
2.0
 40
3.0
 40
3.0
 40
3.0
 40
4.0
 40
4.0
 40
4.0
 40
4.0
 10
262.7000122070312
 20
281.3999938964844
 30
0.0
 10
267.4000244140625
 20
282.1999969482422
 30
0.0
 10
270.4000244140625
 20
287.7999877929688
 30
0.0
 10
269.4000244140625
 20
294.0
 30
0.0
 10
268.4000244140625
 20
300.1999969482422
 30
0.0
 10
263.9000244140625
 20
304.5999984741211
 30
0.0
 10
259.2000122070312
 20
303.8000030517578
 30
0.0
 10
254.5000152587891
 20
303.0
 30
0.0
 10
251.5000152587891
 20
297.4000091552734
 30
0.0
 10
252.5000152587891
 20
291.1999969482422
 30
0.0
 10
253.5
 20
285.0
 30
0.0
 10
258.1000061035156
 20
280.6000061035156
 30
0.0
 10
262.7000122070312
 20
281.3999938964844
 30
0.0
  0
SPLINE
  5
76
330
71
100
AcDbEntity
  8
Calque 1
370
     0
100
AcDbSpline
210
0.0
220
0.0
230
1.0
 70
    11
 71
     3
 72
    17
 73
    13
 74
     0
 42
0.0000000001
 43
0.0000000001
 12
1.0
 22
0.0
 32
0.0
 13
1.0
 23
0.0
 33
0.0
 40
0.0
 40
0.0
 40
0.0
 40
0.0
 40
1.0
 40
1.0
 40
1.0
 40
2.0
 40
2.0
 40
2.0
 40
3.0
 40
3.0
 40
3.0
 40
4.0
 40
4.0
 40
4.0
 40
4.0
 10
262.5
 20
280.5
 30
0.0
 10
260.7000122070312
 20
280.0
 30
0.0
 10
259.8999938964844
 20
277.6999969482422
 30
0.0
 10
260.6000061035156
 20
275.3000030517578
 30
0.0
 10
261.3000183105469
 20
272.9000091552734
 30
0.0
 10
263.3999938964844
 20
271.3000030517578
 30
0.0
 10
265.2000122070312
 20
271.6999969482422
 30
0.0
 10
267.0
 20
272.1999969482422
 30
0.0
 10
267.8000183105469
 20
274.5
 30
0.0
 10
267.1000061035156
 20
276.8999938964844
 30
0.0
 10
266.2999877929688
 20
279.3000030517578
 30
0.0
 10
264.2999877929688
 20
280.8999938964844
 30
0.0
 10
262.5
 20
280.5
 30
0.0
  0
ENDBLK
  5
74
330
71
100
AcDbEntity
  8
0
100
AcDbBlockEnd
  0
BLOCK
  5
7B
330
79
100
AcDbEntity
  8
0
100
AcDbBlockBegin
  2
block 11
 70
     0
 10
0.0
 20
0.0
 30
0.0
  3
block 11
  1

  0
POLYLINE
  5
7D
330
79
100
AcDbEntity
  8
Calque 1
370
     0
100
AcDb2dPolyline
 66
     1
 10
0.0
 20
0.0
 30
0.0
  0
VERTEX
  5
7E
330
7D
100
AcDbEntity
  8
Calque 1
370
     0
100
AcDbVertex
100
AcDb2dVertex
 10
177.1000061035156
 20
151.2999877929688
 30
0.0
  0
VERTEX
  5
7F
330
7D
100
AcDbEntity
  8
Calque 1
370
     0
100
AcDbVertex
100
AcDb2dVertex
 10
184.5
 20
69.5
 30
0.0
  0
VERTEX
  5
80
330
7D
100
AcDbEntity
  8
Calque 1
370
     0
100
AcDbVertex
100
AcDb2dVertex
 10
189.1999969482422
 20
79.89999389648438
 30
0.0
  0
VERTEX
  5
81
330
7D
100
AcDbEntity
  8
Calque 1
370
     0
100
AcDbVertex
100
AcDb2dVertex
 10
193.0
 20
69.5
 30
0.0
  0
VERTEX
  5
82
330
7D
100
AcDbEntity
  8
Calque 1
370
     0
100
AcDbVertex
100
AcDb2dVertex
 10
201.5
 20
151.2999877929688
 30
0.0
  0
VERTEX
  5
83
330
7D
100
AcDbEntity
  8
Calque 1
370
     0
100
AcDbVertex
100
AcDb2dVertex
 10
177.1000061035156
 20
151.2999877929688
 30
0.0
  0
SEQEND
  5
85
330
7D
100
AcDbEntity
  8
Calque 1
370
     0
  0
HATCH
  5
84
330
79
100
AcDbEntity
  8
Calque 1
 62
    21
420
 15441307
100
AcDbHatch
 10
0.0
 20
0.0
 30
0.0
210
0.0
220
0.0
230
1.0
  2
SOLID
 70
     1
 71
     0
 91
        1
 92
        1
 93
        5
 72
     1
 10
177.1000061035156
 20
151.2999877929688
 11
184.5
 21
69.5
 72
     1
 10
184.5
 20
69.5
 11
189.1999969482422
 21
79.89999389648438
 72
     1
 10
189.1999969482422
 20
79.89999389648438
 11
193.0
 21
69.5
 72
     1
 10
193.0
 20
69.5
 11
201.5
 21
151.2999877929688
 72
     1
 10
201.5
 20
151.2999877929688
 11
177.1000061035156
 21
151.2999877929688
 97
        0
 75
     2
 76
     1
 98
        0
  0
POLYLINE
  5
86
330
79
100
AcDbEntity
  8
Calque 1
370
     0
100
AcDb2dPolyline
 66
     1
 10
0.0
 20
0.0
 30
0.0
  0
VERTEX
  5
87
330
86
100
AcDbEntity
  8
Calque 1
370
     0
100
AcDbVertex
100
AcDb2dVertex
 10
189.1999969482422
 20
79.89999389648438
 30
0.0
  0
VERTEX
  5
88
330
86
100
AcDbEntity
  8
Calque 1
370
     0
100
AcDbVertex
100
AcDb2dVertex
 10
193.0
 20
69.5
 30
0.0
  0
VERTEX
  5
89
330
86
100
AcDbEntity
  8
Calque 1
370
     0
100
AcDbVertex
100
AcDb2dVertex
 10
194.8999938964844
 20
87.29998779296875
 30
0.0
  0
VERTEX
  5
8A
330
86
100
AcDbEntity
  8
Calque 1
370
     0
100
AcDbVertex
100
AcDb2dVertex
 10
182.8000030517578
 20
88.60000610351562
 30
0.0
  0
VERTEX
  5
8B
330
86
100
AcDbEntity
  8
Calque 1
370
     0
100
AcDbVertex
100
AcDb2dVertex
 10
184.5
 20
69.5
 30
0.0
  0
VERTEX
  5
8C
330
86
100
AcDbEntity
  8
Calque 1
370
     0
100
AcDbVertex
100
AcDb2dVertex
 10
189.1999969482422
 20
79.89999389648438
 30
0.0
  0
SEQEND
  5
8E
330
86
100
AcDbEntity
  8
Calque 1
370
     0
  0
HATCH
  5
8D
330
79
100
AcDbEntity
  8
Calque 1
 62
    11
420
 15695232
100
AcDbHatch
 10
0.0
 20
0.0
 30
0.0
210
0.0
220
0.0
230
1.0
  2
SOLID
 70
     1
 71
     0
 91
        1
 92
        1
 93
        5
 72
     1
 10
189.1999969482422
 20
79.89999389648438
 11
193.0
 21
69.5
 72
     1
 10
193.0
 20
69.5
 11
194.8999938964844
 21
87.29998779296875
 72
     1
 10
194.8999938964844
 20
87.29998779296875
 11
182.8000030517578
 21
88.60000610351562
 72
     1
 10
182.8000030517578
 20
88.60000610351562
 11
184.5
 21
69.5
 72
     1
 10
184.5
 20
69.5
 11
189.1999969482422
 21
79.89999389648438
 97
        0
 75
     2
 76
     1
 98
        0
  0
ENDBLK
  5
7C
330
79
100
AcDbEntity
  8
0
100
AcDbBlockEnd
  0
BLOCK
  5
B5
330
B3
100
AcDbEntity
  8
0
100
AcDbBlockBegin
  2
block 12
 70
     0
 10
0.0
 20
0.0
 30
0.0
  3
block 12
  1

  0
INSERT
  5
B8
330
B3
100
AcDbEntity
  8
Calque 1
100
AcDbBlockReference
  2
block 13
 10
0.0
 20
0.0
 30
0.0
  0
INSERT
  5
D0
330
B3
100
AcDbEntity
  8
Calque 1
100
AcDbBlockReference
  2
block 14
 10
0.0
 20
0.0
 30
0.0
  0
ENDBLK
  5
B6
330
B3
100
AcDbEntity
  8
0
100
AcDbBlockEnd
  0
BLOCK
  5
B9
330
B7
100
AcDbEntity
  8
0
100
AcDbBlockBegin
  2
block 13
 70
     0
 10
0.0
 20
0.0
 30
0.0
  3
block 13
  1

  0
SPLINE
  5
BB
330
B7
100
AcDbEntity
  8
Calque 1
370
     0
100
AcDbSpline
210
0.0
220
0.0
230
1.0
 70
    11
 71
     3
 72
    29
 73
    25
 74
     0
 42
0.0000000001
 43
0.0000000001
 12
1.0
 22
0.0
 32
0.0
 13
1.0
 23
0.0
 33
0.0
 40
0.0
 40
0.0
 40
0.0
 40
0.0
 40
1.0
 40
1.0
 40
1.0
 40
2.0
 40
2.0
 40
2.0
 40
3.0
 40
3.0
 40
3.0
 40
4.0
 40
4.0
 40
4.0
 40
5.0
 40
5.0
 40
5.0
 40
6.0
 40
6.0
 40
6.0
 40
7.0
 40
7.0
 40
7.0
 40
8.0
 40
8.0
 40
8.0
 40
8.0
 10
130.3000030517578
 20
152.2999877929688
 30
0.0
 10
129.1999969482422
 20
152.8999938964844
 30
0.0
 10
128.1000061035156
 20
152.1999816894531
 30
0.0
 10
127.5
 20
151.0999755859375
 30
0.0
 10
127.0
 20
150.1999816894531
 30
0.0
 10
127.0999984741211
 20
148.1999816894531
 30
0.0
 10
128.6000061035156
 20
146.8999633789062
 30
0.0
 10
128.4000091552734
 20
146.699951171875
 30
0.0
 10
125.6000061035156
 20
147.699951171875
 30
0.0
 10
124.4000091552734
 20
145.699951171875
 30
0.0
 10
123.3000106811523
 20
143.8999633789062
 30
0.0
 10
124.6000061035156
 20
142.0999450683594
 30
0.0
 10
126.8000106811523
 20
141.0999450683594
 30
0.0
 10
129.5000152587891
 20
139.8999328613281
 30
0.0
 10
132.2000122070312
 20
139.8999328613281
 30
0.0
 10
134.1000061035156
 20
140.5999450683594
 30
0.0
 10
136.1000061035156
 20
141.199951171875
 30
0.0
 10
137.3000030517578
 20
142.2999572753906
 30
0.0
 10
137.5
 20
142.9999389648438
 30
0.0
 10
137.8000030517578
 20
144.199951171875
 30
0.0
 10
136.6000061035156
 20
145.9999389648438
 30
0.0
 10
135.1000061035156
 20
147.7999267578125
 30
0.0
 10
133.6999969482422
 20
149.7000122070312
 30
0.0
 10
131.8999938964844
 20
151.5
 30
0.0
 10
130.3000030517578
 20
152.2999877929688
 30
0.0
  0
HATCH
  5
BC
330
B7
100
AcDbEntity
  8
Calque 1
 62
   242
420
 12457506
100
AcDbHatch
 10
0.0
 20
0.0
 30
0.0
210
0.0
220
0.0
230
1.0
  2
SOLID
 70
     1
 71
     0
 91
        1
 92
        1
 93
        1
 72
     4
 94
        3
 73
     0
 74
     1
 95
       29
 96
       25
 40
0.0
 40
0.0
 40
0.0
 40
0.0
 40
1.0
 40
1.0
 40
1.0
 40
2.0
 40
2.0
 40
2.0
 40
3.0
 40
3.0
 40
3.0
 40
4.0
 40
4.0
 40
4.0
 40
5.0
 40
5.0
 40
5.0
 40
6.0
 40
6.0
 40
6.0
 40
7.0
 40
7.0
 40
7.0
 40
8.0
 40
8.0
 40
8.0
 40
8.0
 10
130.3000030517578
 20
152.2999877929688
 10
129.1999969482422
 20
152.8999938964844
 10
128.1000061035156
 20
152.1999816894531
 10
127.5
 20
151.0999755859375
 10
127.0
 20
150.1999816894531
 10
127.0999984741211
 20
148.1999816894531
 10
128.6000061035156
 20
146.8999633789062
 10
128.4000091552734
 20
146.699951171875
 10
125.6000061035156
 20
147.699951171875
 10
124.4000091552734
 20
145.699951171875
 10
123.3000106811523
 20
143.8999633789062
 10
124.6000061035156
 20
142.0999450683594
 10
126.8000106811523
 20
141.0999450683594
 10
129.5000152587891
 20
139.8999328613281
 10
132.2000122070312
 20
139.8999328613281
 10
134.1000061035156
 20
140.5999450683594
 10
136.1000061035156
 20
141.199951171875
 10
137.3000030517578
 20
142.2999572753906
 10
137.5
 20
142.9999389648438
 10
137.8000030517578
 20
144.199951171875
 10
136.6000061035156
 20
145.9999389648438
 10
135.1000061035156
 20
147.7999267578125
 10
133.6999969482422
 20
149.7000122070312
 10
131.8999938964844
 20
151.5
 10
130.3000030517578
 20
152.2999877929688
 97
        0
 97
        0
 75
     2
 76
     1
 98
        0
  0
SPLINE
  5
BD
330
B7
100
AcDbEntity
  8
Calque 1
370
     0
100
AcDbSpline
210
0.0
220
0.0
230
1.0
 70
    11
 71
     3
 72
    23
 73
    19
 74
     0
 42
0.0000000001
 43
0.0000000001
 12
1.0
 22
0.0
 32
0.0
 13
1.0
 23
0.0
 33
0.0
 40
0.0
 40
0.0
 40
0.0
 40
0.0
 40
1.0
 40
1.0
 40
1.0
 40
2.0
 40
2.0
 40
2.0
 40
3.0
 40
3.0
 40
3.0
 40
4.0
 40
4.0
 40
4.0
 40
5.0
 40
5.0
 40
5.0
 40
6.0
 40
6.0
 40
6.0
 40
6.0
 10
96.5
 20
223.5
 30
0.0
 10
99.19999694824219
 20
225.1000061035156
 30
0.0
 10
98.80000305175781
 20
234.8999938964844
 30
0.0
 10
96.0999984741211
 20
239.3999938964844
 30
0.0
 10
95.0999984741211
 20
241.0
 30
0.0
 10
93.5
 20
241.0
 30
0.0
 10
92.0999984741211
 20
240.1999969482422
 30
0.0
 10
90.9000015258789
 20
239.5
 30
0.0
 10
89.79999542236328
 20
237.0999908447266
 30
0.0
 10
90.5
 20
234.6999969482422
 30
0.0
 10
90.19999694824219
 20
234.6999969482422
 30
0.0
 10
87.69999694824219
 20
237.6999969482422
 30
0.0
 10
85.19999694824219
 20
236.1999969482422
 30
0.0
 10
82.79999542236328
 20
234.8000030517578
 30
0.0
 10
83.0
 20
232.3000030517578
 30
0.0
 10
84.5
 20
229.8000030517578
 30
0.0
 10
88.0
 20
223.8999938964844
 30
0.0
 10
94.80000305175781
 20
222.5
 30
0.0
 10
96.5
 20
223.5
 30
0.0
  0
HATCH
  5
BE
330
B7
100
AcDbEntity
  8
Calque 1
 62
   242
420
 12457506
100
AcDbHatch
 10
0.0
 20
0.0
 30
0.0
210
0.0
220
0.0
230
1.0
  2
SOLID
 70
     1
 71
     0
 91
        1
 92
        1
 93
        1
 72
     4
 94
        3
 73
     0
 74
     1
 95
       23
 96
       19
 40
0.0
 40
0.0
 40
0.0
 40
0.0
 40
1.0
 40
1.0
 40
1.0
 40
2.0
 40
2.0
 40
2.0
 40
3.0
 40
3.0
 40
3.0
 40
4.0
 40
4.0
 40
4.0
 40
5.0
 40
5.0
 40
5.0
 40
6.0
 40
6.0
 40
6.0
 40
6.0
 10
96.5
 20
223.5
 10
99.19999694824219
 20
225.1000061035156
 10
98.80000305175781
 20
234.8999938964844
 10
96.0999984741211
 20
239.3999938964844
 10
95.0999984741211
 20
241.0
 10
93.5
 20
241.0
 10
92.0999984741211
 20
240.1999969482422
 10
90.9000015258789
 20
239.5
 10
89.79999542236328
 20
237.0999908447266
 10
90.5
 20
234.6999969482422
 10
90.19999694824219
 20
234.6999969482422
 10
87.69999694824219
 20
237.6999969482422
 10
85.19999694824219
 20
236.1999969482422
 10
82.79999542236328
 20
234.8000030517578
 10
83.0
 20
232.3000030517578
 10
84.5
 20
229.8000030517578
 10
88.0
 20
223.8999938964844
 10
94.80000305175781
 20
222.5
 10
96.5
 20
223.5
 97
        0
 97
        0
 75
     2
 76
     1
 98
        0
  0
SPLINE
  5
BF
330
B7
100
AcDbEntity
  8
Calque 1
370
     0
100
AcDbSpline
210
0.0
220
0.0
230
1.0
 70
    11
 71
     3
 72
    29
 73
    25
 74
     0
 42
0.0000000001
 43
0.0000000001
 12
1.0
 22
0.0
 32
0.0
 13
1.0
 23
0.0
 33
0.0
 40
0.0
 40
0.0
 40
0.0
 40
0.0
 40
1.0
 40
1.0
 40
1.0
 40
2.0
 40
2.0
 40
2.0
 40
3.0
 40
3.0
 40
3.0
 40
4.0
 40
4.0
 40
4.0
 40
5.0
 40
5.0
 40
5.0
 40
6.0
 40
6.0
 40
6.0
 40
7.0
 40
7.0
 40
7.0
 40
8.0
 40
8.0
 40
8.0
 40
8.0
 10
76.30000305175781
 20
269.5
 30
0.0
 10
77.5
 20
269.6000061035156
 30
0.0
 10
78.70000457763672
 20
271.3000030517578
 30
0.0
 10
79.80000305175781
 20
273.3999938964844
 30
0.0
 10
80.9000015258789
 20
275.3999938964844
 30
0.0
 10
81.80000305175781
 20
277.7999877929688
 30
0.0
 10
81.9000015258789
 20
279.5999908447266
 30
0.0
 10
82.0
 20
280.8999938964844
 30
0.0
 10
81.0
 20
281.4999847412109
 30
0.0
 10
79.80000305175781
 20
281.6999969482422
 30
0.0
 10
78.80000305175781
 20
281.8000030517578
 30
0.0
 10
77.10000610351562
 20
280.8999938964844
 30
0.0
 10
76.5
 20
279.0999908447266
 30
0.0
 10
76.30000305175781
 20
279.1999969482422
 30
0.0
 10
76.0999984741211
 20
282.0999908447266
 30
0.0
 10
73.9000015258789
 20
282.2999877929688
 30
0.0
 10
71.9000015258789
 20
282.4999847412109
 30
0.0
 10
70.80000305175781
 20
280.7999877929688
 30
0.0
 10
70.80000305175781
 20
278.4999847412109
 30
0.0
 10
70.70000457763672
 20
275.6999816894531
 30
0.0
 10
71.70000457763672
 20
273.3999786376953
 30
0.0
 10
73.0
 20
271.8999786376953
 30
0.0
 10
74.19999694824219
 20
270.1999969482422
 30
0.0
 10
75.5999984741211
 20
269.3999938964844
 30
0.0
 10
76.30000305175781
 20
269.5
 30
0.0
  0
HATCH
  5
C0
330
B7
100
AcDbEntity
  8
Calque 1
 62
   242
420
 12457506
100
AcDbHatch
 10
0.0
 20
0.0
 30
0.0
210
0.0
220
0.0
230
1.0
  2
SOLID
 70
     1
 71
     0
 91
        1
 92
        1
 93
        1
 72
     4
 94
        3
 73
     0
 74
     1
 95
       29
 96
       25
 40
0.0
 40
0.0
 40
0.0
 40
0.0
 40
1.0
 40
1.0
 40
1.0
 40
2.0
 40
2.0
 40
2.0
 40
3.0
 40
3.0
 40
3.0
 40
4.0
 40
4.0
 40
4.0
 40
5.0
 40
5.0
 40
5.0
 40
6.0
 40
6.0
 40
6.0
 40
7.0
 40
7.0
 40
7.0
 40
8.0
 40
8.0
 40
8.0
 40
8.0
 10
76.30000305175781
 20
269.5
 10
77.5
 20
269.6000061035156
 10
78.70000457763672
 20
271.3000030517578
 10
79.80000305175781
 20
273.3999938964844
 10
80.9000015258789
 20
275.3999938964844
 10
81.80000305175781
 20
277.7999877929688
 10
81.9000015258789
 20
279.5999908447266
 10
82.0
 20
280.8999938964844
 10
81.0
 20
281.4999847412109
 10
79.80000305175781
 20
281.6999969482422
 10
78.80000305175781
 20
281.8000030517578
 10
77.10000610351562
 20
280.8999938964844
 10
76.5
 20
279.0999908447266
 10
76.30000305175781
 20
279.1999969482422
 10
76.0999984741211
 20
282.0999908447266
 10
73.9000015258789
 20
282.2999877929688
 10
71.9000015258789
 20
282.4999847412109
 10
70.80000305175781
 20
280.7999877929688
 10
70.80000305175781
 20
278.4999847412109
 10
70.70000457763672
 20
275.6999816894531
 10
71.70000457763672
 20
273.3999786376953
 10
73.0
 20
271.8999786376953
 10
74.19999694824219
 20
270.1999969482422
 10
75.5999984741211
 20
269.3999938964844
 10
76.30000305175781
 20
269.5
 97
        0
 97
        0
 75
     2
 76
     1
 98
        0
  0
SPLINE
  5
C1
330
B7
100
AcDbEntity
  8
Calque 1
370
     0
100
AcDbSpline
210
0.0
220
0.0
230
1.0
 70
    11
 71
     3
 72
    32
 73
    28
 74
     0
 42
0.0000000001
 43
0.0000000001
 12
1.0
 22
0.0
 32
0.0
 13
1.0
 23
0.0
 33
0.0
 40
0.0
 40
0.0
 40
0.0
 40
0.0
 40
1.0
 40
1.0
 40
1.0
 40
2.0
 40
2.0
 40
2.0
 40
3.0
 40
3.0
 40
3.0
 40
4.0
 40
4.0
 40
4.0
 40
5.0
 40
5.0
 40
5.0
 40
6.0
 40
6.0
 40
6.0
 40
7.0
 40
7.0
 40
7.0
 40
8.0
 40
8.0
 40
8.0
 40
9.0
 40
9.0
 40
9.0
 40
9.0
 10
91.0999984741211
 20
269.1000061035156
 30
0.0
 10
92.4000015258789
 20
268.6000061035156
 30
0.0
 10
94.5999984741211
 20
269.7000122070312
 30
0.0
 10
96.79999542236328
 20
271.0
 30
0.0
 10
98.99999237060547
 20
272.3999938964844
 30
0.0
 10
101.2999954223633
 20
274.0
 30
0.0
 10
102.4999923706055
 20
275.5
 30
0.0
 10
103.2999954223633
 20
276.6000061035156
 30
0.0
 10
102.7999954223633
 20
277.8999938964844
 30
0.0
 10
101.6999893188477
 20
278.8000030517578
 30
0.0
 10
100.7999877929688
 20
279.6000061035156
 30
0.0
 10
98.59999084472656
 20
279.9000091552734
 30
0.0
 10
96.89998626708984
 20
278.5
 30
0.0
 10
96.79998779296875
 20
278.6000061035156
 30
0.0
 10
97.19998931884766
 20
279.3999938964844
 30
0.0
 10
97.29998779296875
 20
280.3999938964844
 30
0.0
 10
97.39998626708984
 20
281.3999938964844
 30
0.0
 10
97.39998626708984
 20
282.5
 30
0.0
 10
96.39998626708984
 20
283.3999938964844
 30
0.0
 10
94.59998321533203
 20
284.8999938964844
 30
0.0
 10
92.39998626708984
 20
283.8999938964844
 30
0.0
 10
90.79998779296875
 20
281.5999908447266
 30
0.0
 10
88.89998626708984
 20
278.7999877929688
 30
0.0
 10
88.49998474121094
 20
275.6999969482422
 30
0.0
 10
88.89998626708984
 20
273.3999938964844
 30
0.0
 10
89.30000305175781
 20
271.0
 30
0.0
 10
90.30000305175781
 20
269.3999938964844
 30
0.0
 10
91.0999984741211
 20
269.1000061035156
 30
0.0
  0
HATCH
  5
C2
330
B7
100
AcDbEntity
  8
Calque 1
 62
   242
420
 12457506
100
AcDbHatch
 10
0.0
 20
0.0
 30
0.0
210
0.0
220
0.0
230
1.0
  2
SOLID
 70
     1
 71
     0
 91
        1
 92
        1
 93
        1
 72
     4
 94
        3
 73
     0
 74
     1
 95
       32
 96
       28
 40
0.0
 40
0.0
 40
0.0
 40
0.0
 40
1.0
 40
1.0
 40
1.0
 40
2.0
 40
2.0
 40
2.0
 40
3.0
 40
3.0
 40
3.0
 40
4.0
 40
4.0
 40
4.0
 40
5.0
 40
5.0
 40
5.0
 40
6.0
 40
6.0
 40
6.0
 40
7.0
 40
7.0
 40
7.0
 40
8.0
 40
8.0
 40
8.0
 40
9.0
 40
9.0
 40
9.0
 40
9.0
 10
91.0999984741211
 20
269.1000061035156
 10
92.4000015258789
 20
268.6000061035156
 10
94.5999984741211
 20
269.7000122070312
 10
96.79999542236328
 20
271.0
 10
98.99999237060547
 20
272.3999938964844
 10
101.2999954223633
 20
274.0
 10
102.4999923706055
 20
275.5
 10
103.2999954223633
 20
276.6000061035156
 10
102.7999954223633
 20
277.8999938964844
 10
101.6999893188477
 20
278.8000030517578
 10
100.7999877929688
 20
279.6000061035156
 10
98.59999084472656
 20
279.9000091552734
 10
96.89998626708984
 20
278.5
 10
96.79998779296875
 20
278.6000061035156
 10
97.19998931884766
 20
279.3999938964844
 10
97.29998779296875
 20
280.3999938964844
 10
97.39998626708984
 20
281.3999938964844
 10
97.39998626708984
 20
282.5
 10
96.39998626708984
 20
283.3999938964844
 10
94.59998321533203
 20
284.8999938964844
 10
92.39998626708984
 20
283.8999938964844
 10
90.79998779296875
 20
281.5999908447266
 10
88.89998626708984
 20
278.7999877929688
 10
88.49998474121094
 20
275.6999969482422
 10
88.89998626708984
 20
273.3999938964844
 10
89.30000305175781
 20
271.0
 10
90.30000305175781
 20
269.3999938964844
 10
91.0999984741211
 20
269.1000061035156
 97
        0
 97
        0
 75
     2
 76
     1
 98
        0
  0
SPLINE
  5
C3
330
B7
100
AcDbEntity
  8
Calque 1
370
     0
100
AcDbSpline
210
0.0
220
0.0
230
1.0
 70
    11
 71
     3
 72
    29
 73
    25
 74
     0
 42
0.0000000001
 43
0.0000000001
 12
1.0
 22
0.0
 32
0.0
 13
1.0
 23
0.0
 33
0.0
 40
0.0
 40
0.0
 40
0.0
 40
0.0
 40
1.0
 40
1.0
 40
1.0
 40
2.0
 40
2.0
 40
2.0
 40
3.0
 40
3.0
 40
3.0
 40
4.0
 40
4.0
 40
4.0
 40
5.0
 40
5.0
 40
5.0
 40
6.0
 40
6.0
 40
6.0
 40
7.0
 40
7.0
 40
7.0
 40
8.0
 40
8.0
 40
8.0
 40
8.0
 10
73.19999694824219
 20
239.3999938964844
 30
0.0
 10
74.39999389648438
 20
239.3999938964844
 30
0.0
 10
75.89999389648438
 20
241.1999969482422
 30
0.0
 10
77.19999694824219
 20
243.3999938964844
 30
0.0
 10
78.39999389648438
 20
245.5999908447266
 30
0.0
 10
79.39999389648438
 20
248.1999969482422
 30
0.0
 10
79.5
 20
250.1999969482422
 30
0.0
 10
79.5999984741211
 20
251.5999908447266
 30
0.0
 10
78.5
 20
252.3000030517578
 30
0.0
 10
77.19999694824219
 20
252.3999938964844
 30
0.0
 10
76.0999984741211
 20
252.5
 30
0.0
 10
74.29999542236328
 20
251.5
 30
0.0
 10
73.69999694824219
 20
249.5
 30
0.0
 10
73.5
 20
249.6000061035156
 30
0.0
 10
73.19999694824219
 20
252.6999969482422
 30
0.0
 10
70.89999389648438
 20
252.8000030517578
 30
0.0
 10
68.69999694824219
 20
253.0
 30
0.0
 10
67.69999694824219
 20
251.1999969482422
 30
0.0
 10
67.59999084472656
 20
248.8000030517578
 30
0.0
 10
67.49999237060547
 20
246.0
 30
0.0
 10
68.49999237060547
 20
243.6000061035156
 30
0.0
 10
69.69998931884766
 20
241.9000091552734
 30
0.0
 10
71.0
 20
240.3000030517578
 30
0.0
 10
72.4000015258789
 20
239.3999938964844
 30
0.0
 10
73.19999694824219
 20
239.3999938964844
 30
0.0
  0
HATCH
  5
C4
330
B7
100
AcDbEntity
  8
Calque 1
 62
   242
420
 12457506
100
AcDbHatch
 10
0.0
 20
0.0
 30
0.0
210
0.0
220
0.0
230
1.0
  2
SOLID
 70
     1
 71
     0
 91
        1
 92
        1
 93
        1
 72
     4
 94
        3
 73
     0
 74
     1
 95
       29
 96
       25
 40
0.0
 40
0.0
 40
0.0
 40
0.0
 40
1.0
 40
1.0
 40
1.0
 40
2.0
 40
2.0
 40
2.0
 40
3.0
 40
3.0
 40
3.0
 40
4.0
 40
4.0
 40
4.0
 40
5.0
 40
5.0
 40
5.0
 40
6.0
 40
6.0
 40
6.0
 40
7.0
 40
7.0
 40
7.0
 40
8.0
 40
8.0
 40
8.0
 40
8.0
 10
73.19999694824219
 20
239.3999938964844
 10
74.39999389648438
 20
239.3999938964844
 10
75.89999389648438
 20
241.1999969482422
 10
77.19999694824219
 20
243.3999938964844
 10
78.39999389648438
 20
245.5999908447266
 10
79.39999389648438
 20
248.1999969482422
 10
79.5
 20
250.1999969482422
 10
79.5999984741211
 20
251.5999908447266
 10
78.5
 20
252.3000030517578
 10
77.19999694824219
 20
252.3999938964844
 10
76.0999984741211
 20
252.5
 10
74.29999542236328
 20
251.5
 10
73.69999694824219
 20
249.5
 10
73.5
 20
249.6000061035156
 10
73.19999694824219
 20
252.6999969482422
 10
70.89999389648438
 20
252.8000030517578
 10
68.69999694824219
 20
253.0
 10
67.69999694824219
 20
251.1999969482422
 10
67.59999084472656
 20
248.8000030517578
 10
67.49999237060547
 20
246.0
 10
68.49999237060547
 20
243.6000061035156
 10
69.69998931884766
 20
241.9000091552734
 10
71.0
 20
240.3000030517578
 10
72.4000015258789
 20
239.3999938964844
 10
73.19999694824219
 20
239.3999938964844
 97
        0
 97
        0
 75
     2
 76
     1
 98
        0
  0
SPLINE
  5
C5
330
B7
100
AcDbEntity
  8
Calque 1
370
     0
100
AcDbSpline
210
0.0
220
0.0
230
1.0
 70
    11
 71
     3
 72
    35
 73
    31
 74
     0
 42
0.0000000001
 43
0.0000000001
 12
1.0
 22
0.0
 32
0.0
 13
1.0
 23
0.0
 33
0.0
 40
0.0
 40
0.0
 40
0.0
 40
0.0
 40
1.0
 40
1.0
 40
1.0
 40
2.0
 40
2.0
 40
2.0
 40
3.0
 40
3.0
 40
3.0
 40
4.0
 40
4.0
 40
4.0
 40
5.0
 40
5.0
 40
5.0
 40
6.0
 40
6.0
 40
6.0
 40
7.0
 40
7.0
 40
7.0
 40
8.0
 40
8.0
 40
8.0
 40
9.0
 40
9.0
 40
9.0
 40
10.0
 40
10.0
 40
10.0
 40
10.0
 10
74.9000015258789
 20
225.6000061035156
 30
0.0
 10
74.0
 20
227.9000091552734
 30
0.0
 10
71.5999984741211
 20
228.3000030517578
 30
0.0
 10
69.20000457763672
 20
227.5
 30
0.0
 10
67.20000457763672
 20
226.8000030517578
 30
0.0
 10
64.70000457763672
 20
223.6999969482422
 30
0.0
 10
65.30000305175781
 20
219.8000030517578
 30
0.0
 10
65.10000610351562
 20
219.8000030517578
 30
0.0
 10
64.20000457763672
 20
221.1000061035156
 30
0.0
 10
62.90000152587891
 20
222.1999969482422
 30
0.0
 10
61.60000228881836
 20
223.3000030517578
 30
0.0
 10
59.80000305175781
 20
224.3000030517578
 30
0.0
 10
57.60000228881836
 20
223.5999908447266
 30
0.0
 10
55.60000228881836
 20
222.8999938964844
 30
0.0
 10
54.50000381469727
 20
221.4999847412109
 30
0.0
 10
54.10000228881836
 20
219.6999969482422
 30
0.0
 10
53.70000076293945
 20
217.8999938964844
 30
0.0
 10
54.10000228881836
 20
215.6999969482422
 30
0.0
 10
55.10000228881836
 20
213.3999938964844
 30
0.0
 10
57.50000381469727
 20
208.0
 30
0.0
 10
61.70000076293945
 20
204.5999908447266
 30
0.0
 10
65.5
 20
202.8999938964844
 30
0.0
 10
69.30000305175781
 20
201.2999877929688
 30
0.0
 10
72.5999984741211
 20
201.2999877929688
 30
0.0
 10
73.80000305175781
 20
202.1999969482422
 30
0.0
 10
75.80000305175781
 20
203.5999908447266
 30
0.0
 10
76.30000305175781
 20
208.0
 30
0.0
 10
76.4000015258789
 20
212.5999908447266
 30
0.0
 10
76.5999984741211
 20
217.3999938964844
 30
0.0
 10
76.19999694824219
 20
222.3000030517578
 30
0.0
 10
74.9000015258789
 20
225.6000061035156
 30
0.0
  0
HATCH
  5
C6
330
B7
100
AcDbEntity
  8
Calque 1
 62
   242
420
 12457506
100
AcDbHatch
 10
0.0
 20
0.0
 30
0.0
210
0.0
220
0.0
230
1.0
  2
SOLID
 70
     1
 71
     0
 91
        1
 92
        1
 93
        1
 72
     4
 94
        3
 73
     0
 74
     1
 95
       35
 96
       31
 40
0.0
 40
0.0
 40
0.0
 40
0.0
 40
1.0
 40
1.0
 40
1.0
 40
2.0
 40
2.0
 40
2.0
 40
3.0
 40
3.0
 40
3.0
 40
4.0
 40
4.0
 40
4.0
 40
5.0
 40
5.0
 40
5.0
 40
6.0
 40
6.0
 40
6.0
 40
7.0
 40
7.0
 40
7.0
 40
8.0
 40
8.0
 40
8.0
 40
9.0
 40
9.0
 40
9.0
 40
10.0
 40
10.0
 40
10.0
 40
10.0
 10
74.9000015258789
 20
225.6000061035156
 10
74.0
 20
227.9000091552734
 10
71.5999984741211
 20
228.3000030517578
 10
69.20000457763672
 20
227.5
 10
67.20000457763672
 20
226.8000030517578
 10
64.70000457763672
 20
223.6999969482422
 10
65.30000305175781
 20
219.8000030517578
 10
65.10000610351562
 20
219.8000030517578
 10
64.20000457763672
 20
221.1000061035156
 10
62.90000152587891
 20
222.1999969482422
 10
61.60000228881836
 20
223.3000030517578
 10
59.80000305175781
 20
224.3000030517578
 10
57.60000228881836
 20
223.5999908447266
 10
55.60000228881836
 20
222.8999938964844
 10
54.50000381469727
 20
221.4999847412109
 10
54.10000228881836
 20
219.6999969482422
 10
53.70000076293945
 20
217.8999938964844
 10
54.10000228881836
 20
215.6999969482422
 10
55.10000228881836
 20
213.3999938964844
 10
57.50000381469727
 20
208.0
 10
61.70000076293945
 20
204.5999908447266
 10
65.5
 20
202.8999938964844
 10
69.30000305175781
 20
201.2999877929688
 10
72.5999984741211
 20
201.2999877929688
 10
73.80000305175781
 20
202.1999969482422
 10
75.80000305175781
 20
203.5999908447266
 10
76.30000305175781
 20
208.0
 10
76.4000015258789
 20
212.5999908447266
 10
76.5999984741211
 20
217.3999938964844
 10
76.19999694824219
 20
222.3000030517578
 10
74.9000015258789
 20
225.6000061035156
 97
        0
 97
        0
 75
     2
 76
     1
 98
        0
  0
SPLINE
  5
C7
330
B7
100
AcDbEntity
  8
Calque 1
370
     0
100
AcDbSpline
210
0.0
220
0.0
230
1.0
 70
    11
 71
     3
 72
    29
 73
    25
 74
     0
 42
0.0000000001
 43
0.0000000001
 12
1.0
 22
0.0
 32
0.0
 13
1.0
 23
0.0
 33
0.0
 40
0.0
 40
0.0
 40
0.0
 40
0.0
 40
1.0
 40
1.0
 40
1.0
 40
2.0
 40
2.0
 40
2.0
 40
3.0
 40
3.0
 40
3.0
 40
4.0
 40
4.0
 40
4.0
 40
5.0
 40
5.0
 40
5.0
 40
6.0
 40
6.0
 40
6.0
 40
7.0
 40
7.0
 40
7.0
 40
8.0
 40
8.0
 40
8.0
 40
8.0
 10
91.0
 20
175.7000122070312
 30
0.0
 10
89.5
 20
178.6000061035156
 30
0.0
 10
87.4000015258789
 20
181.6000061035156
 30
0.0
 10
85.30000305175781
 20
183.2000122070312
 30
0.0
 10
83.80000305175781
 20
184.3000183105469
 30
0.0
 10
82.30000305175781
 20
183.7000122070312
 30
0.0
 10
81.20000457763672
 20
182.3000183105469
 30
0.0
 10
80.30000305175781
 20
181.2000122070312
 30
0.0
 10
80.10000610351562
 20
178.4000244140625
 30
0.0
 10
81.80000305175781
 20
176.4000244140625
 30
0.0
 10
81.60000610351562
 20
176.3000183105469
 30
0.0
 10
77.9000015258789
 20
178.1000213623047
 30
0.0
 10
76.10000610351562
 20
175.7000122070312
 30
0.0
 10
74.40000915527344
 20
173.4000244140625
 30
0.0
 10
75.60000610351562
 20
171.0
 30
0.0
 10
78.10000610351562
 20
169.2000122070312
 30
0.0
 10
81.10000610351562
 20
167.0
 30
0.0
 10
84.50000762939453
 20
166.4000244140625
 30
0.0
 10
87.20000457763672
 20
166.6000061035156
 30
0.0
 10
89.9000015258789
 20
166.8000183105469
 30
0.0
 10
91.9000015258789
 20
167.7000122070312
 30
0.0
 10
92.50000762939453
 20
168.6000061035156
 30
0.0
 10
93.30000305175781
 20
169.8999938964844
 30
0.0
 10
92.4000015258789
 20
172.7999877929688
 30
0.0
 10
91.0
 20
175.7000122070312
 30
0.0
  0
HATCH
  5
C8
330
B7
100
AcDbEntity
  8
Calque 1
 62
   242
420
 12457506
100
AcDbHatch
 10
0.0
 20
0.0
 30
0.0
210
0.0
220
0.0
230
1.0
  2
SOLID
 70
     1
 71
     0
 91
        1
 92
        1
 93
        1
 72
     4
 94
        3
 73
     0
 74
     1
 95
       29
 96
       25
 40
0.0
 40
0.0
 40
0.0
 40
0.0
 40
1.0
 40
1.0
 40
1.0
 40
2.0
 40
2.0
 40
2.0
 40
3.0
 40
3.0
 40
3.0
 40
4.0
 40
4.0
 40
4.0
 40
5.0
 40
5.0
 40
5.0
 40
6.0
 40
6.0
 40
6.0
 40
7.0
 40
7.0
 40
7.0
 40
8.0
 40
8.0
 40
8.0
 40
8.0
 10
91.0
 20
175.7000122070312
 10
89.5
 20
178.6000061035156
 10
87.4000015258789
 20
181.6000061035156
 10
85.30000305175781
 20
183.2000122070312
 10
83.80000305175781
 20
184.3000183105469
 10
82.30000305175781
 20
183.7000122070312
 10
81.20000457763672
 20
182.3000183105469
 10
80.30000305175781
 20
181.2000122070312
 10
80.10000610351562
 20
178.4000244140625
 10
81.80000305175781
 20
176.4000244140625
 10
81.60000610351562
 20
176.3000183105469
 10
77.9000015258789
 20
178.1000213623047
 10
76.10000610351562
 20
175.7000122070312
 10
74.40000915527344
 20
173.4000244140625
 10
75.60000610351562
 20
171.0
 10
78.10000610351562
 20
169.2000122070312
 10
81.10000610351562
 20
167.0
 10
84.50000762939453
 20
166.4000244140625
 10
87.20000457763672
 20
166.6000061035156
 10
89.9000015258789
 20
166.8000183105469
 10
91.9000015258789
 20
167.7000122070312
 10
92.50000762939453
 20
168.6000061035156
 10
93.30000305175781
 20
169.8999938964844
 10
92.4000015258789
 20
172.7999877929688
 10
91.0
 20
175.7000122070312
 97
        0
 97
        0
 75
     2
 76
     1
 98
        0
  0
SPLINE
  5
C9
330
B7
100
AcDbEntity
  8
Calque 1
370
     0
100
AcDbSpline
210
0.0
220
0.0
230
1.0
 70
    11
 71
     3
 72
    35
 73
    31
 74
     0
 42
0.0000000001
 43
0.0000000001
 12
1.0
 22
0.0
 32
0.0
 13
1.0
 23
0.0
 33
0.0
 40
0.0
 40
0.0
 40
0.0
 40
0.0
 40
1.0
 40
1.0
 40
1.0
 40
2.0
 40
2.0
 40
2.0
 40
3.0
 40
3.0
 40
3.0
 40
4.0
 40
4.0
 40
4.0
 40
5.0
 40
5.0
 40
5.0
 40
6.0
 40
6.0
 40
6.0
 40
7.0
 40
7.0
 40
7.0
 40
8.0
 40
8.0
 40
8.0
 40
9.0
 40
9.0
 40
9.0
 40
10.0
 40
10.0
 40
10.0
 40
10.0
 10
113.6999969482422
 20
148.8999938964844
 30
0.0
 10
110.0999984741211
 20
152.0
 30
0.0
 10
106.0999984741211
 20
154.8999938964844
 30
0.0
 10
102.6999969482422
 20
156.1000061035156
 30
0.0
 10
100.2999954223633
 20
156.8999938964844
 30
0.0
 10
98.5
 20
155.3999938964844
 30
0.0
 10
97.5
 20
153.0
 30
0.0
 10
96.69999694824219
 20
151.0
 30
0.0
 10
97.4000015258789
 20
147.0
 30
0.0
 10
100.8000030517578
 20
144.8999938964844
 30
0.0
 10
100.7000045776367
 20
144.7999877929688
 30
0.0
 10
99.10000610351562
 20
144.8999938964844
 30
0.0
 10
97.30000305175781
 20
144.6000061035156
 30
0.0
 10
95.60000610351562
 20
144.3000183105469
 30
0.0
 10
93.60000610351562
 20
143.6000061035156
 30
0.0
 10
92.70000457763672
 20
141.3999938964844
 30
0.0
 10
91.9000015258789
 20
139.3999938964844
 30
0.0
 10
92.20000457763672
 20
137.6000061035156
 30
0.0
 10
93.4000015258789
 20
136.1000061035156
 30
0.0
 10
94.5999984741211
 20
134.6000061035156
 30
0.0
 10
96.5999984741211
 20
133.5
 30
0.0
 10
99.0
 20
132.7000122070312
 30
0.0
 10
104.9000015258789
 20
131.0
 30
0.0
 10
110.4000015258789
 20
132.0
 30
0.0
 10
114.0999984741211
 20
133.9000244140625
 30
0.0
 10
117.9000015258789
 20
135.8000183105469
 30
0.0
 10
119.9000015258789
 20
138.5000305175781
 30
0.0
 10
120.0999984741211
 20
140.0000305175781
 30
0.0
 10
120.3000030517578
 20
142.5
 30
0.0
 10
117.1999969482422
 20
145.7999877929688
 30
0.0
 10
113.6999969482422
 20
148.8999938964844
 30
0.0
  0
HATCH
  5
CA
330
B7
100
AcDbEntity
  8
Calque 1
 62
   242
420
 12457506
100
AcDbHatch
 10
0.0
 20
0.0
 30
0.0
210
0.0
220
0.0
230
1.0
  2
SOLID
 70
     1
 71
     0
 91
        1
 92
        1
 93
        1
 72
     4
 94
        3
 73
     0
 74
     1
 95
       35
 96
       31
 40
0.0
 40
0.0
 40
0.0
 40
0.0
 40
1.0
 40
1.0
 40
1.0
 40
2.0
 40
2.0
 40
2.0
 40
3.0
 40
3.0
 40
3.0
 40
4.0
 40
4.0
 40
4.0
 40
5.0
 40
5.0
 40
5.0
 40
6.0
 40
6.0
 40
6.0
 40
7.0
 40
7.0
 40
7.0
 40
8.0
 40
8.0
 40
8.0
 40
9.0
 40
9.0
 40
9.0
 40
10.0
 40
10.0
 40
10.0
 40
10.0
 10
113.6999969482422
 20
148.8999938964844
 10
110.0999984741211
 20
152.0
 10
106.0999984741211
 20
154.8999938964844
 10
102.6999969482422
 20
156.1000061035156
 10
100.2999954223633
 20
156.8999938964844
 10
98.5
 20
155.3999938964844
 10
97.5
 20
153.0
 10
96.69999694824219
 20
151.0
 10
97.4000015258789
 20
147.0
 10
100.8000030517578
 20
144.8999938964844
 10
100.7000045776367
 20
144.7999877929688
 10
99.10000610351562
 20
144.8999938964844
 10
97.30000305175781
 20
144.6000061035156
 10
95.60000610351562
 20
144.3000183105469
 10
93.60000610351562
 20
143.6000061035156
 10
92.70000457763672
 20
141.3999938964844
 10
91.9000015258789
 20
139.3999938964844
 10
92.20000457763672
 20
137.6000061035156
 10
93.4000015258789
 20
136.1000061035156
 10
94.5999984741211
 20
134.6000061035156
 10
96.5999984741211
 20
133.5
 10
99.0
 20
132.7000122070312
 10
104.9000015258789
 20
131.0
 10
110.4000015258789
 20
132.0
 10
114.0999984741211
 20
133.9000244140625
 10
117.9000015258789
 20
135.8000183105469
 10
119.9000015258789
 20
138.5000305175781
 10
120.0999984741211
 20
140.0000305175781
 10
120.3000030517578
 20
142.5
 10
117.1999969482422
 20
145.7999877929688
 10
113.6999969482422
 20
148.8999938964844
 97
        0
 97
        0
 75
     2
 76
     1
 98
        0
  0
SPLINE
  5
CB
330
B7
100
AcDbEntity
  8
Calque 1
370
     0
100
AcDbSpline
210
0.0
220
0.0
230
1.0
 70
    11
 71
     3
 72
    32
 73
    28
 74
     0
 42
0.0000000001
 43
0.0000000001
 12
1.0
 22
0.0
 32
0.0
 13
1.0
 23
0.0
 33
0.0
 40
0.0
 40
0.0
 40
0.0
 40
0.0
 40
1.0
 40
1.0
 40
1.0
 40
2.0
 40
2.0
 40
2.0
 40
3.0
 40
3.0
 40
3.0
 40
4.0
 40
4.0
 40
4.0
 40
5.0
 40
5.0
 40
5.0
 40
6.0
 40
6.0
 40
6.0
 40
7.0
 40
7.0
 40
7.0
 40
8.0
 40
8.0
 40
8.0
 40
9.0
 40
9.0
 40
9.0
 40
9.0
 10
127.1999969482422
 20
165.0
 30
0.0
 10
127.5
 20
166.7999877929688
 30
0.0
 10
125.3999938964844
 20
169.3999938964844
 30
0.0
 10
122.8999938964844
 20
171.8999938964844
 30
0.0
 10
120.3999938964844
 20
174.3999938964844
 30
0.0
 10
117.3999938964844
 20
176.7999877929688
 30
0.0
 10
114.9999923706055
 20
177.7999877929688
 30
0.0
 10
113.1999893188477
 20
178.4999847412109
 30
0.0
 10
111.7999954223633
 20
177.3999938964844
 30
0.0
 10
110.9999923706055
 20
175.6999816894531
 30
0.0
 10
110.2999954223633
 20
174.2999877929688
 30
0.0
 10
110.6999893188477
 20
171.1999816894531
 30
0.0
 10
113.1999893188477
 20
169.4999694824219
 30
0.0
 10
113.0999908447266
 20
169.3999633789062
 30
0.0
 10
111.8999862670898
 20
169.5999755859375
 30
0.0
 10
110.5999908447266
 20
169.3999633789062
 30
0.0
 10
109.2999877929688
 20
169.2999572753906
 30
0.0
 10
107.7999877929688
 20
168.7999572753906
 30
0.0
 10
107.0999908447266
 20
167.199951171875
 30
0.0
 10
105.6999893188477
 20
164.2999572753906
 30
0.0
 10
107.7999877929688
 20
161.7999572753906
 30
0.0
 10
111.3999938964844
 20
160.4999389648438
 30
0.0
 10
115.5999908447266
 20
158.9999389648438
 30
0.0
 10
119.6999969482422
 20
159.4999389648438
 30
0.0
 10
122.5999908447266
 20
160.699951171875
 30
0.0
 10
125.3000030517578
 20
162.0
 30
0.0
 10
127.0
 20
163.8999938964844
 30
0.0
 10
127.1999969482422
 20
165.0
 30
0.0
  0
HATCH
  5
CC
330
B7
100
AcDbEntity
  8
Calque 1
 62
   242
420
 12457506
100
AcDbHatch
 10
0.0
 20
0.0
 30
0.0
210
0.0
220
0.0
230
1.0
  2
SOLID
 70
     1
 71
     0
 91
        1
 92
        1
 93
        1
 72
     4
 94
        3
 73
     0
 74
     1
 95
       32
 96
       28
 40
0.0
 40
0.0
 40
0.0
 40
0.0
 40
1.0
 40
1.0
 40
1.0
 40
2.0
 40
2.0
 40
2.0
 40
3.0
 40
3.0
 40
3.0
 40
4.0
 40
4.0
 40
4.0
 40
5.0
 40
5.0
 40
5.0
 40
6.0
 40
6.0
 40
6.0
 40
7.0
 40
7.0
 40
7.0
 40
8.0
 40
8.0
 40
8.0
 40
9.0
 40
9.0
 40
9.0
 40
9.0
 10
127.1999969482422
 20
165.0
 10
127.5
 20
166.7999877929688
 10
125.3999938964844
 20
169.3999938964844
 10
122.8999938964844
 20
171.8999938964844
 10
120.3999938964844
 20
174.3999938964844
 10
117.3999938964844
 20
176.7999877929688
 10
114.9999923706055
 20
177.7999877929688
 10
113.1999893188477
 20
178.4999847412109
 10
111.7999954223633
 20
177.3999938964844
 10
110.9999923706055
 20
175.6999816894531
 10
110.2999954223633
 20
174.2999877929688
 10
110.6999893188477
 20
171.1999816894531
 10
113.1999893188477
 20
169.4999694824219
 10
113.0999908447266
 20
169.3999633789062
 10
111.8999862670898
 20
169.5999755859375
 10
110.5999908447266
 20
169.3999633789062
 10
109.2999877929688
 20
169.2999572753906
 10
107.7999877929688
 20
168.7999572753906
 10
107.0999908447266
 20
167.199951171875
 10
105.6999893188477
 20
164.2999572753906
 10
107.7999877929688
 20
161.7999572753906
 10
111.3999938964844
 20
160.4999389648438
 10
115.5999908447266
 20
158.9999389648438
 10
119.6999969482422
 20
159.4999389648438
 10
122.5999908447266
 20
160.699951171875
 10
125.3000030517578
 20
162.0
 10
127.0
 20
163.8999938964844
 10
127.1999969482422
 20
165.0
 97
        0
 97
        0
 75
     2
 76
     1
 98
        0
  0
SPLINE
  5
CD
330
B7
100
AcDbEntity
  8
Calque 1
370
     0
100
AcDbSpline
210
0.0
220
0.0
230
1.0
 70
    11
 71
     3
 72
    35
 73
    31
 74
     0
 42
0.0000000001
 43
0.0000000001
 12
1.0
 22
0.0
 32
0.0
 13
1.0
 23
0.0
 33
0.0
 40
0.0
 40
0.0
 40
0.0
 40
0.0
 40
1.0
 40
1.0
 40
1.0
 40
2.0
 40
2.0
 40
2.0
 40
3.0
 40
3.0
 40
3.0
 40
4.0
 40
4.0
 40
4.0
 40
5.0
 40
5.0
 40
5.0
 40
6.0
 40
6.0
 40
6.0
 40
7.0
 40
7.0
 40
7.0
 40
8.0
 40
8.0
 40
8.0
 40
9.0
 40
9.0
 40
9.0
 40
10.0
 40
10.0
 40
10.0
 40
10.0
 10
100.4000015258789
 20
221.3999938964844
 30
0.0
 10
98.70000457763672
 20
218.3999938964844
 30
0.0
 10
99.20000457763672
 20
211.6999969482422
 30
0.0
 10
104.2000045776367
 20
207.5
 30
0.0
 10
103.9000015258789
 20
207.3000030517578
 30
0.0
 10
101.5000076293945
 20
207.8999938964844
 30
0.0
 10
98.60000610351562
 20
207.8000030517578
 30
0.0
 10
95.70000457763672
 20
207.6999969482422
 30
0.0
 10
92.50000762939453
 20
206.9000091552734
 30
0.0
 10
90.60000610351562
 20
203.6000061035156
 30
0.0
 10
88.90000915527344
 20
200.5
 30
0.0
 10
89.10000610351562
 20
197.6000061035156
 30
0.0
 10
90.50000762939453
 20
195.0
 30
0.0
 10
92.00000762939453
 20
192.3999938964844
 30
0.0
 10
94.70000457763672
 20
190.1999969482422
 30
0.0
 10
98.20000457763672
 20
188.5
 30
0.0
 10
106.6000061035156
 20
184.3999938964844
 30
0.0
 10
115.3000030517578
 20
184.5
 30
0.0
 10
121.7000045776367
 20
186.1999969482422
 30
0.0
 10
128.2000122070312
 20
187.8999938964844
 30
0.0
 10
132.5
 20
191.1999969482422
 30
0.0
 10
133.3000030517578
 20
193.5999908447266
 30
0.0
 10
134.6000061035156
 20
197.3999938964844
 30
0.0
 10
131.0
 20
203.7999877929688
 30
0.0
 10
126.2000045776367
 20
209.9999847412109
 30
0.0
 10
121.3000030517578
 20
216.1999816894531
 30
0.0
 10
115.2000045776367
 20
222.2999877929688
 30
0.0
 10
109.7000045776367
 20
225.1999816894531
 30
0.0
 10
105.8000030517578
 20
227.1999969482422
 30
0.0
 10
102.4000015258789
 20
225.1000061035156
 30
0.0
 10
100.4000015258789
 20
221.3999938964844
 30
0.0
  0
HATCH
  5
CE
330
B7
100
AcDbEntity
  8
Calque 1
 62
   242
420
 12457506
100
AcDbHatch
 10
0.0
 20
0.0
 30
0.0
210
0.0
220
0.0
230
1.0
  2
SOLID
 70
     1
 71
     0
 91
        1
 92
        1
 93
        1
 72
     4
 94
        3
 73
     0
 74
     1
 95
       35
 96
       31
 40
0.0
 40
0.0
 40
0.0
 40
0.0
 40
1.0
 40
1.0
 40
1.0
 40
2.0
 40
2.0
 40
2.0
 40
3.0
 40
3.0
 40
3.0
 40
4.0
 40
4.0
 40
4.0
 40
5.0
 40
5.0
 40
5.0
 40
6.0
 40
6.0
 40
6.0
 40
7.0
 40
7.0
 40
7.0
 40
8.0
 40
8.0
 40
8.0
 40
9.0
 40
9.0
 40
9.0
 40
10.0
 40
10.0
 40
10.0
 40
10.0
 10
100.4000015258789
 20
221.3999938964844
 10
98.70000457763672
 20
218.3999938964844
 10
99.20000457763672
 20
211.6999969482422
 10
104.2000045776367
 20
207.5
 10
103.9000015258789
 20
207.3000030517578
 10
101.5000076293945
 20
207.8999938964844
 10
98.60000610351562
 20
207.8000030517578
 10
95.70000457763672
 20
207.6999969482422
 10
92.50000762939453
 20
206.9000091552734
 10
90.60000610351562
 20
203.6000061035156
 10
88.90000915527344
 20
200.5
 10
89.10000610351562
 20
197.6000061035156
 10
90.50000762939453
 20
195.0
 10
92.00000762939453
 20
192.3999938964844
 10
94.70000457763672
 20
190.1999969482422
 10
98.20000457763672
 20
188.5
 10
106.6000061035156
 20
184.3999938964844
 10
115.3000030517578
 20
184.5
 10
121.7000045776367
 20
186.1999969482422
 10
128.2000122070312
 20
187.8999938964844
 10
132.5
 20
191.1999969482422
 10
133.3000030517578
 20
193.5999908447266
 10
134.6000061035156
 20
197.3999938964844
 10
131.0
 20
203.7999877929688
 10
126.2000045776367
 20
209.9999847412109
 10
121.3000030517578
 20
216.1999816894531
 10
115.2000045776367
 20
222.2999877929688
 10
109.7000045776367
 20
225.1999816894531
 10
105.8000030517578
 20
227.1999969482422
 10
102.4000015258789
 20
225.1000061035156
 10
100.4000015258789
 20
221.3999938964844
 97
        0
 97
        0
 75
     2
 76
     1
 98
        0
  0
ENDBLK
  5
BA
330
B7
100
AcDbEntity
  8
0
100
AcDbBlockEnd
  0
BLOCK
  5
D1
330
CF
100
AcDbEntity
  8
0
100
AcDbBlockBegin
  2
block 14
 70
     0
 10
0.0
 20
0.0
 30
0.0
  3
block 14
  1

  0
SPLINE
  5
D3
330
CF
100
AcDbEntity
  8
Calque 1
370
     0
100
AcDbSpline
210
0.0
220
0.0
230
1.0
 70
    11
 71
     3
 72
    29
 73
    25
 74
     0
 42
0.0000000001
 43
0.0000000001
 12
1.0
 22
0.0
 32
0.0
 13
1.0
 23
0.0
 33
0.0
 40
0.0
 40
0.0
 40
0.0
 40
0.0
 40
1.0
 40
1.0
 40
1.0
 40
2.0
 40
2.0
 40
2.0
 40
3.0
 40
3.0
 40
3.0
 40
4.0
 40
4.0
 40
4.0
 40
5.0
 40
5.0
 40
5.0
 40
6.0
 40
6.0
 40
6.0
 40
7.0
 40
7.0
 40
7.0
 40
8.0
 40
8.0
 40
8.0
 40
8.0
 10
301.7000122070312
 20
152.2999877929688
 30
0.0
 10
302.8000183105469
 20
152.8999938964844
 30
0.0
 10
303.9000244140625
 20
152.1999816894531
 30
0.0
 10
304.5
 20
151.0999755859375
 30
0.0
 10
305.0
 20
150.1999816894531
 30
0.0
 10
304.8999938964844
 20
148.1999816894531
 30
0.0
 10
303.3999938964844
 20
146.8999633789062
 30
0.0
 10
303.6000061035156
 20
146.699951171875
 30
0.0
 10
306.3999938964844
 20
147.699951171875
 30
0.0
 10
307.6000061035156
 20
145.699951171875
 30
0.0
 10
308.7000122070312
 20
143.8999633789062
 30
0.0
 10
307.3999938964844
 20
142.0999450683594
 30
0.0
 10
305.2000122070312
 20
141.0999450683594
 30
0.0
 10
302.5
 20
139.8999328613281
 30
0.0
 10
299.8000183105469
 20
139.8999328613281
 30
0.0
 10
297.9000244140625
 20
140.5999450683594
 30
0.0
 10
295.9000244140625
 20
141.199951171875
 30
0.0
 10
294.7000122070312
 20
142.2999572753906
 30
0.0
 10
294.5000305175781
 20
142.9999389648438
 30
0.0
 10
294.2000427246094
 20
144.199951171875
 30
0.0
 10
295.4000244140625
 20
145.9999389648438
 30
0.0
 10
296.9000244140625
 20
147.7999267578125
 30
0.0
 10
298.2999877929688
 20
149.7000122070312
 30
0.0
 10
300.1000061035156
 20
151.5
 30
0.0
 10
301.7000122070312
 20
152.2999877929688
 30
0.0
  0
HATCH
  5
D4
330
CF
100
AcDbEntity
  8
Calque 1
 62
   242
420
 12457506
100
AcDbHatch
 10
0.0
 20
0.0
 30
0.0
210
0.0
220
0.0
230
1.0
  2
SOLID
 70
     1
 71
     0
 91
        1
 92
        1
 93
        1
 72
     4
 94
        3
 73
     0
 74
     1
 95
       29
 96
       25
 40
0.0
 40
0.0
 40
0.0
 40
0.0
 40
1.0
 40
1.0
 40
1.0
 40
2.0
 40
2.0
 40
2.0
 40
3.0
 40
3.0
 40
3.0
 40
4.0
 40
4.0
 40
4.0
 40
5.0
 40
5.0
 40
5.0
 40
6.0
 40
6.0
 40
6.0
 40
7.0
 40
7.0
 40
7.0
 40
8.0
 40
8.0
 40
8.0
 40
8.0
 10
301.7000122070312
 20
152.2999877929688
 10
302.8000183105469
 20
152.8999938964844
 10
303.9000244140625
 20
152.1999816894531
 10
304.5
 20
151.0999755859375
 10
305.0
 20
150.1999816894531
 10
304.8999938964844
 20
148.1999816894531
 10
303.3999938964844
 20
146.8999633789062
 10
303.6000061035156
 20
146.699951171875
 10
306.3999938964844
 20
147.699951171875
 10
307.6000061035156
 20
145.699951171875
 10
308.7000122070312
 20
143.8999633789062
 10
307.3999938964844
 20
142.0999450683594
 10
305.2000122070312
 20
141.0999450683594
 10
302.5
 20
139.8999328613281
 10
299.8000183105469
 20
139.8999328613281
 10
297.9000244140625
 20
140.5999450683594
 10
295.9000244140625
 20
141.199951171875
 10
294.7000122070312
 20
142.2999572753906
 10
294.5000305175781
 20
142.9999389648438
 10
294.2000427246094
 20
144.199951171875
 10
295.4000244140625
 20
145.9999389648438
 10
296.9000244140625
 20
147.7999267578125
 10
298.2999877929688
 20
149.7000122070312
 10
300.1000061035156
 20
151.5
 10
301.7000122070312
 20
152.2999877929688
 97
        0
 97
        0
 75
     2
 76
     1
 98
        0
  0
SPLINE
  5
D5
330
CF
100
AcDbEntity
  8
Calque 1
370
     0
100
AcDbSpline
210
0.0
220
0.0
230
1.0
 70
    11
 71
     3
 72
    23
 73
    19
 74
     0
 42
0.0000000001
 43
0.0000000001
 12
1.0
 22
0.0
 32
0.0
 13
1.0
 23
0.0
 33
0.0
 40
0.0
 40
0.0
 40
0.0
 40
0.0
 40
1.0
 40
1.0
 40
1.0
 40
2.0
 40
2.0
 40
2.0
 40
3.0
 40
3.0
 40
3.0
 40
4.0
 40
4.0
 40
4.0
 40
5.0
 40
5.0
 40
5.0
 40
6.0
 40
6.0
 40
6.0
 40
6.0
 10
335.5
 20
223.5
 30
0.0
 10
332.7999877929688
 20
225.1000061035156
 30
0.0
 10
333.2000122070312
 20
234.8999938964844
 30
0.0
 10
335.8999938964844
 20
239.3999938964844
 30
0.0
 10
336.8999938964844
 20
241.0
 30
0.0
 10
338.5
 20
241.0
 30
0.0
 10
339.8999938964844
 20
240.1999969482422
 30
0.0
 10
341.1000061035156
 20
239.5
 30
0.0
 10
342.1999816894531
 20
237.0999908447266
 30
0.0
 10
341.5
 20
234.6999969482422
 30
0.0
 10
341.7999877929688
 20
234.6999969482422
 30
0.0
 10
344.2999877929688
 20
237.6999969482422
 30
0.0
 10
346.7999877929688
 20
236.1999969482422
 30
0.0
 10
349.1999816894531
 20
234.8000030517578
 30
0.0
 10
349.0
 20
232.3000030517578
 30
0.0
 10
347.5
 20
229.8000030517578
 30
0.0
 10
344.0
 20
223.8999938964844
 30
0.0
 10
337.2000122070312
 20
222.5
 30
0.0
 10
335.5
 20
223.5
 30
0.0
  0
HATCH
  5
D6
330
CF
100
AcDbEntity
  8
Calque 1
 62
   242
420
 12457506
100
AcDbHatch
 10
0.0
 20
0.0
 30
0.0
210
0.0
220
0.0
230
1.0
  2
SOLID
 70
     1
 71
     0
 91
        1
 92
        1
 93
        1
 72
     4
 94
        3
 73
     0
 74
     1
 95
       23
 96
       19
 40
0.0
 40
0.0
 40
0.0
 40
0.0
 40
1.0
 40
1.0
 40
1.0
 40
2.0
 40
2.0
 40
2.0
 40
3.0
 40
3.0
 40
3.0
 40
4.0
 40
4.0
 40
4.0
 40
5.0
 40
5.0
 40
5.0
 40
6.0
 40
6.0
 40
6.0
 40
6.0
 10
335.5
 20
223.5
 10
332.7999877929688
 20
225.1000061035156
 10
333.2000122070312
 20
234.8999938964844
 10
335.8999938964844
 20
239.3999938964844
 10
336.8999938964844
 20
241.0
 10
338.5
 20
241.0
 10
339.8999938964844
 20
240.1999969482422
 10
341.1000061035156
 20
239.5
 10
342.1999816894531
 20
237.0999908447266
 10
341.5
 20
234.6999969482422
 10
341.7999877929688
 20
234.6999969482422
 10
344.2999877929688
 20
237.6999969482422
 10
346.7999877929688
 20
236.1999969482422
 10
349.1999816894531
 20
234.8000030517578
 10
349.0
 20
232.3000030517578
 10
347.5
 20
229.8000030517578
 10
344.0
 20
223.8999938964844
 10
337.2000122070312
 20
222.5
 10
335.5
 20
223.5
 97
        0
 97
        0
 75
     2
 76
     1
 98
        0
  0
SPLINE
  5
D7
330
CF
100
AcDbEntity
  8
Calque 1
370
     0
100
AcDbSpline
210
0.0
220
0.0
230
1.0
 70
    11
 71
     3
 72
    29
 73
    25
 74
     0
 42
0.0000000001
 43
0.0000000001
 12
1.0
 22
0.0
 32
0.0
 13
1.0
 23
0.0
 33
0.0
 40
0.0
 40
0.0
 40
0.0
 40
0.0
 40
1.0
 40
1.0
 40
1.0
 40
2.0
 40
2.0
 40
2.0
 40
3.0
 40
3.0
 40
3.0
 40
4.0
 40
4.0
 40
4.0
 40
5.0
 40
5.0
 40
5.0
 40
6.0
 40
6.0
 40
6.0
 40
7.0
 40
7.0
 40
7.0
 40
8.0
 40
8.0
 40
8.0
 40
8.0
 10
355.7000122070312
 20
269.5
 30
0.0
 10
354.5
 20
269.6000061035156
 30
0.0
 10
353.3000183105469
 20
271.3000030517578
 30
0.0
 10
352.2000122070312
 20
273.3999938964844
 30
0.0
 10
351.1000061035156
 20
275.3999938964844
 30
0.0
 10
350.2000122070312
 20
277.7999877929688
 30
0.0
 10
350.1000061035156
 20
279.5999908447266
 30
0.0
 10
350.0
 20
280.8999938964844
 30
0.0
 10
351.0
 20
281.4999847412109
 30
0.0
 10
352.2000122070312
 20
281.6999969482422
 30
0.0
 10
353.2000122070312
 20
281.8000030517578
 30
0.0
 10
354.9000244140625
 20
280.8999938964844
 30
0.0
 10
355.5
 20
279.0999908447266
 30
0.0
 10
355.7000122070312
 20
279.1999969482422
 30
0.0
 10
355.8999938964844
 20
282.0999908447266
 30
0.0
 10
358.1000061035156
 20
282.2999877929688
 30
0.0
 10
360.1000061035156
 20
282.4999847412109
 30
0.0
 10
361.2000122070312
 20
280.7999877929688
 30
0.0
 10
361.2000122070312
 20
278.4999847412109
 30
0.0
 10
361.3000183105469
 20
275.6999816894531
 30
0.0
 10
360.3000183105469
 20
273.3999786376953
 30
0.0
 10
359.0
 20
271.8999786376953
 30
0.0
 10
357.7999877929688
 20
270.1999969482422
 30
0.0
 10
356.3999938964844
 20
269.3999938964844
 30
0.0
 10
355.7000122070312
 20
269.5
 30
0.0
  0
HATCH
  5
D8
330
CF
100
AcDbEntity
  8
Calque 1
 62
   242
420
 12457506
100
AcDbHatch
 10
0.0
 20
0.0
 30
0.0
210
0.0
220
0.0
230
1.0
  2
SOLID
 70
     1
 71
     0
 91
        1
 92
        1
 93
        1
 72
     4
 94
        3
 73
     0
 74
     1
 95
       29
 96
       25
 40
0.0
 40
0.0
 40
0.0
 40
0.0
 40
1.0
 40
1.0
 40
1.0
 40
2.0
 40
2.0
 40
2.0
 40
3.0
 40
3.0
 40
3.0
 40
4.0
 40
4.0
 40
4.0
 40
5.0
 40
5.0
 40
5.0
 40
6.0
 40
6.0
 40
6.0
 40
7.0
 40
7.0
 40
7.0
 40
8.0
 40
8.0
 40
8.0
 40
8.0
 10
355.7000122070312
 20
269.5
 10
354.5
 20
269.6000061035156
 10
353.3000183105469
 20
271.3000030517578
 10
352.2000122070312
 20
273.3999938964844
 10
351.1000061035156
 20
275.3999938964844
 10
350.2000122070312
 20
277.7999877929688
 10
350.1000061035156
 20
279.5999908447266
 10
350.0
 20
280.8999938964844
 10
351.0
 20
281.4999847412109
 10
352.2000122070312
 20
281.6999969482422
 10
353.2000122070312
 20
281.8000030517578
 10
354.9000244140625
 20
280.8999938964844
 10
355.5
 20
279.0999908447266
 10
355.7000122070312
 20
279.1999969482422
 10
355.8999938964844
 20
282.0999908447266
 10
358.1000061035156
 20
282.2999877929688
 10
360.1000061035156
 20
282.4999847412109
 10
361.2000122070312
 20
280.7999877929688
 10
361.2000122070312
 20
278.4999847412109
 10
361.3000183105469
 20
275.6999816894531
 10
360.3000183105469
 20
273.3999786376953
 10
359.0
 20
271.8999786376953
 10
357.7999877929688
 20
270.1999969482422
 10
356.3999938964844
 20
269.3999938964844
 10
355.7000122070312
 20
269.5
 97
        0
 97
        0
 75
     2
 76
     1
 98
        0
  0
SPLINE
  5
D9
330
CF
100
AcDbEntity
  8
Calque 1
370
     0
100
AcDbSpline
210
0.0
220
0.0
230
1.0
 70
    11
 71
     3
 72
    32
 73
    28
 74
     0
 42
0.0000000001
 43
0.0000000001
 12
1.0
 22
0.0
 32
0.0
 13
1.0
 23
0.0
 33
0.0
 40
0.0
 40
0.0
 40
0.0
 40
0.0
 40
1.0
 40
1.0
 40
1.0
 40
2.0
 40
2.0
 40
2.0
 40
3.0
 40
3.0
 40
3.0
 40
4.0
 40
4.0
 40
4.0
 40
5.0
 40
5.0
 40
5.0
 40
6.0
 40
6.0
 40
6.0
 40
7.0
 40
7.0
 40
7.0
 40
8.0
 40
8.0
 40
8.0
 40
9.0
 40
9.0
 40
9.0
 40
9.0
 10
340.8999938964844
 20
269.1000061035156
 30
0.0
 10
339.6000061035156
 20
268.6000061035156
 30
0.0
 10
337.3999938964844
 20
269.7000122070312
 30
0.0
 10
335.1999816894531
 20
271.0
 30
0.0
 10
332.9999694824219
 20
272.3999938964844
 30
0.0
 10
330.6999816894531
 20
274.0
 30
0.0
 10
329.4999694824219
 20
275.5
 30
0.0
 10
328.6999816894531
 20
276.6000061035156
 30
0.0
 10
329.1999816894531
 20
277.8999938964844
 30
0.0
 10
330.2999572753906
 20
278.8000030517578
 30
0.0
 10
331.199951171875
 20
279.6000061035156
 30
0.0
 10
333.3999633789062
 20
279.9000091552734
 30
0.0
 10
335.0999450683594
 20
278.5
 30
0.0
 10
335.199951171875
 20
278.6000061035156
 30
0.0
 10
334.7999572753906
 20
279.3999938964844
 30
0.0
 10
334.699951171875
 20
280.3999938964844
 30
0.0
 10
334.5999450683594
 20
281.3999938964844
 30
0.0
 10
334.5999450683594
 20
282.5
 30
0.0
 10
335.5999450683594
 20
283.3999938964844
 30
0.0
 10
337.3999328613281
 20
284.8999938964844
 30
0.0
 10
339.5999450683594
 20
283.8999938964844
 30
0.0
 10
341.199951171875
 20
281.5999908447266
 30
0.0
 10
343.0999450683594
 20
278.7999877929688
 30
0.0
 10
343.4999389648438
 20
275.6999969482422
 30
0.0
 10
343.0999450683594
 20
273.3999938964844
 30
0.0
 10
342.7000122070312
 20
271.0
 30
0.0
 10
341.7000122070312
 20
269.3999938964844
 30
0.0
 10
340.8999938964844
 20
269.1000061035156
 30
0.0
  0
HATCH
  5
DA
330
CF
100
AcDbEntity
  8
Calque 1
 62
   242
420
 12457506
100
AcDbHatch
 10
0.0
 20
0.0
 30
0.0
210
0.0
220
0.0
230
1.0
  2
SOLID
 70
     1
 71
     0
 91
        1
 92
        1
 93
        1
 72
     4
 94
        3
 73
     0
 74
     1
 95
       32
 96
       28
 40
0.0
 40
0.0
 40
0.0
 40
0.0
 40
1.0
 40
1.0
 40
1.0
 40
2.0
 40
2.0
 40
2.0
 40
3.0
 40
3.0
 40
3.0
 40
4.0
 40
4.0
 40
4.0
 40
5.0
 40
5.0
 40
5.0
 40
6.0
 40
6.0
 40
6.0
 40
7.0
 40
7.0
 40
7.0
 40
8.0
 40
8.0
 40
8.0
 40
9.0
 40
9.0
 40
9.0
 40
9.0
 10
340.8999938964844
 20
269.1000061035156
 10
339.6000061035156
 20
268.6000061035156
 10
337.3999938964844
 20
269.7000122070312
 10
335.1999816894531
 20
271.0
 10
332.9999694824219
 20
272.3999938964844
 10
330.6999816894531
 20
274.0
 10
329.4999694824219
 20
275.5
 10
328.6999816894531
 20
276.6000061035156
 10
329.1999816894531
 20
277.8999938964844
 10
330.2999572753906
 20
278.8000030517578
 10
331.199951171875
 20
279.6000061035156
 10
333.3999633789062
 20
279.9000091552734
 10
335.0999450683594
 20
278.5
 10
335.199951171875
 20
278.6000061035156
 10
334.7999572753906
 20
279.3999938964844
 10
334.699951171875
 20
280.3999938964844
 10
334.5999450683594
 20
281.3999938964844
 10
334.5999450683594
 20
282.5
 10
335.5999450683594
 20
283.3999938964844
 10
337.3999328613281
 20
284.8999938964844
 10
339.5999450683594
 20
283.8999938964844
 10
341.199951171875
 20
281.5999908447266
 10
343.0999450683594
 20
278.7999877929688
 10
343.4999389648438
 20
275.6999969482422
 10
343.0999450683594
 20
273.3999938964844
 10
342.7000122070312
 20
271.0
 10
341.7000122070312
 20
269.3999938964844
 10
340.8999938964844
 20
269.1000061035156
 97
        0
 97
        0
 75
     2
 76
     1
 98
        0
  0
SPLINE
  5
DB
330
CF
100
AcDbEntity
  8
Calque 1
370
     0
100
AcDbSpline
210
0.0
220
0.0
230
1.0
 70
    11
 71
     3
 72
    29
 73
    25
 74
     0
 42
0.0000000001
 43
0.0000000001
 12
1.0
 22
0.0
 32
0.0
 13
1.0
 23
0.0
 33
0.0
 40
0.0
 40
0.0
 40
0.0
 40
0.0
 40
1.0
 40
1.0
 40
1.0
 40
2.0
 40
2.0
 40
2.0
 40
3.0
 40
3.0
 40
3.0
 40
4.0
 40
4.0
 40
4.0
 40
5.0
 40
5.0
 40
5.0
 40
6.0
 40
6.0
 40
6.0
 40
7.0
 40
7.0
 40
7.0
 40
8.0
 40
8.0
 40
8.0
 40
8.0
 10
358.7999877929688
 20
239.3999938964844
 30
0.0
 10
357.5999755859375
 20
239.3999938964844
 30
0.0
 10
356.0999755859375
 20
241.1999969482422
 30
0.0
 10
354.7999877929688
 20
243.3999938964844
 30
0.0
 10
353.5999755859375
 20
245.5999908447266
 30
0.0
 10
352.5999755859375
 20
248.1999969482422
 30
0.0
 10
352.5
 20
250.1999969482422
 30
0.0
 10
352.3999938964844
 20
251.5999908447266
 30
0.0
 10
353.5
 20
252.3000030517578
 30
0.0
 10
354.7999877929688
 20
252.3999938964844
 30
0.0
 10
355.8999938964844
 20
252.5
 30
0.0
 10
357.6999816894531
 20
251.5
 30
0.0
 10
358.2999877929688
 20
249.5
 30
0.0
 10
358.5
 20
249.6000061035156
 30
0.0
 10
358.7999877929688
 20
252.6999969482422
 30
0.0
 10
361.0999755859375
 20
252.8000030517578
 30
0.0
 10
363.2999877929688
 20
253.0
 30
0.0
 10
364.2999877929688
 20
251.1999969482422
 30
0.0
 10
364.3999633789062
 20
248.8000030517578
 30
0.0
 10
364.4999694824219
 20
246.0
 30
0.0
 10
363.4999694824219
 20
243.6000061035156
 30
0.0
 10
362.2999572753906
 20
241.9000091552734
 30
0.0
 10
361.0
 20
240.3000030517578
 30
0.0
 10
359.6000061035156
 20
239.3999938964844
 30
0.0
 10
358.7999877929688
 20
239.3999938964844
 30
0.0
  0
HATCH
  5
DC
330
CF
100
AcDbEntity
  8
Calque 1
 62
   242
420
 12457506
100
AcDbHatch
 10
0.0
 20
0.0
 30
0.0
210
0.0
220
0.0
230
1.0
  2
SOLID
 70
     1
 71
     0
 91
        1
 92
        1
 93
        1
 72
     4
 94
        3
 73
     0
 74
     1
 95
       29
 96
       25
 40
0.0
 40
0.0
 40
0.0
 40
0.0
 40
1.0
 40
1.0
 40
1.0
 40
2.0
 40
2.0
 40
2.0
 40
3.0
 40
3.0
 40
3.0
 40
4.0
 40
4.0
 40
4.0
 40
5.0
 40
5.0
 40
5.0
 40
6.0
 40
6.0
 40
6.0
 40
7.0
 40
7.0
 40
7.0
 40
8.0
 40
8.0
 40
8.0
 40
8.0
 10
358.7999877929688
 20
239.3999938964844
 10
357.5999755859375
 20
239.3999938964844
 10
356.0999755859375
 20
241.1999969482422
 10
354.7999877929688
 20
243.3999938964844
 10
353.5999755859375
 20
245.5999908447266
 10
352.5999755859375
 20
248.1999969482422
 10
352.5
 20
250.1999969482422
 10
352.3999938964844
 20
251.5999908447266
 10
353.5
 20
252.3000030517578
 10
354.7999877929688
 20
252.3999938964844
 10
355.8999938964844
 20
252.5
 10
357.6999816894531
 20
251.5
 10
358.2999877929688
 20
249.5
 10
358.5
 20
249.6000061035156
 10
358.7999877929688
 20
252.6999969482422
 10
361.0999755859375
 20
252.8000030517578
 10
363.2999877929688
 20
253.0
 10
364.2999877929688
 20
251.1999969482422
 10
364.3999633789062
 20
248.8000030517578
 10
364.4999694824219
 20
246.0
 10
363.4999694824219
 20
243.6000061035156
 10
362.2999572753906
 20
241.9000091552734
 10
361.0
 20
240.3000030517578
 10
359.6000061035156
 20
239.3999938964844
 10
358.7999877929688
 20
239.3999938964844
 97
        0
 97
        0
 75
     2
 76
     1
 98
        0
  0
SPLINE
  5
DD
330
CF
100
AcDbEntity
  8
Calque 1
370
     0
100
AcDbSpline
210
0.0
220
0.0
230
1.0
 70
    11
 71
     3
 72
    35
 73
    31
 74
     0
 42
0.0000000001
 43
0.0000000001
 12
1.0
 22
0.0
 32
0.0
 13
1.0
 23
0.0
 33
0.0
 40
0.0
 40
0.0
 40
0.0
 40
0.0
 40
1.0
 40
1.0
 40
1.0
 40
2.0
 40
2.0
 40
2.0
 40
3.0
 40
3.0
 40
3.0
 40
4.0
 40
4.0
 40
4.0
 40
5.0
 40
5.0
 40
5.0
 40
6.0
 40
6.0
 40
6.0
 40
7.0
 40
7.0
 40
7.0
 40
8.0
 40
8.0
 40
8.0
 40
9.0
 40
9.0
 40
9.0
 40
10.0
 40
10.0
 40
10.0
 40
10.0
 10
357.1000061035156
 20
225.6000061035156
 30
0.0
 10
358.0
 20
227.9000091552734
 30
0.0
 10
360.3999938964844
 20
228.3000030517578
 30
0.0
 10
362.8000183105469
 20
227.5
 30
0.0
 10
364.8000183105469
 20
226.8000030517578
 30
0.0
 10
367.3000183105469
 20
223.6999969482422
 30
0.0
 10
366.7000122070312
 20
219.8000030517578
 30
0.0
 10
366.9000244140625
 20
219.8000030517578
 30
0.0
 10
367.8000183105469
 20
221.1000061035156
 30
0.0
 10
369.1000061035156
 20
222.1999969482422
 30
0.0
 10
370.3999938964844
 20
223.3000030517578
 30
0.0
 10
372.2000122070312
 20
224.3000030517578
 30
0.0
 10
374.3999938964844
 20
223.5999908447266
 30
0.0
 10
376.3999938964844
 20
222.8999938964844
 30
0.0
 10
377.5
 20
221.4999847412109
 30
0.0
 10
377.8999938964844
 20
219.6999969482422
 30
0.0
 10
378.2999877929688
 20
217.8999938964844
 30
0.0
 10
377.8999938964844
 20
215.6999969482422
 30
0.0
 10
376.8999938964844
 20
213.3999938964844
 30
0.0
 10
374.5
 20
208.0
 30
0.0
 10
370.2999877929688
 20
204.5999908447266
 30
0.0
 10
366.5
 20
202.8999938964844
 30
0.0
 10
362.7000122070312
 20
201.2999877929688
 30
0.0
 10
359.3999938964844
 20
201.2999877929688
 30
0.0
 10
358.2000122070312
 20
202.1999969482422
 30
0.0
 10
356.2000122070312
 20
203.5999908447266
 30
0.0
 10
355.7000122070312
 20
208.0
 30
0.0
 10
355.6000061035156
 20
212.5999908447266
 30
0.0
 10
355.3999938964844
 20
217.3999938964844
 30
0.0
 10
355.7999877929688
 20
222.3000030517578
 30
0.0
 10
357.1000061035156
 20
225.6000061035156
 30
0.0
  0
HATCH
  5
DE
330
CF
100
AcDbEntity
  8
Calque 1
 62
   242
420
 12457506
100
AcDbHatch
 10
0.0
 20
0.0
 30
0.0
210
0.0
220
0.0
230
1.0
  2
SOLID
 70
     1
 71
     0
 91
        1
 92
        1
 93
        1
 72
     4
 94
        3
 73
     0
 74
     1
 95
       35
 96
       31
 40
0.0
 40
0.0
 40
0.0
 40
0.0
 40
1.0
 40
1.0
 40
1.0
 40
2.0
 40
2.0
 40
2.0
 40
3.0
 40
3.0
 40
3.0
 40
4.0
 40
4.0
 40
4.0
 40
5.0
 40
5.0
 40
5.0
 40
6.0
 40
6.0
 40
6.0
 40
7.0
 40
7.0
 40
7.0
 40
8.0
 40
8.0
 40
8.0
 40
9.0
 40
9.0
 40
9.0
 40
10.0
 40
10.0
 40
10.0
 40
10.0
 10
357.1000061035156
 20
225.6000061035156
 10
358.0
 20
227.9000091552734
 10
360.3999938964844
 20
228.3000030517578
 10
362.8000183105469
 20
227.5
 10
364.8000183105469
 20
226.8000030517578
 10
367.3000183105469
 20
223.6999969482422
 10
366.7000122070312
 20
219.8000030517578
 10
366.9000244140625
 20
219.8000030517578
 10
367.8000183105469
 20
221.1000061035156
 10
369.1000061035156
 20
222.1999969482422
 10
370.3999938964844
 20
223.3000030517578
 10
372.2000122070312
 20
224.3000030517578
 10
374.3999938964844
 20
223.5999908447266
 10
376.3999938964844
 20
222.8999938964844
 10
377.5
 20
221.4999847412109
 10
377.8999938964844
 20
219.6999969482422
 10
378.2999877929688
 20
217.8999938964844
 10
377.8999938964844
 20
215.6999969482422
 10
376.8999938964844
 20
213.3999938964844
 10
374.5
 20
208.0
 10
370.2999877929688
 20
204.5999908447266
 10
366.5
 20
202.8999938964844
 10
362.7000122070312
 20
201.2999877929688
 10
359.3999938964844
 20
201.2999877929688
 10
358.2000122070312
 20
202.1999969482422
 10
356.2000122070312
 20
203.5999908447266
 10
355.7000122070312
 20
208.0
 10
355.6000061035156
 20
212.5999908447266
 10
355.3999938964844
 20
217.3999938964844
 10
355.7999877929688
 20
222.3000030517578
 10
357.1000061035156
 20
225.6000061035156
 97
        0
 97
        0
 75
     2
 76
     1
 98
        0
  0
SPLINE
  5
DF
330
CF
100
AcDbEntity
  8
Calque 1
370
     0
100
AcDbSpline
210
0.0
220
0.0
230
1.0
 70
    11
 71
     3
 72
    29
 73
    25
 74
     0
 42
0.0000000001
 43
0.0000000001
 12
1.0
 22
0.0
 32
0.0
 13
1.0
 23
0.0
 33
0.0
 40
0.0
 40
0.0
 40
0.0
 40
0.0
 40
1.0
 40
1.0
 40
1.0
 40
2.0
 40
2.0
 40
2.0
 40
3.0
 40
3.0
 40
3.0
 40
4.0
 40
4.0
 40
4.0
 40
5.0
 40
5.0
 40
5.0
 40
6.0
 40
6.0
 40
6.0
 40
7.0
 40
7.0
 40
7.0
 40
8.0
 40
8.0
 40
8.0
 40
8.0
 10
341.0
 20
175.7000122070312
 30
0.0
 10
342.5
 20
178.6000061035156
 30
0.0
 10
344.6000061035156
 20
181.6000061035156
 30
0.0
 10
346.7000122070312
 20
183.2000122070312
 30
0.0
 10
348.2000122070312
 20
184.3000183105469
 30
0.0
 10
349.7000122070312
 20
183.7000122070312
 30
0.0
 10
350.8000183105469
 20
182.3000183105469
 30
0.0
 10
351.7000122070312
 20
181.2000122070312
 30
0.0
 10
351.9000244140625
 20
178.4000244140625
 30
0.0
 10
350.2000122070312
 20
176.4000244140625
 30
0.0
 10
350.4000244140625
 20
176.3000183105469
 30
0.0
 10
354.1000061035156
 20
178.1000213623047
 30
0.0
 10
355.9000244140625
 20
175.7000122070312
 30
0.0
 10
357.6000366210938
 20
173.4000244140625
 30
0.0
 10
356.4000244140625
 20
171.0
 30
0.0
 10
353.9000244140625
 20
169.2000122070312
 30
0.0
 10
350.9000244140625
 20
167.0
 30
0.0
 10
347.5000305175781
 20
166.4000244140625
 30
0.0
 10
344.8000183105469
 20
166.6000061035156
 30
0.0
 10
342.1000061035156
 20
166.8000183105469
 30
0.0
 10
340.1000061035156
 20
167.7000122070312
 30
0.0
 10
339.5000305175781
 20
168.6000061035156
 30
0.0
 10
338.7000122070312
 20
169.8999938964844
 30
0.0
 10
339.6000061035156
 20
172.7999877929688
 30
0.0
 10
341.0
 20
175.7000122070312
 30
0.0
  0
HATCH
  5
E0
330
CF
100
AcDbEntity
  8
Calque 1
 62
   242
420
 12457506
100
AcDbHatch
 10
0.0
 20
0.0
 30
0.0
210
0.0
220
0.0
230
1.0
  2
SOLID
 70
     1
 71
     0
 91
        1
 92
        1
 93
        1
 72
     4
 94
        3
 73
     0
 74
     1
 95
       29
 96
       25
 40
0.0
 40
0.0
 40
0.0
 40
0.0
 40
1.0
 40
1.0
 40
1.0
 40
2.0
 40
2.0
 40
2.0
 40
3.0
 40
3.0
 40
3.0
 40
4.0
 40
4.0
 40
4.0
 40
5.0
 40
5.0
 40
5.0
 40
6.0
 40
6.0
 40
6.0
 40
7.0
 40
7.0
 40
7.0
 40
8.0
 40
8.0
 40
8.0
 40
8.0
 10
341.0
 20
175.7000122070312
 10
342.5
 20
178.6000061035156
 10
344.6000061035156
 20
181.6000061035156
 10
346.7000122070312
 20
183.2000122070312
 10
348.2000122070312
 20
184.3000183105469
 10
349.7000122070312
 20
183.7000122070312
 10
350.8000183105469
 20
182.3000183105469
 10
351.7000122070312
 20
181.2000122070312
 10
351.9000244140625
 20
178.4000244140625
 10
350.2000122070312
 20
176.4000244140625
 10
350.4000244140625
 20
176.3000183105469
 10
354.1000061035156
 20
178.1000213623047
 10
355.9000244140625
 20
175.7000122070312
 10
357.6000366210938
 20
173.4000244140625
 10
356.4000244140625
 20
171.0
 10
353.9000244140625
 20
169.2000122070312
 10
350.9000244140625
 20
167.0
 10
347.5000305175781
 20
166.4000244140625
 10
344.8000183105469
 20
166.6000061035156
 10
342.1000061035156
 20
166.8000183105469
 10
340.1000061035156
 20
167.7000122070312
 10
339.5000305175781
 20
168.6000061035156
 10
338.7000122070312
 20
169.8999938964844
 10
339.6000061035156
 20
172.7999877929688
 10
341.0
 20
175.7000122070312
 97
        0
 97
        0
 75
     2
 76
     1
 98
        0
  0
SPLINE
  5
E1
330
CF
100
AcDbEntity
  8
Calque 1
370
     0
100
AcDbSpline
210
0.0
220
0.0
230
1.0
 70
    11
 71
     3
 72
    35
 73
    31
 74
     0
 42
0.0000000001
 43
0.0000000001
 12
1.0
 22
0.0
 32
0.0
 13
1.0
 23
0.0
 33
0.0
 40
0.0
 40
0.0
 40
0.0
 40
0.0
 40
1.0
 40
1.0
 40
1.0
 40
2.0
 40
2.0
 40
2.0
 40
3.0
 40
3.0
 40
3.0
 40
4.0
 40
4.0
 40
4.0
 40
5.0
 40
5.0
 40
5.0
 40
6.0
 40
6.0
 40
6.0
 40
7.0
 40
7.0
 40
7.0
 40
8.0
 40
8.0
 40
8.0
 40
9.0
 40
9.0
 40
9.0
 40
10.0
 40
10.0
 40
10.0
 40
10.0
 10
318.2999877929688
 20
148.8999938964844
 30
0.0
 10
321.8999938964844
 20
152.0
 30
0.0
 10
325.8999938964844
 20
154.8999938964844
 30
0.0
 10
329.2999877929688
 20
156.1000061035156
 30
0.0
 10
331.6999816894531
 20
156.8999938964844
 30
0.0
 10
333.5
 20
155.3999938964844
 30
0.0
 10
334.5
 20
153.0
 30
0.0
 10
335.2999877929688
 20
151.0
 30
0.0
 10
334.6000061035156
 20
147.0
 30
0.0
 10
331.2000122070312
 20
144.8999938964844
 30
0.0
 10
331.3000183105469
 20
144.7999877929688
 30
0.0
 10
332.9000244140625
 20
144.8999938964844
 30
0.0
 10
334.7000122070312
 20
144.6000061035156
 30
0.0
 10
336.4000244140625
 20
144.3000183105469
 30
0.0
 10
338.4000244140625
 20
143.6000061035156
 30
0.0
 10
339.3000183105469
 20
141.3999938964844
 30
0.0
 10
340.1000061035156
 20
139.3999938964844
 30
0.0
 10
339.8000183105469
 20
137.6000061035156
 30
0.0
 10
338.6000061035156
 20
136.1000061035156
 30
0.0
 10
337.3999938964844
 20
134.6000061035156
 30
0.0
 10
335.3999938964844
 20
133.5
 30
0.0
 10
333.0
 20
132.7000122070312
 30
0.0
 10
327.1000061035156
 20
131.0
 30
0.0
 10
321.6000061035156
 20
132.0
 30
0.0
 10
317.8999938964844
 20
133.9000244140625
 30
0.0
 10
314.1000061035156
 20
135.8000183105469
 30
0.0
 10
312.1000061035156
 20
138.5000305175781
 30
0.0
 10
311.8999938964844
 20
140.0000305175781
 30
0.0
 10
311.7000122070312
 20
142.5
 30
0.0
 10
314.7999877929688
 20
145.7999877929688
 30
0.0
 10
318.2999877929688
 20
148.8999938964844
 30
0.0
  0
HATCH
  5
E2
330
CF
100
AcDbEntity
  8
Calque 1
 62
   242
420
 12457506
100
AcDbHatch
 10
0.0
 20
0.0
 30
0.0
210
0.0
220
0.0
230
1.0
  2
SOLID
 70
     1
 71
     0
 91
        1
 92
        1
 93
        1
 72
     4
 94
        3
 73
     0
 74
     1
 95
       35
 96
       31
 40
0.0
 40
0.0
 40
0.0
 40
0.0
 40
1.0
 40
1.0
 40
1.0
 40
2.0
 40
2.0
 40
2.0
 40
3.0
 40
3.0
 40
3.0
 40
4.0
 40
4.0
 40
4.0
 40
5.0
 40
5.0
 40
5.0
 40
6.0
 40
6.0
 40
6.0
 40
7.0
 40
7.0
 40
7.0
 40
8.0
 40
8.0
 40
8.0
 40
9.0
 40
9.0
 40
9.0
 40
10.0
 40
10.0
 40
10.0
 40
10.0
 10
318.2999877929688
 20
148.8999938964844
 10
321.8999938964844
 20
152.0
 10
325.8999938964844
 20
154.8999938964844
 10
329.2999877929688
 20
156.1000061035156
 10
331.6999816894531
 20
156.8999938964844
 10
333.5
 20
155.3999938964844
 10
334.5
 20
153.0
 10
335.2999877929688
 20
151.0
 10
334.6000061035156
 20
147.0
 10
331.2000122070312
 20
144.8999938964844
 10
331.3000183105469
 20
144.7999877929688
 10
332.9000244140625
 20
144.8999938964844
 10
334.7000122070312
 20
144.6000061035156
 10
336.4000244140625
 20
144.3000183105469
 10
338.4000244140625
 20
143.6000061035156
 10
339.3000183105469
 20
141.3999938964844
 10
340.1000061035156
 20
139.3999938964844
 10
339.8000183105469
 20
137.6000061035156
 10
338.6000061035156
 20
136.1000061035156
 10
337.3999938964844
 20
134.6000061035156
 10
335.3999938964844
 20
133.5
 10
333.0
 20
132.7000122070312
 10
327.1000061035156
 20
131.0
 10
321.6000061035156
 20
132.0
 10
317.8999938964844
 20
133.9000244140625
 10
314.1000061035156
 20
135.8000183105469
 10
312.1000061035156
 20
138.5000305175781
 10
311.8999938964844
 20
140.0000305175781
 10
311.7000122070312
 20
142.5
 10
314.7999877929688
 20
145.7999877929688
 10
318.2999877929688
 20
148.8999938964844
 97
        0
 97
        0
 75
     2
 76
     1
 98
        0
  0
SPLINE
  5
E3
330
CF
100
AcDbEntity
  8
Calque 1
370
     0
100
AcDbSpline
210
0.0
220
0.0
230
1.0
 70
    11
 71
     3
 72
    32
 73
    28
 74
     0
 42
0.0000000001
 43
0.0000000001
 12
1.0
 22
0.0
 32
0.0
 13
1.0
 23
0.0
 33
0.0
 40
0.0
 40
0.0
 40
0.0
 40
0.0
 40
1.0
 40
1.0
 40
1.0
 40
2.0
 40
2.0
 40
2.0
 40
3.0
 40
3.0
 40
3.0
 40
4.0
 40
4.0
 40
4.0
 40
5.0
 40
5.0
 40
5.0
 40
6.0
 40
6.0
 40
6.0
 40
7.0
 40
7.0
 40
7.0
 40
8.0
 40
8.0
 40
8.0
 40
9.0
 40
9.0
 40
9.0
 40
9.0
 10
304.7999877929688
 20
165.0
 30
0.0
 10
304.5
 20
166.7999877929688
 30
0.0
 10
306.5999755859375
 20
169.3999938964844
 30
0.0
 10
309.0999755859375
 20
171.8999938964844
 30
0.0
 10
311.5999755859375
 20
174.3999938964844
 30
0.0
 10
314.5999755859375
 20
176.7999877929688
 30
0.0
 10
316.9999694824219
 20
177.7999877929688
 30
0.0
 10
318.7999572753906
 20
178.4999847412109
 30
0.0
 10
320.1999816894531
 20
177.3999938964844
 30
0.0
 10
320.9999694824219
 20
175.6999816894531
 30
0.0
 10
321.6999816894531
 20
174.2999877929688
 30
0.0
 10
321.2999572753906
 20
171.1999816894531
 30
0.0
 10
318.7999572753906
 20
169.4999694824219
 30
0.0
 10
318.8999633789062
 20
169.3999633789062
 30
0.0
 10
320.0999450683594
 20
169.5999755859375
 30
0.0
 10
321.3999633789062
 20
169.3999633789062
 30
0.0
 10
322.699951171875
 20
169.2999572753906
 30
0.0
 10
324.199951171875
 20
168.7999572753906
 30
0.0
 10
324.8999633789062
 20
167.199951171875
 30
0.0
 10
326.2999572753906
 20
164.2999572753906
 30
0.0
 10
324.199951171875
 20
161.7999572753906
 30
0.0
 10
320.5999755859375
 20
160.4999389648438
 30
0.0
 10
316.3999633789062
 20
158.9999389648438
 30
0.0
 10
312.2999877929688
 20
159.4999389648438
 30
0.0
 10
309.3999633789062
 20
160.699951171875
 30
0.0
 10
306.7000122070312
 20
162.0
 30
0.0
 10
305.0
 20
163.8999938964844
 30
0.0
 10
304.7999877929688
 20
165.0
 30
0.0
  0
HATCH
  5
E4
330
CF
100
AcDbEntity
  8
Calque 1
 62
   242
420
 12457506
100
AcDbHatch
 10
0.0
 20
0.0
 30
0.0
210
0.0
220
0.0
230
1.0
  2
SOLID
 70
     1
 71
     0
 91
        1
 92
        1
 93
        1
 72
     4
 94
        3
 73
     0
 74
     1
 95
       32
 96
       28
 40
0.0
 40
0.0
 40
0.0
 40
0.0
 40
1.0
 40
1.0
 40
1.0
 40
2.0
 40
2.0
 40
2.0
 40
3.0
 40
3.0
 40
3.0
 40
4.0
 40
4.0
 40
4.0
 40
5.0
 40
5.0
 40
5.0
 40
6.0
 40
6.0
 40
6.0
 40
7.0
 40
7.0
 40
7.0
 40
8.0
 40
8.0
 40
8.0
 40
9.0
 40
9.0
 40
9.0
 40
9.0
 10
304.7999877929688
 20
165.0
 10
304.5
 20
166.7999877929688
 10
306.5999755859375
 20
169.3999938964844
 10
309.0999755859375
 20
171.8999938964844
 10
311.5999755859375
 20
174.3999938964844
 10
314.5999755859375
 20
176.7999877929688
 10
316.9999694824219
 20
177.7999877929688
 10
318.7999572753906
 20
178.4999847412109
 10
320.1999816894531
 20
177.3999938964844
 10
320.9999694824219
 20
175.6999816894531
 10
321.6999816894531
 20
174.2999877929688
 10
321.2999572753906
 20
171.1999816894531
 10
318.7999572753906
 20
169.4999694824219
 10
318.8999633789062
 20
169.3999633789062
 10
320.0999450683594
 20
169.5999755859375
 10
321.3999633789062
 20
169.3999633789062
 10
322.699951171875
 20
169.2999572753906
 10
324.199951171875
 20
168.7999572753906
 10
324.8999633789062
 20
167.199951171875
 10
326.2999572753906
 20
164.2999572753906
 10
324.199951171875
 20
161.7999572753906
 10
320.5999755859375
 20
160.4999389648438
 10
316.3999633789062
 20
158.9999389648438
 10
312.2999877929688
 20
159.4999389648438
 10
309.3999633789062
 20
160.699951171875
 10
306.7000122070312
 20
162.0
 10
305.0
 20
163.8999938964844
 10
304.7999877929688
 20
165.0
 97
        0
 97
        0
 75
     2
 76
     1
 98
        0
  0
SPLINE
  5
E5
330
CF
100
AcDbEntity
  8
Calque 1
370
     0
100
AcDbSpline
210
0.0
220
0.0
230
1.0
 70
    11
 71
     3
 72
    35
 73
    31
 74
     0
 42
0.0000000001
 43
0.0000000001
 12
1.0
 22
0.0
 32
0.0
 13
1.0
 23
0.0
 33
0.0
 40
0.0
 40
0.0
 40
0.0
 40
0.0
 40
1.0
 40
1.0
 40
1.0
 40
2.0
 40
2.0
 40
2.0
 40
3.0
 40
3.0
 40
3.0
 40
4.0
 40
4.0
 40
4.0
 40
5.0
 40
5.0
 40
5.0
 40
6.0
 40
6.0
 40
6.0
 40
7.0
 40
7.0
 40
7.0
 40
8.0
 40
8.0
 40
8.0
 40
9.0
 40
9.0
 40
9.0
 40
10.0
 40
10.0
 40
10.0
 40
10.0
 10
331.6000061035156
 20
221.3999938964844
 30
0.0
 10
333.3000183105469
 20
218.3999938964844
 30
0.0
 10
332.8000183105469
 20
211.6999969482422
 30
0.0
 10
327.8000183105469
 20
207.5
 30
0.0
 10
328.1000061035156
 20
207.3000030517578
 30
0.0
 10
330.5000305175781
 20
207.8999938964844
 30
0.0
 10
333.4000244140625
 20
207.8000030517578
 30
0.0
 10
336.3000183105469
 20
207.6999969482422
 30
0.0
 10
339.5000305175781
 20
206.9000091552734
 30
0.0
 10
341.4000244140625
 20
203.6000061035156
 30
0.0
 10
343.1000366210938
 20
200.5
 30
0.0
 10
342.9000244140625
 20
197.6000061035156
 30
0.0
 10
341.5000305175781
 20
195.0
 30
0.0
 10
340.0000305175781
 20
192.3999938964844
 30
0.0
 10
337.3000183105469
 20
190.1999969482422
 30
0.0
 10
333.8000183105469
 20
188.5
 30
0.0
 10
325.4000244140625
 20
184.3999938964844
 30
0.0
 10
316.7000122070312
 20
184.5
 30
0.0
 10
310.3000183105469
 20
186.1999969482422
 30
0.0
 10
303.8000183105469
 20
187.8999938964844
 30
0.0
 10
299.5000305175781
 20
191.1999969482422
 30
0.0
 10
298.7000122070312
 20
193.5999908447266
 30
0.0
 10
297.4000244140625
 20
197.3999938964844
 30
0.0
 10
301.0
 20
203.7999877929688
 30
0.0
 10
305.8000183105469
 20
209.9999847412109
 30
0.0
 10
310.7000122070312
 20
216.1999816894531
 30
0.0
 10
316.8000183105469
 20
222.2999877929688
 30
0.0
 10
322.3000183105469
 20
225.1999816894531
 30
0.0
 10
326.2000122070312
 20
227.1999969482422
 30
0.0
 10
329.6000061035156
 20
225.1000061035156
 30
0.0
 10
331.6000061035156
 20
221.3999938964844
 30
0.0
  0
HATCH
  5
E6
330
CF
100
AcDbEntity
  8
Calque 1
 62
   242
420
 12457506
100
AcDbHatch
 10
0.0
 20
0.0
 30
0.0
210
0.0
220
0.0
230
1.0
  2
SOLID
 70
     1
 71
     0
 91
        1
 92
        1
 93
        1
 72
     4
 94
        3
 73
     0
 74
     1
 95
       35
 96
       31
 40
0.0
 40
0.0
 40
0.0
 40
0.0
 40
1.0
 40
1.0
 40
1.0
 40
2.0
 40
2.0
 40
2.0
 40
3.0
 40
3.0
 40
3.0
 40
4.0
 40
4.0
 40
4.0
 40
5.0
 40
5.0
 40
5.0
 40
6.0
 40
6.0
 40
6.0
 40
7.0
 40
7.0
 40
7.0
 40
8.0
 40
8.0
 40
8.0
 40
9.0
 40
9.0
 40
9.0
 40
10.0
 40
10.0
 40
10.0
 40
10.0
 10
331.6000061035156
 20
221.3999938964844
 10
333.3000183105469
 20
218.3999938964844
 10
332.8000183105469
 20
211.6999969482422
 10
327.8000183105469
 20
207.5
 10
328.1000061035156
 20
207.3000030517578
 10
330.5000305175781
 20
207.8999938964844
 10
333.4000244140625
 20
207.8000030517578
 10
336.3000183105469
 20
207.6999969482422
 10
339.5000305175781
 20
206.9000091552734
 10
341.4000244140625
 20
203.6000061035156
 10
343.1000366210938
 20
200.5
 10
342.9000244140625
 20
197.6000061035156
 10
341.5000305175781
 20
195.0
 10
340.0000305175781
 20
192.3999938964844
 10
337.3000183105469
 20
190.1999969482422
 10
333.8000183105469
 20
188.5
 10
325.4000244140625
 20
184.3999938964844
 10
316.7000122070312
 20
184.5
 10
310.3000183105469
 20
186.1999969482422
 10
303.8000183105469
 20
187.8999938964844
 10
299.5000305175781
 20
191.1999969482422
 10
298.7000122070312
 20
193.5999908447266
 10
297.4000244140625
 20
197.3999938964844
 10
301.0
 20
203.7999877929688
 10
305.8000183105469
 20
209.9999847412109
 10
310.7000122070312
 20
216.1999816894531
 10
316.8000183105469
 20
222.2999877929688
 10
322.3000183105469
 20
225.1999816894531
 10
326.2000122070312
 20
227.1999969482422
 10
329.6000061035156
 20
225.1000061035156
 10
331.6000061035156
 20
221.3999938964844
 97
        0
 97
        0
 75
     2
 76
     1
 98
        0
  0
ENDBLK
  5
D2
330
CF
100
AcDbEntity
  8
0
100
AcDbBlockEnd
  0
ENDSEC
  0
SECTION
  2
ENTITIES
  0
INSERT
  5
42
330
1F
100
AcDbEntity
  8
Calque 1
100
AcDbBlockReference
  2
block 2
 10
0.0
 20
0.0
 30
0.0
  0
ENDSEC
  0
SECTION
  2
OBJECTS
  0
DICTIONARY
  5
C
330
0
100
AcDbDictionary
281
     1
  3
ACAD_GROUP
350
D
  3
ACAD_LAYOUT
350
1A
  3
ACAD_MATERIAL
350
3B
  3
ACAD_MLEADERSTYLE
350
E8
  3
ACAD_MLINESTYLE
350
17
  3
ACAD_PLOTSETTINGS
350
19
  3
ACAD_PLOTSTYLENAME
350
E
  3
ACAD_TABLESTYLE
350
E7
  3
ACAD_VISUALSTYLE
350
2A
  0
SUN
  5
3F
330
29
100
AcDbSun
 90
        1
290
     0
 63
     7
421
 16777215
 40
1.0
291
     1
 91
  2455826
 92
 54000000
292
     0
 70
     2
 71
   256
280
     1
  0
DICTIONARY
  5
D
102
{ACAD_REACTORS
330
C
102
}
330
C
100
AcDbDictionary
281
     1
  0
DICTIONARY
  5
1A
102
{ACAD_REACTORS
330
C
102
}
330
C
100
AcDbDictionary
281
     1
  3
Layout1
350
1E
  3
Layout2
350
26
  3
Model
350
22
  0
DICTIONARY
  5
3B
102
{ACAD_REACTORS
330
C
102
}
330
C
100
AcDbDictionary
281
     1
  3
ByBlock
350
3D
  3
ByLayer
350
3C
  3
Global
350
3E
  0
DICTIONARY
  5
E8
102
{ACAD_REACTORS
330
C
102
}
330
C
100
AcDbDictionary
281
     1
  0
DICTIONARY
  5
17
102
{ACAD_REACTORS
330
C
102
}
330
C
100
AcDbDictionary
281
     1
  3
Standard
350
18
  0
DICTIONARY
  5
19
102
{ACAD_REACTORS
330
C
102
}
330
C
100
AcDbDictionary
281
     1
  0
ACDBDICTIONARYWDFLT
  5
E
102
{ACAD_REACTORS
330
C
102
}
330
C
100
AcDbDictionary
281
     1
  3
Normal
350
F
100
AcDbDictionaryWithDefault
340
F
  0
DICTIONARY
  5
E7
102
{ACAD_REACTORS
330
C
102
}
330
C
100
AcDbDictionary
281
     1
  0
DICTIONARY
  5
2A
102
{ACAD_REACTORS
330
C
102
}
330
C
100
AcDbDictionary
281
     1
  3
2dWireframe
350
2F
  3
3D Hidden
350
31
  3
3dWireframe
350
30
  3
Basic
350
32
  3
Brighten
350
36
  3
ColorChange
350
3A
  3
Conceptual
350
34
  3
Dim
350
35
  3
Facepattern
350
39
  3
Flat
350
2B
  3
FlatWithEdges
350
2C
  3
Gouraud
350
2D
  3
GouraudWithEdges
350
2E
  3
Linepattern
350
38
  3
Realistic
350
33
  3
Thicken
350
37
  0
LAYOUT
  5
1E
102
{ACAD_REACTORS
330
1A
102
}
330
1A
100
AcDbPlotSettings
  1

  2
none_device
  4

  6

 40
0.0
 41
0.0
 42
0.0
 43
0.0
 44
0.0
 45
0.0
 46
0.0
 47
0.0
 48
0.0
 49
0.0
140
0.0
141
0.0
142
1.0
143
1.0
 70
   688
 72
     0
 73
     0
 74
     5
  7

 75
    16
 76
     0
 77
     2
 78
   300
147
1.0
148
0.0
149
0.0
100
AcDbLayout
  1
Layout1
 70
     1
 71
     1
 10
0.0
 20
0.0
 11
12.0
 21
9.0
 12
0.0
 22
0.0
 32
0.0
 14
1.000000000000000E+20
 24
1.000000000000000E+20
 34
1.000000000000000E+20
 15
-1.000000000000000E+20
 25
-1.000000000000000E+20
 35
-1.000000000000000E+20
146
0.0
 13
0.0
 23
0.0
 33
0.0
 16
1.0
 26
0.0
 36
0.0
 17
0.0
 27
1.0
 37
0.0
 76
     0
330
1B
  0
LAYOUT
  5
26
102
{ACAD_REACTORS
330
1A
102
}
330
1A
100
AcDbPlotSettings
  1

  2
none_device
  4

  6

 40
0.0
 41
0.0
 42
0.0
 43
0.0
 44
0.0
 45
0.0
 46
0.0
 47
0.0
 48
0.0
 49
0.0
140
0.0
141
0.0
142
1.0
143
1.0
 70
   688
 72
     0
 73
     0
 74
     5
  7

 75
    16
 76
     0
 77
     2
 78
   300
147
1.0
148
0.0
149
0.0
100
AcDbLayout
  1
Layout2
 70
     1
 71
     2
 10
0.0
 20
0.0
 11
0.0
 21
0.0
 12
0.0
 22
0.0
 32
0.0
 14
0.0
 24
0.0
 34
0.0
 15
0.0
 25
0.0
 35
0.0
146
0.0
 13
0.0
 23
0.0
 33
0.0
 16
1.0
 26
0.0
 36
0.0
 17
0.0
 27
1.0
 37
0.0
 76
     0
330
23
  0
LAYOUT
  5
22
102
{ACAD_REACTORS
330
1A
102
}
330
1A
100
AcDbPlotSettings
  1

  2
none_device
  4

  6

 40
0.0
 41
0.0
 42
0.0
 43
0.0
 44
0.0
 45
0.0
 46
0.0
 47
0.0
 48
0.0
 49
0.0
140
0.0
141
0.0
142
1.0
143
1.0
 70
  1712
 72
     0
 73
     0
 74
     0
  7

 75
     0
 76
     0
 77
     2
 78
   300
147
1.0
148
0.0
149
0.0
100
AcDbLayout
  1
Model
 70
     1
 71
     0
 10
0.0
 20
0.0
 11
12.0
 21
9.0
 12
0.0
 22
0.0
 32
0.0
 14
1.000000000000000E+20
 24
1.000000000000000E+20
 34
1.000000000000000E+20
 15
-1.000000000000000E+20
 25
-1.000000000000000E+20
 35
-1.000000000000000E+20
146
0.0
 13
0.0
 23
0.0
 33
0.0
 16
1.0
 26
0.0
 36
0.0
 17
0.0
 27
1.0
 37
0.0
 76
     0
330
1F
331
29
  0
MATERIAL
  5
3D
102
{ACAD_REACTORS
330
3B
102
}
330
3B
100
AcDbMaterial
  1
ByBlock
 72
     1
 94
      127
  0
MATERIAL
  5
3C
102
{ACAD_REACTORS
330
3B
102
}
330
3B
100
AcDbMaterial
  1
ByLayer
 72
     1
 94
      127
  0
MATERIAL
  5
3E
102
{ACAD_REACTORS
330
3B
102
}
330
3B
100
AcDbMaterial
  1
Global
 72
     1
 94
      127
  0
MLINESTYLE
  5
18
102
{ACAD_REACTORS
330
17
102
}
330
17
100
AcDbMlineStyle
  2
Standard
 70
     0
  3

 62
   256
 51
90.0
 52
90.0
 71
     2
 49
0.5
 62
   256
  6
BYLAYER
 49
-0.5
 62
   256
  6
BYLAYER
  0
ACDBPLACEHOLDER
  5
F
102
{ACAD_REACTORS
330
E
102
}
330
E
  0
VISUALSTYLE
  5
2F
102
{ACAD_REACTORS
330
2A
102
}
330
2A
100
AcDbVisualStyle
  2
2dWireframe
 70
     4
177
     2
291
     0
 71
     0
176
     1
 72
     2
176
     1
 73
     0
176
     1
 90
        0
176
     1
 40
-0.6
176
     1
 41
-30.0
176
     1
 62
     5
 63
     7
421
 16777215
176
     1
 74
     1
176
     1
 91
        4
176
     1
 64
     7
176
     1
 65
   257
176
     1
 75
     1
176
     1
175
     1
176
     1
 42
1.0
176
     1
 92
        0
176
     1
 66
   257
176
     1
 43
1.0
176
     1
 76
     1
176
     1
 77
     6
176
     1
 78
     2
176
     1
 67
     7
176
     1
 79
     5
176
     1
170
     0
176
     1
171
     0
176
     1
290
     0
176
     1
 93
        1
176
     1
 44
0.0
176
     1
173
     0
176
     1
  0
VISUALSTYLE
  5
31
102
{ACAD_REACTORS
330
2A
102
}
330
2A
100
AcDbVisualStyle
  2
3D Hidden
 70
     6
177
     2
291
     0
 71
     1
176
     1
 72
     2
176
     1
 73
     2
176
     1
 90
        0
176
     1
 40
-0.6
176
     1
 41
-30.0
176
     1
 62
     5
 63
     7
421
 16777215
176
     1
 74
     2
176
     1
 91
        2
176
     1
 64
     7
176
     1
 65
   257
176
     1
 75
     2
176
     1
175
     1
176
     1
 42
40.0
176
     1
 92
        0
176
     1
 66
   257
176
     1
 43
1.0
176
     1
 76
     1
176
     1
 77
     6
176
     1
 78
     2
176
     1
 67
     7
176
     1
 79
     3
176
     1
170
     0
176
     1
171
     0
176
     1
290
     0
176
     1
 93
        1
176
     1
 44
0.0
176
     1
173
     0
176
     1
  0
VISUALSTYLE
  5
30
102
{ACAD_REACTORS
330
2A
102
}
330
2A
100
AcDbVisualStyle
  2
3dWireframe
 70
     5
177
     2
291
     0
 71
     0
176
     1
 72
     2
176
     1
 73
     0
176
     1
 90
        0
176
     1
 40
-0.6
176
     1
 41
-30.0
176
     1
 62
     5
 63
     7
421
 16777215
176
     1
 74
     1
176
     1
 91
        4
176
     1
 64
     7
176
     1
 65
   257
176
     1
 75
     1
176
     1
175
     1
176
     1
 42
1.0
176
     1
 92
        0
176
     1
 66
   257
176
     1
 43
1.0
176
     1
 76
     1
176
     1
 77
     6
176
     1
 78
     2
176
     1
 67
     7
176
     1
 79
     5
176
     1
170
     0
176
     1
171
     0
176
     1
290
     0
176
     1
 93
        1
176
     1
 44
0.0
176
     1
173
     0
176
     1
  0
VISUALSTYLE
  5
32
102
{ACAD_REACTORS
330
2A
102
}
330
2A
100
AcDbVisualStyle
  2
Basic
 70
     7
177
     2
291
     1
 71
     1
176
     1
 72
     0
176
     1
 73
     1
176
     1
 90
        0
176
     1
 40
-0.6
176
     1
 41
-30.0
176
     1
 62
     5
 63
     7
421
 16777215
176
     1
 74
     0
176
     1
 91
        4
176
     1
 64
     7
176
     1
 65
   257
176
     1
 75
     1
176
     1
175
     1
176
     1
 42
1.0
176
     1
 92
        8
176
     1
 66
     7
176
     1
 43
1.0
176
     1
 76
     1
176
     1
 77
     6
176
     1
 78
     2
176
     1
 67
     7
176
     1
 79
     5
176
     1
170
     0
176
     1
171
     0
176
     1
290
     0
176
     1
 93
        1
176
     1
 44
0.0
176
     1
173
     0
176
     1
  0
VISUALSTYLE
  5
36
102
{ACAD_REACTORS
330
2A
102
}
330
2A
100
AcDbVisualStyle
  2
Brighten
 70
    12
177
     2
291
     1
 71
     2
176
     1
 72
     2
176
     1
 73
     0
176
     1
 90
        0
176
     1
 40
-0.6
176
     1
 41
-30.0
176
     1
 62
     5
 63
     7
421
 16777215
176
     1
 74
     1
176
     1
 91
        4
176
     1
 64
     7
176
     1
 65
   257
176
     1
 75
     1
176
     1
175
     1
176
     1
 42
1.0
176
     1
 92
        8
176
     1
 66
     7
176
     1
 43
1.0
176
     1
 76
     1
176
     1
 77
     6
176
     1
 78
     2
176
     1
 67
     7
176
     1
 79
     5
176
     1
170
     0
176
     1
171
     0
176
     1
290
     0
176
     1
 93
        1
176
     1
 44
50.0
176
     1
173
     0
176
     1
  0
VISUALSTYLE
  5
3A
102
{ACAD_REACTORS
330
2A
102
}
330
2A
100
AcDbVisualStyle
  2
ColorChange
 70
    16
177
     2
291
     1
 71
     2
176
     1
 72
     2
176
     1
 73
     3
176
     1
 90
        0
176
     1
 40
-0.6
176
     1
 41
-30.0
176
     1
 62
     5
 63
     8
421
  8421504
176
     1
 74
     1
176
     1
 91
        4
176
     1
 64
     7
176
     1
 65
   257
176
     1
 75
     1
176
     1
175
     1
176
     1
 42
1.0
176
     1
 92
        8
176
     1
 66
     8
424
  8421504
176
     1
 43
1.0
176
     1
 76
     1
176
     1
 77
     6
176
     1
 78
     2
176
     1
 67
     7
176
     1
 79
     5
176
     1
170
     0
176
     1
171
     0
176
     1
290
     0
176
     1
 93
        1
176
     1
 44
0.0
176
     1
173
     0
176
     1
  0
VISUALSTYLE
  5
34
102
{ACAD_REACTORS
330
2A
102
}
330
2A
100
AcDbVisualStyle
  2
Conceptual
 70
     9
177
     2
291
     0
 71
     3
176
     1
 72
     2
176
     1
 73
     0
176
     1
 90
        0
176
     1
 40
-0.6
176
     1
 41
-30.0
176
     1
 62
     5
 63
     7
421
 16777215
176
     1
 74
     2
176
     1
 91
        2
176
     1
 64
     7
176
     1
 65
   257
176
     1
 75
     1
176
     1
175
     1
176
     1
 42
40.0
176
     1
 92
        8
176
     1
 66
     7
176
     1
 43
1.0
176
     1
 76
     1
176
     1
 77
     6
176
     1
 78
     2
176
     1
 67
     7
176
     1
 79
     3
176
     1
170
     0
176
     1
171
     0
176
     1
290
     0
176
     1
 93
        1
176
     1
 44
0.0
176
     1
173
     0
176
     1
  0
VISUALSTYLE
  5
35
102
{ACAD_REACTORS
330
2A
102
}
330
2A
100
AcDbVisualStyle
  2
Dim
 70
    11
177
     2
291
     1
 71
     2
176
     1
 72
     2
176
     1
 73
     0
176
     1
 90
        0
176
     1
 40
-0.6
176
     1
 41
-30.0
176
     1
 62
     5
 63
     7
421
 16777215
176
     1
 74
     1
176
     1
 91
        4
176
     1
 64
     7
176
     1
 65
   257
176
     1
 75
     1
176
     1
175
     1
176
     1
 42
1.0
176
     1
 92
        8
176
     1
 66
     7
176
     1
 43
1.0
176
     1
 76
     1
176
     1
 77
     6
176
     1
 78
     2
176
     1
 67
     7
176
     1
 79
     5
176
     1
170
     0
176
     1
171
     0
176
     1
290
     0
176
     1
 93
        1
176
     1
 44
-50.0
176
     1
173
     0
176
     1
  0
VISUALSTYLE
  5
39
102
{ACAD_REACTORS
330
2A
102
}
330
2A
100
AcDbVisualStyle
  2
Facepattern
 70
    15
177
     2
291
     1
 71
     2
176
     1
 72
     2
176
     1
 73
     0
176
     1
 90
        0
176
     1
 40
-0.6
176
     1
 41
-30.0
176
     1
 62
     5
 63
     7
421
 16777215
176
     1
 74
     1
176
     1
 91
        4
176
     1
 64
     7
176
     1
 65
   257
176
     1
 75
     1
176
     1
175
     1
176
     1
 42
1.0
176
     1
 92
        8
176
     1
 66
     7
176
     1
 43
1.0
176
     1
 76
     1
176
     1
 77
     6
176
     1
 78
     2
176
     1
 67
     7
176
     1
 79
     5
176
     1
170
     0
176
     1
171
     0
176
     1
290
     0
176
     1
 93
        1
176
     1
 44
0.0
176
     1
173
     0
176
     1
  0
VISUALSTYLE
  5
2B
102
{ACAD_REACTORS
330
2A
102
}
330
2A
100
AcDbVisualStyle
  2
Flat
 70
     0
177
     2
291
     1
 71
     2
176
     1
 72
     1
176
     1
 73
     1
176
     1
 90
        2
176
     1
 40
-0.6
176
     1
 41
30.0
176
     1
 62
     5
 63
     7
421
 16777215
176
     1
 74
     0
176
     1
 91
        4
176
     1
 64
     7
176
     1
 65
   257
176
     1
 75
     1
176
     1
175
     1
176
     1
 42
1.0
176
     1
 92
        8
176
     1
 66
     7
176
     1
 43
1.0
176
     1
 76
     1
176
     1
 77
     6
176
     1
 78
     2
176
     1
 67
     7
176
     1
 79
     5
176
     1
170
     0
176
     1
171
     0
176
     1
290
     0
176
     1
 93
       13
176
     1
 44
0.0
176
     1
173
     0
176
     1
  0
VISUALSTYLE
  5
2C
102
{ACAD_REACTORS
330
2A
102
}
330
2A
100
AcDbVisualStyle
  2
FlatWithEdges
 70
     1
177
     2
291
     1
 71
     2
176
     1
 72
     1
176
     1
 73
     1
176
     1
 90
        2
176
     1
 40
-0.6
176
     1
 41
30.0
176
     1
 62
     5
 63
     7
421
 16777215
176
     1
 74
     1
176
     1
 91
        4
176
     1
 64
     7
176
     1
 65
   257
176
     1
 75
     1
176
     1
175
     1
176
     1
 42
1.0
176
     1
 92
        0
176
     1
 66
   257
176
     1
 43
1.0
176
     1
 76
     1
176
     1
 77
     6
176
     1
 78
     2
176
     1
 67
     7
176
     1
 79
     5
176
     1
170
     0
176
     1
171
     0
176
     1
290
     0
176
     1
 93
       13
176
     1
 44
0.0
176
     1
173
     0
176
     1
  0
VISUALSTYLE
  5
2D
102
{ACAD_REACTORS
330
2A
102
}
330
2A
100
AcDbVisualStyle
  2
Gouraud
 70
     2
177
     2
291
     1
 71
     2
176
     1
 72
     2
176
     1
 73
     1
176
     1
 90
        2
176
     1
 40
-0.6
176
     1
 41
30.0
176
     1
 62
     5
 63
     7
421
 16777215
176
     1
 74
     0
176
     1
 91
        4
176
     1
 64
     7
176
     1
 65
   257
176
     1
 75
     1
176
     1
175
     1
176
     1
 42
1.0
176
     1
 92
        0
176
     1
 66
     7
176
     1
 43
1.0
176
     1
 76
     1
176
     1
 77
     6
176
     1
 78
     2
176
     1
 67
     7
176
     1
 79
     5
176
     1
170
     0
176
     1
171
     0
176
     1
290
     0
176
     1
 93
       13
176
     1
 44
0.0
176
     1
173
     0
176
     1
  0
VISUALSTYLE
  5
2E
102
{ACAD_REACTORS
330
2A
102
}
330
2A
100
AcDbVisualStyle
  2
GouraudWithEdges
 70
     3
177
     2
291
     1
 71
     2
176
     1
 72
     2
176
     1
 73
     1
176
     1
 90
        2
176
     1
 40
-0.6
176
     1
 41
30.0
176
     1
 62
     5
 63
     7
421
 16777215
176
     1
 74
     1
176
     1
 91
        4
176
     1
 64
     7
176
     1
 65
   257
176
     1
 75
     1
176
     1
175
     1
176
     1
 42
1.0
176
     1
 92
        0
176
     1
 66
   257
176
     1
 43
1.0
176
     1
 76
     1
176
     1
 77
     6
176
     1
 78
     2
176
     1
 67
     7
176
     1
 79
     5
176
     1
170
     0
176
     1
171
     0
176
     1
290
     0
176
     1
 93
       13
176
     1
 44
0.0
176
     1
173
     0
176
     1
  0
VISUALSTYLE
  5
38
102
{ACAD_REACTORS
330
2A
102
}
330
2A
100
AcDbVisualStyle
  2
Linepattern
 70
    14
177
     2
291
     1
 71
     2
176
     1
 72
     2
176
     1
 73
     0
176
     1
 90
        0
176
     1
 40
-0.6
176
     1
 41
-30.0
176
     1
 62
     5
 63
     7
421
 16777215
176
     1
 74
     1
176
     1
 91
        4
176
     1
 64
     7
176
     1
 65
   257
176
     1
 75
     7
176
     1
175
     7
176
     1
 42
1.0
176
     1
 92
        8
176
     1
 66
     7
176
     1
 43
1.0
176
     1
 76
     1
176
     1
 77
     6
176
     1
 78
     2
176
     1
 67
     7
176
     1
 79
     5
176
     1
170
     0
176
     1
171
     0
176
     1
290
     0
176
     1
 93
        1
176
     1
 44
0.0
176
     1
173
     0
176
     1
  0
VISUALSTYLE
  5
33
102
{ACAD_REACTORS
330
2A
102
}
330
2A
100
AcDbVisualStyle
  2
Realistic
 70
     8
177
     2
291
     0
 71
     2
176
     1
 72
     2
176
     1
 73
     0
176
     1
 90
        0
176
     1
 40
-0.6
176
     1
 41
-30.0
176
     1
 62
     5
 63
     7
421
 16777215
176
     1
 74
     1
176
     1
 91
        0
176
     1
 64
     7
176
     1
 65
   257
176
     1
 75
     1
176
     1
175
     1
176
     1
 42
1.0
176
     1
 92
        8
176
     1
 66
     8
424
  7895160
176
     1
 43
1.0
176
     1
 76
     1
176
     1
 77
     6
176
     1
 78
     2
176
     1
 67
     7
176
     1
 79
     5
176
     1
170
     0
176
     1
171
     0
176
     1
290
     0
176
     1
 93
       13
176
     1
 44
0.0
176
     1
173
     0
176
     1
  0
VISUALSTYLE
  5
37
102
{ACAD_REACTORS
330
2A
102
}
330
2A
100
AcDbVisualStyle
  2
Thicken
 70
    13
177
     2
291
     1
 71
     2
176
     1
 72
     2
176
     1
 73
     0
176
     1
 90
        0
176
     1
 40
-0.6
176
     1
 41
-30.0
176
     1
 62
     5
 63
     7
421
 16777215
176
     1
 74
     1
176
     1
 91
        4
176
     1
 64
     7
176
     1
 65
   257
176
     1
 75
     1
176
     1
175
     1
176
     1
 42
1.0
176
     1
 92
       12
176
     1
 66
     7
176
     1
 43
1.0
176
     1
 76
     1
176
     1
 77
     6
176
     1
 78
     2
176
     1
 67
     7
176
     1
 79
     5
176
     1
170
     0
176
     1
171
     0
176
     1
290
     0
176
     1
 93
        1
176
     1
 44
0.0
176
     1
173
     0
176
     1
  0
ENDSEC
  0
EOF
