<?xml version="1.0" encoding="utf-8"?>
<!-- Generator: Adobe Illustrator 21.1.0, SVG Export Plug-In . SVG Version: 6.00 Build 0)  -->
<svg version="1.1" id="Calque_1" xmlns="http://www.w3.org/2000/svg" xmlns:xlink="http://www.w3.org/1999/xlink" x="0px" y="0px"
	 viewBox="0 0 432 432" style="enable-background:new 0 0 432 432;" xml:space="preserve">
<style type="text/css">
	.st0{fill:#BE1622;}
	.st1{fill:#C69C6C;}
	.st2{fill:#F39200;}
	.st3{fill:#F9B03D;}
	.st4{fill:#5BA7AD;}
	.st5{fill:#3F7579;}
	.st6{fill:#1B1B1B;}
	.st7{fill:#FFFFFF;}
	.st8{fill:#D8B6C4;}
	.st9{fill:#765844;}
	.st10{fill:#E9B2C5;}
	.st11{fill:#C7B29A;}
	.st12{fill:#EDBD7D;}
	.st13{fill:#1D71B8;}
	.st14{fill:#95C11F;}
	.st15{fill:#E94E1B;}
	.st16{fill:#575756;}
	.st17{fill:#844C16;}
	.st18{fill:#E50071;}
	.st19{fill:#AF175D;}
	.st20{fill:#E4051E;}
	.st21{fill:#13110C;}
	.st22{fill:#891A2C;}
	.st23{fill:#28295F;}
	.st24{fill:#CECFBC;}
	.st25{fill:#981F24;}
	.st26{fill:#020203;}
	.st27{fill:#BC2333;}
	.st28{fill:#AD1917;}
	.st29{fill:#04683B;}
	.st30{fill:#049348;}
	.st31{fill:#2D3D8D;}
	.st32{fill:#F39233;}
	.st33{fill:#EB5C35;}
	.st34{fill:#AA1917;}
	.st35{fill:#55514F;}
	.st36{fill:#20376D;}
	.st37{fill:#B3BBC5;}
	.st38{fill:#BAC6BC;}
	.st39{fill:#B4BA8C;}
	.st40{fill:#746458;}
	.st41{fill:#343434;}
	.st42{fill:#CEC3BC;}
	.st43{fill:#FBBA0E;}
	.st44{fill:#FED98D;}
	.st45{fill:#676767;}
	.st46{fill:#8DBE22;}
	.st47{fill:#D0E1A4;}
	.st48{fill:#EFE8E4;}
	.st49{fill:#754695;}
	.st50{fill:#A78BC0;}
	.st51{fill:#8EC045;}
	.st52{fill:#0D71B9;}
	.st53{fill:#EAC686;}
	.st54{fill:#D24063;}
	.st55{fill:#E2A11A;}
	.st56{fill:#E9BD71;}
	.st57{fill:#E8423E;}
	.st58{fill:#F8AE4C;}
	.st59{fill:#00A19A;}
	.st60{fill:#2578B9;}
	.st61{fill:#A29F9D;}
	.st62{fill:#D2B89A;}
	.st63{fill:#E6C2A9;}
	.st64{fill:#6E3B11;}
	.st65{fill:#9B6228;}
	.st66{fill:#C9A1CB;}
	.st67{fill:#F8AB00;}
	.st68{fill:#BEBBBB;}
	.st69{fill:#066938;}
	.st70{fill:#36A36A;}
	.st71{fill:#4F702A;}
	.st72{fill:#A4191E;}
	.st73{fill:#3AAA35;}
	.st74{fill:#D01419;}
	.st75{fill:#CA1527;}
	.st76{fill:#684A40;}
	.st77{fill:#9A7B65;}
	.st78{fill:#FBB700;}
	.st79{fill:#82BB26;}
	.st80{fill:#00A8E4;}
	.st81{fill:#CEA57B;}
	.st82{fill:#57B031;}
	.st83{fill:#E5251F;}
	.st84{fill:#EFDD37;}
	.st85{fill:#59C4E9;}
	.st86{fill:#F08017;}
	.st87{fill:#974393;}
	.st88{fill:#F9EA31;}
	.st89{fill:#C1292E;}
	.st90{fill:#F2D77E;}
	.st91{fill:#E6332A;}
	.st92{fill:#29235C;}
	.st93{fill:#3C3C3B;}
	.st94{fill:#2FAC66;}
	.st95{fill:#2D2E83;}
	.st96{fill:#645B51;}
	.st97{fill:#36A9E1;}
	.st98{fill:#312783;}
	.st99{fill:#2E4959;}
	.st100{fill:#5F8699;}
	.st101{fill:#172B35;}
	.st102{fill:#C3D5E4;}
	.st103{fill:#7B9135;}
	.st104{fill:#E59546;}
	.st105{fill:#B2C65F;}
	.st106{fill:#85BBB7;}
	.st107{fill:#F39323;}
	.st108{fill:#FFFFFE;}
	.st109{fill:#EFD2AC;}
	.st110{fill:#C0E0EF;}
	.st111{fill:#EFDAEC;}
	.st112{fill:#63B8A4;}
	.st113{fill:#BDCCD4;}
	.st114{fill:#8C633A;}
	.st115{fill:#CA9E67;}
	.st116{fill:#7D4E24;}
	.st117{fill:#B8B569;}
	.st118{fill:#E8C515;}
	.st119{fill:#A5A258;}
	.st120{fill:#AA884D;}
	.st121{fill:#9E994B;}
	.st122{fill:#D1A479;}
	.st123{fill:#936037;}
	.st124{fill:#FAFAFA;}
	.st125{fill:#98CDC5;}
	.st126{fill:#E1EBE8;}
	.st127{fill:#DDCE9E;}
	.st128{fill:#A67D52;}
	.st129{fill:#437156;}
	.st130{fill:#4F8366;}
	.st131{fill:#8F6947;}
	.st132{fill:#856143;}
	.st133{fill:#171512;}
	.st134{fill:#AA191B;}
	.st135{fill:#1C1A38;}
	.st136{fill:#8E8C38;}
	.st137{fill:#CAC955;}
	.st138{fill:#6C6A29;}
	.st139{fill:#D8D564;}
	.st140{fill:#5CABD5;}
	.st141{fill:#70B4D9;}
	.st142{fill:#9A9999;}
	.st143{fill:#B4B4B4;}
	.st144{fill:#ABAA3D;}
	.st145{fill:#D7DB2F;}
	.st146{fill:#B8CED8;}
	.st147{fill:#05AB9E;}
	.st148{fill:#DAB828;}
	.st149{fill:#EB7533;}
	.st150{fill:#EDE4CA;}
	.st151{fill:#575452;}
	.st152{fill:#F9F6F4;}
	.st153{fill:#94B2AA;}
	.st154{fill:#D8D7C4;}
	.st155{fill:#BAD68E;}
	.st156{fill:#F0E6E1;}
	.st157{fill:#BFD786;}
	.st158{fill:#E9E499;}
	.st159{fill:#A2D3C2;}
	.st160{fill:#EB7976;}
	.st161{fill:#EEF4E7;}
	.st162{fill:#EADA7F;}
	.st163{fill:#B2D9C2;}
	.st164{fill:#43B284;}
	.st165{fill:#9AC028;}
	.st166{fill:#D8AD80;}
	.st167{fill:#F2F2F2;}
	.st168{fill:#767574;}
	.st169{fill:#CDC8C6;}
	.st170{fill:#634E42;}
	.st171{fill:#E4E0DF;}
	.st172{fill:#D98F53;}
	.st173{fill:#E2CAB5;}
	.st174{fill:#B61824;}
	.st175{fill:#E2BAA0;}
	.st176{fill:#CF455A;}
	.st177{fill:#648546;}
	.st178{fill:#4F6834;}
	.st179{fill:#91BB64;}
	.st180{fill:#D1CE4D;}
	.st181{fill:#CFCE67;}
	.st182{fill:#E5E4BD;}
	.st183{fill:#A69F28;}
	.st184{fill:#E3BF32;}
	.st185{fill:#E68024;}
	.st186{fill:#D27444;}
	.st187{fill:#D1B05A;}
	.st188{fill:#F4E3BD;}
	.st189{fill:#668852;}
	.st190{fill:#A3C18F;}
	.st191{fill:#D8B41E;}
	.st192{fill:#E2DBBA;}
	.st193{fill:#603914;}
	.st194{fill:#CF1042;}
	.st195{fill:#2F8A7F;}
	.st196{fill:#D19A69;}
	.st197{fill:#E9C3A4;}
	.st198{fill:#F2BF21;}
	.st199{fill:#CFD3D1;}
	.st200{fill:#E9F2ED;}
	.st201{fill:#4E4D4D;}
	.st202{fill:#C4E2D0;}
	.st203{fill:#F3F3F3;}
	.st204{fill:#F8FAF9;}
	.st205{fill:#C6B5A8;}
	.st206{fill:#F2F1E7;}
	.st207{fill:#CEC87B;}
	.st208{fill:#C7E4E5;}
	.st209{fill:#D4894A;}
	.st210{fill:#FBFDFA;}
	.st211{fill:#B4CD5F;}
	.st212{fill:#1F1B15;}
	.st213{fill:#161210;}
	.st214{fill:#A8D1D2;}
	.st215{fill:#8E6640;}
	.st216{fill:#B22518;}
	.st217{fill:#683F1D;}
	.st218{fill:#F0F7F7;}
	.st219{fill:#CD924B;}
	.st220{fill:#CDCCCC;}
	.st221{fill:#F2D7C0;}
	.st222{fill:#B21924;}
	.st223{fill:#EDCEB1;}
	.st224{fill:#7D552C;}
	.st225{fill:#A0BC6F;}
	.st226{fill:#94AD65;}
	.st227{fill:#E7E6E6;}
	.st228{fill:#9FD6DB;}
	.st229{fill:#EACD7F;}
	.st230{fill:#E28C52;}
	.st231{fill:#141414;}
	.st232{fill:#E97E28;}
	.st233{fill:#D0C657;}
	.st234{fill:#F3BC95;}
	.st235{fill:#FBFDFC;}
	.st236{fill:#CA252F;}
	.st237{fill:#B8B6B7;}
	.st238{fill:#808181;}
	.st239{fill:#F7F5DB;}
	.st240{fill:#CA1618;}
	.st241{fill:#FDC30B;}
	.st242{fill:#5F3917;}
	.st243{fill:#FFDA36;}
	.st244{fill:#AB7049;}
	.st245{fill:#619DCF;}
	.st246{fill:#45779A;}
	.st247{fill:#68AFA1;}
	.st248{fill:#108E77;}
	.st249{fill:#A5779F;}
	.st250{fill:#008D36;}
	.st251{fill:#E83E49;}
	.st252{fill:#A12D38;}
	.st253{fill-rule:evenodd;clip-rule:evenodd;fill:#677124;}
</style>
<g>
	<g>
		<path class="st186" d="M313.3,170.1c9.1-6.6,11.7-19.5,6.9-29c-1.5-2.9-4-4.8-5.7-7.5c-2.5-3.9-0.7-7.9-5.2-17
			c-15-30-45-17.4-48-20.2c-2.7-2.5-5.7-4.4-9.1-5.7c-10.2-4.2-22.1-3-31.1,3.4c-3.7-5.2-10.2-7.1-16.4-6.2
			c-7.8,1.2-13.9,6.6-19.4,12c-7.1-3.5-36.2,0.4-37.4,12.2c-25.8-10.9-48.8,29.4-37.8,39.8c-22.2,5.1-24.6,59.3-0.9,58.3
			c-15.2,24.5-3.2,49.7,30,43.6c-0.8,4.9-1.3,10.2,0.6,14.9c5.9,14.4,42.3,11.9,44.4,8c15.1,11.6,53.7,8.3,56-2.9
			c20.7,9,55.9,3,51.1-15.7c18.7,3.5,37.3-17.9,23.6-44.5C328.5,207.7,332.8,187.2,313.3,170.1z"/>
		<path class="st187" d="M275.3,140.5c-13-9.8-30.7-5.3-38.8,7.5c-15-5.5-31.6-6-46.9-0.7c-2.2-4.7-5.7-8.8-10.4-11.4
			c-26.6-14.9-48.4,22.5-22.5,36.8c-25.5,32.6,3.6,92.3,73.3,80.7c47.8-7.9,53.5-62.8,41.6-78.5C286.3,166.8,287.9,150,275.3,140.5z
			"/>
		<g>
			<g>
				<path class="st41" d="M258,149.1c5.7-2,12.6-0.5,14,6.1c0.3,1.5,2.6,0.9,2.3-0.6c-1.6-7.9-10.1-10.2-16.9-7.8
					C256,147.3,256.6,149.6,258,149.1L258,149.1z"/>
			</g>
			<g>
				<path class="st41" d="M177.1,146.9c-7.1-4.2-19.5,0.9-20.6,9.4c-0.2,1.5,2.2,1.5,2.4,0c0.8-6.6,11.8-10.4,17-7.3
					C177.2,149.8,178.4,147.7,177.1,146.9L177.1,146.9z"/>
			</g>
		</g>
		<path class="st41" d="M217.7,214c-0.3-0.6-0.8-0.7-1.3-0.7c-2-0.7-6-0.7-8.1-0.7c-13.1-0.9-5.9,11.2,0,13
			c-0.1,2.4-0.1,4.7,1.3,4.7c1.7,0,1-1.9,1-4.4C217.3,225.3,221.1,216.9,217.7,214z M205.2,220.2c-1-1.3-2.9-4.2-0.8-5.2
			c8.5,0.2,1.7,0,10.7,0.6C218.9,217.6,212,228.7,205.2,220.2z"/>
		<ellipse class="st188" cx="247.5" cy="213.7" rx="9.6" ry="6.4"/>
		<ellipse class="st188" cx="174" cy="212.9" rx="9.6" ry="6.4"/>
		<ellipse class="st41" cx="179.6" cy="193" rx="4.8" ry="8"/>
		<ellipse class="st41" cx="244.3" cy="191.4" rx="4.8" ry="8"/>
		<g>
			<path class="st41" d="M223.8,239.9c4.9,0,4.9-7.6,0-7.6C218.9,232.3,218.9,239.9,223.8,239.9L223.8,239.9z"/>
		</g>
	</g>
	<g>
		<g>
			<path class="st189" d="M132.5,302.8c4.6-8.7,3.7-18.5-1.4-26.7c-9.2-13.5-25-14.8-40-13.7c-1.1,0.1-3.3,0.8-3.3,2.3
				c0,26,0,52,0,78c0,0.7,1.4,0.8,1.7,0.8c3.3,0,6.7,0,10,0c1.3,0,4.1-0.6,4.1-2.3c0-2.4,0-4.8,0-7.2c0.1,0.1,0.2,0.2,0.4,0.4
				c2.6,2.6,5.2,6.2,8.2,8.2c1.8,1.3,3.6,0.9,5.9,0.9c3.5,0,6.9,0,10.4,0c0.8,0,5.3-1.2,3.9-2.7c-7.2-7.1-14.3-14.3-21.5-21.4
				C119.8,316.5,128,311.3,132.5,302.8z M122.8,293.6c-0.5,8.9-11.2,15.6-23.9,15l1.7-32.4C113.3,276.9,123.3,284.7,122.8,293.6z"/>
			<path class="st190" d="M171.7,261.8c-19.8,3.8-30.3,22-30.5,41.1c0.2,16.9,7.8,33.7,24.8,39.5c14.2,4.8,30.4,0.3,39.9-11.3
				c11.4-13.9,12.3-36.5,3.7-51.9C202.1,265.7,186.6,258.9,171.7,261.8z M179.1,331c-12.2,0-22.1-11.7-22.1-26.1s9.9-26.1,22.1-26.1
				c12.2,0,22.1,11.7,22.1,26.1S191.3,331,179.1,331z"/>
			<path class="st189" d="M254.2,261.1c-0.7-2.4-5.3-0.5-5.8,1.1c-9.1,26.7-18.2,53.3-27.2,80c-0.1,0.4,0,0.7,0.2,0.9
				c0.2,0.3,0.7,0.6,1.7,0.6c3.5,0,7,0,10.6,0c1.5,0,3.5-0.5,4-2.1c1.1-3.4,2.2-6.8,3.3-10.2c5.8,0,11.5,0,17.2,0
				c1.1,3.8,2.1,7.5,3.2,11.3c0.2,0.7,1.1,1,1.8,1c3.5,0,6.9,0,10.4,0c1.1,0,4.5-0.7,4-2.6C269.7,314.4,261.9,287.7,254.2,261.1z
				 M250.4,318.8c-5.3,0-9.6-5.1-9.6-11.3c0-6.2,4.3-11.3,9.6-11.3c5.3,0,9.6,5.1,9.6,11.3C260,313.8,255.7,318.8,250.4,318.8z"/>
			<path class="st190" d="M328,302.8c4.6-8.7,3.7-18.5-1.4-26.7c-9.2-13.5-25-14.8-40-13.7c-1.1,0.1-3.3,0.8-3.3,2.3c0,26,0,52,0,78
				c0,0.7,1.4,0.8,1.7,0.8c3.3,0,6.7,0,10,0c1.3,0,4.1-0.6,4.1-2.3c0-2.4,0-4.8,0-7.2c0.1,0.1,0.2,0.2,0.4,0.4
				c2.6,2.6,5.2,6.2,8.2,8.2c1.8,1.3,3.6,0.9,5.9,0.9c3.5,0,6.9,0,10.4,0c0.8,0,5.3-1.2,3.9-2.7c-7.2-7.1-14.3-14.3-21.5-21.4
				C315.3,316.5,323.6,311.3,328,302.8z M321.1,291.9c-0.5,8.9-11.2,15.6-23.9,15l1.7-32.4C311.6,275.1,321.5,282.9,321.1,291.9z"/>
			<ellipse class="st189" cx="344.1" cy="336.7" rx="6.7" ry="6.7"/>
			<rect x="339.6" y="261.1" class="st189" width="9" height="61.2"/>
		</g>
		<g>
			<g>
				<path class="st189" d="M356.6,230.6c3.2-4.1,5.7-20.9,3.1-21.5c-6.5-1.6-14.4,4.3-18.1,8.9c-7.2,9-7.3,23.1-6.2,24.2
					C336.3,246.4,354,234,356.6,230.6z"/>
				<path class="st190" d="M377.8,244.2c-3.3-5.3-11-5.7-16.7-5.9c-11.7-0.4-23.1,11-19.8,12.6c6.1,6.1,29.1-5.1,35.4-4.8
					C377.7,246.2,378.3,245,377.8,244.2z"/>
			</g>
			<g>
				<path class="st189" d="M75.4,229.7c-3.2-4.1-5.7-20.9-3.1-21.5c6.5-1.6,14.4,4.3,18.1,8.9c7.2,9,7.3,23.1,6.2,24.2
					C95.7,245.6,78,233.1,75.4,229.7z"/>
				<path class="st190" d="M54.2,243.4c3.3-5.3,11-5.7,16.7-5.9c11.7-0.4,23.1,11,19.8,12.6c-6.1,6.1-29.1-5.1-35.4-4.8
					C54.3,245.4,53.7,244.2,54.2,243.4z"/>
			</g>
		</g>
	</g>
</g>
</svg>
