<?xml version="1.0" encoding="utf-8"?>
<!-- Generator: Adobe Illustrator 22.0.0, SVG Export Plug-In . SVG Version: 6.00 Build 0)  -->
<svg version="1.1" id="Calque_1" xmlns="http://www.w3.org/2000/svg" xmlns:xlink="http://www.w3.org/1999/xlink" x="0px" y="0px"
	 viewBox="0 0 432 432" style="enable-background:new 0 0 432 432;" xml:space="preserve">
<style type="text/css">
	.st0{fill:#E5DAC7;}
	.st1{fill:#FAF3E3;}
	.st2{fill:#C7B29A;}
	.st3{fill:#972021;}
	.st4{fill:#E9EAE4;}
	.st5{fill:#8C633A;}
	.st6{fill:#F39323;}
	.st7{fill:#ED6F71;}
	.st8{fill:#FFFFFF;}
	.st9{fill:#B6CE3F;}
	.st10{fill:#95AF23;}
	.st11{fill:#18B0C1;}
	.st12{fill:#C2E1D1;}
	.st13{fill:#9F1E29;}
	.st14{fill:#E6E9EA;}
	.st15{fill:#020203;}
	.st16{fill:#4D9564;}
	.st17{fill:#754D24;}
	.st18{fill:#A67D52;}
	.st19{fill:#F0D2B5;}
	.st20{fill:#E1BC9E;}
	.st21{fill:#97509A;}
	.st22{fill:#603914;}
	.st23{fill:#E83078;}
	.st24{fill:#E89125;}
	.st25{fill:#89BF4A;}
	.st26{fill:#82171C;}
	.st27{fill:#6CC2EE;}
	.st28{fill:#1861A9;}
	.st29{fill:#E00825;}
	.st30{fill:#109F3D;}
	.st31{fill:#808181;}
	.st32{fill:#D79A5D;}
	.st33{fill:#C68448;}
	.st34{fill:#D62416;}
	.st35{fill:#F9D61D;}
	.st36{fill:#A9191E;}
	.st37{fill:#F3E4E7;}
	.st38{fill:none;}
	.st39{fill:#E8CAA3;}
	.st40{fill:#64121D;}
	.st41{fill:#15A57E;}
	.st42{fill:#167157;}
	.st43{fill:#CF8916;}
	.st44{fill:#B26F14;}
	.st45{fill:#901D81;}
	.st46{fill:#612261;}
	.st47{fill:#B88E5C;}
	.st48{fill:#EBDCC8;}
	.st49{fill:#F3A0BE;}
	.st50{fill:#FAD7E3;}
	.st51{fill:#EAD797;}
	.st52{fill:#E18CAC;}
	.st53{fill:#A8D9DD;}
	.st54{fill:#67C2C6;}
	.st55{fill:#4EADAD;}
	.st56{fill:#CDCCCC;}
	.st57{fill:#D4C3B3;}
	.st58{fill:#CAB9A7;}
	.st59{fill:#C69C6C;}
	.st60{fill:#D7C5B3;}
	.st61{fill:#96877C;}
	.st62{fill:#EFE8E9;}
	.st63{fill:#B4B4B4;}
	.st64{fill:#F0CC53;}
	.st65{fill:#EE7D54;}
	.st66{fill:#F5D29D;}
	.st67{fill:#5D403F;}
	.st68{fill:#F9CBCC;}
	.st69{fill:#F6DEB8;}
	.st70{fill:#D6A14D;}
	.st71{fill:#B09878;}
	.st72{fill:#C1292E;}
	.st73{fill:#5B4841;}
	.st74{fill:#E0C399;}
	.st75{fill:#EBDA8C;}
	.st76{fill:#363A3D;}
	.st77{fill:#BFC1D7;}
	.st78{fill:#7188BA;}
	.st79{fill:#A34F4D;}
	.st80{fill:#D9CD7A;}
	.st81{fill:#D9AF66;}
	.st82{fill:#E6C776;}
	.st83{fill:#575756;}
	.st84{fill:#C3BF5B;}
	.st85{fill:#63622A;}
	.st86{fill:#E1AE9D;}
	.st87{fill:#D9C7AB;}
	.st88{fill:#B3625C;}
	.st89{fill:#D4BB78;}
	.st90{fill:#009245;}
	.st91{fill:#0B7B3A;}
	.st92{fill:#911A29;}
	.st93{fill:#571419;}
	.st94{fill:#9A9999;}
	.st95{fill:#A81922;}
	.st96{fill:#A3282E;}
	.st97{fill:#B3713B;}
	.st98{fill:#998675;}
	.st99{fill:#6189B1;}
	.st100{fill:#E0EDF3;}
	.st101{fill:#A5C0DF;}
	.st102{fill:#DBDBDB;}
	.st103{fill:#067838;}
	.st104{fill:#E5AEBF;}
	.st105{fill:#9982BC;}
	.st106{fill:#E7E6E6;}
	.st107{fill:#706F6F;}
	.st108{fill:#746458;}
	.st109{fill:#412413;}
	.st110{fill:#544842;}
	.st111{fill:#DAA405;}
	.st112{fill:#D06C5D;}
	.st113{fill:#8C694B;}
	.st114{fill:#C8C8CE;}
	.st115{fill:#D286A7;}
	.st116{fill:#C6CCCC;}
	.st117{fill:#A65F42;}
	.st118{fill:#343434;}
	.st119{fill:#A56E45;}
	.st120{fill:#F2F2F2;}
	.st121{fill:#8AC18A;}
	.st122{fill:#4B6678;}
	.st123{fill:#324C5B;}
	.st124{fill:#97AFBC;}
	.st125{fill:#B27D63;}
	.st126{fill:#6A737A;}
	.st127{fill:#72403F;}
	.st128{fill:#8D7968;}
	.st129{fill:#1B1B1B;}
	.st130{fill:#6B141A;}
	.st131{fill:#E4DCCC;}
	.st132{fill:#B33949;}
	.st133{fill:#6D141B;}
	.st134{fill:#911825;}
	.st135{fill:#821622;}
	.st136{fill:#1F1D1D;}
	.st137{fill:#CC1417;}
	.st138{fill:#69362D;}
	.st139{fill:#ECC9AE;}
	.st140{fill:#471E19;}
	.st141{fill:#2B1D1C;}
	.st142{fill:#BE1622;}
	.st143{fill:#E6332A;}
	.st144{fill:#D8EAF8;}
	.st145{fill:#D4AE8E;}
	.st146{fill:#883B4C;}
	.st147{fill:#C74A54;}
	.st148{fill:#F2959C;}
	.st149{fill:#3C3C3B;}
</style>
<g>
	<g>
		<path class="st13" d="M321.9,221c-0.4-2.9-0.6-5.6-1.2-8.1c-1.1-4.8-3.6-8.8-8-11.4c-3.5-2.1-7.2-2.2-10.9-0.4
			c-5.7,2.8-8.9,7.6-10.9,13.4c-3.4,9.9-3.2,19.8-0.4,29.8c0.8,2.9,2.2,5.6,3.6,8.2c2,3.9,5.6,5.5,9.8,5.7c0.5,0,1.1,0,1.6,0
			c12.3-1.2,23.7-4.9,33.3-13c3.3-2.8,6-6,7.5-10.1c0.5-1.2,0.8-2.5,1-3.8c1-8.5-4.7-14.6-13.2-14.4c-2.7,0.1-5.3,0.7-7.7,1.9
			C325,219.5,323.5,220.2,321.9,221z"/>
		<path class="st13" d="M329.4,147.1c-0.2-1.7-0.3-3.3-0.7-4.8c-0.7-2.8-2.1-5.2-4.7-6.7c-2.1-1.2-4.2-1.3-6.4-0.2
			c-3.4,1.6-5.2,4.5-6.4,7.9c-2,5.8-1.9,11.7-0.3,17.5c0.5,1.7,1.3,3.3,2.1,4.8c1.2,2.3,3.3,3.2,5.8,3.3c0.3,0,0.6,0,0.9,0
			c7.2-0.7,13.9-2.9,19.6-7.7c1.9-1.6,3.5-3.5,4.4-5.9c0.3-0.7,0.5-1.5,0.6-2.3c0.6-5-2.7-8.6-7.8-8.5c-1.6,0-3.1,0.4-4.5,1.1
			C331.2,146.1,330.3,146.6,329.4,147.1z"/>
	</g>
	<g>
		<path class="st98" d="M155.7,236c-3-10.6-7.9-20.2-14.5-29c-1.1-1.4-2.3-2.8-3.5-4.2l1.4-1.1c0.6-0.5,0.7-1.3,0.2-1.9l-2.6-3.3
			c-0.5-0.6-1.3-0.7-1.9-0.2l-9.9,7.7c-0.6,0.5-0.7,1.3-0.2,1.9l2.6,3.3c0.5,0.6,1.3,0.7,1.9,0.2l1.4-1c0.5,0.8,1,1.7,1.6,2.5
			c7.8,11.7,12.6,24.3,13.9,38.4c1.1,12.3-7,25.9-22.5,26.5c-5.6,0.2-10.7-1.1-15-4.9c-4-3.6-6.8-8-8.6-12.9
			c-3.6-9.6-5.1-19.6-5-29.8c0-3.8,0.3-7.6,0.6-11.5L98,217c0.7,0.1,1.4-0.4,1.6-1.1l0.7-4.1c0.1-0.7-0.4-1.4-1.1-1.6L86.9,208
			c-0.7-0.1-1.4,0.4-1.6,1.1l-0.7,4.1c-0.1,0.7,0.4,1.4,1.1,1.6l1.6,0.3c-0.2,0.6-0.3,1.3-0.5,2c-3.4,16.3-2.9,32.4,3.2,48
			c3.6,9.3,9.6,16.3,18.6,20.6c3.4,1.6,6.9,2.8,10.9,3.1c6.9,0.1,14.9-1.9,23-6.3c7.6-4.5,13.6-13.8,15-23.2
			C158.8,251.4,157.9,243.6,155.7,236z"/>
		<g>
			<path class="st108" d="M103.6,278.2c-0.4-1.7,0.6-3.1,2.3-3.5c1.5-0.3,3.1,0.6,3.5,2.1c0.4,1.6-0.5,3.2-2.2,3.6
				C105.5,280.7,104,279.8,103.6,278.2z"/>
			<path class="st108" d="M94.3,259.2c1.6-0.4,3.3,0.6,3.6,2.2c0.3,1.7-0.7,3.1-2.4,3.5c-1.6,0.3-3-0.5-3.4-2.1
				C91.7,261.1,92.7,259.5,94.3,259.2z"/>
			<path class="st108" d="M150,270c-1.6,0.4-3.2-0.6-3.6-2.2c-0.4-1.7,0.6-3.2,2.2-3.6c1.5-0.3,3.1,0.6,3.5,2.1
				C152.6,268,151.6,269.6,150,270z"/>
			<path class="st108" d="M149,233.6c-1.6,0.4-3.2-0.6-3.6-2.2c-0.4-1.6,0.5-3,2-3.5c1.7-0.5,3.2,0.4,3.6,2
				C151.5,231.6,150.6,233.2,149,233.6z"/>
			<path class="st108" d="M152.7,250.9c-1.7,0.4-3.1-0.6-3.4-2.3c-0.3-1.6,0.6-3,2.2-3.4c1.6-0.4,3.2,0.6,3.6,2.2
				C155.3,249.1,154.4,250.5,152.7,250.9z"/>
			<path class="st108" d="M91.3,247.6c-1.7,0.4-3.2-0.5-3.6-2.2c-0.4-1.6,0.5-3.1,2.1-3.5c1.6-0.5,3.2,0.4,3.6,2.1
				C93.9,245.7,93.1,247.2,91.3,247.6z"/>
			<path class="st108" d="M146.1,287l-27.7,6.8c-0.8,0.2-1.6-0.3-1.7-1.1l-2.2-9c-0.2-0.8,0.3-1.6,1.1-1.7l27.7-6.8
				c0.8-0.2,1.6,0.3,1.7,1.1l2.2,9C147.3,286.1,146.8,286.8,146.1,287z"/>
		</g>
	</g>
	<g>
		<path class="st109" d="M222,367.1c-4.8,0-9.7,0.1-14.5,0c-5-0.1-9.9-0.5-14.9-0.7c-2.3-0.1-4.7-0.3-7-0.5
			c-5.9-0.5-11.8-1.3-17.4-3.3c-2.2-0.8-4.3-1.8-6.3-3c-1.7-1-3.2-2.3-4.3-3.9c-1.6-2.3-2.3-4.8-2.1-7.7c0.4-5.4,1.3-10.7,2.6-15.9
			c2.8-11,5.5-22,7.8-33.2c1.1-5.6,2-11.2,2.9-16.8c1.2-7.3,2.3-14.7,3.4-22c0.7-4.4,1.3-8.8,1.8-13.3c0.5-4.7,0.3-9.4,0.2-14.2
			c-0.1-2.9-0.2-5.9-0.5-8.7c-0.4-3.6-1.1-7.1-1.7-10.7c-0.3-1.7-0.7-3.5-0.9-5.2c-0.3-2-0.8-3.9-1.4-5.8c-0.7-2-1.2-4-1.3-6.1
			c-0.3-3.6,0.8-6.5,3.8-8.6c3.1-2.2,6.6-3.4,10.3-3.9c3.5-0.5,7-0.8,10.6-0.9c4.6-0.2,9.1-0.5,13.7-0.8c7.2-0.5,14.4-0.5,21.6-0.6
			c4.3,0,8.6,0.2,12.9,0.4c5.9,0.3,11.9,1,17.6,2.5c3.4,0.9,6.6,2.2,9.8,3.7c0.9,0.4,1.7,0.9,2.5,1.6c2,1.6,3,3.5,2.6,6.2
			c-1,6.5-1.1,13.2-1.3,19.8c-0.1,3.6-0.1,7.2-0.1,10.8c0,5.8,0.3,11.6,0.8,17.4c0.7,9,2.2,17.9,3.8,26.8c1.5,8.2,2.9,16.3,4.2,24.5
			c0.9,5.2,1.7,10.4,2.4,15.6c0.5,3.5,0.9,7.1,1.2,10.6c0.4,3.9,0.7,7.8,1,11.6c0.2,2.6,0.3,5.1,0.5,7.7c0.1,1.7,0.2,3.4,0.3,5.1
			c0.3,4-0.3,7.8-1.6,11.6c-1.3,3.6-3.7,5.8-7.5,6.6c-0.8,0.2-1.7,0.4-2.5,0.5c-3.7,0.3-7.3,0.7-11,0.9c-4.3,0.3-8.6,0.6-13,0.8
			c-5.2,0.3-10.4,0.6-15.6,0.8c-4.5,0.2-8.9,0.2-13.4,0.3C222,367.2,222,367.1,222,367.1z"/>
		<path class="st110" d="M287.6,176.8c-0.8-2.4-1.7-4.8-2.4-7.3c-0.9-2.9-1.4-5.8-1.6-8.8c-0.2-3-0.6-6-1-8.9c-0.6-4-1.8-7.9-3-11.7
			c-1.4-4.4-3.2-8.6-5.3-12.7c-0.1-0.1-0.1-0.2-0.2-0.3c3.9-3,6.8-7,9.1-11.4c2.4-4.8,3.7-9.9,4.4-15.2c0.8-5.7,0.5-11.4-0.9-17
			c-1.3-5-3.2-9.8-5.4-14.5c-0.4-0.9-1-1.8-1.6-2.6c-1.6-2-4.3-2.2-6.2-0.3c-0.4,0.4-0.7,0.8-1.1,1.2c-1,1.3-2,2.7-3,4
			c-2.3,3.3-4.9,6.3-8,9c-1.5,1.3-2.9,2.6-4.4,3.8c-3.1,2.6-6.1,5.3-8.6,8.5c-3.1,4-4.7,8.5-5.1,13.3c-0.5-0.2-0.9-0.3-1.4-0.5
			c-6.3-1.8-12.7-2.6-19.2-2.8c-3.1-0.1-8.4,0.2-11.5,0.6c-1.9,0.3-3.7,0.8-5.4,1.8c-0.2,0.1-0.4,0.2-0.6,0.3
			c-1.1-3.9-3.3-7.3-6.5-10c-2.2-1.9-4.5-3.7-7.1-5.2c-2-1.2-3.9-2.3-5.9-3.5c-0.6-0.4-1.2-0.7-1.7-1.2c-3.5-2.9-6.8-6-9.7-9.4
			c-1.1-1.2-2.2-2.4-3.3-3.6c-0.4-0.4-0.8-0.8-1.2-1.1c-1.2-0.8-2.6-0.6-3.5,0.5c-0.4,0.5-0.7,1.2-0.9,1.8c-0.5,1.6-1,3.2-1.3,4.8
			c-0.8,4.3-1.5,8.7-2.1,13c-0.7,4.8-1.1,9.7-1.1,14.6c0,5.2,0.7,10.2,2.5,15.1c1.3,3.5,3.2,6.6,5.9,9.2c0.1,0.1,0.3,0.2,0.4,0.4
			c-2.4,4.7-4,9.7-4.9,14.9c-0.9,5.2-1.2,10.4-1.2,15.6c0,2.8-0.3,5.6-1.1,8.3c-0.5,1.8-1,3.7-1.5,5.5c-0.9,3.3-0.5,6.4,1,9.5
			c0.2,0.5,0.5,1,0.7,1.5c1,1.9,2,3.8,3,5.7c0.3,0.5,0.5,1.1,0.6,1.7c1.4,7.2,3.1,14.4,5.1,21.5c4.1,14.8,8.8,29.4,13.8,43.9
			c1.2,3.6,2.5,7.2,3.8,10.8c1.7,4.8,3.4,9.5,5.1,14.3c1.4,3.9,2.8,7.9,4.4,11.7c2,5,4.7,9.7,7.4,14.3c0.9,1.6,2.1,3.1,3.3,4.5
			c1.2,1.5,2.7,2.7,4.4,3.7c4.6,2.5,9.1,2.4,13.3-0.6c1.4-1,2.7-2.2,3.9-3.4c2.6-2.8,4.6-6,6.3-9.4c2.8-5.8,5.6-11.6,8.6-17.3
			c3.1-6,6-12.1,8.6-18.3c0.9-2.2,1.8-4.4,2.7-6.7c3.7-9.3,7-18.8,10.3-28.2c3.8-11,7.5-22,10.4-33.3c0.2-0.7,0.5-1.4,0.8-2
			c1.3-2,2.6-3.9,3.9-5.9c1-1.5,2.2-3,3.2-4.5c1-1.5,1.8-3.1,2.1-4.9C288.7,181.4,288.3,179.1,287.6,176.8z"/>
		<g>
			<path class="st2" d="M242.2,200c-0.4,5.7-0.5,11.3-0.3,17c0.1,3.9,0.3,7.8,0.6,11.7c0.1,1.9,0.5,3.7,0.9,5.6
				c0.6,3.7,1.2,7.4,2,11.1c0.9,4.5,2.5,8.8,4.5,12.9c1.7,3.7,3.4,7.4,4.8,11.1c0.3,0.8,0.6,1.6,0.9,2.4c0.8,2.3,1.3,4.7,1.4,7.1
				c0.1,2.7,0.2,5.4,0.4,9c0,1-0.1,2.2-0.1,3.5c-0.1,1.9-0.1,4-0.3,6.1c-0.1,0.7-0.1,1.4-0.2,2.2c-0.3,2.2-0.6,4.4-1.1,6.6
				c-0.7,3.2-2,6.3-4.3,8.7c-1.1,1.1-2.2,2.1-3.5,3.1c-0.8,0.6-1.7,1-2.6,1.2c-5.4,1.5-10.9,2.6-16.5,3c-1.9,0.1-3.9,0-5.8,0
				c-0.9,0-1.9,0-2.8,0c-2.8,0.1-5.6-0.3-8.4-0.9c-3.1-0.6-6.2-1.2-9.2-2.4c-1.9-0.8-3.7-1.6-5.3-2.9c-2.3-1.8-4-4.1-5.2-6.8
				c-1.2-2.7-1.8-5.5-2.4-8.4c-0.2-1.1-0.4-2.1-0.6-3.2c-0.5-2.8-0.8-5.6-1-8.4c0-0.5-0.1-1.1-0.1-1.6c-0.1-3-0.1-5.9,0.2-8.9
				c0.2-3,0.6-6.1,1.1-9.1c0-0.2,0.1-0.5,0.1-0.8c0.3-1.8,0.9-3.7,1.5-5.4c1.8-4.8,3.2-9.7,4.3-14.6c1.1-5.1,2.2-10.1,3.1-15.3
				c0.5-3,0.8-6,1-9c0.4-5.7,0.5-11.3,0.9-17c0.7-10.4,1-20.8,0.7-31.3c-0.1-4.7-0.6-9.4-0.9-14.1c-0.3-4.8-1-9.5-1.8-14.3
				c-0.8-4.5-1.6-9-3.5-13.3c-0.7-1.7-1.7-3.4-2.6-5c-1.1-2-2.7-3.6-4.4-5c-0.9-0.8-2-1.3-3.2-1.5c-2.2-0.5-4.4-0.6-6.6-0.7
				c1.3-1,2.6-2,3.9-3c5.4-4.1,11.2-7.6,17.1-10.9c2.2-1.2,4.5-2.4,6.7-3.7c1.7-0.9,3.5-1.5,5.4-1.8c3.1-0.5,8.4-0.8,11.6-0.6
				c6.5,0.2,12.9,1,19.2,2.8c0.7,0.2,1.3,0.4,1.9,0.7c7.1,3.1,13.7,7,20,11.5c1.8,1.3,3.5,2.8,5.2,4.3c-3,1-5.6,2.7-7.9,5
				c-1.6,1.6-3,3.3-4.2,5.2c-3.2,5-5.4,10.3-7.2,15.9c-2,6.1-3.3,12.3-4.1,18.7c-0.7,5.5-1.5,10.9-2.1,16.4
				C243.1,188.8,242.7,194.4,242.2,200z"/>
		</g>
		<g>
			<path class="st109" d="M223.2,117.2c-0.1,0-0.2,0-0.3,0.1c-2,1.2-3.9,2.5-5.5,4.2c-2.3,2.4-3.5,5.3-4.3,8.4
				c-0.2,0.7-0.3,1.4-0.5,2.1c-0.6,2.1-2.4,2.7-4.1,1.3c-1.2-1-2-2.3-2.6-3.8c-1.2-3.1-1.5-6.3-0.9-9.6c0.2-1.2,0.4-2.4,0.7-3.7
				c-0.2,0.1-0.4,0.1-0.4,0.2c-3.6,3-6.5,6.7-8.2,11.1c-2.1,5.2-1.3,9.9,2.5,14c1.6,1.7,3.4,3.1,5.3,4.5c1.1,0.9,2.2,1.7,3.2,2.7
				c1.7,1.6,2.6,3.7,2.7,6.1c0.1,2.1-0.2,4.1-0.6,6.1c-0.1,0.6-0.4,1.1-1,1.4c-0.9,0.4-2-0.1-2.1-1.1c-0.3-2.8-2-4.8-3.9-6.5
				c-1.9-1.7-3.9-3.2-5.9-4.8c-3.2-2.6-6.4-5.2-8.9-8.5c-3.7-4.7-5-10.1-4.4-15.9c0.1-0.6,0.1-1.1,0.2-1.9c-0.5,0.2-0.9,0.2-1.2,0.4
				c-1.5,0.7-2.9,1.4-4.4,2c-1.6,0.8-3,1.9-4,3.4c-1.2,1.7-2.2,3.5-3.3,5.2c0,0,0,0.1,0,0.1c-0.4,0.8-0.8,1-1.4,0.9
				c-0.7-0.1-1.1-0.5-1.1-1.4c0-1,0-1.9,0.2-2.9c0.3-2,1-3.9,1.9-5.7c1.4-2.9,3.1-5.6,5.3-7.8c1-1,1.9-2,2.8-3
				c5.3-5.2,11.5-8.9,18.3-11.7c7.5-3,15.3-5.1,23.3-6.4c4.8-0.8,9.7-1.1,14.6-0.9c7.8,0.3,15.3,2.2,22.5,5.2
				c1.5,0.6,2.9,1.2,4.4,1.9c5.2,2.4,9.8,5.7,13.5,10.2c1.4,1.6,2.5,3.4,3.1,5.5c0.9,3.1,0.1,5.7-2.2,7.9c-1.1,1.1-2.5,1.8-3.8,2.7
				c-1.3,0.9-2.7,1.8-4,2.8c-2.3,1.9-4,4.2-5,7.1c-0.4,1.1-0.5,2.3-0.8,3.5c-0.1,0.4-0.1,0.7-0.1,1.1c-0.3,1.6-1.6,2.3-3.1,1.6
				c-0.6-0.3-1.1-0.7-1.5-1.2c-1-1.2-1.9-2.4-2.7-3.8c-2.6-4.5-3.9-9.4-4.3-14.6c-0.1-1.5-0.1-2.9-0.2-4.6c-0.2,0.3-0.4,0.5-0.4,0.7
				c-0.7,1.6-1.4,3.1-2,4.7c-1.3,3.1-3.3,5.9-5.2,8.6c-2.1,2.9-4.3,5.9-6.1,9c-2.1,3.8-3.9,7.7-4.7,12c-0.3,1.4-0.4,2.9-0.5,4.3
				c-0.1,1-0.4,2-1.5,2.3c-1.1,0.3-1.9-0.2-2.5-1c-1.8-2.3-3.1-4.8-4-7.5c-1.2-3.5-1.8-7-2.3-10.7c-0.6-4.5-0.9-9.1-0.7-13.7
				c0.1-4,0.7-8,2.3-11.7c0.1-0.2,0.1-0.4,0.2-0.6C223.3,117.3,223.2,117.3,223.2,117.2z"/>
			<g>
				<g>
					<path class="st15" d="M170.1,182c1.4-2.8,2.8-5.7,5.7-7.3c3.5-1.9,7.5-1.4,10.6,1.1c2.6,2.1,6.4-1.6,3.8-3.8
						c-4-3.3-8.9-4.7-14.1-3.2c-5.3,1.6-8.3,5.8-10.6,10.5C164,182.4,168.5,185.1,170.1,182L170.1,182z"/>
				</g>
				<g>
					<path class="st15" d="M279.2,182c-1.4-2.8-2.8-5.7-5.7-7.3c-3.5-1.9-7.5-1.4-10.6,1.1c-2.6,2.1-6.4-1.6-3.8-3.8
						c4-3.3,8.9-4.7,14.1-3.2c5.3,1.6,8.3,5.8,10.6,10.5C285.3,182.4,280.7,185.1,279.2,182L279.2,182z"/>
				</g>
			</g>
			<g>
				<path class="st98" d="M257.3,291.4c-0.1,1.9-0.1,4-0.3,6.1c-0.1,0.7-0.1,1.4-0.2,2.2c-8,7.2-19,10.6-30.5,12
					c-14.3,1.7-26.9-4.7-37.1-14c-0.5-2.8-0.8-5.6-1-8.4c9.1,9.6,20.9,18,34.7,17.3C235.7,306.1,249.6,301.7,257.3,291.4z"/>
			</g>
			<g>
				<path class="st110" d="M205,263.2c-5.1,0.3-10.4,10.2-9.7,18.4c0.6,8.1,11,7.4,10.8,0s1-15.8,1.8-16.8
					C208.6,263.6,207.8,263,205,263.2z"/>
				<path class="st110" d="M240.4,263.2c5.1,0.3,10.4,10.2,9.7,18.4c-0.6,8.1-11,7.4-10.8,0s-1-15.8-1.8-16.8
					C236.8,263.6,237.6,263,240.4,263.2z"/>
			</g>
		</g>
	</g>
</g>
</svg>
