<?xml version="1.0" encoding="utf-8"?>
<!-- Generator: Adobe Illustrator 21.1.0, SVG Export Plug-In . SVG Version: 6.00 Build 0)  -->
<svg version="1.1" id="Calque_1" xmlns="http://www.w3.org/2000/svg" xmlns:xlink="http://www.w3.org/1999/xlink" x="0px" y="0px"
	 viewBox="0 0 432 432" style="enable-background:new 0 0 432 432;" xml:space="preserve">
<style type="text/css">
	.st0{fill:#905269;}
	.st1{fill:#5B473E;}
	.st2{fill:#EE8081;}
	.st3{fill:#455063;}
	.st4{fill:#A5998D;}
	.st5{fill:#B94E46;}
	.st6{fill:#8D7867;}
	.st7{fill:#E4C08C;}
	.st8{fill:#BEC1A4;}
	.st9{fill:#B3AEA8;}
	.st10{fill:#F39DA0;}
	.st11{fill:#1A1A1A;}
	.st12{fill:#F7C7C5;}
	.st13{fill:#997BA1;}
	.st14{fill:#658367;}
	.st15{fill:#EA7563;}
	.st16{fill:#3BBACB;}
	.st17{fill:#F98600;}
	.st18{fill:#F5CD00;}
	.st19{fill:#CCCCCC;}
	.st20{fill:#449BC4;}
	.st21{fill:#C69C6D;}
	.st22{fill:#B7C8A4;}
	.st23{fill:#333333;}
	.st24{fill:#B6DB00;}
	.st25{fill:#C10810;}
	.st26{fill:#B98D4D;}
	.st27{fill:#D6A8B2;}
	.st28{fill:#F3532F;}
	.st29{fill:#0071BC;}
	.st30{fill:#006837;}
	.st31{fill:#F1E06C;}
	.st32{fill:#FFB07F;}
	.st33{fill:#B26E6E;}
	.st34{fill:#89A57D;}
	.st35{fill:#E4B1B1;}
	.st36{fill:#A35061;}
	.st37{fill:#677763;}
	.st38{fill:#DFAFB4;}
	.st39{fill:#6D2E2E;}
	.st40{fill:#D79191;}
	.st41{fill:#A51A1A;}
	.st42{fill:#E16F6F;}
	.st43{fill:#ECA3A3;}
	.st44{fill:#A99FC8;}
	.st45{fill:#F4CDA1;}
	.st46{fill:#F28460;}
	.st47{fill:#666666;}
	.st48{fill:#FE6467;}
	.st49{fill:#FBB03B;}
	.st50{fill:#5E417B;}
	.st51{fill:#8EA73D;}
	.st52{fill:#A677B5;}
	.st53{fill:#D397D5;}
	.st54{fill:#8FBA72;}
	.st55{fill:#525541;}
	.st56{fill:#FEB8BD;}
	.st57{fill:#B86B8B;}
	.st58{fill:#4EA8D0;}
	.st59{fill:#A7343B;}
	.st60{fill:#F3A61D;}
	.st61{fill:#BD607F;}
	.st62{fill:#678A6C;}
	.st63{fill:#5B2642;}
	.st64{fill:#A5A184;}
	.st65{fill:#BF8F56;}
	.st66{fill:#2C2B27;}
	.st67{fill:#3C3C3B;}
	.st68{fill:#E7AE61;}
	.st69{fill:#A3897A;}
	.st70{fill:#F1B4B4;}
	.st71{fill:#DEE1DA;}
	.st72{fill:#8BAA67;}
	.st73{fill:#634E42;}
	.st74{fill:#EF810D;}
	.st75{fill:#493D38;}
	.st76{fill:#DEBA88;}
	.st77{fill:#697279;}
	.st78{fill:#5A6054;}
	.st79{fill:#E6421C;}
	.st80{fill:#DCBA6E;}
	.st81{fill:#EB608A;}
	.st82{fill:#D8BFAC;}
	.st83{fill:#507B64;}
	.st84{fill:#7A6A58;}
	.st85{fill:#BD1622;}
	.st86{fill:#B18EAC;}
	.st87{fill:#82A091;}
	.st88{fill:#422813;}
	.st89{fill:#B17F49;}
	.st90{fill:#E68A9C;}
	.st91{fill:#1D1D1B;}
	.st92{fill:#E7A460;}
	.st93{fill:#6A7C5D;}
	.st94{fill:#B23032;}
	.st95{fill:#5E7C4A;}
	.st96{fill:#65052B;}
	.st97{fill:#C42A52;}
	.st98{fill:#390200;}
	.st99{fill:#A1A395;}
	.st100{fill:#ADA667;}
	.st101{fill:#886766;}
	.st102{fill:#96977D;}
	.st103{fill:#607254;}
	.st104{fill:#925673;}
	.st105{fill:#D86E63;}
	.st106{fill:#A2BC70;}
	.st107{fill:#E37A17;}
	.st108{fill:#778A15;}
	.st109{fill:#BE013B;}
	.st110{fill:#CAACC4;}
	.st111{fill:#874D80;}
	.st112{fill:#E7E2DE;}
	.st113{fill:#748565;}
	.st114{fill:#736357;}
	.st115{fill:#8E9091;}
	.st116{fill:#6A665F;}
	.st117{fill:#576B4A;}
	.st118{fill:#606060;}
	.st119{fill:#EBBFC0;}
	.st120{fill:#B297CA;}
	.st121{fill:#DCC6D6;}
	.st122{fill:#420909;}
	.st123{fill:#E2A759;}
	.st124{fill:#DD7576;}
	.st125{fill:#B23838;}
	.st126{fill:#CC9A6D;}
	.st127{fill:#7F454F;}
</style>
<g>
	<g>
		<path class="st79" d="M285.2,164.7c-0.5-0.8,0.8-5.1-3.6-6.3c-3.1-0.9-4.8,0.4-6.6,1.9c-2.6-21.9-1.9-17.9-3.3-27.4
			c4.4,2.5,6.2,0.1,6.1-2.1c2-0.5,3.4-2.3,3.5-4.4l0-0.8c0-2.6-2-4.7-4.6-4.7l-63.2-0.9c-2.6,0-4.7,2-4.7,4.6l0,0.8
			c0,2.6,2,4.7,4.6,4.7l3.4,0.1c-6.7,24.9-4,20.3-29.8,21.8c-44.2,2.5-31,3.2-32.7,28.7c-0.1,1-10.3,3.1-10.4,3.1
			c-7.5,1.6,0,12.7,2.7,15.4c4,0.2,3.5,0.1,5.6-6.1c1.9-9.6,10.4-17.7,20.5-17.5c13.8,0.2,24.1,11,20.8,26.6
			c4.9,0.1,31.5,0.1,36.9,0.1c-10.9-32.1,30.6-55,51-24.4c4.1,1.7,7.8,1.5,9.1-2.1C294.1,165.3,286.1,166.1,285.2,164.7z
			 M216.6,182.4c-0.3-1.8-1.2-1.6,8.7-17.4c0.8-1.2,1.5-2.5,2.3-3.8c0.3-0.6,0.3-1.2,0-1.7c-0.2-0.3-0.3-0.5-0.5-0.9
			c1.2-0.5,2.3-0.7,3.4-0.8c0.2,0,0.5,0.2,0.8,0.3c0.7,0.4,1.5,0.7,2.2,1.1c0.1,0.1,0.3,0.1,0.4,0.1c0.4,0.1,0.8,0,1.1-0.3
			c0.2-0.4,0.2-0.7,0-1.1c-9.7-15.9-8.4-9.6-7.8-4.5c-0.8,0.5-1.6,0.9-2.4,1.4c-5.6-7.3-5.3-5.8-9.9-3c-1.2-2.9,5.6-18.2,7.2-21.8
			l18.7,0.3c0,10.1,0.2,20.1,1,30.2C216.8,175.9,232.3,181.1,216.6,182.4z M247.4,158.4c0-0.1-0.7-20.6-0.6-28l20.6,0.3
			c0.6,6.3,2.4,27.1,2.4,27.2C263.3,156.3,257.5,155.8,247.4,158.4z"/>
		<g>
			<path class="st67" d="M282.8,197.7c-0.4-0.2-0.8-0.4-1.2-0.5c0.2-1.1,0.3-2.3,0.3-3.5c0-0.6,0-1.2,0-1.8c0.4-0.2,0.9-0.4,1.4-0.5
				c0.8-0.3,1.1-1.4,0.8-2.1c-0.4-0.8-1.3-1.1-2.1-0.8c-0.2,0-0.3,0.1-0.4,0.2c-0.3-1.6-0.8-3.2-1.4-4.7c0,0,0.1,0,0.1,0
				c0.4-0.1,0.8-0.3,1-0.6c0.2-0.3,0.4-0.8,0.3-1.2c-0.2-0.8-1-1.5-1.8-1.3c-0.3,0.1-0.7,0.2-1,0.3c-0.2-0.3-0.3-0.6-0.5-0.9
				c-0.6-0.9-1.2-1.7-1.8-2.5c0.1-0.1,0.1-0.1,0.2-0.2c0,0,0.1-0.1,0.2-0.1c0,0,0,0,0,0c0.4-0.2,0.7-0.5,0.8-0.9
				c0.1-0.4,0.1-0.9,0-1.2c-0.4-0.7-1.3-1.2-2.1-0.8c-0.5,0.3-0.9,0.6-1.3,0.9c-1.2-1.1-2.5-2.1-4-3c0.2-0.4,0.4-0.7,0.5-1.1
				c0.3-0.8-0.1-1.8-0.9-2.1c-0.8-0.3-1.7,0.1-2.1,0.9c-0.1,0.3-0.2,0.5-0.4,0.8c-2-0.9-4.2-1.5-6.4-1.8c0-0.3,0.1-0.5,0.1-0.8
				c0.1-0.8-0.6-1.7-1.4-1.7c-0.8,0-1.7,0.5-1.7,1.4c0,0.2,0,0.3-0.1,0.5c0,0.1,0,0.2-0.1,0.3c0,0,0,0.1,0,0.1c0,0,0,0,0,0
				c-2.5,0-4.9,0.4-7.2,1c-0.2-0.4-0.4-0.9-0.6-1.3c-0.3-0.8-1.3-1.2-2.1-0.8c-0.8,0.4-1.2,1.3-0.8,2.1c0.2,0.4,0.4,0.8,0.5,1.1
				c-1.6,0.7-3,1.6-4.4,2.6c-0.3-0.2-0.7-0.4-1-0.6c-0.7-0.4-1.7-0.4-2.2,0.3c-0.5,0.6-0.4,1.8,0.3,2.2c0.1,0.1,0.2,0.1,0.3,0.2
				c-1.3,1.3-2.5,2.8-3.6,4.4c-0.2-0.2-0.4-0.4-0.7-0.6c-0.6-0.6-1.8-0.3-2.2,0.3c-0.5,0.8-0.3,1.6,0.3,2.2c0.3,0.3,0.6,0.6,1,0.9
				c-0.8,1.7-1.4,3.4-1.8,5.3c-0.2-0.1-0.4-0.1-0.5-0.2c-0.8-0.3-1.8,0.1-2.1,0.9c-0.3,0.8,0.1,1.8,0.9,2.1c0.4,0.1,0.8,0.3,1.2,0.4
				c0,0.5-0.1,0.9-0.1,1.4c0,1.2,0.1,2.4,0.2,3.5c-0.1,0-0.2,0-0.3,0c0,0-0.1,0-0.1,0c0,0,0,0,0,0c-0.8,0-1.7,0.5-1.7,1.4
				c0,0.8,0.5,1.7,1.4,1.7c0.5,0,0.9,0,1.3-0.1c0.1,0.5,0.3,1.1,0.5,1.6c0.4,1.2,0.9,2.3,1.5,3.4c0,0-0.1,0-0.1,0.1
				c-0.8,0.3-1.2,1.3-0.8,2.1c0.4,0.8,1.3,1.2,2.1,0.8c0.2-0.1,0.3-0.1,0.5-0.2c1.1,1.6,2.4,3,3.9,4.3c-0.1,0.1-0.2,0.2-0.2,0.3
				c-0.6,0.6-0.3,1.8,0.3,2.2c0.8,0.5,1.6,0.3,2.2-0.3c0.1-0.1,0.1-0.1,0.2-0.2c1.5,1,3.1,1.9,4.8,2.5c-0.2,0.5-0.2,1.2,0.2,1.6
				c0.6,0.6,1.6,0.8,2.2,0.2c0.3-0.3,0.6-0.5,0.8-0.8c1.7,0.4,3.4,0.6,5.1,0.6c0,0,0,0,0,0c0,0.8,0.6,1.5,1.4,1.6
				c0.8,0,1.7-0.5,1.7-1.4c0-0.1,0-0.2,0-0.3c1.2-0.1,2.5-0.4,3.7-0.7c0.1,0.2,0.2,0.4,0.3,0.7c0.3,0.8,1.3,1.1,2.1,0.8
				c0.8-0.4,1.1-1.3,0.8-2.1c-0.1-0.1-0.1-0.3-0.2-0.4c1.4-0.6,2.7-1.3,3.9-2.1c0.1,0.1,0.1,0.2,0.2,0.3c0.4,0.7,1.3,1.2,2.1,0.8
				c0.7-0.4,1.2-1.3,0.8-2.1c-0.2-0.3-0.3-0.6-0.5-0.9c1.2-1.1,2.4-2.3,3.4-3.6c0.1,0.1,0.2,0.2,0.3,0.2c0.7,0.5,1.8,0.3,2.2-0.3
				c0.5-0.7,0.4-1.7-0.3-2.2c-0.1-0.1-0.3-0.2-0.4-0.3c1-1.7,1.7-3.4,2.3-5.3c0.3,0.1,0.5,0.2,0.8,0.4c0.7,0.4,1.8-0.2,2.1-0.9
				C284,198.9,283.6,198.1,282.8,197.7z M256.4,204c-5.9-0.1-10.6-4.9-10.5-10.8c0.1-5.9,4.9-10.6,10.8-10.5
				c5.9,0.1,10.6,4.9,10.5,10.8C267.1,199.4,262.3,204.1,256.4,204z"/>
			<path class="st67" d="M193.4,195.6c-0.3-0.7-1-0.8-1.6-0.6c-0.1,0-0.2,0.1-0.3,0.1c-0.2-1.3-0.6-2.5-1.1-3.7c0,0,0,0,0.1,0
				c0.3-0.1,0.6-0.2,0.8-0.5c0.2-0.2,0.3-0.6,0.2-0.9c-0.1-0.6-0.8-1.2-1.4-1c-0.3,0.1-0.5,0.1-0.8,0.2c-0.1-0.2-0.3-0.5-0.4-0.7
				c-0.4-0.7-0.9-1.3-1.4-1.9c0.1,0,0.1-0.1,0.2-0.1c0,0,0.1-0.1,0.1-0.1c0,0,0,0,0,0c0.3-0.2,0.5-0.4,0.6-0.7c0.1-0.3,0.1-0.7,0-1
				c-0.3-0.5-1-1-1.6-0.6c-0.4,0.2-0.7,0.4-1,0.7c-0.9-0.9-2-1.6-3.1-2.3c0.1-0.3,0.3-0.5,0.4-0.8c0.2-0.6-0.1-1.4-0.7-1.6
				c-0.6-0.2-1.3,0.1-1.6,0.7c-0.1,0.2-0.2,0.4-0.3,0.6c-1.6-0.7-3.2-1.2-5-1.4c0-0.2,0.1-0.4,0.1-0.6c0.1-0.6-0.4-1.3-1.1-1.4
				c-0.7,0-1.3,0.4-1.4,1.1c0,0.1,0,0.2,0,0.4c0,0.1,0,0.2,0,0.2c0,0,0,0.1,0,0.1c0,0,0,0,0,0c-1.9,0-3.8,0.3-5.6,0.8
				c-0.2-0.3-0.3-0.7-0.5-1c-0.3-0.6-1-0.9-1.6-0.6c-0.6,0.3-0.9,1-0.6,1.6c0.1,0.3,0.3,0.6,0.4,0.9c-1.2,0.5-2.4,1.2-3.4,2
				c-0.3-0.2-0.5-0.3-0.8-0.5c-0.6-0.3-1.3-0.3-1.7,0.3c-0.4,0.5-0.3,1.4,0.3,1.7c0.1,0.1,0.2,0.1,0.3,0.2c-1,1-2,2.1-2.8,3.4
				c-0.2-0.2-0.3-0.3-0.5-0.5c-0.5-0.4-1.4-0.3-1.7,0.3c-0.4,0.6-0.2,1.3,0.3,1.7c0.3,0.2,0.5,0.4,0.8,0.7c-0.6,1.3-1.1,2.7-1.4,4.1
				c-0.1,0-0.3-0.1-0.4-0.1c-0.6-0.2-1.4,0.1-1.6,0.7c-0.2,0.6,0.1,1.4,0.7,1.6c0.3,0.1,0.6,0.2,1,0.3c0,0.4,0,0.7-0.1,1.1
				c0,0.9,0,1.8,0.2,2.7c-0.1,0-0.1,0-0.2,0c0,0-0.1,0-0.1,0c0,0,0,0,0,0c-0.6,0-1.3,0.4-1.4,1.1c0,0.6,0.4,1.4,1.1,1.4
				c0.4,0,0.7,0,1-0.1c0.1,0.4,0.2,0.8,0.4,1.2c0.3,0.9,0.7,1.8,1.1,2.7c0,0-0.1,0-0.1,0c-0.6,0.3-0.9,1-0.6,1.6
				c0.3,0.6,1,0.9,1.6,0.6c0.1-0.1,0.3-0.1,0.4-0.2c0.9,1.2,1.9,2.3,3,3.3c-0.1,0.1-0.1,0.1-0.2,0.2c-0.4,0.5-0.2,1.4,0.3,1.7
				c0.6,0.4,1.3,0.2,1.7-0.3c0-0.1,0.1-0.1,0.1-0.2c1.2,0.8,2.4,1.4,3.8,2c-0.2,0.4-0.1,0.9,0.2,1.2c0.4,0.5,1.2,0.6,1.7,0.2
				c0.2-0.2,0.4-0.4,0.6-0.7c1.3,0.3,2.6,0.5,4,0.5c0,0,0,0,0,0c0,0.6,0.4,1.2,1.1,1.2c0.6,0,1.3-0.4,1.4-1.1c0-0.1,0-0.2,0-0.3
				c1-0.1,1.9-0.3,2.8-0.6c0.1,0.2,0.1,0.3,0.2,0.5c0.3,0.6,1,0.9,1.6,0.6c0.6-0.3,0.9-1,0.6-1.6c0-0.1-0.1-0.2-0.1-0.3
				c1.1-0.4,2.1-1,3-1.6c0,0.1,0.1,0.1,0.1,0.2c0.3,0.6,1,0.9,1.6,0.6c0.6-0.3,0.9-1,0.6-1.6c-0.1-0.2-0.3-0.5-0.4-0.7
				c1-0.8,1.8-1.8,2.6-2.8c0.1,0.1,0.2,0.1,0.3,0.2c0.5,0.4,1.4,0.3,1.7-0.3c0.4-0.6,0.3-1.3-0.3-1.7c-0.1-0.1-0.2-0.2-0.3-0.2
				c0.8-1.3,1.4-2.7,1.8-4.1c0.2,0.1,0.4,0.2,0.6,0.3c0.6,0.3,1.4-0.1,1.6-0.7c0.2-0.7-0.1-1.3-0.7-1.6c-0.3-0.2-0.6-0.3-1-0.4
				c0.1-0.9,0.2-1.8,0.2-2.7c0-0.5,0-0.9,0-1.4c0.3-0.2,0.7-0.3,1-0.4C193.4,197,193.7,196.2,193.4,195.6z M172,207
				c-4.6-0.1-8.2-3.8-8.1-8.4c0.1-4.6,3.8-8.2,8.4-8.1c4.6,0.1,8.2,3.8,8.1,8.4C180.3,203.4,176.6,207.1,172,207z"/>
		</g>
	</g>
	<g>
		<g>
			<path class="st67" d="M87.5,294.4c-1.5,0.5-3.4,0.8-5.2,1.2c-1.8,0.4-3.5,1-5.1,1.9c-0.6,0.3-0.9,0.4-1.2,0.1
				c-0.3-0.3-0.2-0.7,0.3-1.2c0.7-0.7,1.5-1.3,2.4-1.8c0.2-0.1,0.3-0.2,0.5-0.3c0.3-0.1,0.4-0.3,0.3-0.6c-0.2-0.4-0.3-0.9-0.4-1.3
				c-1.8-5-3.4-10.1-5.2-15.1c-1.2-3.4-2.3-6.9-3.4-10.4c-0.2-0.6-0.3-1.3-0.4-2c-0.1-0.4-0.2-0.6-0.6-0.8c-0.3-0.1-0.5-0.3-0.7-0.5
				c-0.6-0.4-0.6-1-0.1-1.5c0.3-0.3,0.8-0.5,1.2-0.7c1.3-0.5,2.7-0.8,4.1-1.1c0.2,0,0.4-0.1,0.6,0c0.8,0.1,1.1,0.7,0.6,1.4
				c-0.3,0.4-0.6,0.9-0.8,1.3c-0.1,0.2-0.1,0.4,0,0.6c1.5,3.6,2.6,7.4,3.8,11.1c1,3.2,1.7,6.4,2.6,9.6c0.3,1,0.6,2,0.9,3
				c0.5,1.6,0.9,3.1,1.4,4.7c0.2,0.6,0.2,0.6,0.8,0.5c1.8-0.4,3.7-0.6,5.5-1.2c0.7-0.2,1.4-0.6,2-1.1c0.8-0.6,1.2-1.4,1.1-2.4
				c0-0.2-0.1-0.5,0-0.7c0-0.4,0.3-0.7,0.7-0.8c0.4-0.1,0.8,0.2,0.9,0.6c0.3,1.4,0.3,2.8-0.7,4c-0.8,1-1.9,1.7-3.1,2.3
				C89.5,293.9,88.6,294.1,87.5,294.4z"/>
			<path class="st67" d="M104.2,287.9c0.5,0.7,0.4,1.3-0.3,1.7c-0.3,0.2-0.7,0.4-1.1,0.5c-1.2,0.4-2.3,0.8-3.5,1
				c-0.3,0-0.5,0.1-0.7,0c-0.5-0.2-0.7-0.6-0.5-1.1c0.2-0.4,0.4-0.9,0.6-1.3c0.2-0.4,0.2-0.8,0.1-1.3c-0.8-2.4-1.5-4.8-2.2-7.2
				c-0.8-2.8-1.7-5.5-2.5-8.3c-0.9-3.2-1.8-6.3-2.5-9.5c-0.2-0.8-0.4-1.7-0.5-2.5c-0.1-0.4-0.2-0.8-0.6-1.1
				c-0.4-0.3-0.8-0.7-1.1-1.1c-2-1.9,1.8-2.4,3.1-2.7c1.3-0.3,4.4-1.4,3.5,0.8c-0.3,0.7-0.5,1.5-0.6,2.3c-0.1,0.3,0,0.7,0.1,1
				c2,5.7,7.1,26,7.3,26.9c0.1,0.5,0.3,1,0.8,1.3C103.7,287.3,104,287.6,104.2,287.9z"/>
			<path class="st67" d="M111,250.2c2.5-0.6,4.9-0.9,7.3-1.2c0.7-0.1,1.4-0.1,2.1-0.2c0.8-0.1,1.4,0.2,1.9,0.7
				c0.6,0.6,0.8,1.4,0.8,2.2c0,0.4-0.1,0.8-0.2,1.3c-0.1,0.4-0.3,0.7-0.7,0.7c-0.4,0.1-0.8-0.1-0.9-0.4c-0.3-0.5-0.7-0.8-0.8-1.3
				c-0.1-0.3-0.3-0.4-0.6-0.4c-0.3,0-0.6,0-0.9,0.1c-1.7,0.3-3.5,0.7-5.2,1.1c-0.8,0.2-0.8,0.2-0.7,0.9c0.3,2.6,0.9,5.1,1.5,7.6
				c1,4.4,1.9,8.7,2.8,13.1c0.4,2.3,1,4.6,1.5,6.9c0.1,0.7,0.6,1.1,1,1.5c0.4,0.4,0.8,0.7,1.2,1c0.9,0.7,0.7,1.5-0.3,1.9
				c-1.1,0.4-2.3,0.7-3.5,0.9c-0.8,0.1-1.5,0.3-2.3,0.4c-0.6,0.1-1.2,0.1-1.6-0.4c-0.3-0.4-0.2-1,0.4-1.6c0.9-0.9,1.1-1.9,0.8-3.2
				c-1.4-6-2.6-12-3.9-18c-0.7-2.9-1.2-5.9-1.9-8.8c0-0.1-0.1-0.2-0.1-0.4c0-0.4-0.2-0.5-0.6-0.3c-0.9,0.3-1.9,0.5-2.8,0.8
				c-1.2,0.4-2.3,0.8-3.5,1.2c-0.4,0.1-0.5,0.3-0.4,0.7c0.1,0.3,0.1,0.5,0.2,0.8c0,0.4-0.2,0.8-0.5,0.9c-0.3,0.1-0.7-0.1-0.9-0.5
				c-0.3-0.9-0.7-1.7-0.8-2.6c-0.1-0.7,0.3-1.3,0.9-1.7c0.4-0.3,0.9-0.5,1.4-0.7C104.8,252,107.9,250.8,111,250.2z"/>
			<path class="st67" d="M137.9,245.1c2.5-0.4,4.9-0.6,7.4-0.8c0.7,0,1.4,0,2.1,0c0.8,0,1.4,0.3,1.9,0.9c0.5,0.7,0.8,1.4,0.7,2.2
				c0,0.4-0.1,0.8-0.2,1.3c-0.1,0.4-0.4,0.6-0.8,0.7c-0.4,0.1-0.8-0.1-0.9-0.5c-0.2-0.5-0.6-0.9-0.8-1.4c-0.1-0.3-0.2-0.4-0.6-0.4
				c-0.3,0-0.6,0-0.9,0c-1.7,0.3-3.5,0.5-5.2,0.8c-0.8,0.1-0.8,0.1-0.7,0.9c0.2,2.6,0.6,5.1,1,7.7c0.8,4.4,1.5,8.8,2.1,13.3
				c0.3,2.3,0.7,4.6,1.1,6.9c0.1,0.7,0.5,1.1,0.9,1.6c0.4,0.4,0.8,0.7,1.1,1.1c0.8,0.8,0.7,1.5-0.4,1.9c-1.1,0.4-2.3,0.5-3.5,0.7
				c-0.8,0.1-1.6,0.2-2.3,0.3c-0.6,0.1-1.2,0.1-1.6-0.5c-0.3-0.4-0.1-1,0.5-1.6c0.9-0.9,1.2-1.9,1-3.1c-1.1-6-1.9-12.1-2.9-18.2
				c-0.5-3-0.9-6-1.4-8.9c0-0.1-0.1-0.2-0.1-0.4c0-0.4-0.2-0.5-0.6-0.4c-0.9,0.2-1.9,0.4-2.8,0.7c-1.2,0.3-2.3,0.7-3.5,1
				c-0.4,0.1-0.5,0.3-0.5,0.6c0.1,0.3,0.1,0.5,0.1,0.8c0,0.4-0.2,0.8-0.6,0.8c-0.3,0.1-0.7-0.2-0.8-0.6c-0.2-0.9-0.6-1.8-0.7-2.7
				c-0.1-0.7,0.3-1.3,1-1.7c0.4-0.3,0.9-0.5,1.4-0.6C131.7,246.5,134.8,245.5,137.9,245.1z"/>
			<path class="st67" d="M169.2,278.2c-1.6,0.2-3.5,0.1-5.3,0.2c-1.8,0.1-3.6,0.3-5.3,0.9c-0.7,0.2-1,0.2-1.2-0.1
				c-0.2-0.3,0-0.7,0.5-1.1c0.8-0.6,1.7-1,2.6-1.3c0.2-0.1,0.4-0.2,0.6-0.2c0.3-0.1,0.4-0.2,0.4-0.5c-0.1-0.4-0.1-0.9-0.2-1.3
				c-0.9-5.2-1.5-10.5-2.4-15.8c-0.6-3.6-1-7.2-1.4-10.8c-0.1-0.7-0.1-1.3-0.1-2c0-0.4-0.1-0.7-0.4-0.9c-0.2-0.2-0.4-0.4-0.6-0.6
				c-0.5-0.5-0.4-1.1,0.2-1.5c0.4-0.3,0.9-0.4,1.3-0.4c1.4-0.3,2.8-0.3,4.2-0.3c0.2,0,0.4,0,0.6,0.1c0.8,0.2,1,0.9,0.3,1.5
				c-0.4,0.3-0.7,0.7-1,1.1c-0.1,0.2-0.2,0.4-0.1,0.6c0.8,3.8,1.2,7.7,1.7,11.6c0.4,3.3,0.5,6.6,0.8,10c0.1,1,0.2,2.1,0.3,3.1
				c0.2,1.6,0.3,3.3,0.5,4.9c0.1,0.6,0.1,0.6,0.7,0.6c1.9,0,3.7,0.1,5.6-0.2c0.8-0.1,1.5-0.3,2.1-0.7c0.9-0.5,1.4-1.2,1.5-2.1
				c0-0.2,0-0.5,0.1-0.7c0.1-0.4,0.4-0.7,0.8-0.6c0.4,0,0.7,0.3,0.7,0.7c0,1.4-0.2,2.8-1.4,3.8c-1,0.9-2.2,1.3-3.4,1.7
				C171.2,278,170.3,278,169.2,278.2z"/>
			<path class="st67" d="M186,257.1c0,2.2,0.2,4.4,0.4,6.6c0.1,0.8,0,0.8,0.8,0.8c0.7,0,1.3,0,2,0c0.3,0,0.6-0.1,0.7-0.4
				c0.1-0.3,0.2-0.5,0.4-0.7c0.4-0.6,1.1-0.6,1.5,0c0.2,0.3,0.2,0.6,0.2,0.9c0,0.9,0.1,1.9,0.1,2.8c0,0.4-0.2,0.8-0.6,1
				c-0.4,0.2-0.8,0-1.1-0.2c-0.2-0.1-0.3-0.3-0.4-0.4c-0.3-0.5-0.7-0.6-1.2-0.5c-0.6,0.1-1.1,0.1-1.7,0.1c-0.4,0-0.5,0.2-0.5,0.5
				c0.1,0.9,0.2,1.8,0.3,2.7c0.2,1.3,0.5,2.6,0.7,4c0.1,0.4,0.2,0.4,0.5,0.4c2.1-0.1,4.2-0.2,6.4-0.3c0.6,0,0.6-0.1,0.7-0.6
				c0.1-0.8,0.2-1.5,0.1-2.3c0-0.4-0.1-0.8-0.1-1.2c0-0.3,0.1-0.5,0.4-0.6c0.3-0.1,0.5,0.1,0.7,0.3c0.1,0.1,0.2,0.3,0.2,0.5
				c0.4,1.3,0.5,2.7,0.4,4.1c-0.1,1.3-0.8,1.9-2.1,1.9c-2.4,0.1-4.8,0.1-7.2,0.2c-1.4,0-2.8,0.1-4.1,0.3c-0.6,0.1-1.2,0.1-1.8,0.2
				c-0.5,0.1-0.9-0.2-1.3-0.4c-0.5-0.3-0.5-0.9-0.2-1.4c0.2-0.2,0.4-0.4,0.6-0.5c0.7-0.5,1.1-1.1,1.2-1.9c0.2-1.1,0.2-2.3,0.2-3.4
				c0.1-2.2,0.1-4.5,0.2-6.7c0.2-4.3,0.1-8.5-0.5-12.8c-0.2-1.6-0.4-3.2-0.8-4.8c-0.3-0.9-0.7-1.8-1.2-2.6c-0.2-0.4-0.4-0.7-0.4-1.1
				c-0.1-0.7,0.2-1.1,0.9-1.3c0.3-0.1,0.6-0.1,0.9-0.2c1.4-0.2,2.9-0.3,4.3-0.3c1.2,0,2.4-0.1,3.7-0.2c2.1-0.1,4.2-0.2,6.3-0.3
				c2.4-0.1,3.9,1.4,3.9,3.5c0,0.5-0.2,0.9-0.7,1.2c-0.6,0.4-1.2,0.2-1.6-0.3c-0.2-0.3-0.4-0.6-0.6-1c-0.2-0.3-0.4-0.5-0.8-0.6
				c-0.7-0.2-1.5-0.4-2.2-0.4c-2.4,0-4.8,0.2-7.2,0.4c-0.4,0-0.6,0.2-0.5,0.6c0,0.4,0,0.8,0,1.2c0.1,2.2,0.1,4.5,0.1,6.7
				c0,1.1,0.1,2.2,0.1,3.4C185.9,254.8,186,255.9,186,257.1z"/>
		</g>
		<g>
			<path class="st67" d="M228.4,252.6c-0.2,3.4-0.3,6.7-0.4,10.1c0,0.2,0,0.4,0,0.6c0,0.3,0.1,0.3,0.4,0.4c0.8,0,1.6,0.1,2.4,0.2
				c0.4,0,0.6-0.1,0.8-0.4c0.1-0.2,0.3-0.5,0.4-0.7c0.4-0.6,1.2-0.5,1.5,0.2c0.1,0.3,0.2,0.5,0.2,0.8c0,1-0.1,1.9-0.2,2.9
				c0,0.4-0.2,0.8-0.7,0.9c-0.4,0.1-0.7,0-1.1-0.3c-0.1-0.1-0.3-0.2-0.4-0.4c-0.3-0.6-0.8-0.7-1.4-0.7c-0.5,0-1,0-1.5,0
				c-0.4,0-0.5,0.1-0.5,0.5c0,1.3,0,2.6,0.2,3.9c0.1,0.6,0.1,1.2,0.2,1.9c0,0.3,0.1,0.4,0.4,0.4c0.6,0.1,1.2,0.3,1.7,0.7
				c0.4,0.3,0.6,0.6,0.5,1.1c-0.1,0.5-0.4,0.7-0.9,0.8c-0.6,0.2-1.2,0.3-1.9,0.2c-0.9,0-1.8-0.1-2.6-0.1c-1,0-2,0.1-2.9,0.2
				c-0.5,0-0.9-0.1-1.4-0.4c-0.7-0.4-0.8-1.1-0.2-1.7c0.2-0.2,0.5-0.3,0.7-0.5c0.6-0.3,0.9-0.8,1.1-1.5c0.2-0.8,0.3-1.7,0.4-2.6
				c0.3-3.1,0.7-6.1,1-9.2c0.5-4.3,0.6-8.6,0.4-12.9c-0.1-2.1-0.4-4.2-1.5-6.1c-0.1-0.2-0.1-0.4-0.2-0.6c-0.2-0.7,0.1-1.5,1.1-1.6
				c0.4,0,0.8-0.1,1.1-0.1c1.6,0,3.1,0,4.6,0.1c1.2,0.1,2.4,0,3.7,0.1c1.9,0.1,3.8,0.1,5.6,0.2c2.4,0.1,3.9,1.8,3.5,3.9
				c-0.1,0.6-0.5,1-1.1,1.1c-0.5,0.1-1-0.1-1.3-0.6c-0.2-0.3-0.3-0.5-0.4-0.8c-0.2-0.5-0.6-0.8-1.2-1c-0.7-0.2-1.4-0.4-2.2-0.5
				c-2.3-0.1-4.5-0.1-6.8-0.2c-0.6,0-0.6,0-0.7,0.5c0,0.3-0.1,0.7-0.1,1c0,2.6-0.4,5.1-0.5,7.7C228.5,251.1,228.4,251.9,228.4,252.6
				z"/>
			<path class="st67" d="M251.7,267.1c-1.9-0.1-3.9-0.3-5.8-0.4c-0.6,0-0.6,0-0.8,0.6c-0.4,1.8-0.7,3.5-1.1,5.3
				c-0.1,0.4,0,0.6,0.4,0.9c0.5,0.3,0.9,0.7,1.2,1.1c0.3,0.3,0.4,0.6,0.2,1c-0.2,0.4-0.5,0.5-0.9,0.5c-1.6,0.1-3.2-0.1-4.8-0.2
				c-0.2,0-0.4-0.1-0.6-0.1c-0.4-0.1-0.6-0.4-0.7-0.8c-0.1-0.4,0.1-0.7,0.5-0.9c0.6-0.3,1.2-0.7,1.8-1c0.4-0.2,0.5-0.4,0.6-0.8
				c0.9-5.7,2.2-11.3,4.1-16.7c0.9-2.6,2-5.1,3.4-7.6c1.1-2.1,2.5-4.1,4.2-6c0.6-0.6,1.2-1.1,1.9-1.6c1.6-1,3.3-0.5,4.3,0.5
				c0.4,0.4,0.7,0.9,1,1.4c1.5,2.5,2.1,5.2,2.4,8c0.3,2.8,0.3,5.6,0.2,8.4c-0.1,2.2-0.3,4.4-0.4,6.5c0,0.6,0,1.3,0,1.9
				c0,2-0.2,3.9-0.5,5.9c0,0.4,0,0.7,0.2,1c0.4,0.4,0.7,0.9,1,1.4c0.2,0.3,0.4,0.6,0.5,0.8c0.3,0.9-0.1,1.6-1.1,1.7
				c-0.4,0-0.9,0-1.4,0c-1.8-0.2-3.6-0.3-5.4-0.5c-0.3,0-0.6-0.1-0.9-0.2c-1.1-0.4-1.3-1.6-0.4-2.3c0.7-0.5,1.4-0.9,2.2-1.4
				c0.4-0.2,0.6-0.5,0.6-0.9c0.2-1.5,0.5-3,0.7-4.5c0.1-0.6,0.1-0.6-0.6-0.7C255.6,267.2,253.7,267.1,251.7,267.1z M245.6,264.9
				c0.3,0.1,0.6,0.1,0.9,0.1c2.3,0,4.7,0.1,7,0.3c1.3,0.1,2.7,0.1,4,0.1c0.8,0,0.8,0,0.8-0.7c0.3-4.5,0.8-8.9,0.8-13.4
				c0-2.2-0.1-4.4-0.4-6.5c-0.1-0.6-0.2-1.3-0.6-1.9c-0.3-0.5-0.7-0.6-1.2-0.3c-0.2,0.1-0.4,0.2-0.6,0.4c-0.6,0.5-1.3,1.1-1.9,1.6
				c-2.5,2.4-4,5.3-5.4,8.2C247.4,256.7,246.4,260.7,245.6,264.9z"/>
			<path class="st67" d="M277.4,263.9c4.1,2.5,6.3,6.1,6.7,10.7c0,0.3,0,0.5,0,0.8c0,1.1,0.4,2,1.1,2.8c0.3,0.3,0.6,0.6,0.8,1
				c0.3,0.6,0.1,1-0.6,1.2c-0.5,0.1-1.1,0.1-1.6,0c-1.1-0.1-2.2-0.3-3.2-0.5c-0.4-0.1-0.8-0.2-1.2-0.3c-0.7-0.3-0.8-1-0.3-1.4
				c1-0.7,1.2-1.7,1.2-2.8c0.1-3.2-1.1-6-3.3-8.5c-0.7-0.8-1.6-1.5-2.8-1.7c-0.2,1.1-0.2,2.1-0.3,3.1c-0.1,0.9-0.1,1.7-0.2,2.6
				c-0.2,1.6,0.1,3.1,0.5,4.6c0.2,0.5,0.4,1,0.7,1.5c0.1,0.2,0.2,0.3,0.3,0.5c0.3,0.7-0.2,1.4-0.9,1.3c-1.1-0.1-2.3,0-3.4-0.2
				c-0.7-0.1-1.5,0-2.2,0c-0.6,0-1-0.2-1.2-0.7c-0.2-0.5-0.1-0.9,0.5-1.3c1-0.7,1.5-1.6,1.8-2.8c0.3-1.1,0.4-2.3,0.6-3.4
				c0.4-3.8,0.7-7.6,1-11.4c0.2-2.4,0.3-4.9,0.5-7.3c0.1-2,0.3-4,0.5-5.9c0.1-0.7-0.2-1.3-0.7-1.8c-0.2-0.2-0.5-0.5-0.7-0.7
				c-0.5-0.7-0.2-1.4,0.6-1.6c0.4-0.1,0.9-0.1,1.4-0.1c1.1,0.1,2.2,0.4,3.3,0.5c0.9,0.2,1.9,0.3,2.8,0.4c4.3,0.5,7,2.9,8.1,6.7
				c1.3,4.4-0.2,9.7-5.1,12.7c-1.3,0.8-2.7,1.4-4.2,1.8C277.8,263.8,277.6,263.9,277.4,263.9z M274.8,259.6
				c-0.1,0.8-0.2,1.6-0.3,2.4c-0.1,0.5,0,0.5,0.5,0.4c1.2-0.4,2.4-0.9,3.6-1.4c2.1-0.9,3.5-2.3,4.5-4.2c1.8-3.3,1.4-6.5-0.7-9.6
				c-0.8-1.1-1.9-1.9-3.4-2c-0.5,0-1.1-0.1-1.6-0.3c-0.7-0.2-0.7-0.2-0.8,0.5c-0.1,1.9-0.4,3.9-0.6,5.8
				C275.6,254,275.1,256.7,274.8,259.6z"/>
			<path class="st67" d="M305.9,262.9c2.8-4,5.3-7.9,7.7-11.9c-0.1-0.2-0.4-0.1-0.5-0.2c-0.4-0.2-0.6-0.4-0.6-0.8
				c0-0.4,0.4-0.8,0.8-0.9c0.2,0,0.5,0,0.7,0c0.6,0.1,1.3,0.3,1.9,0.5c1,0.3,2,0.5,3,0.6c0.2,0,0.5,0,0.7,0.1
				c0.4,0.1,0.6,0.4,0.7,0.8c0.1,0.4-0.2,0.7-0.5,0.8c-0.2,0.1-0.3,0.2-0.5,0.2c-1,0.2-1.7,0.8-2.4,1.5c-0.8,0.7-1.1,1.5-1.3,2.4
				c-0.6,2.8-1.2,5.6-1.9,8.4c-0.6,2.4-0.9,4.9-1.3,7.3c-0.5,3.1-1.1,6.2-1.9,9.2c-0.2,0.6-0.1,0.9,0.4,1.3c0.2,0.2,0.4,0.4,0.6,0.6
				c0.3,0.3,0.4,0.7,0.2,1.1c-0.2,0.4-0.6,0.6-1,0.5c-0.5,0-1.1-0.1-1.6-0.2c-1-0.1-2-0.2-2.9-0.3c-0.3,0-0.6-0.1-0.8-0.2
				c-0.7-0.4-0.7-1.2,0-1.6c0.4-0.2,0.9-0.5,1.3-0.7c0.5-0.3,0.8-0.7,0.9-1.3c0.8-4.6,1.8-9.3,2.7-13.9c0.7-3.4,1.4-6.7,2.2-10.1
				c0.1-0.3,0.2-0.6,0.3-0.9c-0.1-0.1-0.2,0-0.2,0.1c-1.5,2.5-3.3,4.8-4.9,7.3c-0.4,0.6-0.8,1.3-1.2,2c-0.2,0.5-0.6,0.8-1.1,0.8
				c-0.6,0-0.9-0.4-1.2-0.8c-0.7-1.2-1.2-2.5-1.7-3.7c-0.9-2.1-1.8-4.2-2.6-6.3c0-0.1-0.1-0.2-0.1-0.3c-0.2,0-0.2,0.1-0.2,0.2
				c-0.2,2.3-0.6,4.5-1,6.8c-0.5,3.5-1,7-1.6,10.5c-0.4,2.3-0.8,4.6-1.5,6.8c-0.2,0.6-0.1,0.8,0.4,1.2c0.3,0.2,0.7,0.5,0.9,0.8
				c0.5,0.7,0.2,1.4-0.7,1.5c-0.5,0.1-1,0-1.4,0c-1.6-0.1-3.2-0.2-4.7-0.6c-0.2-0.1-0.4-0.1-0.6-0.2c-0.7-0.4-0.8-1.1-0.1-1.6
				c0.6-0.4,1.2-0.8,1.6-1.5c0.2-0.4,0.4-0.7,0.5-1.2c0.2-1.2,0.4-2.5,0.6-3.7c1.2-7.8,2.7-15.5,4.1-23.2c0.2-0.9-0.1-1.6-0.8-2.2
				c-0.3-0.2-0.6-0.5-0.9-0.7c-0.5-0.3-0.7-0.8-0.5-1.2c0.1-0.4,0.5-0.7,1.1-0.7c1.7-0.1,3.4,0.1,5,0.7c0.4,0.1,0.6,0.4,0.7,0.7
				c0.9,2.5,1.9,5,2.6,7.5c0.5,1.9,1.3,3.7,1.9,5.6C305.2,260.9,305.5,261.8,305.9,262.9z"/>
			<path class="st67" d="M327.4,269.1c-0.6,2.1-1.1,4.3-1.6,6.4c-0.2,0.8-0.2,0.7,0.6,1c0.7,0.2,1.3,0.4,1.9,0.6
				c0.3,0.1,0.6,0.1,0.8-0.2c0.2-0.2,0.4-0.4,0.6-0.6c0.6-0.5,1.3-0.2,1.4,0.5c0.1,0.3,0,0.6-0.1,0.9c-0.2,0.9-0.5,1.8-0.8,2.7
				c-0.1,0.4-0.4,0.7-0.9,0.8c-0.4,0.1-0.7-0.2-1-0.5c-0.1-0.2-0.2-0.3-0.3-0.5c-0.1-0.5-0.5-0.8-1-0.9c-0.6-0.1-1.1-0.2-1.7-0.4
				c-0.4-0.1-0.5,0-0.6,0.4c-0.2,0.9-0.4,1.8-0.5,2.6c-0.2,1.3-0.3,2.7-0.5,4c-0.1,0.4,0.1,0.5,0.4,0.6c2.1,0.5,4.1,1.1,6.2,1.6
				c0.6,0.1,0.6,0.1,0.8-0.4c0.4-0.7,0.6-1.4,0.8-2.2c0.1-0.4,0.2-0.8,0.3-1.2c0.1-0.3,0.3-0.5,0.6-0.5c0.3,0,0.5,0.2,0.6,0.5
				c0.1,0.2,0.1,0.3,0.1,0.5c0,1.4-0.3,2.7-0.9,4c-0.5,1.2-1.3,1.5-2.6,1.2c-2.4-0.6-4.7-1.3-7-2c-1.3-0.4-2.7-0.8-4.1-0.9
				c-0.6-0.1-1.2-0.2-1.8-0.3c-0.5-0.1-0.8-0.4-1.1-0.8c-0.4-0.4-0.3-1,0.2-1.4c0.2-0.2,0.5-0.3,0.8-0.3c0.8-0.2,1.3-0.7,1.7-1.5
				c0.5-1,0.8-2.1,1.2-3.2c0.7-2.1,1.4-4.2,2.2-6.4c1.4-4,2.6-8.1,3.3-12.4c0.3-1.6,0.6-3.2,0.6-4.8c0-1-0.2-1.9-0.4-2.8
				c-0.1-0.4-0.2-0.8-0.1-1.2c0.1-0.7,0.5-1,1.3-1c0.3,0,0.6,0.1,0.9,0.1c1.4,0.3,2.8,0.6,4.2,1c1.2,0.4,2.4,0.6,3.6,0.9
				c2,0.5,4.1,1,6.1,1.6c2.3,0.6,3.4,2.5,2.7,4.5c-0.2,0.5-0.5,0.8-1,0.9c-0.7,0.2-1.2-0.1-1.4-0.8c-0.1-0.4-0.2-0.7-0.3-1.1
				c-0.1-0.3-0.3-0.6-0.6-0.8c-0.6-0.4-1.3-0.8-2-1c-2.3-0.7-4.7-1.2-7.1-1.8c-0.4-0.1-0.6,0-0.7,0.4c-0.1,0.4-0.3,0.8-0.4,1.1
				c-0.5,2.2-1.2,4.3-1.9,6.4c-0.3,1.1-0.6,2.2-0.9,3.2C328,267,327.7,268.1,327.4,269.1z"/>
			<path class="st67" d="M351.6,279.7c3.7,3.2,5.3,7,4.9,11.6c0,0.3-0.1,0.5-0.1,0.8c-0.1,1.1,0.1,2,0.7,2.9
				c0.2,0.4,0.5,0.7,0.6,1.1c0.2,0.6-0.1,1-0.8,1.1c-0.5,0-1.1-0.1-1.6-0.2c-1.1-0.3-2.1-0.6-3.1-1c-0.4-0.1-0.8-0.3-1.2-0.5
				c-0.6-0.4-0.7-1.1,0-1.4c1.1-0.5,1.4-1.5,1.6-2.5c0.6-3.2-0.1-6.1-1.9-8.9c-0.6-0.9-1.4-1.7-2.5-2.2c-0.4,1-0.6,2-0.8,3
				c-0.2,0.8-0.4,1.7-0.6,2.5c-0.4,1.5-0.4,3-0.2,4.6c0.1,0.6,0.2,1.1,0.5,1.6c0.1,0.2,0.2,0.4,0.2,0.6c0.1,0.7-0.4,1.3-1.2,1.1
				c-1.1-0.3-2.3-0.4-3.3-0.7c-0.7-0.2-1.4-0.3-2.2-0.4c-0.6-0.1-1-0.4-1.1-0.9c-0.1-0.5,0.1-0.9,0.7-1.2c1.1-0.5,1.7-1.4,2.2-2.4
				c0.5-1.1,0.8-2.2,1.1-3.3c1-3.7,1.9-7.3,2.8-11c0.6-2.4,1.1-4.7,1.6-7.1c0.4-1.9,0.9-3.9,1.4-5.8c0.2-0.7,0-1.3-0.4-1.9
				c-0.2-0.3-0.4-0.5-0.6-0.8c-0.4-0.8,0-1.4,0.9-1.5c0.5,0,0.9,0,1.4,0.2c1.1,0.3,2.1,0.7,3.2,1.1c0.9,0.3,1.8,0.6,2.8,0.8
				c4.2,1.2,6.5,4,7,7.9c0.6,4.6-1.8,9.6-7.1,11.7c-1.4,0.6-2.9,0.9-4.4,1.1C351.9,279.7,351.8,279.7,351.6,279.7z M349.6,275
				c-0.2,0.8-0.5,1.6-0.7,2.4c-0.1,0.5-0.1,0.5,0.5,0.5c1.3-0.2,2.6-0.5,3.8-0.8c2.2-0.5,3.9-1.7,5.2-3.4c2.3-3,2.4-6.2,0.8-9.6
				c-0.6-1.2-1.6-2.2-3-2.5c-0.5-0.1-1-0.3-1.5-0.5c-0.7-0.3-0.7-0.3-0.9,0.4c-0.4,1.9-1,3.7-1.5,5.6
				C351.3,269.6,350.4,272.3,349.6,275z"/>
		</g>
	</g>
	<g>
		<path class="st80" d="M128.6,205.5c-9.4-8.3,12.3-21.8,1.9-21.3c-8.7,0.4-1.7,20.2-9.1,14.2c-5.7-4.7-3.9-8.4-3.2-11.6
			c1.5-6.7,4-9,5.8-11c1.9-2,2.2-5.2,0.6-7.5c-1.9-2.5-5.1-2.1-8.9,19.6c-0.4,2.2-0.1,2.5-1.3,0.7c-1.4-2.1-3-5.4-4.1-8.9
			c-5.3-17.9,16.8-22.2,12.5-27.9c-7.1-9.2-12.7,15.6-15,15.4c-0.7,0-1-4.4-1-8.2c0-8.7,11.6-15.9,7.1-21.4
			c-0.1-0.1-8.3-8.9-8.8,21.2c-0.1,3.5,0,8.1,0.6,10.7c0.6,2.5-13.6-12.8-18.4-6.2c-1.4,2-0.5,4.5,1.6,5.4c2.4,1,5.7,0.5,8.3,0.8
			c12.8,1.4,8.7,9.3,15,21.1c-25.8-4.3-18.9,4.5-18.8,4.6c2.1,2.3,9.4-0.8,11.9-1.6c8.8-2.6,10.8,3,15.7,8.6
			c-4.9,0-9.2-1.9-14.3-0.5c-2.5,0.7-4.5,3-2.2,5.4c3.8,4.1,9.5-1.3,13.3-2c7.5-1.4,7.3,3.3,27.1,14.4c0.7,0.4,0.5-1.2,0.1-1.4
			C139.4,214.1,133.7,210.1,128.6,205.5z"/>
		<path class="st80" d="M303.4,205.5c9.4-8.3-12.3-21.8-1.9-21.3c8.7,0.4,1.7,20.2,9.1,14.2c5.7-4.7,3.9-8.4,3.2-11.6
			c-1.5-6.7-4-9-5.8-11c-1.9-2-2.2-5.2-0.6-7.5c1.9-2.5,5.1-2.1,8.9,19.6c0.4,2.2,0.1,2.5,1.3,0.7c1.4-2.1,3-5.4,4.1-8.9
			c5.3-17.9-16.8-22.2-12.5-27.9c7.1-9.2,12.7,15.6,15,15.4c0.7,0,1-4.4,1-8.2c0-8.7-11.6-15.9-7.1-21.4c0.1-0.1,8.3-8.9,8.8,21.2
			c0.1,3.5,0,8.1-0.6,10.7c-0.6,2.5,13.6-12.8,18.4-6.2c1.4,2,0.5,4.5-1.6,5.4c-2.4,1-5.7,0.5-8.3,0.8c-12.8,1.4-8.7,9.3-15,21.1
			c25.8-4.3,18.9,4.5,18.8,4.6c-2.1,2.3-9.4-0.8-11.9-1.6c-8.8-2.6-10.8,3-15.7,8.6c4.9,0,9.2-1.9,14.3-0.5c2.5,0.7,4.5,3,2.2,5.4
			c-3.8,4.1-9.5-1.3-13.3-2c-7.5-1.4-7.3,3.3-27.1,14.4c-0.7,0.4-0.5-1.2-0.1-1.4C292.6,214.1,298.3,210.1,303.4,205.5z"/>
	</g>
	<g>
		<path class="st80" d="M367.6,309c-7.6-3.3-15.7-5.7-23.7-7.9c-22.6-6.3-45.9-10.2-69.2-12.7c-59.3-6.2-121.3-3.9-179.3,10.8
			c-10.3,2.6-20.9,5.4-30.7,9.7c-1,0.4-0.8,3.6,0.3,3.1c7.5-3.3,15.6-5.6,23.5-7.8c22.8-6.3,46.3-10.3,69.9-12.7
			c59-6,120.6-3.8,178.2,10.8c10.3,2.6,20.8,5.4,30.5,9.7C368.2,312.6,368.6,309.4,367.6,309z"/>
		<path class="st80" d="M377.5,255.4c-8.7-3.6-17.8-6.3-26.8-8.9c-24.8-7-50.4-11.8-76-14.7c-61.8-7-126-4-186.5,11
			c-11.3,2.8-22.8,5.8-33.5,10.3c-1,0.4-0.8,3.6,0.3,3.1c8.3-3.5,17.2-6,25.9-8.3c24.4-6.6,49.5-10.8,74.6-13.4
			c62.2-6.3,126.1-2.9,186.7,12.9c11.7,3.1,23.6,6.4,34.8,11C378,258.9,378.4,255.7,377.5,255.4z"/>
	</g>
</g>
</svg>
