<?xml version="1.0" encoding="utf-8"?>
<!-- Generator: Adobe Illustrator 16.0.0, SVG Export Plug-In . SVG Version: 6.00 Build 0)  -->
<!DOCTYPE svg PUBLIC "-//W3C//DTD SVG 1.1//EN" "http://www.w3.org/Graphics/SVG/1.1/DTD/svg11.dtd" [
	<!ENTITY ns_flows "http://ns.adobe.com/Flows/1.0/">
	<!ENTITY ns_extend "http://ns.adobe.com/Extensibility/1.0/">
	<!ENTITY ns_ai "http://ns.adobe.com/AdobeIllustrator/10.0/">
	<!ENTITY ns_graphs "http://ns.adobe.com/Graphs/1.0/">
	<!ENTITY ns_vars "http://ns.adobe.com/Variables/1.0/">
	<!ENTITY ns_imrep "http://ns.adobe.com/ImageReplacement/1.0/">
	<!ENTITY ns_sfw "http://ns.adobe.com/SaveForWeb/1.0/">
	<!ENTITY ns_custom "http://ns.adobe.com/GenericCustomNamespace/1.0/">
	<!ENTITY ns_adobe_xpath "http://ns.adobe.com/XPath/1.0/">
]>
<svg version="1.1" id="Layer_1" xmlns:x="&ns_extend;" xmlns:i="&ns_ai;" xmlns:graph="&ns_graphs;"
	 xmlns="http://www.w3.org/2000/svg" xmlns:xlink="http://www.w3.org/1999/xlink" xmlns:a="http://ns.adobe.com/AdobeSVGViewerExtensions/3.0/"
	 x="0px" y="0px" width="750px" height="750px" viewBox="0 0 750 750" enable-background="new 0 0 750 750" xml:space="preserve">
<metadata>
	<sfw  xmlns="&ns_sfw;">
		<slices></slices>
		<sliceSourceBounds  height="664.7" width="442.1" y="-1570.8" x="1880.7" bottomLeftOrigin="true"></sliceSourceBounds>
	</sfw>
</metadata>
<g>
	<path fill="#E7806F" d="M313.4,308.5c0,0,13.6-1.5,20.1-0.3l-9.2,13.9L313.4,308.5z"/>
	<g>
		<polygon points="377.2,215.5 400.3,217.6 390.5,203.1 		"/>
		<path d="M448,224.7c0,0-2.3-7.8-5.2-17.2l-12.2,14.3C436.5,222.7,442.2,223.7,448,224.7z"/>
		<polygon points="333.1,202.2 322.9,213.7 343.4,213.7 		"/>
		<path d="M212.9,222.6c5.3-0.8,12.2-1.9,20.5-2.9l-12.7-12.2L212.9,222.6z"/>
		<path d="M266.8,216.3c6.8-0.5,14-1,21.6-1.4l-11.3-11.5L266.8,216.3z"/>
	</g>
	<path fill="#5A595F" d="M239.8,168.6c29.1-21.6,61.6-22.8,61.6-22.8s39.7-3.6,68.5,6c12,4,22.4,9,31.5,14.8
		c-19.9-1.6-47.3-3.3-77.2-3.3C293,163.4,264.7,165.2,239.8,168.6z M231.7,471.5c0,0-15.7-17.4-29.5-50.2c-2.9,5-6.7,8.3-11.4,9.6
		c-1.7,0.5-3.4,0.7-5.1,0.7c-2.9,0-5.8-0.6-8.3-1.5c8.3,13.7,18.8,26.1,31.9,35C209.3,465.1,234.9,485.9,231.7,471.5z M589.7,334.3
		c-8.1,1.3-34.5-4.2-34.5-4.2c48.8-14.6,40.2-38.4,40.2-38.4c-13.8,3.4-34.2,5.5-34.2,5.5c54.5-33.9,25.5-63.4,25.5-63.4
		c-12.4,14.9-31.6,28.6-31.6,28.6c39.1-57.2,0.5-69,0.5-69c-6.9,25.5-21.5,48.5-38,67.8c0.1,0.1,0.3,0.2,0.4,0.3
		c0.5,0.5,11.7,13,10.8,27.3c-0.4,6.3-3.2,11.9-8.1,16.7c2.8,3.9,8.3,12.8,6.9,22.7c-0.9,6.9-5,13-11.9,17.9
		c2,6.6,7.4,28.3-6.3,41.3c14.9,0.3,28.4-2.9,36.5-7c18.6-9.4-4.3-17.8-4.3-17.8C576,366.9,597.8,333.1,589.7,334.3z"/>
	<path fill="#C0655A" d="M160.9,393.2c-6.4-20.6-8.2-39.9-6.2-51.5c4.8-26.4,28-21.6,28-21.6s-1.3,33.5,8,68.1
		c0,0.1,0.1,0.3,0.1,0.4c-2.4,5.4-5.7,8.8-9.9,10c-8.7,2.5-18.7-4.9-18.8-5C161.8,393.3,161.4,393.2,160.9,393.2z M502.2,301.8
		c0.6-8.4-7-16-7.1-16.1c-0.2-0.2-0.3-0.4-0.4-0.6c-4.5,4.2-8.7,8.3-13.2,11.5c-3.2,2.4-7.3,3.6-6.9,6.4c3.3,25.2,4.5,43,6,73.2
		c4.7-2.2,7.9-5.4,9.7-9.6c4.1-9.4-0.4-20.7-0.5-20.9c-0.5-1.2,0-2.5,1.1-3.2c5.7-3.4,8.9-7.4,9.5-11.9c0.9-7.3-5.4-13.8-5.4-13.9
		c-0.5-0.5-0.8-1.3-0.7-2c0-0.7,0.4-1.4,1-1.9C499.6,309.7,501.9,306,502.2,301.8z"/>
	<path fill="#EF9F95" d="M242.5,385c-1.1,0-3.6,0-3.6-4.8c0-2.5,1.9-5.8,3.6-8.1c1.7,2.3,3.6,5.6,3.6,8.1
		C246.1,385,243.6,385,242.5,385z M284,449.3c0,4.8,2.5,4.8,3.6,4.8c1.1,0,3.6,0,3.6-4.8c0-2.5-2-5.8-3.6-8.1
		C285.9,443.4,284,446.8,284,449.3z M326,380.2c0,4.8,2.5,4.8,3.6,4.8c1.1,0,3.6,0,3.6-4.8c0-2.5-2-5.8-3.6-8.1
		C328,374.3,326,377.6,326,380.2z M303.1,418.9l6.4,8.8l6.1-8.5l-6.4-6L303.1,418.9z M282.2,380.2c0,4.8,2.5,4.8,3.6,4.8
		s3.6,0,3.6-4.8c0-2.5-2-5.8-3.6-8.1C284.1,374.3,282.2,377.6,282.2,380.2z M370.5,377.2c0,4.8,2.5,4.8,3.6,4.8c1.1,0,3.6,0,3.6-4.8
		c0-2.5-2-5.8-3.6-8.1C372.5,371.3,370.5,374.6,370.5,377.2z M327.9,446.9c0,4.8,2.5,4.8,3.6,4.8c1.1,0,3.6,0,3.6-4.8
		c0-2.5-2-5.8-3.6-8.1C329.8,441,327.9,444.3,327.9,446.9z M258.6,420.1l6.4,8.8l6.1-8.5l-6.4-6L258.6,420.1z M391.1,412.9l6.4,8.8
		l6.1-8.5l-6.4-6L391.1,412.9z M417.1,377.2c0,4.8,2.5,4.8,3.6,4.8s3.6,0,3.6-4.8c0-2.5-2-5.8-3.6-8.1
		C419,371.3,417.1,374.6,417.1,377.2z M372.3,443.9c0,4.8,2.5,4.8,3.6,4.8c1.1,0,3.6,0,3.6-4.8c0-2.5-2-5.8-3.6-8.1
		C374.3,438,372.3,441.3,372.3,443.9z M346.4,415.3l6.4,8.8l6.1-8.5l-6.4-6L346.4,415.3z M480.4,472.9c-12.9,19.3-37.1,34-66.5,41.7
		c-2.9-10.3-10.3-16.6-16.4-19c-4.1-1.7-8.1-2.5-11.9-2.5c-13.2,0-20.4,9.9-22.9,14.2c-0.9,1.6-3.5,7-5.1,13.2
		c-8.2-0.4-16.4-1.2-24.6-2.6c-0.2-1-0.4-2-0.7-3c-2.8-10.4-10.3-16.7-16.4-19.2c-4.1-1.7-8.1-2.5-11.9-2.5
		c-9.5,0-15.9,5.1-19.6,9.5c-10.3-4.9-20.3-10.8-29.8-17.9c-73.8-55.4-76.1-183.3-55.4-253.6l2.5-0.5c0.5-0.1,52.6-10.6,124.5-10.6
		c42.2,0,82.9,3.6,120.8,10.6l6,1.1c10.2,27.3,15.5,72.2,17.5,93.5C476.9,396.7,480.2,473,480.4,472.9z M338.5,279.3
		c0,24.2,20.5,43.8,45.8,43.8c25.5,0,46.2-19.5,46.2-43.4c0-24.8-22.3-47.3-46.9-47.3C359.6,232.4,338.5,254.3,338.5,279.3z
		 M384.8,360.6c1-0.9,1-2.4,0.1-3.4l-8.7-9c-0.5-0.5-1.1-0.8-1.8-0.7c-0.7,0-1.3,0.3-1.8,0.9l-7.5,9c-0.8,1-0.7,2.5,0.3,3.4
		c0.4,0.4,1,0.6,1.5,0.6c0.7,0,1.4-0.3,1.9-0.9l5.8-7l6.9,7.1C382.3,361.5,383.9,361.5,384.8,360.6z M375.9,363.5
		c-0.9-1-2.7-1-3.6,0c-0.7,0.8-6.6,7.6-6.6,13.6c0,6,3.1,9.6,8.4,9.6c5.3,0,8.4-3.6,8.4-9.6C382.5,371.1,376.6,364.3,375.9,363.5z
		 M339.4,363.3c1-0.9,1-2.4,0.1-3.4l-8.7-9c-0.5-0.5-1.1-0.8-1.8-0.7c-0.7,0-1.3,0.3-1.8,0.9l-7.5,9c-0.8,1-0.7,2.5,0.3,3.4
		c0.5,0.4,1,0.6,1.5,0.6c0.7,0,1.4-0.3,1.8-0.9l5.8-7l6.9,7.1C337,364.2,338.5,364.2,339.4,363.3z M331.4,366.5c-0.9-1-2.7-1-3.6,0
		c-0.7,0.8-6.6,7.6-6.6,13.6c0,6,3.1,9.6,8.4,9.6c5.3,0,8.4-3.6,8.4-9.6C338.1,374.1,332.1,367.3,331.4,366.5z M309.6,304.5
		c-0.9,0.1-1.6,0.7-2,1.5s-0.2,1.7,0.3,2.4l14.8,18.4c0.5,0.6,1.1,0.9,1.9,0.9c0,0,0.1,0,0.1,0c0.8,0,1.5-0.4,1.9-1.1l12.4-18.8
		c0.4-0.7,0.5-1.5,0.2-2.3c-0.3-0.7-1-1.3-1.8-1.4c-2.4-0.4-5.7-0.7-9.7-0.7C319.2,303.4,310,304.4,309.6,304.5z M264.1,323.2
		c25.6,0,46.5-19.6,46.5-43.7c0-24.9-22.5-47.6-47.2-47.6c-24.2,0-45.4,22-45.4,47.2C218,303.4,238.7,323.2,264.1,323.2z
		 M293.8,359.9l-8.7-9c-0.5-0.5-1.1-0.8-1.8-0.7c-0.7,0-1.3,0.3-1.8,0.9l-7.5,9c-0.8,1-0.7,2.5,0.3,3.4c0.4,0.4,1,0.6,1.5,0.6
		c0.7,0,1.4-0.3,1.8-0.9l5.8-7l6.9,7.1c0.9,1,2.4,1,3.4,0.1C294.7,362.3,294.7,360.8,293.8,359.9z M287.6,366.5c-0.9-1-2.7-1-3.6,0
		c-0.7,0.8-6.6,7.6-6.6,13.6c0,6,3.1,9.6,8.4,9.6c5.3,0,8.4-3.6,8.4-9.6C294.2,374.1,288.3,367.3,287.6,366.5z M234.1,362.7
		c0.7,0,1.4-0.3,1.8-0.9l5.8-7l6.9,7.1c0.9,1,2.4,1,3.4,0.1c1-0.9,1-2.4,0.1-3.4l-8.7-9c-0.5-0.5-1.1-0.8-1.8-0.7
		c-0.7,0-1.3,0.3-1.8,0.9l-7.5,9c-0.9,1-0.7,2.5,0.3,3.4C233,362.6,233.6,362.7,234.1,362.7z M242.5,389.8c5.3,0,8.4-3.6,8.4-9.6
		c0-6-5.9-12.9-6.6-13.6c-0.9-1-2.7-1-3.6,0c-0.7,0.8-6.6,7.6-6.6,13.6C234.1,386.2,237.2,389.8,242.5,389.8z M276,418.4l-9.6-9
		c-0.9-0.9-2.4-0.9-3.3,0l-9.3,8.7c-0.9,0.8-1,2.2-0.3,3.2l9.6,13.2c0.5,0.6,1.2,1,1.9,1c0.8-0.1,1.5-0.4,1.9-1l9.3-12.9
		C277,420.6,276.9,419.2,276,418.4z M296,449.3c0-6.1-5.9-12.9-6.6-13.6c-0.9-1-2.7-1-3.6,0c-0.7,0.8-6.6,7.6-6.6,13.6
		c0,6,3.1,9.6,8.4,9.6C292.9,458.9,296,455.3,296,449.3z M312.3,452.3c0-1.3-1.1-2.4-2.4-2.4c-1.3,0-2.4,1.1-2.4,2.4v20
		c0,1.3,1.1,2.4,2.4,2.4c1.3,0,2.4-1.1,2.4-2.4V452.3z M320.5,417.2l-9.6-9c-0.9-0.9-2.4-0.9-3.3,0l-9.3,8.7c-0.9,0.8-1,2.2-0.3,3.2
		l9.6,13.2c0.5,0.6,1.2,1,1.9,1c0,0,0,0,0,0c0.8,0,1.5-0.4,1.9-1l9.3-12.9C321.5,419.4,321.4,418,320.5,417.2z M333.9,469.2
		c0-1.3-1.1-2.4-2.4-2.4c-1.3,0-2.4,1.1-2.4,2.4v10.4c0,1.3,1.1,2.4,2.4,2.4c1.3,0,2.4-1.1,2.4-2.4V469.2z M339.9,446.9
		c0-6.1-5.9-12.9-6.6-13.6c-0.9-1-2.7-1-3.6,0c-0.7,0.8-6.6,7.6-6.6,13.6c0,6,3.1,9.6,8.4,9.6C336.7,456.5,339.9,452.9,339.9,446.9z
		 M355.6,452.3c0-1.3-1.1-2.4-2.4-2.4c-1.3,0-2.4,1.1-2.4,2.4v20c0,1.3,1.1,2.4,2.4,2.4c1.3,0,2.4-1.1,2.4-2.4V452.3z M363.7,413.6
		l-9.6-9c-0.9-0.9-2.4-0.9-3.3,0l-9.3,8.7c-0.9,0.8-1,2.2-0.3,3.2l9.6,13.2c0.5,0.6,1.2,1,1.9,1c0,0,0,0,0,0c0.8,0,1.5-0.4,1.9-1
		l9.3-12.9C364.8,415.7,364.6,414.4,363.7,413.6z M384.3,443.9c0-6.1-5.9-12.9-6.6-13.6c-0.9-1-2.7-1-3.6,0
		c-0.7,0.8-6.6,7.6-6.6,13.6c0,6,3.1,9.6,8.4,9.6C381.2,453.5,384.3,449.9,384.3,443.9z M408.5,411.2l-9.6-9c-0.9-0.9-2.4-0.9-3.3,0
		l-9.3,8.7c-0.9,0.8-1,2.2-0.3,3.2l9.6,13.2c0.5,0.6,1.2,1,1.9,1c0,0,0,0,0,0c0.8,0,1.5-0.4,1.9-1l9.3-12.9
		C409.5,413.3,409.4,412,408.5,411.2z M419.3,404L398,384.7c-0.9-0.9-2.4-0.8-3.3,0.1l-20.6,20.6l-19.9-18.6c-1-0.9-2.5-0.9-3.4,0.1
		l-20,20.6l-20.5-18.9c-1-0.9-2.4-0.8-3.3,0.1l-21.2,21.2l-19.9-18.3c-0.9-0.9-2.4-0.8-3.3,0L242,411.5c-1,0.9-1,2.4-0.1,3.4
		c0.9,1,2.4,1,3.4,0l18.8-18.2l20,18.3c0.5,0.4,1,0.6,1.6,0.6c0.6,0,1.2-0.2,1.7-0.7l21.2-21.2l20.5,18.9c1,0.9,2.4,0.8,3.3-0.1
		l20-20.5l19.9,18.5c0.9,0.9,2.4,0.9,3.3-0.1l20.6-20.6l19.7,17.8c1,0.9,2.5,0.8,3.4-0.2C420.4,406.4,420.3,404.9,419.3,404z
		 M429.1,377.2c0-6.1-5.9-12.9-6.6-13.6c-0.9-1-2.7-1-3.6,0c-0.7,0.8-6.6,7.6-6.6,13.6c0,6,3.1,9.6,8.4,9.6
		C426,386.8,429.1,383.2,429.1,377.2z M431.4,357.2l-8.7-9c-0.5-0.5-1.1-0.8-1.8-0.7c-0.7,0-1.3,0.3-1.8,0.9l-7.5,9
		c-0.8,1-0.7,2.5,0.3,3.4c0.5,0.4,1,0.6,1.5,0.6c0.7,0,1.4-0.3,1.9-0.9l5.8-7l6.9,7.1c0.9,1,2.4,1,3.4,0.1
		C432.3,359.6,432.4,358.1,431.4,357.2z"/>
	<path fill="#E7806F" d="M362.1,186.1L347.7,170l11.6,0.1c6,0.2,11.8,0.5,17.3,0.8L362.1,186.1z M430.2,175.5
		c-3.9-0.5-12.1-1.4-23.5-2.4l10.9,16.5L430.2,175.5z M261.1,172.2c-9.5,0.9-18.9,2.1-28.1,3.5l14.7,13.9L261.1,172.2z M317.5,169.4
		c-8.6,0.1-17.3,0.3-26.1,0.7l13.9,15.5L317.5,169.4z M324.4,322.1l9.2-13.9c-6.5-1.2-20.1,0.3-20.1,0.3L324.4,322.1z"/>
	<path fill="#8BB5C6" d="M396,75.5c0.4,5.3,0.2,11.1-1.2,17.5c-1.4,6.7-3.2,12.9-5,18.4c-0.2,0.1-0.4,0.1-0.6,0.3
		c-4,2.6-16.4,5.7-23.5,7.2c1.3-8.6,2.9-17.2,4.5-25.5C374.6,91.1,387.3,83.9,396,75.5z M364.1,129.5c3-0.5,13.2-2.2,20.1-4.6
		c0.2-0.1,0.5-0.1,0.7-0.1c0.8-1.9,1.5-3.9,2.3-6c-7.5,2.9-18.9,5.3-22.5,6.1C364.5,126.5,364.3,128,364.1,129.5z M361.9,106.8
		c0.8-4.7,1.7-9.3,2.5-13.8c-5.4-5.5-11.7-14.9-15.4-20.6c-2.5,5.6-4.2,11.4-5.3,17.2C346.5,92.1,358.3,104.4,361.9,106.8z
		 M357,141.4c1-9.5,2.3-19.2,3.9-28.7c-0.1,0-0.2-0.1-0.3-0.1c-4.5-1.9-14-12.4-17.9-16.8c-2.9,20.9,0.8,40.3,1.4,43.1
		C347.4,139.5,351.9,140.3,357,141.4z M374.5,145.7c1.1-1.7,4-6.5,7.5-14.1c-8.1,2.2-17.4,3.6-17.9,3.7c-0.2,0-0.5,0-0.7,0
		c-0.3,2.5-0.6,4.9-0.8,7.4C366.3,143.5,370.3,144.5,374.5,145.7z M303.8,203.2c-0.2-0.1-0.4-0.2-0.6-0.3l-27.4-23.3l-24.3,27.6
		l0.9,10.4c2.9-0.3,5.9-0.6,9-0.8l14.2-17.7c0.4-0.5,0.9-0.7,1.5-0.8c0.6,0,1.2,0.2,1.6,0.6l15.4,15.8c3.2-0.1,6.4-0.2,9.7-0.3
		C303.9,212.5,303.9,208,303.8,203.2z M413.8,219.4c-2.6-0.3-5.3-0.7-7.9-1l-13.4-19.7c-0.3-0.5-0.9-0.8-1.5-0.9
		c-0.6-0.1-1.2,0.1-1.6,0.5l-18.1,17c-2.5-0.2-5.1-0.3-7.6-0.4c0.1-3.9,0.3-8.8,0.4-13.2c0,0,0.1,0,0.1-0.1l25.9-21l10,10.8
		c0.2,0.5,0.6,1,1.1,1.2l12.9,14c0,0,0.1,0,0.1,0.1C414.3,211.2,414.1,215.8,413.8,219.4z M441.4,202.9l-15.5,18.2
		c-2.5-0.4-4.9-0.7-7.3-1c0.3-3.8,0.5-8.5,0.6-13.1l18.4-16.3C438.9,194.5,440.2,198.7,441.4,202.9z M247.5,218.1
		c-3.1,0.3-6,0.6-8.9,1l-17.1-16.4c-0.5-0.4-1.1-0.6-1.7-0.5c-0.6,0.1-1.2,0.5-1.5,1.1l-10.5,20.2c-4.8,0.8-7.4,1.3-7.4,1.3
		c3.5-14.7,11.8-32.8,15.9-41.4l30.2,24.1L247.5,218.1z M359,214.8c-3.2-0.1-6.3-0.3-9.4-0.4c0,0,0,0,0,0l-14.8-16.6
		c-0.8-0.9-2.3-0.9-3,0L317,214.1c-2.9,0-5.7,0.1-8.5,0.2c0.2-2.7,0.1-7.9,0-12.8l23.1-22.4l27.6,24.2c0,0,0.1,0,0.1,0.1
		C359.2,207.3,359.1,211.4,359,214.8z M403.3,118.7c3.8-6.1,8.6-12.2,14.4-17.4c-0.2,6,0,14.3,2.3,19.5c-4.1,5.8-7.9,11.5-11.2,16.6
		C405.2,131,403.6,120.7,403.3,118.7z M389.1,152.5c0.4-1.5,3.4-13.8,10.3-27c1.1,5.1,3.1,12,6.4,16.5c-3.9,6.1-7,11.1-8.8,14.1
		C394.4,154.8,391.8,153.6,389.1,152.5z M401.5,158.5c3.7-6,12.2-19.9,22.7-34.9c4.3,0.7,14.7,1.9,23.8-0.8c-2.4,5.9-6,12.2-11.1,19
		c-0.7,1-2.3,2.9-2.3,2.9l-13-0.6l6.5,7.8c0,0-8.9,8.5-15.3,13.6c-1-0.7-2-1.5-3.1-2.2C407,161.7,404.3,160,401.5,158.5z
		 M472.7,593.5l8.5-9.8l9,9.9c0.6,0.7,1.5,1.1,2.4,1c0.9,0,1.8-0.4,2.3-1.1l9.8-11.7l9.3,10.2c0.6,0.7,1.5,1.1,2.4,1
		c0.9,0,1.8-0.5,2.4-1.2l9.1-11.2l9,10c1.2,1.3,3.1,1.4,4.4,0.2c1.3-1.2,1.4-3.1,0.2-4.4l-11.4-12.7c-0.6-0.7-1.4-1.1-2.4-1
		c-0.9,0-1.8,0.4-2.4,1.2l-9.1,11.2l-9.3-10.2c-0.6-0.7-1.5-1.1-2.4-1c-0.9,0-1.8,0.4-2.3,1.1l-9.8,11.7l-9-9.9
		c-0.6-0.7-1.4-1-2.3-1c0,0,0,0,0,0c-0.9,0-1.7,0.4-2.3,1.1l-10.8,12.5c-1.1,1.3-1,3.3,0.3,4.4c0.6,0.5,1.3,0.8,2.1,0.8
		C471.2,594.6,472,594.2,472.7,593.5z M200.3,511.2l8.4-9.7l8.9,9.8c0.6,0.7,1.5,1.1,2.4,1c0.9,0,1.8-0.4,2.3-1.1l9.6-11.5l9.2,10.1
		c0.6,0.7,1.5,1.1,2.4,1c0.9,0,1.8-0.4,2.4-1.2l9-11l8.8,9.8c1.2,1.3,3.1,1.4,4.4,0.2c1.3-1.2,1.4-3.2,0.2-4.4l-11.3-12.6
		c-0.6-0.7-1.4-1.1-2.4-1c-0.9,0-1.8,0.4-2.4,1.2l-9,11.1l-9.2-10.1c-0.6-0.7-1.5-1.1-2.4-1c-0.9,0-1.8,0.4-2.3,1.1l-9.6,11.5
		l-8.9-9.7c-0.6-0.7-1.5-1-2.4-1c-0.9,0-1.8,0.4-2.3,1.1l-10.7,12.4c-1.1,1.3-1,3.3,0.3,4.4c0.6,0.5,1.3,0.8,2.1,0.8
		C198.8,512.3,199.6,511.9,200.3,511.2z"/>
	<path d="M232.7,663.3c4.6,1.6,7.8,4.6,9.8,9.3c0.8,1.6,0.9,3.4,0.4,5.4c-0.4,2.5-1.3,4.8-2.4,7.1c-1.4,3-4,4.9-6.4,6.4
		c-3.7,2.1-7,4.5-10.7,6.3c-2,0.9-4.2,2.1-6.6,2.6c-1.4,0.1-2.3,0.9-2.8,2.3c-0.1,0.8-0.4,1.3-0.8,2c-1.2,2.8-4.9,2.9-7.3,2.5
		c-5.2-0.6-6-5.2-6.2-7.1c-0.8-12.5-0.9-19.2-2-31.6c-0.8-8.7-0.3-19.5-1.2-28.2c-0.2-2.3-0.5-4.5-0.8-6.7c-0.2-1.2-0.6-1.5-1.8-1.2
		c-1.2,0.3-2.5,0.8-3.7,1.1c-1.1,0.3-2.3,0.3-3.3,0c-2.5-0.8-3.2-3.3-1.6-5.3c1.1-1.4,2.3-2.3,3.8-2.9c0.8-0.3,1.5-0.5,2.1-0.9
		c4.5-1.7,4.6-2.7,4.9-6.8c0-3.3,4.2-4.7,6.8-5.5c5.7-1.6,8.1-0.2,9.3,1.7c1.5,1.9,1.7,2.8,1.9,5.4c0,1.4,0.5,1.8,1.8,1.9
		c0.9,0.2,1.7,0.2,2.5,0.3c1.8,0,3.5,0.2,5.3,0.2c7.4,0.2,13.1,3.8,17.6,9.2c0.8,1,1.8,4.7,1.8,8.5c0.1,3.3-1.2,5.7-3.8,8.8
		c-1.1,1.4-2.1,2.8-3.1,4.1c-1.3,1.5-2.6,2.7-4.3,3.8c-1,0.8-2,1.7-3.1,2.6c-0.8,0.7-1.6,1.2-1.9,2.3
		C228.9,661.8,230.7,662.5,232.7,663.3z M214.5,688.8c-0.2,0.1-0.2,0.4-0.2,0.6c0.2,0.5,0.6,1,1.1,0.9c2.4-0.9,4.8-1.6,6.9-2.9
		c2.9-1.5,5.8-3.1,7.5-6c1-1.3,1.4-2.7,1-4.2c-0.4-2.7-1.9-4.6-4.5-5.4c-1.9-0.4-4-0.8-6-1.1c-0.6,0-1.5,0-2.1,0.1
		c-1.6,0.5-2.3,1-2.3,2.6c-0.1,1.9-0.3,4.1-0.4,7C215.3,682.5,215.3,685.7,214.5,688.8z M227.7,636.5c-0.6-1.8-1.5-3.4-3.3-4.2
		c-2.3-1.1-4.5-1.5-6.9-1.4c-1.8,0.1-2.5,0.8-2.3,2.6c0.1,4.5,0.1,9,0.4,13.3c0.1,3,0.3,6,0.1,9c0,1.4,0.6,1.7,1.7,1
		c1.7-1.4,3.5-2.9,5.5-4.2c3.7-2.5,5-5.8,5.3-9.3C228.5,640.7,228.2,638.6,227.7,636.5z M251.9,637c0-2.5,0.6-5.3-0.4-7.5
		c-0.3-0.8,0.6-4,5.6-4.9c6.1-1.4,12.3-2.8,18.5-4.1c2.7-0.6,5.3-0.8,7.8,0.7c1.1,0.5,1.5,1.3,1.1,2.6c-0.3,1.3-1.1,2.4-2.3,3.1
		c-1.7,0.9-3.5,1.6-5.5,1.9c-1.5,0.4-3,0.8-4.5,1.2c-1.2,0.5-1.8,1.1-1.5,2.5c0.4,3.3,0.3,6.8,0.8,10.1c0.4,3.8,0.6,7.6,0.4,11.4
		c-0.1,4.4,0.6,8.6,0.8,12.9c0,1.8,1,2.3,2.6,2c0.6-0.2,1.2-0.3,1.8-0.6c2.7-1.4,5.4-0.6,7.9,0.1c1.1,0.3,2.1,0.8,2.3,2.2
		c0.2,1.5-0.4,2.9-1.6,3.3c-3,1.5-5.9,3.3-9.2,3.9c-1,0.2-1.9,0.3-2.8,0.6c-1,0.3-1.5,0.9-1.5,1.8c-0.3,3.2-0.6,6.6-0.3,10
		c0.1,0.8,0.6,1.3,1.5,1c3-0.6,5.7-1.8,8.4-3.2c2.6-1.3,5.3-1.5,8.1-0.8c1.3,0.3,2.3,1.1,2.4,2.5c0,1.3,0,2.7-1.4,3.5
		c0,0-0.1,0.2-0.2,0.2c-6.8,3.4-13.7,6.1-21.6,6.1c-4.5-0.1-9.9-0.4-11.4-4.6c-0.3-0.8-1.6-4.4-2.1-4.9c-1.9-4.7-2.7-8.9-3.1-12.2
		c-0.6-5-1.5-8.8-1.5-14.1c0-2.8-0.8-7.1,0-11.5C251.5,645,251.9,644.1,251.9,637z M359.4,663.3c4.6,1.6,7.8,4.6,9.8,9.3
		c0.8,1.6,0.9,3.4,0.4,5.4c-0.4,2.5-1.3,4.8-2.4,7.1c-1.4,3-4,4.9-6.4,6.4c-3.7,2.1-7,4.5-10.7,6.3c-2,0.9-4.2,2.1-6.5,2.6
		c-1.4,0.1-2.3,0.9-2.8,2.3c-0.1,0.8-0.4,1.3-0.8,2c-1.2,2.8-4.9,2.9-7.3,2.5c-5.2-0.6-6-5.2-6.2-7.1c-0.8-12.5-0.9-19.2-2-31.6
		c-0.8-8.7-0.3-19.5-1.2-28.2c-0.2-2.3-0.5-4.5-0.8-6.7c-0.2-1.2-0.6-1.5-1.8-1.2c-1.2,0.3-2.5,0.8-3.7,1.1c-1.1,0.3-2.3,0.3-3.3,0
		c-2.5-0.8-3.2-3.3-1.6-5.3c1.1-1.4,2.3-2.3,3.8-2.9c0.8-0.3,1.5-0.5,2.1-0.9c4.5-1.7,4.6-2.7,4.9-6.8c0-3.3,4.2-4.7,6.8-5.5
		c5.7-1.6,8.1-0.2,9.3,1.7c1.5,1.9,1.7,2.8,1.9,5.4c0,1.4,0.5,1.8,1.8,1.9c0.9,0.2,1.7,0.2,2.5,0.3c1.8,0,3.5,0.2,5.3,0.2
		c7.4,0.2,13.1,3.8,17.6,9.2c0.8,1,1.8,4.7,1.8,8.5c0.1,3.3-1.2,5.7-3.8,8.8c-1.1,1.4-2.1,2.8-3.1,4.1c-1.3,1.5-2.6,2.7-4.3,3.8
		c-1,0.8-2,1.7-3.1,2.6c-0.8,0.7-1.6,1.2-1.9,2.3C355.6,661.8,357.4,662.5,359.4,663.3z M341.2,688.8c-0.2,0.1-0.2,0.4-0.2,0.6
		c0.2,0.5,0.6,1,1.1,0.9c2.4-0.9,4.8-1.6,6.9-2.9c2.9-1.5,5.8-3.1,7.5-6c1-1.3,1.4-2.7,1-4.2c-0.4-2.7-1.9-4.6-4.5-5.4
		c-1.9-0.4-4-0.8-6-1.1c-0.6,0-1.5,0-2.1,0.1c-1.6,0.5-2.3,1-2.3,2.6c-0.1,1.9-0.3,4.1-0.4,7C342,682.5,342,685.7,341.2,688.8z
		 M354.4,636.5c-0.6-1.8-1.5-3.4-3.3-4.2c-2.3-1.1-4.5-1.5-6.9-1.4c-1.8,0.1-2.5,0.8-2.3,2.6c0.1,4.5,0.1,9,0.4,13.3
		c0.1,3,0.3,6,0.1,9c0,1.4,0.6,1.7,1.7,1c1.7-1.4,3.5-2.9,5.5-4.2c3.7-2.5,5-5.8,5.3-9.3C355.2,640.7,355,638.6,354.4,636.5z
		 M377.5,648.4c0.3-4.1,1-8.2,2.1-12c0.8-2.1,1.2-4.4,1.5-6.7c0.9-4.9,3.9-8.3,7.6-10.7c2.5-1.7,5.3-2.3,8.3-2.1
		c5.5,0.1,10,2.7,13.5,6.8c6.5,6.9,9.7,15.4,12,24.2c1.5,5.6,2.6,11.2,3.7,16.9c0.4,2.6,0.8,5.3,0.9,7.8c0.2,6.7,1.3,13.1,1,19.6
		c0,1.8,0.1,3.7,0.3,5.5c0.1,3.4-1.4,5.8-4.4,7.5c-4.1,2-8.2,2-12.3,0.8c-1.9-0.6-2.8-2.3-3.1-4.4c-0.2-1.8-0.2-3.5,0.1-5.4
		c0.6-3.4,0.4-7.1,0-10.7c-0.5-5.8-1.1-11.7-1.5-17.4c-0.1-1.2-0.3-2.4-0.5-3.6c-0.2-0.9-0.8-1.2-1.5-1c-5,1.3-9.8,2.7-14.6,4.2
		c-1.1,0.3-1.8,0.9-2.1,2c0,0.3,0,0.5,0,0.8c-0.4,6-0.9,11.9,0,17.9c0.3,1.2,0.8,2.6,1.2,3.8c0.3,0.8,0.2,1.4-0.5,1.9
		c-1,0.8-1.8,1.5-2.9,2.2c-2.3,1.5-5,1.3-7.2-0.4c-0.8-0.6-1.2-1.3-1.4-2.1c-0.2-1.8-0.8-3.4-0.8-5.3c0.2-6.4,0.2-12.9,0.3-20.3
		C376.6,662,377.1,655.2,377.5,648.4z M404.1,649.6c-0.8-3.9-1.8-7.8-3.3-11.7c-0.9-2.4-2.3-4.6-3.9-6.8c-0.4-0.4-0.9-0.8-1.4-1.2
		c-0.8-0.6-1.3-0.4-1.6,0.4c-1.6,4.6-2.9,9.3-3.9,14.2c-0.8,3.8-0.6,7.3-1.3,11.1c-0.2,2.6,0.2,2.9,2.8,1.9
		c3.8-1.6,7.3-3.5,11.4-4.3c1.2-0.2,1.4-0.8,1.4-2.3C404.3,650.7,404.1,650.1,404.1,649.6z M455.9,700.9c-2.3-0.8-4-2.1-5.8-3.5
		c-2.7-2.3-4.8-4.9-7.2-7.5c-3.5-4.7-5.3-8.7-6.7-13.6c-0.9-3.8-1.5-7.8-1.8-11.7c-0.4-5.9,0.8-11.5,2.3-17c0.4-1.7,1.1-3.2,1.4-4.8
		c1.3-5.2,3.5-9.8,6.9-13.7c3.6-4.5,8.2-7.7,13.7-9.6c4-1.4,4.6-1.4,8.7-2.7c3.4-0.7,7.9-0.5,10.2,1.5c1.2,1.2,0.8,0.9,1.9,2
		c0.4,0.4,1,1.1,1.4,1.7c1.9,3.4,1.8,5-0.8,8.1c-1.8,2.1-4.1,3.8-6.3,5.2c-3.1,1.9-5.6,4.6-7.8,7.3c-4.2,4.1-6,11.8-6.4,13.1
		c-1.5,6-2.3,12-1.9,18.3c0.3,3.9,0.1,6.1,1.3,9.2c1.3,2.3,2.6,6.3,4.8,8.5c3,2.7,8.3,2.8,10.1,2.7c1.5-0.3,3,0,4.5,0.8
		c2.6,1.1,3,3,1.6,5.2c-0.8,1.2-1.7,1.9-3.1,2.3c-2.6,0.8-5.3,0.5-9,0.5C464.5,703.3,460.2,702.1,455.9,700.9z M519.5,646.4
		c2-3,3.5-6.4,5.2-9.8c2.3-4.5,4.1-9.1,6.1-13.6c0.3-0.7,0.8-1.5,1.3-2.3c1.2-1.9,2.8-2.4,4.9-1.9c0.4,0.1,0.9,0.3,1.3,0.4
		c2.6,0.9,3,1.5,2.1,4.2c-0.9,2.6-1.8,4.9-2.6,7.5c-2,7.1-5.6,13.5-9.1,19.9c-0.8,1.2-1.5,2.4-2.3,3.8c-1.7,3.1-4,6-6.8,8.3
		c-1,0.8-1.4,1.5-1.1,2.7c1.2,4.1,3,7.8,5.9,11c2,2.5,5.4,1.7,6.6-1.2c0.6-1.5,1.1-3,1.1-4.5c0-0.9,0.1-1.6,0.4-2.4
		c1-2.2,2.3-3,4.5-2.9c4.7,0.3,8.2,5.7,6.7,10.2c-0.4,1.4-1.1,2.5-1.9,3.5c-2.1,2-4.5,4-7.1,5.5c-3.3,2-7.1,2.9-11,2.5
		c-1.4-0.2-2.3-0.7-3.2-1.5c-3.5-3.2-7.2-6.3-9.1-11.3c-0.8,1.2-1,2.3-1.1,3.1c0,3.6-0.3,5.9-0.9,10.8c0,0.4-0.8,7.9-1.5,11.3
		c-0.6,2.1-2.3,3.3-4.1,4.4c-0.4,0.1-1,0.2-1.4,0.1c-2.3-0.4-4.5-0.8-6.8-1.4c-1.9-0.4-3.3-1.9-3.4-4c-0.9-7-2.1-13.7-2.6-20.6
		c-0.5-8.9-0.5-17.7-1.1-26.6c-0.4-7.9-0.1-16.1-0.1-24.1c0-3.3,1.5-5.7,4.1-7.9c4.6-3.8,9.8-4.2,15.4-3.7c1.6,0.2,2.7,1.2,3.4,2.7
		c0.4,1.1,0.9,2,1.1,3c0.8,4,1,7.8,0.2,11.8c-0.1,0.4-0.1,0.8-0.1,1.2c-0.3,5.8-0.6,11.8-0.9,17.8c0,0.6,0.1,1.3,0.2,2.6
		C515.2,652.2,517.5,649.6,519.5,646.4z M500.9,499.9c10.5-5.1-12.1-22-15.1-24.2l-0.4,0.6c-8.4,12.6-21.3,23.4-37.1,31.7
		c7.7,9.4,18.3,19.2,27.9,17.6c11.5-1.9-4.3-14.3-4.3-14.3s28.7,19.1,29.5,6.2c0.3-5.3-6.1-12.5-12.7-18.6
		C492.7,500.8,497.1,501.7,500.9,499.9z M189.5,426.3c4.4-1.3,7.9-4.9,10.3-10.9c-2.4-6.2-4.8-13-6.9-20.2
		c-2.8,4.2-6.3,6.9-10.5,8.1c-1.7,0.5-3.4,0.7-5.1,0.7c-5.5,0-10.7-2.2-14.1-4.1c2.7,7.7,6.1,15.5,10.1,23.1
		C176.9,425,183.5,428,189.5,426.3z M498.7,282c0.4,0.4,9.3,9.3,8.6,20.1c-0.3,5-2.6,9.4-6.8,13.3c2.3,3.1,6,9.1,5.1,16
		c-0.7,5.6-4.1,10.4-10.2,14.5c1.3,4.2,3.5,13.9-0.3,22.7c-2.6,6-7.5,10.5-14.5,13.2c-0.3,0.1-0.6,0.2-0.9,0.2c-0.1,0-0.2,0-0.2,0
		c7.2,2.8,14.7,4.4,22,5.1c7.8-4.6,11.8-12.3,12-22.9c0.1-9.6-3.1-18-3.1-18.1c-0.4-1.1,0-2.4,1-3.1c6.7-4.3,10.5-9.5,11.3-15.4
		c1.5-10.7-7.2-20.5-7.3-20.6c-0.5-0.5-0.7-1.2-0.6-1.9c0-0.7,0.4-1.3,0.9-1.8c5-4.2,7.8-9.2,8.2-14.8c0.8-11.4-8.4-22.3-9.3-23.4
		c-5.3,5.9-10.7,11.5-16,16.6C498.4,281.8,498.6,281.9,498.7,282z M396.5,268.8c-6.2,0-11.2,5-11.2,11.2c0,6.2,5,11.2,11.2,11.2
		c6.2,0,11.2-5,11.2-11.2C407.7,273.8,402.7,268.8,396.5,268.8z M400.1,280.8c-2,0-3.6-1.6-3.6-3.6c0-2,1.6-3.6,3.6-3.6
		c2,0,3.6,1.6,3.6,3.6C403.7,279.2,402.1,280.8,400.1,280.8z M273.1,268.8c-6.2,0-11.2,5-11.2,11.2c0,6.2,5,11.2,11.2,11.2
		c6.2,0,11.2-5,11.2-11.2C284.3,273.8,279.3,268.8,273.1,268.8z M276.7,280.8c-2,0-3.6-1.6-3.6-3.6c0-2,1.6-3.6,3.6-3.6
		c2,0,3.6,1.6,3.6,3.6C280.3,279.2,278.7,280.8,276.7,280.8z M359.8,189.8l-9.3-10.4l-1.9,8.3l10.9,9.6
		C359.7,193.5,359.8,190.7,359.8,189.8z M364.6,189.5c0,0-0.1,2.4-0.2,5.9l10.3-8.4l-1.3-6.9l-9,9.4L364.6,189.5z M333.9,174.6
		l10.6,9.3l2.1-9.1l-4.7-5.3c-2.8-0.1-5.6-0.1-8.5-0.1L333.9,174.6z M319.8,174l1.4,8.4l7.8-7.6l-0.5-5.5c-2,0-3.9,0-5.9,0l-3,4
		C319.7,173.6,319.8,173.8,319.8,174z M295.8,181.1l-1,8.4l8.8,7.5c-0.1-3-0.2-5.6-0.3-7.4c0,0,0,0,0,0L295.8,181.1z M431.3,189.9
		l4.8-4.3c-1-3.2-1.9-6-2.5-7.7l-4.5,5L431.3,189.9z M419.4,200.4l7.9-7l-2-6.3l-5.8,6.5C419.6,195.2,419.5,197.6,419.4,200.4z
		 M379,183.6l9.1-7.4v-4.6c-2-0.1-4-0.3-6.1-0.4l-4.5,4.7L379,183.6z M414.8,192.8l-6.6-10.1l-2.8,7.2l9.3,10
		C414.7,196.8,414.8,194.2,414.8,192.8z M392.9,176.5l8.8,9.5l3.2-8.2l-3.4-5.1c-2.8-0.2-5.7-0.5-8.7-0.7V176.5z M308.2,189.3
		c0,0.6,0.1,2.8,0.2,5.6l8.7-8.5l-1.4-8l-7.7,10.2C308.1,188.9,308.1,189.1,308.2,189.3z M277.8,175l12.6,10.7l1.1-9.4l-5.3-5.9
		c-3,0.2-6,0.3-8.9,0.5L277.8,175z M250.9,200.6l7-8l-1-8.3l-6.7,8.7L250.9,200.6z M218.9,179.2l13.3,10.6l1.4-7.8l-5.7-5.4
		c-3,0.5-6.1,1.1-9,1.7c0,0-0.1,0.2-0.4,0.7C218.7,179,218.8,179.1,218.9,179.2z M262.1,187.8l10.8-12.3l-0.6-4.2
		c-1.9,0.1-3.8,0.3-5.7,0.4l-5.5,7.2L262.1,187.8z M236.5,193.2l9.5,7.6l-0.6-7.7l-7.6-7.2L236.5,193.2z M310.7,542.7
		c-0.2-0.4-0.3-0.9-0.4-1.3c-1.8,1.2-4,2-6.7,2.2c-0.2,0-0.4,0-0.6,0c0,0,0,0,0,0c-3.1,0-5.9-1.2-8-3.4c-0.2-0.2-0.4-0.5-0.6-0.8
		c-0.1,0.5-0.5,0.9-1,1.2c-0.5,0.1-1.2,0.1-1.4,0.4c-0.6,0-1.2-0.1-1.7-0.2c-1.9,0.7-4,1-6.6,0.7c-3.5-0.4-6.3-2.4-7.8-5.5
		c-2-4-1.6-9.5-0.3-14.7c-3.4,1.2-6.2,3.1-8.4,6.1c-0.7,1.1-1.6,2-2.2,3c-2.5,2.7-4.6,5.9-5.9,9.3c-3.6,8.4-5.3,17-4.9,26
		c0.1,3.4,0,6.8,0.5,10c0.6,5.9,2.1,11.6,4.4,16.9c1.2,3.2,3,5.8,5.2,8c0.7,0.9,1.6,1.5,2.2,2.3c3.3,4.3,7.5,7.1,12.3,9.4
		c2.2,1,8.7,3.1,15.9,0.4c1.8-0.7,3.4-1.6,4.8-2.9c3.1-2.7,5.5-6.2,7.3-9.8c0.6-1.4,1.1-2.6,2-3.6c1.2-1.6,2-3.4,2.6-5.2
		c1.1-3.3,2.1-6.5,3-9.8c1.4-4.8,1.7-9.8,1.4-14.6C315.1,558.4,313.9,550.2,310.7,542.7z M296.2,598.5c-1.2,2.1-2.6,3.8-4.9,4.7
		c-3.7,1.1-6.8,0-8.6-3.8c-1.1-1.7-2-3.6-2.5-5.7c-2.1-7-3.8-14.3-4.4-21.7c-0.6-5-0.6-9.8-0.6-14.9c0-3.2,0-6.5,0-9.7
		c0.2-2.3,0.7-2.6,2.6-1.6c2.6,1.7,5.8,2.6,8.9,3.3c2.1,0.5,4.3,0.6,6.5,0c0.9-0.2,1.7-0.4,2.7-0.6c0.7,0,1.5,0.2,1.7,0.7
		c1.2,1.7,2.5,3.4,3,5.5c1.2,4.3,2,8.7,2.2,13.4c0.2,3.1,0.2,6.2,0.2,9.4C302.7,585.3,300.1,592.2,296.2,598.5z M371.6,86.1
		c6.6-3.8,17.3-10.7,23.3-17.7c-2.8-13-9.8-21.8-13.3-25.5C378.6,54.3,375,69.4,371.6,86.1z M365.8,86.1c3.4-16.6,7-31.8,9.9-43.4
		c-10.9,6.2-18.5,14.5-23.7,23.8C354.3,70.1,360.3,79.6,365.8,86.1z M423.6,115.7c7-9.8,14.7-19.8,22.3-28.2
		c-8.9,1.5-16.4,5-22.9,9.6C422.6,101.9,422.3,110.1,423.6,115.7z M448.4,117.4c0.5-0.2,1.1-0.2,1.6,0c4.4-13.9,2.5-24.2,1.3-28.4
		c-8,8.7-16.3,19.5-23.8,30C432.6,119.6,441.4,120,448.4,117.4z M401.2,541.7C401.1,541.7,401.1,541.7,401.2,541.7
		c-0.8,0-1.6-0.2-2.3-0.4c0,0-0.1,0-0.1,0c-0.7-0.2-1.4-0.5-2-0.8c0,0-0.1-0.1-0.1-0.1c-0.6-0.4-1.2-0.8-1.8-1.3
		c-2.2,2.5-5.3,4.4-9.4,4.6c-0.2,0-0.4,0-0.6,0c0,0,0,0,0,0c-3.1,0-5.9-1.2-8-3.4c-0.4-0.4-0.8-0.9-1.1-1.4
		c-0.4,0.3-0.8,0.6-1.2,0.9c-0.4,5-0.7,9.8-1,14.9c-0.7,8-0.6,16.4-2.1,24.4c-0.4,1.6-0.4,3.3-1.4,4.9c-0.4-0.7-0.7-0.9-0.9-1.2
		c-2.3-4.7-4.6-9.1-5.4-14.3c-0.4-1.6-0.9-3.2-1.2-4.7c-0.6-2.8-2.6-3.9-4.9-4.6c-2.1-0.2-3.9,0-6,0.6c-2.1,0.6-3.3,1.7-3.7,3.9
		c-0.1,1.7-0.6,3.2-1.1,4.8c-0.7,1.4-0.9,2.7-1.2,4.3c-0.4,2.9-0.9,5.7-1.2,8.6c0,0.4-0.1,0.7-0.9,0.9c-0.1-0.4-0.4-0.7-0.5-1
		c-1.6-9.8-4.6-19.6-5-29.5c0-0.4-0.1-0.5-0.1-0.9c-0.9-5.5-1.6-11.2-2.5-16.7c-0.1-1.5-0.4-2.8-0.6-4.4c-0.2-0.7-0.4-1.5-0.9-2.1
		c-0.2,2.8-0.9,5.3-2.1,7.4c-1.7,2.9-4.4,5-7.8,6.1c0.6,6.4,1.3,12.7,2.7,19c1.8,8.6,3.1,17.2,4.1,26.1c0.6,3.8,1.2,7.5,2.6,11.2
		c0.7,2.1,1.7,3.9,3.2,5.7c3.4,3.9,8.7,3.9,12.2,0c2.2-2.5,3.6-5.3,4.8-8.5c1.1-2.7,2-5.4,2.5-8.2c0-0.4,0.4-0.9,0.6-0.9
		c0.6-0.1,0.7,0.4,0.9,0.7c1.2,3,2.5,6,3.7,9.1c1.5,3.6,6.9,11.7,7.3,12.2c1.8,2.5,1.8,3.8,4.3,5.8c0.6,0.6,2.7,2.3,6,2.3
		c3.2,0,4.4-1,6.6-3.6c2.5-2.6,4.6-5.5,5.9-8.9c2.7-6.9,4.7-13.8,5.3-21.2c0.2-1.8,0.5-3.9,0.9-6c1.6-8.1,3.3-16.1,4.8-24.1
		c0.7-3.4,0.9-6.8,1.5-10.2C402.8,541.7,401.9,541.7,401.2,541.7z M459,602.5c-1.6-0.6-3.3-0.9-5-0.9c-3.8-0.2-7.5,0-11.3,1
		c-0.5,0.1-1.1,0.4-1.6,0.4c-1,0.1-1.7-0.4-1.8-1.2c0-1.4,0-3,0.1-4.3c0.4-2.7,0.7-5.5,0.5-8.2c-0.1-4.8,0.7-9.7,0.2-14.5
		c0-0.5,0.6-9,0.6-12.7c0.2-2.6,0-5.2,0.4-7.8c0.4-4.9,0.5-8.4,0-14.1c-0.1-0.5-0.4-7.6,0.4-10.6c0.4-1.7,0-3.1-0.9-4.6
		c-0.9-2-2.1-3.2-3.8-3.7c-1-0.4-2.3-0.9-3.2-1.4c-1.7-0.9-3.7-1.2-5.8-1.4c-2.6,0-4.9,0.6-7.5,1.5c-2,0.7-3.6,1.7-4.7,3
		c0.4,4.7-0.3,8.7-2.1,11.8c-0.3,0.4-0.6,0.8-0.9,1.2c0,0.4,0,0.8,0,1.2c0.1,4.1,0.6,8,0.6,12.1c-0.1,11.1,0.9,22.2,1.1,33.3
		c0,1,0.1,2.2,0.4,3.2c0.2,3.7,1,7.1,1.1,10.7c0,4.8,0.7,9.5,1.7,14.3c0.7,3.9,1.2,4.3,5.9,4.8c0.7,0.2,4.7-0.2,6-0.1
		c1.7,0.4,4.4,0.5,6.2,0.5c8-0.1,15.4-2.2,22.8-4.9c0.4,0,0.7-0.2,0.9-0.2C464.3,608.6,464.1,604.5,459,602.5z"/>
	<path fill="#F3C170" d="M403.3,536.7c-6.6,1.6-7.8-5.9-8-9.3H395c-0.7,3.4-3,11.1-9.9,11.5c-6.5,0.3-7.8-7.4-8-11.5h-0.4
		c-0.8,3.7-3.3,10.3-10.6,9.3c-10.1-1.3-2.2-22,0.7-27c3-5.1,11.9-16.5,28.8-9.6c4.9,2,11.2,7.2,13.6,16
		C411.9,525.5,411.7,534.6,403.3,536.7z M327.6,516.1c-2.4-8.8-8.8-14-13.6-16c-16.9-6.9-25.9,4.6-28.8,9.6c-3,5.1-10.8,25.8-0.7,27
		c7.3,0.9,9.8-5.6,10.6-9.3h0.4c0.2,4.1,1.5,11.8,8,11.5c6.9-0.3,9.2-8,9.9-11.5h0.3c0.2,3.4,1.4,11,8,9.3
		C330,534.6,330.2,525.5,327.6,516.1z"/>
</g>
</svg>
