<?xml version="1.0" encoding="utf-8"?>
<!-- Generator: Adobe Illustrator 22.0.1, SVG Export Plug-In . SVG Version: 6.00 Build 0)  -->
<svg version="1.1" id="Calque_1" xmlns="http://www.w3.org/2000/svg" xmlns:xlink="http://www.w3.org/1999/xlink" x="0px" y="0px"
	 viewBox="0 0 432 432" style="enable-background:new 0 0 432 432;" xml:space="preserve">
<style type="text/css">
	.st0{fill:#BE1622;}
	.st1{fill:#EC605F;}
	.st2{fill:#A11916;}
	.st3{fill:#F4A7A5;}
	.st4{fill:#EF7D80;}
	.st5{fill:#3C3C3B;}
	.st6{fill:#FFFFFF;}
	.st7{fill:#EB9D9B;}
</style>
<g>
	<g>
		<path class="st3" d="M343,337.8l11.5-0.8l-60.5-28.6c-2.1-28.1-16.4-61.6-27.1-83.2c32.3-7.5,57.6-25,54.2-59.1
			c-1.8-17.8-19.8-32.7-31.5-45.4L312.5,86l-30.1-16.4l-18.3,32.1l0,0c-30.9-15.8-68.2-14-97.2,2.2l0.2-0.2l-19.6-31.3l-29.4,17.7
			l24.3,33.4c-14.8,16.5-26.4,30.1-29.7,43c-8.5,33.8,9.6,52.4,52,59.7c-10.7,21.7-24.6,54.6-26.7,82.3L77.5,337l11.5,0.8l-8.5,7.2
			l68.2-17.2c29.4,15.5,110.1,17.8,136.8,0.5l66.1,16.7L343,337.8z"/>
		<g>
			<g>
				<path class="st4" d="M282.5,69.5l-0.2,0.3c-0.5,6.1-1.3,20,2.8,22.9c4.9,3.4,19.8-2.6,26.8-5.8l0.6-0.9L282.5,69.5z"/>
				<path class="st4" d="M147.5,72.3l-29.4,17.7L119,91c7.4,3,22.3,8.2,26.9,4.6c4-3,2.7-16.7,1.9-22.9L147.5,72.3z"/>
			</g>
			<path class="st4" d="M214.8,170.4c-32.1,1.2-57.6,16.9-56.9,35.2c0.7,18.3,24.2,18.4,58.1,18c36.4-0.4,58.7-3.9,58.1-22.2
				C273.4,183.1,246.9,169.3,214.8,170.4z M177.6,213.7c-2.6,0.1-4.9-3.5-5-8.1c-0.2-4.6,1.8-8.4,4.4-8.4c2.6-0.1,4.9,3.5,5,8.1
				C182.2,209.9,180.2,213.6,177.6,213.7z M256.5,210.9c-2.6,0.1-4.9-3.5-5-8.1c-0.2-4.6,1.8-8.4,4.4-8.4c2.6-0.1,4.9,3.5,5,8.1
				C261.1,207,259.2,210.8,256.5,210.9z"/>
			<g>
				<g>
					<path class="st5" d="M168.9,122.2c-9.2-0.1-16.8,9.7-17,21.9c-0.2,12.2,7,22.2,16.2,22.3c9.2,0.1,16.8-9.7,17-21.9
						C185.3,132.2,178.1,122.3,168.9,122.2z"/>
					<g>
						<path class="st6" d="M170.2,150.6c4.7-0.8,7.7-6.4,6.7-12.6c-1-6.2-5.5-10.6-10.2-9.8c-4.7,0.8-7.7,6.4-6.7,12.6
							C161,147,165.6,151.4,170.2,150.6z"/>
						<path class="st6" d="M170,151.5c-1.8,0.5-2.6,2.8-1.9,5.2c0.7,2.4,2.8,4,4.6,3.6c1.8-0.5,2.6-2.8,1.9-5.2
							C173.9,152.7,171.8,151.1,170,151.5z"/>
					</g>
				</g>
				<g>
					<path class="st5" d="M261.4,122.2c-9.2-0.1-16.8,9.7-17,21.9c-0.2,12.2,7,22.2,16.2,22.3c9.2,0.1,16.8-9.7,17-21.9
						C277.8,132.2,270.6,122.3,261.4,122.2z"/>
					<g>
						<path class="st6" d="M262.7,150.6c4.7-0.8,7.7-6.4,6.7-12.6c-1-6.2-5.5-10.6-10.2-9.8c-4.7,0.8-7.7,6.4-6.7,12.6
							C253.5,147,258.1,151.4,262.7,150.6z"/>
						<path class="st6" d="M262.5,151.5c-1.8,0.5-2.6,2.8-1.9,5.2c0.7,2.4,2.8,4,4.6,3.6c1.8-0.5,2.6-2.8,1.9-5.2
							C266.3,152.7,264.3,151.1,262.5,151.5z"/>
					</g>
				</g>
			</g>
		</g>
		<path class="st7" d="M227.1,229.7c-24.6,0.4-45.4-0.7-62.4-3.6c-1,2.1-2.1,4.4-3.2,6.7c17.5,3.4,39.5,4.7,65.6,4.2
			c14.6-0.3,29.4-1.9,42.8-5.3c-1.1-2.3-2.1-4.4-3.2-6.5C254.2,228.1,240.6,229.4,227.1,229.7z"/>
		<g>
			<polygon class="st7" points="177.1,280.7 184.5,362.5 189.2,352.1 193,362.5 201.5,280.7 			"/>
			<polygon class="st4" points="189.2,352.1 193,362.5 194.9,344.7 182.8,343.4 184.5,362.5 			"/>
		</g>
		<polygon class="st4" points="89,337.8 80.5,345 98,340.6 95,328.7 77.5,337 		"/>
		<polygon class="st4" points="343,337.8 351.5,345 334,340.6 337,328.7 354.5,337 		"/>
		<polygon class="st7" points="253.2,280.7 245.8,362.5 241.1,352.1 237.3,362.5 228.8,280.7 		"/>
		<polygon class="st4" points="241.1,352.1 237.3,362.5 235.4,344.7 247.5,343.4 245.8,362.5 		"/>
	</g>
	<g>
		<g>
			<path class="st0" d="M130.3,279.7c-1.1-0.6-2.2,0.1-2.8,1.2c-0.5,0.9-0.4,2.9,1.1,4.2c-0.2,0.2-3-0.8-4.2,1.2
				c-1.1,1.8,0.2,3.6,2.4,4.6c2.7,1.2,5.4,1.2,7.3,0.5c2-0.6,3.2-1.7,3.4-2.4c0.3-1.2-0.9-3-2.4-4.8
				C133.7,282.3,131.9,280.5,130.3,279.7z"/>
			<path class="st0" d="M96.5,208.5c2.7-1.6,2.3-11.4-0.4-15.9c-1-1.6-2.6-1.6-4-0.8c-1.2,0.7-2.3,3.1-1.6,5.5c-0.3,0-2.8-3-5.3-1.5
				c-2.4,1.4-2.2,3.9-0.7,6.4C88,208.1,94.8,209.5,96.5,208.5z"/>
			<path class="st0" d="M76.3,162.5c1.2-0.1,2.4-1.8,3.5-3.9c1.1-2,2-4.4,2.1-6.2c0.1-1.3-0.9-1.9-2.1-2.1c-1-0.1-2.7,0.8-3.3,2.6
				c-0.2-0.1-0.4-3-2.6-3.2c-2-0.2-3.1,1.5-3.1,3.8c-0.1,2.8,0.9,5.1,2.2,6.6C74.2,161.8,75.6,162.6,76.3,162.5z"/>
			<path class="st0" d="M91.1,162.9c1.3,0.5,3.5-0.6,5.7-1.9c2.2-1.4,4.5-3,5.7-4.5c0.8-1.1,0.3-2.4-0.8-3.3
				c-0.9-0.8-3.1-1.1-4.8,0.3c-0.1-0.1,0.3-0.9,0.4-1.9c0.1-1,0.1-2.1-0.9-3c-1.8-1.5-4-0.5-5.6,1.8c-1.9,2.8-2.3,5.9-1.9,8.2
				C89.3,161,90.3,162.6,91.1,162.9z"/>
			<path class="st0" d="M73.2,192.6c1.2,0,2.7-1.8,4-4c1.2-2.2,2.2-4.8,2.3-6.8c0.1-1.4-1-2.1-2.3-2.2c-1.1-0.1-2.9,0.9-3.5,2.9
				c-0.2-0.1-0.5-3.2-2.8-3.3c-2.2-0.2-3.2,1.6-3.3,4c-0.1,2.8,0.9,5.2,2.1,6.9C71,191.7,72.4,192.6,73.2,192.6z"/>
			<path class="st0" d="M74.9,206.4c-0.9-2.3-3.3-2.7-5.7-1.9c-2,0.7-4.5,3.8-3.9,7.7c-0.2,0-1.1-1.3-2.4-2.4
				c-1.3-1.1-3.1-2.1-5.3-1.4c-2,0.7-3.1,2.1-3.5,3.9c-0.4,1.8,0,4,1,6.3c2.4,5.4,6.6,8.8,10.4,10.5c3.8,1.6,7.1,1.6,8.3,0.7
				c2-1.4,2.5-5.8,2.6-10.4C76.6,214.6,76.2,209.7,74.9,206.4z"/>
			<path class="st0" d="M91,256.3c-1.5-2.9-3.6-5.9-5.7-7.5c-1.5-1.1-3-0.5-4.1,0.9c-0.9,1.1-1.1,3.9,0.6,5.9
				c-0.2,0.1-3.9-1.7-5.7,0.7c-1.7,2.3-0.5,4.7,2,6.5c3,2.2,6.4,2.8,9.1,2.6c2.7-0.2,4.7-1.1,5.3-2C93.3,262.1,92.4,259.2,91,256.3z
				"/>
			<path class="st0" d="M113.7,283.1c-3.6-3.1-7.6-6-11-7.2c-2.4-0.8-4.2,0.7-5.2,3.1c-0.8,2-0.1,6,3.3,8.1c-0.1,0.1-1.7,0-3.5,0.3
				c-1.7,0.3-3.7,1-4.6,3.2c-0.8,2-0.5,3.8,0.7,5.3c1.2,1.5,3.2,2.6,5.6,3.4c5.9,1.7,11.4,0.7,15.1-1.2c3.8-1.9,5.8-4.6,6-6.1
				C120.3,289.5,117.2,286.2,113.7,283.1z"/>
			<path class="st0" d="M127.2,267c0.3-1.8-1.8-4.4-4.3-6.9c-2.5-2.5-5.5-4.9-7.9-5.9c-1.8-0.7-3.2,0.4-4,2.1
				c-0.7,1.4-0.3,4.5,2.2,6.2c-0.1,0.1-1.3-0.1-2.6,0.1c-1.3,0.1-2.8,0.6-3.5,2.2c-1.4,2.9,0.7,5.4,4.3,6.7c4.2,1.5,8.3,1,11.2-0.2
				C125.3,270,127,268.1,127.2,267z"/>
			<path class="st0" d="M100.4,210.6c-1.7,3-1.2,9.7,3.8,13.9c-0.3,0.2-2.7-0.4-5.6-0.3c-2.9,0.1-6.1,0.9-8,4.2
				c-1.7,3.1-1.5,6-0.1,8.6c1.5,2.6,4.2,4.8,7.7,6.5c8.4,4.1,17.1,4,23.5,2.3c6.5-1.7,10.8-5,11.6-7.4c1.3-3.8-2.3-10.2-7.1-16.4
				c-4.9-6.2-11-12.3-16.5-15.2C105.8,204.8,102.4,206.9,100.4,210.6z"/>
		</g>
		<g>
			<path class="st0" d="M301.7,279.7c1.1-0.6,2.2,0.1,2.8,1.2c0.5,0.9,0.4,2.9-1.1,4.2c0.2,0.2,3-0.8,4.2,1.2
				c1.1,1.8-0.2,3.6-2.4,4.6c-2.7,1.2-5.4,1.2-7.3,0.5c-2-0.6-3.2-1.7-3.4-2.4c-0.3-1.2,0.9-3,2.4-4.8
				C298.3,282.3,300.1,280.5,301.7,279.7z"/>
			<path class="st0" d="M335.5,208.5c-2.7-1.6-2.3-11.4,0.4-15.9c1-1.6,2.6-1.6,4-0.8c1.2,0.7,2.3,3.1,1.6,5.5c0.3,0,2.8-3,5.3-1.5
				c2.4,1.4,2.2,3.9,0.7,6.4C344,208.1,337.2,209.5,335.5,208.5z"/>
			<path class="st0" d="M355.7,162.5c-1.2-0.1-2.4-1.8-3.5-3.9c-1.1-2-2-4.4-2.1-6.2c-0.1-1.3,0.9-1.9,2.1-2.1
				c1-0.1,2.7,0.8,3.3,2.6c0.2-0.1,0.4-3,2.6-3.2c2-0.2,3.1,1.5,3.1,3.8c0.1,2.8-0.9,5.1-2.2,6.6
				C357.8,161.8,356.4,162.6,355.7,162.5z"/>
			<path class="st0" d="M340.9,162.9c-1.3,0.5-3.5-0.6-5.7-1.9c-2.2-1.4-4.5-3-5.7-4.5c-0.8-1.1-0.3-2.4,0.8-3.3
				c0.9-0.8,3.1-1.1,4.8,0.3c0.1-0.1-0.3-0.9-0.4-1.9c-0.1-1-0.1-2.1,0.9-3c1.8-1.5,4-0.5,5.6,1.8c1.9,2.8,2.3,5.9,1.9,8.2
				C342.7,161,341.7,162.6,340.9,162.9z"/>
			<path class="st0" d="M358.8,192.6c-1.2,0-2.7-1.8-4-4c-1.2-2.2-2.2-4.8-2.3-6.8c-0.1-1.4,1-2.1,2.3-2.2c1.1-0.1,2.9,0.9,3.5,2.9
				c0.2-0.1,0.5-3.2,2.8-3.3c2.2-0.2,3.2,1.6,3.3,4c0.1,2.8-0.9,5.2-2.1,6.9C361,191.7,359.6,192.6,358.8,192.6z"/>
			<path class="st0" d="M357.1,206.4c0.9-2.3,3.3-2.7,5.7-1.9c2,0.7,4.5,3.8,3.9,7.7c0.2,0,1.1-1.3,2.4-2.4c1.3-1.1,3.1-2.1,5.3-1.4
				c2,0.7,3.1,2.1,3.5,3.9c0.4,1.8,0,4-1,6.3c-2.4,5.4-6.6,8.8-10.4,10.5c-3.8,1.6-7.1,1.6-8.3,0.7c-2-1.4-2.5-5.8-2.6-10.4
				C355.4,214.6,355.8,209.7,357.1,206.4z"/>
			<path class="st0" d="M341,256.3c1.5-2.9,3.6-5.9,5.7-7.5c1.5-1.1,3-0.5,4.1,0.9c0.9,1.1,1.1,3.9-0.6,5.9c0.2,0.1,3.9-1.7,5.7,0.7
				c1.7,2.3,0.5,4.7-2,6.5c-3,2.2-6.4,2.8-9.1,2.6c-2.7-0.2-4.7-1.1-5.3-2C338.7,262.1,339.6,259.2,341,256.3z"/>
			<path class="st0" d="M318.3,283.1c3.6-3.1,7.6-6,11-7.2c2.4-0.8,4.2,0.7,5.2,3.1c0.8,2,0.1,6-3.3,8.1c0.1,0.1,1.7,0,3.5,0.3
				c1.7,0.3,3.7,1,4.6,3.2c0.8,2,0.5,3.8-0.7,5.3c-1.2,1.5-3.2,2.6-5.6,3.4c-5.9,1.7-11.4,0.7-15.1-1.2c-3.8-1.9-5.8-4.6-6-6.1
				C311.7,289.5,314.8,286.2,318.3,283.1z"/>
			<path class="st0" d="M304.8,267c-0.3-1.8,1.8-4.4,4.3-6.9c2.5-2.5,5.5-4.9,7.9-5.9c1.8-0.7,3.2,0.4,4,2.1
				c0.7,1.4,0.3,4.5-2.2,6.2c0.1,0.1,1.3-0.1,2.6,0.1c1.3,0.1,2.8,0.6,3.5,2.2c1.4,2.9-0.7,5.4-4.3,6.7c-4.2,1.5-8.3,1-11.2-0.2
				C306.7,270,305,268.1,304.8,267z"/>
			<path class="st0" d="M331.6,210.6c1.7,3,1.2,9.7-3.8,13.9c0.3,0.2,2.7-0.4,5.6-0.3c2.9,0.1,6.1,0.9,8,4.2c1.7,3.1,1.5,6,0.1,8.6
				c-1.5,2.6-4.2,4.8-7.7,6.5c-8.4,4.1-17.1,4-23.5,2.3c-6.5-1.7-10.8-5-11.6-7.4c-1.3-3.8,2.3-10.2,7.1-16.4
				c4.9-6.2,11-12.3,16.5-15.2C326.2,204.8,329.6,206.9,331.6,210.6z"/>
		</g>
	</g>
</g>
</svg>
